%FSLAX25Y25*%
%MOIN*%
G70*
G01*
G75*
G04 Layer_Color=16711935*
%ADD10R,0.04500X0.06000*%
%ADD11C,0.01969*%
%ADD12C,0.03937*%
%ADD13C,0.01772*%
%ADD14C,0.00787*%
%ADD15C,0.07480*%
%ADD16C,0.08661*%
%ADD17R,0.06000X0.06000*%
%ADD18C,0.06000*%
%ADD19R,0.06000X0.06000*%
%ADD20C,0.05906*%
%ADD21R,0.05906X0.05906*%
%ADD22C,0.05000*%
%ADD23C,0.00394*%
%ADD24R,0.05300X0.06800*%
%ADD25C,0.08280*%
%ADD26C,0.09461*%
%ADD27R,0.06800X0.06800*%
%ADD28C,0.06800*%
%ADD29R,0.06800X0.06800*%
%ADD30C,0.06706*%
%ADD31R,0.06706X0.06706*%
%ADD32C,0.05800*%
D14*
X78740Y-27559D02*
X79790D01*
X79265D01*
Y-24410D01*
X78740Y-24935D01*
X81364Y-24410D02*
X83463D01*
Y-24935D01*
X81364Y-27034D01*
Y-27559D01*
X84513D02*
X86612Y-25460D01*
X87661Y-24935D02*
X88186Y-24410D01*
X89235D01*
X89760Y-24935D01*
Y-27034D01*
X89235Y-27559D01*
X88186D01*
X87661Y-27034D01*
Y-24935D01*
X92909Y-27559D02*
X90810D01*
X92909Y-25460D01*
Y-24935D01*
X92384Y-24410D01*
X91334D01*
X90810Y-24935D01*
X93958Y-27559D02*
X96057Y-25460D01*
X99206Y-27559D02*
X97107D01*
X99206Y-25460D01*
Y-24935D01*
X98681Y-24410D01*
X97632D01*
X97107Y-24935D01*
X100256D02*
X100780Y-24410D01*
X101830D01*
X102355Y-24935D01*
Y-27034D01*
X101830Y-27559D01*
X100780D01*
X100256Y-27034D01*
Y-24935D01*
X103404Y-27559D02*
X104454D01*
X103929D01*
Y-24410D01*
X103404Y-24935D01*
X106028D02*
X106553Y-24410D01*
X107602D01*
X108127Y-24935D01*
Y-25460D01*
X107602Y-25985D01*
X108127Y-26509D01*
Y-27034D01*
X107602Y-27559D01*
X106553D01*
X106028Y-27034D01*
Y-26509D01*
X106553Y-25985D01*
X106028Y-25460D01*
Y-24935D01*
X106553Y-25985D02*
X107602D01*
X39370Y-8662D02*
Y-11811D01*
X41469D01*
X43043Y-9712D02*
X44093D01*
X44618Y-10237D01*
Y-11811D01*
X43043D01*
X42519Y-11286D01*
X43043Y-10762D01*
X44618D01*
X45667Y-9712D02*
Y-11286D01*
X46192Y-11811D01*
X47766D01*
Y-12336D01*
X47242Y-12861D01*
X46717D01*
X47766Y-11811D02*
Y-9712D01*
X50390Y-11811D02*
X49341D01*
X48816Y-11286D01*
Y-10237D01*
X49341Y-9712D01*
X50390D01*
X50915Y-10237D01*
Y-10762D01*
X48816D01*
X51964Y-9712D02*
Y-11811D01*
Y-10762D01*
X52489Y-10237D01*
X53014Y-9712D01*
X53539D01*
X58262Y-11811D02*
Y-8662D01*
X60361Y-11811D01*
Y-8662D01*
X61935Y-9712D02*
X62985D01*
X63509Y-10237D01*
Y-11811D01*
X61935D01*
X61410Y-11286D01*
X61935Y-10762D01*
X63509D01*
X64559Y-11811D02*
Y-9712D01*
X65083D01*
X65608Y-10237D01*
Y-11811D01*
Y-10237D01*
X66133Y-9712D01*
X66658Y-10237D01*
Y-11811D01*
X69282D02*
X68232D01*
X67707Y-11286D01*
Y-10237D01*
X68232Y-9712D01*
X69282D01*
X69806Y-10237D01*
Y-10762D01*
X67707D01*
X70856Y-9712D02*
X71381D01*
Y-10237D01*
X70856D01*
Y-9712D01*
Y-11286D02*
X71381D01*
Y-11811D01*
X70856D01*
Y-11286D01*
X39370Y-19685D02*
Y-16536D01*
X40944D01*
X41469Y-17061D01*
Y-18111D01*
X40944Y-18635D01*
X39370D01*
X40420D02*
X41469Y-19685D01*
X44093D02*
X43043D01*
X42519Y-19160D01*
Y-18111D01*
X43043Y-17586D01*
X44093D01*
X44618Y-18111D01*
Y-18635D01*
X42519D01*
X45667Y-17586D02*
X46717Y-19685D01*
X47766Y-17586D01*
X48816Y-19685D02*
X49865D01*
X49341D01*
Y-17586D01*
X48816D01*
X51440Y-19685D02*
X53014D01*
X53539Y-19160D01*
X53014Y-18635D01*
X51964D01*
X51440Y-18111D01*
X51964Y-17586D01*
X53539D01*
X54588Y-19685D02*
X55638D01*
X55113D01*
Y-17586D01*
X54588D01*
X57737Y-19685D02*
X58786D01*
X59311Y-19160D01*
Y-18111D01*
X58786Y-17586D01*
X57737D01*
X57212Y-18111D01*
Y-19160D01*
X57737Y-19685D01*
X60361D02*
Y-17586D01*
X61935D01*
X62460Y-18111D01*
Y-19685D01*
X63509Y-17586D02*
X64034D01*
Y-18111D01*
X63509D01*
Y-17586D01*
Y-19160D02*
X64034D01*
Y-19685D01*
X63509D01*
Y-19160D01*
X39370Y-27559D02*
Y-24410D01*
X40944D01*
X41469Y-24935D01*
Y-25985D01*
X40944Y-26509D01*
X39370D01*
X42519Y-25460D02*
Y-27559D01*
Y-26509D01*
X43043Y-25985D01*
X43568Y-25460D01*
X44093D01*
X45667Y-27559D02*
X46717D01*
X46192D01*
Y-25460D01*
X45667D01*
X48291Y-27559D02*
Y-25460D01*
X49865D01*
X50390Y-25985D01*
Y-27559D01*
X51964Y-24935D02*
Y-25460D01*
X51440D01*
X52489D01*
X51964D01*
Y-27034D01*
X52489Y-27559D01*
X57212Y-24410D02*
Y-27559D01*
X58786D01*
X59311Y-27034D01*
Y-24935D01*
X58786Y-24410D01*
X57212D01*
X60885Y-25460D02*
X61935D01*
X62460Y-25985D01*
Y-27559D01*
X60885D01*
X60361Y-27034D01*
X60885Y-26509D01*
X62460D01*
X64034Y-24935D02*
Y-25460D01*
X63509D01*
X64559D01*
X64034D01*
Y-27034D01*
X64559Y-27559D01*
X67707D02*
X66658D01*
X66133Y-27034D01*
Y-25985D01*
X66658Y-25460D01*
X67707D01*
X68232Y-25985D01*
Y-26509D01*
X66133D01*
X69282Y-25460D02*
X69806D01*
Y-25985D01*
X69282D01*
Y-25460D01*
Y-27034D02*
X69806D01*
Y-27559D01*
X69282D01*
Y-27034D01*
X78740Y-17061D02*
X79265Y-16536D01*
X80314D01*
X80839Y-17061D01*
Y-19160D01*
X80314Y-19685D01*
X79265D01*
X78740Y-19160D01*
Y-17061D01*
X81889Y-19685D02*
X82938D01*
X82414D01*
Y-16536D01*
X81889Y-17061D01*
X84513Y-19685D02*
Y-19160D01*
X85037D01*
Y-19685D01*
X84513D01*
X87136Y-17061D02*
X87661Y-16536D01*
X88711D01*
X89235Y-17061D01*
Y-19160D01*
X88711Y-19685D01*
X87661D01*
X87136Y-19160D01*
Y-17061D01*
X90285D02*
X90810Y-16536D01*
X91859D01*
X92384Y-17061D01*
Y-19160D01*
X91859Y-19685D01*
X90810D01*
X90285Y-19160D01*
Y-17061D01*
X78740Y-8662D02*
Y-11811D01*
X80314D01*
X80839Y-11286D01*
Y-10762D01*
X80314Y-10237D01*
X78740D01*
X80314D01*
X80839Y-9712D01*
Y-9187D01*
X80314Y-8662D01*
X78740D01*
X82414Y-11811D02*
X83463D01*
X83988Y-11286D01*
Y-10237D01*
X83463Y-9712D01*
X82414D01*
X81889Y-10237D01*
Y-11286D01*
X82414Y-11811D01*
X85562Y-9187D02*
Y-9712D01*
X85037D01*
X86087D01*
X85562D01*
Y-11286D01*
X86087Y-11811D01*
X88186Y-9187D02*
Y-9712D01*
X87661D01*
X88711D01*
X88186D01*
Y-11286D01*
X88711Y-11811D01*
X90810D02*
X91859D01*
X92384Y-11286D01*
Y-10237D01*
X91859Y-9712D01*
X90810D01*
X90285Y-10237D01*
Y-11286D01*
X90810Y-11811D01*
X93433D02*
Y-9712D01*
X93958D01*
X94483Y-10237D01*
Y-11811D01*
Y-10237D01*
X95008Y-9712D01*
X95533Y-10237D01*
Y-11811D01*
X101830Y-9187D02*
X101305Y-8662D01*
X100256D01*
X99731Y-9187D01*
Y-9712D01*
X100256Y-10237D01*
X101305D01*
X101830Y-10762D01*
Y-11286D01*
X101305Y-11811D01*
X100256D01*
X99731Y-11286D01*
X103404Y-11811D02*
X104454D01*
X104978Y-11286D01*
Y-10237D01*
X104454Y-9712D01*
X103404D01*
X102879Y-10237D01*
Y-11286D01*
X103404Y-11811D01*
X106028D02*
X107077D01*
X106553D01*
Y-8662D01*
X106028D01*
X110751D02*
Y-11811D01*
X109177D01*
X108652Y-11286D01*
Y-10237D01*
X109177Y-9712D01*
X110751D01*
X113375Y-11811D02*
X112325D01*
X111800Y-11286D01*
Y-10237D01*
X112325Y-9712D01*
X113375D01*
X113899Y-10237D01*
Y-10762D01*
X111800D01*
X114949Y-9712D02*
Y-11811D01*
Y-10762D01*
X115474Y-10237D01*
X115998Y-9712D01*
X116523D01*
D25*
X171904Y28858D02*
D03*
Y11142D02*
D03*
Y51142D02*
D03*
Y68858D02*
D03*
D26*
X162061Y33780D02*
D03*
Y6221D02*
D03*
Y46220D02*
D03*
Y73780D02*
D03*
D27*
X116983Y7500D02*
D03*
Y35000D02*
D03*
Y62500D02*
D03*
D28*
Y17500D02*
D03*
Y45000D02*
D03*
Y72500D02*
D03*
X16983Y10000D02*
D03*
X26983D02*
D03*
X36983D02*
D03*
X6983Y20000D02*
D03*
X16983D02*
D03*
X26983D02*
D03*
X36983D02*
D03*
D29*
X6983Y10000D02*
D03*
D30*
X146983Y75000D02*
D03*
Y65000D02*
D03*
X136983D02*
D03*
X146983Y55000D02*
D03*
X136983D02*
D03*
X146983Y45000D02*
D03*
X136983D02*
D03*
X146983Y35000D02*
D03*
X136983D02*
D03*
X146983Y25000D02*
D03*
X136983D02*
D03*
X146983Y15000D02*
D03*
X136983D02*
D03*
X146983Y5000D02*
D03*
X136983D02*
D03*
D31*
Y75000D02*
D03*
D32*
X47983Y27000D02*
D03*
X23983Y45348D02*
D03*
Y33348D02*
D03*
X5000Y60000D02*
D03*
X10000Y70000D02*
D03*
X124983Y63348D02*
D03*
X155983Y56348D02*
D03*
Y22348D02*
D03*
M02*
