M48
;Layer_Color=9474304
;FILE_FORMAT=2:5
INCH,LZ
;TYPE=PLATED
T1F00S00C0.01968
T2F00S00C0.02756
T3F00S00C0.03543
T4F00S00C0.04685
T5F00S00C0.11811
%
T01
X00125Y003
X004Y002
X00475Y00425
X00525Y004
X0025Y0075
X0085Y0085
X01025
X0122Y0107
X01225Y01125
X01175Y01175
X012Y0055
X01775Y00525
X01925Y006
X01975Y00625
X02025Y0065
X02075Y00675
X01775Y00875
X01825Y0025
X0075Y004
X0065
X005Y01425
T02
X019Y0113563
Y0121437
X023Y0051811
X024
X025
Y0028189
X024
X023
X0225Y0145
X0215
X02
X019
T03
X004Y001
X005
X003Y003
Y004
Y005
Y006
Y007
Y008
Y009
Y01
Y011
Y012
X001Y012
Y011
Y009
Y008
Y007
Y006
Y005
Y004
X006Y003
X007
X008
X009
Y004
Y005
Y006
Y007
Y008
Y009
Y01
Y011
Y012
X011
Y011
Y01
Y009
Y008
Y007
Y006
Y005
X009Y001
X008
X007
X006
X008Y0095
Y0105
X017Y011
Y012
Y01
Y009
Y008
Y007
Y006
Y005
X01875Y00725
Y00825
X021Y009
Y01
Y011
Y012
Y001
X02
X019
X022
X023
X024
X027Y003
Y004
Y005
Y006
X022Y009
Y01
Y011
Y012
X024Y015
X025
X017Y013
X011
Y015
X012
X0085
X0075
X0065
X009Y014
Y013
X0055Y015
X0045
X0035
X003Y014
Y013
T04
X0191142Y0027205
X0208858
Y0052795
X0191142
T05
X0011811Y0011811
X0268189
Y0148189
X0011811
M30
