M48
;Layer_Color=9474304
;FILE_FORMAT=2:5
INCH,LZ
;TYPE=PLATED
T1F00S00C0.01968
T2F00S00C0.02756
T3F00S00C0.03500
T4F00S00C0.03543
T5F00S00C0.11811
%
T01
X00325Y002
X004Y00225
X00475Y00425
X00525Y004
X004Y008
X0025Y0075
X007Y0105
X0122Y0107
X01625Y0095
X01915Y0096
X01875Y0055
X0155Y005
X015Y00475
Y0025
X0155Y00275
X012Y0055
X0075Y004
X0065
X02225Y00525
X0225Y00625
X02225Y00675
X02475Y00725
X024Y008
X0255Y006
X0254921Y0050197
Y0007874
X0255Y01225
X007Y01425
X005
T02
X019Y0111063
Y0118937
X0211063Y0115
X0218937
T03
X0195Y00125
X0205
Y00425
X0195
X0215
Y00125
T04
X004Y001
X005
X003Y003
Y004
Y005
Y006
Y007
Y008
Y009
Y01
Y011
Y012
X001Y012
Y011
Y009
Y008
Y007
Y006
Y005
Y004
X006Y003
X007
X008
X009
Y004
Y005
Y006
Y007
Y008
Y009
Y01
Y011
Y012
X011
Y011
Y01
Y009
Y008
Y007
Y006
Y005
X017
Y006
Y007
Y008
Y009
Y01
Y011
Y012
X008Y0105
Y0095
Y001
X009
X007
X006
X029Y003
Y004
Y005
Y006
X0245Y009
X0235
Y01
X0245
Y011
X0235
Y012
X0245
X024Y015
X023
X022
X025
X026
X027
X02
X019
X017Y013
X011
X009
Y014
X0085Y015
X0075
X0065
X011
X012
X0055
X0045
X0035
X003Y014
Y013
T05
X0011811Y0011811
X0288189
Y0148189
X0011811
M30
