%FSLAX25Y25*%
%MOIN*%
G70*
G01*
G75*
G04 Layer_Physical_Order=2*
G04 Layer_Color=16711680*
%ADD10C,0.03937*%
%ADD11C,0.01000*%
%ADD12C,0.01969*%
%ADD13C,0.00787*%
%ADD14C,0.04724*%
%ADD15R,0.04724X0.04724*%
%ADD16R,0.06000X0.06000*%
%ADD17C,0.06000*%
%ADD18R,0.05906X0.05906*%
%ADD19C,0.05906*%
%ADD20R,0.05906X0.05906*%
%ADD21C,0.07087*%
%ADD22C,0.03543*%
%ADD23C,0.19685*%
G36*
X280000Y160000D02*
Y0D01*
X0D01*
Y160000D01*
X0Y160000D01*
D01*
D01*
D01*
X0Y160000D01*
X280000D01*
X280000Y160000D01*
D02*
G37*
%LPC*%
G36*
X90000Y73987D02*
X88968Y73851D01*
X88007Y73453D01*
X87181Y72819D01*
X86547Y71993D01*
X86149Y71032D01*
X86013Y70000D01*
X86149Y68968D01*
X86547Y68007D01*
X87181Y67181D01*
X88007Y66547D01*
X88968Y66149D01*
X90000Y66013D01*
X91032Y66149D01*
X91993Y66547D01*
X92819Y67181D01*
X93453Y68007D01*
X93851Y68968D01*
X93987Y70000D01*
X93851Y71032D01*
X93453Y71993D01*
X92819Y72819D01*
X91993Y73453D01*
X91032Y73851D01*
X90000Y73987D01*
D02*
G37*
G36*
X270500Y63921D02*
Y60500D01*
X273921D01*
X273851Y61032D01*
X273453Y61993D01*
X272819Y62819D01*
X271993Y63453D01*
X271032Y63851D01*
X270500Y63921D01*
D02*
G37*
G36*
X269500D02*
X268968Y63851D01*
X268007Y63453D01*
X267181Y62819D01*
X266547Y61993D01*
X266149Y61032D01*
X266079Y60500D01*
X269500D01*
Y63921D01*
D02*
G37*
G36*
X170000Y73987D02*
X168968Y73851D01*
X168007Y73453D01*
X167181Y72819D01*
X166547Y71993D01*
X166149Y71032D01*
X166013Y70000D01*
X166149Y68968D01*
X166547Y68007D01*
X167181Y67181D01*
X168007Y66547D01*
X168968Y66149D01*
X170000Y66013D01*
X171032Y66149D01*
X171993Y66547D01*
X172819Y67181D01*
X173453Y68007D01*
X173851Y68968D01*
X173987Y70000D01*
X173851Y71032D01*
X173453Y71993D01*
X172819Y72819D01*
X171993Y73453D01*
X171032Y73851D01*
X170000Y73987D01*
D02*
G37*
G36*
X113921Y69500D02*
X110500D01*
Y66079D01*
X111032Y66149D01*
X111993Y66547D01*
X112819Y67181D01*
X113453Y68007D01*
X113851Y68968D01*
X113921Y69500D01*
D02*
G37*
G36*
X109500D02*
X106079D01*
X106149Y68968D01*
X106547Y68007D01*
X107181Y67181D01*
X108007Y66547D01*
X108968Y66149D01*
X109500Y66079D01*
Y69500D01*
D02*
G37*
G36*
X10000Y73987D02*
X8968Y73851D01*
X8007Y73453D01*
X7181Y72819D01*
X6547Y71993D01*
X6149Y71032D01*
X6013Y70000D01*
X6149Y68968D01*
X6547Y68007D01*
X7181Y67181D01*
X8007Y66547D01*
X8968Y66149D01*
X10000Y66013D01*
X11032Y66149D01*
X11993Y66547D01*
X12819Y67181D01*
X13453Y68007D01*
X13851Y68968D01*
X13987Y70000D01*
X13851Y71032D01*
X13453Y71993D01*
X12819Y72819D01*
X11993Y73453D01*
X11032Y73851D01*
X10000Y73987D01*
D02*
G37*
G36*
X110000Y63987D02*
X108968Y63851D01*
X108007Y63453D01*
X107181Y62819D01*
X106547Y61993D01*
X106149Y61032D01*
X106013Y60000D01*
X106149Y58968D01*
X106547Y58007D01*
X107181Y57181D01*
X107413Y57003D01*
X107252Y56529D01*
X95634D01*
X93659Y58504D01*
X93851Y58968D01*
X93987Y60000D01*
X93851Y61032D01*
X93453Y61993D01*
X92819Y62819D01*
X91993Y63453D01*
X91032Y63851D01*
X90000Y63987D01*
X88968Y63851D01*
X88007Y63453D01*
X87181Y62819D01*
X86547Y61993D01*
X86149Y61032D01*
X86013Y60000D01*
X86149Y58968D01*
X86547Y58007D01*
X87181Y57181D01*
X88007Y56547D01*
X88968Y56149D01*
X90000Y56013D01*
X91032Y56149D01*
X91496Y56341D01*
X93919Y53919D01*
X94415Y53587D01*
X95000Y53471D01*
X107252D01*
X107413Y52997D01*
X107181Y52819D01*
X106547Y51993D01*
X106149Y51032D01*
X106013Y50000D01*
X106149Y48968D01*
X106547Y48007D01*
X107181Y47181D01*
X108007Y46547D01*
X108968Y46149D01*
X110000Y46013D01*
X111032Y46149D01*
X111993Y46547D01*
X112819Y47181D01*
X113453Y48007D01*
X113851Y48968D01*
X113987Y50000D01*
X113851Y51032D01*
X113453Y51993D01*
X112819Y52819D01*
X112587Y52997D01*
X112748Y53471D01*
X117680D01*
X118023Y53023D01*
X118602Y52579D01*
X119276Y52300D01*
X120000Y52204D01*
X120724Y52300D01*
X121398Y52579D01*
X121977Y53023D01*
X122421Y53602D01*
X122700Y54276D01*
X122796Y55000D01*
X122700Y55724D01*
X122421Y56398D01*
X121977Y56977D01*
X121398Y57421D01*
X120724Y57700D01*
X120000Y57796D01*
X119276Y57700D01*
X118602Y57421D01*
X118023Y56977D01*
X117680Y56529D01*
X112748D01*
X112587Y57003D01*
X112819Y57181D01*
X113453Y58007D01*
X113851Y58968D01*
X113987Y60000D01*
X113851Y61032D01*
X113453Y61993D01*
X112819Y62819D01*
X111993Y63453D01*
X111032Y63851D01*
X110000Y63987D01*
D02*
G37*
G36*
X250000Y55202D02*
X249122Y55087D01*
X248304Y54748D01*
X247602Y54209D01*
X247063Y53507D01*
X246724Y52689D01*
X246609Y51811D01*
X246724Y50933D01*
X247063Y50115D01*
X247602Y49413D01*
X248304Y48874D01*
X249122Y48535D01*
X250000Y48420D01*
X250878Y48535D01*
X251696Y48874D01*
X252398Y49413D01*
X252937Y50115D01*
X253276Y50933D01*
X253391Y51811D01*
X253276Y52689D01*
X252937Y53507D01*
X252398Y54209D01*
X251696Y54748D01*
X250878Y55087D01*
X250000Y55202D01*
D02*
G37*
G36*
X240000D02*
X239122Y55087D01*
X238304Y54748D01*
X237602Y54209D01*
X237063Y53507D01*
X236724Y52689D01*
X236609Y51811D01*
X236724Y50933D01*
X237063Y50115D01*
X237602Y49413D01*
X238304Y48874D01*
X239122Y48535D01*
X240000Y48420D01*
X240878Y48535D01*
X241696Y48874D01*
X242398Y49413D01*
X242937Y50115D01*
X243276Y50933D01*
X243391Y51811D01*
X243276Y52689D01*
X242937Y53507D01*
X242398Y54209D01*
X241696Y54748D01*
X240878Y55087D01*
X240000Y55202D01*
D02*
G37*
G36*
X230000D02*
X229122Y55087D01*
X228304Y54748D01*
X227602Y54209D01*
X227063Y53507D01*
X226724Y52689D01*
X226609Y51811D01*
X226724Y50933D01*
X227063Y50115D01*
X227602Y49413D01*
X228304Y48874D01*
X229122Y48535D01*
X230000Y48420D01*
X230878Y48535D01*
X231696Y48874D01*
X232398Y49413D01*
X232937Y50115D01*
X233276Y50933D01*
X233391Y51811D01*
X233276Y52689D01*
X232937Y53507D01*
X232398Y54209D01*
X231696Y54748D01*
X230878Y55087D01*
X230000Y55202D01*
D02*
G37*
G36*
X170000Y63987D02*
X168968Y63851D01*
X168007Y63453D01*
X167181Y62819D01*
X166547Y61993D01*
X166149Y61032D01*
X166013Y60000D01*
X166149Y58968D01*
X166547Y58007D01*
X167181Y57181D01*
X168007Y56547D01*
X168968Y56149D01*
X170000Y56013D01*
X171032Y56149D01*
X171993Y56547D01*
X172819Y57181D01*
X173453Y58007D01*
X173851Y58968D01*
X173987Y60000D01*
X173851Y61032D01*
X173453Y61993D01*
X172819Y62819D01*
X171993Y63453D01*
X171032Y63851D01*
X170000Y63987D01*
D02*
G37*
G36*
X273921Y59500D02*
X270500D01*
Y56079D01*
X271032Y56149D01*
X271993Y56547D01*
X272819Y57181D01*
X273453Y58007D01*
X273851Y58968D01*
X273921Y59500D01*
D02*
G37*
G36*
X269500D02*
X266079D01*
X266149Y58968D01*
X266547Y58007D01*
X267181Y57181D01*
X268007Y56547D01*
X268968Y56149D01*
X269500Y56079D01*
Y59500D01*
D02*
G37*
G36*
X10000Y63987D02*
X8968Y63851D01*
X8007Y63453D01*
X7181Y62819D01*
X6547Y61993D01*
X6149Y61032D01*
X6013Y60000D01*
X6149Y58968D01*
X6547Y58007D01*
X7181Y57181D01*
X8007Y56547D01*
X8968Y56149D01*
X10000Y56013D01*
X11032Y56149D01*
X11993Y56547D01*
X12819Y57181D01*
X13453Y58007D01*
X13851Y58968D01*
X13987Y60000D01*
X13851Y61032D01*
X13453Y61993D01*
X12819Y62819D01*
X11993Y63453D01*
X11032Y63851D01*
X10000Y63987D01*
D02*
G37*
G36*
X109500Y73921D02*
X108968Y73851D01*
X108007Y73453D01*
X107181Y72819D01*
X106547Y71993D01*
X106149Y71032D01*
X106079Y70500D01*
X109500D01*
Y73921D01*
D02*
G37*
G36*
X170000Y113987D02*
X168968Y113851D01*
X168007Y113453D01*
X167181Y112819D01*
X166547Y111993D01*
X166149Y111032D01*
X166013Y110000D01*
X166149Y108968D01*
X166547Y108007D01*
X167181Y107181D01*
X168007Y106547D01*
X168968Y106149D01*
X170000Y106013D01*
X171032Y106149D01*
X171993Y106547D01*
X172819Y107181D01*
X173453Y108007D01*
X173851Y108968D01*
X173987Y110000D01*
X173851Y111032D01*
X173453Y111993D01*
X172819Y112819D01*
X171993Y113453D01*
X171032Y113851D01*
X170000Y113987D01*
D02*
G37*
G36*
X193362Y116925D02*
X186638D01*
Y110872D01*
X174133Y98367D01*
X173717Y98645D01*
X173851Y98968D01*
X173987Y100000D01*
X173851Y101032D01*
X173453Y101993D01*
X172819Y102819D01*
X171993Y103453D01*
X171032Y103851D01*
X170000Y103987D01*
X168968Y103851D01*
X168007Y103453D01*
X167181Y102819D01*
X166547Y101993D01*
X166149Y101032D01*
X166013Y100000D01*
X166149Y98968D01*
X166547Y98007D01*
X167181Y97181D01*
X168007Y96547D01*
X168968Y96149D01*
X170000Y96013D01*
X171032Y96149D01*
X171355Y96283D01*
X171633Y95867D01*
X169715Y93949D01*
X168968Y93851D01*
X168007Y93453D01*
X167181Y92819D01*
X166547Y91993D01*
X166149Y91032D01*
X166013Y90000D01*
X166149Y88968D01*
X166547Y88007D01*
X167181Y87181D01*
X168007Y86547D01*
X168968Y86149D01*
X170000Y86013D01*
X171032Y86149D01*
X171993Y86547D01*
X172819Y87181D01*
X173453Y88007D01*
X173851Y88968D01*
X173949Y89715D01*
X192117Y107883D01*
X192593Y108503D01*
X192717Y108802D01*
X192892Y109225D01*
X192994Y110000D01*
Y110201D01*
X193362D01*
Y116925D01*
D02*
G37*
G36*
X30000Y103987D02*
X28968Y103851D01*
X28007Y103453D01*
X27181Y102819D01*
X26547Y101993D01*
X26149Y101032D01*
X26013Y100000D01*
X26149Y98968D01*
X26547Y98007D01*
X27181Y97181D01*
X28007Y96547D01*
X28968Y96149D01*
X30000Y96013D01*
X31032Y96149D01*
X31993Y96547D01*
X32819Y97181D01*
X33453Y98007D01*
X33851Y98968D01*
X33987Y100000D01*
X33851Y101032D01*
X33453Y101993D01*
X32819Y102819D01*
X31993Y103453D01*
X31032Y103851D01*
X30000Y103987D01*
D02*
G37*
G36*
X29500Y109500D02*
X26079D01*
X26149Y108968D01*
X26547Y108007D01*
X27181Y107181D01*
X28007Y106547D01*
X28968Y106149D01*
X29500Y106079D01*
Y109500D01*
D02*
G37*
G36*
X13921Y109500D02*
X10500D01*
Y106079D01*
X11032Y106149D01*
X11993Y106547D01*
X12819Y107181D01*
X13453Y108007D01*
X13851Y108968D01*
X13921Y109500D01*
D02*
G37*
G36*
X9500D02*
X6079D01*
X6149Y108968D01*
X6547Y108007D01*
X7181Y107181D01*
X8007Y106547D01*
X8968Y106149D01*
X9500Y106079D01*
Y109500D01*
D02*
G37*
G36*
X33921Y109500D02*
X30500D01*
Y106079D01*
X31032Y106149D01*
X31993Y106547D01*
X32819Y107181D01*
X33453Y108007D01*
X33851Y108968D01*
X33921Y109500D01*
D02*
G37*
G36*
X90000Y93987D02*
X88968Y93851D01*
X88007Y93453D01*
X87181Y92819D01*
X86547Y91993D01*
X86149Y91032D01*
X86013Y90000D01*
X86149Y88968D01*
X86547Y88007D01*
X86687Y87824D01*
X86383Y87427D01*
X85724Y87700D01*
X85000Y87796D01*
X84276Y87700D01*
X83602Y87421D01*
X83023Y86977D01*
X82579Y86398D01*
X82300Y85724D01*
X82204Y85000D01*
X82300Y84276D01*
X82579Y83602D01*
X83023Y83023D01*
X83602Y82579D01*
X84276Y82300D01*
X85000Y82204D01*
X85724Y82300D01*
X86383Y82573D01*
X86687Y82176D01*
X86547Y81993D01*
X86149Y81032D01*
X86013Y80000D01*
X86149Y78968D01*
X86547Y78007D01*
X87181Y77181D01*
X88007Y76547D01*
X88968Y76149D01*
X90000Y76013D01*
X91032Y76149D01*
X91993Y76547D01*
X92819Y77181D01*
X93453Y78007D01*
X93851Y78968D01*
X93987Y80000D01*
X93851Y81032D01*
X93453Y81993D01*
X92819Y82819D01*
X92587Y82997D01*
X92748Y83471D01*
X100180D01*
X100523Y83023D01*
X101102Y82579D01*
X101776Y82300D01*
X102500Y82204D01*
X103224Y82300D01*
X103898Y82579D01*
X104477Y83023D01*
X104921Y83602D01*
X105200Y84276D01*
X105296Y85000D01*
X105200Y85724D01*
X104921Y86398D01*
X104477Y86977D01*
X103898Y87421D01*
X103224Y87700D01*
X102500Y87796D01*
X101776Y87700D01*
X101102Y87421D01*
X100523Y86977D01*
X100180Y86529D01*
X92748D01*
X92587Y87003D01*
X92819Y87181D01*
X93453Y88007D01*
X93851Y88968D01*
X93987Y90000D01*
X93851Y91032D01*
X93453Y91993D01*
X92819Y92819D01*
X91993Y93453D01*
X91032Y93851D01*
X90000Y93987D01*
D02*
G37*
G36*
X170000Y83987D02*
X168968Y83851D01*
X168007Y83453D01*
X167181Y82819D01*
X166547Y81993D01*
X166149Y81032D01*
X166013Y80000D01*
X166149Y78968D01*
X166547Y78007D01*
X167181Y77181D01*
X168007Y76547D01*
X168968Y76149D01*
X170000Y76013D01*
X171032Y76149D01*
X171993Y76547D01*
X172819Y77181D01*
X173453Y78007D01*
X173851Y78968D01*
X173987Y80000D01*
X173851Y81032D01*
X173453Y81993D01*
X172819Y82819D01*
X171993Y83453D01*
X171032Y83851D01*
X170000Y83987D01*
D02*
G37*
G36*
X110000D02*
X108968Y83851D01*
X108007Y83453D01*
X107181Y82819D01*
X106547Y81993D01*
X106149Y81032D01*
X106013Y80000D01*
X106149Y78968D01*
X106547Y78007D01*
X107181Y77181D01*
X108007Y76547D01*
X108968Y76149D01*
X110000Y76013D01*
X111032Y76149D01*
X111993Y76547D01*
X112819Y77181D01*
X113453Y78007D01*
X113851Y78968D01*
X113987Y80000D01*
X113851Y81032D01*
X113453Y81993D01*
X112819Y82819D01*
X111993Y83453D01*
X111032Y83851D01*
X110000Y83987D01*
D02*
G37*
G36*
X110500Y73921D02*
Y70500D01*
X113921D01*
X113851Y71032D01*
X113453Y71993D01*
X112819Y72819D01*
X111993Y73453D01*
X111032Y73851D01*
X110500Y73921D01*
D02*
G37*
G36*
X10000Y83987D02*
X8968Y83851D01*
X8007Y83453D01*
X7181Y82819D01*
X6547Y81994D01*
X6149Y81032D01*
X6013Y80000D01*
X6149Y78968D01*
X6341Y78504D01*
X1419Y73581D01*
X1087Y73085D01*
X971Y72500D01*
Y32500D01*
X1087Y31915D01*
X1419Y31419D01*
X3919Y28919D01*
X4415Y28587D01*
X4512Y28568D01*
X5000Y28471D01*
X10180D01*
X10523Y28023D01*
X11102Y27579D01*
X11776Y27300D01*
X12500Y27204D01*
X13224Y27300D01*
X13898Y27579D01*
X14477Y28023D01*
X14921Y28602D01*
X15200Y29276D01*
X15296Y30000D01*
X15200Y30724D01*
X14921Y31398D01*
X14477Y31977D01*
X13898Y32421D01*
X13224Y32700D01*
X12500Y32796D01*
X11776Y32700D01*
X11102Y32421D01*
X10523Y31977D01*
X10180Y31529D01*
X5633D01*
X4029Y33134D01*
Y71867D01*
X8504Y76341D01*
X8968Y76149D01*
X10000Y76013D01*
X11032Y76149D01*
X11993Y76547D01*
X12819Y77181D01*
X13453Y78007D01*
X13851Y78968D01*
X13987Y80000D01*
X13851Y81032D01*
X13453Y81994D01*
X12819Y82819D01*
X11993Y83453D01*
X11032Y83851D01*
X10000Y83987D01*
D02*
G37*
G36*
X13953Y93953D02*
X6047D01*
Y86047D01*
X13953D01*
Y93953D01*
D02*
G37*
G36*
X30000Y93987D02*
X28968Y93851D01*
X28007Y93453D01*
X27181Y92819D01*
X26547Y91993D01*
X26149Y91032D01*
X26013Y90000D01*
X26149Y88968D01*
X26547Y88007D01*
X27181Y87181D01*
X28007Y86547D01*
X28968Y86149D01*
X30000Y86013D01*
X31032Y86149D01*
X31993Y86547D01*
X32819Y87181D01*
X33453Y88007D01*
X33851Y88968D01*
X33987Y90000D01*
X33851Y91032D01*
X33453Y91993D01*
X32819Y92819D01*
X31993Y93453D01*
X31032Y93851D01*
X30000Y93987D01*
D02*
G37*
G36*
Y83987D02*
X28968Y83851D01*
X28007Y83453D01*
X27181Y82819D01*
X26547Y81993D01*
X26149Y81032D01*
X26013Y80000D01*
X26149Y78968D01*
X26547Y78007D01*
X26687Y77824D01*
X26383Y77427D01*
X25724Y77700D01*
X25000Y77796D01*
X24276Y77700D01*
X23602Y77421D01*
X23023Y76977D01*
X22579Y76398D01*
X22300Y75724D01*
X22204Y75000D01*
X22300Y74276D01*
X22579Y73602D01*
X23023Y73023D01*
X23471Y72680D01*
Y35000D01*
X23587Y34415D01*
X23919Y33919D01*
X26341Y31496D01*
X26149Y31032D01*
X26013Y30000D01*
X26149Y28968D01*
X26547Y28007D01*
X27181Y27181D01*
X28007Y26547D01*
X28968Y26149D01*
X30000Y26013D01*
X31032Y26149D01*
X31993Y26547D01*
X32819Y27181D01*
X32997Y27413D01*
X33471Y27252D01*
Y25000D01*
X33587Y24415D01*
X33919Y23919D01*
X37278Y20559D01*
X37204Y20000D01*
X37300Y19276D01*
X37579Y18602D01*
X38023Y18023D01*
X38602Y17579D01*
X39276Y17300D01*
X40000Y17204D01*
X40724Y17300D01*
X41398Y17579D01*
X41977Y18023D01*
X42421Y18602D01*
X42700Y19276D01*
X42796Y20000D01*
X42700Y20724D01*
X42421Y21398D01*
X41977Y21977D01*
X41398Y22421D01*
X40724Y22700D01*
X40000Y22796D01*
X39441Y22722D01*
X36529Y25633D01*
Y35000D01*
X36413Y35585D01*
X36081Y36081D01*
X33659Y38504D01*
X33851Y38968D01*
X33987Y40000D01*
X33851Y41032D01*
X33453Y41993D01*
X32819Y42819D01*
X31993Y43453D01*
X31032Y43851D01*
X30000Y43987D01*
X28968Y43851D01*
X28007Y43453D01*
X27181Y42819D01*
X27003Y42587D01*
X26529Y42748D01*
Y47252D01*
X27003Y47413D01*
X27181Y47181D01*
X28007Y46547D01*
X28968Y46149D01*
X30000Y46013D01*
X31032Y46149D01*
X31993Y46547D01*
X32819Y47181D01*
X33453Y48007D01*
X33851Y48968D01*
X33987Y50000D01*
X33851Y51032D01*
X33453Y51993D01*
X32819Y52819D01*
X31993Y53453D01*
X31032Y53851D01*
X30000Y53987D01*
X28968Y53851D01*
X28007Y53453D01*
X27181Y52819D01*
X27003Y52587D01*
X26529Y52748D01*
Y57252D01*
X27003Y57413D01*
X27181Y57181D01*
X28007Y56547D01*
X28968Y56149D01*
X30000Y56013D01*
X31032Y56149D01*
X31993Y56547D01*
X32819Y57181D01*
X33453Y58007D01*
X33851Y58968D01*
X33987Y60000D01*
X33851Y61032D01*
X33453Y61993D01*
X32819Y62819D01*
X31993Y63453D01*
X31032Y63851D01*
X30000Y63987D01*
X28968Y63851D01*
X28007Y63453D01*
X27181Y62819D01*
X27003Y62587D01*
X26529Y62748D01*
Y67252D01*
X27003Y67413D01*
X27181Y67181D01*
X28007Y66547D01*
X28968Y66149D01*
X30000Y66013D01*
X31032Y66149D01*
X31993Y66547D01*
X32819Y67181D01*
X33453Y68007D01*
X33851Y68968D01*
X33987Y70000D01*
X33851Y71032D01*
X33453Y71993D01*
X32819Y72819D01*
X31993Y73453D01*
X31032Y73851D01*
X30000Y73987D01*
X28968Y73851D01*
X28007Y73453D01*
X27824Y73312D01*
X27427Y73617D01*
X27700Y74276D01*
X27796Y75000D01*
X27700Y75724D01*
X27427Y76383D01*
X27824Y76688D01*
X28007Y76547D01*
X28968Y76149D01*
X30000Y76013D01*
X31032Y76149D01*
X31993Y76547D01*
X32819Y77181D01*
X33453Y78007D01*
X33851Y78968D01*
X33987Y80000D01*
X33851Y81032D01*
X33453Y81993D01*
X32819Y82819D01*
X31993Y83453D01*
X31032Y83851D01*
X30000Y83987D01*
D02*
G37*
G36*
X190642Y52295D02*
X186625D01*
X186715Y51609D01*
X187173Y50504D01*
X187901Y49555D01*
X188850Y48827D01*
X189956Y48369D01*
X190642Y48279D01*
Y52295D01*
D02*
G37*
G36*
X239500Y13921D02*
X238968Y13851D01*
X238007Y13453D01*
X237181Y12819D01*
X236547Y11993D01*
X236149Y11032D01*
X236079Y10500D01*
X239500D01*
Y13921D01*
D02*
G37*
G36*
X90500D02*
Y10500D01*
X93921D01*
X93851Y11032D01*
X93453Y11993D01*
X92819Y12819D01*
X91993Y13453D01*
X91032Y13851D01*
X90500Y13921D01*
D02*
G37*
G36*
X89500D02*
X88968Y13851D01*
X88007Y13453D01*
X87181Y12819D01*
X86547Y11993D01*
X86149Y11032D01*
X86079Y10500D01*
X89500D01*
Y13921D01*
D02*
G37*
G36*
X240500D02*
Y10500D01*
X243921D01*
X243851Y11032D01*
X243453Y11993D01*
X242819Y12819D01*
X241993Y13453D01*
X241032Y13851D01*
X240500Y13921D01*
D02*
G37*
G36*
X240000Y31580D02*
X239122Y31465D01*
X238304Y31126D01*
X237602Y30587D01*
X237063Y29885D01*
X236724Y29067D01*
X236609Y28189D01*
X236724Y27311D01*
X237063Y26493D01*
X237602Y25791D01*
X238304Y25252D01*
X239122Y24913D01*
X240000Y24798D01*
X240878Y24913D01*
X241696Y25252D01*
X242398Y25791D01*
X242937Y26493D01*
X243276Y27311D01*
X243391Y28189D01*
X243276Y29067D01*
X242937Y29885D01*
X242398Y30587D01*
X241696Y31126D01*
X240878Y31465D01*
X240000Y31580D01*
D02*
G37*
G36*
X230000D02*
X229122Y31465D01*
X228304Y31126D01*
X227602Y30587D01*
X227063Y29885D01*
X226724Y29067D01*
X226609Y28189D01*
X226724Y27311D01*
X227063Y26493D01*
X227602Y25791D01*
X228304Y25252D01*
X229122Y24913D01*
X230000Y24798D01*
X230878Y24913D01*
X231696Y25252D01*
X232398Y25791D01*
X232937Y26493D01*
X233276Y27311D01*
X233391Y28189D01*
X233276Y29067D01*
X232937Y29885D01*
X232398Y30587D01*
X231696Y31126D01*
X230878Y31465D01*
X230000Y31580D01*
D02*
G37*
G36*
X190642Y26705D02*
X186625D01*
X186715Y26019D01*
X187173Y24914D01*
X187901Y23964D01*
X188850Y23236D01*
X189956Y22778D01*
X190642Y22688D01*
Y26705D01*
D02*
G37*
G36*
X243921Y9500D02*
X240500D01*
Y6079D01*
X241032Y6149D01*
X241993Y6547D01*
X242819Y7181D01*
X243453Y8007D01*
X243851Y8968D01*
X243921Y9500D01*
D02*
G37*
G36*
X230000Y13987D02*
X228968Y13851D01*
X228007Y13453D01*
X227181Y12819D01*
X226547Y11993D01*
X226149Y11032D01*
X226013Y10000D01*
X226149Y8968D01*
X226547Y8007D01*
X227181Y7181D01*
X228007Y6547D01*
X228968Y6149D01*
X230000Y6013D01*
X231032Y6149D01*
X231993Y6547D01*
X232819Y7181D01*
X233453Y8007D01*
X233851Y8968D01*
X233987Y10000D01*
X233851Y11032D01*
X233453Y11993D01*
X232819Y12819D01*
X231993Y13453D01*
X231032Y13851D01*
X230000Y13987D01*
D02*
G37*
G36*
X268189Y22687D02*
X266488Y22553D01*
X264828Y22155D01*
X263251Y21502D01*
X261796Y20610D01*
X260498Y19502D01*
X259390Y18204D01*
X258498Y16749D01*
X257845Y15172D01*
X257447Y13512D01*
X257313Y11811D01*
X257447Y10110D01*
X257845Y8450D01*
X258498Y6873D01*
X259390Y5418D01*
X260498Y4121D01*
X261796Y3012D01*
X263251Y2120D01*
X264828Y1467D01*
X266488Y1069D01*
X268189Y935D01*
X269890Y1069D01*
X271550Y1467D01*
X273127Y2120D01*
X274582Y3012D01*
X275880Y4121D01*
X276988Y5418D01*
X277880Y6873D01*
X278533Y8450D01*
X278931Y10110D01*
X279065Y11811D01*
X278931Y13512D01*
X278533Y15172D01*
X277880Y16749D01*
X276988Y18204D01*
X275880Y19502D01*
X274582Y20610D01*
X273127Y21502D01*
X271550Y22155D01*
X269890Y22553D01*
X268189Y22687D01*
D02*
G37*
G36*
X11811D02*
X10110Y22553D01*
X8450Y22155D01*
X6873Y21502D01*
X5418Y20610D01*
X4121Y19502D01*
X3012Y18204D01*
X2120Y16749D01*
X1467Y15172D01*
X1069Y13512D01*
X935Y11811D01*
X1069Y10110D01*
X1467Y8450D01*
X2120Y6873D01*
X3012Y5418D01*
X4121Y4121D01*
X5418Y3012D01*
X6873Y2120D01*
X8450Y1467D01*
X10110Y1069D01*
X11811Y935D01*
X13512Y1069D01*
X15172Y1467D01*
X16749Y2120D01*
X18204Y3012D01*
X19502Y4121D01*
X20610Y5418D01*
X21502Y6873D01*
X22155Y8450D01*
X22553Y10110D01*
X22687Y11811D01*
X22553Y13512D01*
X22155Y15172D01*
X21502Y16749D01*
X20610Y18204D01*
X19502Y19502D01*
X18204Y20610D01*
X16749Y21502D01*
X15172Y22155D01*
X13512Y22553D01*
X11811Y22687D01*
D02*
G37*
G36*
X182500Y27796D02*
X181776Y27700D01*
X181102Y27421D01*
X180523Y26977D01*
X180079Y26398D01*
X179800Y25724D01*
X179704Y25000D01*
X179800Y24276D01*
X180079Y23602D01*
X180477Y23084D01*
Y17500D01*
X180631Y16726D01*
X181069Y16069D01*
X186047Y11092D01*
Y6047D01*
X193953D01*
Y13953D01*
X188908D01*
X184523Y18338D01*
Y23084D01*
X184921Y23602D01*
X185200Y24276D01*
X185296Y25000D01*
X185200Y25724D01*
X184921Y26398D01*
X184477Y26977D01*
X183898Y27421D01*
X183224Y27700D01*
X182500Y27796D01*
D02*
G37*
G36*
X239500Y9500D02*
X236079D01*
X236149Y8968D01*
X236547Y8007D01*
X237181Y7181D01*
X238007Y6547D01*
X238968Y6149D01*
X239500Y6079D01*
Y9500D01*
D02*
G37*
G36*
X93921D02*
X90500D01*
Y6079D01*
X91032Y6149D01*
X91993Y6547D01*
X92819Y7181D01*
X93453Y8007D01*
X93851Y8968D01*
X93921Y9500D01*
D02*
G37*
G36*
X89500D02*
X86079D01*
X86149Y8968D01*
X86547Y8007D01*
X87181Y7181D01*
X88007Y6547D01*
X88968Y6149D01*
X89500Y6079D01*
Y9500D01*
D02*
G37*
G36*
X250000Y31580D02*
X249122Y31465D01*
X248304Y31126D01*
X247602Y30587D01*
X247063Y29885D01*
X246724Y29067D01*
X246609Y28189D01*
X246724Y27311D01*
X247063Y26493D01*
X247602Y25791D01*
X248304Y25252D01*
X249122Y24913D01*
X250000Y24798D01*
X250878Y24913D01*
X251696Y25252D01*
X252398Y25791D01*
X252937Y26493D01*
X253276Y27311D01*
X253391Y28189D01*
X253276Y29067D01*
X252937Y29885D01*
X252398Y30587D01*
X251696Y31126D01*
X250878Y31465D01*
X250000Y31580D01*
D02*
G37*
G36*
X10500Y43921D02*
Y40500D01*
X13921D01*
X13851Y41032D01*
X13453Y41993D01*
X12819Y42819D01*
X11993Y43453D01*
X11032Y43851D01*
X10500Y43921D01*
D02*
G37*
G36*
X9500D02*
X8968Y43851D01*
X8007Y43453D01*
X7181Y42819D01*
X6547Y41993D01*
X6149Y41032D01*
X6079Y40500D01*
X9500D01*
Y43921D01*
D02*
G37*
G36*
X47500Y45296D02*
X46776Y45200D01*
X46102Y44921D01*
X45523Y44477D01*
X45079Y43898D01*
X44800Y43224D01*
X44704Y42500D01*
X44778Y41941D01*
X44466Y41629D01*
X44134Y41133D01*
X44018Y40547D01*
Y14018D01*
X43953Y13953D01*
X43664Y13953D01*
X43664Y13953D01*
Y13953D01*
X36047D01*
Y6047D01*
X43953D01*
Y6981D01*
X44431Y7126D01*
X44466Y7074D01*
X47621Y3919D01*
X48118Y3587D01*
X48703Y3471D01*
X55000D01*
X55585Y3587D01*
X56081Y3919D01*
X58504Y6341D01*
X58968Y6149D01*
X60000Y6013D01*
X61032Y6149D01*
X61993Y6547D01*
X62819Y7181D01*
X63453Y8007D01*
X63851Y8968D01*
X63987Y10000D01*
X63851Y11032D01*
X63453Y11993D01*
X62819Y12819D01*
X61993Y13453D01*
X61032Y13851D01*
X60000Y13987D01*
X58968Y13851D01*
X58007Y13453D01*
X57181Y12819D01*
X56547Y11993D01*
X56149Y11032D01*
X56013Y10000D01*
X56149Y8968D01*
X56341Y8504D01*
X54366Y6529D01*
X52748D01*
X52587Y7003D01*
X52819Y7181D01*
X53453Y8007D01*
X53851Y8968D01*
X53987Y10000D01*
X53851Y11032D01*
X53453Y11993D01*
X52819Y12819D01*
X51993Y13453D01*
X51529Y13645D01*
Y36867D01*
X51941Y37278D01*
X52500Y37204D01*
X53224Y37300D01*
X53898Y37579D01*
X54477Y38023D01*
X54921Y38602D01*
X55200Y39276D01*
X55296Y40000D01*
X55200Y40724D01*
X54921Y41398D01*
X54477Y41977D01*
X53898Y42421D01*
X53224Y42700D01*
X52500Y42796D01*
X51776Y42700D01*
X51102Y42421D01*
X50712Y42121D01*
X50279Y42371D01*
X50296Y42500D01*
X50200Y43224D01*
X49921Y43898D01*
X49477Y44477D01*
X48898Y44921D01*
X48224Y45200D01*
X47500Y45296D01*
D02*
G37*
G36*
X90000Y53987D02*
X88968Y53851D01*
X88007Y53453D01*
X87181Y52819D01*
X86547Y51993D01*
X86149Y51032D01*
X86013Y50000D01*
X86149Y48968D01*
X86547Y48007D01*
X87181Y47181D01*
X88007Y46547D01*
X88968Y46149D01*
X90000Y46013D01*
X91032Y46149D01*
X91993Y46547D01*
X92819Y47181D01*
X93453Y48007D01*
X93851Y48968D01*
X93987Y50000D01*
X93851Y51032D01*
X93453Y51993D01*
X92819Y52819D01*
X91993Y53453D01*
X91032Y53851D01*
X90000Y53987D01*
D02*
G37*
G36*
X173953Y53953D02*
X166047D01*
Y46047D01*
X173953D01*
Y53953D01*
D02*
G37*
G36*
X10000Y53987D02*
X8968Y53851D01*
X8007Y53453D01*
X7181Y52819D01*
X6547Y51994D01*
X6149Y51032D01*
X6013Y50000D01*
X6149Y48968D01*
X6547Y48007D01*
X7181Y47181D01*
X8007Y46547D01*
X8968Y46149D01*
X10000Y46013D01*
X11032Y46149D01*
X11993Y46547D01*
X12819Y47181D01*
X13453Y48007D01*
X13851Y48968D01*
X13987Y50000D01*
X13851Y51032D01*
X13453Y51994D01*
X12819Y52819D01*
X11993Y53453D01*
X11032Y53851D01*
X10000Y53987D01*
D02*
G37*
G36*
X270000Y53987D02*
X268968Y53851D01*
X268007Y53453D01*
X267181Y52819D01*
X266547Y51993D01*
X266149Y51032D01*
X266013Y50000D01*
X266149Y48968D01*
X266547Y48007D01*
X267181Y47181D01*
X268007Y46547D01*
X268968Y46149D01*
X270000Y46013D01*
X271032Y46149D01*
X271993Y46547D01*
X272819Y47181D01*
X273453Y48007D01*
X273851Y48968D01*
X273987Y50000D01*
X273851Y51032D01*
X273453Y51993D01*
X272819Y52819D01*
X271993Y53453D01*
X271032Y53851D01*
X270000Y53987D01*
D02*
G37*
G36*
X13921Y39500D02*
X10500D01*
Y36079D01*
X11032Y36149D01*
X11993Y36547D01*
X12819Y37181D01*
X13453Y38007D01*
X13851Y38968D01*
X13921Y39500D01*
D02*
G37*
G36*
X190642Y31721D02*
X189956Y31631D01*
X188850Y31173D01*
X187901Y30445D01*
X187173Y29496D01*
X186715Y28391D01*
X186625Y27705D01*
X190642D01*
Y31721D01*
D02*
G37*
G36*
X273953Y33953D02*
X266047D01*
Y26047D01*
X273953D01*
Y33953D01*
D02*
G37*
G36*
X90000Y33987D02*
X88968Y33851D01*
X88007Y33453D01*
X87181Y32819D01*
X86547Y31993D01*
X86149Y31032D01*
X86013Y30000D01*
X86149Y28968D01*
X86547Y28007D01*
X87181Y27181D01*
X88007Y26547D01*
X88968Y26149D01*
X90000Y26013D01*
X91032Y26149D01*
X91993Y26547D01*
X92819Y27181D01*
X93453Y28007D01*
X93851Y28968D01*
X93987Y30000D01*
X93851Y31032D01*
X93453Y31993D01*
X92819Y32819D01*
X91993Y33453D01*
X91032Y33851D01*
X90000Y33987D01*
D02*
G37*
G36*
X75000Y42796D02*
X74276Y42700D01*
X73602Y42421D01*
X73023Y41977D01*
X72579Y41398D01*
X72300Y40724D01*
X72204Y40000D01*
X72300Y39276D01*
X72579Y38602D01*
X73023Y38023D01*
X73471Y37680D01*
Y32748D01*
X72997Y32587D01*
X72819Y32819D01*
X71993Y33453D01*
X71032Y33851D01*
X70000Y33987D01*
X68968Y33851D01*
X68007Y33453D01*
X67181Y32819D01*
X67003Y32587D01*
X66529Y32748D01*
Y37680D01*
X66977Y38023D01*
X67421Y38602D01*
X67700Y39276D01*
X67796Y40000D01*
X67700Y40724D01*
X67421Y41398D01*
X66977Y41977D01*
X66398Y42421D01*
X65724Y42700D01*
X65000Y42796D01*
X64276Y42700D01*
X63602Y42421D01*
X63023Y41977D01*
X62579Y41398D01*
X62300Y40724D01*
X62204Y40000D01*
X62300Y39276D01*
X62579Y38602D01*
X63023Y38023D01*
X63471Y37680D01*
Y32748D01*
X62997Y32587D01*
X62819Y32819D01*
X61993Y33453D01*
X61032Y33851D01*
X60000Y33987D01*
X58968Y33851D01*
X58007Y33453D01*
X57181Y32819D01*
X56547Y31993D01*
X56149Y31032D01*
X56013Y30000D01*
X56149Y28968D01*
X56547Y28007D01*
X57181Y27181D01*
X58007Y26547D01*
X58968Y26149D01*
X60000Y26013D01*
X61032Y26149D01*
X61993Y26547D01*
X62819Y27181D01*
X62997Y27413D01*
X63471Y27252D01*
Y15000D01*
X63587Y14415D01*
X63919Y13919D01*
X66341Y11496D01*
X66149Y11032D01*
X66013Y10000D01*
X66149Y8968D01*
X66547Y8007D01*
X67181Y7181D01*
X68007Y6547D01*
X68968Y6149D01*
X70000Y6013D01*
X71032Y6149D01*
X71993Y6547D01*
X72819Y7181D01*
X73453Y8007D01*
X73851Y8968D01*
X73987Y10000D01*
X73851Y11032D01*
X73453Y11993D01*
X72819Y12819D01*
X71993Y13453D01*
X71032Y13851D01*
X70000Y13987D01*
X68968Y13851D01*
X68504Y13659D01*
X66529Y15633D01*
Y27252D01*
X67003Y27413D01*
X67181Y27181D01*
X68007Y26547D01*
X68968Y26149D01*
X70000Y26013D01*
X71032Y26149D01*
X71993Y26547D01*
X72819Y27181D01*
X72997Y27413D01*
X73471Y27252D01*
Y15000D01*
X73587Y14415D01*
X73919Y13919D01*
X76341Y11496D01*
X76149Y11032D01*
X76013Y10000D01*
X76149Y8968D01*
X76547Y8007D01*
X77181Y7181D01*
X78007Y6547D01*
X78968Y6149D01*
X80000Y6013D01*
X81032Y6149D01*
X81993Y6547D01*
X82819Y7181D01*
X83453Y8007D01*
X83851Y8968D01*
X83987Y10000D01*
X83851Y11032D01*
X83453Y11993D01*
X82819Y12819D01*
X81993Y13453D01*
X81032Y13851D01*
X80000Y13987D01*
X78968Y13851D01*
X78504Y13659D01*
X76529Y15633D01*
Y27252D01*
X77003Y27413D01*
X77181Y27181D01*
X78007Y26547D01*
X78968Y26149D01*
X80000Y26013D01*
X81032Y26149D01*
X81993Y26547D01*
X82819Y27181D01*
X83453Y28007D01*
X83851Y28968D01*
X83987Y30000D01*
X83851Y31032D01*
X83453Y31993D01*
X82819Y32819D01*
X81993Y33453D01*
X81032Y33851D01*
X80000Y33987D01*
X78968Y33851D01*
X78007Y33453D01*
X77181Y32819D01*
X77003Y32587D01*
X76529Y32748D01*
Y37680D01*
X76977Y38023D01*
X77421Y38602D01*
X77700Y39276D01*
X77796Y40000D01*
X77700Y40724D01*
X77421Y41398D01*
X76977Y41977D01*
X76398Y42421D01*
X75724Y42700D01*
X75000Y42796D01*
D02*
G37*
G36*
X9500Y39500D02*
X6079D01*
X6149Y38968D01*
X6547Y38007D01*
X7181Y37181D01*
X8007Y36547D01*
X8968Y36149D01*
X9500Y36079D01*
Y39500D01*
D02*
G37*
G36*
X270000Y43987D02*
X268968Y43851D01*
X268007Y43453D01*
X267181Y42819D01*
X266547Y41993D01*
X266149Y41032D01*
X266013Y40000D01*
X266149Y38968D01*
X266547Y38007D01*
X267181Y37181D01*
X268007Y36547D01*
X268968Y36149D01*
X270000Y36013D01*
X271032Y36149D01*
X271993Y36547D01*
X272819Y37181D01*
X273453Y38007D01*
X273851Y38968D01*
X273987Y40000D01*
X273851Y41032D01*
X273453Y41993D01*
X272819Y42819D01*
X271993Y43453D01*
X271032Y43851D01*
X270000Y43987D01*
D02*
G37*
G36*
X90000D02*
X88968Y43851D01*
X88007Y43453D01*
X87181Y42819D01*
X86547Y41993D01*
X86149Y41032D01*
X86013Y40000D01*
X86149Y38968D01*
X86547Y38007D01*
X87181Y37181D01*
X88007Y36547D01*
X88968Y36149D01*
X90000Y36013D01*
X91032Y36149D01*
X91993Y36547D01*
X92819Y37181D01*
X93453Y38007D01*
X93851Y38968D01*
X93987Y40000D01*
X93851Y41032D01*
X93453Y41993D01*
X92819Y42819D01*
X91993Y43453D01*
X91032Y43851D01*
X90000Y43987D01*
D02*
G37*
G36*
X200500Y148969D02*
Y145500D01*
X203969D01*
X203897Y146044D01*
X203494Y147017D01*
X202853Y147853D01*
X202017Y148494D01*
X201044Y148897D01*
X200500Y148969D01*
D02*
G37*
G36*
X224500D02*
X223956Y148897D01*
X222983Y148494D01*
X222147Y147853D01*
X221506Y147017D01*
X221103Y146044D01*
X221031Y145500D01*
X224500D01*
Y148969D01*
D02*
G37*
G36*
X228969Y144500D02*
X225500D01*
Y141031D01*
X226044Y141103D01*
X227017Y141506D01*
X227853Y142147D01*
X228494Y142983D01*
X228897Y143956D01*
X228969Y144500D01*
D02*
G37*
G36*
X199500Y148969D02*
X198956Y148897D01*
X197983Y148494D01*
X197147Y147853D01*
X196506Y147017D01*
X196103Y146044D01*
X196031Y145500D01*
X199500D01*
Y148969D01*
D02*
G37*
G36*
X55000Y153987D02*
X53968Y153851D01*
X53007Y153453D01*
X52181Y152819D01*
X51547Y151993D01*
X51149Y151032D01*
X51013Y150000D01*
X51149Y148968D01*
X51547Y148007D01*
X52181Y147181D01*
X53007Y146547D01*
X53968Y146149D01*
X55000Y146013D01*
X56032Y146149D01*
X56993Y146547D01*
X57819Y147181D01*
X58453Y148007D01*
X58851Y148968D01*
X58987Y150000D01*
X58851Y151032D01*
X58453Y151993D01*
X57819Y152819D01*
X56993Y153453D01*
X56032Y153851D01*
X55000Y153987D01*
D02*
G37*
G36*
X65000D02*
X63968Y153851D01*
X63007Y153453D01*
X62181Y152819D01*
X61547Y151993D01*
X61149Y151032D01*
X61013Y150000D01*
X61149Y148968D01*
X61547Y148007D01*
X62181Y147181D01*
X63007Y146547D01*
X63968Y146149D01*
X65000Y146013D01*
X66032Y146149D01*
X66993Y146547D01*
X67819Y147181D01*
X68453Y148007D01*
X68851Y148968D01*
X68987Y150000D01*
X68851Y151032D01*
X68453Y151993D01*
X67819Y152819D01*
X66993Y153453D01*
X66032Y153851D01*
X65000Y153987D01*
D02*
G37*
G36*
X225500Y148969D02*
Y145500D01*
X228969D01*
X228897Y146044D01*
X228494Y147017D01*
X227853Y147853D01*
X227017Y148494D01*
X226044Y148897D01*
X225500Y148969D01*
D02*
G37*
G36*
X45000Y153987D02*
X43968Y153851D01*
X43007Y153453D01*
X42181Y152819D01*
X41547Y151993D01*
X41149Y151032D01*
X41013Y150000D01*
X41149Y148968D01*
X41547Y148007D01*
X42181Y147181D01*
X43007Y146547D01*
X43968Y146149D01*
X45000Y146013D01*
X46032Y146149D01*
X46993Y146547D01*
X47819Y147181D01*
X48453Y148007D01*
X48851Y148968D01*
X48987Y150000D01*
X48851Y151032D01*
X48453Y151993D01*
X47819Y152819D01*
X46993Y153453D01*
X46032Y153851D01*
X45000Y153987D01*
D02*
G37*
G36*
X35000D02*
X33968Y153851D01*
X33007Y153453D01*
X32181Y152819D01*
X31547Y151993D01*
X31149Y151032D01*
X31013Y150000D01*
X31149Y148968D01*
X31547Y148007D01*
X32181Y147181D01*
X33007Y146547D01*
X33968Y146149D01*
X35000Y146013D01*
X36032Y146149D01*
X36496Y146341D01*
X41419Y141419D01*
X41915Y141087D01*
X42500Y140971D01*
X47680D01*
X48023Y140523D01*
X48602Y140079D01*
X49276Y139800D01*
X50000Y139704D01*
X50724Y139800D01*
X51398Y140079D01*
X51977Y140523D01*
X52421Y141102D01*
X52700Y141776D01*
X52796Y142500D01*
X52700Y143224D01*
X52421Y143898D01*
X51977Y144477D01*
X51398Y144921D01*
X50724Y145200D01*
X50000Y145296D01*
X49276Y145200D01*
X48602Y144921D01*
X48023Y144477D01*
X47680Y144029D01*
X43134D01*
X38659Y148504D01*
X38851Y148968D01*
X38987Y150000D01*
X38851Y151032D01*
X38453Y151993D01*
X37819Y152819D01*
X36993Y153453D01*
X36032Y153851D01*
X35000Y153987D01*
D02*
G37*
G36*
X194000Y149000D02*
X186000D01*
Y141000D01*
X194000D01*
Y149000D01*
D02*
G37*
G36*
X11811Y159065D02*
X10110Y158931D01*
X8450Y158533D01*
X6873Y157880D01*
X5418Y156988D01*
X4121Y155879D01*
X3012Y154582D01*
X2120Y153127D01*
X1467Y151550D01*
X1069Y149890D01*
X935Y148189D01*
X1069Y146488D01*
X1467Y144828D01*
X2120Y143251D01*
X3012Y141796D01*
X4121Y140498D01*
X5418Y139390D01*
X6873Y138498D01*
X8450Y137845D01*
X10110Y137447D01*
X11811Y137313D01*
X13512Y137447D01*
X15172Y137845D01*
X16749Y138498D01*
X18204Y139390D01*
X19502Y140498D01*
X20610Y141796D01*
X21502Y143251D01*
X22155Y144828D01*
X22553Y146488D01*
X22687Y148189D01*
X22553Y149890D01*
X22155Y151550D01*
X21502Y153127D01*
X20610Y154582D01*
X19502Y155879D01*
X18204Y156988D01*
X16749Y157880D01*
X15172Y158533D01*
X13512Y158931D01*
X11811Y159065D01*
D02*
G37*
G36*
X268189D02*
X266488Y158931D01*
X264828Y158533D01*
X263251Y157880D01*
X261796Y156988D01*
X260498Y155879D01*
X259390Y154582D01*
X258498Y153127D01*
X257845Y151550D01*
X257447Y149890D01*
X257313Y148189D01*
X257447Y146488D01*
X257845Y144828D01*
X258498Y143251D01*
X259390Y141796D01*
X260498Y140498D01*
X261796Y139390D01*
X263251Y138498D01*
X264828Y137845D01*
X266488Y137447D01*
X268189Y137313D01*
X269890Y137447D01*
X271550Y137845D01*
X273127Y138498D01*
X274582Y139390D01*
X275880Y140498D01*
X276988Y141796D01*
X277880Y143251D01*
X278533Y144828D01*
X278931Y146488D01*
X279065Y148189D01*
X278931Y149890D01*
X278533Y151550D01*
X277880Y153127D01*
X276988Y154582D01*
X275880Y155879D01*
X274582Y156988D01*
X273127Y157880D01*
X271550Y158533D01*
X269890Y158931D01*
X268189Y159065D01*
D02*
G37*
G36*
X203969Y144500D02*
X200500D01*
Y141031D01*
X201044Y141103D01*
X202017Y141506D01*
X202853Y142147D01*
X203494Y142983D01*
X203897Y143956D01*
X203969Y144500D01*
D02*
G37*
G36*
X224500D02*
X221031D01*
X221103Y143956D01*
X221506Y142983D01*
X222147Y142147D01*
X222983Y141506D01*
X223956Y141103D01*
X224500Y141031D01*
Y144500D01*
D02*
G37*
G36*
X219000Y149000D02*
X211000D01*
Y141000D01*
X219000D01*
Y149000D01*
D02*
G37*
G36*
X199500Y144500D02*
X196031D01*
X196103Y143956D01*
X196506Y142983D01*
X197147Y142147D01*
X197983Y141506D01*
X198956Y141103D01*
X199500Y141031D01*
Y144500D01*
D02*
G37*
G36*
X123953Y153953D02*
X116047D01*
Y146047D01*
X123953D01*
Y153953D01*
D02*
G37*
G36*
X84500Y153921D02*
X83968Y153851D01*
X83007Y153453D01*
X82181Y152819D01*
X81547Y151993D01*
X81149Y151032D01*
X81079Y150500D01*
X84500D01*
Y153921D01*
D02*
G37*
G36*
X85500D02*
Y150500D01*
X88921D01*
X88851Y151032D01*
X88453Y151993D01*
X87819Y152819D01*
X86993Y153453D01*
X86032Y153851D01*
X85500Y153921D01*
D02*
G37*
G36*
X74500D02*
X73968Y153851D01*
X73007Y153453D01*
X72181Y152819D01*
X71547Y151993D01*
X71149Y151032D01*
X71079Y150500D01*
X74500D01*
Y153921D01*
D02*
G37*
G36*
X75500D02*
Y150500D01*
X78921D01*
X78851Y151032D01*
X78453Y151993D01*
X77819Y152819D01*
X76993Y153453D01*
X76032Y153851D01*
X75500Y153921D01*
D02*
G37*
G36*
X239500D02*
X238968Y153851D01*
X238007Y153453D01*
X237181Y152819D01*
X236547Y151993D01*
X236149Y151032D01*
X236079Y150500D01*
X239500D01*
Y153921D01*
D02*
G37*
G36*
X240500D02*
Y150500D01*
X243921D01*
X243851Y151032D01*
X243453Y151993D01*
X242819Y152819D01*
X241993Y153453D01*
X241032Y153851D01*
X240500Y153921D01*
D02*
G37*
G36*
X109500D02*
X108968Y153851D01*
X108007Y153453D01*
X107181Y152819D01*
X106547Y151993D01*
X106149Y151032D01*
X106079Y150500D01*
X109500D01*
Y153921D01*
D02*
G37*
G36*
X110500D02*
Y150500D01*
X113921D01*
X113851Y151032D01*
X113453Y151993D01*
X112819Y152819D01*
X111993Y153453D01*
X111032Y153851D01*
X110500Y153921D01*
D02*
G37*
G36*
X84500Y149500D02*
X81079D01*
X81149Y148968D01*
X81547Y148007D01*
X82181Y147181D01*
X83007Y146547D01*
X83968Y146149D01*
X84500Y146079D01*
Y149500D01*
D02*
G37*
G36*
X88921D02*
X85500D01*
Y146079D01*
X86032Y146149D01*
X86993Y146547D01*
X87819Y147181D01*
X88453Y148007D01*
X88851Y148968D01*
X88921Y149500D01*
D02*
G37*
G36*
X74500D02*
X71079D01*
X71149Y148968D01*
X71547Y148007D01*
X72181Y147181D01*
X73007Y146547D01*
X73968Y146149D01*
X74500Y146079D01*
Y149500D01*
D02*
G37*
G36*
X78921D02*
X75500D01*
Y146079D01*
X76032Y146149D01*
X76993Y146547D01*
X77819Y147181D01*
X78453Y148007D01*
X78851Y148968D01*
X78921Y149500D01*
D02*
G37*
G36*
X239500D02*
X236079D01*
X236149Y148968D01*
X236547Y148007D01*
X237181Y147181D01*
X238007Y146547D01*
X238968Y146149D01*
X239500Y146079D01*
Y149500D01*
D02*
G37*
G36*
X243921D02*
X240500D01*
Y146079D01*
X241032Y146149D01*
X241993Y146547D01*
X242819Y147181D01*
X243453Y148007D01*
X243851Y148968D01*
X243921Y149500D01*
D02*
G37*
G36*
X109500D02*
X106079D01*
X106149Y148968D01*
X106547Y148007D01*
X107181Y147181D01*
X108007Y146547D01*
X108968Y146149D01*
X109500Y146079D01*
Y149500D01*
D02*
G37*
G36*
X113921D02*
X110500D01*
Y146079D01*
X111032Y146149D01*
X111993Y146547D01*
X112819Y147181D01*
X113453Y148007D01*
X113851Y148968D01*
X113921Y149500D01*
D02*
G37*
G36*
X93953Y143953D02*
X86047D01*
Y136047D01*
X93953D01*
Y143953D01*
D02*
G37*
G36*
X110000Y123987D02*
X108968Y123851D01*
X108007Y123453D01*
X107181Y122819D01*
X106547Y121993D01*
X106149Y121032D01*
X106013Y120000D01*
X106149Y118968D01*
X106547Y118007D01*
X107181Y117181D01*
X107413Y117003D01*
X107252Y116529D01*
X92748D01*
X92587Y117003D01*
X92819Y117181D01*
X93453Y118007D01*
X93851Y118968D01*
X93987Y120000D01*
X93851Y121032D01*
X93453Y121993D01*
X92819Y122819D01*
X91993Y123453D01*
X91032Y123851D01*
X90000Y123987D01*
X88968Y123851D01*
X88007Y123453D01*
X87181Y122819D01*
X86547Y121993D01*
X86149Y121032D01*
X86013Y120000D01*
X86149Y118968D01*
X86547Y118007D01*
X87181Y117181D01*
X87440Y116982D01*
X87327Y116495D01*
X86915Y116413D01*
X86419Y116081D01*
X79221Y108884D01*
X78968Y108851D01*
X78007Y108453D01*
X77181Y107819D01*
X76547Y106993D01*
X76149Y106032D01*
X76013Y105000D01*
X76149Y103968D01*
X76547Y103007D01*
X77181Y102181D01*
X78007Y101547D01*
X78968Y101149D01*
X80000Y101013D01*
X80784Y101116D01*
X81005Y100668D01*
X79221Y98884D01*
X78968Y98851D01*
X78007Y98453D01*
X77181Y97819D01*
X76547Y96993D01*
X76149Y96032D01*
X76013Y95000D01*
X76149Y93968D01*
X76547Y93007D01*
X77181Y92181D01*
X78007Y91547D01*
X78968Y91149D01*
X80000Y91013D01*
X81032Y91149D01*
X81993Y91547D01*
X82819Y92181D01*
X83453Y93007D01*
X83851Y93968D01*
X83987Y95000D01*
X83851Y96032D01*
X83453Y96993D01*
X82819Y97819D01*
X82798Y98136D01*
X85668Y101005D01*
X86116Y100784D01*
X86013Y100000D01*
X86149Y98968D01*
X86547Y98007D01*
X87181Y97181D01*
X88007Y96547D01*
X88968Y96149D01*
X90000Y96013D01*
X91032Y96149D01*
X91993Y96547D01*
X92819Y97181D01*
X93453Y98007D01*
X93851Y98968D01*
X93987Y100000D01*
X93851Y101032D01*
X93453Y101993D01*
X92819Y102819D01*
X92587Y102997D01*
X92748Y103471D01*
X107252D01*
X107413Y102997D01*
X107181Y102819D01*
X106547Y101993D01*
X106149Y101032D01*
X106013Y100000D01*
X106149Y98968D01*
X106547Y98007D01*
X107181Y97181D01*
X108007Y96547D01*
X108968Y96149D01*
X110000Y96013D01*
X111032Y96149D01*
X111993Y96547D01*
X112819Y97181D01*
X113453Y98007D01*
X113851Y98968D01*
X113987Y100000D01*
X113851Y101032D01*
X113453Y101993D01*
X112819Y102819D01*
X112587Y102997D01*
X112748Y103471D01*
X115000D01*
X115585Y103587D01*
X116081Y103919D01*
X118800Y106637D01*
X119273Y106476D01*
X119300Y106276D01*
X119579Y105602D01*
X120023Y105023D01*
X120471Y104680D01*
Y102634D01*
X111496Y93659D01*
X111032Y93851D01*
X110000Y93987D01*
X108968Y93851D01*
X108007Y93453D01*
X107181Y92819D01*
X106547Y91993D01*
X106149Y91032D01*
X106013Y90000D01*
X106149Y88968D01*
X106547Y88007D01*
X107181Y87181D01*
X108007Y86547D01*
X108968Y86149D01*
X110000Y86013D01*
X111032Y86149D01*
X111993Y86547D01*
X112819Y87181D01*
X113453Y88007D01*
X113851Y88968D01*
X113987Y90000D01*
X113851Y91032D01*
X113659Y91496D01*
X123081Y100919D01*
X123413Y101415D01*
X123529Y102000D01*
Y104680D01*
X123977Y105023D01*
X124421Y105602D01*
X124700Y106276D01*
X124796Y107000D01*
X124700Y107724D01*
X124421Y108398D01*
X123977Y108977D01*
X123413Y109409D01*
X123422Y109480D01*
X123623Y109965D01*
X123898Y110079D01*
X124477Y110523D01*
X124921Y111102D01*
X125200Y111776D01*
X125296Y112500D01*
X125200Y113224D01*
X124921Y113898D01*
X124477Y114477D01*
X123898Y114921D01*
X123224Y115200D01*
X122500Y115296D01*
X121776Y115200D01*
X121102Y114921D01*
X120523Y114477D01*
X120079Y113898D01*
X119800Y113224D01*
X119704Y112500D01*
X119778Y111941D01*
X114366Y106529D01*
X112748D01*
X112587Y107003D01*
X112819Y107181D01*
X113453Y108007D01*
X113851Y108968D01*
X113987Y110000D01*
X113851Y111032D01*
X113453Y111993D01*
X112819Y112819D01*
X112587Y112997D01*
X112748Y113471D01*
X115000D01*
X115585Y113587D01*
X116081Y113919D01*
X116941Y114778D01*
X117500Y114704D01*
X118224Y114800D01*
X118898Y115079D01*
X119477Y115523D01*
X119921Y116102D01*
X120200Y116776D01*
X120296Y117500D01*
X120200Y118224D01*
X119921Y118898D01*
X119477Y119477D01*
X118898Y119921D01*
X118224Y120200D01*
X117500Y120296D01*
X116776Y120200D01*
X116102Y119921D01*
X115523Y119477D01*
X115079Y118898D01*
X114800Y118224D01*
X114704Y117500D01*
X114778Y116941D01*
X114366Y116529D01*
X112748D01*
X112587Y117003D01*
X112819Y117181D01*
X113453Y118007D01*
X113851Y118968D01*
X113987Y120000D01*
X113851Y121032D01*
X113453Y121993D01*
X112819Y122819D01*
X111993Y123453D01*
X111032Y123851D01*
X110000Y123987D01*
D02*
G37*
G36*
X189500Y120937D02*
X186675D01*
X186724Y120559D01*
X187063Y119741D01*
X187602Y119039D01*
X188304Y118500D01*
X189122Y118161D01*
X189500Y118112D01*
Y120937D01*
D02*
G37*
G36*
X213953Y119500D02*
X210500D01*
Y116047D01*
X213953D01*
Y119500D01*
D02*
G37*
G36*
X13953Y123953D02*
X6047D01*
Y116047D01*
X13953D01*
Y123953D01*
D02*
G37*
G36*
X213953Y123953D02*
X210500D01*
Y120500D01*
X213953D01*
Y123953D01*
D02*
G37*
G36*
X189500Y124762D02*
X189122Y124713D01*
X188304Y124374D01*
X187602Y123835D01*
X187063Y123133D01*
X186724Y122315D01*
X186675Y121937D01*
X189500D01*
Y124762D01*
D02*
G37*
G36*
X193325Y120937D02*
X190500D01*
Y118112D01*
X190878Y118161D01*
X191696Y118500D01*
X192398Y119039D01*
X192937Y119741D01*
X193276Y120559D01*
X193325Y120937D01*
D02*
G37*
G36*
X209500Y123953D02*
X206047D01*
Y120500D01*
X209500D01*
Y123953D01*
D02*
G37*
G36*
X30500Y113921D02*
Y110500D01*
X33921D01*
X33851Y111032D01*
X33453Y111993D01*
X32819Y112819D01*
X31993Y113453D01*
X31032Y113851D01*
X30500Y113921D01*
D02*
G37*
G36*
X9500Y113921D02*
X8968Y113851D01*
X8007Y113453D01*
X7181Y112819D01*
X6547Y111994D01*
X6149Y111032D01*
X6079Y110500D01*
X9500D01*
Y113921D01*
D02*
G37*
G36*
X220000Y113987D02*
X218968Y113851D01*
X218007Y113453D01*
X217181Y112819D01*
X216547Y111993D01*
X216149Y111032D01*
X216013Y110000D01*
X216149Y108968D01*
X216341Y108504D01*
X214367Y106529D01*
X212748D01*
X212587Y107003D01*
X212819Y107181D01*
X213453Y108007D01*
X213851Y108968D01*
X213987Y110000D01*
X213851Y111032D01*
X213453Y111993D01*
X212819Y112819D01*
X211993Y113453D01*
X211032Y113851D01*
X210000Y113987D01*
X208968Y113851D01*
X208007Y113453D01*
X207181Y112819D01*
X206547Y111993D01*
X206355Y111529D01*
X205000D01*
X204415Y111413D01*
X203919Y111081D01*
X189366Y96529D01*
X185000D01*
X184415Y96413D01*
X183919Y96081D01*
X178059Y90222D01*
X177500Y90296D01*
X176776Y90200D01*
X176102Y89921D01*
X175523Y89477D01*
X175079Y88898D01*
X174800Y88224D01*
X174704Y87500D01*
X174800Y86776D01*
X175079Y86102D01*
X175523Y85523D01*
X176102Y85079D01*
X176776Y84800D01*
X177500Y84704D01*
X178224Y84800D01*
X178898Y85079D01*
X179477Y85523D01*
X179921Y86102D01*
X180200Y86776D01*
X180296Y87500D01*
X180222Y88059D01*
X180973Y88810D01*
X181359Y88493D01*
X181087Y88085D01*
X180971Y87500D01*
Y85633D01*
X176419Y81081D01*
X176087Y80585D01*
X175971Y80000D01*
Y54820D01*
X175523Y54477D01*
X175079Y53898D01*
X174800Y53224D01*
X174704Y52500D01*
X174800Y51776D01*
X175079Y51102D01*
X175523Y50523D01*
X176102Y50079D01*
X176776Y49800D01*
X177500Y49704D01*
X178224Y49800D01*
X178898Y50079D01*
X179477Y50523D01*
X179921Y51102D01*
X180200Y51776D01*
X180296Y52500D01*
X180200Y53224D01*
X179921Y53898D01*
X179477Y54477D01*
X179029Y54820D01*
Y79366D01*
X183085Y83422D01*
X183547Y83231D01*
Y78547D01*
X190971D01*
Y75248D01*
X190497Y75087D01*
X190319Y75319D01*
X189493Y75953D01*
X188532Y76351D01*
X187500Y76487D01*
X186468Y76351D01*
X185507Y75953D01*
X184681Y75319D01*
X184047Y74493D01*
X183649Y73532D01*
X183513Y72500D01*
X183649Y71468D01*
X184047Y70507D01*
X184681Y69681D01*
X185507Y69047D01*
X186468Y68649D01*
X187500Y68513D01*
X188532Y68649D01*
X189493Y69047D01*
X190319Y69681D01*
X190497Y69913D01*
X190971Y69752D01*
Y62320D01*
X190523Y61977D01*
X190079Y61398D01*
X189800Y60724D01*
X189704Y60000D01*
X189800Y59276D01*
X190079Y58602D01*
X190523Y58023D01*
X190814Y57801D01*
X190684Y57318D01*
X189956Y57222D01*
X188850Y56764D01*
X187901Y56036D01*
X187173Y55086D01*
X186715Y53981D01*
X186625Y53295D01*
X191142D01*
Y52795D01*
X191642D01*
Y48279D01*
X192328Y48369D01*
X193433Y48827D01*
X194382Y49555D01*
X195110Y50504D01*
X195480Y51397D01*
X195971Y51300D01*
Y28701D01*
X195480Y28603D01*
X195110Y29496D01*
X194382Y30445D01*
X193433Y31173D01*
X192328Y31631D01*
X191642Y31721D01*
Y27205D01*
Y22688D01*
X192328Y22778D01*
X193433Y23236D01*
X194382Y23964D01*
X195110Y24914D01*
X195480Y25806D01*
X195971Y25709D01*
Y12500D01*
X196087Y11915D01*
X196351Y11520D01*
X196149Y11032D01*
X196013Y10000D01*
X196149Y8968D01*
X196547Y8007D01*
X197181Y7181D01*
X198007Y6547D01*
X198968Y6149D01*
X200000Y6013D01*
X201032Y6149D01*
X201993Y6547D01*
X202819Y7181D01*
X203453Y8007D01*
X203851Y8968D01*
X203987Y10000D01*
X203851Y11032D01*
X203453Y11993D01*
X202819Y12819D01*
X201993Y13453D01*
X201032Y13851D01*
X200000Y13987D01*
X199405Y13909D01*
X199029Y14238D01*
Y18154D01*
X199491Y18346D01*
X206341Y11496D01*
X206149Y11032D01*
X206013Y10000D01*
X206149Y8968D01*
X206547Y8007D01*
X207181Y7181D01*
X208007Y6547D01*
X208968Y6149D01*
X210000Y6013D01*
X211032Y6149D01*
X211993Y6547D01*
X212819Y7181D01*
X213453Y8007D01*
X213851Y8968D01*
X213987Y10000D01*
X213884Y10784D01*
X214332Y11005D01*
X216116Y9222D01*
X216149Y8968D01*
X216547Y8007D01*
X217181Y7181D01*
X218007Y6547D01*
X218968Y6149D01*
X220000Y6013D01*
X221032Y6149D01*
X221993Y6547D01*
X222819Y7181D01*
X223453Y8007D01*
X223851Y8968D01*
X223987Y10000D01*
X223851Y11032D01*
X223453Y11993D01*
X222819Y12819D01*
X221993Y13453D01*
X221032Y13851D01*
X220000Y13987D01*
X218968Y13851D01*
X218007Y13453D01*
X217181Y12819D01*
X216864Y12798D01*
X207234Y22429D01*
X207511Y22845D01*
X207672Y22778D01*
X208858Y22622D01*
X210044Y22778D01*
X211150Y23236D01*
X212099Y23964D01*
X212827Y24914D01*
X213285Y26019D01*
X213441Y27205D01*
X213285Y28391D01*
X212827Y29496D01*
X212099Y30445D01*
X211150Y31173D01*
X210044Y31631D01*
X208858Y31787D01*
X207672Y31631D01*
X206567Y31173D01*
X205618Y30445D01*
X204890Y29496D01*
X204520Y28603D01*
X204029Y28701D01*
Y51300D01*
X204520Y51397D01*
X204890Y50504D01*
X205618Y49555D01*
X206567Y48827D01*
X207672Y48369D01*
X208858Y48213D01*
X210044Y48369D01*
X211150Y48827D01*
X212099Y49555D01*
X212827Y50504D01*
X213285Y51609D01*
X213441Y52795D01*
X213285Y53981D01*
X212827Y55086D01*
X212099Y56036D01*
X211150Y56764D01*
X210044Y57222D01*
X208858Y57378D01*
X207672Y57222D01*
X206567Y56764D01*
X205618Y56036D01*
X204890Y55086D01*
X204520Y54194D01*
X204029Y54291D01*
Y62680D01*
X204477Y63023D01*
X204921Y63602D01*
X205200Y64276D01*
X205296Y65000D01*
X205279Y65129D01*
X205712Y65379D01*
X206102Y65079D01*
X206776Y64800D01*
X207500Y64704D01*
X208224Y64800D01*
X208898Y65079D01*
X209477Y65523D01*
X209921Y66102D01*
X210200Y66776D01*
X210296Y67500D01*
X210200Y68224D01*
X209921Y68898D01*
X209477Y69477D01*
X209029Y69820D01*
Y76867D01*
X218504Y86341D01*
X218968Y86149D01*
X220000Y86013D01*
X221032Y86149D01*
X221993Y86547D01*
X222819Y87181D01*
X223453Y88007D01*
X223851Y88968D01*
X223987Y90000D01*
X223851Y91032D01*
X223453Y91993D01*
X222819Y92819D01*
X221993Y93453D01*
X221032Y93851D01*
X220000Y93987D01*
X218968Y93851D01*
X218007Y93453D01*
X217181Y92819D01*
X216547Y91993D01*
X216149Y91032D01*
X216013Y90000D01*
X216149Y88968D01*
X216341Y88504D01*
X206419Y78581D01*
X206087Y78085D01*
X205971Y77500D01*
Y69820D01*
X205523Y69477D01*
X205079Y68898D01*
X204800Y68224D01*
X204704Y67500D01*
X204721Y67371D01*
X204462Y67222D01*
X204029Y67472D01*
Y81867D01*
X208504Y86341D01*
X208968Y86149D01*
X210000Y86013D01*
X211032Y86149D01*
X211993Y86547D01*
X212819Y87181D01*
X213453Y88007D01*
X213851Y88968D01*
X213987Y90000D01*
X213851Y91032D01*
X213453Y91993D01*
X212819Y92819D01*
X212587Y92997D01*
X212748Y93471D01*
X215000D01*
X215585Y93587D01*
X216081Y93919D01*
X218504Y96341D01*
X218968Y96149D01*
X220000Y96013D01*
X221032Y96149D01*
X221993Y96547D01*
X222819Y97181D01*
X223453Y98007D01*
X223851Y98968D01*
X223987Y100000D01*
X223851Y101032D01*
X223453Y101993D01*
X222819Y102819D01*
X221993Y103453D01*
X221032Y103851D01*
X220000Y103987D01*
X218968Y103851D01*
X218007Y103453D01*
X217181Y102819D01*
X216547Y101993D01*
X216149Y101032D01*
X216013Y100000D01*
X216149Y98968D01*
X216341Y98504D01*
X214367Y96529D01*
X212748D01*
X212587Y97003D01*
X212819Y97181D01*
X213453Y98007D01*
X213851Y98968D01*
X213987Y100000D01*
X213851Y101032D01*
X213453Y101993D01*
X212819Y102819D01*
X212587Y102997D01*
X212748Y103471D01*
X215000D01*
X215585Y103587D01*
X216081Y103919D01*
X218504Y106341D01*
X218968Y106149D01*
X220000Y106013D01*
X221032Y106149D01*
X221993Y106547D01*
X222819Y107181D01*
X223453Y108007D01*
X223851Y108968D01*
X223987Y110000D01*
X223851Y111032D01*
X223453Y111993D01*
X222819Y112819D01*
X221993Y113453D01*
X221032Y113851D01*
X220000Y113987D01*
D02*
G37*
G36*
X29500Y113921D02*
X28968Y113851D01*
X28007Y113453D01*
X27181Y112819D01*
X26547Y111993D01*
X26149Y111032D01*
X26079Y110500D01*
X29500D01*
Y113921D01*
D02*
G37*
G36*
X170000Y123987D02*
X168968Y123851D01*
X168007Y123453D01*
X167181Y122819D01*
X166547Y121993D01*
X166149Y121032D01*
X166013Y120000D01*
X166149Y118968D01*
X166547Y118007D01*
X167181Y117181D01*
X168007Y116547D01*
X168968Y116149D01*
X170000Y116013D01*
X171032Y116149D01*
X171993Y116547D01*
X172819Y117181D01*
X173453Y118007D01*
X173851Y118968D01*
X173987Y120000D01*
X173851Y121032D01*
X173453Y121993D01*
X172819Y122819D01*
X171993Y123453D01*
X171032Y123851D01*
X170000Y123987D01*
D02*
G37*
G36*
X209500Y119500D02*
X206047D01*
Y116047D01*
X209500D01*
Y119500D01*
D02*
G37*
G36*
X10500Y113921D02*
Y110500D01*
X13921D01*
X13851Y111032D01*
X13453Y111994D01*
X12819Y112819D01*
X11993Y113453D01*
X11032Y113851D01*
X10500Y113921D01*
D02*
G37*
G36*
X30000Y123987D02*
X28968Y123851D01*
X28007Y123453D01*
X27181Y122819D01*
X26547Y121993D01*
X26149Y121032D01*
X26013Y120000D01*
X26149Y118968D01*
X26547Y118007D01*
X27181Y117181D01*
X28007Y116547D01*
X28968Y116149D01*
X30000Y116013D01*
X31032Y116149D01*
X31993Y116547D01*
X32819Y117181D01*
X33453Y118007D01*
X33851Y118968D01*
X33987Y120000D01*
X33851Y121032D01*
X33453Y121993D01*
X32819Y122819D01*
X31993Y123453D01*
X31032Y123851D01*
X30000Y123987D01*
D02*
G37*
G36*
X90500Y133921D02*
Y130500D01*
X93921D01*
X93851Y131032D01*
X93453Y131993D01*
X92819Y132819D01*
X91993Y133453D01*
X91032Y133851D01*
X90500Y133921D01*
D02*
G37*
G36*
X169500D02*
X168968Y133851D01*
X168007Y133453D01*
X167181Y132819D01*
X166547Y131993D01*
X166149Y131032D01*
X166079Y130500D01*
X169500D01*
Y133921D01*
D02*
G37*
G36*
X170500D02*
Y130500D01*
X173921D01*
X173851Y131032D01*
X173453Y131993D01*
X172819Y132819D01*
X171993Y133453D01*
X171032Y133851D01*
X170500Y133921D01*
D02*
G37*
G36*
X93921Y129500D02*
X90500D01*
Y126079D01*
X91032Y126149D01*
X91993Y126547D01*
X92819Y127181D01*
X93453Y128007D01*
X93851Y128968D01*
X93921Y129500D01*
D02*
G37*
G36*
X89500Y133921D02*
X88968Y133851D01*
X88007Y133453D01*
X87181Y132819D01*
X86547Y131993D01*
X86149Y131032D01*
X86079Y130500D01*
X89500D01*
Y133921D01*
D02*
G37*
G36*
X173921Y129500D02*
X170500D01*
Y126079D01*
X171032Y126149D01*
X171993Y126547D01*
X172819Y127181D01*
X173453Y128007D01*
X173851Y128968D01*
X173921Y129500D01*
D02*
G37*
G36*
X169500D02*
X166079D01*
X166149Y128968D01*
X166547Y128007D01*
X167181Y127181D01*
X168007Y126547D01*
X168968Y126149D01*
X169500Y126079D01*
Y129500D01*
D02*
G37*
G36*
X30000Y133987D02*
X28968Y133851D01*
X28007Y133453D01*
X27181Y132819D01*
X26547Y131993D01*
X26149Y131032D01*
X26013Y130000D01*
X26149Y128968D01*
X26547Y128007D01*
X27181Y127181D01*
X28007Y126547D01*
X28968Y126149D01*
X30000Y126013D01*
X31032Y126149D01*
X31993Y126547D01*
X32819Y127181D01*
X33453Y128007D01*
X33851Y128968D01*
X33987Y130000D01*
X33851Y131032D01*
X33453Y131993D01*
X32819Y132819D01*
X31993Y133453D01*
X31032Y133851D01*
X30000Y133987D01*
D02*
G37*
G36*
X253953Y153953D02*
X246047D01*
Y148908D01*
X220995Y123856D01*
X220000Y123987D01*
X218968Y123851D01*
X218007Y123453D01*
X217181Y122819D01*
X216547Y121993D01*
X216149Y121032D01*
X216013Y120000D01*
X216149Y118968D01*
X216547Y118007D01*
X217181Y117181D01*
X218007Y116547D01*
X218968Y116149D01*
X220000Y116013D01*
X221032Y116149D01*
X221993Y116547D01*
X222819Y117181D01*
X223453Y118007D01*
X223851Y118968D01*
X223987Y120000D01*
X223856Y120995D01*
X248908Y146047D01*
X253953D01*
Y153953D01*
D02*
G37*
G36*
X190500Y124762D02*
Y121937D01*
X193325D01*
X193276Y122315D01*
X192937Y123133D01*
X192398Y123835D01*
X191696Y124374D01*
X190878Y124713D01*
X190500Y124762D01*
D02*
G37*
G36*
X110000Y133987D02*
X108968Y133851D01*
X108007Y133453D01*
X107181Y132819D01*
X106547Y131993D01*
X106149Y131032D01*
X106013Y130000D01*
X106149Y128968D01*
X106547Y128007D01*
X107181Y127181D01*
X108007Y126547D01*
X108968Y126149D01*
X110000Y126013D01*
X111032Y126149D01*
X111993Y126547D01*
X112819Y127181D01*
X113453Y128007D01*
X113851Y128968D01*
X113987Y130000D01*
X113851Y131032D01*
X113453Y131993D01*
X112819Y132819D01*
X111993Y133453D01*
X111032Y133851D01*
X110000Y133987D01*
D02*
G37*
G36*
X33953Y143953D02*
X26047D01*
Y136047D01*
X33953D01*
Y143953D01*
D02*
G37*
G36*
X89500Y129500D02*
X86079D01*
X86149Y128968D01*
X86547Y128007D01*
X87181Y127181D01*
X88007Y126547D01*
X88968Y126149D01*
X89500Y126079D01*
Y129500D01*
D02*
G37*
%LPD*%
G36*
X107413Y112997D02*
X107181Y112819D01*
X106547Y111993D01*
X106149Y111032D01*
X106013Y110000D01*
X106149Y108968D01*
X106547Y108007D01*
X107181Y107181D01*
X107413Y107003D01*
X107252Y106529D01*
X92748D01*
X92587Y107003D01*
X92819Y107181D01*
X93453Y108007D01*
X93851Y108968D01*
X93987Y110000D01*
X93851Y111032D01*
X93453Y111993D01*
X92819Y112819D01*
X92587Y112997D01*
X92748Y113471D01*
X107252D01*
X107413Y112997D01*
D02*
G37*
G36*
X211005Y14332D02*
X210784Y13884D01*
X210000Y13987D01*
X208968Y13851D01*
X208504Y13659D01*
X201529Y20633D01*
Y23154D01*
X201991Y23346D01*
X211005Y14332D01*
D02*
G37*
G36*
X206116Y90784D02*
X206013Y90000D01*
X206149Y88968D01*
X206341Y88504D01*
X201419Y83581D01*
X201087Y83085D01*
X200971Y82500D01*
Y67320D01*
X200523Y66977D01*
X200079Y66398D01*
X199800Y65724D01*
X199704Y65000D01*
X199721Y64871D01*
X199462Y64722D01*
X199029Y64972D01*
Y84367D01*
X205668Y91005D01*
X206116Y90784D01*
D02*
G37*
G36*
X206547Y98007D02*
X207181Y97181D01*
X207440Y96982D01*
X207327Y96495D01*
X206915Y96413D01*
X206419Y96081D01*
X196419Y86081D01*
X196087Y85585D01*
X195971Y85000D01*
Y64820D01*
X195523Y64477D01*
X195079Y63898D01*
X194800Y63224D01*
X194704Y62500D01*
X194721Y62371D01*
X194462Y62222D01*
X194029Y62472D01*
Y86866D01*
X205633Y98471D01*
X206355D01*
X206547Y98007D01*
D02*
G37*
G36*
X193810Y90973D02*
X191419Y88581D01*
X191087Y88085D01*
X190971Y87500D01*
Y86453D01*
X184269D01*
X184078Y86915D01*
X188134Y90971D01*
X192500D01*
X193085Y91087D01*
X193493Y91359D01*
X193810Y90973D01*
D02*
G37*
G36*
X49721Y40129D02*
X49704Y40000D01*
X49778Y39441D01*
X48919Y38581D01*
X48587Y38085D01*
X48471Y37500D01*
Y13645D01*
X48007Y13453D01*
X47525Y13083D01*
X47077Y13304D01*
Y39381D01*
X47453Y39711D01*
X47500Y39704D01*
X48224Y39800D01*
X48898Y40079D01*
X49288Y40379D01*
X49721Y40129D01*
D02*
G37*
D10*
X170000Y90000D02*
X190000Y110000D01*
Y113563D01*
D11*
X42500Y142500D02*
X50000D01*
X35000Y150000D02*
X42500Y142500D01*
X35000Y25000D02*
X40000Y20000D01*
X35000Y25000D02*
Y35000D01*
X5000Y30000D02*
X12500D01*
X25000Y35000D02*
Y75000D01*
X85000Y85000D02*
X102500D01*
X95000Y55000D02*
X120000D01*
X90000Y60000D02*
X95000Y55000D01*
X177500Y52500D02*
Y80000D01*
X197500Y62500D02*
Y85000D01*
Y60000D02*
Y62500D01*
X202500Y65000D02*
Y82500D01*
Y25000D02*
Y65000D01*
X207500Y67500D02*
Y77500D01*
X197500Y60000D02*
X200000Y57500D01*
Y20000D02*
Y57500D01*
X192500Y60000D02*
Y87500D01*
Y60000D02*
X197500Y55000D01*
Y12500D02*
Y55000D01*
X207500Y77500D02*
X220000Y90000D01*
X177500Y80000D02*
X182500Y85000D01*
Y87500D01*
X187500Y92500D01*
X192500D01*
X185000Y95000D02*
X190000D01*
X177500Y87500D02*
X185000Y95000D01*
X75000Y15000D02*
Y40000D01*
Y15000D02*
X80000Y10000D01*
X65000Y15000D02*
Y40000D01*
X45547Y40547D02*
X47500Y42500D01*
X50000Y37500D02*
X52500Y40000D01*
X50000Y10000D02*
Y37500D01*
X2500Y32500D02*
X5000Y30000D01*
X2500Y32500D02*
Y72500D01*
X10000Y80000D01*
X190000Y95000D02*
X205000Y110000D01*
X210000D01*
X192500Y92500D02*
X205000Y105000D01*
X215000D01*
X220000Y110000D01*
X205000Y100000D02*
X210000D01*
X192500Y87500D02*
X205000Y100000D01*
X215000Y95000D02*
X220000Y100000D01*
X207500Y95000D02*
X215000D01*
X197500Y85000D02*
X207500Y95000D01*
X202500Y82500D02*
X210000Y90000D01*
X202500Y25000D02*
X217500Y10000D01*
X220000D01*
X200000Y20000D02*
X210000Y10000D01*
X197500Y12500D02*
X200000Y10000D01*
X115000Y115000D02*
X117500Y117500D01*
X87500Y115000D02*
X115000D01*
X80000Y107500D02*
X87500Y115000D01*
X80000Y105000D02*
Y107500D01*
X115000Y105000D02*
X122500Y112500D01*
X87500Y105000D02*
X115000D01*
X80000Y97500D02*
X87500Y105000D01*
X80000Y95000D02*
Y97500D01*
X48703Y5000D02*
X55000D01*
X45547Y8156D02*
Y40547D01*
Y8156D02*
X48703Y5000D01*
X30000Y40000D02*
X35000Y35000D01*
X25000D02*
X30000Y30000D01*
X65000Y15000D02*
X70000Y10000D01*
X55000Y5000D02*
X60000Y10000D01*
X122000Y102000D02*
Y107000D01*
X110000Y90000D02*
X122000Y102000D01*
D12*
X182500Y17500D02*
Y25000D01*
Y17500D02*
X190000Y10000D01*
X220000Y120000D02*
X250000Y150000D01*
D13*
X106299Y-12599D02*
Y-15748D01*
X108398D01*
X109973Y-13649D02*
X111022D01*
X111547Y-14174D01*
Y-15748D01*
X109973D01*
X109448Y-15223D01*
X109973Y-14698D01*
X111547D01*
X112596Y-13649D02*
Y-15223D01*
X113121Y-15748D01*
X114696D01*
Y-16273D01*
X114171Y-16798D01*
X113646D01*
X114696Y-15748D02*
Y-13649D01*
X117319Y-15748D02*
X116270D01*
X115745Y-15223D01*
Y-14174D01*
X116270Y-13649D01*
X117319D01*
X117844Y-14174D01*
Y-14698D01*
X115745D01*
X118894Y-13649D02*
Y-15748D01*
Y-14698D01*
X119418Y-14174D01*
X119943Y-13649D01*
X120468D01*
X125191Y-15748D02*
Y-12599D01*
X127290Y-15748D01*
Y-12599D01*
X128864Y-13649D02*
X129914D01*
X130438Y-14174D01*
Y-15748D01*
X128864D01*
X128339Y-15223D01*
X128864Y-14698D01*
X130438D01*
X131488Y-15748D02*
Y-13649D01*
X132013D01*
X132537Y-14174D01*
Y-15748D01*
Y-14174D01*
X133062Y-13649D01*
X133587Y-14174D01*
Y-15748D01*
X136211D02*
X135161D01*
X134636Y-15223D01*
Y-14174D01*
X135161Y-13649D01*
X136211D01*
X136736Y-14174D01*
Y-14698D01*
X134636D01*
X137785Y-13649D02*
X138310D01*
Y-14174D01*
X137785D01*
Y-13649D01*
Y-15223D02*
X138310D01*
Y-15748D01*
X137785D01*
Y-15223D01*
X106299Y-23622D02*
Y-20473D01*
X107873D01*
X108398Y-20998D01*
Y-22048D01*
X107873Y-22572D01*
X106299D01*
X107349D02*
X108398Y-23622D01*
X111022D02*
X109973D01*
X109448Y-23097D01*
Y-22048D01*
X109973Y-21523D01*
X111022D01*
X111547Y-22048D01*
Y-22572D01*
X109448D01*
X112596Y-21523D02*
X113646Y-23622D01*
X114696Y-21523D01*
X115745Y-23622D02*
X116795D01*
X116270D01*
Y-21523D01*
X115745D01*
X118369Y-23622D02*
X119943D01*
X120468Y-23097D01*
X119943Y-22572D01*
X118894D01*
X118369Y-22048D01*
X118894Y-21523D01*
X120468D01*
X121517Y-23622D02*
X122567D01*
X122042D01*
Y-21523D01*
X121517D01*
X124666Y-23622D02*
X125715D01*
X126240Y-23097D01*
Y-22048D01*
X125715Y-21523D01*
X124666D01*
X124141Y-22048D01*
Y-23097D01*
X124666Y-23622D01*
X127290D02*
Y-21523D01*
X128864D01*
X129389Y-22048D01*
Y-23622D01*
X130438Y-21523D02*
X130963D01*
Y-22048D01*
X130438D01*
Y-21523D01*
Y-23097D02*
X130963D01*
Y-23622D01*
X130438D01*
Y-23097D01*
X106299Y-31496D02*
Y-28348D01*
X107873D01*
X108398Y-28872D01*
Y-29922D01*
X107873Y-30446D01*
X106299D01*
X109448Y-29397D02*
Y-31496D01*
Y-30446D01*
X109973Y-29922D01*
X110497Y-29397D01*
X111022D01*
X112596Y-31496D02*
X113646D01*
X113121D01*
Y-29397D01*
X112596D01*
X115220Y-31496D02*
Y-29397D01*
X116795D01*
X117319Y-29922D01*
Y-31496D01*
X118894Y-28872D02*
Y-29397D01*
X118369D01*
X119418D01*
X118894D01*
Y-30971D01*
X119418Y-31496D01*
X124141Y-28348D02*
Y-31496D01*
X125715D01*
X126240Y-30971D01*
Y-28872D01*
X125715Y-28348D01*
X124141D01*
X127815Y-29397D02*
X128864D01*
X129389Y-29922D01*
Y-31496D01*
X127815D01*
X127290Y-30971D01*
X127815Y-30446D01*
X129389D01*
X130963Y-28872D02*
Y-29397D01*
X130438D01*
X131488D01*
X130963D01*
Y-30971D01*
X131488Y-31496D01*
X134636D02*
X133587D01*
X133062Y-30971D01*
Y-29922D01*
X133587Y-29397D01*
X134636D01*
X135161Y-29922D01*
Y-30446D01*
X133062D01*
X136211Y-29397D02*
X136736D01*
Y-29922D01*
X136211D01*
Y-29397D01*
Y-30971D02*
X136736D01*
Y-31496D01*
X136211D01*
Y-30971D01*
X145669Y-31496D02*
X146719D01*
X146194D01*
Y-28348D01*
X145669Y-28872D01*
X148293D02*
X148818Y-28348D01*
X149867D01*
X150392Y-28872D01*
Y-29397D01*
X149867Y-29922D01*
X150392Y-30446D01*
Y-30971D01*
X149867Y-31496D01*
X148818D01*
X148293Y-30971D01*
Y-30446D01*
X148818Y-29922D01*
X148293Y-29397D01*
Y-28872D01*
X148818Y-29922D02*
X149867D01*
X151442Y-31496D02*
X153541Y-29397D01*
X154590Y-28872D02*
X155115Y-28348D01*
X156165D01*
X156689Y-28872D01*
Y-30971D01*
X156165Y-31496D01*
X155115D01*
X154590Y-30971D01*
Y-28872D01*
X159838Y-31496D02*
X157739D01*
X159838Y-29397D01*
Y-28872D01*
X159313Y-28348D01*
X158264D01*
X157739Y-28872D01*
X160888Y-31496D02*
X162987Y-29397D01*
X166135Y-31496D02*
X164036D01*
X166135Y-29397D01*
Y-28872D01*
X165610Y-28348D01*
X164561D01*
X164036Y-28872D01*
X167185D02*
X167709Y-28348D01*
X168759D01*
X169284Y-28872D01*
Y-30971D01*
X168759Y-31496D01*
X167709D01*
X167185Y-30971D01*
Y-28872D01*
X170333Y-31496D02*
X171383D01*
X170858D01*
Y-28348D01*
X170333Y-28872D01*
X172957D02*
X173482Y-28348D01*
X174531D01*
X175056Y-28872D01*
Y-29397D01*
X174531Y-29922D01*
X175056Y-30446D01*
Y-30971D01*
X174531Y-31496D01*
X173482D01*
X172957Y-30971D01*
Y-30446D01*
X173482Y-29922D01*
X172957Y-29397D01*
Y-28872D01*
X173482Y-29922D02*
X174531D01*
X145669Y-20998D02*
X146194Y-20473D01*
X147244D01*
X147768Y-20998D01*
Y-23097D01*
X147244Y-23622D01*
X146194D01*
X145669Y-23097D01*
Y-20998D01*
X148818Y-23622D02*
X149867D01*
X149343D01*
Y-20473D01*
X148818Y-20998D01*
X151442Y-23622D02*
Y-23097D01*
X151967D01*
Y-23622D01*
X151442D01*
X154066Y-20998D02*
X154590Y-20473D01*
X155640D01*
X156165Y-20998D01*
Y-23097D01*
X155640Y-23622D01*
X154590D01*
X154066Y-23097D01*
Y-20998D01*
X159313Y-23622D02*
X157214D01*
X159313Y-21523D01*
Y-20998D01*
X158788Y-20473D01*
X157739D01*
X157214Y-20998D01*
X145669Y-12599D02*
Y-15748D01*
X147244D01*
X147768Y-15223D01*
Y-14698D01*
X147244Y-14174D01*
X145669D01*
X147244D01*
X147768Y-13649D01*
Y-13124D01*
X147244Y-12599D01*
X145669D01*
X149343Y-15748D02*
X150392D01*
X150917Y-15223D01*
Y-14174D01*
X150392Y-13649D01*
X149343D01*
X148818Y-14174D01*
Y-15223D01*
X149343Y-15748D01*
X152491Y-13124D02*
Y-13649D01*
X151967D01*
X153016D01*
X152491D01*
Y-15223D01*
X153016Y-15748D01*
X155115Y-13124D02*
Y-13649D01*
X154590D01*
X155640D01*
X155115D01*
Y-15223D01*
X155640Y-15748D01*
X157739D02*
X158788D01*
X159313Y-15223D01*
Y-14174D01*
X158788Y-13649D01*
X157739D01*
X157214Y-14174D01*
Y-15223D01*
X157739Y-15748D01*
X160363D02*
Y-13649D01*
X160888D01*
X161412Y-14174D01*
Y-15748D01*
Y-14174D01*
X161937Y-13649D01*
X162462Y-14174D01*
Y-15748D01*
X166660Y-12599D02*
Y-15748D01*
X168759D01*
X170333Y-13649D02*
X171383D01*
X171907Y-14174D01*
Y-15748D01*
X170333D01*
X169808Y-15223D01*
X170333Y-14698D01*
X171907D01*
X172957Y-13649D02*
Y-15223D01*
X173482Y-15748D01*
X175056D01*
Y-16273D01*
X174531Y-16798D01*
X174007D01*
X175056Y-15748D02*
Y-13649D01*
X177680Y-15748D02*
X176630D01*
X176106Y-15223D01*
Y-14174D01*
X176630Y-13649D01*
X177680D01*
X178205Y-14174D01*
Y-14698D01*
X176106D01*
X179254Y-13649D02*
Y-15748D01*
Y-14698D01*
X179779Y-14174D01*
X180304Y-13649D01*
X180829D01*
D14*
X190000Y121437D02*
D03*
X230000Y28189D02*
D03*
Y51811D02*
D03*
X240000D02*
D03*
Y28189D02*
D03*
X250000Y51811D02*
D03*
Y28189D02*
D03*
D15*
X190000Y113563D02*
D03*
D16*
X190000Y145000D02*
D03*
X215000D02*
D03*
D17*
X200000D02*
D03*
X225000D02*
D03*
D18*
X120000Y150000D02*
D03*
X250000D02*
D03*
X190000Y10000D02*
D03*
X40000D02*
D03*
X170000Y50000D02*
D03*
D19*
X110000Y150000D02*
D03*
X240000D02*
D03*
X10000Y80000D02*
D03*
Y70000D02*
D03*
Y60000D02*
D03*
Y50000D02*
D03*
Y40000D02*
D03*
Y110000D02*
D03*
X200000Y10000D02*
D03*
X210000D02*
D03*
X220000D02*
D03*
X230000D02*
D03*
X240000D02*
D03*
X50000D02*
D03*
X60000D02*
D03*
X70000D02*
D03*
X80000D02*
D03*
X90000D02*
D03*
X270000Y40000D02*
D03*
Y50000D02*
D03*
Y60000D02*
D03*
X187500Y72500D02*
D03*
X85000Y150000D02*
D03*
X75000D02*
D03*
X65000D02*
D03*
X55000D02*
D03*
X45000D02*
D03*
X35000D02*
D03*
X30000Y30000D02*
D03*
Y40000D02*
D03*
Y50000D02*
D03*
Y60000D02*
D03*
Y70000D02*
D03*
Y80000D02*
D03*
Y90000D02*
D03*
Y100000D02*
D03*
Y110000D02*
D03*
Y120000D02*
D03*
Y130000D02*
D03*
X90000D02*
D03*
Y120000D02*
D03*
Y110000D02*
D03*
Y100000D02*
D03*
Y90000D02*
D03*
Y80000D02*
D03*
Y70000D02*
D03*
Y60000D02*
D03*
Y50000D02*
D03*
Y40000D02*
D03*
Y30000D02*
D03*
X80000Y105000D02*
D03*
Y95000D02*
D03*
X70000Y30000D02*
D03*
X80000D02*
D03*
X60000D02*
D03*
X220000Y120000D02*
D03*
X210000Y110000D02*
D03*
X220000D02*
D03*
X210000Y100000D02*
D03*
X220000D02*
D03*
X210000Y90000D02*
D03*
X220000D02*
D03*
X170000Y130000D02*
D03*
X110000D02*
D03*
X170000Y120000D02*
D03*
Y110000D02*
D03*
Y100000D02*
D03*
Y90000D02*
D03*
Y80000D02*
D03*
Y70000D02*
D03*
Y60000D02*
D03*
X110000Y120000D02*
D03*
Y110000D02*
D03*
Y100000D02*
D03*
Y90000D02*
D03*
Y80000D02*
D03*
Y70000D02*
D03*
Y60000D02*
D03*
Y50000D02*
D03*
D20*
X10000Y90000D02*
D03*
Y120000D02*
D03*
X270000Y30000D02*
D03*
X187500Y82500D02*
D03*
X30000Y140000D02*
D03*
X90000D02*
D03*
X210000Y120000D02*
D03*
D21*
X208858Y52795D02*
D03*
Y27205D02*
D03*
X191142D02*
D03*
Y52795D02*
D03*
D22*
X50000Y142500D02*
D03*
X40000Y20000D02*
D03*
X12500Y30000D02*
D03*
X182500Y25000D02*
D03*
X25000Y75000D02*
D03*
X85000Y85000D02*
D03*
X102500D02*
D03*
X120000Y55000D02*
D03*
X177500Y52500D02*
D03*
X207500Y67500D02*
D03*
X202500Y65000D02*
D03*
X197500Y62500D02*
D03*
X192500Y60000D02*
D03*
X177500Y87500D02*
D03*
X75000Y40000D02*
D03*
X65000D02*
D03*
X52500D02*
D03*
X47500Y42500D02*
D03*
X117500Y117500D02*
D03*
X122500Y112500D02*
D03*
X122000Y107000D02*
D03*
D23*
X268189Y11811D02*
D03*
Y148189D02*
D03*
X11811D02*
D03*
Y11811D02*
D03*
M02*
