%FSLAX25Y25*%
%MOIN*%
G70*
G01*
G75*
G04 Layer_Color=32768*
%ADD10C,0.03937*%
%ADD11C,0.01000*%
%ADD12C,0.01969*%
%ADD13C,0.00787*%
%ADD14C,0.04724*%
%ADD15R,0.04724X0.04724*%
%ADD16R,0.06000X0.06000*%
%ADD17C,0.06000*%
%ADD18R,0.05906X0.05906*%
%ADD19C,0.05906*%
%ADD20R,0.05906X0.05906*%
%ADD21C,0.07087*%
%ADD22C,0.03543*%
%ADD23C,0.19685*%
%ADD24C,0.00500*%
%ADD25C,0.00591*%
%ADD26C,0.05524*%
%ADD27R,0.05524X0.05524*%
%ADD28R,0.06800X0.06800*%
%ADD29C,0.06800*%
%ADD30R,0.06706X0.06706*%
%ADD31C,0.06706*%
%ADD32R,0.06706X0.06706*%
%ADD33C,0.07887*%
%ADD34C,0.04343*%
%ADD35C,0.20485*%
%ADD36C,0.00394*%
%ADD37C,0.00600*%
%ADD38C,0.00197*%
D13*
X278898Y92441D02*
X282046D01*
Y90867D01*
X281522Y90342D01*
X280472D01*
X279947Y90867D01*
Y92441D01*
X281522Y87193D02*
X282046Y87718D01*
Y88768D01*
X281522Y89292D01*
X279422D01*
X278898Y88768D01*
Y87718D01*
X279422Y87193D01*
X282046Y86144D02*
X278898D01*
Y84570D01*
X279422Y84045D01*
X279947D01*
X280472Y84570D01*
Y86144D01*
Y84570D01*
X280997Y84045D01*
X281522D01*
X282046Y84570D01*
Y86144D01*
Y77747D02*
Y79847D01*
X278898D01*
Y77747D01*
X280472Y79847D02*
Y78797D01*
X282046Y76698D02*
X278898D01*
Y75124D01*
X279422Y74599D01*
X281522D01*
X282046Y75124D01*
Y76698D01*
X281522Y71450D02*
X282046Y71975D01*
Y73025D01*
X281522Y73549D01*
X279422D01*
X278898Y73025D01*
Y71975D01*
X279422Y71450D01*
X280472D01*
Y72500D01*
X282046Y68302D02*
Y70401D01*
X278898D01*
Y68302D01*
X280472Y70401D02*
Y69351D01*
X106299Y-12599D02*
Y-15748D01*
X108398D01*
X109973Y-13649D02*
X111022D01*
X111547Y-14174D01*
Y-15748D01*
X109973D01*
X109448Y-15223D01*
X109973Y-14698D01*
X111547D01*
X112596Y-13649D02*
Y-15223D01*
X113121Y-15748D01*
X114696D01*
Y-16273D01*
X114171Y-16798D01*
X113646D01*
X114696Y-15748D02*
Y-13649D01*
X117319Y-15748D02*
X116270D01*
X115745Y-15223D01*
Y-14174D01*
X116270Y-13649D01*
X117319D01*
X117844Y-14174D01*
Y-14698D01*
X115745D01*
X118894Y-13649D02*
Y-15748D01*
Y-14698D01*
X119418Y-14174D01*
X119943Y-13649D01*
X120468D01*
X125191Y-15748D02*
Y-12599D01*
X127290Y-15748D01*
Y-12599D01*
X128864Y-13649D02*
X129914D01*
X130438Y-14174D01*
Y-15748D01*
X128864D01*
X128339Y-15223D01*
X128864Y-14698D01*
X130438D01*
X131488Y-15748D02*
Y-13649D01*
X132013D01*
X132537Y-14174D01*
Y-15748D01*
Y-14174D01*
X133062Y-13649D01*
X133587Y-14174D01*
Y-15748D01*
X136211D02*
X135161D01*
X134636Y-15223D01*
Y-14174D01*
X135161Y-13649D01*
X136211D01*
X136736Y-14174D01*
Y-14698D01*
X134636D01*
X137785Y-13649D02*
X138310D01*
Y-14174D01*
X137785D01*
Y-13649D01*
Y-15223D02*
X138310D01*
Y-15748D01*
X137785D01*
Y-15223D01*
X106299Y-23622D02*
Y-20473D01*
X107873D01*
X108398Y-20998D01*
Y-22048D01*
X107873Y-22572D01*
X106299D01*
X107349D02*
X108398Y-23622D01*
X111022D02*
X109973D01*
X109448Y-23097D01*
Y-22048D01*
X109973Y-21523D01*
X111022D01*
X111547Y-22048D01*
Y-22572D01*
X109448D01*
X112596Y-21523D02*
X113646Y-23622D01*
X114696Y-21523D01*
X115745Y-23622D02*
X116795D01*
X116270D01*
Y-21523D01*
X115745D01*
X118369Y-23622D02*
X119943D01*
X120468Y-23097D01*
X119943Y-22572D01*
X118894D01*
X118369Y-22048D01*
X118894Y-21523D01*
X120468D01*
X121517Y-23622D02*
X122567D01*
X122042D01*
Y-21523D01*
X121517D01*
X124666Y-23622D02*
X125715D01*
X126240Y-23097D01*
Y-22048D01*
X125715Y-21523D01*
X124666D01*
X124141Y-22048D01*
Y-23097D01*
X124666Y-23622D01*
X127290D02*
Y-21523D01*
X128864D01*
X129389Y-22048D01*
Y-23622D01*
X130438Y-21523D02*
X130963D01*
Y-22048D01*
X130438D01*
Y-21523D01*
Y-23097D02*
X130963D01*
Y-23622D01*
X130438D01*
Y-23097D01*
X106299Y-31496D02*
Y-28348D01*
X107873D01*
X108398Y-28872D01*
Y-29922D01*
X107873Y-30446D01*
X106299D01*
X109448Y-29397D02*
Y-31496D01*
Y-30446D01*
X109973Y-29922D01*
X110497Y-29397D01*
X111022D01*
X112596Y-31496D02*
X113646D01*
X113121D01*
Y-29397D01*
X112596D01*
X115220Y-31496D02*
Y-29397D01*
X116795D01*
X117319Y-29922D01*
Y-31496D01*
X118894Y-28872D02*
Y-29397D01*
X118369D01*
X119418D01*
X118894D01*
Y-30971D01*
X119418Y-31496D01*
X124141Y-28348D02*
Y-31496D01*
X125715D01*
X126240Y-30971D01*
Y-28872D01*
X125715Y-28348D01*
X124141D01*
X127815Y-29397D02*
X128864D01*
X129389Y-29922D01*
Y-31496D01*
X127815D01*
X127290Y-30971D01*
X127815Y-30446D01*
X129389D01*
X130963Y-28872D02*
Y-29397D01*
X130438D01*
X131488D01*
X130963D01*
Y-30971D01*
X131488Y-31496D01*
X134636D02*
X133587D01*
X133062Y-30971D01*
Y-29922D01*
X133587Y-29397D01*
X134636D01*
X135161Y-29922D01*
Y-30446D01*
X133062D01*
X136211Y-29397D02*
X136736D01*
Y-29922D01*
X136211D01*
Y-29397D01*
Y-30971D02*
X136736D01*
Y-31496D01*
X136211D01*
Y-30971D01*
X145669Y-31496D02*
X146719D01*
X146194D01*
Y-28348D01*
X145669Y-28872D01*
X148293D02*
X148818Y-28348D01*
X149867D01*
X150392Y-28872D01*
Y-29397D01*
X149867Y-29922D01*
X150392Y-30446D01*
Y-30971D01*
X149867Y-31496D01*
X148818D01*
X148293Y-30971D01*
Y-30446D01*
X148818Y-29922D01*
X148293Y-29397D01*
Y-28872D01*
X148818Y-29922D02*
X149867D01*
X151442Y-31496D02*
X153541Y-29397D01*
X154590Y-28872D02*
X155115Y-28348D01*
X156165D01*
X156689Y-28872D01*
Y-30971D01*
X156165Y-31496D01*
X155115D01*
X154590Y-30971D01*
Y-28872D01*
X159838Y-31496D02*
X157739D01*
X159838Y-29397D01*
Y-28872D01*
X159313Y-28348D01*
X158264D01*
X157739Y-28872D01*
X160888Y-31496D02*
X162987Y-29397D01*
X166135Y-31496D02*
X164036D01*
X166135Y-29397D01*
Y-28872D01*
X165610Y-28348D01*
X164561D01*
X164036Y-28872D01*
X167185D02*
X167709Y-28348D01*
X168759D01*
X169284Y-28872D01*
Y-30971D01*
X168759Y-31496D01*
X167709D01*
X167185Y-30971D01*
Y-28872D01*
X170333Y-31496D02*
X171383D01*
X170858D01*
Y-28348D01*
X170333Y-28872D01*
X172957D02*
X173482Y-28348D01*
X174531D01*
X175056Y-28872D01*
Y-29397D01*
X174531Y-29922D01*
X175056Y-30446D01*
Y-30971D01*
X174531Y-31496D01*
X173482D01*
X172957Y-30971D01*
Y-30446D01*
X173482Y-29922D01*
X172957Y-29397D01*
Y-28872D01*
X173482Y-29922D02*
X174531D01*
X145669Y-20998D02*
X146194Y-20473D01*
X147244D01*
X147768Y-20998D01*
Y-23097D01*
X147244Y-23622D01*
X146194D01*
X145669Y-23097D01*
Y-20998D01*
X148818Y-23622D02*
X149867D01*
X149343D01*
Y-20473D01*
X148818Y-20998D01*
X151442Y-23622D02*
Y-23097D01*
X151967D01*
Y-23622D01*
X151442D01*
X154066Y-20998D02*
X154590Y-20473D01*
X155640D01*
X156165Y-20998D01*
Y-23097D01*
X155640Y-23622D01*
X154590D01*
X154066Y-23097D01*
Y-20998D01*
X159313Y-23622D02*
X157214D01*
X159313Y-21523D01*
Y-20998D01*
X158788Y-20473D01*
X157739D01*
X157214Y-20998D01*
X145669Y-15748D02*
Y-12599D01*
X146719Y-13649D01*
X147768Y-12599D01*
Y-15748D01*
X150392D02*
X149343D01*
X148818Y-15223D01*
Y-14174D01*
X149343Y-13649D01*
X150392D01*
X150917Y-14174D01*
Y-14698D01*
X148818D01*
X154066Y-13649D02*
X152491D01*
X151967Y-14174D01*
Y-15223D01*
X152491Y-15748D01*
X154066D01*
X155115Y-12599D02*
Y-15748D01*
Y-14174D01*
X155640Y-13649D01*
X156689D01*
X157214Y-14174D01*
Y-15748D01*
X158788Y-13649D02*
X159838D01*
X160363Y-14174D01*
Y-15748D01*
X158788D01*
X158264Y-15223D01*
X158788Y-14698D01*
X160363D01*
X161412Y-15748D02*
Y-13649D01*
X162987D01*
X163511Y-14174D01*
Y-15748D01*
X164561D02*
X165610D01*
X165086D01*
Y-13649D01*
X164561D01*
X169284D02*
X167709D01*
X167185Y-14174D01*
Y-15223D01*
X167709Y-15748D01*
X169284D01*
X170858Y-13649D02*
X171907D01*
X172432Y-14174D01*
Y-15748D01*
X170858D01*
X170333Y-15223D01*
X170858Y-14698D01*
X172432D01*
X173482Y-15748D02*
X174531D01*
X174007D01*
Y-12599D01*
X173482D01*
X179254Y-15748D02*
X180304D01*
X179779D01*
Y-12599D01*
X179254Y-13124D01*
X181878Y-15748D02*
X182928D01*
X182403D01*
Y-12599D01*
X181878Y-13124D01*
D36*
X204860Y149930D02*
G03*
X204860Y140070I-9860J-4930D01*
G01*
X229860Y149930D02*
G03*
X229860Y140070I-9860J-4930D01*
G01*
X204860D02*
Y149930D01*
X229860Y140070D02*
Y149930D01*
D38*
X199843Y117500D02*
G03*
X199843Y117500I-9843J0D01*
G01*
X105000Y145000D02*
X125000D01*
X105000D02*
Y155000D01*
X125000D01*
Y145000D02*
Y155000D01*
X235000Y145000D02*
X255000D01*
X235000D02*
Y155000D01*
X255000D01*
Y145000D02*
Y155000D01*
X5000Y95000D02*
X15000D01*
Y35000D02*
Y95000D01*
X5000Y35000D02*
X15000D01*
X5000D02*
Y95000D01*
X15000Y105000D02*
Y125000D01*
X5000Y105000D02*
X15000D01*
X5000D02*
Y125000D01*
X15000D01*
X185000Y5000D02*
Y15000D01*
X245000D01*
Y5000D02*
Y15000D01*
X185000Y5000D02*
X245000D01*
X35000D02*
Y15000D01*
X95000D01*
Y5000D02*
Y15000D01*
X35000Y5000D02*
X95000D01*
X275000Y25000D02*
Y65000D01*
X265000D02*
X275000D01*
X265000Y25000D02*
Y65000D01*
Y25000D02*
X275000D01*
X192500Y67500D02*
Y87500D01*
X182500Y67500D02*
X192500D01*
X182500D02*
Y87500D01*
X192500D01*
X25000Y25000D02*
X95000D01*
Y155000D01*
X25000D02*
X95000D01*
X25000Y25000D02*
Y155000D01*
X282835Y66850D02*
Y125906D01*
X204095Y66850D02*
Y125906D01*
X322205D01*
X204095Y66850D02*
X322205D01*
Y125906D01*
X105000Y141811D02*
X175000D01*
X105000Y0D02*
Y141811D01*
Y0D02*
X175000D01*
Y141811D01*
X155000Y-2500D02*
Y0D01*
X125000Y-2500D02*
X155000D01*
X125000D02*
Y0D01*
X226654Y33504D02*
X233347D01*
X226654D02*
Y46496D01*
X233347D01*
Y33504D02*
Y46496D01*
X236653Y46496D02*
X243347D01*
Y33504D02*
Y46496D01*
X236653Y33504D02*
X243347D01*
X236653D02*
Y46496D01*
X246654D02*
X253346D01*
Y33504D02*
Y46496D01*
X246654Y33504D02*
X253346D01*
X246654D02*
Y46496D01*
X188189Y25039D02*
Y54961D01*
X211811D01*
Y25039D02*
Y54961D01*
X188189Y25039D02*
X211811D01*
M02*
