%FSLAX25Y25*%
%MOIN*%
G70*
G01*
G75*
G04 Layer_Physical_Order=2*
G04 Layer_Color=16711680*
%ADD10R,0.04331X0.03937*%
%ADD11R,0.03740X0.03347*%
%ADD12R,0.05906X0.05906*%
%ADD13R,0.03543X0.03937*%
%ADD14C,0.01000*%
%ADD15C,0.03937*%
%ADD16C,0.01969*%
%ADD17C,0.01181*%
%ADD18C,0.00787*%
%ADD19C,0.05000*%
%ADD20C,0.05906*%
%ADD21R,0.05906X0.05906*%
%ADD22R,0.04724X0.04724*%
%ADD23C,0.04724*%
%ADD24R,0.04724X0.04724*%
%ADD25C,0.03543*%
%ADD26C,0.19685*%
G36*
X300000Y160000D02*
Y0D01*
X0D01*
Y160000D01*
X0Y160000D01*
D01*
D01*
D01*
X0Y160000D01*
X300000D01*
X300000Y160000D01*
D02*
G37*
%LPC*%
G36*
X90000Y83987D02*
X88968Y83851D01*
X88007Y83453D01*
X87181Y82819D01*
X86547Y81993D01*
X86149Y81032D01*
X86013Y80000D01*
X86149Y78968D01*
X86547Y78007D01*
X87181Y77181D01*
X88007Y76547D01*
X88968Y76149D01*
X90000Y76013D01*
X91032Y76149D01*
X91993Y76547D01*
X92819Y77181D01*
X93453Y78007D01*
X93851Y78968D01*
X93987Y80000D01*
X93851Y81032D01*
X93453Y81993D01*
X92819Y82819D01*
X91993Y83453D01*
X91032Y83851D01*
X90000Y83987D01*
D02*
G37*
G36*
X110500Y73921D02*
Y70500D01*
X113921D01*
X113851Y71032D01*
X113453Y71993D01*
X112819Y72819D01*
X111993Y73453D01*
X111032Y73851D01*
X110500Y73921D01*
D02*
G37*
G36*
X109500D02*
X108968Y73851D01*
X108007Y73453D01*
X107181Y72819D01*
X106547Y71993D01*
X106149Y71032D01*
X106079Y70500D01*
X109500D01*
Y73921D01*
D02*
G37*
G36*
X110000Y83987D02*
X108968Y83851D01*
X108007Y83453D01*
X107181Y82819D01*
X106547Y81993D01*
X106149Y81032D01*
X106013Y80000D01*
X106149Y78968D01*
X106547Y78007D01*
X107181Y77181D01*
X108007Y76547D01*
X108968Y76149D01*
X110000Y76013D01*
X111032Y76149D01*
X111993Y76547D01*
X112819Y77181D01*
X113453Y78007D01*
X113851Y78968D01*
X113987Y80000D01*
X113851Y81032D01*
X113453Y81993D01*
X112819Y82819D01*
X111993Y83453D01*
X111032Y83851D01*
X110000Y83987D01*
D02*
G37*
G36*
X90000Y93987D02*
X88968Y93851D01*
X88007Y93453D01*
X87181Y92819D01*
X86547Y91993D01*
X86149Y91032D01*
X86013Y90000D01*
X86149Y88968D01*
X86547Y88007D01*
X87181Y87181D01*
X88007Y86547D01*
X88968Y86149D01*
X90000Y86013D01*
X91032Y86149D01*
X91993Y86547D01*
X92819Y87181D01*
X93453Y88007D01*
X93851Y88968D01*
X93987Y90000D01*
X93851Y91032D01*
X93453Y91993D01*
X92819Y92819D01*
X91993Y93453D01*
X91032Y93851D01*
X90000Y93987D01*
D02*
G37*
G36*
X30000D02*
X28968Y93851D01*
X28007Y93453D01*
X27181Y92819D01*
X26547Y91993D01*
X26149Y91032D01*
X26013Y90000D01*
X26149Y88968D01*
X26547Y88007D01*
X27181Y87181D01*
X28007Y86547D01*
X28968Y86149D01*
X30000Y86013D01*
X31032Y86149D01*
X31993Y86547D01*
X32819Y87181D01*
X33453Y88007D01*
X33851Y88968D01*
X33987Y90000D01*
X33851Y91032D01*
X33453Y91993D01*
X32819Y92819D01*
X31993Y93453D01*
X31032Y93851D01*
X30000Y93987D01*
D02*
G37*
G36*
X170000Y83987D02*
X168968Y83851D01*
X168007Y83453D01*
X167181Y82819D01*
X166547Y81993D01*
X166149Y81032D01*
X166013Y80000D01*
X166149Y78968D01*
X166547Y78007D01*
X167181Y77181D01*
X168007Y76547D01*
X168968Y76149D01*
X170000Y76013D01*
X171032Y76149D01*
X171993Y76547D01*
X172819Y77181D01*
X173453Y78007D01*
X173851Y78968D01*
X173987Y80000D01*
X173851Y81032D01*
X173453Y81993D01*
X172819Y82819D01*
X171993Y83453D01*
X171032Y83851D01*
X170000Y83987D01*
D02*
G37*
G36*
X113921Y69500D02*
X110500D01*
Y66079D01*
X111032Y66149D01*
X111993Y66547D01*
X112819Y67181D01*
X113453Y68007D01*
X113851Y68968D01*
X113921Y69500D01*
D02*
G37*
G36*
X290500Y63921D02*
Y60500D01*
X293921D01*
X293851Y61032D01*
X293453Y61993D01*
X292819Y62819D01*
X291993Y63453D01*
X291032Y63851D01*
X290500Y63921D01*
D02*
G37*
G36*
X289500D02*
X288968Y63851D01*
X288007Y63453D01*
X287181Y62819D01*
X286547Y61993D01*
X286149Y61032D01*
X286079Y60500D01*
X289500D01*
Y63921D01*
D02*
G37*
G36*
X247500Y75296D02*
X246777Y75200D01*
X246102Y74921D01*
X245523Y74477D01*
X245079Y73898D01*
X244800Y73224D01*
X244704Y72500D01*
X244800Y71776D01*
X245079Y71102D01*
X245523Y70523D01*
X246102Y70079D01*
X246777Y69800D01*
X247500Y69704D01*
X248059Y69778D01*
X253471Y64367D01*
Y62320D01*
X253023Y61977D01*
X252579Y61398D01*
X252300Y60724D01*
X252204Y60000D01*
X252300Y59276D01*
X252579Y58602D01*
X253023Y58023D01*
X253602Y57579D01*
X254276Y57300D01*
X255000Y57204D01*
X255724Y57300D01*
X256398Y57579D01*
X256977Y58023D01*
X257421Y58602D01*
X257700Y59276D01*
X257796Y60000D01*
X257700Y60724D01*
X257421Y61398D01*
X256977Y61977D01*
X256529Y62320D01*
Y65000D01*
X256413Y65585D01*
X256081Y66081D01*
X250222Y71941D01*
X250296Y72500D01*
X250200Y73224D01*
X249921Y73898D01*
X249477Y74477D01*
X248898Y74921D01*
X248223Y75200D01*
X247500Y75296D01*
D02*
G37*
G36*
X10000Y83987D02*
X8968Y83851D01*
X8007Y83453D01*
X7181Y82819D01*
X6547Y81994D01*
X6149Y81032D01*
X6013Y80000D01*
X6149Y78968D01*
X6547Y78007D01*
X7181Y77181D01*
X8007Y76547D01*
X8968Y76149D01*
X10000Y76013D01*
X11032Y76149D01*
X11496Y76341D01*
X18471Y69367D01*
Y64346D01*
X18009Y64154D01*
X13659Y68504D01*
X13851Y68968D01*
X13987Y70000D01*
X13851Y71032D01*
X13453Y71993D01*
X12819Y72819D01*
X11993Y73453D01*
X11032Y73851D01*
X10000Y73987D01*
X8968Y73851D01*
X8007Y73453D01*
X7181Y72819D01*
X6547Y71993D01*
X6149Y71032D01*
X6013Y70000D01*
X6149Y68968D01*
X6547Y68007D01*
X7181Y67181D01*
X8007Y66547D01*
X8968Y66149D01*
X10000Y66013D01*
X11032Y66149D01*
X11496Y66341D01*
X15971Y61867D01*
Y27500D01*
X16087Y26915D01*
X16419Y26419D01*
X23919Y18919D01*
X24415Y18587D01*
X25000Y18471D01*
X30180D01*
X30523Y18023D01*
X31102Y17579D01*
X31776Y17300D01*
X32500Y17204D01*
X33224Y17300D01*
X33898Y17579D01*
X34477Y18023D01*
X34921Y18602D01*
X35200Y19276D01*
X35296Y20000D01*
X35200Y20724D01*
X34921Y21398D01*
X34477Y21977D01*
X33898Y22421D01*
X33224Y22700D01*
X32500Y22796D01*
X31776Y22700D01*
X31102Y22421D01*
X30523Y21977D01*
X30180Y21529D01*
X25633D01*
X19029Y28133D01*
Y30654D01*
X19491Y30846D01*
X26419Y23919D01*
X26915Y23587D01*
X27500Y23471D01*
X36867D01*
X37278Y23059D01*
X37204Y22500D01*
X37300Y21776D01*
X37579Y21102D01*
X38023Y20523D01*
X38602Y20079D01*
X39276Y19800D01*
X40000Y19704D01*
X40724Y19800D01*
X41398Y20079D01*
X41977Y20523D01*
X42421Y21102D01*
X42700Y21776D01*
X42796Y22500D01*
X42700Y23224D01*
X42421Y23898D01*
X41977Y24477D01*
X41398Y24921D01*
X40724Y25200D01*
X40000Y25296D01*
X39441Y25222D01*
X38581Y26081D01*
X38085Y26413D01*
X37500Y26529D01*
X32748D01*
X32587Y27003D01*
X32819Y27181D01*
X33453Y28007D01*
X33851Y28968D01*
X33987Y30000D01*
X33851Y31032D01*
X33453Y31993D01*
X32819Y32819D01*
X31993Y33453D01*
X31032Y33851D01*
X30000Y33987D01*
X28968Y33851D01*
X28504Y33659D01*
X26529Y35634D01*
Y37252D01*
X27003Y37413D01*
X27181Y37181D01*
X28007Y36547D01*
X28968Y36149D01*
X30000Y36013D01*
X31032Y36149D01*
X31993Y36547D01*
X32819Y37181D01*
X33453Y38007D01*
X33851Y38968D01*
X33987Y40000D01*
X33851Y41032D01*
X33659Y41496D01*
X41082Y48919D01*
X41413Y49415D01*
X41529Y50000D01*
Y77680D01*
X41977Y78023D01*
X42421Y78602D01*
X42700Y79276D01*
X42796Y80000D01*
X42700Y80724D01*
X42421Y81398D01*
X41977Y81977D01*
X41398Y82421D01*
X40724Y82700D01*
X40000Y82796D01*
X39276Y82700D01*
X38602Y82421D01*
X38023Y81977D01*
X37579Y81398D01*
X37300Y80724D01*
X37204Y80000D01*
X37300Y79276D01*
X37579Y78602D01*
X38023Y78023D01*
X38471Y77680D01*
Y50634D01*
X31496Y43659D01*
X31032Y43851D01*
X30000Y43987D01*
X28968Y43851D01*
X28007Y43453D01*
X27181Y42819D01*
X27003Y42587D01*
X26529Y42748D01*
Y47252D01*
X27003Y47413D01*
X27181Y47181D01*
X28007Y46547D01*
X28968Y46149D01*
X30000Y46013D01*
X31032Y46149D01*
X31993Y46547D01*
X32819Y47181D01*
X33453Y48007D01*
X33851Y48968D01*
X33987Y50000D01*
X33851Y51032D01*
X33453Y51993D01*
X32819Y52819D01*
X31993Y53453D01*
X31032Y53851D01*
X30000Y53987D01*
X28968Y53851D01*
X28007Y53453D01*
X27181Y52819D01*
X27003Y52587D01*
X26529Y52748D01*
Y57252D01*
X27003Y57413D01*
X27181Y57181D01*
X28007Y56547D01*
X28968Y56149D01*
X30000Y56013D01*
X31032Y56149D01*
X31993Y56547D01*
X32819Y57181D01*
X33453Y58007D01*
X33851Y58968D01*
X33987Y60000D01*
X33851Y61032D01*
X33453Y61993D01*
X32819Y62819D01*
X31993Y63453D01*
X31032Y63851D01*
X30000Y63987D01*
X28968Y63851D01*
X28007Y63453D01*
X27181Y62819D01*
X27003Y62587D01*
X26529Y62748D01*
Y67252D01*
X27003Y67413D01*
X27181Y67181D01*
X28007Y66547D01*
X28968Y66149D01*
X30000Y66013D01*
X31032Y66149D01*
X31993Y66547D01*
X32819Y67181D01*
X33453Y68007D01*
X33851Y68968D01*
X33987Y70000D01*
X33851Y71032D01*
X33453Y71993D01*
X32819Y72819D01*
X31993Y73453D01*
X31032Y73851D01*
X30000Y73987D01*
X28968Y73851D01*
X28007Y73453D01*
X27824Y73312D01*
X27427Y73617D01*
X27700Y74276D01*
X27796Y75000D01*
X27700Y75724D01*
X27427Y76383D01*
X27824Y76688D01*
X28007Y76547D01*
X28968Y76149D01*
X30000Y76013D01*
X31032Y76149D01*
X31993Y76547D01*
X32819Y77181D01*
X33453Y78007D01*
X33851Y78968D01*
X33987Y80000D01*
X33851Y81032D01*
X33453Y81993D01*
X32819Y82819D01*
X31993Y83453D01*
X31032Y83851D01*
X30000Y83987D01*
X28968Y83851D01*
X28007Y83453D01*
X27181Y82819D01*
X26547Y81993D01*
X26149Y81032D01*
X26013Y80000D01*
X26149Y78968D01*
X26547Y78007D01*
X26687Y77824D01*
X26383Y77427D01*
X25724Y77700D01*
X25000Y77796D01*
X24276Y77700D01*
X23602Y77421D01*
X23023Y76977D01*
X22579Y76398D01*
X22300Y75724D01*
X22204Y75000D01*
X22300Y74276D01*
X22579Y73602D01*
X23023Y73023D01*
X23471Y72680D01*
Y35000D01*
X23587Y34415D01*
X23919Y33919D01*
X26341Y31496D01*
X26149Y31032D01*
X26013Y30000D01*
X26116Y29216D01*
X25668Y28995D01*
X21529Y33134D01*
Y70000D01*
X21432Y70488D01*
X21413Y70585D01*
X21081Y71082D01*
X13659Y78504D01*
X13851Y78968D01*
X13987Y80000D01*
X13851Y81032D01*
X13453Y81994D01*
X12819Y82819D01*
X11993Y83453D01*
X11032Y83851D01*
X10000Y83987D01*
D02*
G37*
G36*
X109500Y69500D02*
X106079D01*
X106149Y68968D01*
X106547Y68007D01*
X107181Y67181D01*
X108007Y66547D01*
X108968Y66149D01*
X109500Y66079D01*
Y69500D01*
D02*
G37*
G36*
X170000Y73987D02*
X168968Y73851D01*
X168007Y73453D01*
X167181Y72819D01*
X166547Y71993D01*
X166149Y71032D01*
X166013Y70000D01*
X166149Y68968D01*
X166547Y68007D01*
X167181Y67181D01*
X168007Y66547D01*
X168968Y66149D01*
X170000Y66013D01*
X171032Y66149D01*
X171993Y66547D01*
X172819Y67181D01*
X173453Y68007D01*
X173851Y68968D01*
X173987Y70000D01*
X173851Y71032D01*
X173453Y71993D01*
X172819Y72819D01*
X171993Y73453D01*
X171032Y73851D01*
X170000Y73987D01*
D02*
G37*
G36*
X90000D02*
X88968Y73851D01*
X88007Y73453D01*
X87181Y72819D01*
X86547Y71993D01*
X86149Y71032D01*
X86013Y70000D01*
X86149Y68968D01*
X86547Y68007D01*
X87181Y67181D01*
X88007Y66547D01*
X88968Y66149D01*
X90000Y66013D01*
X91032Y66149D01*
X91993Y66547D01*
X92819Y67181D01*
X93453Y68007D01*
X93851Y68968D01*
X93987Y70000D01*
X93851Y71032D01*
X93453Y71993D01*
X92819Y72819D01*
X91993Y73453D01*
X91032Y73851D01*
X90000Y73987D01*
D02*
G37*
G36*
X193325Y110563D02*
X190500D01*
Y107738D01*
X190878Y107787D01*
X191696Y108126D01*
X192398Y108665D01*
X192937Y109367D01*
X193276Y110185D01*
X193325Y110563D01*
D02*
G37*
G36*
X189500D02*
X186675D01*
X186724Y110185D01*
X187063Y109367D01*
X187602Y108665D01*
X188304Y108126D01*
X189122Y107787D01*
X189500Y107738D01*
Y110563D01*
D02*
G37*
G36*
X13921Y109500D02*
X10500D01*
Y106079D01*
X11032Y106149D01*
X11993Y106547D01*
X12819Y107181D01*
X13453Y108007D01*
X13851Y108968D01*
X13921Y109500D01*
D02*
G37*
G36*
X29500Y113921D02*
X28968Y113851D01*
X28007Y113453D01*
X27181Y112819D01*
X26547Y111993D01*
X26149Y111032D01*
X26079Y110500D01*
X29500D01*
Y113921D01*
D02*
G37*
G36*
X10500Y113921D02*
Y110500D01*
X13921D01*
X13851Y111032D01*
X13453Y111994D01*
X12819Y112819D01*
X11993Y113453D01*
X11032Y113851D01*
X10500Y113921D01*
D02*
G37*
G36*
X9500D02*
X8968Y113851D01*
X8007Y113453D01*
X7181Y112819D01*
X6547Y111994D01*
X6149Y111032D01*
X6079Y110500D01*
X9500D01*
Y113921D01*
D02*
G37*
G36*
X30500Y113921D02*
Y110500D01*
X33921D01*
X33851Y111032D01*
X33453Y111993D01*
X32819Y112819D01*
X31993Y113453D01*
X31032Y113851D01*
X30500Y113921D01*
D02*
G37*
G36*
X9500Y109500D02*
X6079D01*
X6149Y108968D01*
X6547Y108007D01*
X7181Y107181D01*
X8007Y106547D01*
X8968Y106149D01*
X9500Y106079D01*
Y109500D01*
D02*
G37*
G36*
X70000Y145296D02*
X69276Y145200D01*
X68602Y144921D01*
X68023Y144477D01*
X67579Y143898D01*
X67300Y143224D01*
X67204Y142500D01*
X67300Y141776D01*
X67579Y141102D01*
X68023Y140523D01*
X68471Y140180D01*
Y107320D01*
X68023Y106977D01*
X67579Y106398D01*
X67300Y105724D01*
X67204Y105000D01*
X67300Y104276D01*
X67579Y103602D01*
X68023Y103023D01*
X68602Y102579D01*
X69276Y102300D01*
X70000Y102204D01*
X70724Y102300D01*
X71398Y102579D01*
X71977Y103023D01*
X72421Y103602D01*
X72700Y104276D01*
X72796Y105000D01*
X72700Y105724D01*
X72421Y106398D01*
X71977Y106977D01*
X71529Y107320D01*
Y140180D01*
X71977Y140523D01*
X72421Y141102D01*
X72700Y141776D01*
X72796Y142500D01*
X72700Y143224D01*
X72421Y143898D01*
X71977Y144477D01*
X71398Y144921D01*
X70724Y145200D01*
X70000Y145296D01*
D02*
G37*
G36*
X30000Y103987D02*
X28968Y103851D01*
X28007Y103453D01*
X27181Y102819D01*
X26547Y101993D01*
X26149Y101032D01*
X26013Y100000D01*
X26149Y98968D01*
X26547Y98007D01*
X27181Y97181D01*
X28007Y96547D01*
X28968Y96149D01*
X30000Y96013D01*
X31032Y96149D01*
X31993Y96547D01*
X32819Y97181D01*
X33453Y98007D01*
X33851Y98968D01*
X33987Y100000D01*
X33851Y101032D01*
X33453Y101993D01*
X32819Y102819D01*
X31993Y103453D01*
X31032Y103851D01*
X30000Y103987D01*
D02*
G37*
G36*
X13953Y93953D02*
X6047D01*
Y86047D01*
X13953D01*
Y93953D01*
D02*
G37*
G36*
X255000Y125296D02*
X254276Y125200D01*
X253602Y124921D01*
X253023Y124477D01*
X252579Y123898D01*
X252300Y123224D01*
X252204Y122500D01*
X252300Y121776D01*
X252579Y121102D01*
X253023Y120523D01*
X253471Y120180D01*
Y110634D01*
X246496Y103659D01*
X246032Y103851D01*
X245000Y103987D01*
X243968Y103851D01*
X243007Y103453D01*
X242181Y102819D01*
X241547Y101993D01*
X241149Y101032D01*
X241013Y100000D01*
X241149Y98968D01*
X241547Y98007D01*
X242181Y97181D01*
X243007Y96547D01*
X243968Y96149D01*
X245000Y96013D01*
X246032Y96149D01*
X246993Y96547D01*
X247819Y97181D01*
X248453Y98007D01*
X248851Y98968D01*
X248987Y100000D01*
X248851Y101032D01*
X248659Y101496D01*
X256081Y108919D01*
X256413Y109415D01*
X256529Y110000D01*
Y120180D01*
X256977Y120523D01*
X257421Y121102D01*
X257700Y121776D01*
X257796Y122500D01*
X257700Y123224D01*
X257421Y123898D01*
X256977Y124477D01*
X256398Y124921D01*
X255724Y125200D01*
X255000Y125296D01*
D02*
G37*
G36*
X33921Y109500D02*
X30500D01*
Y106079D01*
X31032Y106149D01*
X31993Y106547D01*
X32819Y107181D01*
X33453Y108007D01*
X33851Y108968D01*
X33921Y109500D01*
D02*
G37*
G36*
X29500D02*
X26079D01*
X26149Y108968D01*
X26547Y108007D01*
X27181Y107181D01*
X28007Y106547D01*
X28968Y106149D01*
X29500Y106079D01*
Y109500D01*
D02*
G37*
G36*
X170000Y113987D02*
X168968Y113851D01*
X168007Y113453D01*
X167181Y112819D01*
X166547Y111993D01*
X166149Y111032D01*
X166013Y110000D01*
X166149Y108968D01*
X166547Y108007D01*
X167181Y107181D01*
X168007Y106547D01*
X168968Y106149D01*
X170000Y106013D01*
X171032Y106149D01*
X171993Y106547D01*
X172819Y107181D01*
X173453Y108007D01*
X173851Y108968D01*
X173987Y110000D01*
X173851Y111032D01*
X173453Y111993D01*
X172819Y112819D01*
X171993Y113453D01*
X171032Y113851D01*
X170000Y113987D01*
D02*
G37*
G36*
X90000Y43987D02*
X88968Y43851D01*
X88007Y43453D01*
X87181Y42819D01*
X86547Y41993D01*
X86149Y41032D01*
X86013Y40000D01*
X86149Y38968D01*
X86547Y38007D01*
X87181Y37181D01*
X88007Y36547D01*
X88968Y36149D01*
X90000Y36013D01*
X91032Y36149D01*
X91993Y36547D01*
X92819Y37181D01*
X93453Y38007D01*
X93851Y38968D01*
X93987Y40000D01*
X93851Y41032D01*
X93453Y41993D01*
X92819Y42819D01*
X91993Y43453D01*
X91032Y43851D01*
X90000Y43987D01*
D02*
G37*
G36*
X75000Y42796D02*
X74276Y42700D01*
X73602Y42421D01*
X73023Y41977D01*
X72579Y41398D01*
X72300Y40724D01*
X72204Y40000D01*
X72300Y39276D01*
X72579Y38602D01*
X73023Y38023D01*
X73471Y37680D01*
Y32748D01*
X72997Y32587D01*
X72819Y32819D01*
X71993Y33453D01*
X71032Y33851D01*
X70000Y33987D01*
X68968Y33851D01*
X68007Y33453D01*
X67181Y32819D01*
X67003Y32587D01*
X66529Y32748D01*
Y37680D01*
X66977Y38023D01*
X67421Y38602D01*
X67700Y39276D01*
X67796Y40000D01*
X67700Y40724D01*
X67421Y41398D01*
X66977Y41977D01*
X66398Y42421D01*
X65724Y42700D01*
X65000Y42796D01*
X64276Y42700D01*
X63602Y42421D01*
X63023Y41977D01*
X62579Y41398D01*
X62300Y40724D01*
X62204Y40000D01*
X62300Y39276D01*
X62579Y38602D01*
X63023Y38023D01*
X63471Y37680D01*
Y32748D01*
X62997Y32587D01*
X62819Y32819D01*
X61993Y33453D01*
X61032Y33851D01*
X60000Y33987D01*
X58968Y33851D01*
X58007Y33453D01*
X57181Y32819D01*
X56547Y31993D01*
X56149Y31032D01*
X56013Y30000D01*
X56149Y28968D01*
X56547Y28007D01*
X57181Y27181D01*
X58007Y26547D01*
X58968Y26149D01*
X60000Y26013D01*
X61032Y26149D01*
X61993Y26547D01*
X62819Y27181D01*
X62997Y27413D01*
X63471Y27252D01*
Y15000D01*
X63587Y14415D01*
X63919Y13919D01*
X66341Y11496D01*
X66149Y11032D01*
X66013Y10000D01*
X66149Y8968D01*
X66547Y8007D01*
X67181Y7181D01*
X68007Y6547D01*
X68968Y6149D01*
X70000Y6013D01*
X71032Y6149D01*
X71993Y6547D01*
X72819Y7181D01*
X73453Y8007D01*
X73851Y8968D01*
X73987Y10000D01*
X73851Y11032D01*
X73453Y11993D01*
X72819Y12819D01*
X71993Y13453D01*
X71032Y13851D01*
X70000Y13987D01*
X68968Y13851D01*
X68504Y13659D01*
X66529Y15633D01*
Y27252D01*
X67003Y27413D01*
X67181Y27181D01*
X68007Y26547D01*
X68968Y26149D01*
X70000Y26013D01*
X71032Y26149D01*
X71993Y26547D01*
X72819Y27181D01*
X72997Y27413D01*
X73471Y27252D01*
Y15000D01*
X73587Y14415D01*
X73919Y13919D01*
X76341Y11496D01*
X76149Y11032D01*
X76013Y10000D01*
X76149Y8968D01*
X76547Y8007D01*
X77181Y7181D01*
X78007Y6547D01*
X78968Y6149D01*
X80000Y6013D01*
X81032Y6149D01*
X81993Y6547D01*
X82819Y7181D01*
X83453Y8007D01*
X83851Y8968D01*
X83987Y10000D01*
X83851Y11032D01*
X83453Y11993D01*
X82819Y12819D01*
X81993Y13453D01*
X81032Y13851D01*
X80000Y13987D01*
X78968Y13851D01*
X78504Y13659D01*
X76529Y15633D01*
Y27252D01*
X77003Y27413D01*
X77181Y27181D01*
X78007Y26547D01*
X78968Y26149D01*
X80000Y26013D01*
X81032Y26149D01*
X81993Y26547D01*
X82819Y27181D01*
X83453Y28007D01*
X83851Y28968D01*
X83987Y30000D01*
X83851Y31032D01*
X83453Y31993D01*
X82819Y32819D01*
X81993Y33453D01*
X81032Y33851D01*
X80000Y33987D01*
X78968Y33851D01*
X78007Y33453D01*
X77181Y32819D01*
X77003Y32587D01*
X76529Y32748D01*
Y37680D01*
X76977Y38023D01*
X77421Y38602D01*
X77700Y39276D01*
X77796Y40000D01*
X77700Y40724D01*
X77421Y41398D01*
X76977Y41977D01*
X76398Y42421D01*
X75724Y42700D01*
X75000Y42796D01*
D02*
G37*
G36*
X90000Y33987D02*
X88968Y33851D01*
X88007Y33453D01*
X87181Y32819D01*
X86547Y31993D01*
X86149Y31032D01*
X86013Y30000D01*
X86149Y28968D01*
X86547Y28007D01*
X87181Y27181D01*
X88007Y26547D01*
X88968Y26149D01*
X90000Y26013D01*
X91032Y26149D01*
X91993Y26547D01*
X92819Y27181D01*
X93453Y28007D01*
X93851Y28968D01*
X93987Y30000D01*
X93851Y31032D01*
X93453Y31993D01*
X92819Y32819D01*
X91993Y33453D01*
X91032Y33851D01*
X90000Y33987D01*
D02*
G37*
G36*
X9500Y39500D02*
X6079D01*
X6149Y38968D01*
X6547Y38007D01*
X7181Y37181D01*
X8007Y36547D01*
X8968Y36149D01*
X9500Y36079D01*
Y39500D01*
D02*
G37*
G36*
X290000Y53987D02*
X288968Y53851D01*
X288007Y53453D01*
X287181Y52819D01*
X286547Y51993D01*
X286149Y51032D01*
X286013Y50000D01*
X286149Y48968D01*
X286547Y48007D01*
X287181Y47181D01*
X288007Y46547D01*
X288968Y46149D01*
X290000Y46013D01*
X291032Y46149D01*
X291496Y46341D01*
X294455Y43382D01*
Y40268D01*
X294186Y40250D01*
Y40250D01*
X293956Y40235D01*
X293851Y41032D01*
X293453Y41993D01*
X292819Y42819D01*
X291993Y43453D01*
X291032Y43851D01*
X290000Y43987D01*
X288968Y43851D01*
X288007Y43453D01*
X287181Y42819D01*
X286547Y41993D01*
X286355Y41529D01*
X285000D01*
X284415Y41413D01*
X283919Y41081D01*
X278919Y36081D01*
X278587Y35585D01*
X278471Y35000D01*
Y28133D01*
X267099Y16762D01*
X237732D01*
X237147Y16645D01*
X236651Y16314D01*
X229366Y9029D01*
X217004D01*
X216843Y9503D01*
X217496Y10004D01*
X218057Y10735D01*
X218410Y11586D01*
X218530Y12500D01*
X218410Y13414D01*
X218057Y14265D01*
X217496Y14996D01*
X216765Y15557D01*
X215914Y15910D01*
X215000Y16030D01*
X214086Y15910D01*
X213235Y15557D01*
X212504Y14996D01*
X211943Y14265D01*
X211590Y13414D01*
X211470Y12500D01*
X211590Y11586D01*
X211943Y10735D01*
X212504Y10004D01*
X213157Y9503D01*
X212996Y9029D01*
X207004D01*
X206843Y9503D01*
X207496Y10004D01*
X208057Y10735D01*
X208410Y11586D01*
X208530Y12500D01*
X208410Y13414D01*
X208057Y14265D01*
X207496Y14996D01*
X206765Y15557D01*
X205914Y15910D01*
X205000Y16030D01*
X204086Y15910D01*
X203235Y15557D01*
X202504Y14996D01*
X201943Y14265D01*
X201590Y13414D01*
X201470Y12500D01*
X201590Y11586D01*
X201943Y10735D01*
X202504Y10004D01*
X203157Y9503D01*
X202996Y9029D01*
X197004D01*
X196843Y9503D01*
X197496Y10004D01*
X198057Y10735D01*
X198410Y11586D01*
X198530Y12500D01*
X198410Y13414D01*
X198057Y14265D01*
X197496Y14996D01*
X196765Y15557D01*
X195914Y15910D01*
X195000Y16030D01*
X194086Y15910D01*
X193235Y15557D01*
X192504Y14996D01*
X191943Y14265D01*
X191590Y13414D01*
X191470Y12500D01*
X191590Y11586D01*
X191943Y10735D01*
X192504Y10004D01*
X193157Y9503D01*
X192996Y9029D01*
X160634D01*
X156529Y13134D01*
Y25180D01*
X156977Y25523D01*
X157421Y26102D01*
X157700Y26776D01*
X157796Y27500D01*
X157700Y28224D01*
X157421Y28898D01*
X156977Y29477D01*
X156398Y29921D01*
X155724Y30200D01*
X155000Y30296D01*
X154276Y30200D01*
X153602Y29921D01*
X153023Y29477D01*
X152579Y28898D01*
X152300Y28224D01*
X152204Y27500D01*
X152221Y27371D01*
X151788Y27121D01*
X151398Y27421D01*
X150724Y27700D01*
X150000Y27796D01*
X149276Y27700D01*
X148602Y27421D01*
X148023Y26977D01*
X147579Y26398D01*
X147300Y25724D01*
X147204Y25000D01*
X147300Y24276D01*
X147579Y23602D01*
X148023Y23023D01*
X148471Y22680D01*
Y10000D01*
X148587Y9415D01*
X148919Y8919D01*
X153919Y3919D01*
X154415Y3587D01*
X155000Y3471D01*
X232500D01*
X233085Y3587D01*
X233581Y3919D01*
X240634Y10971D01*
X253873D01*
X253971Y10480D01*
X253523Y10295D01*
X252944Y9851D01*
X252500Y9272D01*
X252221Y8598D01*
X252191Y8374D01*
X257651D01*
X257622Y8598D01*
X257342Y9272D01*
X256898Y9851D01*
X256319Y10295D01*
X255872Y10480D01*
X255970Y10971D01*
X270000D01*
X270585Y11087D01*
X271081Y11419D01*
X283581Y23919D01*
X283913Y24415D01*
X284029Y25000D01*
Y31866D01*
X285585Y33422D01*
X286047Y33231D01*
Y26047D01*
X293953D01*
Y33953D01*
X293953Y33953D01*
X293953D01*
X293854Y34191D01*
X297066Y37403D01*
X297397Y37899D01*
X297514Y38484D01*
Y44016D01*
X297397Y44601D01*
X297066Y45097D01*
X293659Y48504D01*
X293851Y48968D01*
X293987Y50000D01*
X293851Y51032D01*
X293453Y51993D01*
X292819Y52819D01*
X291993Y53453D01*
X291032Y53851D01*
X290000Y53987D01*
D02*
G37*
G36*
X47500Y45296D02*
X46776Y45200D01*
X46102Y44921D01*
X45523Y44477D01*
X45079Y43898D01*
X44800Y43224D01*
X44704Y42500D01*
X44778Y41941D01*
X44466Y41629D01*
X44134Y41133D01*
X44018Y40547D01*
Y14018D01*
X43953Y13953D01*
X43664Y13953D01*
X43664Y13953D01*
Y13953D01*
X36047D01*
Y6047D01*
X43953D01*
Y6981D01*
X44431Y7126D01*
X44466Y7074D01*
X47621Y3919D01*
X48118Y3587D01*
X48703Y3471D01*
X55000D01*
X55585Y3587D01*
X56081Y3919D01*
X58504Y6341D01*
X58968Y6149D01*
X60000Y6013D01*
X61032Y6149D01*
X61993Y6547D01*
X62819Y7181D01*
X63453Y8007D01*
X63851Y8968D01*
X63987Y10000D01*
X63851Y11032D01*
X63453Y11993D01*
X62819Y12819D01*
X61993Y13453D01*
X61032Y13851D01*
X60000Y13987D01*
X58968Y13851D01*
X58007Y13453D01*
X57181Y12819D01*
X56547Y11993D01*
X56149Y11032D01*
X56013Y10000D01*
X56149Y8968D01*
X56341Y8504D01*
X54366Y6529D01*
X52748D01*
X52587Y7003D01*
X52819Y7181D01*
X53453Y8007D01*
X53851Y8968D01*
X53987Y10000D01*
X53851Y11032D01*
X53453Y11993D01*
X52819Y12819D01*
X51993Y13453D01*
X51529Y13645D01*
Y36867D01*
X51941Y37278D01*
X52500Y37204D01*
X53224Y37300D01*
X53898Y37579D01*
X54477Y38023D01*
X54921Y38602D01*
X55200Y39276D01*
X55296Y40000D01*
X55200Y40724D01*
X54921Y41398D01*
X54477Y41977D01*
X53898Y42421D01*
X53224Y42700D01*
X52500Y42796D01*
X51776Y42700D01*
X51102Y42421D01*
X50712Y42121D01*
X50279Y42371D01*
X50296Y42500D01*
X50200Y43224D01*
X49921Y43898D01*
X49477Y44477D01*
X48898Y44921D01*
X48224Y45200D01*
X47500Y45296D01*
D02*
G37*
G36*
X13921Y39500D02*
X10500D01*
Y36079D01*
X11032Y36149D01*
X11993Y36547D01*
X12819Y37181D01*
X13453Y38007D01*
X13851Y38968D01*
X13921Y39500D01*
D02*
G37*
G36*
X90500Y13921D02*
Y10500D01*
X93921D01*
X93851Y11032D01*
X93453Y11993D01*
X92819Y12819D01*
X91993Y13453D01*
X91032Y13851D01*
X90500Y13921D01*
D02*
G37*
G36*
X254421Y7374D02*
X252191D01*
X252221Y7151D01*
X252500Y6476D01*
X252944Y5897D01*
X253523Y5453D01*
X254198Y5174D01*
X254421Y5144D01*
Y7374D01*
D02*
G37*
G36*
X288189Y22687D02*
X286488Y22553D01*
X284828Y22155D01*
X283251Y21502D01*
X281796Y20610D01*
X280499Y19502D01*
X279390Y18204D01*
X278498Y16749D01*
X277845Y15172D01*
X277447Y13512D01*
X277313Y11811D01*
X277447Y10110D01*
X277845Y8450D01*
X278498Y6873D01*
X279390Y5418D01*
X280499Y4121D01*
X281796Y3012D01*
X283251Y2120D01*
X284828Y1467D01*
X286488Y1069D01*
X288189Y935D01*
X289890Y1069D01*
X291550Y1467D01*
X293127Y2120D01*
X294582Y3012D01*
X295880Y4121D01*
X296988Y5418D01*
X297880Y6873D01*
X298533Y8450D01*
X298931Y10110D01*
X299065Y11811D01*
X298931Y13512D01*
X298533Y15172D01*
X297880Y16749D01*
X296988Y18204D01*
X295880Y19502D01*
X294582Y20610D01*
X293127Y21502D01*
X291550Y22155D01*
X289890Y22553D01*
X288189Y22687D01*
D02*
G37*
G36*
X11811D02*
X10110Y22553D01*
X8450Y22155D01*
X6873Y21502D01*
X5418Y20610D01*
X4121Y19502D01*
X3012Y18204D01*
X2120Y16749D01*
X1467Y15172D01*
X1069Y13512D01*
X935Y11811D01*
X1069Y10110D01*
X1467Y8450D01*
X2120Y6873D01*
X3012Y5418D01*
X4121Y4121D01*
X5418Y3012D01*
X6873Y2120D01*
X8450Y1467D01*
X10110Y1069D01*
X11811Y935D01*
X13512Y1069D01*
X15172Y1467D01*
X16749Y2120D01*
X18204Y3012D01*
X19502Y4121D01*
X20610Y5418D01*
X21502Y6873D01*
X22155Y8450D01*
X22553Y10110D01*
X22687Y11811D01*
X22553Y13512D01*
X22155Y15172D01*
X21502Y16749D01*
X20610Y18204D01*
X19502Y19502D01*
X18204Y20610D01*
X16749Y21502D01*
X15172Y22155D01*
X13512Y22553D01*
X11811Y22687D01*
D02*
G37*
G36*
X257651Y7374D02*
X255421D01*
Y5144D01*
X255645Y5174D01*
X256319Y5453D01*
X256898Y5897D01*
X257342Y6476D01*
X257622Y7151D01*
X257651Y7374D01*
D02*
G37*
G36*
X89500Y13921D02*
X88968Y13851D01*
X88007Y13453D01*
X87181Y12819D01*
X86547Y11993D01*
X86149Y11032D01*
X86079Y10500D01*
X89500D01*
Y13921D01*
D02*
G37*
G36*
X93921Y9500D02*
X90500D01*
Y6079D01*
X91032Y6149D01*
X91993Y6547D01*
X92819Y7181D01*
X93453Y8007D01*
X93851Y8968D01*
X93921Y9500D01*
D02*
G37*
G36*
X89500D02*
X86079D01*
X86149Y8968D01*
X86547Y8007D01*
X87181Y7181D01*
X88007Y6547D01*
X88968Y6149D01*
X89500Y6079D01*
Y9500D01*
D02*
G37*
G36*
X170000Y63987D02*
X168968Y63851D01*
X168007Y63453D01*
X167181Y62819D01*
X166547Y61993D01*
X166149Y61032D01*
X166013Y60000D01*
X166149Y58968D01*
X166547Y58007D01*
X167181Y57181D01*
X168007Y56547D01*
X168968Y56149D01*
X170000Y56013D01*
X171032Y56149D01*
X171993Y56547D01*
X172819Y57181D01*
X173453Y58007D01*
X173851Y58968D01*
X173987Y60000D01*
X173851Y61032D01*
X173453Y61993D01*
X172819Y62819D01*
X171993Y63453D01*
X171032Y63851D01*
X170000Y63987D01*
D02*
G37*
G36*
X255421Y52927D02*
Y50697D01*
X257651D01*
X257622Y50920D01*
X257342Y51595D01*
X256898Y52174D01*
X256319Y52618D01*
X255645Y52897D01*
X255421Y52927D01*
D02*
G37*
G36*
X254421D02*
X254198Y52897D01*
X253523Y52618D01*
X252944Y52174D01*
X252500Y51595D01*
X252221Y50920D01*
X252191Y50697D01*
X254421D01*
Y52927D01*
D02*
G37*
G36*
X10000Y63987D02*
X8968Y63851D01*
X8007Y63453D01*
X7181Y62819D01*
X6547Y61993D01*
X6149Y61032D01*
X6013Y60000D01*
X6149Y58968D01*
X6547Y58007D01*
X7181Y57181D01*
X8007Y56547D01*
X8968Y56149D01*
X10000Y56013D01*
X11032Y56149D01*
X11993Y56547D01*
X12819Y57181D01*
X13453Y58007D01*
X13851Y58968D01*
X13987Y60000D01*
X13851Y61032D01*
X13453Y61993D01*
X12819Y62819D01*
X11993Y63453D01*
X11032Y63851D01*
X10000Y63987D01*
D02*
G37*
G36*
X110000Y63987D02*
X108968Y63851D01*
X108007Y63453D01*
X107181Y62819D01*
X106547Y61993D01*
X106149Y61032D01*
X106013Y60000D01*
X106149Y58968D01*
X106547Y58007D01*
X107181Y57181D01*
X107413Y57003D01*
X107252Y56529D01*
X95634D01*
X93659Y58504D01*
X93851Y58968D01*
X93987Y60000D01*
X93851Y61032D01*
X93453Y61993D01*
X92819Y62819D01*
X91993Y63453D01*
X91032Y63851D01*
X90000Y63987D01*
X88968Y63851D01*
X88007Y63453D01*
X87181Y62819D01*
X86547Y61993D01*
X86149Y61032D01*
X86013Y60000D01*
X86149Y58968D01*
X86547Y58007D01*
X87181Y57181D01*
X88007Y56547D01*
X88968Y56149D01*
X90000Y56013D01*
X91032Y56149D01*
X91496Y56341D01*
X93919Y53919D01*
X94415Y53587D01*
X95000Y53471D01*
X107252D01*
X107413Y52997D01*
X107181Y52819D01*
X106547Y51993D01*
X106149Y51032D01*
X106013Y50000D01*
X106149Y48968D01*
X106547Y48007D01*
X107181Y47181D01*
X108007Y46547D01*
X108968Y46149D01*
X110000Y46013D01*
X111032Y46149D01*
X111993Y46547D01*
X112819Y47181D01*
X113453Y48007D01*
X113851Y48968D01*
X113987Y50000D01*
X113851Y51032D01*
X113453Y51993D01*
X112819Y52819D01*
X112587Y52997D01*
X112748Y53471D01*
X117680D01*
X118023Y53023D01*
X118602Y52579D01*
X119276Y52300D01*
X120000Y52204D01*
X120724Y52300D01*
X121398Y52579D01*
X121977Y53023D01*
X122421Y53602D01*
X122700Y54276D01*
X122796Y55000D01*
X122700Y55724D01*
X122421Y56398D01*
X121977Y56977D01*
X121398Y57421D01*
X120724Y57700D01*
X120000Y57796D01*
X119276Y57700D01*
X118602Y57421D01*
X118023Y56977D01*
X117680Y56529D01*
X112748D01*
X112587Y57003D01*
X112819Y57181D01*
X113453Y58007D01*
X113851Y58968D01*
X113987Y60000D01*
X113851Y61032D01*
X113453Y61993D01*
X112819Y62819D01*
X111993Y63453D01*
X111032Y63851D01*
X110000Y63987D01*
D02*
G37*
G36*
X293921Y59500D02*
X290500D01*
Y56079D01*
X291032Y56149D01*
X291993Y56547D01*
X292819Y57181D01*
X293453Y58007D01*
X293851Y58968D01*
X293921Y59500D01*
D02*
G37*
G36*
X289500D02*
X286079D01*
X286149Y58968D01*
X286547Y58007D01*
X287181Y57181D01*
X288007Y56547D01*
X288968Y56149D01*
X289500Y56079D01*
Y59500D01*
D02*
G37*
G36*
X257651Y49697D02*
X255421D01*
Y47467D01*
X255645Y47497D01*
X256319Y47776D01*
X256898Y48220D01*
X257342Y48799D01*
X257622Y49473D01*
X257651Y49697D01*
D02*
G37*
G36*
X222500Y55296D02*
X221777Y55200D01*
X221102Y54921D01*
X220523Y54477D01*
X220079Y53898D01*
X219800Y53224D01*
X219704Y52500D01*
X219800Y51776D01*
X220079Y51102D01*
X220523Y50523D01*
X220971Y50180D01*
Y43134D01*
X218599Y40762D01*
X218184Y41040D01*
X218410Y41586D01*
X218530Y42500D01*
X218410Y43414D01*
X218057Y44265D01*
X217496Y44996D01*
X216765Y45557D01*
X215914Y45910D01*
X215000Y46030D01*
X214086Y45910D01*
X213235Y45557D01*
X212504Y44996D01*
X211943Y44265D01*
X211590Y43414D01*
X211470Y42500D01*
X211590Y41586D01*
X211943Y40735D01*
X212504Y40004D01*
X213235Y39443D01*
X214086Y39090D01*
X215000Y38970D01*
X215914Y39090D01*
X216460Y39316D01*
X216738Y38901D01*
X214367Y36529D01*
X200634D01*
X197476Y39687D01*
X197496Y40004D01*
X198057Y40735D01*
X198410Y41586D01*
X198530Y42500D01*
X198410Y43414D01*
X198057Y44265D01*
X197496Y44996D01*
X196765Y45557D01*
X195914Y45910D01*
X195000Y46030D01*
X194086Y45910D01*
X193235Y45557D01*
X192504Y44996D01*
X191943Y44265D01*
X191590Y43414D01*
X191470Y42500D01*
X191590Y41586D01*
X191943Y40735D01*
X192504Y40004D01*
X193235Y39443D01*
X193696Y39252D01*
X193919Y38919D01*
X198919Y33919D01*
X199415Y33587D01*
X200000Y33471D01*
X215000D01*
X215585Y33587D01*
X216081Y33919D01*
X223581Y41419D01*
X223913Y41915D01*
X224029Y42500D01*
Y50180D01*
X224477Y50523D01*
X224921Y51102D01*
X225200Y51776D01*
X225296Y52500D01*
X225200Y53224D01*
X224921Y53898D01*
X224477Y54477D01*
X223898Y54921D01*
X223223Y55200D01*
X222500Y55296D01*
D02*
G37*
G36*
X10500Y43921D02*
Y40500D01*
X13921D01*
X13851Y41032D01*
X13453Y41993D01*
X12819Y42819D01*
X11993Y43453D01*
X11032Y43851D01*
X10500Y43921D01*
D02*
G37*
G36*
X9500D02*
X8968Y43851D01*
X8007Y43453D01*
X7181Y42819D01*
X6547Y41993D01*
X6149Y41032D01*
X6079Y40500D01*
X9500D01*
Y43921D01*
D02*
G37*
G36*
X90000Y53987D02*
X88968Y53851D01*
X88007Y53453D01*
X87181Y52819D01*
X86547Y51993D01*
X86149Y51032D01*
X86013Y50000D01*
X86149Y48968D01*
X86547Y48007D01*
X87181Y47181D01*
X88007Y46547D01*
X88968Y46149D01*
X90000Y46013D01*
X91032Y46149D01*
X91993Y46547D01*
X92819Y47181D01*
X93453Y48007D01*
X93851Y48968D01*
X93987Y50000D01*
X93851Y51032D01*
X93453Y51993D01*
X92819Y52819D01*
X91993Y53453D01*
X91032Y53851D01*
X90000Y53987D01*
D02*
G37*
G36*
X254421Y49697D02*
X252191D01*
X252221Y49473D01*
X252500Y48799D01*
X252944Y48220D01*
X253523Y47776D01*
X254198Y47497D01*
X254421Y47467D01*
Y49697D01*
D02*
G37*
G36*
X173953Y53953D02*
X166047D01*
Y46047D01*
X173953D01*
Y53953D01*
D02*
G37*
G36*
X10000Y53987D02*
X8968Y53851D01*
X8007Y53453D01*
X7181Y52819D01*
X6547Y51994D01*
X6149Y51032D01*
X6013Y50000D01*
X6149Y48968D01*
X6547Y48007D01*
X7181Y47181D01*
X8007Y46547D01*
X8968Y46149D01*
X10000Y46013D01*
X11032Y46149D01*
X11993Y46547D01*
X12819Y47181D01*
X13453Y48007D01*
X13851Y48968D01*
X13987Y50000D01*
X13851Y51032D01*
X13453Y51994D01*
X12819Y52819D01*
X11993Y53453D01*
X11032Y53851D01*
X10000Y53987D01*
D02*
G37*
G36*
X189500Y114388D02*
X189122Y114339D01*
X188304Y114000D01*
X187602Y113461D01*
X187063Y112759D01*
X186724Y111941D01*
X186675Y111563D01*
X189500D01*
Y114388D01*
D02*
G37*
G36*
X74500Y149500D02*
X71079D01*
X71149Y148968D01*
X71547Y148007D01*
X72181Y147181D01*
X73007Y146547D01*
X73968Y146149D01*
X74500Y146079D01*
Y149500D01*
D02*
G37*
G36*
X273953Y153953D02*
X266047D01*
Y146047D01*
X273953D01*
Y153953D01*
D02*
G37*
G36*
X203953D02*
X196047D01*
Y146047D01*
X203953D01*
Y153953D01*
D02*
G37*
G36*
X78921Y149500D02*
X75500D01*
Y146079D01*
X76032Y146149D01*
X76993Y146547D01*
X77819Y147181D01*
X78453Y148007D01*
X78851Y148968D01*
X78921Y149500D01*
D02*
G37*
G36*
X109500D02*
X106079D01*
X106149Y148968D01*
X106547Y148007D01*
X107181Y147181D01*
X108007Y146547D01*
X108968Y146149D01*
X109500Y146079D01*
Y149500D01*
D02*
G37*
G36*
X88921D02*
X85500D01*
Y146079D01*
X86032Y146149D01*
X86993Y146547D01*
X87819Y147181D01*
X88453Y148007D01*
X88851Y148968D01*
X88921Y149500D01*
D02*
G37*
G36*
X84500D02*
X81079D01*
X81149Y148968D01*
X81547Y148007D01*
X82181Y147181D01*
X83007Y146547D01*
X83968Y146149D01*
X84500Y146079D01*
Y149500D01*
D02*
G37*
G36*
X123953Y153953D02*
X116047D01*
Y146047D01*
X123953D01*
Y153953D01*
D02*
G37*
G36*
X55000Y153987D02*
X53968Y153851D01*
X53007Y153453D01*
X52181Y152819D01*
X51547Y151993D01*
X51149Y151032D01*
X51013Y150000D01*
X51149Y148968D01*
X51547Y148007D01*
X52181Y147181D01*
X53007Y146547D01*
X53968Y146149D01*
X55000Y146013D01*
X56032Y146149D01*
X56993Y146547D01*
X57819Y147181D01*
X58453Y148007D01*
X58851Y148968D01*
X58987Y150000D01*
X58851Y151032D01*
X58453Y151993D01*
X57819Y152819D01*
X56993Y153453D01*
X56032Y153851D01*
X55000Y153987D01*
D02*
G37*
G36*
X45000D02*
X43968Y153851D01*
X43007Y153453D01*
X42181Y152819D01*
X41547Y151993D01*
X41149Y151032D01*
X41013Y150000D01*
X41149Y148968D01*
X41547Y148007D01*
X42181Y147181D01*
X43007Y146547D01*
X43968Y146149D01*
X45000Y146013D01*
X46032Y146149D01*
X46993Y146547D01*
X47819Y147181D01*
X48453Y148007D01*
X48851Y148968D01*
X48987Y150000D01*
X48851Y151032D01*
X48453Y151993D01*
X47819Y152819D01*
X46993Y153453D01*
X46032Y153851D01*
X45000Y153987D01*
D02*
G37*
G36*
X35000D02*
X33968Y153851D01*
X33007Y153453D01*
X32181Y152819D01*
X31547Y151993D01*
X31149Y151032D01*
X31013Y150000D01*
X31149Y148968D01*
X31547Y148007D01*
X32181Y147181D01*
X33007Y146547D01*
X33968Y146149D01*
X35000Y146013D01*
X36032Y146149D01*
X36496Y146341D01*
X41419Y141419D01*
X41915Y141087D01*
X42500Y140971D01*
X47680D01*
X48023Y140523D01*
X48602Y140079D01*
X49276Y139800D01*
X50000Y139704D01*
X50724Y139800D01*
X51398Y140079D01*
X51977Y140523D01*
X52421Y141102D01*
X52700Y141776D01*
X52796Y142500D01*
X52700Y143224D01*
X52421Y143898D01*
X51977Y144477D01*
X51398Y144921D01*
X50724Y145200D01*
X50000Y145296D01*
X49276Y145200D01*
X48602Y144921D01*
X48023Y144477D01*
X47680Y144029D01*
X43134D01*
X38659Y148504D01*
X38851Y148968D01*
X38987Y150000D01*
X38851Y151032D01*
X38453Y151993D01*
X37819Y152819D01*
X36993Y153453D01*
X36032Y153851D01*
X35000Y153987D01*
D02*
G37*
G36*
X65000D02*
X63968Y153851D01*
X63007Y153453D01*
X62181Y152819D01*
X61547Y151993D01*
X61149Y151032D01*
X61013Y150000D01*
X61149Y148968D01*
X61547Y148007D01*
X62181Y147181D01*
X63007Y146547D01*
X63968Y146149D01*
X65000Y146013D01*
X66032Y146149D01*
X66993Y146547D01*
X67819Y147181D01*
X68453Y148007D01*
X68851Y148968D01*
X68987Y150000D01*
X68851Y151032D01*
X68453Y151993D01*
X67819Y152819D01*
X66993Y153453D01*
X66032Y153851D01*
X65000Y153987D01*
D02*
G37*
G36*
X260000D02*
X258968Y153851D01*
X258007Y153453D01*
X257181Y152819D01*
X256547Y151993D01*
X256149Y151032D01*
X256013Y150000D01*
X256149Y148968D01*
X256547Y148007D01*
X257181Y147181D01*
X258007Y146547D01*
X258968Y146149D01*
X260000Y146013D01*
X261032Y146149D01*
X261993Y146547D01*
X262819Y147181D01*
X263453Y148007D01*
X263851Y148968D01*
X263987Y150000D01*
X263851Y151032D01*
X263453Y151993D01*
X262819Y152819D01*
X261993Y153453D01*
X261032Y153851D01*
X260000Y153987D01*
D02*
G37*
G36*
X250000D02*
X248968Y153851D01*
X248007Y153453D01*
X247181Y152819D01*
X246547Y151993D01*
X246149Y151032D01*
X246013Y150000D01*
X246149Y148968D01*
X246547Y148007D01*
X247181Y147181D01*
X248007Y146547D01*
X248968Y146149D01*
X250000Y146013D01*
X251032Y146149D01*
X251993Y146547D01*
X252819Y147181D01*
X253453Y148007D01*
X253851Y148968D01*
X253987Y150000D01*
X253851Y151032D01*
X253453Y151993D01*
X252819Y152819D01*
X251993Y153453D01*
X251032Y153851D01*
X250000Y153987D01*
D02*
G37*
G36*
X230000D02*
X228968Y153851D01*
X228007Y153453D01*
X227181Y152819D01*
X226547Y151993D01*
X226149Y151032D01*
X226013Y150000D01*
X226149Y148968D01*
X226547Y148007D01*
X227181Y147181D01*
X228007Y146547D01*
X228968Y146149D01*
X230000Y146013D01*
X231032Y146149D01*
X231993Y146547D01*
X232819Y147181D01*
X233453Y148007D01*
X233851Y148968D01*
X233987Y150000D01*
X233851Y151032D01*
X233453Y151993D01*
X232819Y152819D01*
X231993Y153453D01*
X231032Y153851D01*
X230000Y153987D01*
D02*
G37*
G36*
X110500Y153921D02*
Y150500D01*
X113921D01*
X113851Y151032D01*
X113453Y151993D01*
X112819Y152819D01*
X111993Y153453D01*
X111032Y153851D01*
X110500Y153921D01*
D02*
G37*
G36*
X109500D02*
X108968Y153851D01*
X108007Y153453D01*
X107181Y152819D01*
X106547Y151993D01*
X106149Y151032D01*
X106079Y150500D01*
X109500D01*
Y153921D01*
D02*
G37*
G36*
X85500D02*
Y150500D01*
X88921D01*
X88851Y151032D01*
X88453Y151993D01*
X87819Y152819D01*
X86993Y153453D01*
X86032Y153851D01*
X85500Y153921D01*
D02*
G37*
G36*
X189500D02*
X188968Y153851D01*
X188007Y153453D01*
X187181Y152819D01*
X186547Y151993D01*
X186149Y151032D01*
X186079Y150500D01*
X189500D01*
Y153921D01*
D02*
G37*
G36*
X220500D02*
Y150500D01*
X223921D01*
X223851Y151032D01*
X223453Y151993D01*
X222819Y152819D01*
X221993Y153453D01*
X221032Y153851D01*
X220500Y153921D01*
D02*
G37*
G36*
X219500D02*
X218968Y153851D01*
X218007Y153453D01*
X217181Y152819D01*
X216547Y151993D01*
X216149Y151032D01*
X216079Y150500D01*
X219500D01*
Y153921D01*
D02*
G37*
G36*
X190500D02*
Y150500D01*
X193921D01*
X193851Y151032D01*
X193453Y151993D01*
X192819Y152819D01*
X191993Y153453D01*
X191032Y153851D01*
X190500Y153921D01*
D02*
G37*
G36*
X84500D02*
X83968Y153851D01*
X83007Y153453D01*
X82181Y152819D01*
X81547Y151993D01*
X81149Y151032D01*
X81079Y150500D01*
X84500D01*
Y153921D01*
D02*
G37*
G36*
X193921Y149500D02*
X190500D01*
Y146079D01*
X191032Y146149D01*
X191993Y146547D01*
X192819Y147181D01*
X193453Y148007D01*
X193851Y148968D01*
X193921Y149500D01*
D02*
G37*
G36*
X189500D02*
X186079D01*
X186149Y148968D01*
X186547Y148007D01*
X187181Y147181D01*
X188007Y146547D01*
X188968Y146149D01*
X189500Y146079D01*
Y149500D01*
D02*
G37*
G36*
X113921D02*
X110500D01*
Y146079D01*
X111032Y146149D01*
X111993Y146547D01*
X112819Y147181D01*
X113453Y148007D01*
X113851Y148968D01*
X113921Y149500D01*
D02*
G37*
G36*
X219500D02*
X216079D01*
X216149Y148968D01*
X216547Y148007D01*
X217181Y147181D01*
X218007Y146547D01*
X218968Y146149D01*
X219500Y146079D01*
Y149500D01*
D02*
G37*
G36*
X75500Y153921D02*
Y150500D01*
X78921D01*
X78851Y151032D01*
X78453Y151993D01*
X77819Y152819D01*
X76993Y153453D01*
X76032Y153851D01*
X75500Y153921D01*
D02*
G37*
G36*
X74500D02*
X73968Y153851D01*
X73007Y153453D01*
X72181Y152819D01*
X71547Y151993D01*
X71149Y151032D01*
X71079Y150500D01*
X74500D01*
Y153921D01*
D02*
G37*
G36*
X223921Y149500D02*
X220500D01*
Y146079D01*
X221032Y146149D01*
X221993Y146547D01*
X222819Y147181D01*
X223453Y148007D01*
X223851Y148968D01*
X223921Y149500D01*
D02*
G37*
G36*
X238953Y119500D02*
X235500D01*
Y116047D01*
X238953D01*
Y119500D01*
D02*
G37*
G36*
X234500D02*
X231047D01*
Y116047D01*
X234500D01*
Y119500D01*
D02*
G37*
G36*
X170000Y123987D02*
X168968Y123851D01*
X168007Y123453D01*
X167181Y122819D01*
X166547Y121993D01*
X166149Y121032D01*
X166013Y120000D01*
X166149Y118968D01*
X166547Y118007D01*
X167181Y117181D01*
X168007Y116547D01*
X168968Y116149D01*
X170000Y116013D01*
X171032Y116149D01*
X171993Y116547D01*
X172819Y117181D01*
X173453Y118007D01*
X173851Y118968D01*
X173987Y120000D01*
X173851Y121032D01*
X173453Y121993D01*
X172819Y122819D01*
X171993Y123453D01*
X171032Y123851D01*
X170000Y123987D01*
D02*
G37*
G36*
X13953Y123953D02*
X6047D01*
Y116047D01*
X13953D01*
Y123953D01*
D02*
G37*
G36*
X238953Y123953D02*
X235500D01*
Y120500D01*
X238953D01*
Y123953D01*
D02*
G37*
G36*
X234500D02*
X231047D01*
Y120500D01*
X234500D01*
Y123953D01*
D02*
G37*
G36*
X110000Y123987D02*
X108968Y123851D01*
X108007Y123453D01*
X107181Y122819D01*
X106547Y121993D01*
X106149Y121032D01*
X106013Y120000D01*
X106149Y118968D01*
X106547Y118007D01*
X107181Y117181D01*
X107413Y117003D01*
X107252Y116529D01*
X92748D01*
X92587Y117003D01*
X92819Y117181D01*
X93453Y118007D01*
X93851Y118968D01*
X93987Y120000D01*
X93851Y121032D01*
X93453Y121993D01*
X92819Y122819D01*
X91993Y123453D01*
X91032Y123851D01*
X90000Y123987D01*
X88968Y123851D01*
X88007Y123453D01*
X87181Y122819D01*
X86547Y121993D01*
X86149Y121032D01*
X86013Y120000D01*
X86149Y118968D01*
X86547Y118007D01*
X87181Y117181D01*
X87440Y116982D01*
X87327Y116495D01*
X86915Y116413D01*
X86419Y116081D01*
X79221Y108884D01*
X78968Y108851D01*
X78007Y108453D01*
X77181Y107819D01*
X76547Y106993D01*
X76149Y106032D01*
X76013Y105000D01*
X76149Y103968D01*
X76547Y103007D01*
X77181Y102181D01*
X78007Y101547D01*
X78968Y101149D01*
X80000Y101013D01*
X80784Y101116D01*
X81005Y100668D01*
X79221Y98884D01*
X78968Y98851D01*
X78007Y98453D01*
X77181Y97819D01*
X76547Y96993D01*
X76149Y96032D01*
X76013Y95000D01*
X76149Y93968D01*
X76547Y93007D01*
X77181Y92181D01*
X78007Y91547D01*
X78968Y91149D01*
X80000Y91013D01*
X81032Y91149D01*
X81993Y91547D01*
X82819Y92181D01*
X83453Y93007D01*
X83851Y93968D01*
X83987Y95000D01*
X83851Y96032D01*
X83453Y96993D01*
X82819Y97819D01*
X82798Y98136D01*
X85668Y101005D01*
X86116Y100784D01*
X86013Y100000D01*
X86149Y98968D01*
X86547Y98007D01*
X87181Y97181D01*
X88007Y96547D01*
X88968Y96149D01*
X90000Y96013D01*
X91032Y96149D01*
X91993Y96547D01*
X92819Y97181D01*
X93453Y98007D01*
X93851Y98968D01*
X93987Y100000D01*
X93851Y101032D01*
X93453Y101993D01*
X92819Y102819D01*
X92587Y102997D01*
X92748Y103471D01*
X107252D01*
X107413Y102997D01*
X107181Y102819D01*
X106547Y101993D01*
X106149Y101032D01*
X106013Y100000D01*
X106149Y98968D01*
X106547Y98007D01*
X107181Y97181D01*
X108007Y96547D01*
X108968Y96149D01*
X110000Y96013D01*
X111032Y96149D01*
X111993Y96547D01*
X112819Y97181D01*
X113453Y98007D01*
X113851Y98968D01*
X113987Y100000D01*
X113851Y101032D01*
X113453Y101993D01*
X112819Y102819D01*
X112587Y102997D01*
X112748Y103471D01*
X115000D01*
X115585Y103587D01*
X116081Y103919D01*
X118800Y106637D01*
X119273Y106476D01*
X119300Y106276D01*
X119579Y105602D01*
X120023Y105023D01*
X120471Y104680D01*
Y102634D01*
X111496Y93659D01*
X111032Y93851D01*
X110000Y93987D01*
X108968Y93851D01*
X108007Y93453D01*
X107181Y92819D01*
X106547Y91993D01*
X106149Y91032D01*
X106013Y90000D01*
X106149Y88968D01*
X106547Y88007D01*
X107181Y87181D01*
X108007Y86547D01*
X108968Y86149D01*
X110000Y86013D01*
X111032Y86149D01*
X111993Y86547D01*
X112819Y87181D01*
X113453Y88007D01*
X113851Y88968D01*
X113987Y90000D01*
X113851Y91032D01*
X113659Y91496D01*
X123081Y100919D01*
X123413Y101415D01*
X123529Y102000D01*
Y104680D01*
X123977Y105023D01*
X124421Y105602D01*
X124700Y106276D01*
X124796Y107000D01*
X124739Y107428D01*
X125188Y107650D01*
X125971Y106867D01*
Y77500D01*
X126087Y76915D01*
X126419Y76419D01*
X148471Y54366D01*
Y49820D01*
X148023Y49477D01*
X147579Y48898D01*
X147300Y48224D01*
X147204Y47500D01*
X147300Y46776D01*
X147579Y46102D01*
X148023Y45523D01*
X148602Y45079D01*
X149276Y44800D01*
X150000Y44704D01*
X150724Y44800D01*
X151398Y45079D01*
X151977Y45523D01*
X152421Y46102D01*
X152700Y46776D01*
X152796Y47500D01*
X152779Y47629D01*
X153212Y47879D01*
X153602Y47579D01*
X154276Y47300D01*
X155000Y47204D01*
X155724Y47300D01*
X156398Y47579D01*
X156977Y48023D01*
X157421Y48602D01*
X157700Y49276D01*
X157796Y50000D01*
X157700Y50724D01*
X157421Y51398D01*
X156977Y51977D01*
X156529Y52320D01*
Y55000D01*
X156413Y55585D01*
X156081Y56081D01*
X131529Y80633D01*
Y110000D01*
X131413Y110585D01*
X131081Y111081D01*
X126081Y116081D01*
X125585Y116413D01*
X125000Y116529D01*
X112748D01*
X112587Y117003D01*
X112819Y117181D01*
X113453Y118007D01*
X113851Y118968D01*
X113987Y120000D01*
X113851Y121032D01*
X113453Y121993D01*
X112819Y122819D01*
X111993Y123453D01*
X111032Y123851D01*
X110000Y123987D01*
D02*
G37*
G36*
X30000D02*
X28968Y123851D01*
X28007Y123453D01*
X27181Y122819D01*
X26547Y121993D01*
X26149Y121032D01*
X26013Y120000D01*
X26149Y118968D01*
X26547Y118007D01*
X27181Y117181D01*
X28007Y116547D01*
X28968Y116149D01*
X30000Y116013D01*
X31032Y116149D01*
X31993Y116547D01*
X32819Y117181D01*
X33453Y118007D01*
X33851Y118968D01*
X33987Y120000D01*
X33851Y121032D01*
X33453Y121993D01*
X32819Y122819D01*
X31993Y123453D01*
X31032Y123851D01*
X30000Y123987D01*
D02*
G37*
G36*
X218437Y114500D02*
X215612D01*
X215661Y114122D01*
X216000Y113304D01*
X216539Y112602D01*
X217241Y112063D01*
X218059Y111724D01*
X218437Y111675D01*
Y114500D01*
D02*
G37*
G36*
X214425Y118362D02*
X207701D01*
Y111638D01*
X214425D01*
Y118362D01*
D02*
G37*
G36*
X190500Y114388D02*
Y111563D01*
X193325D01*
X193276Y111941D01*
X192937Y112759D01*
X192398Y113461D01*
X191696Y114000D01*
X190878Y114339D01*
X190500Y114388D01*
D02*
G37*
G36*
X222262Y114500D02*
X219437D01*
Y111675D01*
X219815Y111724D01*
X220633Y112063D01*
X221335Y112602D01*
X221874Y113304D01*
X222213Y114122D01*
X222262Y114500D01*
D02*
G37*
G36*
X193362Y122299D02*
X186638D01*
Y115575D01*
X193362D01*
Y122299D01*
D02*
G37*
G36*
X219437Y118325D02*
Y115500D01*
X222262D01*
X222213Y115878D01*
X221874Y116696D01*
X221335Y117398D01*
X220633Y117937D01*
X219815Y118276D01*
X219437Y118325D01*
D02*
G37*
G36*
X218437D02*
X218059Y118276D01*
X217241Y117937D01*
X216539Y117398D01*
X216000Y116696D01*
X215661Y115878D01*
X215612Y115500D01*
X218437D01*
Y118325D01*
D02*
G37*
G36*
X170500Y133921D02*
Y130500D01*
X173921D01*
X173851Y131032D01*
X173453Y131993D01*
X172819Y132819D01*
X171993Y133453D01*
X171032Y133851D01*
X170500Y133921D01*
D02*
G37*
G36*
X169500D02*
X168968Y133851D01*
X168007Y133453D01*
X167181Y132819D01*
X166547Y131993D01*
X166149Y131032D01*
X166079Y130500D01*
X169500D01*
Y133921D01*
D02*
G37*
G36*
X90500D02*
Y130500D01*
X93921D01*
X93851Y131032D01*
X93453Y131993D01*
X92819Y132819D01*
X91993Y133453D01*
X91032Y133851D01*
X90500Y133921D01*
D02*
G37*
G36*
X33953Y143953D02*
X26047D01*
Y136047D01*
X33953D01*
Y143953D01*
D02*
G37*
G36*
X288189Y159065D02*
X286488Y158931D01*
X284828Y158533D01*
X283251Y157880D01*
X281796Y156988D01*
X280499Y155879D01*
X279390Y154582D01*
X278498Y153127D01*
X277845Y151550D01*
X277447Y149890D01*
X277313Y148189D01*
X277447Y146488D01*
X277845Y144828D01*
X278498Y143251D01*
X279390Y141796D01*
X280499Y140498D01*
X281796Y139390D01*
X283251Y138498D01*
X284828Y137845D01*
X286488Y137447D01*
X288189Y137313D01*
X289890Y137447D01*
X291550Y137845D01*
X293127Y138498D01*
X294582Y139390D01*
X295880Y140498D01*
X296988Y141796D01*
X297880Y143251D01*
X298533Y144828D01*
X298931Y146488D01*
X299065Y148189D01*
X298931Y149890D01*
X298533Y151550D01*
X297880Y153127D01*
X296988Y154582D01*
X295880Y155879D01*
X294582Y156988D01*
X293127Y157880D01*
X291550Y158533D01*
X289890Y158931D01*
X288189Y159065D01*
D02*
G37*
G36*
X11811D02*
X10110Y158931D01*
X8450Y158533D01*
X6873Y157880D01*
X5418Y156988D01*
X4121Y155879D01*
X3012Y154582D01*
X2120Y153127D01*
X1467Y151550D01*
X1069Y149890D01*
X935Y148189D01*
X1069Y146488D01*
X1467Y144828D01*
X2120Y143251D01*
X3012Y141796D01*
X4121Y140498D01*
X5418Y139390D01*
X6873Y138498D01*
X8450Y137845D01*
X10110Y137447D01*
X11811Y137313D01*
X13512Y137447D01*
X15172Y137845D01*
X16749Y138498D01*
X18204Y139390D01*
X19502Y140498D01*
X20610Y141796D01*
X21502Y143251D01*
X22155Y144828D01*
X22553Y146488D01*
X22687Y148189D01*
X22553Y149890D01*
X22155Y151550D01*
X21502Y153127D01*
X20610Y154582D01*
X19502Y155879D01*
X18204Y156988D01*
X16749Y157880D01*
X15172Y158533D01*
X13512Y158931D01*
X11811Y159065D01*
D02*
G37*
G36*
X93953Y143953D02*
X86047D01*
Y136047D01*
X93953D01*
Y143953D01*
D02*
G37*
G36*
X89500Y133921D02*
X88968Y133851D01*
X88007Y133453D01*
X87181Y132819D01*
X86547Y131993D01*
X86149Y131032D01*
X86079Y130500D01*
X89500D01*
Y133921D01*
D02*
G37*
G36*
X110000Y133987D02*
X108968Y133851D01*
X108007Y133453D01*
X107181Y132819D01*
X106547Y131993D01*
X106149Y131032D01*
X106013Y130000D01*
X106149Y128968D01*
X106547Y128007D01*
X107181Y127181D01*
X108007Y126547D01*
X108968Y126149D01*
X110000Y126013D01*
X111032Y126149D01*
X111993Y126547D01*
X112819Y127181D01*
X113453Y128007D01*
X113851Y128968D01*
X113987Y130000D01*
X113851Y131032D01*
X113453Y131993D01*
X112819Y132819D01*
X111993Y133453D01*
X111032Y133851D01*
X110000Y133987D01*
D02*
G37*
G36*
X30000D02*
X28968Y133851D01*
X28007Y133453D01*
X27181Y132819D01*
X26547Y131993D01*
X26149Y131032D01*
X26013Y130000D01*
X26149Y128968D01*
X26547Y128007D01*
X27181Y127181D01*
X28007Y126547D01*
X28968Y126149D01*
X30000Y126013D01*
X31032Y126149D01*
X31993Y126547D01*
X32819Y127181D01*
X33453Y128007D01*
X33851Y128968D01*
X33987Y130000D01*
X33851Y131032D01*
X33453Y131993D01*
X32819Y132819D01*
X31993Y133453D01*
X31032Y133851D01*
X30000Y133987D01*
D02*
G37*
G36*
X240000Y153987D02*
X238968Y153851D01*
X238007Y153453D01*
X237181Y152819D01*
X236547Y151993D01*
X236149Y151032D01*
X236013Y150000D01*
X236149Y148968D01*
X236547Y148007D01*
X237181Y147181D01*
X238007Y146547D01*
X238968Y146149D01*
X240000Y146013D01*
X241032Y146149D01*
X241496Y146341D01*
X248525Y139312D01*
Y122677D01*
X248051Y122517D01*
X247819Y122819D01*
X246993Y123453D01*
X246032Y123851D01*
X245000Y123987D01*
X243968Y123851D01*
X243007Y123453D01*
X242181Y122819D01*
X241547Y121993D01*
X241149Y121032D01*
X241013Y120000D01*
X241149Y118968D01*
X241547Y118007D01*
X242181Y117181D01*
X242440Y116982D01*
X242327Y116495D01*
X242012Y116432D01*
X241915Y116413D01*
X241419Y116081D01*
X238919Y113581D01*
X238587Y113085D01*
X238505Y112673D01*
X238018Y112560D01*
X237819Y112819D01*
X236993Y113453D01*
X236032Y113851D01*
X235000Y113987D01*
X233968Y113851D01*
X233007Y113453D01*
X232181Y112819D01*
X231547Y111993D01*
X231149Y111032D01*
X231013Y110000D01*
X231149Y108968D01*
X231547Y108007D01*
X232181Y107181D01*
X232440Y106982D01*
X232327Y106495D01*
X232012Y106432D01*
X231915Y106413D01*
X231419Y106081D01*
X228919Y103581D01*
X228587Y103085D01*
X228471Y102500D01*
Y95000D01*
X228587Y94415D01*
X228919Y93919D01*
X231341Y91496D01*
X231149Y91032D01*
X231013Y90000D01*
X231149Y88968D01*
X231547Y88007D01*
X232181Y87181D01*
X233007Y86547D01*
X233968Y86149D01*
X235000Y86013D01*
X236032Y86149D01*
X236993Y86547D01*
X237819Y87181D01*
X237997Y87413D01*
X238471Y87252D01*
Y82320D01*
X238023Y81977D01*
X237579Y81398D01*
X237300Y80724D01*
X237204Y80000D01*
X237300Y79276D01*
X237579Y78602D01*
X238023Y78023D01*
X238602Y77579D01*
X239277Y77300D01*
X240000Y77204D01*
X240723Y77300D01*
X241398Y77579D01*
X241977Y78023D01*
X242421Y78602D01*
X242700Y79276D01*
X242796Y80000D01*
X242700Y80724D01*
X242421Y81398D01*
X241977Y81977D01*
X241529Y82320D01*
Y87252D01*
X242003Y87413D01*
X242181Y87181D01*
X243007Y86547D01*
X243471Y86355D01*
Y78133D01*
X228200Y62863D01*
X227727Y63024D01*
X227700Y63224D01*
X227421Y63898D01*
X226977Y64477D01*
X226398Y64921D01*
X225724Y65200D01*
X225000Y65296D01*
X224871Y65279D01*
X224621Y65712D01*
X224921Y66102D01*
X225200Y66776D01*
X225296Y67500D01*
X225200Y68224D01*
X224921Y68898D01*
X224523Y69416D01*
Y72500D01*
X224369Y73274D01*
X223931Y73931D01*
X196431Y101431D01*
X195774Y101869D01*
X195000Y102023D01*
X173430D01*
X172819Y102819D01*
X171993Y103453D01*
X171032Y103851D01*
X170000Y103987D01*
X168968Y103851D01*
X168007Y103453D01*
X167181Y102819D01*
X166547Y101993D01*
X166149Y101032D01*
X166013Y100000D01*
X166149Y98968D01*
X166547Y98007D01*
X167181Y97181D01*
X167413Y97003D01*
X167252Y96529D01*
X164820D01*
X164477Y96977D01*
X163898Y97421D01*
X163224Y97700D01*
X162500Y97796D01*
X161776Y97700D01*
X161102Y97421D01*
X160523Y96977D01*
X160079Y96398D01*
X159800Y95724D01*
X159704Y95000D01*
X159800Y94276D01*
X160079Y93602D01*
X160523Y93023D01*
X161102Y92579D01*
X161776Y92300D01*
X162500Y92204D01*
X163224Y92300D01*
X163898Y92579D01*
X164477Y93023D01*
X164820Y93471D01*
X167252D01*
X167413Y92997D01*
X167181Y92819D01*
X166547Y91993D01*
X166149Y91032D01*
X166013Y90000D01*
X166149Y88968D01*
X166547Y88007D01*
X167181Y87181D01*
X168007Y86547D01*
X168968Y86149D01*
X170000Y86013D01*
X171032Y86149D01*
X171993Y86547D01*
X172819Y87181D01*
X173453Y88007D01*
X173851Y88968D01*
X173987Y90000D01*
X173851Y91032D01*
X173453Y91993D01*
X172819Y92819D01*
X172587Y92997D01*
X172748Y93471D01*
X190364D01*
X190776Y93300D01*
X191500Y93204D01*
X192224Y93300D01*
X192898Y93579D01*
X193477Y94023D01*
X193921Y94602D01*
X194200Y95276D01*
X194296Y96000D01*
X194200Y96724D01*
X193921Y97398D01*
X193821Y97528D01*
X193892Y97672D01*
X194385Y97754D01*
X220477Y71662D01*
Y69416D01*
X220079Y68898D01*
X219800Y68224D01*
X219704Y67500D01*
X219800Y66776D01*
X220079Y66102D01*
X220523Y65523D01*
X221102Y65079D01*
X221777Y64800D01*
X222500Y64704D01*
X222629Y64721D01*
X222725Y64555D01*
X222475Y64122D01*
X217500D01*
X216879Y63998D01*
X216353Y63647D01*
X209328Y56622D01*
X189749D01*
X189477Y56977D01*
X188898Y57421D01*
X188224Y57700D01*
X187500Y57796D01*
X186776Y57700D01*
X186102Y57421D01*
X185523Y56977D01*
X185079Y56398D01*
X184800Y55724D01*
X184704Y55000D01*
X184800Y54276D01*
X185079Y53602D01*
X185523Y53023D01*
X186102Y52579D01*
X186776Y52300D01*
X187500Y52204D01*
X188224Y52300D01*
X188898Y52579D01*
X189477Y53023D01*
X189749Y53378D01*
X210000D01*
X210621Y53502D01*
X211147Y53853D01*
X218172Y60878D01*
X222751D01*
X223023Y60523D01*
X223602Y60079D01*
X224276Y59800D01*
X224476Y59773D01*
X224591Y59436D01*
X224300Y59029D01*
X220000D01*
X219415Y58913D01*
X218919Y58581D01*
X206149Y45812D01*
X205914Y45910D01*
X205000Y46030D01*
X204086Y45910D01*
X203235Y45557D01*
X202504Y44996D01*
X201943Y44265D01*
X201590Y43414D01*
X201470Y42500D01*
X201590Y41586D01*
X201943Y40735D01*
X202504Y40004D01*
X203235Y39443D01*
X204086Y39090D01*
X205000Y38970D01*
X205914Y39090D01*
X206765Y39443D01*
X207496Y40004D01*
X208057Y40735D01*
X208410Y41586D01*
X208530Y42500D01*
X208410Y43414D01*
X208312Y43649D01*
X220634Y55971D01*
X225000D01*
X225585Y56087D01*
X226081Y56419D01*
X246081Y76419D01*
X246413Y76915D01*
X246529Y77500D01*
Y86355D01*
X246993Y86547D01*
X247819Y87181D01*
X248453Y88007D01*
X248851Y88968D01*
X248987Y90000D01*
X248851Y91032D01*
X248453Y91993D01*
X247819Y92819D01*
X246993Y93453D01*
X246032Y93851D01*
X245000Y93987D01*
X243968Y93851D01*
X243007Y93453D01*
X242181Y92819D01*
X242003Y92587D01*
X241529Y92748D01*
Y95000D01*
X241413Y95585D01*
X241081Y96081D01*
X238659Y98504D01*
X238851Y98968D01*
X238987Y100000D01*
X238851Y101032D01*
X238453Y101993D01*
X237819Y102819D01*
X237560Y103018D01*
X237673Y103505D01*
X238085Y103587D01*
X238581Y103919D01*
X241081Y106419D01*
X241413Y106915D01*
X241432Y107012D01*
X241495Y107327D01*
X241982Y107440D01*
X242181Y107181D01*
X243007Y106547D01*
X243968Y106149D01*
X245000Y106013D01*
X246032Y106149D01*
X246993Y106547D01*
X247819Y107181D01*
X248453Y108007D01*
X248851Y108968D01*
X248987Y110000D01*
X248851Y111032D01*
X248453Y111993D01*
X247819Y112819D01*
X247560Y113018D01*
X247673Y113505D01*
X248085Y113587D01*
X248581Y113919D01*
X251136Y116473D01*
X251467Y116969D01*
X251584Y117554D01*
Y139946D01*
X251467Y140531D01*
X251136Y141027D01*
X243659Y148504D01*
X243851Y148968D01*
X243987Y150000D01*
X243851Y151032D01*
X243453Y151993D01*
X242819Y152819D01*
X241993Y153453D01*
X241032Y153851D01*
X240000Y153987D01*
D02*
G37*
G36*
X89500Y129500D02*
X86079D01*
X86149Y128968D01*
X86547Y128007D01*
X87181Y127181D01*
X88007Y126547D01*
X88968Y126149D01*
X89500Y126079D01*
Y129500D01*
D02*
G37*
G36*
X173921D02*
X170500D01*
Y126079D01*
X171032Y126149D01*
X171993Y126547D01*
X172819Y127181D01*
X173453Y128007D01*
X173851Y128968D01*
X173921Y129500D01*
D02*
G37*
G36*
X169500D02*
X166079D01*
X166149Y128968D01*
X166547Y128007D01*
X167181Y127181D01*
X168007Y126547D01*
X168968Y126149D01*
X169500Y126079D01*
Y129500D01*
D02*
G37*
G36*
X93921D02*
X90500D01*
Y126079D01*
X91032Y126149D01*
X91993Y126547D01*
X92819Y127181D01*
X93453Y128007D01*
X93851Y128968D01*
X93921Y129500D01*
D02*
G37*
%LPD*%
D12*
X235000Y120000D02*
D03*
X90000Y140000D02*
D03*
X30000D02*
D03*
X290000Y30000D02*
D03*
X10000Y120000D02*
D03*
Y90000D02*
D03*
D14*
X240000Y150000D02*
X250054Y139946D01*
Y117554D02*
Y139946D01*
X190500Y95000D02*
X191500Y96000D01*
X162500Y95000D02*
X190500D01*
X245000Y77500D02*
Y90000D01*
X225000Y57500D02*
X245000Y77500D01*
X220000Y57500D02*
X225000D01*
X230000Y102500D02*
X232500Y105000D01*
X230000Y95000D02*
Y102500D01*
Y95000D02*
X235000Y90000D01*
X25000Y20000D02*
X32500D01*
X17500Y27500D02*
X25000Y20000D01*
X17500Y27500D02*
Y62500D01*
X10000Y70000D02*
X17500Y62500D01*
X37500Y25000D02*
X40000Y22500D01*
X27500Y25000D02*
X37500D01*
X20000Y32500D02*
X27500Y25000D01*
X20000Y32500D02*
Y70000D01*
X10000Y80000D02*
X20000Y70000D01*
X255000Y60000D02*
Y65000D01*
X247500Y72500D02*
X255000Y65000D01*
X205000Y42500D02*
X220000Y57500D01*
X222500Y42500D02*
Y52500D01*
X215000Y35000D02*
X222500Y42500D01*
X200000Y35000D02*
X215000D01*
X195000Y40000D02*
X200000Y35000D01*
X195000Y40000D02*
Y42500D01*
X240000Y12500D02*
X270000D01*
X232500Y5000D02*
X240000Y12500D01*
X270000D02*
X282500Y25000D01*
X155000Y12500D02*
Y27500D01*
Y12500D02*
X160000Y7500D01*
X150000Y10000D02*
Y25000D01*
Y10000D02*
X155000Y5000D01*
X232500D01*
X155000Y50000D02*
Y55000D01*
X150000Y47500D02*
Y55000D01*
X230000Y7500D02*
X237732Y15232D01*
X160000Y7500D02*
X230000D01*
X127500Y77500D02*
X150000Y55000D01*
X130000Y80000D02*
X155000Y55000D01*
X70000Y105000D02*
Y142500D01*
X40000Y50000D02*
Y80000D01*
X30000Y40000D02*
X40000Y50000D01*
X247500Y115000D02*
X250054Y117554D01*
X242500Y115000D02*
X247500D01*
X240000Y112500D02*
X242500Y115000D01*
X240000Y107500D02*
Y112500D01*
X237500Y105000D02*
X240000Y107500D01*
X232500Y105000D02*
X237500D01*
X255000Y110000D02*
Y122500D01*
X245000Y100000D02*
X255000Y110000D01*
X240000Y80000D02*
Y95000D01*
X235000Y100000D02*
X240000Y95000D01*
X285000Y40000D02*
X290000D01*
X280000Y35000D02*
X285000Y40000D01*
X280000Y27500D02*
Y35000D01*
X290000Y50000D02*
X295984Y44016D01*
Y38484D02*
Y44016D01*
X292500Y35000D02*
X295984Y38484D01*
X285000Y35000D02*
X292500D01*
X282500Y32500D02*
X285000Y35000D01*
X282500Y25000D02*
Y32500D01*
X267732Y15232D02*
X280000Y27500D01*
X237732Y15232D02*
X267732D01*
X124728Y110272D02*
X127500Y107500D01*
Y77500D02*
Y107500D01*
X115000Y105000D02*
X120272Y110272D01*
X124728D01*
X87500Y105000D02*
X115000D01*
X80000Y97500D02*
X87500Y105000D01*
X80000Y95000D02*
Y97500D01*
X130000Y80000D02*
Y110000D01*
X87500Y115000D02*
X125000D01*
X130000Y110000D01*
X80000Y107500D02*
X87500Y115000D01*
X80000Y105000D02*
Y107500D01*
X95000Y55000D02*
X120000D01*
X90000Y60000D02*
X95000Y55000D01*
X110000Y90000D02*
X122000Y102000D01*
Y107000D01*
X55000Y5000D02*
X60000Y10000D01*
X65000Y15000D02*
X70000Y10000D01*
X45547Y8156D02*
X48703Y5000D01*
X45547Y8156D02*
Y40547D01*
X48703Y5000D02*
X55000D01*
X50000Y10000D02*
Y37500D01*
X52500Y40000D01*
X45547Y40547D02*
X47500Y42500D01*
X65000Y15000D02*
Y40000D01*
X75000Y15000D02*
X80000Y10000D01*
X75000Y15000D02*
Y40000D01*
X35000Y150000D02*
X42500Y142500D01*
X50000D01*
X25000Y35000D02*
X30000Y30000D01*
X25000Y35000D02*
Y75000D01*
D16*
X195000Y100000D02*
X222500Y72500D01*
X170000Y100000D02*
X195000D01*
X222500Y67500D02*
Y72500D01*
D17*
X217500Y62500D02*
X225000D01*
X210000Y55000D02*
X217500Y62500D01*
X187500Y55000D02*
X210000D01*
D18*
X145669Y-12599D02*
Y-15748D01*
X147244D01*
X147768Y-15223D01*
Y-14698D01*
X147244Y-14174D01*
X145669D01*
X147244D01*
X147768Y-13649D01*
Y-13124D01*
X147244Y-12599D01*
X145669D01*
X149343Y-15748D02*
X150392D01*
X150917Y-15223D01*
Y-14174D01*
X150392Y-13649D01*
X149343D01*
X148818Y-14174D01*
Y-15223D01*
X149343Y-15748D01*
X152491Y-13124D02*
Y-13649D01*
X151967D01*
X153016D01*
X152491D01*
Y-15223D01*
X153016Y-15748D01*
X155115Y-13124D02*
Y-13649D01*
X154590D01*
X155640D01*
X155115D01*
Y-15223D01*
X155640Y-15748D01*
X157739D02*
X158788D01*
X159313Y-15223D01*
Y-14174D01*
X158788Y-13649D01*
X157739D01*
X157214Y-14174D01*
Y-15223D01*
X157739Y-15748D01*
X160363D02*
Y-13649D01*
X160888D01*
X161412Y-14174D01*
Y-15748D01*
Y-14174D01*
X161937Y-13649D01*
X162462Y-14174D01*
Y-15748D01*
X166660Y-12599D02*
Y-15748D01*
X168759D01*
X170333Y-13649D02*
X171383D01*
X171907Y-14174D01*
Y-15748D01*
X170333D01*
X169808Y-15223D01*
X170333Y-14698D01*
X171907D01*
X172957Y-13649D02*
Y-15223D01*
X173482Y-15748D01*
X175056D01*
Y-16273D01*
X174531Y-16798D01*
X174007D01*
X175056Y-15748D02*
Y-13649D01*
X177680Y-15748D02*
X176630D01*
X176106Y-15223D01*
Y-14174D01*
X176630Y-13649D01*
X177680D01*
X178205Y-14174D01*
Y-14698D01*
X176106D01*
X179254Y-13649D02*
Y-15748D01*
Y-14698D01*
X179779Y-14174D01*
X180304Y-13649D01*
X180829D01*
X145669Y-20998D02*
X146194Y-20473D01*
X147244D01*
X147768Y-20998D01*
Y-23097D01*
X147244Y-23622D01*
X146194D01*
X145669Y-23097D01*
Y-20998D01*
X148818Y-23622D02*
X149867D01*
X149343D01*
Y-20473D01*
X148818Y-20998D01*
X151442Y-23622D02*
Y-23097D01*
X151967D01*
Y-23622D01*
X151442D01*
X154066Y-20998D02*
X154590Y-20473D01*
X155640D01*
X156165Y-20998D01*
Y-23097D01*
X155640Y-23622D01*
X154590D01*
X154066Y-23097D01*
Y-20998D01*
X157214D02*
X157739Y-20473D01*
X158788D01*
X159313Y-20998D01*
Y-21523D01*
X158788Y-22048D01*
X158264D01*
X158788D01*
X159313Y-22572D01*
Y-23097D01*
X158788Y-23622D01*
X157739D01*
X157214Y-23097D01*
X145669Y-31496D02*
X146719D01*
X146194D01*
Y-28348D01*
X145669Y-28872D01*
X148293D02*
X148818Y-28348D01*
X149867D01*
X150392Y-28872D01*
Y-29397D01*
X149867Y-29922D01*
X149343D01*
X149867D01*
X150392Y-30446D01*
Y-30971D01*
X149867Y-31496D01*
X148818D01*
X148293Y-30971D01*
X151442Y-31496D02*
X153541Y-29397D01*
X154590Y-28872D02*
X155115Y-28348D01*
X156165D01*
X156689Y-28872D01*
Y-30971D01*
X156165Y-31496D01*
X155115D01*
X154590Y-30971D01*
Y-28872D01*
X157739Y-30971D02*
X158264Y-31496D01*
X159313D01*
X159838Y-30971D01*
Y-28872D01*
X159313Y-28348D01*
X158264D01*
X157739Y-28872D01*
Y-29397D01*
X158264Y-29922D01*
X159838D01*
X160888Y-31496D02*
X162987Y-29397D01*
X166135Y-31496D02*
X164036D01*
X166135Y-29397D01*
Y-28872D01*
X165610Y-28348D01*
X164561D01*
X164036Y-28872D01*
X167185D02*
X167709Y-28348D01*
X168759D01*
X169284Y-28872D01*
Y-30971D01*
X168759Y-31496D01*
X167709D01*
X167185Y-30971D01*
Y-28872D01*
X170333Y-31496D02*
X171383D01*
X170858D01*
Y-28348D01*
X170333Y-28872D01*
X172957D02*
X173482Y-28348D01*
X174531D01*
X175056Y-28872D01*
Y-29397D01*
X174531Y-29922D01*
X175056Y-30446D01*
Y-30971D01*
X174531Y-31496D01*
X173482D01*
X172957Y-30971D01*
Y-30446D01*
X173482Y-29922D01*
X172957Y-29397D01*
Y-28872D01*
X173482Y-29922D02*
X174531D01*
X106299Y-31496D02*
Y-28348D01*
X107873D01*
X108398Y-28872D01*
Y-29922D01*
X107873Y-30446D01*
X106299D01*
X109448Y-29397D02*
Y-31496D01*
Y-30446D01*
X109973Y-29922D01*
X110497Y-29397D01*
X111022D01*
X112596Y-31496D02*
X113646D01*
X113121D01*
Y-29397D01*
X112596D01*
X115220Y-31496D02*
Y-29397D01*
X116795D01*
X117319Y-29922D01*
Y-31496D01*
X118894Y-28872D02*
Y-29397D01*
X118369D01*
X119418D01*
X118894D01*
Y-30971D01*
X119418Y-31496D01*
X124141Y-28348D02*
Y-31496D01*
X125715D01*
X126240Y-30971D01*
Y-28872D01*
X125715Y-28348D01*
X124141D01*
X127815Y-29397D02*
X128864D01*
X129389Y-29922D01*
Y-31496D01*
X127815D01*
X127290Y-30971D01*
X127815Y-30446D01*
X129389D01*
X130963Y-28872D02*
Y-29397D01*
X130438D01*
X131488D01*
X130963D01*
Y-30971D01*
X131488Y-31496D01*
X134636D02*
X133587D01*
X133062Y-30971D01*
Y-29922D01*
X133587Y-29397D01*
X134636D01*
X135161Y-29922D01*
Y-30446D01*
X133062D01*
X136211Y-29397D02*
X136736D01*
Y-29922D01*
X136211D01*
Y-29397D01*
Y-30971D02*
X136736D01*
Y-31496D01*
X136211D01*
Y-30971D01*
X106299Y-23622D02*
Y-20473D01*
X107873D01*
X108398Y-20998D01*
Y-22048D01*
X107873Y-22572D01*
X106299D01*
X107349D02*
X108398Y-23622D01*
X111022D02*
X109973D01*
X109448Y-23097D01*
Y-22048D01*
X109973Y-21523D01*
X111022D01*
X111547Y-22048D01*
Y-22572D01*
X109448D01*
X112596Y-21523D02*
X113646Y-23622D01*
X114696Y-21523D01*
X115745Y-23622D02*
X116795D01*
X116270D01*
Y-21523D01*
X115745D01*
X118369Y-23622D02*
X119943D01*
X120468Y-23097D01*
X119943Y-22572D01*
X118894D01*
X118369Y-22048D01*
X118894Y-21523D01*
X120468D01*
X121517Y-23622D02*
X122567D01*
X122042D01*
Y-21523D01*
X121517D01*
X124666Y-23622D02*
X125715D01*
X126240Y-23097D01*
Y-22048D01*
X125715Y-21523D01*
X124666D01*
X124141Y-22048D01*
Y-23097D01*
X124666Y-23622D01*
X127290D02*
Y-21523D01*
X128864D01*
X129389Y-22048D01*
Y-23622D01*
X130438Y-21523D02*
X130963D01*
Y-22048D01*
X130438D01*
Y-21523D01*
Y-23097D02*
X130963D01*
Y-23622D01*
X130438D01*
Y-23097D01*
X106299Y-12599D02*
Y-15748D01*
X108398D01*
X109973Y-13649D02*
X111022D01*
X111547Y-14174D01*
Y-15748D01*
X109973D01*
X109448Y-15223D01*
X109973Y-14698D01*
X111547D01*
X112596Y-13649D02*
Y-15223D01*
X113121Y-15748D01*
X114696D01*
Y-16273D01*
X114171Y-16798D01*
X113646D01*
X114696Y-15748D02*
Y-13649D01*
X117319Y-15748D02*
X116270D01*
X115745Y-15223D01*
Y-14174D01*
X116270Y-13649D01*
X117319D01*
X117844Y-14174D01*
Y-14698D01*
X115745D01*
X118894Y-13649D02*
Y-15748D01*
Y-14698D01*
X119418Y-14174D01*
X119943Y-13649D01*
X120468D01*
X125191Y-15748D02*
Y-12599D01*
X127290Y-15748D01*
Y-12599D01*
X128864Y-13649D02*
X129914D01*
X130438Y-14174D01*
Y-15748D01*
X128864D01*
X128339Y-15223D01*
X128864Y-14698D01*
X130438D01*
X131488Y-15748D02*
Y-13649D01*
X132013D01*
X132537Y-14174D01*
Y-15748D01*
Y-14174D01*
X133062Y-13649D01*
X133587Y-14174D01*
Y-15748D01*
X136211D02*
X135161D01*
X134636Y-15223D01*
Y-14174D01*
X135161Y-13649D01*
X136211D01*
X136736Y-14174D01*
Y-14698D01*
X134636D01*
X137785Y-13649D02*
X138310D01*
Y-14174D01*
X137785D01*
Y-13649D01*
Y-15223D02*
X138310D01*
Y-15748D01*
X137785D01*
Y-15223D01*
D19*
X195000Y12500D02*
D03*
X205000D02*
D03*
X215000D02*
D03*
Y42500D02*
D03*
X205000D02*
D03*
X195000D02*
D03*
D20*
X110000Y50000D02*
D03*
Y60000D02*
D03*
Y70000D02*
D03*
Y80000D02*
D03*
Y90000D02*
D03*
Y100000D02*
D03*
Y110000D02*
D03*
Y120000D02*
D03*
X170000Y60000D02*
D03*
Y70000D02*
D03*
Y80000D02*
D03*
Y90000D02*
D03*
Y100000D02*
D03*
Y110000D02*
D03*
Y120000D02*
D03*
X110000Y130000D02*
D03*
X170000D02*
D03*
X245000Y90000D02*
D03*
X235000D02*
D03*
X245000Y100000D02*
D03*
X235000D02*
D03*
X245000Y110000D02*
D03*
X235000D02*
D03*
X245000Y120000D02*
D03*
X60000Y30000D02*
D03*
X80000D02*
D03*
X70000D02*
D03*
X80000Y95000D02*
D03*
Y105000D02*
D03*
X90000Y30000D02*
D03*
Y40000D02*
D03*
Y50000D02*
D03*
Y60000D02*
D03*
Y70000D02*
D03*
Y80000D02*
D03*
Y90000D02*
D03*
Y100000D02*
D03*
Y110000D02*
D03*
Y120000D02*
D03*
Y130000D02*
D03*
X30000D02*
D03*
Y120000D02*
D03*
Y110000D02*
D03*
Y100000D02*
D03*
Y90000D02*
D03*
Y80000D02*
D03*
Y70000D02*
D03*
Y60000D02*
D03*
Y50000D02*
D03*
Y40000D02*
D03*
Y30000D02*
D03*
X35000Y150000D02*
D03*
X45000D02*
D03*
X55000D02*
D03*
X65000D02*
D03*
X75000D02*
D03*
X85000D02*
D03*
X290000Y60000D02*
D03*
Y50000D02*
D03*
Y40000D02*
D03*
X90000Y10000D02*
D03*
X80000D02*
D03*
X70000D02*
D03*
X60000D02*
D03*
X50000D02*
D03*
X220000Y150000D02*
D03*
X230000D02*
D03*
X240000D02*
D03*
X250000D02*
D03*
X260000D02*
D03*
X10000Y110000D02*
D03*
Y40000D02*
D03*
Y50000D02*
D03*
Y60000D02*
D03*
Y70000D02*
D03*
Y80000D02*
D03*
X190000Y150000D02*
D03*
X110000D02*
D03*
D21*
X170000Y50000D02*
D03*
X40000Y10000D02*
D03*
X270000Y150000D02*
D03*
X200000D02*
D03*
X120000D02*
D03*
D22*
X211063Y115000D02*
D03*
D23*
X218937D02*
D03*
X190000Y111063D02*
D03*
D24*
Y118937D02*
D03*
D25*
X191500Y96000D02*
D03*
X162500Y95000D02*
D03*
X32500Y20000D02*
D03*
X40000Y22500D02*
D03*
X247500Y72500D02*
D03*
X255000Y60000D02*
D03*
X225000Y62500D02*
D03*
X187500Y55000D02*
D03*
X222500Y52500D02*
D03*
Y67500D02*
D03*
X254921Y50197D02*
D03*
Y7874D02*
D03*
X150000Y25000D02*
D03*
X155000Y27500D02*
D03*
Y50000D02*
D03*
X150000Y47500D02*
D03*
X70000Y105000D02*
D03*
Y142500D02*
D03*
X255000Y122500D02*
D03*
X240000Y80000D02*
D03*
X120000Y55000D02*
D03*
X122000Y107000D02*
D03*
X47500Y42500D02*
D03*
X52500Y40000D02*
D03*
X65000D02*
D03*
X75000D02*
D03*
X40000Y80000D02*
D03*
X50000Y142500D02*
D03*
X25000Y75000D02*
D03*
D26*
X11811Y11811D02*
D03*
Y148189D02*
D03*
X288189D02*
D03*
Y11811D02*
D03*
M02*
