%FSLAX25Y25*%
%MOIN*%
G70*
G01*
G75*
G04 Layer_Color=32768*
%ADD10R,0.04331X0.03937*%
%ADD11R,0.03740X0.03347*%
%ADD12R,0.05906X0.05906*%
%ADD13R,0.03543X0.03937*%
%ADD14C,0.01000*%
%ADD15C,0.03937*%
%ADD16C,0.01969*%
%ADD17C,0.01181*%
%ADD18C,0.00787*%
%ADD19C,0.05000*%
%ADD20C,0.05906*%
%ADD21R,0.05906X0.05906*%
%ADD22R,0.04724X0.04724*%
%ADD23C,0.04724*%
%ADD24R,0.04724X0.04724*%
%ADD25C,0.03543*%
%ADD26C,0.19685*%
%ADD27C,0.00984*%
%ADD28C,0.00197*%
%ADD29C,0.00591*%
%ADD30R,0.00984X0.05512*%
%ADD31R,0.05131X0.04737*%
%ADD32R,0.04540X0.04147*%
%ADD33R,0.06706X0.06706*%
%ADD34R,0.04343X0.04737*%
%ADD35C,0.05800*%
%ADD36C,0.06706*%
%ADD37R,0.06706X0.06706*%
%ADD38R,0.05524X0.05524*%
%ADD39C,0.05524*%
%ADD40R,0.05524X0.05524*%
%ADD41C,0.20485*%
%ADD42C,0.00100*%
%ADD43C,0.00394*%
%ADD44C,0.00600*%
D18*
X145669Y-15748D02*
Y-12599D01*
X146719Y-13649D01*
X147768Y-12599D01*
Y-15748D01*
X150392D02*
X149343D01*
X148818Y-15223D01*
Y-14174D01*
X149343Y-13649D01*
X150392D01*
X150917Y-14174D01*
Y-14698D01*
X148818D01*
X154066Y-13649D02*
X152491D01*
X151967Y-14174D01*
Y-15223D01*
X152491Y-15748D01*
X154066D01*
X155115Y-12599D02*
Y-15748D01*
Y-14174D01*
X155640Y-13649D01*
X156689D01*
X157214Y-14174D01*
Y-15748D01*
X158788Y-13649D02*
X159838D01*
X160363Y-14174D01*
Y-15748D01*
X158788D01*
X158264Y-15223D01*
X158788Y-14698D01*
X160363D01*
X161412Y-15748D02*
Y-13649D01*
X162987D01*
X163511Y-14174D01*
Y-15748D01*
X164561D02*
X165610D01*
X165086D01*
Y-13649D01*
X164561D01*
X169284D02*
X167709D01*
X167185Y-14174D01*
Y-15223D01*
X167709Y-15748D01*
X169284D01*
X170858Y-13649D02*
X171907D01*
X172432Y-14174D01*
Y-15748D01*
X170858D01*
X170333Y-15223D01*
X170858Y-14698D01*
X172432D01*
X173482Y-15748D02*
X174531D01*
X174007D01*
Y-12599D01*
X173482D01*
X179254Y-15748D02*
X180304D01*
X179779D01*
Y-12599D01*
X179254Y-13124D01*
X181878Y-15748D02*
X182928D01*
X182403D01*
Y-12599D01*
X181878Y-13124D01*
X145669Y-20998D02*
X146194Y-20473D01*
X147244D01*
X147768Y-20998D01*
Y-23097D01*
X147244Y-23622D01*
X146194D01*
X145669Y-23097D01*
Y-20998D01*
X148818Y-23622D02*
X149867D01*
X149343D01*
Y-20473D01*
X148818Y-20998D01*
X151442Y-23622D02*
Y-23097D01*
X151967D01*
Y-23622D01*
X151442D01*
X154066Y-20998D02*
X154590Y-20473D01*
X155640D01*
X156165Y-20998D01*
Y-23097D01*
X155640Y-23622D01*
X154590D01*
X154066Y-23097D01*
Y-20998D01*
X157214D02*
X157739Y-20473D01*
X158788D01*
X159313Y-20998D01*
Y-21523D01*
X158788Y-22048D01*
X158264D01*
X158788D01*
X159313Y-22572D01*
Y-23097D01*
X158788Y-23622D01*
X157739D01*
X157214Y-23097D01*
X145669Y-31496D02*
X146719D01*
X146194D01*
Y-28348D01*
X145669Y-28872D01*
X148293D02*
X148818Y-28348D01*
X149867D01*
X150392Y-28872D01*
Y-29397D01*
X149867Y-29922D01*
X149343D01*
X149867D01*
X150392Y-30446D01*
Y-30971D01*
X149867Y-31496D01*
X148818D01*
X148293Y-30971D01*
X151442Y-31496D02*
X153541Y-29397D01*
X154590Y-28872D02*
X155115Y-28348D01*
X156165D01*
X156689Y-28872D01*
Y-30971D01*
X156165Y-31496D01*
X155115D01*
X154590Y-30971D01*
Y-28872D01*
X157739Y-30971D02*
X158264Y-31496D01*
X159313D01*
X159838Y-30971D01*
Y-28872D01*
X159313Y-28348D01*
X158264D01*
X157739Y-28872D01*
Y-29397D01*
X158264Y-29922D01*
X159838D01*
X160888Y-31496D02*
X162987Y-29397D01*
X166135Y-31496D02*
X164036D01*
X166135Y-29397D01*
Y-28872D01*
X165610Y-28348D01*
X164561D01*
X164036Y-28872D01*
X167185D02*
X167709Y-28348D01*
X168759D01*
X169284Y-28872D01*
Y-30971D01*
X168759Y-31496D01*
X167709D01*
X167185Y-30971D01*
Y-28872D01*
X170333Y-31496D02*
X171383D01*
X170858D01*
Y-28348D01*
X170333Y-28872D01*
X172957D02*
X173482Y-28348D01*
X174531D01*
X175056Y-28872D01*
Y-29397D01*
X174531Y-29922D01*
X175056Y-30446D01*
Y-30971D01*
X174531Y-31496D01*
X173482D01*
X172957Y-30971D01*
Y-30446D01*
X173482Y-29922D01*
X172957Y-29397D01*
Y-28872D01*
X173482Y-29922D02*
X174531D01*
X106299Y-31496D02*
Y-28348D01*
X107873D01*
X108398Y-28872D01*
Y-29922D01*
X107873Y-30446D01*
X106299D01*
X109448Y-29397D02*
Y-31496D01*
Y-30446D01*
X109973Y-29922D01*
X110497Y-29397D01*
X111022D01*
X112596Y-31496D02*
X113646D01*
X113121D01*
Y-29397D01*
X112596D01*
X115220Y-31496D02*
Y-29397D01*
X116795D01*
X117319Y-29922D01*
Y-31496D01*
X118894Y-28872D02*
Y-29397D01*
X118369D01*
X119418D01*
X118894D01*
Y-30971D01*
X119418Y-31496D01*
X124141Y-28348D02*
Y-31496D01*
X125715D01*
X126240Y-30971D01*
Y-28872D01*
X125715Y-28348D01*
X124141D01*
X127815Y-29397D02*
X128864D01*
X129389Y-29922D01*
Y-31496D01*
X127815D01*
X127290Y-30971D01*
X127815Y-30446D01*
X129389D01*
X130963Y-28872D02*
Y-29397D01*
X130438D01*
X131488D01*
X130963D01*
Y-30971D01*
X131488Y-31496D01*
X134636D02*
X133587D01*
X133062Y-30971D01*
Y-29922D01*
X133587Y-29397D01*
X134636D01*
X135161Y-29922D01*
Y-30446D01*
X133062D01*
X136211Y-29397D02*
X136736D01*
Y-29922D01*
X136211D01*
Y-29397D01*
Y-30971D02*
X136736D01*
Y-31496D01*
X136211D01*
Y-30971D01*
X106299Y-23622D02*
Y-20473D01*
X107873D01*
X108398Y-20998D01*
Y-22048D01*
X107873Y-22572D01*
X106299D01*
X107349D02*
X108398Y-23622D01*
X111022D02*
X109973D01*
X109448Y-23097D01*
Y-22048D01*
X109973Y-21523D01*
X111022D01*
X111547Y-22048D01*
Y-22572D01*
X109448D01*
X112596Y-21523D02*
X113646Y-23622D01*
X114696Y-21523D01*
X115745Y-23622D02*
X116795D01*
X116270D01*
Y-21523D01*
X115745D01*
X118369Y-23622D02*
X119943D01*
X120468Y-23097D01*
X119943Y-22572D01*
X118894D01*
X118369Y-22048D01*
X118894Y-21523D01*
X120468D01*
X121517Y-23622D02*
X122567D01*
X122042D01*
Y-21523D01*
X121517D01*
X124666Y-23622D02*
X125715D01*
X126240Y-23097D01*
Y-22048D01*
X125715Y-21523D01*
X124666D01*
X124141Y-22048D01*
Y-23097D01*
X124666Y-23622D01*
X127290D02*
Y-21523D01*
X128864D01*
X129389Y-22048D01*
Y-23622D01*
X130438Y-21523D02*
X130963D01*
Y-22048D01*
X130438D01*
Y-21523D01*
Y-23097D02*
X130963D01*
Y-23622D01*
X130438D01*
Y-23097D01*
X106299Y-12599D02*
Y-15748D01*
X108398D01*
X109973Y-13649D02*
X111022D01*
X111547Y-14174D01*
Y-15748D01*
X109973D01*
X109448Y-15223D01*
X109973Y-14698D01*
X111547D01*
X112596Y-13649D02*
Y-15223D01*
X113121Y-15748D01*
X114696D01*
Y-16273D01*
X114171Y-16798D01*
X113646D01*
X114696Y-15748D02*
Y-13649D01*
X117319Y-15748D02*
X116270D01*
X115745Y-15223D01*
Y-14174D01*
X116270Y-13649D01*
X117319D01*
X117844Y-14174D01*
Y-14698D01*
X115745D01*
X118894Y-13649D02*
Y-15748D01*
Y-14698D01*
X119418Y-14174D01*
X119943Y-13649D01*
X120468D01*
X125191Y-15748D02*
Y-12599D01*
X127290Y-15748D01*
Y-12599D01*
X128864Y-13649D02*
X129914D01*
X130438Y-14174D01*
Y-15748D01*
X128864D01*
X128339Y-15223D01*
X128864Y-14698D01*
X130438D01*
X131488Y-15748D02*
Y-13649D01*
X132013D01*
X132537Y-14174D01*
Y-15748D01*
Y-14174D01*
X133062Y-13649D01*
X133587Y-14174D01*
Y-15748D01*
X136211D02*
X135161D01*
X134636Y-15223D01*
Y-14174D01*
X135161Y-13649D01*
X136211D01*
X136736Y-14174D01*
Y-14698D01*
X134636D01*
X137785Y-13649D02*
X138310D01*
Y-14174D01*
X137785D01*
Y-13649D01*
Y-15223D02*
X138310D01*
Y-15748D01*
X137785D01*
Y-15223D01*
X303898Y92441D02*
X307046D01*
Y90867D01*
X306522Y90342D01*
X305472D01*
X304947Y90867D01*
Y92441D01*
X306522Y87193D02*
X307046Y87718D01*
Y88768D01*
X306522Y89292D01*
X304422D01*
X303898Y88768D01*
Y87718D01*
X304422Y87193D01*
X307046Y86144D02*
X303898D01*
Y84570D01*
X304422Y84045D01*
X304947D01*
X305472Y84570D01*
Y86144D01*
Y84570D01*
X305997Y84045D01*
X306522D01*
X307046Y84570D01*
Y86144D01*
Y77747D02*
Y79847D01*
X303898D01*
Y77747D01*
X305472Y79847D02*
Y78797D01*
X307046Y76698D02*
X303898D01*
Y75124D01*
X304422Y74599D01*
X306522D01*
X307046Y75124D01*
Y76698D01*
X306522Y71450D02*
X307046Y71975D01*
Y73025D01*
X306522Y73549D01*
X304422D01*
X303898Y73025D01*
Y71975D01*
X304422Y71450D01*
X305472D01*
Y72500D01*
X307046Y68302D02*
Y70401D01*
X303898D01*
Y68302D01*
X305472Y70401D02*
Y69351D01*
D28*
X196968Y17500D02*
G03*
X196968Y17500I-1969J0D01*
G01*
X224843Y115000D02*
G03*
X224843Y115000I-9843J0D01*
G01*
X199843D02*
G03*
X199843Y115000I-9843J0D01*
G01*
X185700Y8250D02*
X224300D01*
Y46750D01*
X185700Y8250D02*
Y46750D01*
X224300D01*
X262500Y53642D02*
Y56496D01*
X268996D01*
Y53642D02*
Y56496D01*
X262500Y53642D02*
X268996D01*
X240846D02*
Y56496D01*
X247342D01*
Y53642D02*
Y56496D01*
X240846Y53642D02*
X247342D01*
X272835Y9843D02*
Y33465D01*
X258661D02*
X272835D01*
X258661Y9843D02*
X272835D01*
X258661D02*
Y33465D01*
X251181Y9843D02*
Y33465D01*
X237008D02*
X251181D01*
X237008Y9843D02*
X251181D01*
X237008D02*
Y33465D01*
X125000Y-2500D02*
Y0D01*
Y-2500D02*
X155000D01*
Y0D01*
X175000D02*
Y141811D01*
X105000Y0D02*
X175000D01*
X105000D02*
Y141811D01*
X175000D01*
X347205Y66850D02*
Y125906D01*
X229095Y66850D02*
X347205D01*
X229095Y125906D02*
X347205D01*
X229095Y66850D02*
Y125906D01*
X307835Y66850D02*
Y125906D01*
X25000Y25000D02*
Y155000D01*
X95000D01*
Y25000D02*
Y155000D01*
X25000Y25000D02*
X95000D01*
X285000D02*
X295000D01*
X285000D02*
Y65000D01*
X295000D01*
Y25000D02*
Y65000D01*
X35000Y5000D02*
X95000D01*
Y15000D01*
X35000D02*
X95000D01*
X35000Y5000D02*
Y15000D01*
X215000Y155000D02*
X275000D01*
X215000Y145000D02*
Y155000D01*
Y145000D02*
X275000D01*
Y155000D01*
X5000Y125000D02*
X15000D01*
X5000Y105000D02*
Y125000D01*
Y105000D02*
X15000D01*
Y125000D01*
X5000Y35000D02*
Y95000D01*
Y35000D02*
X15000D01*
Y95000D01*
X5000D02*
X15000D01*
X205000Y145000D02*
Y155000D01*
X185000D02*
X205000D01*
X185000Y145000D02*
Y155000D01*
Y145000D02*
X205000D01*
X125000D02*
Y155000D01*
X105000D02*
X125000D01*
X105000Y145000D02*
Y155000D01*
Y145000D02*
X125000D01*
D43*
X236555Y128130D02*
Y131870D01*
X243445Y128130D02*
Y131870D01*
X236555D02*
X243445D01*
X236555Y128130D02*
X243445D01*
M02*
