%FSLAX25Y25*%
%MOIN*%
G70*
G01*
G75*
G04 Layer_Physical_Order=1*
G04 Layer_Color=255*
%ADD10R,0.04331X0.03937*%
%ADD11R,0.03740X0.03347*%
%ADD12R,0.05906X0.05906*%
%ADD13R,0.03543X0.03937*%
%ADD14C,0.01000*%
%ADD15C,0.03937*%
%ADD16C,0.01969*%
%ADD17C,0.01181*%
%ADD18C,0.00787*%
%ADD19C,0.05000*%
%ADD20C,0.05906*%
%ADD21R,0.05906X0.05906*%
%ADD22R,0.04724X0.04724*%
%ADD23C,0.04724*%
%ADD24R,0.04724X0.04724*%
%ADD25C,0.03543*%
%ADD26C,0.19685*%
G36*
X248471Y123319D02*
X248071Y123012D01*
X247764Y122861D01*
X246993Y123453D01*
X246032Y123851D01*
X245500Y123921D01*
Y120000D01*
X245000D01*
Y119500D01*
X241079D01*
X241149Y118968D01*
X241547Y118007D01*
X242181Y117181D01*
X242012Y116432D01*
X242012D01*
Y116432D01*
X241915Y116413D01*
X241419Y116081D01*
X240727Y115390D01*
X240000Y115692D01*
Y127032D01*
X242158D01*
Y130000D01*
Y132968D01*
X240000D01*
Y140000D01*
X248471D01*
Y123319D01*
D02*
G37*
%LPC*%
G36*
X244500Y123921D02*
X243968Y123851D01*
X243007Y123453D01*
X242181Y122819D01*
X241547Y121993D01*
X241149Y121032D01*
X241079Y120500D01*
X244500D01*
Y123921D01*
D02*
G37*
G36*
X245429Y132968D02*
X243158D01*
Y130500D01*
X245429D01*
Y132968D01*
D02*
G37*
G36*
Y129500D02*
X243158D01*
Y127032D01*
X245429D01*
Y129500D01*
D02*
G37*
%LPD*%
D10*
X269094Y55118D02*
D03*
X262402D02*
D03*
X247441D02*
D03*
X240748D02*
D03*
D11*
X215472Y65059D02*
D03*
Y59941D02*
D03*
X207598Y65059D02*
D03*
Y59941D02*
D03*
X199724Y59941D02*
D03*
Y65059D02*
D03*
X191850Y65059D02*
D03*
Y59941D02*
D03*
D12*
X265748Y6299D02*
D03*
Y37008D02*
D03*
X244094Y6299D02*
D03*
Y37008D02*
D03*
X235000Y120000D02*
D03*
X90000Y140000D02*
D03*
X30000D02*
D03*
X290000Y30000D02*
D03*
X10000Y120000D02*
D03*
Y90000D02*
D03*
D13*
X237343Y130000D02*
D03*
X242657D02*
D03*
D14*
X191500Y96000D02*
X205500Y110000D01*
X235000D01*
X102500Y95000D02*
X162500D01*
X250000Y150000D02*
X255000Y145000D01*
X260000Y120000D02*
Y125000D01*
X230000Y85000D02*
X235000Y90000D01*
X135000Y85000D02*
X230000D01*
X180000Y82500D02*
X235000D01*
X187500Y80000D02*
X240000D01*
X192500Y75000D02*
X245000D01*
X252500Y82500D02*
Y102500D01*
X245000Y75000D02*
X252500Y82500D01*
X32500Y20000D02*
X35000Y17500D01*
X32500Y15000D02*
X95000D01*
X14453Y33047D02*
X32500Y15000D01*
X14453Y33047D02*
Y44453D01*
X255000Y60000D02*
X259882Y55118D01*
X262402D01*
X207165Y72500D02*
X247500D01*
X199724Y65059D02*
X207165Y72500D01*
X215472Y59941D02*
X222913Y52500D01*
X235000D02*
X242500Y45000D01*
X222913Y52500D02*
X235000D01*
X257756Y45000D02*
X265748Y37008D01*
X242500Y45000D02*
X257756D01*
X233602Y47500D02*
X244094Y37008D01*
X212500Y47500D02*
X233602D01*
X207598Y52402D02*
X212500Y47500D01*
X207598Y52402D02*
Y59941D01*
X187559Y65059D02*
X191850D01*
X176250Y53750D02*
X187559Y65059D01*
X176250Y41250D02*
Y53750D01*
X147500Y12500D02*
X176250Y41250D01*
X117500Y12500D02*
X147500D01*
X192500Y17500D02*
X224587D01*
X185000Y10000D02*
X192500Y17500D01*
X115000Y10000D02*
X185000D01*
X224587Y17500D02*
X244094Y37008D01*
X190000Y7500D02*
X195000Y12500D01*
X197500Y5000D02*
X205000Y12500D01*
Y2500D02*
X215000Y12500D01*
X105000Y25000D02*
X117500Y12500D01*
X102500Y22500D02*
X115000Y10000D01*
X112500Y7500D02*
X190000D01*
X100000Y20000D02*
X112500Y7500D01*
X110000Y5000D02*
X197500D01*
X97500Y17500D02*
X110000Y5000D01*
X107500Y2500D02*
X205000D01*
X95000Y15000D02*
X107500Y2500D01*
X45000Y22500D02*
X102500D01*
X47500Y25000D02*
X105000D01*
X40000Y27500D02*
X45000Y22500D01*
X40000Y27500D02*
Y40000D01*
X30000Y50000D02*
X40000Y40000D01*
X42500Y30000D02*
Y47500D01*
Y30000D02*
X47500Y25000D01*
X30000Y60000D02*
X42500Y47500D01*
X40000Y22500D02*
X42500Y20000D01*
X100000D01*
X35000Y17500D02*
X97500D01*
X10000Y48906D02*
Y50000D01*
Y48906D02*
X14453Y44453D01*
X10000Y50000D02*
X30000Y70000D01*
X155000Y27500D02*
Y50000D01*
X150000Y25000D02*
Y47500D01*
X70000Y85000D02*
Y105000D01*
X65000Y80000D02*
X70000Y85000D01*
X40000Y80000D02*
X65000D01*
X70000Y142500D02*
X72500Y145000D01*
X87500D01*
X100000Y157500D01*
X222500D01*
X230000Y150000D01*
X245000Y100000D02*
X250000Y95000D01*
Y87500D02*
Y95000D01*
X247500Y85000D02*
X250000Y87500D01*
X237500Y85000D02*
X247500D01*
X235000Y82500D02*
X237500Y85000D01*
X172500Y55000D02*
X192500Y75000D01*
X127500Y55000D02*
X172500D01*
X117500Y45000D02*
X127500Y55000D01*
X105000Y45000D02*
X117500D01*
X172500Y65000D02*
X187500Y80000D01*
X172500Y75000D02*
X180000Y82500D01*
X132500Y75000D02*
X172500D01*
X112500Y55000D02*
X132500Y75000D01*
X130000Y65000D02*
X172500D01*
X120000Y55000D02*
X130000Y65000D01*
X115000D02*
X135000Y85000D01*
X107500Y65000D02*
X115000D01*
X255000Y122500D02*
Y145000D01*
X260000Y125000D02*
Y150000D01*
X255000Y115000D02*
X260000Y120000D01*
X242500Y115000D02*
X255000D01*
X240000Y112500D02*
X242500Y115000D01*
X240000Y105000D02*
Y112500D01*
X235000Y100000D02*
X240000Y105000D01*
X245000Y110000D02*
X252500Y102500D01*
X90000Y50000D02*
X92500D01*
X107500Y65000D01*
X90000Y40000D02*
X105000Y55000D01*
X112500D01*
X114000Y115000D02*
X122000Y107000D01*
X82500Y70000D02*
X90000D01*
X52500Y40000D02*
X82500Y70000D01*
X85000Y80000D02*
X90000D01*
X47500Y42500D02*
X85000Y80000D01*
X90000Y90000D02*
X95000Y85000D01*
Y67500D02*
Y85000D01*
X92500Y65000D02*
X95000Y67500D01*
X82500Y65000D02*
X92500D01*
X65000Y47500D02*
X82500Y65000D01*
X65000Y40000D02*
Y47500D01*
X90000Y100000D02*
X97500Y92500D01*
Y60000D02*
Y92500D01*
X75000Y42500D02*
X87500Y55000D01*
X75000Y40000D02*
Y42500D01*
X92500Y55000D02*
X97500Y60000D01*
X87500Y55000D02*
X92500D01*
X10000Y70000D02*
X30000Y90000D01*
X10000Y80000D02*
X30000Y100000D01*
X15000Y65000D02*
Y70000D01*
X10000Y60000D02*
X15000Y65000D01*
X25000Y80000D02*
X30000D01*
X15000Y70000D02*
X25000Y80000D01*
X55000Y150000D02*
X70000Y135000D01*
X105000D01*
X110000Y130000D01*
X105000Y125000D02*
X110000Y120000D01*
X75000Y125000D02*
X105000D01*
X57500Y142500D02*
X75000Y125000D01*
X45000Y140000D02*
Y150000D01*
Y140000D02*
X70000Y115000D01*
X114000D01*
X50000Y142500D02*
X57500D01*
X87500Y105000D02*
X92500D01*
X85000Y102500D02*
X87500Y105000D01*
X92500D02*
X102500Y95000D01*
X85000Y92500D02*
Y102500D01*
X67500Y75000D02*
X85000Y92500D01*
X25000Y75000D02*
X67500D01*
X90000Y30000D02*
X105000Y45000D01*
D15*
X211063Y125000D02*
Y126437D01*
Y115000D02*
Y125000D01*
X200000Y115000D02*
X211063D01*
X196063Y118937D02*
X200000Y115000D01*
X190000Y118937D02*
X196063D01*
X183937D02*
X190000D01*
X180000Y115000D02*
X183937Y118937D01*
X180000Y95000D02*
Y115000D01*
X175000Y90000D02*
X180000Y95000D01*
X170000Y90000D02*
X175000D01*
X200000Y136063D02*
X211063Y125000D01*
Y126437D02*
X222126Y137500D01*
X240000D01*
X242657Y134843D01*
X200000Y136063D02*
Y150000D01*
X90000Y140000D02*
X110000D01*
X120000Y150000D01*
X235000Y120000D02*
Y127657D01*
X237343Y130000D01*
D16*
X17500Y25000D02*
X32500Y10000D01*
X10000Y25000D02*
X17500D01*
X32500Y10000D02*
X40000D01*
X215472Y65059D02*
X220059D01*
X222500Y67500D01*
X260413D01*
X207598Y65059D02*
X215472D01*
X260413Y67500D02*
X270000Y77087D01*
X280512Y66575D01*
Y39488D02*
Y66575D01*
X270000Y77087D02*
Y150000D01*
X280512Y39488D02*
X290000Y30000D01*
X254921Y50197D02*
X265748D01*
X269094Y53543D01*
Y55118D01*
X252362Y50197D02*
X254921D01*
X247441Y55118D02*
X252362Y50197D01*
X254921Y7874D02*
X256496Y6299D01*
X265748D01*
X253346D02*
X254921Y7874D01*
X244094Y6299D02*
X253346D01*
X120000Y100000D02*
X170000D01*
X115000Y105000D02*
X120000Y100000D01*
X10000Y120000D02*
X25000Y135000D01*
X2500Y32500D02*
Y82500D01*
X10000Y90000D01*
X2500Y97500D02*
X10000Y90000D01*
X2500Y97500D02*
Y112500D01*
X10000Y120000D01*
X59000Y156000D02*
X65000Y150000D01*
X25000Y135000D02*
X40000D01*
Y153000D01*
X43000Y156000D01*
X59000D01*
X105000Y105000D02*
X115000D01*
X90000Y110000D02*
X100000D01*
X105000Y105000D01*
X2500Y32500D02*
X10000Y25000D01*
X40000Y135000D02*
X65000Y110000D01*
X90000D01*
D17*
X187500Y55000D02*
X191850Y59350D01*
Y59941D01*
X225000Y62500D02*
X232382Y55118D01*
X240748D01*
X199724Y40276D02*
Y59941D01*
Y40276D02*
X202500Y37500D01*
X210000D01*
X215000Y42500D01*
D18*
X145669Y-12599D02*
X147768D01*
X146719D01*
Y-15748D01*
X149343D02*
X150392D01*
X150917Y-15223D01*
Y-14174D01*
X150392Y-13649D01*
X149343D01*
X148818Y-14174D01*
Y-15223D01*
X149343Y-15748D01*
X151967Y-16798D02*
Y-13649D01*
X153541D01*
X154066Y-14174D01*
Y-15223D01*
X153541Y-15748D01*
X151967D01*
X158264Y-12599D02*
Y-15748D01*
X160363D01*
X161937Y-13649D02*
X162987D01*
X163511Y-14174D01*
Y-15748D01*
X161937D01*
X161412Y-15223D01*
X161937Y-14698D01*
X163511D01*
X164561Y-13649D02*
Y-15223D01*
X165086Y-15748D01*
X166660D01*
Y-16273D01*
X166135Y-16798D01*
X165610D01*
X166660Y-15748D02*
Y-13649D01*
X169284Y-15748D02*
X168234D01*
X167709Y-15223D01*
Y-14174D01*
X168234Y-13649D01*
X169284D01*
X169808Y-14174D01*
Y-14698D01*
X167709D01*
X170858Y-13649D02*
Y-15748D01*
Y-14698D01*
X171383Y-14174D01*
X171907Y-13649D01*
X172432D01*
X145669Y-20998D02*
X146194Y-20473D01*
X147244D01*
X147768Y-20998D01*
Y-23097D01*
X147244Y-23622D01*
X146194D01*
X145669Y-23097D01*
Y-20998D01*
X148818Y-23622D02*
X149867D01*
X149343D01*
Y-20473D01*
X148818Y-20998D01*
X151442Y-23622D02*
Y-23097D01*
X151967D01*
Y-23622D01*
X151442D01*
X154066Y-20998D02*
X154590Y-20473D01*
X155640D01*
X156165Y-20998D01*
Y-23097D01*
X155640Y-23622D01*
X154590D01*
X154066Y-23097D01*
Y-20998D01*
X157214D02*
X157739Y-20473D01*
X158788D01*
X159313Y-20998D01*
Y-21523D01*
X158788Y-22048D01*
X158264D01*
X158788D01*
X159313Y-22572D01*
Y-23097D01*
X158788Y-23622D01*
X157739D01*
X157214Y-23097D01*
X145669Y-31496D02*
X146719D01*
X146194D01*
Y-28348D01*
X145669Y-28872D01*
X148293D02*
X148818Y-28348D01*
X149867D01*
X150392Y-28872D01*
Y-29397D01*
X149867Y-29922D01*
X149343D01*
X149867D01*
X150392Y-30446D01*
Y-30971D01*
X149867Y-31496D01*
X148818D01*
X148293Y-30971D01*
X151442Y-31496D02*
X153541Y-29397D01*
X154590Y-28872D02*
X155115Y-28348D01*
X156165D01*
X156689Y-28872D01*
Y-30971D01*
X156165Y-31496D01*
X155115D01*
X154590Y-30971D01*
Y-28872D01*
X157739Y-30971D02*
X158264Y-31496D01*
X159313D01*
X159838Y-30971D01*
Y-28872D01*
X159313Y-28348D01*
X158264D01*
X157739Y-28872D01*
Y-29397D01*
X158264Y-29922D01*
X159838D01*
X160888Y-31496D02*
X162987Y-29397D01*
X166135Y-31496D02*
X164036D01*
X166135Y-29397D01*
Y-28872D01*
X165610Y-28348D01*
X164561D01*
X164036Y-28872D01*
X167185D02*
X167709Y-28348D01*
X168759D01*
X169284Y-28872D01*
Y-30971D01*
X168759Y-31496D01*
X167709D01*
X167185Y-30971D01*
Y-28872D01*
X170333Y-31496D02*
X171383D01*
X170858D01*
Y-28348D01*
X170333Y-28872D01*
X172957D02*
X173482Y-28348D01*
X174531D01*
X175056Y-28872D01*
Y-29397D01*
X174531Y-29922D01*
X175056Y-30446D01*
Y-30971D01*
X174531Y-31496D01*
X173482D01*
X172957Y-30971D01*
Y-30446D01*
X173482Y-29922D01*
X172957Y-29397D01*
Y-28872D01*
X173482Y-29922D02*
X174531D01*
X106299Y-31496D02*
Y-28348D01*
X107873D01*
X108398Y-28872D01*
Y-29922D01*
X107873Y-30446D01*
X106299D01*
X109448Y-29397D02*
Y-31496D01*
Y-30446D01*
X109973Y-29922D01*
X110497Y-29397D01*
X111022D01*
X112596Y-31496D02*
X113646D01*
X113121D01*
Y-29397D01*
X112596D01*
X115220Y-31496D02*
Y-29397D01*
X116795D01*
X117319Y-29922D01*
Y-31496D01*
X118894Y-28872D02*
Y-29397D01*
X118369D01*
X119418D01*
X118894D01*
Y-30971D01*
X119418Y-31496D01*
X124141Y-28348D02*
Y-31496D01*
X125715D01*
X126240Y-30971D01*
Y-28872D01*
X125715Y-28348D01*
X124141D01*
X127815Y-29397D02*
X128864D01*
X129389Y-29922D01*
Y-31496D01*
X127815D01*
X127290Y-30971D01*
X127815Y-30446D01*
X129389D01*
X130963Y-28872D02*
Y-29397D01*
X130438D01*
X131488D01*
X130963D01*
Y-30971D01*
X131488Y-31496D01*
X134636D02*
X133587D01*
X133062Y-30971D01*
Y-29922D01*
X133587Y-29397D01*
X134636D01*
X135161Y-29922D01*
Y-30446D01*
X133062D01*
X136211Y-29397D02*
X136736D01*
Y-29922D01*
X136211D01*
Y-29397D01*
Y-30971D02*
X136736D01*
Y-31496D01*
X136211D01*
Y-30971D01*
X106299Y-23622D02*
Y-20473D01*
X107873D01*
X108398Y-20998D01*
Y-22048D01*
X107873Y-22572D01*
X106299D01*
X107349D02*
X108398Y-23622D01*
X111022D02*
X109973D01*
X109448Y-23097D01*
Y-22048D01*
X109973Y-21523D01*
X111022D01*
X111547Y-22048D01*
Y-22572D01*
X109448D01*
X112596Y-21523D02*
X113646Y-23622D01*
X114696Y-21523D01*
X115745Y-23622D02*
X116795D01*
X116270D01*
Y-21523D01*
X115745D01*
X118369Y-23622D02*
X119943D01*
X120468Y-23097D01*
X119943Y-22572D01*
X118894D01*
X118369Y-22048D01*
X118894Y-21523D01*
X120468D01*
X121517Y-23622D02*
X122567D01*
X122042D01*
Y-21523D01*
X121517D01*
X124666Y-23622D02*
X125715D01*
X126240Y-23097D01*
Y-22048D01*
X125715Y-21523D01*
X124666D01*
X124141Y-22048D01*
Y-23097D01*
X124666Y-23622D01*
X127290D02*
Y-21523D01*
X128864D01*
X129389Y-22048D01*
Y-23622D01*
X130438Y-21523D02*
X130963D01*
Y-22048D01*
X130438D01*
Y-21523D01*
Y-23097D02*
X130963D01*
Y-23622D01*
X130438D01*
Y-23097D01*
X106299Y-12599D02*
Y-15748D01*
X108398D01*
X109973Y-13649D02*
X111022D01*
X111547Y-14174D01*
Y-15748D01*
X109973D01*
X109448Y-15223D01*
X109973Y-14698D01*
X111547D01*
X112596Y-13649D02*
Y-15223D01*
X113121Y-15748D01*
X114696D01*
Y-16273D01*
X114171Y-16798D01*
X113646D01*
X114696Y-15748D02*
Y-13649D01*
X117319Y-15748D02*
X116270D01*
X115745Y-15223D01*
Y-14174D01*
X116270Y-13649D01*
X117319D01*
X117844Y-14174D01*
Y-14698D01*
X115745D01*
X118894Y-13649D02*
Y-15748D01*
Y-14698D01*
X119418Y-14174D01*
X119943Y-13649D01*
X120468D01*
X125191Y-15748D02*
Y-12599D01*
X127290Y-15748D01*
Y-12599D01*
X128864Y-13649D02*
X129914D01*
X130438Y-14174D01*
Y-15748D01*
X128864D01*
X128339Y-15223D01*
X128864Y-14698D01*
X130438D01*
X131488Y-15748D02*
Y-13649D01*
X132013D01*
X132537Y-14174D01*
Y-15748D01*
Y-14174D01*
X133062Y-13649D01*
X133587Y-14174D01*
Y-15748D01*
X136211D02*
X135161D01*
X134636Y-15223D01*
Y-14174D01*
X135161Y-13649D01*
X136211D01*
X136736Y-14174D01*
Y-14698D01*
X134636D01*
X137785Y-13649D02*
X138310D01*
Y-14174D01*
X137785D01*
Y-13649D01*
Y-15223D02*
X138310D01*
Y-15748D01*
X137785D01*
Y-15223D01*
D19*
X195000Y12500D02*
D03*
X205000D02*
D03*
X215000D02*
D03*
Y42500D02*
D03*
X205000D02*
D03*
X195000D02*
D03*
D20*
X110000Y50000D02*
D03*
Y60000D02*
D03*
Y70000D02*
D03*
Y80000D02*
D03*
Y90000D02*
D03*
Y100000D02*
D03*
Y110000D02*
D03*
Y120000D02*
D03*
X170000Y60000D02*
D03*
Y70000D02*
D03*
Y80000D02*
D03*
Y90000D02*
D03*
Y100000D02*
D03*
Y110000D02*
D03*
Y120000D02*
D03*
X110000Y130000D02*
D03*
X170000D02*
D03*
X245000Y90000D02*
D03*
X235000D02*
D03*
X245000Y100000D02*
D03*
X235000D02*
D03*
X245000Y110000D02*
D03*
X235000D02*
D03*
X245000Y120000D02*
D03*
X60000Y30000D02*
D03*
X80000D02*
D03*
X70000D02*
D03*
X80000Y95000D02*
D03*
Y105000D02*
D03*
X90000Y30000D02*
D03*
Y40000D02*
D03*
Y50000D02*
D03*
Y60000D02*
D03*
Y70000D02*
D03*
Y80000D02*
D03*
Y90000D02*
D03*
Y100000D02*
D03*
Y110000D02*
D03*
Y120000D02*
D03*
Y130000D02*
D03*
X30000D02*
D03*
Y120000D02*
D03*
Y110000D02*
D03*
Y100000D02*
D03*
Y90000D02*
D03*
Y80000D02*
D03*
Y70000D02*
D03*
Y60000D02*
D03*
Y50000D02*
D03*
Y40000D02*
D03*
Y30000D02*
D03*
X35000Y150000D02*
D03*
X45000D02*
D03*
X55000D02*
D03*
X65000D02*
D03*
X75000D02*
D03*
X85000D02*
D03*
X290000Y60000D02*
D03*
Y50000D02*
D03*
Y40000D02*
D03*
X90000Y10000D02*
D03*
X80000D02*
D03*
X70000D02*
D03*
X60000D02*
D03*
X50000D02*
D03*
X220000Y150000D02*
D03*
X230000D02*
D03*
X240000D02*
D03*
X250000D02*
D03*
X260000D02*
D03*
X10000Y110000D02*
D03*
Y40000D02*
D03*
Y50000D02*
D03*
Y60000D02*
D03*
Y70000D02*
D03*
Y80000D02*
D03*
X190000Y150000D02*
D03*
X110000D02*
D03*
D21*
X170000Y50000D02*
D03*
X40000Y10000D02*
D03*
X270000Y150000D02*
D03*
X200000D02*
D03*
X120000D02*
D03*
D22*
X211063Y115000D02*
D03*
D23*
X218937D02*
D03*
X190000Y111063D02*
D03*
D24*
Y118937D02*
D03*
D25*
X191500Y96000D02*
D03*
X162500Y95000D02*
D03*
X32500Y20000D02*
D03*
X40000Y22500D02*
D03*
X247500Y72500D02*
D03*
X255000Y60000D02*
D03*
X225000Y62500D02*
D03*
X187500Y55000D02*
D03*
X222500Y52500D02*
D03*
Y67500D02*
D03*
X254921Y50197D02*
D03*
Y7874D02*
D03*
X150000Y25000D02*
D03*
X155000Y27500D02*
D03*
Y50000D02*
D03*
X150000Y47500D02*
D03*
X70000Y105000D02*
D03*
Y142500D02*
D03*
X255000Y122500D02*
D03*
X240000Y80000D02*
D03*
X120000Y55000D02*
D03*
X122000Y107000D02*
D03*
X47500Y42500D02*
D03*
X52500Y40000D02*
D03*
X65000D02*
D03*
X75000D02*
D03*
X40000Y80000D02*
D03*
X50000Y142500D02*
D03*
X25000Y75000D02*
D03*
D26*
X11811Y11811D02*
D03*
Y148189D02*
D03*
X288189D02*
D03*
Y11811D02*
D03*
M02*
