M48
;Layer_Color=9474304
;FILE_FORMAT=2:5
INCH,LZ
;TYPE=PLATED
T1F00S00C0.02800
T2F00S00C0.03000
T3F00S00C0.03543
T4F00S00C0.10630
T5F00S00C0.11811
%
T01
X-00125Y-03325
X-0022Y-0258
X-004Y-0259
X-00695
X-0139Y-0248
X-0142Y-0231
Y-0222
X-0139Y-02155
X-0132
X-0124Y-02135
X-01375Y-01845
X-01685Y-02
X-0158Y-02155
X-0183Y-0247
X-0195Y-0249
X-018Y-0093
X-01705
X-01425Y-00545
X-0142Y-0045
X-0064Y-0044
T02
X-019Y-034
Y-032
Y-03
Y-028
X-007Y-032
X-006
X-004
X-003
X-001
X0
X-0045Y-0025
X-0055
X-0065
X-0075
X-0085
X-0095
X-0105
X-0115
T03
X-0125Y-0205
X-0115
X-0105
X-0095
Y-0195
X-0105
X-0115
X-0125
X-012Y-015
X-011
X-01
X-009
X-008
X-007
X-006
X-005
X-004
X-003
X-002
X-001
Y-014
Y-013
Y-012
Y-011
X-002
Y-012
Y-013
Y-014
X-003
Y-013
Y-012
Y-011
X-004
Y-012
Y-013
Y-014
X-005
Y-013
Y-012
Y-011
X-006
Y-012
Y-013
Y-014
X-007
Y-013
Y-012
Y-011
X-008
Y-012
Y-013
Y-014
X-009
Y-013
Y-012
Y-011
X-01
Y-012
Y-013
Y-014
X-011
Y-013
Y-012
Y-011
X-012
Y-012
Y-013
Y-014
X-013
Y-015
X-014
X-015
Y-014
Y-013
Y-012
Y-011
X-014
Y-012
Y-013
Y-014
X-013Y-013
Y-012
Y-011
X-016
Y-012
Y-013
Y-014
Y-015
X-0187894Y-0149173
X-0197894
Y-0159173
Y-0169173
Y-0179173
Y-0189173
Y-0199173
Y-0209173
X-0187894
Y-0199173
Y-0189173
Y-0179173
Y-0169173
Y-0159173
Y-0139173
X-0197894
Y-0129173
Y-0119173
X-0187894
Y-0129173
Y-0109173
X-0197894
Y-0099173
Y-0089173
Y-0079173
Y-0069173
Y-0059173
Y-0049173
Y-0039173
Y-0029173
Y-0019173
X-0187894
Y-0029173
Y-0039173
Y-0049173
Y-0059173
Y-0069173
Y-0079173
Y-0089173
Y-0099173
X-016Y-01
Y-009
Y-008
Y-007
X-015
Y-008
Y-009
Y-01
X-014
Y-009
Y-008
Y-007
X-013
X-012
X-011
X-01
X-009
X-008
X-007
X-006
X-005
X-004
X-003
X-002
X-001
Y-008
Y-009
Y-01
X-002
Y-009
Y-008
X-003
Y-009
Y-01
X-004
Y-009
Y-008
X-005
Y-009
Y-01
X-006
Y-009
Y-008
X-007
Y-009
Y-01
X-008
Y-009
Y-008
X-009
Y-009
Y-01
X-01
Y-009
Y-008
X-011
Y-009
Y-01
X-012
Y-009
Y-008
X-013
Y-009
Y-01
T04
X0Y-0228346
X-0192913
Y0
X0
T05
X-016Y-028
X0
M30
