M48
;Layer_Color=9474304
;FILE_FORMAT=2:5
INCH,LZ
;TYPE=PLATED
T1F00S00C0.02800
T2F00S00C0.03000
T3F00S00C0.03543
T4F00S00C0.05118
T5F00S00C0.06299
%
T01
X0155983Y0022348
X0047983Y0027
X0023983Y0033348
Y0045348
X0005Y006
X001Y007
X0124983Y0063348
X0155983Y0056348
T02
X0116983Y00075
Y00175
Y0035
Y0045
Y00625
Y00725
T03
X0136983Y0005
Y0015
Y0025
Y0035
Y0045
X0146983
Y0035
Y0025
Y0015
Y0005
X0036983Y001
X0026983
X0016983
X0006983
Y002
X0016983
X0026983
X0036983
X0136983Y0055
Y0065
Y0075
X0146983
Y0065
Y0055
T04
X0171904Y0011142
Y0028858
Y0051142
Y0068858
T05
X0162061Y0006221
Y003378
Y004622
Y007378
M30
