%FSLAX44Y44*%
%MOMM*%
G71*
G01*
G75*
G04 Layer_Color=8421504*
%ADD10C,0.3810*%
%ADD11R,1.6000X1.6000*%
%ADD12R,0.8000X0.3000*%
%ADD13R,0.3000X0.8000*%
%ADD14R,1.9000X1.2000*%
%ADD15R,1.9000X1.6000*%
%ADD16R,2.0000X2.1000*%
%ADD17R,1.3500X0.4000*%
%ADD18R,1.1000X1.9000*%
%ADD19R,0.6000X0.5000*%
%ADD20R,0.5000X0.6000*%
%ADD21R,2.4000X1.9000*%
%ADD22R,1.1000X1.0000*%
%ADD23R,0.8000X0.9000*%
%ADD24R,0.9000X0.8000*%
%ADD25O,2.1000X0.3500*%
%ADD26R,0.6900X1.2000*%
%ADD27R,0.7000X0.7000*%
%ADD28O,1.5000X0.4500*%
%ADD29O,0.4500X1.5000*%
%ADD30R,1.5000X1.5000*%
%ADD31C,0.3000*%
%ADD32C,0.6020*%
%ADD33C,0.6000*%
%ADD34C,1.2600*%
%ADD35C,0.6010*%
%ADD36C,0.5000*%
%ADD37C,0.2540*%
%ADD38C,0.1000*%
%ADD39C,1.5000*%
%ADD40R,1.5000X1.5000*%
%ADD41C,2.2000*%
%ADD42C,1.2700*%
%ADD43C,1.0000*%
%ADD44C,5.0000*%
%ADD45C,0.7000*%
%ADD46C,0.2500*%
%ADD47C,0.2000*%
%ADD48C,0.0500*%
%ADD49R,0.2500X1.4000*%
D11*
X148080Y173080D02*
D03*
D12*
X128580Y183080D02*
D03*
X167580Y163080D02*
D03*
Y168080D02*
D03*
Y173080D02*
D03*
Y178080D02*
D03*
Y183080D02*
D03*
X128580D02*
D03*
Y178080D02*
D03*
Y173080D02*
D03*
Y168080D02*
D03*
Y163080D02*
D03*
D13*
X138080Y153580D02*
D03*
X143080D02*
D03*
X148080D02*
D03*
X153080D02*
D03*
X158080D02*
D03*
Y192580D02*
D03*
X153080D02*
D03*
X148080D02*
D03*
X143080D02*
D03*
X138080D02*
D03*
D14*
X366010Y115500D02*
D03*
X366000Y132500D02*
D03*
D15*
X366010Y83000D02*
D03*
Y165000D02*
D03*
D16*
X340510Y93000D02*
D03*
X340500Y155000D02*
D03*
D17*
X339510Y111000D02*
D03*
Y117500D02*
D03*
Y124000D02*
D03*
Y130500D02*
D03*
Y137000D02*
D03*
D18*
X98580Y178580D02*
D03*
X75580Y141580D02*
D03*
X98580D02*
D03*
X75580Y178580D02*
D03*
D19*
X305990Y123952D02*
D03*
X295990D02*
D03*
X111080Y207080D02*
D03*
X101080D02*
D03*
X130000Y130000D02*
D03*
X140000D02*
D03*
X140000Y140000D02*
D03*
X150000D02*
D03*
X68000Y196000D02*
D03*
X78000D02*
D03*
X162000Y100000D02*
D03*
X172000D02*
D03*
X90250Y124500D02*
D03*
X80250D02*
D03*
X68000Y317000D02*
D03*
X58000D02*
D03*
D20*
X317500Y165020D02*
D03*
Y155020D02*
D03*
X114080Y170080D02*
D03*
Y160080D02*
D03*
X80080Y325080D02*
D03*
Y335080D02*
D03*
X151000Y129000D02*
D03*
Y119000D02*
D03*
X271000Y195000D02*
D03*
Y205000D02*
D03*
X271080Y171080D02*
D03*
Y181080D02*
D03*
X322080Y264080D02*
D03*
Y254080D02*
D03*
X228080Y142080D02*
D03*
Y132080D02*
D03*
X120000Y119000D02*
D03*
Y109000D02*
D03*
X130000Y119000D02*
D03*
Y109000D02*
D03*
X181000Y183000D02*
D03*
Y193000D02*
D03*
X151000Y108000D02*
D03*
Y98000D02*
D03*
X181000Y171000D02*
D03*
Y161000D02*
D03*
X192000Y171000D02*
D03*
Y161000D02*
D03*
X204080Y262080D02*
D03*
Y252080D02*
D03*
X40080Y259080D02*
D03*
Y249080D02*
D03*
X204080Y288080D02*
D03*
Y298080D02*
D03*
X114000Y343000D02*
D03*
Y353000D02*
D03*
X181000Y139000D02*
D03*
Y149000D02*
D03*
D21*
X64080Y257580D02*
D03*
D03*
Y298580D02*
D03*
D22*
X227500Y157000D02*
D03*
X244500D02*
D03*
X67500Y220000D02*
D03*
X84500D02*
D03*
D23*
X275080Y157080D02*
D03*
X261080D02*
D03*
D24*
X210000Y194000D02*
D03*
Y208000D02*
D03*
D25*
X232580Y325330D02*
D03*
Y318830D02*
D03*
Y312330D02*
D03*
Y305830D02*
D03*
Y299330D02*
D03*
Y292830D02*
D03*
Y286330D02*
D03*
Y279830D02*
D03*
Y273330D02*
D03*
Y266830D02*
D03*
Y260330D02*
D03*
Y253830D02*
D03*
Y247330D02*
D03*
Y240830D02*
D03*
X301580Y325330D02*
D03*
Y318830D02*
D03*
Y312330D02*
D03*
Y305830D02*
D03*
Y299330D02*
D03*
Y292830D02*
D03*
Y286330D02*
D03*
Y279830D02*
D03*
Y273330D02*
D03*
Y266830D02*
D03*
Y260330D02*
D03*
Y253830D02*
D03*
Y247330D02*
D03*
Y240830D02*
D03*
D26*
X237580Y205080D02*
D03*
X256580D02*
D03*
X237580Y179079D02*
D03*
X247080D02*
D03*
X256580D02*
D03*
D27*
X264580Y140080D02*
D03*
X253580D02*
D03*
D28*
X186080Y281080D02*
D03*
Y273080D02*
D03*
Y257080D02*
D03*
Y265080D02*
D03*
Y297080D02*
D03*
Y289080D02*
D03*
Y305080D02*
D03*
Y313080D02*
D03*
X102080D02*
D03*
Y305080D02*
D03*
Y281080D02*
D03*
Y273080D02*
D03*
Y257080D02*
D03*
Y265080D02*
D03*
Y297080D02*
D03*
Y289080D02*
D03*
D29*
X116080Y243080D02*
D03*
X124080D02*
D03*
X132080D02*
D03*
X140080D02*
D03*
X148080D02*
D03*
X156080D02*
D03*
X164080D02*
D03*
X172080D02*
D03*
X116080Y327080D02*
D03*
X124080D02*
D03*
X132080D02*
D03*
X140080D02*
D03*
X148080D02*
D03*
X156080D02*
D03*
X164080D02*
D03*
X172080D02*
D03*
D30*
X69000Y382540D02*
D03*
X147000D02*
D03*
D38*
X144780Y458847D02*
X150112D01*
X147446D01*
Y450850D01*
X154110D02*
X156776D01*
X158109Y452183D01*
Y454849D01*
X156776Y456182D01*
X154110D01*
X152777Y454849D01*
Y452183D01*
X154110Y450850D01*
X160775Y448184D02*
Y456182D01*
X164774D01*
X166106Y454849D01*
Y452183D01*
X164774Y450850D01*
X160775D01*
X176770D02*
Y458847D01*
X180768D01*
X182101Y457514D01*
Y454849D01*
X180768Y453516D01*
X176770D01*
X186100Y456182D02*
X188766D01*
X190099Y454849D01*
Y450850D01*
X186100D01*
X184767Y452183D01*
X186100Y453516D01*
X190099D01*
X192764Y450850D02*
X196763D01*
X198096Y452183D01*
X196763Y453516D01*
X194097D01*
X192764Y454849D01*
X194097Y456182D01*
X198096D01*
X202095Y457514D02*
Y456182D01*
X200762D01*
X203428D01*
X202095D01*
Y452183D01*
X203428Y450850D01*
X211425D02*
X208759D01*
X207426Y452183D01*
Y454849D01*
X208759Y456182D01*
X211425D01*
X212758Y454849D01*
Y453516D01*
X207426D01*
M02*
