%FSLAX44Y44*%
%MOMM*%
G71*
G01*
G75*
G04 Layer_Color=65535*
%ADD10C,0.3810*%
%ADD11R,0.8000X0.9000*%
%ADD12R,0.6000X0.5000*%
%ADD13R,0.5000X0.6000*%
%ADD14R,1.3000X1.5000*%
%ADD15R,1.0000X1.1000*%
%ADD16R,1.1000X1.0000*%
%ADD17R,1.5000X1.5000*%
%ADD18R,1.5000X1.5000*%
%ADD19O,1.5000X0.4500*%
%ADD20O,0.4500X1.5000*%
%ADD21R,0.8000X0.3000*%
%ADD22R,0.3000X0.8000*%
%ADD23R,1.6000X1.6000*%
%ADD24O,2.1000X0.3500*%
%ADD25R,0.6900X1.2000*%
%ADD26R,1.9000X1.9000*%
%ADD27R,1.9000X1.8000*%
%ADD28R,1.6000X2.1000*%
%ADD29R,1.3500X0.4000*%
%ADD30R,2.4000X1.9000*%
%ADD31R,1.1000X1.9000*%
%ADD32C,0.5000*%
%ADD33C,0.3000*%
%ADD34C,0.2540*%
%ADD35C,0.6000*%
%ADD36C,0.6010*%
%ADD37C,0.6020*%
%ADD38C,1.2600*%
%ADD39C,0.1000*%
%ADD40C,1.5000*%
%ADD41R,2.2000X2.2000*%
%ADD42C,2.3000*%
%ADD43C,1.2700*%
%ADD44C,1.0000*%
%ADD45C,0.7000*%
%ADD46C,5.0000*%
%ADD47C,0.2500*%
%ADD48C,0.2000*%
%ADD49C,0.0500*%
%ADD50R,0.2500X1.4000*%
D34*
X102394Y127886D02*
G03*
X102394Y127886I-764J0D01*
G01*
X76000Y402540D02*
X140000D01*
Y393540D02*
Y402540D01*
X76000Y393540D02*
Y402540D01*
Y362540D02*
X140000D01*
Y371540D01*
X76000Y362540D02*
Y371540D01*
X64000Y24000D02*
Y88000D01*
X73000D01*
X64000Y24000D02*
X73000D01*
X104000D02*
Y88000D01*
X95000D02*
X104000D01*
X95000Y24000D02*
X104000D01*
D39*
X144780Y458847D02*
X150112D01*
X147446D01*
Y450850D01*
X154110D02*
X156776D01*
X158109Y452183D01*
Y454849D01*
X156776Y456182D01*
X154110D01*
X152777Y454849D01*
Y452183D01*
X154110Y450850D01*
X160775Y448184D02*
Y456182D01*
X164774D01*
X166106Y454849D01*
Y452183D01*
X164774Y450850D01*
X160775D01*
X180768Y458847D02*
X178103D01*
X176770Y457514D01*
Y452183D01*
X178103Y450850D01*
X180768D01*
X182101Y452183D01*
Y457514D01*
X180768Y458847D01*
X184767Y456182D02*
X187433Y450850D01*
X190099Y456182D01*
X196763Y450850D02*
X194097D01*
X192764Y452183D01*
Y454849D01*
X194097Y456182D01*
X196763D01*
X198096Y454849D01*
Y453516D01*
X192764D01*
X200762Y456182D02*
Y450850D01*
Y453516D01*
X202095Y454849D01*
X203428Y456182D01*
X204761D01*
X208759Y450850D02*
X211425D01*
X210092D01*
Y458847D01*
X208759D01*
X216757Y456182D02*
X219423D01*
X220756Y454849D01*
Y450850D01*
X216757D01*
X215424Y452183D01*
X216757Y453516D01*
X220756D01*
X223421Y456182D02*
Y452183D01*
X224754Y450850D01*
X228753D01*
Y449517D01*
X227420Y448184D01*
X226087D01*
X228753Y450850D02*
Y456182D01*
D47*
X102830Y322580D02*
G03*
X102830Y322580I-1250J0D01*
G01*
X229830Y332580D02*
G03*
X229830Y332580I-1250J0D01*
G01*
D48*
X165100Y393700D02*
X317500D01*
X165100Y368300D02*
X317500D01*
Y393700D01*
X165100Y368300D02*
Y393700D01*
X138000Y87000D02*
X161620D01*
X138000Y18000D02*
X161620D01*
X116000Y41500D02*
Y65120D01*
X184000Y41500D02*
Y65120D01*
X203200Y12700D02*
Y61383D01*
Y12700D02*
Y88900D01*
X254000Y12700D02*
Y88900D01*
X203200D02*
X254000D01*
X203200Y12700D02*
X254000D01*
X317500D02*
Y38100D01*
X266700Y12700D02*
X317500D01*
X266700D02*
Y38100D01*
X317500D01*
X107080Y322080D02*
X110580D01*
X107080Y318580D02*
Y322080D01*
Y248080D02*
Y251580D01*
Y248080D02*
X110580D01*
X177580D02*
X181080D01*
Y251580D01*
X177580Y322080D02*
X181080D01*
Y318580D02*
Y322080D01*
X163080Y195080D02*
X170080D01*
Y188080D02*
Y195080D01*
X164937Y191223D02*
X166080Y190080D01*
X126080Y195080D02*
X133080D01*
X126080Y188080D02*
Y195080D01*
Y151080D02*
Y158080D01*
Y151080D02*
X133080D01*
X163080D02*
X170080D01*
Y158080D01*
X237080Y228580D02*
Y236580D01*
Y228580D02*
X297080D01*
Y236580D01*
X237080Y329580D02*
Y337580D01*
X297080D01*
Y329580D02*
Y337580D01*
X264080Y184372D02*
Y200580D01*
X243580Y202580D02*
X250580D01*
X230080Y184372D02*
Y200580D01*
X330244Y71952D02*
Y175952D01*
X380244D01*
X330244Y71952D02*
X379244D01*
X79080Y305330D02*
X82080D01*
Y250830D02*
Y305330D01*
X79080Y250830D02*
X82080D01*
X46080Y305580D02*
X49080D01*
X46080Y251080D02*
Y305580D01*
Y251080D02*
X49080D01*
X69080Y154080D02*
Y166080D01*
X105080Y154080D02*
Y166080D01*
X83580Y133080D02*
X90580D01*
X83580Y187080D02*
X90580D01*
X38100Y63500D02*
Y241300D01*
X12700D02*
X38100D01*
X12700Y63500D02*
Y241300D01*
Y63500D02*
X38100D01*
X342900Y190500D02*
Y368300D01*
Y190500D02*
X368300D01*
Y368300D01*
X342900D02*
X368300D01*
X49335Y61332D02*
X48003Y59999D01*
Y57333D01*
X49335Y56000D01*
X50668D01*
X52001Y57333D01*
Y59999D01*
X53334Y61332D01*
X54667D01*
X56000Y59999D01*
Y57333D01*
X54667Y56000D01*
X56000Y69329D02*
Y63997D01*
X50668Y69329D01*
X49335D01*
X48003Y67996D01*
Y65330D01*
X49335Y63997D01*
X51816Y93980D02*
X43819D01*
Y97979D01*
X45152Y99312D01*
X47817D01*
X49150Y97979D01*
Y93980D01*
Y96646D02*
X51816Y99312D01*
X43819Y101977D02*
Y107309D01*
X45152D01*
X50483Y101977D01*
X51816D01*
X317123Y116840D02*
X323787D01*
X325120Y118173D01*
Y120839D01*
X323787Y122172D01*
X317123D01*
X318456Y130169D02*
X317123Y128836D01*
Y126170D01*
X318456Y124837D01*
X319788D01*
X321121Y126170D01*
Y128836D01*
X322454Y130169D01*
X323787D01*
X325120Y128836D01*
Y126170D01*
X323787Y124837D01*
X317123Y132835D02*
X325120D01*
Y136834D01*
X323787Y138166D01*
X322454D01*
X321121Y136834D01*
Y132835D01*
Y136834D01*
X319788Y138166D01*
X318456D01*
X317123Y136834D01*
Y132835D01*
X84072Y357184D02*
X82739Y358517D01*
X80073D01*
X78740Y357184D01*
Y355852D01*
X80073Y354519D01*
X82739D01*
X84072Y353186D01*
Y351853D01*
X82739Y350520D01*
X80073D01*
X78740Y351853D01*
X86737Y350520D02*
X89403D01*
X88070D01*
Y358517D01*
X86737Y357184D01*
X60000Y239997D02*
Y232000D01*
X65332D01*
X73329Y239997D02*
X67997D01*
Y232000D01*
X73329D01*
X67997Y235999D02*
X70663D01*
X75995Y239997D02*
Y232000D01*
X79994D01*
X81327Y233333D01*
Y238664D01*
X79994Y239997D01*
X75995D01*
X83992Y232000D02*
X86658D01*
X85325D01*
Y239997D01*
X83992Y238664D01*
X274000Y44000D02*
Y51997D01*
X277999D01*
X279332Y50665D01*
Y47999D01*
X277999Y46666D01*
X274000D01*
X285996Y51997D02*
X283330D01*
X281997Y50665D01*
Y45333D01*
X283330Y44000D01*
X285996D01*
X287329Y45333D01*
Y50665D01*
X285996Y51997D01*
X289995D02*
Y44000D01*
X292661Y46666D01*
X295326Y44000D01*
Y51997D01*
X303324D02*
X297992D01*
Y44000D01*
X303324D01*
X297992Y47999D02*
X300658D01*
X305990Y44000D02*
Y51997D01*
X309988D01*
X311321Y50665D01*
Y47999D01*
X309988Y46666D01*
X305990D01*
X308655D02*
X311321Y44000D01*
X261080Y350078D02*
Y343413D01*
X262413Y342080D01*
X265079D01*
X266412Y343413D01*
Y350078D01*
X269078Y348745D02*
X270411Y350078D01*
X273076D01*
X274409Y348745D01*
Y347412D01*
X273076Y346079D01*
X271744D01*
X273076D01*
X274409Y344746D01*
Y343413D01*
X273076Y342080D01*
X270411D01*
X269078Y343413D01*
X286602Y151552D02*
X285269Y152885D01*
X282603D01*
X281270Y151552D01*
Y146221D01*
X282603Y144888D01*
X285269D01*
X286602Y146221D01*
X294599Y144888D02*
X289267D01*
X294599Y150220D01*
Y151552D01*
X293266Y152885D01*
X290600D01*
X289267Y151552D01*
X297265D02*
X298598Y152885D01*
X301264D01*
X302596Y151552D01*
Y146221D01*
X301264Y144888D01*
X298598D01*
X297265Y146221D01*
Y151552D01*
X281355Y171951D02*
X280022Y170618D01*
Y167953D01*
X281355Y166620D01*
X286687D01*
X288020Y167953D01*
Y170618D01*
X286687Y171951D01*
X288020Y174617D02*
Y177283D01*
Y175950D01*
X280022D01*
X281355Y174617D01*
X286687Y181282D02*
X288020Y182615D01*
Y185280D01*
X286687Y186613D01*
X281355D01*
X280022Y185280D01*
Y182615D01*
X281355Y181282D01*
X282688D01*
X284021Y182615D01*
Y186613D01*
X205738Y198943D02*
X204405Y200275D01*
X201739D01*
X200406Y198943D01*
Y193611D01*
X201739Y192278D01*
X204405D01*
X205738Y193611D01*
X208403Y192278D02*
X211069D01*
X209736D01*
Y200275D01*
X208403Y198943D01*
X215068D02*
X216401Y200275D01*
X219067D01*
X220400Y198943D01*
Y197610D01*
X219067Y196277D01*
X220400Y194944D01*
Y193611D01*
X219067Y192278D01*
X216401D01*
X215068Y193611D01*
Y194944D01*
X216401Y196277D01*
X215068Y197610D01*
Y198943D01*
X216401Y196277D02*
X219067D01*
X320416Y231412D02*
X319083Y230079D01*
Y227413D01*
X320416Y226080D01*
X325747D01*
X327080Y227413D01*
Y230079D01*
X325747Y231412D01*
X327080Y234078D02*
Y236744D01*
Y235411D01*
X319083D01*
X320416Y234078D01*
X319083Y240742D02*
Y246074D01*
X320416D01*
X325747Y240742D01*
X327080D01*
X210606Y134220D02*
X209273Y132887D01*
Y130221D01*
X210606Y128888D01*
X215937D01*
X217270Y130221D01*
Y132887D01*
X215937Y134220D01*
X217270Y136885D02*
Y139551D01*
Y138218D01*
X209273D01*
X210606Y136885D01*
X209273Y148882D02*
X210606Y146216D01*
X213271Y143550D01*
X215937D01*
X217270Y144883D01*
Y147549D01*
X215937Y148882D01*
X214604D01*
X213271Y147549D01*
Y143550D01*
X58083Y153080D02*
X59416D01*
X62081Y155746D01*
X59416Y158412D01*
X58083D01*
X62081Y155746D02*
X66080D01*
Y166409D02*
Y161078D01*
X60749Y166409D01*
X59416D01*
X58083Y165076D01*
Y162411D01*
X59416Y161078D01*
X34083Y273080D02*
X35416D01*
X38082Y275746D01*
X35416Y278412D01*
X34083D01*
X38082Y275746D02*
X42080D01*
Y281078D02*
Y283743D01*
Y282411D01*
X34083D01*
X35416Y281078D01*
X147750Y210747D02*
Y204083D01*
X149083Y202750D01*
X151749D01*
X153082Y204083D01*
Y210747D01*
X161079Y202750D02*
X155747D01*
X161079Y208082D01*
Y209415D01*
X159746Y210747D01*
X157080D01*
X155747Y209415D01*
X155080Y348078D02*
Y341413D01*
X156413Y340080D01*
X159079D01*
X160412Y341413D01*
Y348078D01*
X163078Y340080D02*
X165744D01*
X164411D01*
Y348078D01*
X163078Y346745D01*
X117280Y138620D02*
X109283D01*
Y142619D01*
X110616Y143952D01*
X113281D01*
X114614Y142619D01*
Y138620D01*
Y141286D02*
X117280Y143952D01*
X110616Y146617D02*
X109283Y147950D01*
Y150616D01*
X110616Y151949D01*
X111948D01*
X113281Y150616D01*
Y149283D01*
Y150616D01*
X114614Y151949D01*
X115947D01*
X117280Y150616D01*
Y147950D01*
X115947Y146617D01*
X195580Y137160D02*
X187583D01*
Y141159D01*
X188916Y142492D01*
X191581D01*
X192914Y141159D01*
Y137160D01*
Y139826D02*
X195580Y142492D01*
Y150489D02*
Y145157D01*
X190248Y150489D01*
X188916D01*
X187583Y149156D01*
Y146490D01*
X188916Y145157D01*
X73080Y325080D02*
X65083D01*
Y329079D01*
X66416Y330412D01*
X69082D01*
X70415Y329079D01*
Y325080D01*
Y327746D02*
X73080Y330412D01*
Y333078D02*
Y335743D01*
Y334411D01*
X65083D01*
X66416Y333078D01*
X109000Y134997D02*
Y127000D01*
X114332D01*
X116997Y133665D02*
X118330Y134997D01*
X120996D01*
X122329Y133665D01*
Y132332D01*
X120996Y130999D01*
X119663D01*
X120996D01*
X122329Y129666D01*
Y128333D01*
X120996Y127000D01*
X118330D01*
X116997Y128333D01*
X158450Y144127D02*
Y136130D01*
X163782D01*
X171779D02*
X166447D01*
X171779Y141462D01*
Y142795D01*
X170446Y144127D01*
X167780D01*
X166447Y142795D01*
X137003Y113000D02*
X145000D01*
Y118332D01*
Y120997D02*
Y123663D01*
Y122330D01*
X137003D01*
X138336Y120997D01*
X95697Y101598D02*
X94365Y100265D01*
Y97599D01*
X95697Y96266D01*
X101029D01*
X102362Y97599D01*
Y100265D01*
X101029Y101598D01*
X102362Y104263D02*
Y106929D01*
Y105596D01*
X94365D01*
X95697Y104263D01*
X102362Y114927D02*
X94365D01*
X98363Y110928D01*
Y116260D01*
X106620Y100836D02*
X105287Y99503D01*
Y96837D01*
X106620Y95504D01*
X111951D01*
X113284Y96837D01*
Y99503D01*
X111951Y100836D01*
X113284Y103501D02*
Y106167D01*
Y104834D01*
X105287D01*
X106620Y103501D01*
Y110166D02*
X105287Y111499D01*
Y114165D01*
X106620Y115498D01*
X107952D01*
X109285Y114165D01*
Y112832D01*
Y114165D01*
X110618Y115498D01*
X111951D01*
X113284Y114165D01*
Y111499D01*
X111951Y110166D01*
X68251Y208584D02*
X66919Y209917D01*
X64253D01*
X62920Y208584D01*
Y203253D01*
X64253Y201920D01*
X66919D01*
X68251Y203253D01*
X70917Y201920D02*
X73583D01*
X72250D01*
Y209917D01*
X70917Y208584D01*
X82913Y201920D02*
X77582D01*
X82913Y207251D01*
Y208584D01*
X81580Y209917D01*
X78915D01*
X77582Y208584D01*
X189335Y184332D02*
X188003Y182999D01*
Y180333D01*
X189335Y179000D01*
X194667D01*
X196000Y180333D01*
Y182999D01*
X194667Y184332D01*
X196000Y186997D02*
Y189663D01*
Y188330D01*
X188003D01*
X189335Y186997D01*
X196000Y193662D02*
Y196328D01*
Y194995D01*
X188003D01*
X189335Y193662D01*
X165332Y112664D02*
X163999Y113997D01*
X161333D01*
X160000Y112664D01*
Y107333D01*
X161333Y106000D01*
X163999D01*
X165332Y107333D01*
X167997Y106000D02*
X170663D01*
X169330D01*
Y113997D01*
X167997Y112664D01*
X174662D02*
X175995Y113997D01*
X178661D01*
X179993Y112664D01*
Y107333D01*
X178661Y106000D01*
X175995D01*
X174662Y107333D01*
Y112664D01*
X65251Y126084D02*
X63918Y127417D01*
X61253D01*
X59920Y126084D01*
Y120753D01*
X61253Y119420D01*
X63918D01*
X65251Y120753D01*
X67917D02*
X69250Y119420D01*
X71916D01*
X73249Y120753D01*
Y126084D01*
X71916Y127417D01*
X69250D01*
X67917Y126084D01*
Y124751D01*
X69250Y123418D01*
X73249D01*
X138336Y99332D02*
X137003Y97999D01*
Y95333D01*
X138336Y94000D01*
X143667D01*
X145000Y95333D01*
Y97999D01*
X143667Y99332D01*
X138336Y101997D02*
X137003Y103330D01*
Y105996D01*
X138336Y107329D01*
X139668D01*
X141001Y105996D01*
X142334Y107329D01*
X143667D01*
X145000Y105996D01*
Y103330D01*
X143667Y101997D01*
X142334D01*
X141001Y103330D01*
X139668Y101997D01*
X138336D01*
X141001Y103330D02*
Y105996D01*
X200835Y165292D02*
X199503Y163959D01*
Y161293D01*
X200835Y159960D01*
X206167D01*
X207500Y161293D01*
Y163959D01*
X206167Y165292D01*
X199503Y167957D02*
Y173289D01*
X200835D01*
X206167Y167957D01*
X207500D01*
X211686Y165252D02*
X210353Y163919D01*
Y161253D01*
X211686Y159920D01*
X217017D01*
X218350Y161253D01*
Y163919D01*
X217017Y165252D01*
X210353Y173249D02*
X211686Y170583D01*
X214351Y167917D01*
X217017D01*
X218350Y169250D01*
Y171916D01*
X217017Y173249D01*
X215684D01*
X214351Y171916D01*
Y167917D01*
X201336Y236832D02*
X200003Y235499D01*
Y232833D01*
X201336Y231500D01*
X206667D01*
X208000Y232833D01*
Y235499D01*
X206667Y236832D01*
X200003Y244829D02*
Y239497D01*
X204001D01*
X202668Y242163D01*
Y243496D01*
X204001Y244829D01*
X206667D01*
X208000Y243496D01*
Y240830D01*
X206667Y239497D01*
X26416Y254412D02*
X25083Y253079D01*
Y250413D01*
X26416Y249080D01*
X31747D01*
X33080Y250413D01*
Y253079D01*
X31747Y254412D01*
X33080Y261076D02*
X25083D01*
X29081Y257078D01*
Y262409D01*
X42332Y320664D02*
X40999Y321997D01*
X38333D01*
X37000Y320664D01*
Y315333D01*
X38333Y314000D01*
X40999D01*
X42332Y315333D01*
X44997Y320664D02*
X46330Y321997D01*
X48996D01*
X50329Y320664D01*
Y319332D01*
X48996Y317999D01*
X47663D01*
X48996D01*
X50329Y316666D01*
Y315333D01*
X48996Y314000D01*
X46330D01*
X44997Y315333D01*
X198085Y310582D02*
X196753Y309249D01*
Y306583D01*
X198085Y305250D01*
X203417D01*
X204750Y306583D01*
Y309249D01*
X203417Y310582D01*
X204750Y318579D02*
Y313247D01*
X199418Y318579D01*
X198085D01*
X196753Y317246D01*
Y314580D01*
X198085Y313247D01*
X148980Y365565D02*
X147648Y366898D01*
X144982D01*
X143649Y365565D01*
Y360233D01*
X144982Y358901D01*
X147648D01*
X148980Y360233D01*
X151646Y358901D02*
X154312D01*
X152979D01*
Y366898D01*
X151646Y365565D01*
X237003Y110000D02*
X245000D01*
Y115332D01*
Y121996D02*
X237003D01*
X241001Y117997D01*
Y123329D01*
X275332Y114997D02*
X270000D01*
Y110999D01*
X272666D01*
X270000D01*
Y107000D01*
X277997D02*
X280663D01*
X279330D01*
Y114997D01*
X277997Y113665D01*
X96120Y193070D02*
Y201067D01*
X100119D01*
X101452Y199734D01*
Y197069D01*
X100119Y195736D01*
X96120D01*
X98786D02*
X101452Y193070D01*
X108116D02*
Y201067D01*
X104117Y197069D01*
X109449D01*
X242316Y223897D02*
Y217233D01*
X243649Y215900D01*
X246315D01*
X247648Y217233D01*
Y223897D01*
X254312Y215900D02*
Y223897D01*
X250313Y219899D01*
X255645D01*
X248920Y355223D02*
X246254D01*
X247587D01*
Y363220D01*
X248920D01*
X246254D01*
X236924D02*
X242255D01*
X236924Y357888D01*
Y356555D01*
X238257Y355223D01*
X240923D01*
X242255Y356555D01*
X228926D02*
X230259Y355223D01*
X232925D01*
X234258Y356555D01*
Y361887D01*
X232925Y363220D01*
X230259D01*
X228926Y361887D01*
X288000Y111997D02*
Y104000D01*
X293332D01*
X301329Y111997D02*
X295997D01*
Y104000D01*
X301329D01*
X295997Y107999D02*
X298663D01*
X303995Y111997D02*
Y104000D01*
X307994D01*
X309326Y105333D01*
Y110665D01*
X307994Y111997D01*
X303995D01*
X317324Y104000D02*
X311992D01*
X317324Y109332D01*
Y110665D01*
X315991Y111997D01*
X313325D01*
X311992Y110665D01*
X324000Y60000D02*
X316003D01*
Y63999D01*
X317335Y65332D01*
X320001D01*
X321334Y63999D01*
Y60000D01*
Y62666D02*
X324000Y65332D01*
X316003Y73329D02*
Y67997D01*
X320001D01*
X318668Y70663D01*
Y71996D01*
X320001Y73329D01*
X322667D01*
X324000Y71996D01*
Y69330D01*
X322667Y67997D01*
X284000Y60000D02*
X276003D01*
Y63999D01*
X277335Y65332D01*
X280001D01*
X281334Y63999D01*
Y60000D01*
Y62666D02*
X284000Y65332D01*
X276003Y73329D02*
X277335Y70663D01*
X280001Y67997D01*
X282667D01*
X284000Y69330D01*
Y71996D01*
X282667Y73329D01*
X281334D01*
X280001Y71996D01*
Y67997D01*
X337820Y254000D02*
X332488D01*
X329823Y256666D01*
X332488Y259332D01*
X337820D01*
X333821D01*
Y254000D01*
X337820Y261997D02*
X329823D01*
X337820Y267329D01*
X329823D01*
X337820Y269995D02*
X332488D01*
X329823Y272661D01*
X332488Y275326D01*
X337820D01*
X333821D01*
Y269995D01*
X329823Y277992D02*
X337820D01*
Y283324D01*
X329823Y289988D02*
Y287323D01*
X331156Y285990D01*
X336487D01*
X337820Y287323D01*
Y289988D01*
X336487Y291321D01*
X331156D01*
X329823Y289988D01*
X331156Y299319D02*
X329823Y297986D01*
Y295320D01*
X331156Y293987D01*
X336487D01*
X337820Y295320D01*
Y297986D01*
X336487Y299319D01*
X333821D01*
Y296653D01*
X329823Y309982D02*
Y312648D01*
Y311315D01*
X337820D01*
Y309982D01*
Y312648D01*
Y316646D02*
X329823D01*
X337820Y321978D01*
X329823D01*
X51177Y226060D02*
X43180D01*
Y222061D01*
X44513Y220728D01*
X49844D01*
X51177Y222061D01*
Y226060D01*
Y218063D02*
Y215397D01*
Y216730D01*
X43180D01*
Y218063D01*
Y215397D01*
X49844Y206066D02*
X51177Y207399D01*
Y210065D01*
X49844Y211398D01*
X44513D01*
X43180Y210065D01*
Y207399D01*
X44513Y206066D01*
X47179D01*
Y208732D01*
X51177Y203401D02*
Y200735D01*
Y202068D01*
X43180D01*
Y203401D01*
Y200735D01*
X51177Y196736D02*
Y191404D01*
Y194070D01*
X43180D01*
Y188739D02*
X48512D01*
X51177Y186073D01*
X48512Y183407D01*
X43180D01*
X47179D01*
Y188739D01*
X51177Y180741D02*
X43180D01*
Y175410D01*
X7924Y79499D02*
X9257Y80831D01*
Y83497D01*
X7924Y84830D01*
X2593D01*
X1260Y83497D01*
Y80831D01*
X2593Y79499D01*
X5258D01*
Y82164D01*
X1260Y76833D02*
X9257D01*
X1260Y71501D01*
X9257D01*
Y68835D02*
X1260D01*
Y64837D01*
X2593Y63504D01*
X7924D01*
X9257Y64837D01*
Y68835D01*
Y112830D02*
X3925D01*
X1260Y110164D01*
X3925Y107499D01*
X9257D01*
X7924Y99501D02*
X9257Y100834D01*
Y103500D01*
X7924Y104833D01*
X2593D01*
X1260Y103500D01*
Y100834D01*
X2593Y99501D01*
X7924Y91504D02*
X9257Y92837D01*
Y95503D01*
X7924Y96835D01*
X2593D01*
X1260Y95503D01*
Y92837D01*
X2593Y91504D01*
X379452Y350190D02*
X374120D01*
X371455Y352856D01*
X374120Y355522D01*
X379452D01*
X375453D01*
Y350190D01*
X371455Y363519D02*
X372788Y360854D01*
X375453Y358188D01*
X378119D01*
X379452Y359521D01*
Y362186D01*
X378119Y363519D01*
X376786D01*
X375453Y362186D01*
Y358188D01*
X9402Y149228D02*
X8069Y151894D01*
X5403Y154560D01*
X2737D01*
X1404Y153227D01*
Y150561D01*
X2737Y149228D01*
X4070D01*
X5403Y150561D01*
Y154560D01*
X9402Y174629D02*
Y179960D01*
X5403D01*
X6736Y177294D01*
Y175961D01*
X5403Y174629D01*
X2737D01*
X1404Y175961D01*
Y178627D01*
X2737Y179960D01*
X1404Y201361D02*
X9402D01*
X5403Y205360D01*
Y200028D01*
X1424Y225429D02*
Y230760D01*
X6756Y225429D01*
X8089D01*
X9422Y226761D01*
Y229427D01*
X8089Y230760D01*
X258074Y19397D02*
X256908Y18231D01*
Y15898D01*
X258074Y14732D01*
X262740D01*
X263906Y15898D01*
Y18231D01*
X262740Y19397D01*
X260407D01*
Y17065D01*
X263906Y21730D02*
X256908D01*
X263906Y26395D01*
X256908D01*
Y28728D02*
X263906D01*
Y32226D01*
X262740Y33393D01*
X258074D01*
X256908Y32226D01*
Y28728D01*
X264922Y40894D02*
X256925D01*
X259590Y43560D01*
X256925Y46226D01*
X264922D01*
X256925Y52890D02*
Y50224D01*
X258258Y48891D01*
X263589D01*
X264922Y50224D01*
Y52890D01*
X263589Y54223D01*
X258258D01*
X256925Y52890D01*
X258258Y62220D02*
X256925Y60888D01*
Y58222D01*
X258258Y56889D01*
X259590D01*
X260923Y58222D01*
Y60888D01*
X262256Y62220D01*
X263589D01*
X264922Y60888D01*
Y58222D01*
X263589Y56889D01*
X256925Y64886D02*
Y67552D01*
Y66219D01*
X264922D01*
Y64886D01*
Y67552D01*
X256925Y73152D02*
X262256D01*
X264922Y75818D01*
X262256Y78484D01*
X256925D01*
X258258Y86481D02*
X256925Y85148D01*
Y82482D01*
X258258Y81149D01*
X263589D01*
X264922Y82482D01*
Y85148D01*
X263589Y86481D01*
X258258Y94478D02*
X256925Y93146D01*
Y90480D01*
X258258Y89147D01*
X263589D01*
X264922Y90480D01*
Y93146D01*
X263589Y94478D01*
X199390Y66040D02*
X191393D01*
X194058Y68706D01*
X191393Y71372D01*
X199390D01*
X191393Y74037D02*
Y76703D01*
Y75370D01*
X199390D01*
Y74037D01*
Y76703D01*
X192726Y86034D02*
X191393Y84701D01*
Y82035D01*
X192726Y80702D01*
X194058D01*
X195391Y82035D01*
Y84701D01*
X196724Y86034D01*
X198057D01*
X199390Y84701D01*
Y82035D01*
X198057Y80702D01*
X191393Y92698D02*
Y90032D01*
X192726Y88699D01*
X198057D01*
X199390Y90032D01*
Y92698D01*
X198057Y94031D01*
X192726D01*
X191393Y92698D01*
X192726Y43432D02*
X191393Y42099D01*
Y39433D01*
X192726Y38100D01*
X194058D01*
X195391Y39433D01*
Y42099D01*
X196724Y43432D01*
X198057D01*
X199390Y42099D01*
Y39433D01*
X198057Y38100D01*
X192726Y51429D02*
X191393Y50096D01*
Y47430D01*
X192726Y46097D01*
X198057D01*
X199390Y47430D01*
Y50096D01*
X198057Y51429D01*
X191393Y54095D02*
X199390D01*
X196724D01*
X191393Y59426D01*
X195391Y55428D01*
X199390Y59426D01*
Y12700D02*
X191393D01*
Y16699D01*
X192726Y18032D01*
X195391D01*
X196724Y16699D01*
Y12700D01*
Y15366D02*
X199390Y18032D01*
X192726Y26029D02*
X191393Y24696D01*
Y22030D01*
X192726Y20697D01*
X194058D01*
X195391Y22030D01*
Y24696D01*
X196724Y26029D01*
X198057D01*
X199390Y24696D01*
Y22030D01*
X198057Y20697D01*
X191393Y28695D02*
Y34026D01*
Y31361D01*
X199390D01*
X1404Y140510D02*
X9402D01*
Y136511D01*
X8069Y135179D01*
X5403D01*
X4070Y136511D01*
Y140510D01*
Y137844D02*
X1404Y135179D01*
X8069Y127181D02*
X9402Y128514D01*
Y131180D01*
X8069Y132513D01*
X6736D01*
X5403Y131180D01*
Y128514D01*
X4070Y127181D01*
X2737D01*
X1404Y128514D01*
Y131180D01*
X2737Y132513D01*
X9402Y124515D02*
Y119184D01*
Y121850D01*
X1404D01*
X379452Y325120D02*
X374120D01*
X371455Y327786D01*
X374120Y330452D01*
X379452D01*
X375453D01*
Y325120D01*
X372788Y333117D02*
X371455Y334450D01*
Y337116D01*
X372788Y338449D01*
X374120D01*
X375453Y337116D01*
Y335783D01*
Y337116D01*
X376786Y338449D01*
X378119D01*
X379452Y337116D01*
Y334450D01*
X378119Y333117D01*
X379452Y299720D02*
X374120D01*
X371455Y302386D01*
X374120Y305052D01*
X379452D01*
X375453D01*
Y299720D01*
X379452Y313049D02*
Y307717D01*
X374120Y313049D01*
X372788D01*
X371455Y311716D01*
Y309050D01*
X372788Y307717D01*
X379452Y275590D02*
X374120D01*
X371455Y278256D01*
X374120Y280922D01*
X379452D01*
X375453D01*
Y275590D01*
X379452Y283587D02*
Y286253D01*
Y284920D01*
X371455D01*
X372788Y283587D01*
X379452Y248920D02*
X374120D01*
X371455Y251586D01*
X374120Y254252D01*
X379452D01*
X375453D01*
Y248920D01*
X372788Y256917D02*
X371455Y258250D01*
Y260916D01*
X372788Y262249D01*
X378119D01*
X379452Y260916D01*
Y258250D01*
X378119Y256917D01*
X372788D01*
Y221232D02*
X371455Y219899D01*
Y217233D01*
X372788Y215900D01*
X378119D01*
X379452Y217233D01*
Y219899D01*
X378119Y221232D01*
X375453D01*
Y218566D01*
X379452Y223897D02*
X371455D01*
X379452Y229229D01*
X371455D01*
Y231895D02*
X379452D01*
Y235894D01*
X378119Y237226D01*
X372788D01*
X371455Y235894D01*
Y231895D01*
Y202182D02*
Y196850D01*
X375453D01*
X374120Y199516D01*
Y200849D01*
X375453Y202182D01*
X378119D01*
X379452Y200849D01*
Y198183D01*
X378119Y196850D01*
X371455Y204847D02*
X376786D01*
X379452Y207513D01*
X376786Y210179D01*
X371455D01*
X266700Y9545D02*
Y4214D01*
X269366Y1548D01*
X272032Y4214D01*
Y9545D01*
X280029Y8213D02*
X278696Y9545D01*
X276030D01*
X274697Y8213D01*
Y2881D01*
X276030Y1548D01*
X278696D01*
X280029Y2881D01*
X288026Y8213D02*
X286694Y9545D01*
X284028D01*
X282695Y8213D01*
Y2881D01*
X284028Y1548D01*
X286694D01*
X288026Y2881D01*
X302512Y8213D02*
X301179Y9545D01*
X298513D01*
X297180Y8213D01*
Y2881D01*
X298513Y1548D01*
X301179D01*
X302512Y2881D01*
Y5547D01*
X299846D01*
X305177Y1548D02*
Y9545D01*
X310509Y1548D01*
Y9545D01*
X313175D02*
Y1548D01*
X317174D01*
X318506Y2881D01*
Y8213D01*
X317174Y9545D01*
X313175D01*
X320830Y396965D02*
Y402296D01*
X318165Y404962D01*
X315499Y402296D01*
Y396965D01*
X307501Y398298D02*
X308834Y396965D01*
X311500D01*
X312833Y398298D01*
Y403629D01*
X311500Y404962D01*
X308834D01*
X307501Y403629D01*
X299504Y398298D02*
X300837Y396965D01*
X303503D01*
X304835Y398298D01*
Y403629D01*
X303503Y404962D01*
X300837D01*
X299504Y403629D01*
X287499Y398298D02*
X288832Y396965D01*
X291497D01*
X292830Y398298D01*
Y403629D01*
X291497Y404962D01*
X288832D01*
X287499Y403629D01*
Y400964D01*
X290164D01*
X284833Y404962D02*
Y396965D01*
X279501Y404962D01*
Y396965D01*
X276835D02*
Y404962D01*
X272837D01*
X271504Y403629D01*
Y398298D01*
X272837Y396965D01*
X276835D01*
X259499Y398298D02*
X260832Y396965D01*
X263497D01*
X264830Y398298D01*
Y399631D01*
X263497Y400964D01*
X260832D01*
X259499Y402296D01*
Y403629D01*
X260832Y404962D01*
X263497D01*
X264830Y403629D01*
X256833Y396965D02*
Y404962D01*
X252834D01*
X251501Y403629D01*
Y398298D01*
X252834Y396965D01*
X256833D01*
X248835Y404962D02*
Y399631D01*
X246170Y396965D01*
X243504Y399631D01*
Y404962D01*
Y400964D01*
X248835D01*
X231499Y398298D02*
X232831Y396965D01*
X235497D01*
X236830Y398298D01*
Y399631D01*
X235497Y400964D01*
X232831D01*
X231499Y402296D01*
Y403629D01*
X232831Y404962D01*
X235497D01*
X236830Y403629D01*
X228833Y396965D02*
Y404962D01*
X223501D01*
X215504Y398298D02*
X216837Y396965D01*
X219503D01*
X220835Y398298D01*
Y403629D01*
X219503Y404962D01*
X216837D01*
X215504Y403629D01*
X168659Y396855D02*
X173990D01*
Y400853D01*
X171324D01*
X173990D01*
Y404852D01*
X165993Y396855D02*
Y404852D01*
X161994D01*
X160661Y403519D01*
Y398188D01*
X161994Y396855D01*
X165993D01*
X209550D02*
Y402186D01*
X206884Y404852D01*
X204219Y402186D01*
Y396855D01*
X197554D02*
X200220D01*
X201553Y398188D01*
Y403519D01*
X200220Y404852D01*
X197554D01*
X196221Y403519D01*
Y398188D01*
X197554Y396855D01*
X193555D02*
Y403519D01*
X192222Y404852D01*
X189557D01*
X188224Y403519D01*
Y396855D01*
X185558D02*
X180226D01*
X182892D01*
Y404852D01*
D49*
X57500Y227000D02*
X59500D01*
X57500Y213000D02*
X59500D01*
X57500D02*
Y227000D01*
X59500D02*
X92000D01*
X59500Y213000D02*
Y227000D01*
Y213000D02*
X92000D01*
Y227000D01*
X285500Y99000D02*
X287500D01*
X285500Y85000D02*
X287500D01*
X285500D02*
Y99000D01*
X287500D02*
X320000D01*
X287500Y85000D02*
Y99000D01*
Y85000D02*
X320000D01*
Y99000D01*
D50*
X58750Y220000D02*
D03*
X286750Y92000D02*
D03*
M02*
