%FSLAX44Y44*%
%MOMM*%
G71*
G01*
G75*
G04 Layer_Physical_Order=2*
G04 Layer_Color=16711680*
%ADD10C,0.3810*%
%ADD11R,1.3000X1.5000*%
%ADD12R,1.1000X1.0000*%
%ADD13R,0.5000X0.6000*%
%ADD14R,0.8000X0.9000*%
%ADD15R,0.6000X0.5000*%
%ADD16R,1.0000X1.1000*%
%ADD17R,1.5000X1.5000*%
%ADD18O,0.4500X1.5000*%
%ADD19O,1.5000X0.4500*%
%ADD20R,0.8000X0.3000*%
%ADD21R,0.3000X0.8000*%
%ADD22R,1.6000X1.6000*%
%ADD23O,2.1000X0.3500*%
%ADD24R,0.6900X1.2000*%
%ADD25R,2.4000X1.9000*%
%ADD26R,1.1000X1.9000*%
%ADD27R,1.9000X1.9000*%
%ADD28R,1.9000X1.8000*%
%ADD29R,1.6000X2.1000*%
%ADD30R,1.3500X0.4000*%
%ADD31R,1.5000X1.5000*%
%ADD32C,0.5000*%
%ADD33C,0.3000*%
%ADD34C,0.2540*%
%ADD35C,0.6020*%
%ADD36C,0.6000*%
%ADD37C,1.2600*%
%ADD38C,0.6010*%
%ADD39C,0.1000*%
%ADD40C,1.5000*%
%ADD41R,2.2000X2.2000*%
%ADD42C,2.3000*%
%ADD43C,1.0000*%
%ADD44C,5.0000*%
%ADD45C,1.2700*%
%ADD46C,0.7000*%
G36*
X381000Y0D02*
X0D01*
Y406400D01*
X381000D01*
Y0D01*
D02*
G37*
%LPC*%
G36*
X174130Y91940D02*
X161860D01*
Y79670D01*
X174130D01*
Y91940D01*
D02*
G37*
G36*
X138140D02*
X125870D01*
Y79670D01*
X138140D01*
Y91940D01*
D02*
G37*
G36*
X123330D02*
X111060D01*
Y79670D01*
X123330D01*
Y91940D01*
D02*
G37*
G36*
X280438Y95730D02*
X274270D01*
Y89562D01*
X274968Y89654D01*
X276803Y90414D01*
X278378Y91622D01*
X279586Y93197D01*
X280346Y95032D01*
X280438Y95730D01*
D02*
G37*
G36*
X271730D02*
X265562D01*
X265654Y95032D01*
X266414Y93197D01*
X267622Y91622D01*
X269198Y90414D01*
X271032Y89654D01*
X271730Y89562D01*
Y95730D01*
D02*
G37*
G36*
X188940Y91940D02*
X176670D01*
Y79670D01*
X188940D01*
Y91940D01*
D02*
G37*
G36*
X24130Y74930D02*
X15441D01*
X15618Y73579D01*
X16630Y71137D01*
X18239Y69039D01*
X20337Y67430D01*
X22779Y66418D01*
X24130Y66241D01*
Y74930D01*
D02*
G37*
G36*
X188940Y77130D02*
X176670D01*
Y64860D01*
X188940D01*
Y77130D01*
D02*
G37*
G36*
X174130D02*
X161860D01*
Y64860D01*
X174130D01*
Y77130D01*
D02*
G37*
G36*
X26670Y86159D02*
Y77470D01*
X35359D01*
X35182Y78821D01*
X34170Y81263D01*
X32561Y83361D01*
X30463Y84970D01*
X28021Y85982D01*
X26670Y86159D01*
D02*
G37*
G36*
X24130D02*
X22779Y85982D01*
X20337Y84970D01*
X18239Y83361D01*
X16630Y81263D01*
X15618Y78821D01*
X15441Y77470D01*
X24130D01*
Y86159D01*
D02*
G37*
G36*
X35359Y74930D02*
X26670D01*
Y66241D01*
X28021Y66418D01*
X30463Y67430D01*
X32561Y69039D01*
X34170Y71137D01*
X35182Y73579D01*
X35359Y74930D01*
D02*
G37*
G36*
X46730Y162730D02*
X40562D01*
X40654Y162032D01*
X41414Y160198D01*
X42622Y158622D01*
X44198Y157414D01*
X46032Y156654D01*
X46730Y156562D01*
Y162730D01*
D02*
G37*
G36*
X251437Y162730D02*
X245270D01*
Y156562D01*
X245968Y156654D01*
X247802Y157414D01*
X249377Y158622D01*
X250586Y160197D01*
X251345Y162031D01*
X251437Y162730D01*
D02*
G37*
G36*
X242540Y108326D02*
Y102158D01*
X248708D01*
X248616Y102856D01*
X247856Y104691D01*
X246648Y106266D01*
X245072Y107474D01*
X243238Y108234D01*
X242540Y108326D01*
D02*
G37*
G36*
X46730Y171438D02*
X46032Y171346D01*
X44198Y170586D01*
X42622Y169378D01*
X41414Y167803D01*
X40654Y165968D01*
X40562Y165270D01*
X46730D01*
Y171438D01*
D02*
G37*
G36*
X245270Y171438D02*
Y165270D01*
X251437D01*
X251345Y165968D01*
X250586Y167802D01*
X249377Y169377D01*
X247802Y170586D01*
X245968Y171346D01*
X245270Y171438D01*
D02*
G37*
G36*
X242729D02*
X242031Y171346D01*
X240197Y170586D01*
X238622Y169377D01*
X237413Y167802D01*
X236654Y165968D01*
X236562Y165270D01*
X242729D01*
Y171438D01*
D02*
G37*
G36*
X248708Y99618D02*
X242540D01*
Y93450D01*
X243238Y93542D01*
X245072Y94302D01*
X246648Y95510D01*
X247856Y97086D01*
X248616Y98920D01*
X248708Y99618D01*
D02*
G37*
G36*
X240000D02*
X233832D01*
X233924Y98920D01*
X234684Y97086D01*
X235892Y95510D01*
X237467Y94302D01*
X239302Y93542D01*
X240000Y93450D01*
Y99618D01*
D02*
G37*
G36*
X25400Y111182D02*
X22920Y110856D01*
X20609Y109898D01*
X18625Y108376D01*
X17102Y106391D01*
X16144Y104080D01*
X15818Y101600D01*
X16144Y99120D01*
X17102Y96809D01*
X18625Y94824D01*
X20609Y93302D01*
X22920Y92345D01*
X25400Y92018D01*
X27880Y92345D01*
X30191Y93302D01*
X32175Y94824D01*
X33698Y96809D01*
X34655Y99120D01*
X34982Y101600D01*
X34655Y104080D01*
X33698Y106391D01*
X32175Y108376D01*
X30191Y109898D01*
X27880Y110856D01*
X25400Y111182D01*
D02*
G37*
G36*
X240000Y108326D02*
X239302Y108234D01*
X237467Y107474D01*
X235892Y106266D01*
X234684Y104691D01*
X233924Y102856D01*
X233832Y102158D01*
X240000D01*
Y108326D01*
D02*
G37*
G36*
X274270Y104438D02*
Y98270D01*
X280438D01*
X280346Y98968D01*
X279586Y100802D01*
X278378Y102378D01*
X276803Y103586D01*
X274968Y104346D01*
X274270Y104438D01*
D02*
G37*
G36*
X271730D02*
X271032Y104346D01*
X269198Y103586D01*
X267622Y102378D01*
X266414Y100802D01*
X265654Y98968D01*
X265562Y98270D01*
X271730D01*
Y104438D01*
D02*
G37*
G36*
X303530Y24130D02*
X294841D01*
X295018Y22779D01*
X296030Y20337D01*
X297639Y18239D01*
X299737Y16630D01*
X302179Y15618D01*
X303530Y15441D01*
Y24130D01*
D02*
G37*
G36*
X251259D02*
X242570D01*
Y15441D01*
X243921Y15618D01*
X246363Y16630D01*
X248461Y18239D01*
X250070Y20337D01*
X251082Y22779D01*
X251259Y24130D01*
D02*
G37*
G36*
X240030D02*
X231341D01*
X231518Y22779D01*
X232530Y20337D01*
X234139Y18239D01*
X236237Y16630D01*
X238679Y15618D01*
X240030Y15441D01*
Y24130D01*
D02*
G37*
G36*
X303530Y35359D02*
X302179Y35182D01*
X299737Y34170D01*
X297639Y32561D01*
X296030Y30463D01*
X295018Y28021D01*
X294841Y26670D01*
X303530D01*
Y35359D01*
D02*
G37*
G36*
X288900Y34900D02*
X269900D01*
Y15900D01*
X288900D01*
Y34900D01*
D02*
G37*
G36*
X314759Y24130D02*
X306070D01*
Y15441D01*
X307421Y15618D01*
X309863Y16630D01*
X311961Y18239D01*
X313570Y20337D01*
X314582Y22779D01*
X314759Y24130D01*
D02*
G37*
G36*
X123330Y26330D02*
X111060D01*
Y14060D01*
X123330D01*
Y26330D01*
D02*
G37*
G36*
X349250Y58833D02*
X345013Y58500D01*
X340881Y57508D01*
X336954Y55882D01*
X333331Y53661D01*
X330099Y50901D01*
X327339Y47669D01*
X325118Y44046D01*
X323492Y40119D01*
X322500Y35987D01*
X322166Y31750D01*
X322500Y27513D01*
X323492Y23381D01*
X325118Y19454D01*
X327339Y15831D01*
X330099Y12599D01*
X333331Y9839D01*
X336954Y7618D01*
X340881Y5992D01*
X345013Y5000D01*
X349250Y4667D01*
X353487Y5000D01*
X357619Y5992D01*
X361546Y7618D01*
X365169Y9839D01*
X368401Y12599D01*
X371161Y15831D01*
X373382Y19454D01*
X375008Y23381D01*
X376000Y27513D01*
X376334Y31750D01*
X376000Y35987D01*
X375008Y40119D01*
X373382Y44046D01*
X371161Y47669D01*
X368401Y50901D01*
X365169Y53661D01*
X361546Y55882D01*
X357619Y57508D01*
X353487Y58500D01*
X349250Y58833D01*
D02*
G37*
G36*
X31750D02*
X27513Y58500D01*
X23381Y57508D01*
X19454Y55882D01*
X15831Y53661D01*
X12599Y50901D01*
X9839Y47669D01*
X7618Y44046D01*
X5992Y40119D01*
X5000Y35987D01*
X4667Y31750D01*
X5000Y27513D01*
X5992Y23381D01*
X7618Y19454D01*
X9839Y15831D01*
X12599Y12599D01*
X15831Y9839D01*
X19454Y7618D01*
X23381Y5992D01*
X27513Y5000D01*
X31750Y4667D01*
X35987Y5000D01*
X40119Y5992D01*
X44046Y7618D01*
X47669Y9839D01*
X50901Y12599D01*
X53661Y15831D01*
X55882Y19454D01*
X57508Y23381D01*
X58500Y27513D01*
X58833Y31750D01*
X58500Y35987D01*
X57508Y40119D01*
X55882Y44046D01*
X53661Y47669D01*
X50901Y50901D01*
X47669Y53661D01*
X44046Y55882D01*
X40119Y57508D01*
X35987Y58500D01*
X31750Y58833D01*
D02*
G37*
G36*
X188940Y26330D02*
X176670D01*
Y14060D01*
X188940D01*
Y26330D01*
D02*
G37*
G36*
X174130D02*
X161860D01*
Y14060D01*
X174130D01*
Y26330D01*
D02*
G37*
G36*
X138140D02*
X125870D01*
Y14060D01*
X138140D01*
Y26330D01*
D02*
G37*
G36*
X82730Y63438D02*
X82032Y63346D01*
X80197Y62586D01*
X78622Y61378D01*
X77414Y59802D01*
X76654Y57968D01*
X76562Y57270D01*
X82730D01*
Y63438D01*
D02*
G37*
G36*
X91438Y54730D02*
X85270D01*
Y48562D01*
X85968Y48654D01*
X87802Y49414D01*
X89378Y50622D01*
X90586Y52197D01*
X91346Y54032D01*
X91438Y54730D01*
D02*
G37*
G36*
X82730D02*
X76562D01*
X76654Y54032D01*
X77414Y52197D01*
X78622Y50622D01*
X80197Y49414D01*
X82032Y48654D01*
X82730Y48562D01*
Y54730D01*
D02*
G37*
G36*
X138140Y77130D02*
X125870D01*
Y64860D01*
X138140D01*
Y77130D01*
D02*
G37*
G36*
X123330D02*
X111060D01*
Y64860D01*
X123330D01*
Y77130D01*
D02*
G37*
G36*
X85270Y63438D02*
Y57270D01*
X91438D01*
X91346Y57968D01*
X90586Y59802D01*
X89378Y61378D01*
X87802Y62586D01*
X85968Y63346D01*
X85270Y63438D01*
D02*
G37*
G36*
X138140Y41140D02*
X125870D01*
Y28870D01*
X138140D01*
Y41140D01*
D02*
G37*
G36*
X123330D02*
X111060D01*
Y28870D01*
X123330D01*
Y41140D01*
D02*
G37*
G36*
X306070Y35359D02*
Y26670D01*
X314759D01*
X314582Y28021D01*
X313570Y30463D01*
X311961Y32561D01*
X309863Y34170D01*
X307421Y35182D01*
X306070Y35359D01*
D02*
G37*
G36*
X150000Y66617D02*
X146476Y66153D01*
X143192Y64792D01*
X140372Y62628D01*
X138208Y59808D01*
X136847Y56524D01*
X136383Y53000D01*
X136847Y49476D01*
X138208Y46192D01*
X140372Y43372D01*
X143192Y41208D01*
X146476Y39848D01*
X150000Y39383D01*
X153524Y39848D01*
X156808Y41208D01*
X159628Y43372D01*
X161792Y46192D01*
X163153Y49476D01*
X163617Y53000D01*
X163153Y56524D01*
X161792Y59808D01*
X159628Y62628D01*
X156808Y64792D01*
X153524Y66153D01*
X150000Y66617D01*
D02*
G37*
G36*
X188940Y41140D02*
X176670D01*
Y28870D01*
X188940D01*
Y41140D01*
D02*
G37*
G36*
X174130D02*
X161860D01*
Y28870D01*
X174130D01*
Y41140D01*
D02*
G37*
G36*
X91060Y331018D02*
X90362Y330926D01*
X88528Y330166D01*
X86953Y328958D01*
X85744Y327383D01*
X84984Y325549D01*
X84892Y324850D01*
X91060D01*
Y331018D01*
D02*
G37*
G36*
X355600Y339782D02*
X353120Y339455D01*
X350809Y338498D01*
X348825Y336975D01*
X347302Y334991D01*
X346344Y332680D01*
X346018Y330200D01*
X346344Y327720D01*
X347302Y325409D01*
X348825Y323425D01*
X350809Y321902D01*
X353120Y320945D01*
X355600Y320618D01*
X358080Y320945D01*
X360391Y321902D01*
X362375Y323425D01*
X363898Y325409D01*
X364855Y327720D01*
X365182Y330200D01*
X364855Y332680D01*
X363898Y334991D01*
X362375Y336975D01*
X360391Y338498D01*
X358080Y339455D01*
X355600Y339782D01*
D02*
G37*
G36*
X314300Y390500D02*
X295300D01*
Y371500D01*
X300412D01*
Y352621D01*
X275255Y327463D01*
X273760Y327660D01*
X273520Y329487D01*
X272815Y331190D01*
X271692Y332652D01*
X270230Y333774D01*
X268527Y334480D01*
X266700Y334720D01*
X264921Y334486D01*
X236203Y363203D01*
X235046Y363977D01*
X233680Y364249D01*
X168645D01*
X167552Y365672D01*
X166090Y366795D01*
X164387Y367500D01*
X162560Y367740D01*
X160733Y367500D01*
X159030Y366795D01*
X157568Y365672D01*
X156446Y364210D01*
X155740Y362507D01*
X155500Y360680D01*
X155740Y358853D01*
X156446Y357150D01*
X157568Y355688D01*
X159030Y354566D01*
X160733Y353860D01*
X162560Y353620D01*
X164387Y353860D01*
X166090Y354566D01*
X167552Y355688D01*
X168645Y357111D01*
X232202D01*
X253671Y335642D01*
X253109Y334503D01*
X251460Y334720D01*
X249633Y334480D01*
X249436Y334398D01*
X238577Y345257D01*
X237496Y345980D01*
X236220Y346234D01*
X134731D01*
X133739Y347226D01*
X133820Y347423D01*
X134060Y349250D01*
X133820Y351077D01*
X133115Y352780D01*
X131992Y354242D01*
X130530Y355364D01*
X128827Y356070D01*
X127000Y356310D01*
X125173Y356070D01*
X123470Y355364D01*
X122008Y354242D01*
X120885Y352780D01*
X120180Y351077D01*
X119940Y349250D01*
X120014Y348681D01*
X118876Y348120D01*
X117964Y349031D01*
X118058Y349746D01*
X117818Y351574D01*
X117113Y353277D01*
X115990Y354739D01*
X114528Y355861D01*
X112825Y356566D01*
X110998Y356807D01*
X109171Y356566D01*
X107468Y355861D01*
X106006Y354739D01*
X104883Y353277D01*
X104178Y351574D01*
X103938Y349746D01*
X104178Y347919D01*
X104883Y346216D01*
X105085Y345954D01*
X104523Y344815D01*
X51246D01*
X49881Y344543D01*
X48723Y343770D01*
X15557Y310604D01*
X14783Y309446D01*
X14512Y308080D01*
Y249080D01*
X14783Y247715D01*
X15557Y246557D01*
X21831Y240282D01*
Y238100D01*
X15900D01*
Y219100D01*
X34900D01*
Y238100D01*
X28969D01*
Y241761D01*
X28697Y243126D01*
X27923Y244284D01*
X21649Y250558D01*
Y306602D01*
X52725Y337678D01*
X97925D01*
X98486Y336539D01*
X97966Y335860D01*
X97261Y334158D01*
X97020Y332330D01*
X97133Y331470D01*
X96133Y330166D01*
X94299Y330926D01*
X93600Y331018D01*
Y324850D01*
X99768D01*
X99699Y325378D01*
X100706Y326151D01*
X102253Y325510D01*
X104080Y325270D01*
X105908Y325510D01*
X106104Y325592D01*
X121432Y310263D01*
X120871Y309124D01*
X119380Y309320D01*
X117553Y309080D01*
X115850Y308375D01*
X114388Y307252D01*
X113265Y305790D01*
X112560Y304087D01*
X112320Y302260D01*
X112560Y300433D01*
X112641Y300236D01*
X96957Y284552D01*
X96234Y283470D01*
X95980Y282194D01*
Y268335D01*
X35074Y207429D01*
X33828Y207677D01*
X33698Y207991D01*
X32175Y209975D01*
X30191Y211498D01*
X27880Y212456D01*
X25400Y212782D01*
X22920Y212456D01*
X20609Y211498D01*
X18625Y209975D01*
X17102Y207991D01*
X16144Y205680D01*
X15818Y203200D01*
X16144Y200720D01*
X17102Y198409D01*
X18625Y196425D01*
X20609Y194902D01*
X22920Y193944D01*
X25400Y193618D01*
X27880Y193944D01*
X30191Y194902D01*
X32175Y196425D01*
X33698Y198409D01*
X34302Y199866D01*
X35560D01*
X36836Y200120D01*
X37917Y200842D01*
X83306Y246231D01*
X84509Y245823D01*
X84734Y244112D01*
X85494Y242278D01*
X86703Y240703D01*
X88278Y239494D01*
X90112Y238734D01*
X90810Y238642D01*
Y246080D01*
X92080D01*
Y247350D01*
X99518D01*
X99426Y248049D01*
X98666Y249883D01*
X97458Y251458D01*
X95883Y252666D01*
X94049Y253426D01*
X92337Y253652D01*
X91929Y254854D01*
X101671Y264597D01*
X102394Y265678D01*
X102648Y266954D01*
Y280813D01*
X117357Y295522D01*
X117553Y295440D01*
X119380Y295200D01*
X121207Y295440D01*
X122910Y296145D01*
X124372Y297268D01*
X125494Y298730D01*
X125976Y299893D01*
X127222Y299645D01*
Y285183D01*
X126028Y284778D01*
X124452Y285986D01*
X122618Y286746D01*
X121920Y286838D01*
Y279400D01*
Y271962D01*
X122618Y272054D01*
X124452Y272814D01*
X126028Y274022D01*
X127222Y273617D01*
Y225247D01*
X126019Y224839D01*
X125073Y226073D01*
X123610Y227195D01*
X121908Y227900D01*
X120080Y228141D01*
X118253Y227900D01*
X116550Y227195D01*
X115088Y226073D01*
X113966Y224610D01*
X113260Y222908D01*
X113214Y222557D01*
X111944D01*
X111898Y222906D01*
X111193Y224609D01*
X110071Y226072D01*
X108609Y227194D01*
X106906Y227899D01*
X105078Y228139D01*
X103251Y227899D01*
X101548Y227194D01*
X100086Y226072D01*
X98964Y224609D01*
X98259Y222906D01*
X98018Y221079D01*
X98259Y219252D01*
X98340Y219056D01*
X94699Y215415D01*
X76081D01*
X74805Y215161D01*
X74372Y214872D01*
X73723Y214438D01*
X36060Y176775D01*
X34921Y177337D01*
X34982Y177800D01*
X34655Y180280D01*
X33698Y182591D01*
X32175Y184575D01*
X30191Y186098D01*
X27880Y187055D01*
X25400Y187382D01*
X22920Y187055D01*
X20609Y186098D01*
X18625Y184575D01*
X17102Y182591D01*
X16144Y180280D01*
X15818Y177800D01*
X16144Y175320D01*
X17102Y173009D01*
X18625Y171024D01*
X20609Y169502D01*
X22920Y168545D01*
X25400Y168218D01*
X25863Y168279D01*
X26425Y167140D01*
X23043Y163757D01*
X22320Y162676D01*
X22066Y161400D01*
Y161302D01*
X20609Y160698D01*
X18625Y159175D01*
X17102Y157191D01*
X16144Y154880D01*
X15818Y152400D01*
X16144Y149920D01*
X17102Y147609D01*
X18625Y145625D01*
X20609Y144102D01*
X22920Y143145D01*
X25400Y142818D01*
X27880Y143145D01*
X30191Y144102D01*
X32175Y145625D01*
X33698Y147609D01*
X34655Y149920D01*
X34982Y152400D01*
X34655Y154880D01*
X33698Y157191D01*
X32175Y159175D01*
X30515Y160450D01*
X30432Y161717D01*
X77462Y208747D01*
X96080D01*
X97356Y209001D01*
X98438Y209723D01*
X103055Y214341D01*
X103251Y214259D01*
X105078Y214019D01*
X106834Y214250D01*
X107307Y213291D01*
X107386Y213101D01*
X56596Y162311D01*
X55745Y162730D01*
X49270D01*
Y156255D01*
X49689Y155404D01*
X45642Y151357D01*
X44920Y150276D01*
X44666Y149000D01*
Y146196D01*
X44470Y146115D01*
X43008Y144992D01*
X41885Y143530D01*
X41180Y141827D01*
X40940Y140000D01*
X41180Y138173D01*
X41885Y136470D01*
X43008Y135008D01*
X44470Y133885D01*
X46173Y133180D01*
X48000Y132940D01*
X49827Y133180D01*
X51530Y133885D01*
X52993Y135008D01*
X54114Y136470D01*
X54820Y138173D01*
X55060Y140000D01*
X54820Y141827D01*
X54114Y143530D01*
X52993Y144992D01*
X51530Y146115D01*
X51334Y146196D01*
Y147619D01*
X118057Y214342D01*
X118253Y214261D01*
X120080Y214020D01*
X121908Y214261D01*
X123610Y214966D01*
X125073Y216088D01*
X126019Y217321D01*
X127222Y216913D01*
Y214520D01*
X126728Y213781D01*
X126474Y212505D01*
Y209389D01*
X119213Y202129D01*
X119017Y202210D01*
X117190Y202450D01*
X115363Y202210D01*
X113660Y201504D01*
X112198Y200382D01*
X111075Y198920D01*
X110370Y197217D01*
X110130Y195390D01*
X110370Y193563D01*
X111075Y191860D01*
X112198Y190398D01*
X113660Y189275D01*
X115363Y188570D01*
X117190Y188330D01*
X119017Y188570D01*
X120720Y189275D01*
X122183Y190398D01*
X123305Y191860D01*
X124010Y193563D01*
X124250Y195390D01*
X124010Y197217D01*
X123929Y197414D01*
X131326Y204811D01*
X132594Y204728D01*
X133086Y204087D01*
X134548Y202965D01*
X136251Y202259D01*
X138078Y202019D01*
X139906Y202259D01*
X140102Y202341D01*
X175201Y167242D01*
X174715Y166069D01*
X150764D01*
X150190Y167143D01*
X150658Y169500D01*
X151533Y170375D01*
X151700Y170342D01*
X154057Y170811D01*
X156055Y172145D01*
X157390Y174143D01*
X157606Y175230D01*
X151700D01*
Y176500D01*
X150430D01*
Y182406D01*
X149343Y182190D01*
X147345Y180855D01*
X146011Y178857D01*
X145542Y176500D01*
X144667Y175625D01*
X144500Y175658D01*
X142143Y175189D01*
X140145Y173855D01*
X138810Y171857D01*
X138594Y170770D01*
X144500D01*
Y168230D01*
X138594D01*
X138810Y167143D01*
X138268Y166129D01*
X124460D01*
X123094Y165857D01*
X121937Y165083D01*
X87422Y130569D01*
X34205D01*
X33698Y131791D01*
X32175Y133775D01*
X30191Y135298D01*
X27880Y136256D01*
X25400Y136582D01*
X22920Y136256D01*
X20609Y135298D01*
X18625Y133775D01*
X17102Y131791D01*
X16144Y129480D01*
X15818Y127000D01*
X16144Y124520D01*
X17102Y122209D01*
X18625Y120225D01*
X20609Y118702D01*
X22920Y117745D01*
X25400Y117418D01*
X27880Y117745D01*
X30191Y118702D01*
X32175Y120225D01*
X33698Y122209D01*
X34205Y123431D01*
X88900D01*
X90266Y123703D01*
X91423Y124477D01*
X125938Y158991D01*
X141299D01*
X141601Y158931D01*
X173842D01*
X195821Y136952D01*
Y41910D01*
X196093Y40544D01*
X196867Y39387D01*
X207151Y29102D01*
X206644Y27880D01*
X206318Y25400D01*
X206644Y22920D01*
X207602Y20609D01*
X209125Y18625D01*
X211109Y17102D01*
X213420Y16144D01*
X215900Y15818D01*
X218380Y16144D01*
X220691Y17102D01*
X222675Y18625D01*
X224198Y20609D01*
X225156Y22920D01*
X225482Y25400D01*
X225156Y27880D01*
X224198Y30191D01*
X222675Y32175D01*
X220691Y33698D01*
X218380Y34655D01*
X215900Y34982D01*
X213420Y34655D01*
X212198Y34149D01*
X202959Y43388D01*
Y137825D01*
X204132Y138311D01*
X216666Y125777D01*
Y93581D01*
X213542Y90457D01*
X212820Y89376D01*
X212566Y88100D01*
Y85700D01*
X206400D01*
Y66700D01*
X225400D01*
Y85700D01*
X219874D01*
X219388Y86873D01*
X222358Y89843D01*
X223080Y90924D01*
X223334Y92200D01*
Y128000D01*
X223080Y129276D01*
X222358Y130358D01*
X221276Y131080D01*
X220672Y131200D01*
X144817Y207056D01*
X144898Y207252D01*
X145139Y209079D01*
X145059Y209686D01*
X146198Y210247D01*
X155723Y200723D01*
X156804Y200000D01*
X158080Y199746D01*
X164884D01*
X164966Y199550D01*
X166088Y198088D01*
X167550Y196966D01*
X169253Y196261D01*
X171080Y196020D01*
X172908Y196261D01*
X174610Y196966D01*
X176073Y198088D01*
X177195Y199550D01*
X177900Y201253D01*
X177944Y201586D01*
X179147Y201994D01*
X252086Y129055D01*
Y76762D01*
X250819Y76679D01*
X250555Y78680D01*
X249598Y80991D01*
X248075Y82975D01*
X246091Y84498D01*
X243780Y85456D01*
X241300Y85782D01*
X238820Y85456D01*
X236509Y84498D01*
X234525Y82975D01*
X233002Y80991D01*
X232045Y78680D01*
X231718Y76200D01*
X232045Y73720D01*
X233002Y71409D01*
X234525Y69425D01*
X236509Y67902D01*
X238820Y66944D01*
X241300Y66618D01*
X243780Y66944D01*
X246091Y67902D01*
X248075Y69425D01*
X249598Y71409D01*
X250555Y73720D01*
X250819Y75721D01*
X250819D01*
D01*
X252086Y75638D01*
Y66301D01*
X245237Y59452D01*
X243780Y60055D01*
X241300Y60382D01*
X238820Y60055D01*
X236509Y59098D01*
X234525Y57575D01*
X233002Y55591D01*
X232045Y53280D01*
X231718Y50800D01*
X232045Y48320D01*
X233002Y46009D01*
X234525Y44025D01*
X236333Y42637D01*
X235925Y41434D01*
X227441D01*
X223620Y45255D01*
X224198Y46009D01*
X225156Y48320D01*
X225482Y50800D01*
X225156Y53280D01*
X224198Y55591D01*
X222675Y57575D01*
X220691Y59098D01*
X218380Y60055D01*
X215900Y60382D01*
X213420Y60055D01*
X211109Y59098D01*
X209125Y57575D01*
X207602Y55591D01*
X206644Y53280D01*
X206318Y50800D01*
X206644Y48320D01*
X207602Y46009D01*
X209125Y44025D01*
X211109Y42502D01*
X213420Y41544D01*
X215900Y41218D01*
X217956Y41489D01*
X223702Y35742D01*
X224784Y35020D01*
X226060Y34766D01*
X235038D01*
X235446Y33563D01*
X234139Y32561D01*
X232530Y30463D01*
X231518Y28021D01*
X231341Y26670D01*
X251259D01*
X251082Y28021D01*
X250070Y30463D01*
X248461Y32561D01*
X247154Y33563D01*
X247562Y34766D01*
X248920D01*
X250196Y35020D01*
X251278Y35742D01*
X262358Y46823D01*
X263080Y47904D01*
X263334Y49180D01*
Y132277D01*
X263080Y133553D01*
X262358Y134634D01*
X241535Y155456D01*
X241983Y156538D01*
X242040Y156653D01*
X242729Y156562D01*
Y162730D01*
X236562D01*
X236652Y162040D01*
X236538Y161983D01*
X235456Y161535D01*
X193414Y203577D01*
Y216406D01*
X194617Y216814D01*
X194703Y216703D01*
X196278Y215494D01*
X198112Y214734D01*
X198810Y214642D01*
Y222080D01*
Y229518D01*
X198112Y229426D01*
X196278Y228666D01*
X194703Y227458D01*
X194617Y227346D01*
X193414Y227754D01*
Y238583D01*
X194073Y239088D01*
X195195Y240550D01*
X195900Y242253D01*
X196141Y244080D01*
X195900Y245908D01*
X195195Y247610D01*
X194073Y249073D01*
X192610Y250195D01*
X190908Y250900D01*
X189080Y251141D01*
X187253Y250900D01*
X185550Y250195D01*
X184088Y249073D01*
X182966Y247610D01*
X182260Y245908D01*
X182020Y244080D01*
X182099Y243477D01*
X180960Y242915D01*
X167569Y256306D01*
X167856Y256999D01*
X168096Y258826D01*
X167856Y260653D01*
X167150Y262356D01*
X166028Y263818D01*
X164566Y264940D01*
X162863Y265646D01*
X161036Y265886D01*
X159502Y265684D01*
X159173Y266911D01*
X159232Y266936D01*
X160694Y268058D01*
X161817Y269520D01*
X162522Y271223D01*
X162762Y273050D01*
X162522Y274877D01*
X161817Y276580D01*
X160694Y278042D01*
X159232Y279165D01*
X157529Y279870D01*
X155702Y280110D01*
X153875Y279870D01*
X152172Y279165D01*
X150710Y278042D01*
X149587Y276580D01*
X149506Y276384D01*
X145034D01*
X143758Y276130D01*
X142676Y275408D01*
X135721Y268452D01*
X135105Y267531D01*
X133890Y267899D01*
Y305854D01*
X133636Y307130D01*
X132914Y308212D01*
X111310Y329816D01*
X111598Y331053D01*
X112146Y331239D01*
X136131Y307254D01*
X135942Y305816D01*
X136182Y303989D01*
X136888Y302286D01*
X138010Y300824D01*
X139472Y299701D01*
X141175Y298996D01*
X143002Y298756D01*
X144829Y298996D01*
X146532Y299701D01*
X147994Y300824D01*
X149116Y302286D01*
X149822Y303989D01*
X150062Y305816D01*
X149906Y307007D01*
X150833Y307875D01*
X151130Y307816D01*
X172863D01*
X183824Y296854D01*
X184906Y296132D01*
X186182Y295878D01*
X245772D01*
X245854Y295682D01*
X246976Y294220D01*
X248438Y293097D01*
X250141Y292392D01*
X251968Y292152D01*
X253795Y292392D01*
X255498Y293097D01*
X256960Y294220D01*
X258083Y295682D01*
X258788Y297385D01*
X259028Y299212D01*
X258788Y301039D01*
X258083Y302742D01*
X256960Y304204D01*
X255498Y305326D01*
X253795Y306032D01*
X251968Y306272D01*
X250141Y306032D01*
X248438Y305326D01*
X246976Y304204D01*
X245854Y302742D01*
X245772Y302546D01*
X216342D01*
X216094Y303792D01*
X217941Y304557D01*
X219686Y305895D01*
X221024Y307640D01*
X221170Y307991D01*
X266859D01*
X268615Y308340D01*
X270103Y309335D01*
X308244Y347476D01*
X309239Y348964D01*
X309588Y350720D01*
Y371500D01*
X314300D01*
Y390500D01*
D02*
G37*
G36*
X31750Y401734D02*
X27513Y401400D01*
X23381Y400408D01*
X19454Y398782D01*
X15831Y396561D01*
X12599Y393801D01*
X9839Y390569D01*
X7618Y386946D01*
X5992Y383019D01*
X5000Y378887D01*
X4667Y374650D01*
X5000Y370413D01*
X5992Y366281D01*
X7618Y362354D01*
X9839Y358731D01*
X12599Y355499D01*
X15831Y352739D01*
X19454Y350518D01*
X23381Y348892D01*
X27513Y347900D01*
X31750Y347566D01*
X35987Y347900D01*
X40119Y348892D01*
X44046Y350518D01*
X47669Y352739D01*
X50901Y355499D01*
X53661Y358731D01*
X55882Y362354D01*
X57508Y366281D01*
X58500Y370413D01*
X58833Y374650D01*
X58500Y378887D01*
X57508Y383019D01*
X55882Y386946D01*
X53661Y390569D01*
X50901Y393801D01*
X47669Y396561D01*
X44046Y398782D01*
X40119Y400408D01*
X35987Y401400D01*
X31750Y401734D01*
D02*
G37*
G36*
X355600Y365182D02*
X353120Y364855D01*
X350809Y363898D01*
X348825Y362375D01*
X347302Y360391D01*
X346344Y358080D01*
X346018Y355600D01*
X346344Y353120D01*
X346851Y351898D01*
X273102Y278149D01*
X209285D01*
X208192Y279573D01*
X206730Y280695D01*
X205027Y281400D01*
X203200Y281641D01*
X201373Y281400D01*
X199670Y280695D01*
X198208Y279573D01*
X197085Y278110D01*
X196380Y276408D01*
X196140Y274580D01*
X196380Y272753D01*
X197085Y271050D01*
X198208Y269588D01*
X199670Y268466D01*
X201373Y267760D01*
X203200Y267520D01*
X205027Y267760D01*
X206730Y268466D01*
X208192Y269588D01*
X209285Y271012D01*
X274580D01*
X275946Y271283D01*
X277104Y272057D01*
X351898Y346851D01*
X353120Y346344D01*
X355600Y346018D01*
X358080Y346344D01*
X360391Y347302D01*
X362375Y348825D01*
X363898Y350809D01*
X364855Y353120D01*
X365182Y355600D01*
X364855Y358080D01*
X363898Y360391D01*
X362375Y362375D01*
X360391Y363898D01*
X358080Y364855D01*
X355600Y365182D01*
D02*
G37*
G36*
X99768Y322310D02*
X93600D01*
Y316142D01*
X94299Y316234D01*
X96133Y316994D01*
X97708Y318203D01*
X98916Y319778D01*
X99676Y321612D01*
X99768Y322310D01*
D02*
G37*
G36*
X355600Y314382D02*
X353120Y314056D01*
X350809Y313098D01*
X348825Y311575D01*
X347302Y309591D01*
X346344Y307280D01*
X346018Y304800D01*
X346344Y302320D01*
X347302Y300009D01*
X348825Y298025D01*
X350809Y296502D01*
X353120Y295544D01*
X355600Y295218D01*
X358080Y295544D01*
X360391Y296502D01*
X362375Y298025D01*
X363898Y300009D01*
X364855Y302320D01*
X365182Y304800D01*
X364855Y307280D01*
X363898Y309591D01*
X362375Y311575D01*
X360391Y313098D01*
X358080Y314056D01*
X355600Y314382D01*
D02*
G37*
G36*
X44518Y293810D02*
X38350D01*
Y287642D01*
X39049Y287734D01*
X40883Y288494D01*
X42458Y289703D01*
X43666Y291278D01*
X44426Y293112D01*
X44518Y293810D01*
D02*
G37*
G36*
X35810Y302518D02*
X35112Y302426D01*
X33278Y301666D01*
X31703Y300458D01*
X30494Y298883D01*
X29734Y297049D01*
X29642Y296350D01*
X35810D01*
Y302518D01*
D02*
G37*
G36*
X91060Y322310D02*
X84892D01*
X84984Y321612D01*
X85744Y319778D01*
X86953Y318203D01*
X88528Y316994D01*
X90362Y316234D01*
X91060Y316142D01*
Y322310D01*
D02*
G37*
G36*
X38350Y302518D02*
Y296350D01*
X44518D01*
X44426Y297049D01*
X43666Y298883D01*
X42458Y300458D01*
X40883Y301666D01*
X39049Y302426D01*
X38350Y302518D01*
D02*
G37*
G36*
X278130Y379730D02*
X269441D01*
X269618Y378379D01*
X270630Y375937D01*
X272239Y373839D01*
X274337Y372230D01*
X276779Y371218D01*
X278130Y371041D01*
Y379730D01*
D02*
G37*
G36*
Y390959D02*
X276779Y390782D01*
X274337Y389770D01*
X272239Y388161D01*
X270630Y386063D01*
X269618Y383621D01*
X269441Y382270D01*
X278130D01*
Y390959D01*
D02*
G37*
G36*
X115388Y381000D02*
X109220D01*
Y374832D01*
X109918Y374924D01*
X111753Y375684D01*
X113328Y376892D01*
X114536Y378467D01*
X115296Y380302D01*
X115388Y381000D01*
D02*
G37*
G36*
X280670Y390959D02*
Y382270D01*
X289359D01*
X289182Y383621D01*
X288170Y386063D01*
X286561Y388161D01*
X284463Y389770D01*
X282021Y390782D01*
X280670Y390959D01*
D02*
G37*
G36*
X109220Y389708D02*
Y383540D01*
X115388D01*
X115296Y384238D01*
X114536Y386073D01*
X113328Y387648D01*
X111753Y388856D01*
X109918Y389616D01*
X109220Y389708D01*
D02*
G37*
G36*
X106680D02*
X105982Y389616D01*
X104148Y388856D01*
X102572Y387648D01*
X101364Y386073D01*
X100604Y384238D01*
X100512Y383540D01*
X106680D01*
Y389708D01*
D02*
G37*
G36*
Y381000D02*
X100512D01*
X100604Y380302D01*
X101364Y378467D01*
X102572Y376892D01*
X104148Y375684D01*
X105982Y374924D01*
X106680Y374832D01*
Y381000D01*
D02*
G37*
G36*
X177800Y390582D02*
X175320Y390256D01*
X173009Y389298D01*
X171024Y387775D01*
X169502Y385791D01*
X168545Y383480D01*
X168218Y381000D01*
X168545Y378520D01*
X169502Y376209D01*
X171024Y374225D01*
X173009Y372702D01*
X175320Y371744D01*
X177800Y371418D01*
X180280Y371744D01*
X182591Y372702D01*
X184575Y374225D01*
X186098Y376209D01*
X187055Y378520D01*
X187382Y381000D01*
X187055Y383480D01*
X186098Y385791D01*
X184575Y387775D01*
X182591Y389298D01*
X180280Y390256D01*
X177800Y390582D01*
D02*
G37*
G36*
X289359Y379730D02*
X280670D01*
Y371041D01*
X282021Y371218D01*
X284463Y372230D01*
X286561Y373839D01*
X288170Y375937D01*
X289182Y378379D01*
X289359Y379730D01*
D02*
G37*
G36*
X203200Y390582D02*
X200720Y390256D01*
X198409Y389298D01*
X196425Y387775D01*
X194902Y385791D01*
X193944Y383480D01*
X193618Y381000D01*
X193944Y378520D01*
X194902Y376209D01*
X196425Y374225D01*
X198409Y372702D01*
X200720Y371744D01*
X203200Y371418D01*
X205680Y371744D01*
X207991Y372702D01*
X209975Y374225D01*
X211498Y376209D01*
X212456Y378520D01*
X212782Y381000D01*
X212456Y383480D01*
X211498Y385791D01*
X209975Y387775D01*
X207991Y389298D01*
X205680Y390256D01*
X203200Y390582D01*
D02*
G37*
G36*
X254000D02*
X251520Y390256D01*
X249209Y389298D01*
X247225Y387775D01*
X245702Y385791D01*
X244744Y383480D01*
X244418Y381000D01*
X244744Y378520D01*
X245702Y376209D01*
X247225Y374225D01*
X249209Y372702D01*
X251520Y371744D01*
X254000Y371418D01*
X256480Y371744D01*
X258791Y372702D01*
X260776Y374225D01*
X262298Y376209D01*
X263256Y378520D01*
X263582Y381000D01*
X263256Y383480D01*
X262298Y385791D01*
X260776Y387775D01*
X258791Y389298D01*
X256480Y390256D01*
X254000Y390582D01*
D02*
G37*
G36*
X228600D02*
X226120Y390256D01*
X223809Y389298D01*
X221824Y387775D01*
X220302Y385791D01*
X219345Y383480D01*
X219018Y381000D01*
X219345Y378520D01*
X220302Y376209D01*
X221824Y374225D01*
X223809Y372702D01*
X226120Y371744D01*
X228600Y371418D01*
X231080Y371744D01*
X233391Y372702D01*
X235375Y374225D01*
X236898Y376209D01*
X237855Y378520D01*
X238182Y381000D01*
X237855Y383480D01*
X236898Y385791D01*
X235375Y387775D01*
X233391Y389298D01*
X231080Y390256D01*
X228600Y390582D01*
D02*
G37*
G36*
X354330Y227330D02*
X345641D01*
X345818Y225979D01*
X346830Y223537D01*
X348439Y221439D01*
X350537Y219830D01*
X352979Y218818D01*
X354330Y218641D01*
Y227330D01*
D02*
G37*
G36*
X328930Y223338D02*
Y217170D01*
X335098D01*
X335006Y217868D01*
X334246Y219702D01*
X333038Y221278D01*
X331463Y222486D01*
X329628Y223246D01*
X328930Y223338D01*
D02*
G37*
G36*
X326390D02*
X325692Y223246D01*
X323857Y222486D01*
X322282Y221278D01*
X321074Y219702D01*
X320314Y217868D01*
X320222Y217170D01*
X326390D01*
Y223338D01*
D02*
G37*
G36*
X227330Y230958D02*
X226632Y230866D01*
X224797Y230106D01*
X223222Y228898D01*
X222014Y227323D01*
X221254Y225488D01*
X221162Y224790D01*
X227330D01*
Y230958D01*
D02*
G37*
G36*
X201350Y229518D02*
Y223350D01*
X207518D01*
X207426Y224049D01*
X206666Y225883D01*
X205458Y227458D01*
X203883Y228666D01*
X202049Y229426D01*
X201350Y229518D01*
D02*
G37*
G36*
X365559Y227330D02*
X356870D01*
Y218641D01*
X358221Y218818D01*
X360663Y219830D01*
X362761Y221439D01*
X364370Y223537D01*
X365382Y225979D01*
X365559Y227330D01*
D02*
G37*
G36*
X272000Y251246D02*
X269820Y250959D01*
X267789Y250118D01*
X266045Y248779D01*
X264706Y247035D01*
X263865Y245004D01*
X263578Y242824D01*
X263865Y240644D01*
X264706Y238613D01*
X266045Y236869D01*
X267789Y235530D01*
X269820Y234689D01*
X270756Y234566D01*
X305366Y199956D01*
X306854Y198961D01*
X308610Y198612D01*
X346100D01*
Y193700D01*
X365100D01*
Y212700D01*
X346100D01*
Y207788D01*
X331034D01*
X330786Y209034D01*
X331463Y209314D01*
X333038Y210522D01*
X334246Y212097D01*
X335006Y213932D01*
X335098Y214630D01*
X320222D01*
X320314Y213932D01*
X321074Y212097D01*
X322282Y210522D01*
X323857Y209314D01*
X324534Y209034D01*
X324286Y207788D01*
X310511D01*
X279408Y238890D01*
X280135Y240644D01*
X280422Y242824D01*
X280135Y245004D01*
X279294Y247035D01*
X277955Y248779D01*
X276211Y250118D01*
X274180Y250959D01*
X272000Y251246D01*
D02*
G37*
G36*
X152970Y182406D02*
Y177770D01*
X157606D01*
X157390Y178857D01*
X156055Y180855D01*
X154057Y182190D01*
X152970Y182406D01*
D02*
G37*
G36*
X49270Y171438D02*
Y165270D01*
X55438D01*
X55346Y165968D01*
X54586Y167803D01*
X53378Y169378D01*
X51803Y170586D01*
X49968Y171346D01*
X49270Y171438D01*
D02*
G37*
G36*
X236038Y222250D02*
X229870D01*
Y216082D01*
X230568Y216174D01*
X232402Y216934D01*
X233978Y218142D01*
X235186Y219718D01*
X235946Y221552D01*
X236038Y222250D01*
D02*
G37*
G36*
X227330D02*
X221162D01*
X221254Y221552D01*
X222014Y219718D01*
X223222Y218142D01*
X224797Y216934D01*
X226632Y216174D01*
X227330Y216082D01*
Y222250D01*
D02*
G37*
G36*
X207518Y220810D02*
X201350D01*
Y214642D01*
X202049Y214734D01*
X203883Y215494D01*
X205458Y216703D01*
X206666Y218278D01*
X207426Y220112D01*
X207518Y220810D01*
D02*
G37*
G36*
X355600Y263582D02*
X353120Y263256D01*
X350809Y262298D01*
X348825Y260776D01*
X347302Y258791D01*
X346344Y256480D01*
X346018Y254000D01*
X346344Y251520D01*
X347302Y249209D01*
X348825Y247225D01*
X350809Y245702D01*
X353120Y244744D01*
X355600Y244418D01*
X358080Y244744D01*
X360391Y245702D01*
X362375Y247225D01*
X363898Y249209D01*
X364855Y251520D01*
X365182Y254000D01*
X364855Y256480D01*
X363898Y258791D01*
X362375Y260776D01*
X360391Y262298D01*
X358080Y263256D01*
X355600Y263582D01*
D02*
G37*
G36*
X99518Y244810D02*
X93350D01*
Y238642D01*
X94049Y238734D01*
X95883Y239494D01*
X97458Y240703D01*
X98666Y242278D01*
X99426Y244112D01*
X99518Y244810D01*
D02*
G37*
G36*
X356870Y238559D02*
Y229870D01*
X365559D01*
X365382Y231221D01*
X364370Y233663D01*
X362761Y235761D01*
X360663Y237370D01*
X358221Y238382D01*
X356870Y238559D01*
D02*
G37*
G36*
X355600Y288982D02*
X353120Y288655D01*
X350809Y287698D01*
X348825Y286175D01*
X347302Y284191D01*
X346344Y281880D01*
X346018Y279400D01*
X346344Y276920D01*
X347302Y274609D01*
X348825Y272624D01*
X350809Y271102D01*
X353120Y270145D01*
X355600Y269818D01*
X358080Y270145D01*
X360391Y271102D01*
X362375Y272624D01*
X363898Y274609D01*
X364855Y276920D01*
X365182Y279400D01*
X364855Y281880D01*
X363898Y284191D01*
X362375Y286175D01*
X360391Y287698D01*
X358080Y288655D01*
X355600Y288982D01*
D02*
G37*
G36*
X35810Y293810D02*
X29642D01*
X29734Y293112D01*
X30494Y291278D01*
X31703Y289703D01*
X33278Y288494D01*
X35112Y287734D01*
X35810Y287642D01*
Y293810D01*
D02*
G37*
G36*
X119380Y286838D02*
X118682Y286746D01*
X116847Y285986D01*
X115272Y284778D01*
X114064Y283202D01*
X113304Y281368D01*
X113212Y280670D01*
X119380D01*
Y286838D01*
D02*
G37*
G36*
Y278130D02*
X113212D01*
X113304Y277432D01*
X114064Y275597D01*
X115272Y274022D01*
X116847Y272814D01*
X118682Y272054D01*
X119380Y271962D01*
Y278130D01*
D02*
G37*
G36*
X229870Y230958D02*
Y224790D01*
X236038D01*
X235946Y225488D01*
X235186Y227323D01*
X233978Y228898D01*
X232402Y230106D01*
X230568Y230866D01*
X229870Y230958D01*
D02*
G37*
G36*
X354330Y238559D02*
X352979Y238382D01*
X350537Y237370D01*
X348439Y235761D01*
X346830Y233663D01*
X345818Y231221D01*
X345641Y229870D01*
X354330D01*
Y238559D01*
D02*
G37*
%LPD*%
G36*
X169995Y211147D02*
X169586Y209944D01*
X169253Y209900D01*
X167550Y209195D01*
X166088Y208073D01*
X164966Y206611D01*
X164884Y206414D01*
X159461D01*
X151143Y214733D01*
Y219608D01*
X152282Y220169D01*
X152548Y219965D01*
X154251Y219259D01*
X156078Y219019D01*
X157906Y219259D01*
X159609Y219965D01*
X160496Y220645D01*
X169995Y211147D01*
D02*
G37*
G36*
X130992Y340542D02*
X132074Y339820D01*
X133350Y339566D01*
X234839D01*
X244722Y329683D01*
X244640Y329487D01*
X244400Y327660D01*
X244640Y325833D01*
X245345Y324130D01*
X246468Y322668D01*
X247930Y321545D01*
X249633Y320840D01*
X251460Y320600D01*
X253287Y320840D01*
X254990Y321545D01*
X256452Y322668D01*
X257575Y324130D01*
X258280Y325833D01*
X258445Y327087D01*
X259715D01*
X259880Y325833D01*
X260585Y324130D01*
X261708Y322668D01*
X263170Y321545D01*
X264873Y320840D01*
X266700Y320600D01*
X266897Y319105D01*
X264958Y317167D01*
X220176D01*
X219686Y317806D01*
X217941Y319144D01*
X215910Y319986D01*
X214442Y320179D01*
X213956Y321352D01*
X214666Y322278D01*
X215426Y324112D01*
X215518Y324810D01*
X200642D01*
X200734Y324112D01*
X201494Y322278D01*
X202703Y320703D01*
X204278Y319494D01*
X206112Y318734D01*
X207010Y318616D01*
X207496Y317443D01*
X206437Y316062D01*
X205595Y314030D01*
X205308Y311851D01*
X205595Y309671D01*
X206437Y307640D01*
X207775Y305895D01*
X209519Y304557D01*
X211367Y303792D01*
X211119Y302546D01*
X187563D01*
X176602Y313507D01*
X175520Y314230D01*
X174244Y314484D01*
X152511D01*
X125870Y341125D01*
X126431Y342265D01*
X127000Y342190D01*
X128827Y342430D01*
X129024Y342511D01*
X130992Y340542D01*
D02*
G37*
G36*
X154586Y256106D02*
X154922Y255296D01*
X156044Y253834D01*
X157506Y252712D01*
X159209Y252006D01*
X161036Y251766D01*
X162489Y251957D01*
X176744Y237701D01*
Y225275D01*
X176548Y225194D01*
X175086Y224072D01*
X173964Y222609D01*
X173259Y220907D01*
X173028Y219154D01*
X171825Y218746D01*
X162934Y227638D01*
X162898Y227906D01*
X162193Y229609D01*
X161071Y231071D01*
X159609Y232194D01*
X157906Y232899D01*
X156078Y233139D01*
X154251Y232899D01*
X152548Y232194D01*
X152282Y231989D01*
X151143Y232551D01*
Y254400D01*
X151358Y254489D01*
X152820Y255612D01*
X153327Y256271D01*
X154586Y256106D01*
D02*
G37*
%LPC*%
G36*
X206810Y333518D02*
X206112Y333426D01*
X204278Y332666D01*
X202703Y331458D01*
X201494Y329883D01*
X200734Y328049D01*
X200642Y327350D01*
X206810D01*
Y333518D01*
D02*
G37*
G36*
X209350D02*
Y327350D01*
X215518D01*
X215426Y328049D01*
X214666Y329883D01*
X213458Y331458D01*
X211883Y332666D01*
X210049Y333426D01*
X209350Y333518D01*
D02*
G37*
%LPD*%
D17*
X304800Y381000D02*
D03*
X279400Y25400D02*
D03*
D31*
X215900Y76200D02*
D03*
X25400Y228600D02*
D03*
X355600Y203200D02*
D03*
D32*
X305000Y350720D02*
Y380800D01*
X266859Y312579D02*
X305000Y350720D01*
X214459Y312579D02*
X266859D01*
X213730Y311851D02*
X214459Y312579D01*
X304800Y381000D02*
X305000Y380800D01*
X272000Y239810D02*
Y242824D01*
Y239810D02*
X308610Y203200D01*
X355600D01*
D33*
X274580Y274580D02*
X355600Y355600D01*
X203200Y274580D02*
X274580D01*
X162560Y360680D02*
X233680D01*
X266700Y327660D01*
X25400Y228600D02*
Y241761D01*
X18080Y249080D02*
X25400Y241761D01*
X18080Y249080D02*
Y308080D01*
X51246Y341246D01*
X107185D01*
X199390Y41910D02*
X215900Y25400D01*
X199390Y41910D02*
Y138430D01*
X175320Y162500D02*
X199390Y138430D01*
X141601Y162500D02*
X175320D01*
X141540Y162560D02*
X141601Y162500D01*
X124460Y162560D02*
X141540D01*
X88900Y127000D02*
X124460Y162560D01*
X25400Y127000D02*
X88900D01*
X142615Y305816D02*
X143002D01*
X107185Y341246D02*
X142615Y305816D01*
D34*
X25400Y203200D02*
X35560D01*
X236220Y342900D02*
X251460Y327660D01*
X156078Y226079D02*
X159777D01*
X158080Y203080D02*
X171080D01*
X215900Y48260D02*
Y50800D01*
Y48260D02*
X226060Y38100D01*
X248920D01*
X96080Y212081D02*
X105078Y221079D01*
X180078Y219079D02*
Y239082D01*
X189080Y244080D02*
X190080Y243080D01*
Y202196D02*
Y243080D01*
X186182Y299212D02*
X251968D01*
X174244Y311150D02*
X186182Y299212D01*
X151130Y311150D02*
X174244D01*
X110998Y349746D02*
X112534D01*
X151130Y311150D01*
X127000Y349250D02*
X133350Y342900D01*
X236220D01*
X248920Y38100D02*
X260000Y49180D01*
X241300Y50800D02*
X255420Y64920D01*
X215900Y76200D02*
Y88100D01*
X260000Y49180D02*
Y132277D01*
X190080Y202196D02*
X260000Y132277D01*
X255420Y64920D02*
Y130436D01*
X159777Y226079D02*
X255420Y130436D01*
X215900Y88100D02*
X220000Y92200D01*
Y128000D01*
X25400Y152400D02*
Y161400D01*
X76081Y212081D01*
X96080D01*
X48000Y149000D02*
X120080Y221080D01*
X48000Y140000D02*
Y149000D01*
X138078Y209079D02*
X219579Y127579D01*
X35560Y203200D02*
X99314Y266954D01*
Y282194D01*
X119380Y302260D01*
X161036Y258125D02*
X180078Y239082D01*
X161036Y258125D02*
Y258826D01*
X145034Y273050D02*
X155702D01*
X138078Y209079D02*
Y266094D01*
X145034Y273050D01*
X147808Y213352D02*
X158080Y203080D01*
X147808Y260584D02*
X147828Y260604D01*
X147808Y213352D02*
Y260584D01*
X130556Y213252D02*
Y305854D01*
X104080Y332330D02*
X130556Y305854D01*
X117190Y195390D02*
X129809Y208008D01*
Y212505D01*
X130556Y213252D01*
D39*
X144780Y458847D02*
Y450850D01*
X148779D01*
X150112Y452183D01*
Y453516D01*
X148779Y454849D01*
X144780D01*
X148779D01*
X150112Y456182D01*
Y457514D01*
X148779Y458847D01*
X144780D01*
X154110Y450850D02*
X156776D01*
X158109Y452183D01*
Y454849D01*
X156776Y456182D01*
X154110D01*
X152777Y454849D01*
Y452183D01*
X154110Y450850D01*
X162108Y457514D02*
Y456182D01*
X160775D01*
X163441D01*
X162108D01*
Y452183D01*
X163441Y450850D01*
X168772Y457514D02*
Y456182D01*
X167439D01*
X170105D01*
X168772D01*
Y452183D01*
X170105Y450850D01*
X175437D02*
X178103D01*
X179436Y452183D01*
Y454849D01*
X178103Y456182D01*
X175437D01*
X174104Y454849D01*
Y452183D01*
X175437Y450850D01*
X182101D02*
Y456182D01*
X183434D01*
X184767Y454849D01*
Y450850D01*
Y454849D01*
X186100Y456182D01*
X187433Y454849D01*
Y450850D01*
X198096Y458847D02*
Y450850D01*
X203428D01*
X207426Y456182D02*
X210092D01*
X211425Y454849D01*
Y450850D01*
X207426D01*
X206094Y452183D01*
X207426Y453516D01*
X211425D01*
X214091Y456182D02*
Y452183D01*
X215424Y450850D01*
X219423D01*
Y449517D01*
X218090Y448184D01*
X216757D01*
X219423Y450850D02*
Y456182D01*
X226087Y450850D02*
X223421D01*
X222088Y452183D01*
Y454849D01*
X223421Y456182D01*
X226087D01*
X227420Y454849D01*
Y453516D01*
X222088D01*
X230086Y456182D02*
Y450850D01*
Y453516D01*
X231419Y454849D01*
X232752Y456182D01*
X234084D01*
D40*
X279400Y381000D02*
D03*
X254000D02*
D03*
X228600D02*
D03*
X203200D02*
D03*
X177800D02*
D03*
X241300Y76200D02*
D03*
X215900Y50800D02*
D03*
X241300D02*
D03*
X215900Y25400D02*
D03*
X241300D02*
D03*
X304800D02*
D03*
X25400Y76200D02*
D03*
Y101600D02*
D03*
Y127000D02*
D03*
Y152400D02*
D03*
Y203200D02*
D03*
Y177800D02*
D03*
X355600Y355600D02*
D03*
Y330200D02*
D03*
Y304800D02*
D03*
Y279400D02*
D03*
Y228600D02*
D03*
Y254000D02*
D03*
D41*
X175400Y78400D02*
D03*
X124600D02*
D03*
X175400Y27600D02*
D03*
X124600D02*
D03*
D42*
X150000Y53000D02*
D03*
D43*
X244000Y164000D02*
D03*
X203200Y274580D02*
D03*
X119380Y302260D02*
D03*
X162560Y360680D02*
D03*
X266700Y327660D02*
D03*
X241270Y100888D02*
D03*
X117190Y195390D02*
D03*
X251460Y327660D02*
D03*
X171080Y203080D02*
D03*
X156078Y226079D02*
D03*
X120080Y221080D02*
D03*
X84000Y56000D02*
D03*
X327660Y215900D02*
D03*
X228600Y223520D02*
D03*
X37080Y295080D02*
D03*
X104080Y332330D02*
D03*
X92330Y323580D02*
D03*
X92080Y246080D02*
D03*
X180078Y219079D02*
D03*
X200080Y222080D02*
D03*
X208080Y326080D02*
D03*
X105078Y221079D02*
D03*
X189080Y244080D02*
D03*
X273000Y97000D02*
D03*
X138078Y209079D02*
D03*
X251968Y299212D02*
D03*
X110998Y349746D02*
D03*
X127000Y349250D02*
D03*
X48000Y164000D02*
D03*
X107950Y382270D02*
D03*
X48000Y140000D02*
D03*
X120650Y279400D02*
D03*
X161036Y258826D02*
D03*
X155702Y273050D02*
D03*
X147828Y260604D02*
D03*
X143002Y305816D02*
D03*
D44*
X31750Y374650D02*
D03*
X349250Y31750D02*
D03*
X31750D02*
D03*
D45*
X213730Y311851D02*
D03*
X272000Y242824D02*
D03*
D46*
X144500Y169500D02*
D03*
X151700Y176500D02*
D03*
M02*
