%FSLAX44Y44*%
%MOMM*%
G71*
G01*
G75*
G04 Layer_Color=8388736*
%ADD10C,0.3810*%
%ADD11R,1.1000X1.9000*%
%ADD12R,0.6000X0.5000*%
%ADD13R,0.5000X0.6000*%
%ADD14R,2.4000X1.9000*%
%ADD15R,1.1000X1.0000*%
%ADD16R,0.8000X0.9000*%
%ADD17R,0.9000X0.8000*%
%ADD18O,2.1000X0.3500*%
%ADD19R,1.5000X1.5000*%
%ADD20R,0.6900X1.2000*%
%ADD21R,0.7000X0.7000*%
%ADD22O,1.5000X0.4500*%
%ADD23O,0.4500X1.5000*%
%ADD24R,1.9000X1.2000*%
%ADD25R,1.9000X1.6000*%
%ADD26R,2.0000X2.1000*%
%ADD27R,1.3500X0.4000*%
%ADD28R,0.8000X0.3000*%
%ADD29R,0.3000X0.8000*%
%ADD30R,1.6000X1.6000*%
%ADD31C,0.6020*%
%ADD32C,0.6000*%
%ADD33C,1.2600*%
%ADD34C,0.3000*%
%ADD35C,0.6010*%
%ADD36C,0.5000*%
%ADD37C,0.2540*%
%ADD38C,1.5000*%
%ADD39R,1.5000X1.5000*%
%ADD40C,2.2000*%
%ADD41C,1.0000*%
%ADD42C,1.2700*%
%ADD43C,5.0000*%
%ADD44C,0.7000*%
%ADD45C,0.2500*%
%ADD46C,0.2000*%
%ADD47C,0.0500*%
%ADD48R,0.2500X1.4000*%
%ADD49R,1.3032X2.1032*%
%ADD50R,0.8032X0.7032*%
%ADD51R,0.7032X0.8032*%
%ADD52R,2.6032X2.1032*%
%ADD53R,1.3032X1.2032*%
%ADD54R,1.0032X1.1032*%
%ADD55R,1.1032X1.0032*%
%ADD56O,2.3032X0.5532*%
%ADD57R,1.7032X1.7032*%
%ADD58R,0.8932X1.4032*%
%ADD59R,0.9032X0.9032*%
%ADD60O,1.7032X0.6532*%
%ADD61O,0.6532X1.7032*%
%ADD62R,2.1032X1.4032*%
%ADD63R,2.1032X1.8032*%
%ADD64R,2.2032X2.3032*%
%ADD65R,1.5532X0.6032*%
%ADD66R,1.0032X0.5032*%
%ADD67R,0.5032X1.0032*%
%ADD68R,1.8032X1.8032*%
%ADD69C,1.7032*%
%ADD70R,1.7032X1.7032*%
%ADD71C,2.4032*%
%ADD72C,1.2032*%
%ADD73C,1.4732*%
%ADD74C,5.2032*%
%ADD75C,0.9032*%
G36*
X346783Y110930D02*
X331730D01*
Y136930D01*
X346698D01*
X346783Y110930D01*
D02*
G37*
G36*
X256580Y172210D02*
X237580Y172148D01*
Y186079D01*
X256580D01*
Y172210D01*
D02*
G37*
D49*
X98580Y178580D02*
D03*
X75580Y141580D02*
D03*
X98580D02*
D03*
X75580Y178580D02*
D03*
D50*
X305990Y123952D02*
D03*
X295990D02*
D03*
X111080Y207080D02*
D03*
X101080D02*
D03*
X130000Y130000D02*
D03*
X140000D02*
D03*
X140000Y140000D02*
D03*
X150000D02*
D03*
X68000Y196000D02*
D03*
X78000D02*
D03*
X162000Y100000D02*
D03*
X172000D02*
D03*
X90250Y124500D02*
D03*
X80250D02*
D03*
X68000Y317000D02*
D03*
X58000D02*
D03*
D51*
X317500Y165020D02*
D03*
Y155020D02*
D03*
X114080Y170080D02*
D03*
Y160080D02*
D03*
X80080Y325080D02*
D03*
Y335080D02*
D03*
X151000Y129000D02*
D03*
Y119000D02*
D03*
X271000Y195000D02*
D03*
Y205000D02*
D03*
X271080Y171080D02*
D03*
Y181080D02*
D03*
X322080Y264080D02*
D03*
Y254080D02*
D03*
X228080Y142080D02*
D03*
Y132080D02*
D03*
X120000Y119000D02*
D03*
Y109000D02*
D03*
X130000Y119000D02*
D03*
Y109000D02*
D03*
X181000Y183000D02*
D03*
Y193000D02*
D03*
X151000Y108000D02*
D03*
Y98000D02*
D03*
X181000Y171000D02*
D03*
Y161000D02*
D03*
X192000Y171000D02*
D03*
Y161000D02*
D03*
X204080Y262080D02*
D03*
Y252080D02*
D03*
X40080Y259080D02*
D03*
Y249080D02*
D03*
X204080Y288080D02*
D03*
Y298080D02*
D03*
X114000Y343000D02*
D03*
Y353000D02*
D03*
X181000Y139000D02*
D03*
Y149000D02*
D03*
D52*
X64080Y257580D02*
D03*
D03*
Y298580D02*
D03*
D53*
X84700Y220600D02*
D03*
X67700D02*
D03*
X227500Y157000D02*
D03*
X244500D02*
D03*
D54*
X275080Y157080D02*
D03*
X261080D02*
D03*
D55*
X210000Y194000D02*
D03*
Y208000D02*
D03*
D56*
X232580Y325330D02*
D03*
Y318830D02*
D03*
Y312330D02*
D03*
Y305830D02*
D03*
Y299330D02*
D03*
Y292830D02*
D03*
Y286330D02*
D03*
Y279830D02*
D03*
Y273330D02*
D03*
Y266830D02*
D03*
Y260330D02*
D03*
Y253830D02*
D03*
Y247330D02*
D03*
Y240830D02*
D03*
X301580Y325330D02*
D03*
Y318830D02*
D03*
Y312330D02*
D03*
Y305830D02*
D03*
Y299330D02*
D03*
Y292830D02*
D03*
Y286330D02*
D03*
Y279830D02*
D03*
Y273330D02*
D03*
Y266830D02*
D03*
Y260330D02*
D03*
Y253830D02*
D03*
Y247330D02*
D03*
Y240830D02*
D03*
D57*
X71000Y381000D02*
D03*
X149000D02*
D03*
X279400Y25400D02*
D03*
X304800Y381000D02*
D03*
D58*
X237580Y205080D02*
D03*
X256580D02*
D03*
X237580Y179079D02*
D03*
X247080D02*
D03*
X256580D02*
D03*
D59*
X264580Y140080D02*
D03*
X253580D02*
D03*
D60*
X186080Y281080D02*
D03*
Y273080D02*
D03*
Y257080D02*
D03*
Y265080D02*
D03*
Y297080D02*
D03*
Y289080D02*
D03*
Y305080D02*
D03*
Y313080D02*
D03*
X102080D02*
D03*
Y305080D02*
D03*
Y281080D02*
D03*
Y273080D02*
D03*
Y257080D02*
D03*
Y265080D02*
D03*
Y297080D02*
D03*
Y289080D02*
D03*
D61*
X116080Y243080D02*
D03*
X124080D02*
D03*
X132080D02*
D03*
X140080D02*
D03*
X148080D02*
D03*
X156080D02*
D03*
X164080D02*
D03*
X172080D02*
D03*
X116080Y327080D02*
D03*
X124080D02*
D03*
X132080D02*
D03*
X140080D02*
D03*
X148080D02*
D03*
X156080D02*
D03*
X164080D02*
D03*
X172080D02*
D03*
D62*
X365740Y115430D02*
D03*
X365730Y132430D02*
D03*
D63*
X365740Y82930D02*
D03*
Y164930D02*
D03*
D64*
X340240Y92930D02*
D03*
X340230Y154930D02*
D03*
D65*
X339240Y110930D02*
D03*
Y117430D02*
D03*
Y123930D02*
D03*
Y130430D02*
D03*
Y136930D02*
D03*
D66*
X128580Y163080D02*
D03*
Y168080D02*
D03*
Y173080D02*
D03*
Y178080D02*
D03*
Y183080D02*
D03*
X167580D02*
D03*
Y178080D02*
D03*
Y173080D02*
D03*
Y168080D02*
D03*
Y163080D02*
D03*
X128580Y183080D02*
D03*
D67*
X138080Y192580D02*
D03*
X143080D02*
D03*
X148080D02*
D03*
X153080D02*
D03*
X158080D02*
D03*
Y153580D02*
D03*
X153080D02*
D03*
X148080D02*
D03*
X143080D02*
D03*
X138080D02*
D03*
D68*
X148080Y173080D02*
D03*
D69*
X241300Y25400D02*
D03*
X215900D02*
D03*
X241300Y50800D02*
D03*
X215900D02*
D03*
X241300Y76200D02*
D03*
X355600Y228600D02*
D03*
Y254000D02*
D03*
Y279400D02*
D03*
Y304800D02*
D03*
Y330200D02*
D03*
Y355600D02*
D03*
Y381000D02*
D03*
X25400Y203200D02*
D03*
Y177800D02*
D03*
Y152400D02*
D03*
Y127000D02*
D03*
Y101600D02*
D03*
X304800Y25400D02*
D03*
X279400Y381000D02*
D03*
X254000D02*
D03*
X228600D02*
D03*
X203200D02*
D03*
X177800D02*
D03*
D70*
X215900Y76200D02*
D03*
X355600Y203200D02*
D03*
X25400Y228600D02*
D03*
D71*
X175400Y78400D02*
D03*
X124600D02*
D03*
X175400Y27600D02*
D03*
X124600D02*
D03*
X150000Y53000D02*
D03*
D72*
X117190Y195390D02*
D03*
X251460Y299720D02*
D03*
Y327660D02*
D03*
X147320Y309880D02*
D03*
X129540Y342900D02*
D03*
X171080Y203080D02*
D03*
X140078Y279079D02*
D03*
X152080Y270080D02*
D03*
X147078Y257079D02*
D03*
X156078Y226079D02*
D03*
X120080Y221080D02*
D03*
X118080Y300080D02*
D03*
X204080Y274580D02*
D03*
X137080Y300080D02*
D03*
X170080Y289080D02*
D03*
X71080Y102080D02*
D03*
X80080Y45080D02*
D03*
X332000Y213000D02*
D03*
X230250Y227500D02*
D03*
X37080Y295080D02*
D03*
X104080Y332330D02*
D03*
X92330Y323580D02*
D03*
X92080Y246080D02*
D03*
X180078Y219079D02*
D03*
X200080Y222080D02*
D03*
X208080Y326080D02*
D03*
X105078Y221079D02*
D03*
X189080Y244080D02*
D03*
X282110Y136010D02*
D03*
X138078Y209079D02*
D03*
D73*
X270500Y224750D02*
D03*
X213730Y311851D02*
D03*
D74*
X31750Y374650D02*
D03*
X349250Y31750D02*
D03*
X31750D02*
D03*
D75*
X144500Y169500D02*
D03*
X151700Y176500D02*
D03*
M02*
