%FSLAX44Y44*%
%MOMM*%
G71*
G01*
G75*
G04 Layer_Color=16711935*
%ADD10C,0.3810*%
%ADD11R,1.6000X1.6000*%
%ADD12R,0.8000X0.3000*%
%ADD13R,0.3000X0.8000*%
%ADD14R,1.9000X1.2000*%
%ADD15R,1.9000X1.6000*%
%ADD16R,2.0000X2.1000*%
%ADD17R,1.3500X0.4000*%
%ADD18R,1.1000X1.9000*%
%ADD19R,0.6000X0.5000*%
%ADD20R,0.5000X0.6000*%
%ADD21R,2.4000X1.9000*%
%ADD22R,1.1000X1.0000*%
%ADD23R,0.8000X0.9000*%
%ADD24R,0.9000X0.8000*%
%ADD25O,2.1000X0.3500*%
%ADD26R,0.6900X1.2000*%
%ADD27R,0.7000X0.7000*%
%ADD28O,1.5000X0.4500*%
%ADD29O,0.4500X1.5000*%
%ADD30R,1.5000X1.5000*%
%ADD31C,0.3000*%
%ADD32C,0.6020*%
%ADD33C,0.6000*%
%ADD34C,1.2600*%
%ADD35C,0.6010*%
%ADD36C,0.5000*%
%ADD37C,0.2540*%
%ADD38C,0.1000*%
%ADD39C,1.5000*%
%ADD40R,1.5000X1.5000*%
%ADD41C,2.2000*%
%ADD42C,1.2700*%
%ADD43C,1.0000*%
%ADD44C,5.0000*%
%ADD45C,0.7000*%
%ADD46C,0.2500*%
%ADD47C,0.2000*%
%ADD48C,0.0500*%
%ADD49R,0.2500X1.4000*%
%ADD50R,1.8032X1.8032*%
%ADD51R,1.0032X0.5032*%
%ADD52R,0.5032X1.0032*%
%ADD53R,2.1032X1.4032*%
%ADD54R,2.1032X1.8032*%
%ADD55R,2.2032X2.3032*%
%ADD56R,1.5532X0.6032*%
%ADD57R,1.3032X2.1032*%
%ADD58R,0.8032X0.7032*%
%ADD59R,0.7032X0.8032*%
%ADD60R,2.6032X2.1032*%
%ADD61R,1.3032X1.2032*%
%ADD62R,1.0032X1.1032*%
%ADD63R,1.1032X1.0032*%
%ADD64O,2.3032X0.5532*%
%ADD65R,0.8932X1.4032*%
%ADD66R,0.9032X0.9032*%
%ADD67O,1.7032X0.6532*%
%ADD68O,0.6532X1.7032*%
%ADD69R,1.7032X1.7032*%
%ADD70C,1.7032*%
%ADD71R,1.7032X1.7032*%
%ADD72C,2.4032*%
%ADD73C,1.4732*%
%ADD74C,1.2032*%
%ADD75C,5.2032*%
%ADD76C,0.9032*%
%ADD77C,0.1524*%
D37*
X-27940Y406400D02*
X-2790D01*
X-27940Y0D02*
X-2790D01*
X-25400Y288263D02*
Y406400D01*
Y0D02*
Y110010D01*
X-30480Y391160D02*
X-25400Y406400D01*
X-20320Y391160D01*
X-25400Y0D02*
X-20320Y15240D01*
X-30480D02*
X-25400Y0D01*
X381000Y409190D02*
Y434340D01*
X0Y409190D02*
Y434340D01*
X275562Y431800D02*
X381000D01*
X0D02*
X97310D01*
X365760Y436880D02*
X381000Y431800D01*
X365760Y426720D02*
X381000Y431800D01*
X0D02*
X15240Y426720D01*
X0Y431800D02*
X15240Y436880D01*
D38*
X144780Y450850D02*
Y458847D01*
X147446Y456182D01*
X150112Y458847D01*
Y450850D01*
X156776D02*
X154110D01*
X152777Y452183D01*
Y454849D01*
X154110Y456182D01*
X156776D01*
X158109Y454849D01*
Y453516D01*
X152777D01*
X166106Y456182D02*
X162108D01*
X160775Y454849D01*
Y452183D01*
X162108Y450850D01*
X166106D01*
X168772Y458847D02*
Y450850D01*
Y454849D01*
X170105Y456182D01*
X172771D01*
X174104Y454849D01*
Y450850D01*
X178103Y456182D02*
X180768D01*
X182101Y454849D01*
Y450850D01*
X178103D01*
X176770Y452183D01*
X178103Y453516D01*
X182101D01*
X184767Y450850D02*
Y456182D01*
X188766D01*
X190099Y454849D01*
Y450850D01*
X192764D02*
X195430D01*
X194097D01*
Y456182D01*
X192764D01*
X204761D02*
X200762D01*
X199429Y454849D01*
Y452183D01*
X200762Y450850D01*
X204761D01*
X208759Y456182D02*
X211425D01*
X212758Y454849D01*
Y450850D01*
X208759D01*
X207426Y452183D01*
X208759Y453516D01*
X212758D01*
X215424Y450850D02*
X218090D01*
X216757D01*
Y458847D01*
X215424D01*
X230086Y450850D02*
X232752D01*
X231419D01*
Y458847D01*
X230086Y457514D01*
D48*
X381000Y0D02*
Y96000D01*
Y104500D02*
Y143500D01*
Y152000D02*
Y406400D01*
X366500Y104500D02*
X381000D01*
X366500D02*
X381000D01*
X366500Y96000D02*
X381000D01*
X366500D02*
Y104500D01*
Y143500D02*
Y152000D01*
Y143500D02*
X381000D01*
X366500Y152000D02*
X381000D01*
X366500D02*
X381000D01*
X0Y0D02*
X381000D01*
X0Y406400D02*
X381000D01*
X0Y0D02*
Y406400D01*
D77*
X-13719Y114074D02*
Y119152D01*
Y116613D01*
X-28954D01*
X-26415Y114074D01*
X-28954Y136926D02*
X-26415Y131848D01*
X-21337Y126770D01*
X-16258D01*
X-13719Y129309D01*
Y134387D01*
X-16258Y136926D01*
X-18798D01*
X-21337Y134387D01*
Y126770D01*
X-26415Y142004D02*
X-28954Y144544D01*
Y149622D01*
X-26415Y152161D01*
X-16258D01*
X-13719Y149622D01*
Y144544D01*
X-16258Y142004D01*
X-26415D01*
Y157240D02*
X-28954Y159779D01*
Y164857D01*
X-26415Y167396D01*
X-16258D01*
X-13719Y164857D01*
Y159779D01*
X-16258Y157240D01*
X-26415D01*
X-11180Y175014D02*
X-13719Y177553D01*
X-16258D01*
Y175014D01*
X-13719D01*
Y177553D01*
X-11180Y175014D01*
X-8641Y172475D01*
X-26415Y187710D02*
X-28954Y190249D01*
Y195327D01*
X-26415Y197866D01*
X-16258D01*
X-13719Y195327D01*
Y190249D01*
X-16258Y187710D01*
X-26415D01*
Y202945D02*
X-28954Y205484D01*
Y210562D01*
X-26415Y213102D01*
X-16258D01*
X-13719Y210562D01*
Y205484D01*
X-16258Y202945D01*
X-26415D01*
X-13719Y233415D02*
X-23876D01*
Y235954D01*
X-21337Y238493D01*
X-13719D01*
X-21337D01*
X-23876Y241033D01*
X-21337Y243572D01*
X-13719D01*
Y248650D02*
Y253728D01*
Y251189D01*
X-23876D01*
Y248650D01*
X-13719Y261346D02*
Y266424D01*
Y263885D01*
X-28954D01*
Y261346D01*
X-13719Y274042D02*
Y281659D01*
X-16258Y284198D01*
X-18798Y281659D01*
Y276581D01*
X-21337Y274042D01*
X-23876Y276581D01*
Y284198D01*
X101374Y420119D02*
X106452D01*
X103913D01*
Y435354D01*
X101374Y432815D01*
X124226Y435354D02*
X114069D01*
Y427737D01*
X119148Y430276D01*
X121687D01*
X124226Y427737D01*
Y422659D01*
X121687Y420119D01*
X116609D01*
X114069Y422659D01*
X129305Y432815D02*
X131844Y435354D01*
X136922D01*
X139461Y432815D01*
Y422659D01*
X136922Y420119D01*
X131844D01*
X129305Y422659D01*
Y432815D01*
X144540D02*
X147079Y435354D01*
X152157D01*
X154696Y432815D01*
Y422659D01*
X152157Y420119D01*
X147079D01*
X144540Y422659D01*
Y432815D01*
X162314Y417580D02*
X164853Y420119D01*
Y422659D01*
X162314D01*
Y420119D01*
X164853D01*
X162314Y417580D01*
X159775Y415041D01*
X175010Y432815D02*
X177549Y435354D01*
X182627D01*
X185166Y432815D01*
Y422659D01*
X182627Y420119D01*
X177549D01*
X175010Y422659D01*
Y432815D01*
X190245D02*
X192784Y435354D01*
X197862D01*
X200402Y432815D01*
Y422659D01*
X197862Y420119D01*
X192784D01*
X190245Y422659D01*
Y432815D01*
X220715Y420119D02*
Y430276D01*
X223254D01*
X225793Y427737D01*
Y420119D01*
Y427737D01*
X228333Y430276D01*
X230872Y427737D01*
Y420119D01*
X235950D02*
X241028D01*
X238489D01*
Y430276D01*
X235950D01*
X248646Y420119D02*
X253724D01*
X251185D01*
Y435354D01*
X248646D01*
X261342Y420119D02*
X268959D01*
X271499Y422659D01*
X268959Y425198D01*
X263881D01*
X261342Y427737D01*
X263881Y430276D01*
X271499D01*
M02*
