%FSLAX44Y44*%
%MOMM*%
G71*
G01*
G75*
G04 Layer_Color=32896*
%ADD10C,0.3810*%
%ADD11R,0.8000X0.9000*%
%ADD12R,0.6000X0.5000*%
%ADD13R,0.5000X0.6000*%
%ADD14R,1.3000X1.5000*%
%ADD15R,1.0000X1.1000*%
%ADD16R,1.1000X1.0000*%
%ADD17R,1.5000X1.5000*%
%ADD18R,1.5000X1.5000*%
%ADD19O,1.5000X0.4500*%
%ADD20O,0.4500X1.5000*%
%ADD21R,0.8000X0.3000*%
%ADD22R,0.3000X0.8000*%
%ADD23R,1.6000X1.6000*%
%ADD24O,2.1000X0.3500*%
%ADD25R,0.6900X1.2000*%
%ADD26R,1.9000X1.9000*%
%ADD27R,1.9000X1.8000*%
%ADD28R,1.6000X2.1000*%
%ADD29R,1.3500X0.4000*%
%ADD30R,2.4000X1.9000*%
%ADD31R,1.1000X1.9000*%
%ADD32C,0.5000*%
%ADD33C,0.3000*%
%ADD34C,0.2540*%
%ADD35C,0.6000*%
%ADD36C,0.6010*%
%ADD37C,0.6020*%
%ADD38C,1.2600*%
%ADD39C,0.1000*%
%ADD40C,1.5000*%
%ADD41R,2.2000X2.2000*%
%ADD42C,2.3000*%
%ADD43C,1.2700*%
%ADD44C,1.0000*%
%ADD45C,0.7000*%
%ADD46C,5.0000*%
%ADD47C,0.2500*%
%ADD48C,0.2000*%
%ADD49C,0.0500*%
%ADD50R,0.2500X1.4000*%
%ADD51R,1.0032X1.1032*%
%ADD52R,0.8032X0.7032*%
%ADD53R,0.7032X0.8032*%
%ADD54R,1.5032X1.7032*%
%ADD55R,1.2032X1.3032*%
%ADD56R,1.3032X1.2032*%
%ADD57R,1.7032X1.7032*%
%ADD58R,1.7032X1.7032*%
%ADD59O,1.7032X0.6532*%
%ADD60O,0.6532X1.7032*%
%ADD61R,1.0032X0.5032*%
%ADD62R,0.5032X1.0032*%
%ADD63R,1.8032X1.8032*%
%ADD64O,2.3032X0.5532*%
%ADD65R,0.8932X1.4032*%
%ADD66R,2.1032X2.1032*%
%ADD67R,2.1032X2.0032*%
%ADD68R,1.8032X2.3032*%
%ADD69R,1.5532X0.6032*%
%ADD70R,2.6032X2.1032*%
%ADD71R,1.3032X2.1032*%
%ADD72C,1.7032*%
%ADD73R,2.4032X2.4032*%
%ADD74C,2.5032*%
%ADD75C,1.4732*%
%ADD76C,1.2032*%
%ADD77C,0.9032*%
%ADD78C,5.2032*%
%ADD79C,0.0254*%
D39*
X144780Y458847D02*
Y450850D01*
X148779D01*
X150112Y452183D01*
Y453516D01*
X148779Y454849D01*
X144780D01*
X148779D01*
X150112Y456182D01*
Y457514D01*
X148779Y458847D01*
X144780D01*
X154110Y450850D02*
X156776D01*
X158109Y452183D01*
Y454849D01*
X156776Y456182D01*
X154110D01*
X152777Y454849D01*
Y452183D01*
X154110Y450850D01*
X162108Y457514D02*
Y456182D01*
X160775D01*
X163441D01*
X162108D01*
Y452183D01*
X163441Y450850D01*
X168772Y457514D02*
Y456182D01*
X167439D01*
X170105D01*
X168772D01*
Y452183D01*
X170105Y450850D01*
X175437D02*
X178103D01*
X179436Y452183D01*
Y454849D01*
X178103Y456182D01*
X175437D01*
X174104Y454849D01*
Y452183D01*
X175437Y450850D01*
X182101D02*
Y456182D01*
X183434D01*
X184767Y454849D01*
Y450850D01*
Y454849D01*
X186100Y456182D01*
X187433Y454849D01*
Y450850D01*
X202095Y458847D02*
X199429D01*
X198096Y457514D01*
Y452183D01*
X199429Y450850D01*
X202095D01*
X203428Y452183D01*
Y457514D01*
X202095Y458847D01*
X206094Y456182D02*
X208759Y450850D01*
X211425Y456182D01*
X218090Y450850D02*
X215424D01*
X214091Y452183D01*
Y454849D01*
X215424Y456182D01*
X218090D01*
X219423Y454849D01*
Y453516D01*
X214091D01*
X222088Y456182D02*
Y450850D01*
Y453516D01*
X223421Y454849D01*
X224754Y456182D01*
X226087D01*
X230086Y450850D02*
X232752D01*
X231419D01*
Y458847D01*
X230086D01*
X238083Y456182D02*
X240749D01*
X242082Y454849D01*
Y450850D01*
X238083D01*
X236750Y452183D01*
X238083Y453516D01*
X242082D01*
X244748Y456182D02*
Y452183D01*
X246081Y450850D01*
X250079D01*
Y449517D01*
X248746Y448184D01*
X247414D01*
X250079Y450850D02*
Y456182D01*
D48*
X363000Y63000D02*
Y70997D01*
X359001D01*
X357668Y69665D01*
Y66999D01*
X359001Y65666D01*
X363000D01*
X360334D02*
X357668Y63000D01*
X351004D02*
X353670D01*
X355003Y64333D01*
Y66999D01*
X353670Y68332D01*
X351004D01*
X349671Y66999D01*
Y65666D01*
X355003D01*
X347005Y68332D02*
X344339Y63000D01*
X341674Y68332D01*
X339008Y63000D02*
X336342D01*
X337675D01*
Y68332D01*
X339008D01*
X332343Y63000D02*
X328344D01*
X327012Y64333D01*
X328344Y65666D01*
X331010D01*
X332343Y66999D01*
X331010Y68332D01*
X327012D01*
X324346Y63000D02*
X321680D01*
X323013D01*
Y68332D01*
X324346D01*
X316348Y63000D02*
X313683D01*
X312350Y64333D01*
Y66999D01*
X313683Y68332D01*
X316348D01*
X317681Y66999D01*
Y64333D01*
X316348Y63000D01*
X309684D02*
Y68332D01*
X305685D01*
X304352Y66999D01*
Y63000D01*
X288357D02*
X293689D01*
X288357Y68332D01*
Y69665D01*
X289690Y70997D01*
X292356D01*
X293689Y69665D01*
X363000Y85997D02*
X357668D01*
X360334D01*
Y78000D01*
X355003Y85997D02*
Y78000D01*
Y81999D01*
X353670Y83332D01*
X351004D01*
X349671Y81999D01*
Y78000D01*
X347005D02*
X344339D01*
X345672D01*
Y83332D01*
X347005D01*
X340341Y78000D02*
Y83332D01*
X336342D01*
X335009Y81999D01*
Y78000D01*
X329677Y75334D02*
X328344D01*
X327012Y76667D01*
Y83332D01*
X331010D01*
X332343Y81999D01*
Y79333D01*
X331010Y78000D01*
X327012D01*
X316348Y85997D02*
Y78000D01*
X312350D01*
X311017Y79333D01*
Y84664D01*
X312350Y85997D01*
X316348D01*
X304352Y78000D02*
X307018D01*
X308351Y79333D01*
Y81999D01*
X307018Y83332D01*
X304352D01*
X303019Y81999D01*
Y80666D01*
X308351D01*
X300354Y83332D02*
X297688Y78000D01*
X295022Y83332D01*
X292356Y85997D02*
Y78000D01*
X288357D01*
X287024Y79333D01*
Y80666D01*
X288357Y81999D01*
X292356D01*
X288357D01*
X287024Y83332D01*
Y84664D01*
X288357Y85997D01*
X292356D01*
X283026Y78000D02*
X280360D01*
X279027Y79333D01*
Y81999D01*
X280360Y83332D01*
X283026D01*
X284359Y81999D01*
Y79333D01*
X283026Y78000D01*
X275028Y83332D02*
X272363D01*
X271030Y81999D01*
Y78000D01*
X275028D01*
X276361Y79333D01*
X275028Y80666D01*
X271030D01*
X268364Y83332D02*
Y78000D01*
Y80666D01*
X267031Y81999D01*
X265698Y83332D01*
X264365D01*
X255035Y85997D02*
Y78000D01*
X259034D01*
X260366Y79333D01*
Y81999D01*
X259034Y83332D01*
X255035D01*
X329636Y103505D02*
Y95508D01*
Y98174D01*
X324304Y103505D01*
X328303Y99507D01*
X324304Y95508D01*
X321639D02*
Y103505D01*
X316307Y95508D01*
Y103505D01*
X312308Y95508D02*
X309642D01*
X308309Y96841D01*
Y99507D01*
X309642Y100840D01*
X312308D01*
X313641Y99507D01*
Y96841D01*
X312308Y95508D01*
X305644Y103505D02*
X300312D01*
X302978D01*
Y95508D01*
D79*
X331724Y186690D02*
X336296D01*
X299212D02*
X303784D01*
X330962Y186436D02*
X336804D01*
X298704D02*
X304800D01*
X329946Y186182D02*
X337820D01*
X297942D02*
X305816D01*
X329692Y185928D02*
X338074D01*
X297434D02*
X305816D01*
X328676Y185674D02*
X339344D01*
X296418D02*
X306832D01*
X328168Y185420D02*
X339598D01*
X295910D02*
X307340D01*
X327914Y185166D02*
X339852D01*
X295656D02*
X308102D01*
X327660Y184912D02*
X340360D01*
X295402D02*
X308102D01*
X326898Y184658D02*
X340868D01*
X294640D02*
X308864D01*
X326644Y184404D02*
X341122D01*
X294386D02*
X309118D01*
X326136Y184150D02*
X341630D01*
X294132D02*
X309372D01*
X325882Y183896D02*
X341884D01*
X293878D02*
X309626D01*
X325628Y183642D02*
X342138D01*
X293370D02*
X310134D01*
X325374Y183388D02*
X342392D01*
X293116D02*
X310134D01*
X325120Y183134D02*
X342646D01*
X292862D02*
X310642D01*
X324866Y182880D02*
X342900D01*
X292862D02*
X310642D01*
X324612Y182626D02*
X343154D01*
X292354D02*
X311150D01*
X324358Y182372D02*
X343408D01*
X292100D02*
X311150D01*
X324104Y182118D02*
X343662D01*
X291846D02*
X311404D01*
X323850Y181864D02*
X343916D01*
X291846D02*
X311658D01*
X323596Y181610D02*
X343916D01*
X291592D02*
X312166D01*
X323596Y181356D02*
X344170D01*
X291338D02*
X312166D01*
X323342Y181102D02*
X344424D01*
X291338D02*
X312166D01*
X335280Y180848D02*
X344424D01*
X323342D02*
X332486D01*
X303530D02*
X312166D01*
X291084D02*
X299974D01*
X336296Y180594D02*
X344678D01*
X323088D02*
X331470D01*
X304292D02*
X312674D01*
X290830D02*
X299212D01*
X336550Y180340D02*
X344932D01*
X322834D02*
X330962D01*
X304800D02*
X312674D01*
X290830D02*
X298704D01*
X337058Y180086D02*
X344932D01*
X322580D02*
X330708D01*
X305054D02*
X312928D01*
X290830D02*
X298450D01*
X337820Y179832D02*
X344932D01*
X322580D02*
X329946D01*
X305816D02*
X313182D01*
X290576D02*
X297688D01*
X338074Y179578D02*
X345186D01*
X322580D02*
X329692D01*
X306070D02*
X313182D01*
X290322D02*
X297688D01*
X338074Y179324D02*
X345186D01*
X322326D02*
X329438D01*
X306324D02*
X313182D01*
X290322D02*
X297180D01*
X338582Y179070D02*
X345440D01*
X322326D02*
X329184D01*
X306578D02*
X313182D01*
X290068D02*
X296926D01*
X339090Y178816D02*
X345694D01*
X322326D02*
X328676D01*
X307086D02*
X313436D01*
X290068D02*
X296672D01*
X339090Y178562D02*
X345694D01*
X322072D02*
X328676D01*
X307086D02*
X313690D01*
X289814D02*
X296672D01*
X339090Y178308D02*
X345694D01*
X321818D02*
X328422D01*
X307086D02*
X313690D01*
X289814D02*
X296418D01*
X339344Y178054D02*
X345948D01*
X321818D02*
X328422D01*
X307340D02*
X313690D01*
X289814D02*
X296164D01*
X339598Y177800D02*
X345948D01*
X321818D02*
X327914D01*
X307594D02*
X313944D01*
X289814D02*
X295910D01*
X339852Y177546D02*
X346202D01*
X321564D02*
X327914D01*
X307848D02*
X313944D01*
X289814D02*
X295656D01*
X340106Y177292D02*
X346202D01*
X321564D02*
X327660D01*
X308102D02*
X314198D01*
X289814D02*
X295656D01*
X340106Y177038D02*
X346202D01*
X321564D02*
X327660D01*
X308102D02*
X314198D01*
X289560D02*
X295656D01*
X340106Y176784D02*
X346202D01*
X321564D02*
X327660D01*
X308102D02*
X314198D01*
X289560D02*
X295402D01*
X340106Y176530D02*
X346202D01*
X321564D02*
X327660D01*
X308356D02*
X314198D01*
X289306D02*
X295402D01*
X340360Y176276D02*
X346202D01*
X321564D02*
X327406D01*
X308356D02*
X314198D01*
X289306D02*
X295402D01*
X340360Y176022D02*
X346202D01*
X321564D02*
X327406D01*
X308356D02*
X314198D01*
X289306D02*
X295402D01*
X340360Y175768D02*
X346202D01*
X321310D02*
X327406D01*
X308356D02*
X314198D01*
X289306D02*
X295148D01*
X340360Y175514D02*
X346202D01*
X321310D02*
X327152D01*
X308356D02*
X314198D01*
X289306D02*
X295148D01*
X340360Y175260D02*
X346456D01*
X321310D02*
X327152D01*
X308356D02*
X314198D01*
X289306D02*
X295148D01*
X340614Y175006D02*
X346456D01*
X321310D02*
X327152D01*
X308610D02*
X314198D01*
X289306D02*
X294894D01*
X340614Y174752D02*
X346456D01*
X321310D02*
X327152D01*
X308610D02*
X314198D01*
X289052D02*
X294894D01*
X340614Y174498D02*
X346456D01*
X321310D02*
X327152D01*
X308610D02*
X314198D01*
X289052D02*
X294894D01*
X340614Y174244D02*
X346456D01*
X321310D02*
X327152D01*
X308610D02*
X314198D01*
X289052D02*
X294894D01*
X340614Y173990D02*
X346456D01*
X321310D02*
X327152D01*
X308610D02*
X314198D01*
X289052D02*
X294894D01*
X340614Y173736D02*
X346456D01*
X321310D02*
X327152D01*
X308610D02*
X314198D01*
X289306D02*
X294894D01*
X340614Y173482D02*
X346456D01*
X321310D02*
X327152D01*
X308610D02*
X314198D01*
X289306D02*
X295148D01*
X340614Y173228D02*
X346456D01*
X321310D02*
X327152D01*
X308356D02*
X314198D01*
X289306D02*
X295148D01*
X340360Y172974D02*
X346456D01*
X321310D02*
X327152D01*
X308356D02*
X314198D01*
X289306D02*
X295148D01*
X340360Y172720D02*
X346202D01*
X321310D02*
X327406D01*
X308356D02*
X314198D01*
X289306D02*
X295148D01*
X340360Y172466D02*
X346202D01*
X321310D02*
X327406D01*
X308356D02*
X314198D01*
X289306D02*
X295402D01*
X340360Y172212D02*
X346202D01*
X321564D02*
X327406D01*
X308356D02*
X314198D01*
X289306D02*
X295402D01*
X340106Y171958D02*
X346202D01*
X321564D02*
X327660D01*
X308356D02*
X314198D01*
X289306D02*
X295402D01*
X340106Y171704D02*
X346202D01*
X321564D02*
X327660D01*
X308102D02*
X314198D01*
X289560D02*
X295656D01*
X340106Y171450D02*
X346202D01*
X321564D02*
X327660D01*
X308102D02*
X314198D01*
X289560D02*
X295656D01*
X340106Y171196D02*
X346202D01*
X321564D02*
X327660D01*
X307848D02*
X314198D01*
X289560D02*
X295656D01*
X339852Y170942D02*
X346202D01*
X321564D02*
X327660D01*
X307848D02*
X313944D01*
X289814D02*
X295656D01*
X339598Y170688D02*
X345948D01*
X321818D02*
X327914D01*
X307594D02*
X313944D01*
X289814D02*
X295910D01*
X339344Y170434D02*
X345948D01*
X321818D02*
X327914D01*
X307340D02*
X313690D01*
X289814D02*
X296164D01*
X339344Y170180D02*
X345948D01*
X321818D02*
X327914D01*
X307086D02*
X313690D01*
X289814D02*
X296164D01*
X339090Y169926D02*
X345694D01*
X322072D02*
X327914D01*
X307086D02*
X313690D01*
X289814D02*
X296418D01*
X339090Y169672D02*
X345694D01*
X322326D02*
X327660D01*
X307086D02*
X313436D01*
X290068D02*
X296418D01*
X338582Y169418D02*
X345440D01*
X322326D02*
X327660D01*
X306578D02*
X313182D01*
X290068D02*
X296418D01*
X338328Y169164D02*
X345440D01*
X322326D02*
X327660D01*
X306324D02*
X313182D01*
X290322D02*
X296418D01*
X338074Y168910D02*
X345186D01*
X322580D02*
X327660D01*
X306070D02*
X313182D01*
X290322D02*
X296418D01*
X338074Y168656D02*
X344932D01*
X322580D02*
X327152D01*
X305816D02*
X313182D01*
X290576D02*
X296164D01*
X337312Y168402D02*
X344932D01*
X322834D02*
X326898D01*
X305054D02*
X312928D01*
X290830D02*
X296164D01*
X337058Y168148D02*
X344932D01*
X323088D02*
X326644D01*
X304800D02*
X312928D01*
X290830D02*
X295910D01*
X336296Y167894D02*
X344932D01*
X323596D02*
X326644D01*
X304038D02*
X312674D01*
X290830D02*
X295910D01*
X336042Y167640D02*
X344424D01*
X324358D02*
X325374D01*
X303784D02*
X312420D01*
X291084D02*
X295656D01*
X333248Y167386D02*
X344424D01*
X300990D02*
X312166D01*
X291338D02*
X295656D01*
X332740Y167132D02*
X344170D01*
X300482D02*
X312166D01*
X291592D02*
X295148D01*
X332232Y166878D02*
X344170D01*
X299974D02*
X312166D01*
X291846D02*
X294894D01*
X331978Y166624D02*
X343916D01*
X299974D02*
X311658D01*
X292608D02*
X294132D01*
X331724Y166370D02*
X343662D01*
X299466D02*
X311658D01*
X331470Y166116D02*
X343408D01*
X299466D02*
X311404D01*
X331216Y165862D02*
X343154D01*
X299212D02*
X311150D01*
X331216Y165608D02*
X342900D01*
X299212D02*
X310896D01*
X330962Y165354D02*
X342646D01*
X298958D02*
X310642D01*
X330962Y165100D02*
X342392D01*
X298958D02*
X310388D01*
X330962Y164846D02*
X342138D01*
X298958D02*
X310134D01*
X330962Y164592D02*
X341884D01*
X298958D02*
X309880D01*
X330962Y164338D02*
X341630D01*
X298958D02*
X309372D01*
X330962Y164084D02*
X341376D01*
X298958D02*
X309118D01*
X330962Y163830D02*
X340868D01*
X298958D02*
X309118D01*
X330962Y163576D02*
X340360D01*
X298958D02*
X308356D01*
X330962Y163322D02*
X339852D01*
X298958D02*
X308102D01*
X330962Y163068D02*
X339852D01*
X298958D02*
X307594D01*
X330962Y162814D02*
X339090D01*
X298958D02*
X307086D01*
X330962Y162560D02*
X338328D01*
X298958D02*
X306324D01*
X330962Y162306D02*
X337566D01*
X298958D02*
X305562D01*
X330962Y162052D02*
X337058D01*
X298958D02*
X304800D01*
X330962Y161798D02*
X336804D01*
X298958D02*
X304800D01*
X330962Y161544D02*
X336804D01*
X298958D02*
X304800D01*
X330962Y161290D02*
X336804D01*
X298958D02*
X304800D01*
X330962Y161036D02*
X336804D01*
X298958D02*
X304800D01*
X330962Y160782D02*
X336804D01*
X299212D02*
X304800D01*
X330962Y160528D02*
X336804D01*
X299212D02*
X304800D01*
X330962Y160274D02*
X336804D01*
X299212D02*
X305054D01*
X330962Y160020D02*
X336804D01*
X299212D02*
X305054D01*
X330962Y159766D02*
X336804D01*
X299212D02*
X305054D01*
X330962Y159512D02*
X336804D01*
X299466D02*
X305054D01*
X330962Y159258D02*
X336804D01*
X299466D02*
X305308D01*
X330962Y159004D02*
X336804D01*
X299466D02*
X305308D01*
X330962Y158750D02*
X336804D01*
X299466D02*
X305562D01*
X330962Y158496D02*
X336804D01*
X299466D02*
X305562D01*
X330962Y158242D02*
X336804D01*
X299720D02*
X305816D01*
X330962Y157988D02*
X336804D01*
X299720D02*
X305816D01*
X330962Y157734D02*
X336804D01*
X299974D02*
X305816D01*
X330962Y157480D02*
X336804D01*
X299974D02*
X305816D01*
X330962Y157226D02*
X336804D01*
X299974D02*
X306070D01*
X330962Y156972D02*
X336804D01*
X299974D02*
X306324D01*
X330962Y156718D02*
X336804D01*
X299974D02*
X306324D01*
X330962Y156464D02*
X336804D01*
X300228D02*
X306578D01*
X330962Y156210D02*
X336804D01*
X300228D02*
X306832D01*
X330962Y155956D02*
X336804D01*
X300482D02*
X307086D01*
X330962Y155702D02*
X336804D01*
X300482D02*
X307086D01*
X330962Y155448D02*
X336804D01*
X300736D02*
X307340D01*
X330962Y155194D02*
X336804D01*
X300990D02*
X308102D01*
X330962Y154940D02*
X336804D01*
X300990D02*
X308102D01*
X330962Y154686D02*
X336804D01*
X300990D02*
X308356D01*
X330962Y154432D02*
X336804D01*
X301244D02*
X308610D01*
X330962Y154178D02*
X336804D01*
X301244D02*
X309372D01*
X330962Y153924D02*
X336804D01*
X301498D02*
X309880D01*
X330962Y153670D02*
X336804D01*
X301498D02*
X310134D01*
X330962Y153416D02*
X336804D01*
X302006D02*
X310642D01*
X330962Y153162D02*
X336804D01*
X302006D02*
X311404D01*
X330962Y152908D02*
X336804D01*
X302006D02*
X312166D01*
X330962Y152654D02*
X336804D01*
X302260D02*
X312674D01*
X330962Y152400D02*
X336804D01*
X302768D02*
X313182D01*
X330962Y152146D02*
X336804D01*
X303022D02*
X314198D01*
X330962Y151892D02*
X336804D01*
X303022D02*
X314960D01*
X330962Y151638D02*
X336804D01*
X303276D02*
X315722D01*
X330962Y151384D02*
X336804D01*
X303784D02*
X316230D01*
X330962Y151130D02*
X336804D01*
X304038D02*
X317246D01*
X330962Y150876D02*
X336804D01*
X304038D02*
X317754D01*
X330962Y150622D02*
X336804D01*
X304292D02*
X318262D01*
X330962Y150368D02*
X336804D01*
X305054D02*
X318516D01*
X330962Y150114D02*
X336804D01*
X305054D02*
X319532D01*
X330962Y149860D02*
X336804D01*
X305308D02*
X320040D01*
X330962Y149606D02*
X336804D01*
X305816D02*
X320294D01*
X330962Y149352D02*
X336804D01*
X306324D02*
X320548D01*
X330962Y149098D02*
X336804D01*
X306832D02*
X321310D01*
X330962Y148844D02*
X336804D01*
X307086D02*
X321564D01*
X330962Y148590D02*
X336804D01*
X307594D02*
X322072D01*
X330962Y148336D02*
X336804D01*
X308356D02*
X322326D01*
X330962Y148082D02*
X336804D01*
X309118D02*
X322834D01*
X330962Y147828D02*
X336804D01*
X309372D02*
X323088D01*
X330962Y147574D02*
X336804D01*
X309880D02*
X323342D01*
X330962Y147320D02*
X336804D01*
X310896D02*
X323596D01*
X330962Y147066D02*
X336804D01*
X311658D02*
X324104D01*
X330962Y146812D02*
X336804D01*
X311912D02*
X324358D01*
X330962Y146558D02*
X336804D01*
X312674D02*
X324358D01*
X330962Y146304D02*
X336804D01*
X313690D02*
X324612D01*
X330962Y146050D02*
X336804D01*
X314452D02*
X325120D01*
X330962Y145796D02*
X336804D01*
X314960D02*
X325374D01*
X330962Y145542D02*
X336804D01*
X315468D02*
X325374D01*
X330962Y145288D02*
X336804D01*
X316484D02*
X325374D01*
X330962Y145034D02*
X336804D01*
X316992D02*
X325882D01*
X330962Y144780D02*
X336804D01*
X317246D02*
X325882D01*
X330962Y144526D02*
X336804D01*
X317754D02*
X326136D01*
X330962Y144272D02*
X336804D01*
X318516D02*
X326390D01*
X330962Y144018D02*
X336804D01*
X318770D02*
X326644D01*
X330962Y143764D02*
X336804D01*
X319024D02*
X326644D01*
X330962Y143510D02*
X336804D01*
X319278D02*
X326898D01*
X330962Y143256D02*
X336804D01*
X319786D02*
X326898D01*
X330962Y143002D02*
X336804D01*
X320040D02*
X327152D01*
X330962Y142748D02*
X336804D01*
X320294D02*
X327406D01*
X330962Y142494D02*
X336804D01*
X320548D02*
X327406D01*
X330962Y142240D02*
X336804D01*
X320802D02*
X327660D01*
X330962Y141986D02*
X336804D01*
X321056D02*
X327660D01*
X330962Y141732D02*
X336804D01*
X321310D02*
X327660D01*
X330962Y141478D02*
X336804D01*
X321310D02*
X327914D01*
X330962Y141224D02*
X336804D01*
X321564D02*
X327914D01*
X330962Y140970D02*
X336804D01*
X321564D02*
X327914D01*
X330962Y140716D02*
X336804D01*
X321818D02*
X328168D01*
X330962Y140462D02*
X336804D01*
X321818D02*
X328168D01*
X330962Y140208D02*
X336804D01*
X322326D02*
X328422D01*
X330962Y139954D02*
X336804D01*
X322326D02*
X328422D01*
X330962Y139700D02*
X336804D01*
X322326D02*
X328676D01*
X330962Y139446D02*
X336804D01*
X322580D02*
X328676D01*
X330962Y139192D02*
X336804D01*
X322580D02*
X328676D01*
X330962Y138938D02*
X336804D01*
X322580D02*
X328676D01*
X330962Y138684D02*
X336804D01*
X322834D02*
X328676D01*
X330962Y138430D02*
X336804D01*
X322834D02*
X328676D01*
X313436D02*
X317246D01*
X330962Y138176D02*
X336804D01*
X322834D02*
X328930D01*
X312420D02*
X318516D01*
X330962Y137922D02*
X336804D01*
X323088D02*
X328930D01*
X310896D02*
X320040D01*
X330962Y137668D02*
X336804D01*
X323088D02*
X328930D01*
X310388D02*
X320802D01*
X330962Y137414D02*
X336804D01*
X323088D02*
X328930D01*
X309880D02*
X321310D01*
X330962Y137160D02*
X336804D01*
X323342D02*
X328930D01*
X309372D02*
X321564D01*
X330962Y136906D02*
X336804D01*
X323342D02*
X329184D01*
X308610D02*
X322580D01*
X330962Y136652D02*
X336804D01*
X323342D02*
X329184D01*
X308356D02*
X323088D01*
X330962Y136398D02*
X336804D01*
X307848D02*
X329438D01*
X330962Y136144D02*
X336804D01*
X307340D02*
X329438D01*
X295656D02*
X295910D01*
X330962Y135890D02*
X337566D01*
X306832D02*
X329438D01*
X293878D02*
X297434D01*
X330962Y135636D02*
X338328D01*
X306578D02*
X329438D01*
X293624D02*
X297688D01*
X330962Y135382D02*
X338836D01*
X306070D02*
X329438D01*
X292862D02*
X297942D01*
X330962Y135128D02*
X339090D01*
X306070D02*
X329438D01*
X292608D02*
X298196D01*
X330962Y134874D02*
X339852D01*
X305562D02*
X329438D01*
X291846D02*
X298450D01*
X330962Y134620D02*
X340360D01*
X305054D02*
X329692D01*
X291592D02*
X298450D01*
X330962Y134366D02*
X340614D01*
X305054D02*
X329692D01*
X291084D02*
X298704D01*
X330962Y134112D02*
X340868D01*
X304800D02*
X329692D01*
X290830D02*
X298704D01*
X330962Y133858D02*
X341630D01*
X304038D02*
X329692D01*
X290322D02*
X298704D01*
X330962Y133604D02*
X341884D01*
X304038D02*
X329692D01*
X290068D02*
X298704D01*
X330962Y133350D02*
X341884D01*
X303784D02*
X329692D01*
X289814D02*
X298704D01*
X330962Y133096D02*
X342138D01*
X303530D02*
X329692D01*
X289814D02*
X298704D01*
X330962Y132842D02*
X342646D01*
X315976D02*
X329692D01*
X303022D02*
X314198D01*
X289306D02*
X298704D01*
X330962Y132588D02*
X342900D01*
X317500D02*
X329692D01*
X303022D02*
X313182D01*
X289052D02*
X298704D01*
X331216Y132334D02*
X342900D01*
X318008D02*
X329692D01*
X302768D02*
X312674D01*
X288798D02*
X298704D01*
X331216Y132080D02*
X343154D01*
X319278D02*
X329692D01*
X302768D02*
X311658D01*
X288798D02*
X298450D01*
X331470Y131826D02*
X343662D01*
X319532D02*
X329692D01*
X302514D02*
X311150D01*
X288290D02*
X298450D01*
X331724Y131572D02*
X343916D01*
X320294D02*
X329692D01*
X302260D02*
X311150D01*
X288036D02*
X298196D01*
X331978Y131318D02*
X343916D01*
X320548D02*
X329692D01*
X302260D02*
X310642D01*
X287782D02*
X298196D01*
X332232Y131064D02*
X343916D01*
X321564D02*
X329692D01*
X302260D02*
X310134D01*
X287782D02*
X297688D01*
X332740Y130810D02*
X344170D01*
X321818D02*
X329692D01*
X302260D02*
X309626D01*
X287528D02*
X297180D01*
X332994Y130556D02*
X344424D01*
X322326D02*
X329692D01*
X302260D02*
X309372D01*
X287528D02*
X296926D01*
X335280Y130302D02*
X344678D01*
X322834D02*
X329692D01*
X302260D02*
X309118D01*
X287274D02*
X296164D01*
X336550Y130048D02*
X344678D01*
X322834D02*
X329692D01*
X302260D02*
X309118D01*
X287020D02*
X295402D01*
X337058Y129794D02*
X344932D01*
X322580D02*
X329692D01*
X302260D02*
X309372D01*
X287020D02*
X294894D01*
X337312Y129540D02*
X344932D01*
X322580D02*
X329692D01*
X302514D02*
X309626D01*
X286766D02*
X294640D01*
X337820Y129286D02*
X345186D01*
X322580D02*
X329692D01*
X302514D02*
X309626D01*
X286766D02*
X294132D01*
X338074Y129032D02*
X345186D01*
X322580D02*
X329438D01*
X302768D02*
X309626D01*
X286512D02*
X293624D01*
X338582Y128778D02*
X345440D01*
X322326D02*
X329184D01*
X303022D02*
X309880D01*
X286512D02*
X293624D01*
X338582Y128524D02*
X345694D01*
X322326D02*
X328930D01*
X303022D02*
X310134D01*
X286512D02*
X293370D01*
X339090Y128270D02*
X345694D01*
X322072D02*
X328676D01*
X303276D02*
X310134D01*
X286258D02*
X293116D01*
X339090Y128016D02*
X345694D01*
X322072D02*
X328676D01*
X303530D02*
X310134D01*
X286258D02*
X292608D01*
X339344Y127762D02*
X345948D01*
X321818D02*
X328422D01*
X303784D02*
X310134D01*
X286004D02*
X292608D01*
X339344Y127508D02*
X345948D01*
X321818D02*
X328168D01*
X304038D02*
X310134D01*
X286004D02*
X292608D01*
X339598Y127254D02*
X346202D01*
X321564D02*
X327914D01*
X304038D02*
X310388D01*
X286004D02*
X292608D01*
X339852Y127000D02*
X346202D01*
X321564D02*
X327914D01*
X304038D02*
X310388D01*
X285750D02*
X292100D01*
X340106Y126746D02*
X346202D01*
X321564D02*
X327660D01*
X304292D02*
X310642D01*
X285750D02*
X292100D01*
X340106Y126492D02*
X346202D01*
X321564D02*
X327660D01*
X304292D02*
X310642D01*
X285750D02*
X291846D01*
X340106Y126238D02*
X346202D01*
X321564D02*
X327660D01*
X304546D02*
X310642D01*
X285750D02*
X291846D01*
X340106Y125984D02*
X346202D01*
X321564D02*
X327406D01*
X304546D02*
X310642D01*
X285750D02*
X291592D01*
X340360Y125730D02*
X346202D01*
X321310D02*
X327406D01*
X304800D02*
X310642D01*
X285496D02*
X291592D01*
X340360Y125476D02*
X346202D01*
X321310D02*
X327406D01*
X304800D02*
X310642D01*
X285496D02*
X291592D01*
X340360Y125222D02*
X346202D01*
X321310D02*
X327406D01*
X304800D02*
X310896D01*
X285496D02*
X291592D01*
X340614Y124968D02*
X346202D01*
X321310D02*
X327152D01*
X305054D02*
X310896D01*
X285496D02*
X291592D01*
X340614Y124714D02*
X346456D01*
X321310D02*
X327152D01*
X305054D02*
X310896D01*
X285496D02*
X291592D01*
X340614Y124460D02*
X346456D01*
X321310D02*
X327152D01*
X305054D02*
X310896D01*
X285496D02*
X291592D01*
X340614Y124206D02*
X346456D01*
X321310D02*
X327152D01*
X305054D02*
X310896D01*
X285496D02*
X291592D01*
X340614Y123952D02*
X346456D01*
X321310D02*
X327152D01*
X305054D02*
X310896D01*
X285496D02*
X291592D01*
X340614Y123698D02*
X346456D01*
X321310D02*
X327152D01*
X305054D02*
X310896D01*
X285496D02*
X291592D01*
X340614Y123444D02*
X346456D01*
X321310D02*
X327152D01*
X305054D02*
X310896D01*
X285496D02*
X291592D01*
X340614Y123190D02*
X346456D01*
X321310D02*
X327152D01*
X305054D02*
X310896D01*
X285496D02*
X291592D01*
X340614Y122936D02*
X346456D01*
X321310D02*
X327152D01*
X305054D02*
X310896D01*
X285496D02*
X291592D01*
X340614Y122682D02*
X346456D01*
X321310D02*
X327152D01*
X304800D02*
X310896D01*
X285496D02*
X291592D01*
X340360Y122428D02*
X346202D01*
X321310D02*
X327152D01*
X304800D02*
X310896D01*
X285496D02*
X291592D01*
X340360Y122174D02*
X346202D01*
X321310D02*
X327406D01*
X304800D02*
X310642D01*
X285496D02*
X291592D01*
X340360Y121920D02*
X346202D01*
X321564D02*
X327406D01*
X304800D02*
X310642D01*
X285496D02*
X291592D01*
X340360Y121666D02*
X346202D01*
X321564D02*
X327406D01*
X304546D02*
X310642D01*
X285750D02*
X291846D01*
X340106Y121412D02*
X346202D01*
X321564D02*
X327406D01*
X304292D02*
X310642D01*
X285750D02*
X291846D01*
X340106Y121158D02*
X346202D01*
X321564D02*
X327660D01*
X304292D02*
X310642D01*
X285750D02*
X291846D01*
X340106Y120904D02*
X346202D01*
X321564D02*
X327660D01*
X304292D02*
X310388D01*
X286004D02*
X292100D01*
X339852Y120650D02*
X346202D01*
X321564D02*
X327660D01*
X304038D02*
X310388D01*
X286004D02*
X292354D01*
X339852Y120396D02*
X346202D01*
X321564D02*
X327914D01*
X304038D02*
X310388D01*
X286004D02*
X292354D01*
X339598Y120142D02*
X345948D01*
X321818D02*
X327914D01*
X303784D02*
X310134D01*
X286258D02*
X292608D01*
X339598Y119888D02*
X345948D01*
X321818D02*
X328168D01*
X303784D02*
X310134D01*
X286258D02*
X292608D01*
X339090Y119634D02*
X345694D01*
X322072D02*
X328422D01*
X303276D02*
X310134D01*
X286258D02*
X292862D01*
X339090Y119380D02*
X345694D01*
X322072D02*
X328676D01*
X303022D02*
X310134D01*
X286512D02*
X293116D01*
X339090Y119126D02*
X345694D01*
X322072D02*
X328676D01*
X303022D02*
X309880D01*
X286512D02*
X293370D01*
X338582Y118872D02*
X345440D01*
X322326D02*
X328930D01*
X302768D02*
X309626D01*
X286512D02*
X293624D01*
X338074Y118618D02*
X345186D01*
X322580D02*
X329438D01*
X302260D02*
X309626D01*
X286512D02*
X294132D01*
X338074Y118364D02*
X345186D01*
X322580D02*
X329692D01*
X302006D02*
X309626D01*
X286766D02*
X294386D01*
X337820Y118110D02*
X344932D01*
X322580D02*
X329946D01*
X301752D02*
X309372D01*
X286766D02*
X294640D01*
X337312Y117856D02*
X344932D01*
X322834D02*
X330200D01*
X301244D02*
X309118D01*
X287274D02*
X294894D01*
X336804Y117602D02*
X344932D01*
X322834D02*
X330962D01*
X300482D02*
X309118D01*
X287274D02*
X295910D01*
X336042Y117348D02*
X344678D01*
X323088D02*
X331724D01*
X299974D02*
X309118D01*
X287528D02*
X296672D01*
X335280Y117094D02*
X344678D01*
X323342D02*
X332232D01*
X297942D02*
X308864D01*
X287528D02*
X297688D01*
X334010Y116840D02*
X344170D01*
X323596D02*
X333756D01*
X287782D02*
X308610D01*
X323596Y116586D02*
X344170D01*
X287782D02*
X308356D01*
X323596Y116332D02*
X343916D01*
X288036D02*
X308102D01*
X323850Y116078D02*
X343916D01*
X288290D02*
X308102D01*
X324104Y115824D02*
X343662D01*
X288798D02*
X307848D01*
X324358Y115570D02*
X343408D01*
X288798D02*
X307594D01*
X324612Y115316D02*
X343154D01*
X288798D02*
X307340D01*
X324612Y115062D02*
X342900D01*
X289306D02*
X307086D01*
X325120Y114808D02*
X342646D01*
X289560D02*
X306832D01*
X325374Y114554D02*
X342392D01*
X289814D02*
X306578D01*
X325628Y114300D02*
X342138D01*
X289814D02*
X306324D01*
X325882Y114046D02*
X341884D01*
X290322D02*
X306070D01*
X326390Y113792D02*
X341376D01*
X290830D02*
X305562D01*
X326898Y113538D02*
X341122D01*
X291084D02*
X305054D01*
X326898Y113284D02*
X340868D01*
X291338D02*
X304800D01*
X327406Y113030D02*
X340360D01*
X291846D02*
X304800D01*
X327914Y112776D02*
X339852D01*
X292608D02*
X303784D01*
X328422Y112522D02*
X339344D01*
X292862D02*
X303530D01*
X328930Y112268D02*
X338836D01*
X293370D02*
X303022D01*
X329438Y112014D02*
X338328D01*
X293878D02*
X302260D01*
X330454Y111760D02*
X337312D01*
X295402D02*
X301244D01*
X331216Y111506D02*
X336550D01*
X296672D02*
X299720D01*
X332232Y111252D02*
X335788D01*
M02*
