%FSLAX44Y44*%
%MOMM*%
G71*
G01*
G75*
G04 Layer_Color=16711935*
%ADD10C,0.3810*%
%ADD11R,1.6000X1.6000*%
%ADD12R,0.8000X0.3000*%
%ADD13R,0.3000X0.8000*%
%ADD14R,1.9000X1.2000*%
%ADD15R,1.9000X1.6000*%
%ADD16R,2.0000X2.1000*%
%ADD17R,1.3500X0.4000*%
%ADD18R,1.1000X1.9000*%
%ADD19R,0.6000X0.5000*%
%ADD20R,0.5000X0.6000*%
%ADD21R,2.4000X1.9000*%
%ADD22R,1.1000X1.0000*%
%ADD23R,0.8000X0.9000*%
%ADD24R,0.9000X0.8000*%
%ADD25O,2.1000X0.3500*%
%ADD26R,0.6900X1.2000*%
%ADD27R,0.7000X0.7000*%
%ADD28O,1.5000X0.4500*%
%ADD29O,0.4500X1.5000*%
%ADD30R,1.5000X1.5000*%
%ADD31C,0.3000*%
%ADD32C,0.6020*%
%ADD33C,0.6000*%
%ADD34C,1.2600*%
%ADD35C,0.6010*%
%ADD36C,0.5000*%
%ADD37C,0.2540*%
%ADD38C,0.1000*%
%ADD39C,1.5000*%
%ADD40R,1.5000X1.5000*%
%ADD41C,2.2000*%
%ADD42C,1.2700*%
%ADD43C,1.0000*%
%ADD44C,5.0000*%
%ADD45C,0.7000*%
%ADD46C,0.2500*%
%ADD47C,0.2000*%
%ADD48C,0.0500*%
%ADD49R,0.2500X1.4000*%
%ADD50R,1.8032X1.8032*%
%ADD51R,1.0032X0.5032*%
%ADD52R,0.5032X1.0032*%
%ADD53R,2.1032X1.4032*%
%ADD54R,2.1032X1.8032*%
%ADD55R,2.2032X2.3032*%
%ADD56R,1.5532X0.6032*%
%ADD57R,1.3032X2.1032*%
%ADD58R,0.8032X0.7032*%
%ADD59R,0.7032X0.8032*%
%ADD60R,2.6032X2.1032*%
%ADD61R,1.3032X1.2032*%
%ADD62R,1.0032X1.1032*%
%ADD63R,1.1032X1.0032*%
%ADD64O,2.3032X0.5532*%
%ADD65R,0.8932X1.4032*%
%ADD66R,0.9032X0.9032*%
%ADD67O,1.7032X0.6532*%
%ADD68O,0.6532X1.7032*%
%ADD69R,1.7032X1.7032*%
%ADD70C,1.7032*%
%ADD71R,1.7032X1.7032*%
%ADD72C,2.4032*%
%ADD73C,1.4732*%
%ADD74C,1.2032*%
%ADD75C,5.2032*%
%ADD76C,0.9032*%
D38*
X144780Y458847D02*
Y450850D01*
X148779D01*
X150112Y452183D01*
Y453516D01*
X148779Y454849D01*
X144780D01*
X148779D01*
X150112Y456182D01*
Y457514D01*
X148779Y458847D01*
X144780D01*
X154110Y450850D02*
X156776D01*
X158109Y452183D01*
Y454849D01*
X156776Y456182D01*
X154110D01*
X152777Y454849D01*
Y452183D01*
X154110Y450850D01*
X162108Y457514D02*
Y456182D01*
X160775D01*
X163441D01*
X162108D01*
Y452183D01*
X163441Y450850D01*
X168772Y457514D02*
Y456182D01*
X167439D01*
X170105D01*
X168772D01*
Y452183D01*
X170105Y450850D01*
X175437D02*
X178103D01*
X179436Y452183D01*
Y454849D01*
X178103Y456182D01*
X175437D01*
X174104Y454849D01*
Y452183D01*
X175437Y450850D01*
X182101D02*
Y456182D01*
X183434D01*
X184767Y454849D01*
Y450850D01*
Y454849D01*
X186100Y456182D01*
X187433Y454849D01*
Y450850D01*
X203428Y457514D02*
X202095Y458847D01*
X199429D01*
X198096Y457514D01*
Y456182D01*
X199429Y454849D01*
X202095D01*
X203428Y453516D01*
Y452183D01*
X202095Y450850D01*
X199429D01*
X198096Y452183D01*
X207426Y450850D02*
X210092D01*
X211425Y452183D01*
Y454849D01*
X210092Y456182D01*
X207426D01*
X206094Y454849D01*
Y452183D01*
X207426Y450850D01*
X214091D02*
X216757D01*
X215424D01*
Y458847D01*
X214091D01*
X226087D02*
Y450850D01*
X222088D01*
X220756Y452183D01*
Y454849D01*
X222088Y456182D01*
X226087D01*
X232752Y450850D02*
X230086D01*
X228753Y452183D01*
Y454849D01*
X230086Y456182D01*
X232752D01*
X234084Y454849D01*
Y453516D01*
X228753D01*
X236750Y456182D02*
Y450850D01*
Y453516D01*
X238083Y454849D01*
X239416Y456182D01*
X240749D01*
D69*
X279400Y25400D02*
D03*
X304800Y381000D02*
D03*
D70*
Y25400D02*
D03*
X279400Y381000D02*
D03*
X254000D02*
D03*
X228600D02*
D03*
X203200D02*
D03*
X177800D02*
D03*
X241300Y25400D02*
D03*
X215900D02*
D03*
X241300Y50800D02*
D03*
X215900D02*
D03*
X241300Y76200D02*
D03*
X355600Y228600D02*
D03*
Y254000D02*
D03*
Y279400D02*
D03*
Y304800D02*
D03*
Y330200D02*
D03*
Y355600D02*
D03*
Y381000D02*
D03*
X25400Y203200D02*
D03*
Y177800D02*
D03*
Y152400D02*
D03*
Y127000D02*
D03*
Y101600D02*
D03*
D71*
X215900Y76200D02*
D03*
X355600Y203200D02*
D03*
X25400Y228600D02*
D03*
D72*
X175400Y78400D02*
D03*
X124600D02*
D03*
X175400Y27600D02*
D03*
X124600D02*
D03*
X150000Y53000D02*
D03*
D73*
X270510Y240030D02*
D03*
X213730Y311851D02*
D03*
D74*
X222250Y101600D02*
D03*
X117190Y195390D02*
D03*
X251460Y299720D02*
D03*
Y327660D02*
D03*
X147320Y309880D02*
D03*
X129540Y342900D02*
D03*
X171080Y203080D02*
D03*
X140078Y279079D02*
D03*
X152080Y270080D02*
D03*
X147078Y257079D02*
D03*
X156078Y226079D02*
D03*
X120080Y221080D02*
D03*
X118080Y300080D02*
D03*
X204080Y274580D02*
D03*
X137080Y300080D02*
D03*
X170080Y289080D02*
D03*
X71080Y102080D02*
D03*
X80080Y45080D02*
D03*
X332000Y213000D02*
D03*
X228600Y223520D02*
D03*
X37080Y295080D02*
D03*
X104080Y332330D02*
D03*
X92330Y323580D02*
D03*
X92080Y246080D02*
D03*
X180078Y219079D02*
D03*
X200080Y222080D02*
D03*
X208080Y326080D02*
D03*
X105078Y221079D02*
D03*
X189080Y244080D02*
D03*
X282110Y136010D02*
D03*
X138078Y209079D02*
D03*
D75*
X31750Y374650D02*
D03*
X349250Y31750D02*
D03*
X31750D02*
D03*
D76*
X144500Y169500D02*
D03*
X151700Y176500D02*
D03*
M02*
