%FSLAX44Y44*%
%MOMM*%
G71*
G01*
G75*
G04 Layer_Color=8421504*
%ADD10C,0.3810*%
%ADD11R,0.8000X0.9000*%
%ADD12R,0.6000X0.5000*%
%ADD13R,0.5000X0.6000*%
%ADD14R,1.3000X1.5000*%
%ADD15R,1.0000X1.1000*%
%ADD16R,1.1000X1.0000*%
%ADD17R,1.5000X1.5000*%
%ADD18R,1.5000X1.5000*%
%ADD19O,1.5000X0.4500*%
%ADD20O,0.4500X1.5000*%
%ADD21R,0.8000X0.3000*%
%ADD22R,0.3000X0.8000*%
%ADD23R,1.6000X1.6000*%
%ADD24O,2.1000X0.3500*%
%ADD25R,0.6900X1.2000*%
%ADD26R,1.9000X1.9000*%
%ADD27R,1.9000X1.8000*%
%ADD28R,1.6000X2.1000*%
%ADD29R,1.3500X0.4000*%
%ADD30R,2.4000X1.9000*%
%ADD31R,1.1000X1.9000*%
%ADD32C,0.5000*%
%ADD33C,0.3000*%
%ADD34C,0.2540*%
%ADD35C,0.6000*%
%ADD36C,0.6010*%
%ADD37C,0.6020*%
%ADD38C,1.2600*%
%ADD39C,0.1000*%
%ADD40C,1.5000*%
%ADD41R,2.2000X2.2000*%
%ADD42C,2.3000*%
%ADD43C,1.2700*%
%ADD44C,1.0000*%
%ADD45C,0.7000*%
%ADD46C,5.0000*%
%ADD47C,0.2500*%
%ADD48C,0.2000*%
%ADD49C,0.0500*%
%ADD50R,0.2500X1.4000*%
D11*
X211000Y208000D02*
D03*
X197000D02*
D03*
X258270Y148888D02*
D03*
X272270D02*
D03*
D12*
X140288Y353060D02*
D03*
X150288D02*
D03*
X68000Y317000D02*
D03*
X58000D02*
D03*
X90250Y124500D02*
D03*
X80250D02*
D03*
X162000Y100000D02*
D03*
X172000D02*
D03*
X68000Y196000D02*
D03*
X78000D02*
D03*
X140000Y140000D02*
D03*
X150000D02*
D03*
X130000Y130000D02*
D03*
X140000D02*
D03*
X111080Y207080D02*
D03*
X101080D02*
D03*
D13*
X204080Y288080D02*
D03*
Y298080D02*
D03*
X40080Y259080D02*
D03*
Y249080D02*
D03*
X204080Y262080D02*
D03*
Y252080D02*
D03*
X192000Y171000D02*
D03*
Y161000D02*
D03*
X181000Y171000D02*
D03*
Y161000D02*
D03*
X151000Y108000D02*
D03*
Y98000D02*
D03*
X181000Y183000D02*
D03*
Y193000D02*
D03*
X130000Y119000D02*
D03*
Y109000D02*
D03*
X120000Y119000D02*
D03*
Y109000D02*
D03*
X225270Y131888D02*
D03*
Y141888D02*
D03*
X322080Y264080D02*
D03*
Y254080D02*
D03*
X272000Y171000D02*
D03*
Y181000D02*
D03*
X151000Y129000D02*
D03*
Y119000D02*
D03*
X80080Y325080D02*
D03*
Y335080D02*
D03*
X181000Y149000D02*
D03*
Y139000D02*
D03*
X114080Y170080D02*
D03*
Y160080D02*
D03*
X308000Y63000D02*
D03*
Y73000D02*
D03*
X292000Y63000D02*
D03*
Y73000D02*
D03*
X48260Y76280D02*
D03*
Y86280D02*
D03*
D14*
X288500Y128000D02*
D03*
X263500D02*
D03*
D15*
X241270Y149388D02*
D03*
Y132388D02*
D03*
D16*
X67500Y220000D02*
D03*
X84500D02*
D03*
X295500Y92000D02*
D03*
X312500D02*
D03*
D17*
X147000Y382540D02*
D03*
X69000D02*
D03*
D18*
X84000Y95000D02*
D03*
Y17000D02*
D03*
D19*
X186080Y281080D02*
D03*
Y273080D02*
D03*
Y257080D02*
D03*
Y265080D02*
D03*
Y297080D02*
D03*
Y289080D02*
D03*
Y305080D02*
D03*
Y313080D02*
D03*
X102080D02*
D03*
Y305080D02*
D03*
Y281080D02*
D03*
Y273080D02*
D03*
Y257080D02*
D03*
Y265080D02*
D03*
Y297080D02*
D03*
Y289080D02*
D03*
D20*
X116080Y243080D02*
D03*
X124080D02*
D03*
X132080D02*
D03*
X140080D02*
D03*
X148080D02*
D03*
X156080D02*
D03*
X164080D02*
D03*
X172080D02*
D03*
X116080Y327080D02*
D03*
X124080D02*
D03*
X132080D02*
D03*
X140080D02*
D03*
X148080D02*
D03*
X156080D02*
D03*
X164080D02*
D03*
X172080D02*
D03*
D21*
X128580Y163080D02*
D03*
Y168080D02*
D03*
Y173080D02*
D03*
Y178080D02*
D03*
Y183080D02*
D03*
X167580D02*
D03*
Y178080D02*
D03*
Y173080D02*
D03*
Y168080D02*
D03*
Y163080D02*
D03*
X128580Y183080D02*
D03*
D22*
X138080Y192580D02*
D03*
X143080D02*
D03*
X148080D02*
D03*
X153080D02*
D03*
X158080D02*
D03*
Y153580D02*
D03*
X153080D02*
D03*
X148080D02*
D03*
X143080D02*
D03*
X138080D02*
D03*
D23*
X148080Y173080D02*
D03*
D24*
X301580Y240830D02*
D03*
Y247330D02*
D03*
Y253830D02*
D03*
Y260330D02*
D03*
Y266830D02*
D03*
Y273330D02*
D03*
Y279830D02*
D03*
Y286330D02*
D03*
Y292830D02*
D03*
Y299330D02*
D03*
Y305830D02*
D03*
Y312330D02*
D03*
Y318830D02*
D03*
Y325330D02*
D03*
X232580Y240830D02*
D03*
Y247330D02*
D03*
Y253830D02*
D03*
Y260330D02*
D03*
Y266830D02*
D03*
Y273330D02*
D03*
Y279830D02*
D03*
Y286330D02*
D03*
Y292830D02*
D03*
Y299330D02*
D03*
Y305830D02*
D03*
Y312330D02*
D03*
Y318830D02*
D03*
Y325330D02*
D03*
D25*
X237580Y205080D02*
D03*
X256580D02*
D03*
X237580Y179079D02*
D03*
X247080D02*
D03*
X256580D02*
D03*
D26*
X366754Y111952D02*
D03*
X366744Y135952D02*
D03*
D27*
X366754Y83952D02*
D03*
Y163952D02*
D03*
D28*
X341444Y92952D02*
D03*
Y154952D02*
D03*
D29*
X340254Y110952D02*
D03*
Y117452D02*
D03*
Y123952D02*
D03*
Y130452D02*
D03*
Y136952D02*
D03*
D30*
X64080Y257580D02*
D03*
D03*
Y298580D02*
D03*
D31*
X98580Y178580D02*
D03*
X75580Y141580D02*
D03*
X98580D02*
D03*
X75580Y178580D02*
D03*
D39*
X144780Y458847D02*
X150112D01*
X147446D01*
Y450850D01*
X154110D02*
X156776D01*
X158109Y452183D01*
Y454849D01*
X156776Y456182D01*
X154110D01*
X152777Y454849D01*
Y452183D01*
X154110Y450850D01*
X160775Y448184D02*
Y456182D01*
X164774D01*
X166106Y454849D01*
Y452183D01*
X164774Y450850D01*
X160775D01*
X176770D02*
Y458847D01*
X180768D01*
X182101Y457514D01*
Y454849D01*
X180768Y453516D01*
X176770D01*
X186100Y456182D02*
X188766D01*
X190099Y454849D01*
Y450850D01*
X186100D01*
X184767Y452183D01*
X186100Y453516D01*
X190099D01*
X192764Y450850D02*
X196763D01*
X198096Y452183D01*
X196763Y453516D01*
X194097D01*
X192764Y454849D01*
X194097Y456182D01*
X198096D01*
X202095Y457514D02*
Y456182D01*
X200762D01*
X203428D01*
X202095D01*
Y452183D01*
X203428Y450850D01*
X211425D02*
X208759D01*
X207426Y452183D01*
Y454849D01*
X208759Y456182D01*
X211425D01*
X212758Y454849D01*
Y453516D01*
X207426D01*
M02*
