%FSLAX44Y44*%
%MOMM*%
G71*
G01*
G75*
G04 Layer_Physical_Order=1*
G04 Layer_Color=255*
%ADD10C,0.3810*%
%ADD11R,1.1000X1.9000*%
%ADD12R,2.4000X1.9000*%
%ADD13R,1.3500X0.4000*%
%ADD14R,1.6000X2.1000*%
%ADD15R,1.9000X1.8000*%
%ADD16R,1.9000X1.9000*%
%ADD17R,0.6900X1.2000*%
%ADD18O,2.1000X0.3500*%
%ADD19R,1.6000X1.6000*%
%ADD20R,0.8000X0.3000*%
%ADD21R,0.3000X0.8000*%
%ADD22O,0.4500X1.5000*%
%ADD23O,1.5000X0.4500*%
%ADD24R,1.5000X1.5000*%
%ADD25R,1.5000X1.5000*%
%ADD26R,0.5000X0.6000*%
%ADD27R,0.6000X0.5000*%
%ADD28R,1.1000X1.0000*%
%ADD29R,1.0000X1.1000*%
%ADD30R,1.3000X1.5000*%
%ADD31R,0.8000X0.9000*%
%ADD32C,0.2540*%
%ADD33C,0.5000*%
%ADD34C,0.3000*%
%ADD35C,0.6020*%
%ADD36C,0.6000*%
%ADD37C,1.2600*%
%ADD38C,0.6010*%
%ADD39C,0.1000*%
%ADD40C,1.5000*%
%ADD41C,2.3000*%
%ADD42R,2.2000X2.2000*%
%ADD43C,1.0000*%
%ADD44C,5.0000*%
%ADD45C,1.2700*%
%ADD46C,0.7000*%
G36*
X381000Y0D02*
X0D01*
Y406400D01*
X381000D01*
Y0D01*
D02*
G37*
%LPC*%
G36*
X271730Y104438D02*
X271032Y104346D01*
X269198Y103586D01*
X267622Y102378D01*
X266414Y100802D01*
X265654Y98968D01*
X265562Y98270D01*
X271730D01*
Y104438D01*
D02*
G37*
G36*
X274270D02*
Y98270D01*
X280438D01*
X280346Y98968D01*
X279586Y100802D01*
X278378Y102378D01*
X276803Y103586D01*
X274968Y104346D01*
X274270Y104438D01*
D02*
G37*
G36*
X303540Y99540D02*
X296770D01*
Y93270D01*
X303540D01*
Y99540D01*
D02*
G37*
G36*
X177540Y98730D02*
X173270D01*
Y94960D01*
X177540D01*
Y98730D01*
D02*
G37*
G36*
X365484Y110682D02*
X354714D01*
Y99912D01*
X365484D01*
Y110682D01*
D02*
G37*
G36*
X242540Y108326D02*
Y102158D01*
X248708D01*
X248616Y102856D01*
X247856Y104691D01*
X246648Y106266D01*
X245072Y107474D01*
X243238Y108234D01*
X242540Y108326D01*
D02*
G37*
G36*
X118730Y107730D02*
X114960D01*
Y103460D01*
X118730D01*
Y107730D01*
D02*
G37*
G36*
X378794Y110682D02*
X368024D01*
Y99912D01*
X378794D01*
Y110682D01*
D02*
G37*
G36*
X177540Y105040D02*
X173270D01*
Y101270D01*
X177540D01*
Y105040D01*
D02*
G37*
G36*
X351984Y91682D02*
X342714D01*
Y79912D01*
X351984D01*
Y91682D01*
D02*
G37*
G36*
X294230Y90730D02*
X287460D01*
Y84460D01*
X294230D01*
Y90730D01*
D02*
G37*
G36*
X188940Y91940D02*
X176670D01*
Y79670D01*
X188940D01*
Y91940D01*
D02*
G37*
G36*
X340174Y91682D02*
X330904D01*
Y79912D01*
X340174D01*
Y91682D01*
D02*
G37*
G36*
X365484Y95492D02*
X354714D01*
Y85222D01*
X365484D01*
Y95492D01*
D02*
G37*
G36*
X280438Y95730D02*
X274270D01*
Y89562D01*
X274968Y89654D01*
X276803Y90414D01*
X278378Y91622D01*
X279586Y93197D01*
X280346Y95032D01*
X280438Y95730D01*
D02*
G37*
G36*
X294230Y99540D02*
X287460D01*
Y93270D01*
X294230D01*
Y99540D01*
D02*
G37*
G36*
X378794Y95492D02*
X368024D01*
Y85222D01*
X378794D01*
Y95492D01*
D02*
G37*
G36*
X271730Y95730D02*
X265562D01*
X265654Y95032D01*
X266414Y93197D01*
X267622Y91622D01*
X269198Y90414D01*
X271032Y89654D01*
X271730Y89562D01*
Y95730D01*
D02*
G37*
G36*
X135040Y107730D02*
X131270D01*
Y103460D01*
X135040D01*
Y107730D01*
D02*
G37*
G36*
X83620Y153620D02*
X76850D01*
Y142850D01*
X83620D01*
Y153620D01*
D02*
G37*
G36*
X224000Y147428D02*
X220230D01*
Y143158D01*
X224000D01*
Y147428D01*
D02*
G37*
G36*
X278810Y147618D02*
X273540D01*
Y141848D01*
X278810D01*
Y147618D01*
D02*
G37*
G36*
X74310Y153620D02*
X67540D01*
Y142850D01*
X74310D01*
Y153620D01*
D02*
G37*
G36*
X230310Y147428D02*
X226540D01*
Y143158D01*
X230310D01*
Y147428D01*
D02*
G37*
G36*
X365484Y162682D02*
X354714D01*
Y152412D01*
X365484D01*
Y162682D01*
D02*
G37*
G36*
X378794D02*
X368024D01*
Y152412D01*
X378794D01*
Y162682D01*
D02*
G37*
G36*
X271000Y155928D02*
X265730D01*
Y150158D01*
X271000D01*
Y155928D01*
D02*
G37*
G36*
X278810D02*
X273540D01*
Y150158D01*
X278810D01*
Y155928D01*
D02*
G37*
G36*
X78980Y123230D02*
X74710D01*
Y119460D01*
X78980D01*
Y123230D01*
D02*
G37*
G36*
X179730Y137730D02*
X175960D01*
Y133460D01*
X179730D01*
Y137730D01*
D02*
G37*
G36*
X378784Y134682D02*
X354704D01*
Y123912D01*
X354714D01*
Y113222D01*
X378794D01*
Y123992D01*
X378784D01*
Y134682D01*
D02*
G37*
G36*
X230310Y140618D02*
X220230D01*
Y136348D01*
X220770D01*
Y132331D01*
X220682Y131888D01*
X220770Y131445D01*
Y126888D01*
X229770D01*
Y127800D01*
X234270D01*
Y124888D01*
X248270D01*
Y125412D01*
X255000D01*
Y118500D01*
X272000D01*
Y137500D01*
X255000D01*
Y134588D01*
X248270D01*
Y139888D01*
X234270D01*
Y136976D01*
X230310D01*
Y140618D01*
D02*
G37*
G36*
X186040Y137730D02*
X182270D01*
Y133460D01*
X186040D01*
Y137730D01*
D02*
G37*
G36*
X351984Y153682D02*
X330904D01*
Y142390D01*
X330904Y142390D01*
X330904D01*
X330904Y141912D01*
X330964Y141492D01*
Y141492D01*
X330964Y141014D01*
X330964Y141014D01*
X330964D01*
Y138222D01*
X349544D01*
Y141014D01*
X349544Y141014D01*
X349544D01*
X349544Y141492D01*
X349964Y141912D01*
X351984D01*
Y153682D01*
D02*
G37*
G36*
X271000Y147618D02*
X265730D01*
Y141848D01*
X271000D01*
Y147618D01*
D02*
G37*
G36*
X365474Y147992D02*
X354704D01*
Y137222D01*
X365474D01*
Y147992D01*
D02*
G37*
G36*
X378784D02*
X368014D01*
Y137222D01*
X378784D01*
Y147992D01*
D02*
G37*
G36*
X215900Y34982D02*
X213420Y34655D01*
X211109Y33698D01*
X209125Y32175D01*
X207602Y30191D01*
X206644Y27880D01*
X206318Y25400D01*
X206644Y22920D01*
X207602Y20609D01*
X209125Y18625D01*
X211109Y17102D01*
X213420Y16144D01*
X215900Y15818D01*
X218380Y16144D01*
X220691Y17102D01*
X222675Y18625D01*
X224198Y20609D01*
X225156Y22920D01*
X225482Y25400D01*
X225156Y27880D01*
X224198Y30191D01*
X222675Y32175D01*
X220691Y33698D01*
X218380Y34655D01*
X215900Y34982D01*
D02*
G37*
G36*
X240030Y35359D02*
X238679Y35182D01*
X236237Y34170D01*
X234139Y32561D01*
X232530Y30463D01*
X231518Y28021D01*
X231341Y26670D01*
X240030D01*
Y35359D01*
D02*
G37*
G36*
X303530Y24130D02*
X294841D01*
X295018Y22779D01*
X296030Y20337D01*
X297639Y18239D01*
X299737Y16630D01*
X302179Y15618D01*
X303530Y15441D01*
Y24130D01*
D02*
G37*
G36*
X314759D02*
X306070D01*
Y15441D01*
X307421Y15618D01*
X309863Y16630D01*
X311961Y18239D01*
X313570Y20337D01*
X314582Y22779D01*
X314759Y24130D01*
D02*
G37*
G36*
X242570Y35359D02*
Y26670D01*
X251259D01*
X251082Y28021D01*
X250070Y30463D01*
X248461Y32561D01*
X246363Y34170D01*
X243921Y35182D01*
X242570Y35359D01*
D02*
G37*
G36*
X123330Y41140D02*
X111060D01*
Y28870D01*
X123330D01*
Y41140D01*
D02*
G37*
G36*
X138140D02*
X125870D01*
Y28870D01*
X138140D01*
Y41140D01*
D02*
G37*
G36*
X303530Y35359D02*
X302179Y35182D01*
X299737Y34170D01*
X297639Y32561D01*
X296030Y30463D01*
X295018Y28021D01*
X294841Y26670D01*
X303530D01*
Y35359D01*
D02*
G37*
G36*
X306070D02*
Y26670D01*
X314759D01*
X314582Y28021D01*
X313570Y30463D01*
X311961Y32561D01*
X309863Y34170D01*
X307421Y35182D01*
X306070Y35359D01*
D02*
G37*
G36*
X82730Y15730D02*
X73960D01*
Y6960D01*
X82730D01*
Y15730D01*
D02*
G37*
G36*
X94040D02*
X85270D01*
Y6960D01*
X94040D01*
Y15730D01*
D02*
G37*
G36*
X31750Y58833D02*
X27513Y58500D01*
X23381Y57508D01*
X19454Y55882D01*
X15831Y53661D01*
X12599Y50901D01*
X9839Y47669D01*
X7618Y44046D01*
X5992Y40119D01*
X5000Y35987D01*
X4667Y31750D01*
X5000Y27513D01*
X5992Y23381D01*
X7618Y19454D01*
X9839Y15831D01*
X12599Y12599D01*
X15831Y9839D01*
X19454Y7618D01*
X23381Y5992D01*
X27513Y5000D01*
X31750Y4667D01*
X35987Y5000D01*
X40119Y5992D01*
X44046Y7618D01*
X47669Y9839D01*
X50901Y12599D01*
X53661Y15831D01*
X55882Y19454D01*
X57508Y23381D01*
X58500Y27513D01*
X58833Y31750D01*
X58500Y35987D01*
X57508Y40119D01*
X55882Y44046D01*
X53661Y47669D01*
X50901Y50901D01*
X47669Y53661D01*
X44046Y55882D01*
X40119Y57508D01*
X35987Y58500D01*
X31750Y58833D01*
D02*
G37*
G36*
X349250D02*
X345013Y58500D01*
X340881Y57508D01*
X336954Y55882D01*
X333331Y53661D01*
X330099Y50901D01*
X327339Y47669D01*
X325118Y44046D01*
X323492Y40119D01*
X322500Y35987D01*
X322166Y31750D01*
X322500Y27513D01*
X323492Y23381D01*
X325118Y19454D01*
X327339Y15831D01*
X330099Y12599D01*
X333331Y9839D01*
X336954Y7618D01*
X340881Y5992D01*
X345013Y5000D01*
X349250Y4667D01*
X353487Y5000D01*
X357619Y5992D01*
X361546Y7618D01*
X365169Y9839D01*
X368401Y12599D01*
X371161Y15831D01*
X373382Y19454D01*
X375008Y23381D01*
X376000Y27513D01*
X376334Y31750D01*
X376000Y35987D01*
X375008Y40119D01*
X373382Y44046D01*
X371161Y47669D01*
X368401Y50901D01*
X365169Y53661D01*
X361546Y55882D01*
X357619Y57508D01*
X353487Y58500D01*
X349250Y58833D01*
D02*
G37*
G36*
X138140Y26330D02*
X125870D01*
Y14060D01*
X138140D01*
Y26330D01*
D02*
G37*
G36*
X240030Y24130D02*
X231341D01*
X231518Y22779D01*
X232530Y20337D01*
X234139Y18239D01*
X236237Y16630D01*
X238679Y15618D01*
X240030Y15441D01*
Y24130D01*
D02*
G37*
G36*
X251259D02*
X242570D01*
Y15441D01*
X243921Y15618D01*
X246363Y16630D01*
X248461Y18239D01*
X250070Y20337D01*
X251082Y22779D01*
X251259Y24130D01*
D02*
G37*
G36*
X174130Y26330D02*
X161860D01*
Y14060D01*
X174130D01*
Y26330D01*
D02*
G37*
G36*
X188940D02*
X176670D01*
Y14060D01*
X188940D01*
Y26330D01*
D02*
G37*
G36*
X174130Y41140D02*
X161860D01*
Y28870D01*
X174130D01*
Y41140D01*
D02*
G37*
G36*
X24130Y74930D02*
X15441D01*
X15618Y73579D01*
X16630Y71137D01*
X18239Y69039D01*
X20337Y67430D01*
X22779Y66418D01*
X24130Y66241D01*
Y74930D01*
D02*
G37*
G36*
X225400Y85700D02*
X206400D01*
Y66700D01*
X225400D01*
Y85700D01*
D02*
G37*
G36*
X174130Y77130D02*
X161860D01*
Y64860D01*
X174130D01*
Y77130D01*
D02*
G37*
G36*
X188940D02*
X176670D01*
Y64860D01*
X188940D01*
Y77130D01*
D02*
G37*
G36*
X365484Y82682D02*
X354714D01*
Y72412D01*
X365484D01*
Y82682D01*
D02*
G37*
G36*
X138140Y91940D02*
X125870D01*
Y79670D01*
X138140D01*
Y91940D01*
D02*
G37*
G36*
X174130D02*
X161860D01*
Y79670D01*
X174130D01*
Y91940D01*
D02*
G37*
G36*
X378794Y82682D02*
X368024D01*
Y72412D01*
X378794D01*
Y82682D01*
D02*
G37*
G36*
X123330Y91940D02*
X111060D01*
Y79670D01*
X123330D01*
Y91940D01*
D02*
G37*
G36*
X241300Y60382D02*
X238820Y60055D01*
X236509Y59098D01*
X234525Y57575D01*
X233002Y55591D01*
X232045Y53280D01*
X231718Y50800D01*
X232045Y48320D01*
X233002Y46009D01*
X234525Y44025D01*
X236509Y42502D01*
X238820Y41544D01*
X241300Y41218D01*
X243780Y41544D01*
X246091Y42502D01*
X248075Y44025D01*
X249598Y46009D01*
X250555Y48320D01*
X250882Y50800D01*
X250555Y53280D01*
X249598Y55591D01*
X248075Y57575D01*
X246091Y59098D01*
X243780Y60055D01*
X241300Y60382D01*
D02*
G37*
G36*
X82730Y54730D02*
X76562D01*
X76654Y54032D01*
X77414Y52197D01*
X78622Y50622D01*
X80197Y49414D01*
X82032Y48654D01*
X82730Y48562D01*
Y54730D01*
D02*
G37*
G36*
X188940Y41140D02*
X176670D01*
Y28870D01*
X188940D01*
Y41140D01*
D02*
G37*
G36*
X215900Y60382D02*
X213420Y60055D01*
X211109Y59098D01*
X209125Y57575D01*
X207602Y55591D01*
X206644Y53280D01*
X206318Y50800D01*
X206644Y48320D01*
X207602Y46009D01*
X209125Y44025D01*
X211109Y42502D01*
X213420Y41544D01*
X215900Y41218D01*
X218380Y41544D01*
X220691Y42502D01*
X222675Y44025D01*
X224198Y46009D01*
X225156Y48320D01*
X225482Y50800D01*
X225156Y53280D01*
X224198Y55591D01*
X222675Y57575D01*
X220691Y59098D01*
X218380Y60055D01*
X215900Y60382D01*
D02*
G37*
G36*
X91438Y54730D02*
X85270D01*
Y48562D01*
X85968Y48654D01*
X87802Y49414D01*
X89378Y50622D01*
X90586Y52197D01*
X91346Y54032D01*
X91438Y54730D01*
D02*
G37*
G36*
X123330Y77130D02*
X111060D01*
Y64860D01*
X123330D01*
Y77130D01*
D02*
G37*
G36*
X138140D02*
X125870D01*
Y64860D01*
X138140D01*
Y77130D01*
D02*
G37*
G36*
X82730Y63438D02*
X82032Y63346D01*
X80197Y62586D01*
X78622Y61378D01*
X77414Y59802D01*
X76654Y57968D01*
X76562Y57270D01*
X82730D01*
Y63438D01*
D02*
G37*
G36*
X85270D02*
Y57270D01*
X91438D01*
X91346Y57968D01*
X90586Y59802D01*
X89378Y61378D01*
X87802Y62586D01*
X85968Y63346D01*
X85270Y63438D01*
D02*
G37*
G36*
X278130Y390959D02*
X276779Y390782D01*
X274337Y389770D01*
X272239Y388161D01*
X270630Y386063D01*
X269618Y383621D01*
X269441Y382270D01*
X278130D01*
Y390959D01*
D02*
G37*
G36*
X280670D02*
Y382270D01*
X289359D01*
X289182Y383621D01*
X288170Y386063D01*
X286561Y388161D01*
X284463Y389770D01*
X282021Y390782D01*
X280670Y390959D01*
D02*
G37*
G36*
X106680Y389708D02*
X105982Y389616D01*
X104148Y388856D01*
X102572Y387648D01*
X101364Y386073D01*
X100604Y384238D01*
X100512Y383540D01*
X106680D01*
Y389708D01*
D02*
G37*
G36*
X327120Y262810D02*
X317040D01*
Y258540D01*
D01*
Y258540D01*
X316918Y258418D01*
X315325D01*
X314798Y259060D01*
X288709D01*
X288789Y258656D01*
X289737Y257237D01*
X289737Y257237D01*
X289737D01*
X290127Y256534D01*
X290127D01*
Y256534D01*
X289298Y255293D01*
X289007Y253830D01*
X289298Y252367D01*
X289923Y251431D01*
X289437Y250258D01*
X289217Y250214D01*
X288964Y250164D01*
X287673Y249301D01*
X284360Y245988D01*
X283497Y244696D01*
X283447Y244443D01*
X283194Y243173D01*
Y236973D01*
X283447Y235702D01*
X283497Y235449D01*
X284360Y234157D01*
X294419Y224099D01*
Y147268D01*
X294671Y145997D01*
X294722Y145744D01*
X295585Y144452D01*
X313312Y126725D01*
X313313Y126725D01*
X323324Y116713D01*
X322838Y115540D01*
X307449D01*
X297000Y125989D01*
Y137500D01*
X280000D01*
Y118500D01*
X291511D01*
X302304Y107708D01*
X303792Y106713D01*
X305548Y106364D01*
X330532D01*
X330904Y105992D01*
X330904Y105466D01*
X330904Y105466D01*
X330904D01*
Y94222D01*
X351984D01*
Y105992D01*
X349004D01*
Y106952D01*
X349004D01*
Y113452D01*
Y119952D01*
Y125912D01*
X349544D01*
Y129182D01*
X340254D01*
Y131722D01*
X349544D01*
Y132412D01*
Y135682D01*
X330964D01*
Y132412D01*
Y130974D01*
X329791Y130488D01*
X323345Y136933D01*
X323347Y136938D01*
X323651Y139242D01*
X323347Y141546D01*
X322458Y143694D01*
X321043Y145538D01*
X320932Y145623D01*
X320892Y145683D01*
X320891Y145683D01*
X320315Y146259D01*
X319024Y147122D01*
X318572Y147212D01*
X317052Y147842D01*
X314748Y148145D01*
X312443Y147842D01*
X312334Y147797D01*
X308731Y151399D01*
Y156838D01*
X308906Y156910D01*
X310748Y158323D01*
X312162Y160166D01*
X313050Y162311D01*
X313353Y164613D01*
X313050Y166915D01*
X312162Y169060D01*
X310748Y170903D01*
X308906Y172316D01*
X308731Y172388D01*
Y176250D01*
X309416Y176533D01*
X311258Y177946D01*
X312671Y179788D01*
X313559Y181932D01*
X313862Y184233D01*
X313559Y186534D01*
X312671Y188679D01*
X311258Y190520D01*
X309416Y191933D01*
X308731Y192216D01*
Y196077D01*
X308907Y196150D01*
X310749Y197564D01*
X312163Y199406D01*
X313051Y201551D01*
X313354Y203853D01*
X313051Y206155D01*
X312163Y208300D01*
X310749Y210142D01*
X308907Y211556D01*
X308731Y211629D01*
Y215586D01*
X309193Y215777D01*
X311033Y217190D01*
X312446Y219030D01*
X313333Y221173D01*
X313636Y223473D01*
X313333Y225773D01*
X312446Y227916D01*
X311033Y229756D01*
X309193Y231168D01*
X307050Y232056D01*
X306650Y232109D01*
X304512Y234247D01*
Y237007D01*
X310330D01*
X311793Y237298D01*
X313034Y238127D01*
X313863Y239367D01*
X314154Y240830D01*
X313863Y242293D01*
X313034Y243534D01*
Y244627D01*
X313863Y245867D01*
X314154Y247330D01*
X313969Y248260D01*
X314774Y249242D01*
X317580D01*
Y249080D01*
X326580D01*
Y258540D01*
X327120D01*
Y262810D01*
D02*
G37*
G36*
X106680Y381000D02*
X100512D01*
X100604Y380302D01*
X101364Y378467D01*
X102572Y376892D01*
X104148Y375684D01*
X105982Y374924D01*
X106680Y374832D01*
Y381000D01*
D02*
G37*
G36*
X115388D02*
X109220D01*
Y374832D01*
X109918Y374924D01*
X111753Y375684D01*
X113328Y376892D01*
X114536Y378467D01*
X115296Y380302D01*
X115388Y381000D01*
D02*
G37*
G36*
X245452Y285060D02*
X219709D01*
X219789Y284656D01*
X220737Y283237D01*
X220737Y283237D01*
X220737D01*
X221127Y282534D01*
X221127D01*
Y282534D01*
X220298Y281293D01*
X220007Y279830D01*
X220298Y278367D01*
X221127Y277127D01*
Y276034D01*
X220298Y274793D01*
X220007Y273330D01*
X220298Y271867D01*
X221127Y270627D01*
Y269534D01*
X220298Y268293D01*
X220007Y266830D01*
X220298Y265367D01*
X221127Y264127D01*
Y263034D01*
X220298Y261793D01*
X220007Y260330D01*
X220298Y258867D01*
X221127Y257627D01*
Y256534D01*
X220298Y255293D01*
X220007Y253830D01*
X220298Y252367D01*
X221127Y251127D01*
Y250034D01*
X220298Y248793D01*
X220007Y247330D01*
X220298Y245867D01*
X221127Y244627D01*
Y243534D01*
X220298Y242293D01*
X220007Y240830D01*
X220298Y239367D01*
X221127Y238127D01*
X222367Y237298D01*
X223830Y237007D01*
X241330D01*
X242794Y237298D01*
X244034Y238127D01*
X244863Y239367D01*
X245154Y240830D01*
X244863Y242293D01*
X244034Y243534D01*
Y244627D01*
X244863Y245867D01*
X245154Y247330D01*
X244863Y248793D01*
X244034Y250034D01*
Y251127D01*
X244863Y252367D01*
X245154Y253830D01*
X244863Y255293D01*
X244034Y256534D01*
Y257627D01*
X244863Y258867D01*
X245154Y260330D01*
X244863Y261793D01*
X244034Y263034D01*
Y264127D01*
X244863Y265367D01*
X245154Y266830D01*
X244863Y268293D01*
X244034Y269534D01*
Y270627D01*
X244863Y271867D01*
X245154Y273330D01*
X244863Y274793D01*
X244034Y276034D01*
Y277127D01*
X244863Y278367D01*
X245154Y279830D01*
X244863Y281293D01*
X244034Y282534D01*
Y282534D01*
X244034D01*
X244423Y283237D01*
X244423Y283237D01*
X244423D01*
X245371Y284656D01*
X245452Y285060D01*
D02*
G37*
G36*
X227330Y230958D02*
X226632Y230866D01*
X224797Y230106D01*
X223222Y228898D01*
X222014Y227323D01*
X221254Y225488D01*
X221162Y224790D01*
X227330D01*
Y230958D01*
D02*
G37*
G36*
X109220Y389708D02*
Y383540D01*
X115388D01*
X115296Y384238D01*
X114536Y386073D01*
X113328Y387648D01*
X111753Y388856D01*
X109918Y389616D01*
X109220Y389708D01*
D02*
G37*
G36*
X75540Y227540D02*
X68770D01*
Y221270D01*
X75540D01*
Y227540D01*
D02*
G37*
G36*
X356870Y238559D02*
Y229870D01*
X365559D01*
X365382Y231221D01*
X364370Y233663D01*
X362761Y235761D01*
X360663Y237370D01*
X358221Y238382D01*
X356870Y238559D01*
D02*
G37*
G36*
X354330D02*
X352979Y238382D01*
X350537Y237370D01*
X348439Y235761D01*
X346830Y233663D01*
X345818Y231221D01*
X345641Y229870D01*
X354330D01*
Y238559D01*
D02*
G37*
G36*
X229870Y230958D02*
Y224790D01*
X236038D01*
X235946Y225488D01*
X235186Y227323D01*
X233978Y228898D01*
X232402Y230106D01*
X230568Y230866D01*
X229870Y230958D01*
D02*
G37*
G36*
X289359Y379730D02*
X280670D01*
Y371041D01*
X282021Y371218D01*
X284463Y372230D01*
X286561Y373839D01*
X288170Y375937D01*
X289182Y378379D01*
X289359Y379730D01*
D02*
G37*
G36*
X177800Y390582D02*
X175320Y390256D01*
X173009Y389298D01*
X171024Y387775D01*
X169502Y385791D01*
X168545Y383480D01*
X168218Y381000D01*
X168545Y378520D01*
X169502Y376209D01*
X171024Y374225D01*
X173009Y372702D01*
X175320Y371744D01*
X177800Y371418D01*
X180280Y371744D01*
X182591Y372702D01*
X184575Y374225D01*
X186098Y376209D01*
X187055Y378520D01*
X187382Y381000D01*
X187055Y383480D01*
X186098Y385791D01*
X184575Y387775D01*
X182591Y389298D01*
X180280Y390256D01*
X177800Y390582D01*
D02*
G37*
G36*
X314452Y311060D02*
X288709D01*
X288789Y310656D01*
X289737Y309237D01*
Y308923D01*
X288789Y307504D01*
X288709Y307100D01*
X314452D01*
X314371Y307504D01*
X313423Y308923D01*
Y309237D01*
X314371Y310656D01*
X314452Y311060D01*
D02*
G37*
G36*
X278130Y379730D02*
X269441D01*
X269618Y378379D01*
X270630Y375937D01*
X272239Y373839D01*
X274337Y372230D01*
X276779Y371218D01*
X278130Y371041D01*
Y379730D01*
D02*
G37*
G36*
X355600Y365182D02*
X353120Y364855D01*
X350809Y363898D01*
X348825Y362375D01*
X347302Y360391D01*
X346344Y358080D01*
X346018Y355600D01*
X346344Y353120D01*
X347302Y350809D01*
X348825Y348825D01*
X350809Y347302D01*
X353120Y346344D01*
X355600Y346018D01*
X358080Y346344D01*
X360391Y347302D01*
X362375Y348825D01*
X363898Y350809D01*
X364855Y353120D01*
X365182Y355600D01*
X364855Y358080D01*
X363898Y360391D01*
X362375Y362375D01*
X360391Y363898D01*
X358080Y364855D01*
X355600Y365182D01*
D02*
G37*
G36*
X209350Y333518D02*
Y327350D01*
X215518D01*
X215426Y328049D01*
X214666Y329883D01*
X213458Y331458D01*
X211883Y332666D01*
X210049Y333426D01*
X209350Y333518D01*
D02*
G37*
G36*
X156500Y392040D02*
X137500D01*
Y376227D01*
X131912Y370639D01*
X112070D01*
X110704Y370367D01*
X109547Y369593D01*
X80034Y340080D01*
X75580D01*
Y338649D01*
X49730D01*
X48364Y338377D01*
X47206Y337604D01*
X10177Y300574D01*
X9403Y299416D01*
X9131Y298050D01*
Y139700D01*
X9403Y138334D01*
X10177Y137177D01*
X16651Y130702D01*
X16144Y129480D01*
X15818Y127000D01*
X16144Y124520D01*
X17102Y122209D01*
X18625Y120225D01*
X20609Y118702D01*
X22920Y117745D01*
X25400Y117418D01*
X27880Y117745D01*
X30191Y118702D01*
X32175Y120225D01*
X33698Y122209D01*
X34655Y124520D01*
X34982Y127000D01*
X34655Y129480D01*
X33698Y131791D01*
X32175Y133775D01*
X30191Y135298D01*
X27880Y136256D01*
X25400Y136582D01*
X22920Y136256D01*
X21698Y135749D01*
X16269Y141178D01*
Y146719D01*
X17471Y147128D01*
X18625Y145625D01*
X20609Y144102D01*
X22920Y143145D01*
X25400Y142818D01*
X27880Y143145D01*
X30191Y144102D01*
X32175Y145625D01*
X33698Y147609D01*
X34655Y149920D01*
X34982Y152400D01*
X34655Y154880D01*
X33698Y157191D01*
X32175Y159175D01*
X30191Y160698D01*
X27880Y161656D01*
X25400Y161982D01*
X22920Y161656D01*
X20609Y160698D01*
X18625Y159175D01*
X17471Y157672D01*
X16269Y158081D01*
Y172119D01*
X17471Y172528D01*
X18625Y171024D01*
X20609Y169502D01*
X22920Y168545D01*
X25400Y168218D01*
X27880Y168545D01*
X30191Y169502D01*
X32175Y171024D01*
X33698Y173009D01*
X34655Y175320D01*
X34982Y177800D01*
X34655Y180280D01*
X34052Y181737D01*
X53158Y200842D01*
X53880Y201924D01*
X54134Y203200D01*
Y227219D01*
X57261Y230346D01*
X99060D01*
X100336Y230600D01*
X101418Y231322D01*
X109841Y239746D01*
X111747D01*
Y237830D01*
X112077Y236172D01*
X113016Y234766D01*
X114161Y234001D01*
X114286Y232737D01*
X108684Y227136D01*
X108609Y227194D01*
X106906Y227899D01*
X105078Y228139D01*
X103251Y227899D01*
X101548Y227194D01*
X100086Y226072D01*
X98964Y224609D01*
X98259Y222906D01*
X98018Y221079D01*
X98259Y219252D01*
X98964Y217549D01*
X100086Y216087D01*
X101548Y214965D01*
X103251Y214259D01*
X105078Y214019D01*
X106906Y214259D01*
X108609Y214965D01*
X110071Y216087D01*
X111193Y217549D01*
X111898Y219252D01*
X111945Y219602D01*
X113215D01*
X113260Y219253D01*
X113966Y217550D01*
X115088Y216088D01*
X116550Y214966D01*
X118253Y214261D01*
X119251Y214129D01*
X119659Y212927D01*
X117381Y210649D01*
X116080D01*
Y211580D01*
X106978D01*
X106978Y211580D01*
Y211580D01*
X106080Y211580D01*
X106080D01*
D01*
X105182Y211580D01*
X105182Y211580D01*
Y211580D01*
X99627D01*
X92000Y219207D01*
Y227000D01*
X77000D01*
Y213000D01*
X88114D01*
X96080Y205033D01*
Y202580D01*
X105182D01*
X105182Y202580D01*
Y202580D01*
X106080Y202580D01*
X106080D01*
D01*
X106978Y202580D01*
X106978Y202580D01*
Y202580D01*
X113086D01*
X113495Y201378D01*
X112198Y200382D01*
X111075Y198920D01*
X110370Y197217D01*
X110130Y195390D01*
X110370Y193563D01*
X111075Y191860D01*
X112198Y190398D01*
X113660Y189275D01*
X115363Y188570D01*
X117190Y188330D01*
X119017Y188570D01*
X119213Y188652D01*
X122580Y185285D01*
Y179580D01*
Y177120D01*
X122040D01*
Y174350D01*
X128580D01*
Y171810D01*
X122040D01*
Y171649D01*
X118580D01*
Y175080D01*
X109580D01*
Y171077D01*
X107794Y169290D01*
X106620Y169776D01*
Y177310D01*
X90540D01*
Y170326D01*
X89367Y169840D01*
X83080Y176127D01*
Y190080D01*
X81649D01*
Y191500D01*
X83000D01*
Y200500D01*
X73540D01*
Y201040D01*
X69270D01*
Y196000D01*
X68000D01*
Y194730D01*
X62460D01*
Y190960D01*
X68080D01*
Y190080D01*
X68080D01*
Y167080D01*
X82034D01*
X86557Y162557D01*
X87715Y161783D01*
X89080Y161512D01*
X108631D01*
X109089Y161135D01*
X109152Y159867D01*
X102365Y153080D01*
X91080D01*
Y130080D01*
X91080Y130080D01*
X91080D01*
X91090Y130056D01*
X90035Y129000D01*
X85790D01*
Y129540D01*
X83621D01*
X83620Y129540D01*
X83620Y130438D01*
X83620Y130438D01*
X83620D01*
Y140310D01*
X67540D01*
Y129540D01*
X74710D01*
D01*
Y129540D01*
X74710Y128642D01*
X74710Y128642D01*
X74710D01*
Y125770D01*
X80250D01*
Y124500D01*
X81520D01*
Y119460D01*
X85790D01*
Y120000D01*
X95250D01*
Y124785D01*
X100438Y129973D01*
X100510Y130080D01*
X106080D01*
Y147365D01*
X113795Y155080D01*
X118580D01*
Y159746D01*
X122580D01*
Y159580D01*
X134580D01*
X134580Y159580D01*
Y159580D01*
D01*
X134580Y159580D01*
Y155127D01*
X117557Y138104D01*
X116783Y136946D01*
X116512Y135580D01*
Y124000D01*
X115500D01*
Y114540D01*
X114960D01*
Y110270D01*
X120000D01*
Y109000D01*
X121270D01*
Y103460D01*
X128730D01*
Y109000D01*
X130000D01*
Y110270D01*
X135040D01*
Y114540D01*
X134500D01*
Y124000D01*
X133649D01*
Y125500D01*
X135000D01*
X135000Y125500D01*
Y125500D01*
D01*
D01*
D01*
X135000D01*
D01*
X137735Y125500D01*
X138049Y125290D01*
X140000Y124902D01*
X141951Y125290D01*
X142265Y125500D01*
X145000D01*
Y127056D01*
X145559Y127111D01*
X146500Y126258D01*
Y124000D01*
X146500D01*
Y124000D01*
X146500Y124000D01*
X146500Y124000D01*
Y121265D01*
X146290Y120951D01*
X145902Y119000D01*
Y108000D01*
X146290Y106049D01*
X146500Y105735D01*
Y103000D01*
X146500Y103000D01*
X146500D01*
D01*
Y103000D01*
D01*
X146500Y100481D01*
X145080Y99392D01*
X143750Y97658D01*
X142914Y95639D01*
X142628Y93472D01*
Y64360D01*
X140372Y62628D01*
X138208Y59808D01*
X136847Y56524D01*
X136383Y53000D01*
X136847Y49476D01*
X138208Y46192D01*
X140372Y43372D01*
X143192Y41208D01*
X146476Y39848D01*
X150000Y39383D01*
X153524Y39848D01*
X156808Y41208D01*
X159628Y43372D01*
X161792Y46192D01*
X163153Y49476D01*
X163617Y53000D01*
X163153Y56524D01*
X161792Y59808D01*
X159628Y62628D01*
X159372Y62825D01*
Y93472D01*
X159312Y93927D01*
X160149Y94882D01*
X161929D01*
X161980Y94872D01*
X163935Y95261D01*
X164293Y95500D01*
X166460D01*
Y94960D01*
X170730D01*
Y100000D01*
Y105040D01*
X166460D01*
Y104500D01*
X164283D01*
X163955Y104719D01*
X162000Y105108D01*
X161848Y105078D01*
X157163D01*
X155734Y106033D01*
X155712Y106060D01*
X156098Y108000D01*
Y119000D01*
X155710Y120951D01*
X155500Y121265D01*
Y124000D01*
X155500D01*
X155500Y124000D01*
X155500D01*
X155500Y124000D01*
Y126735D01*
X155710Y127049D01*
X156098Y129000D01*
Y138974D01*
X156103Y139000D01*
X155715Y140953D01*
X155000Y142022D01*
Y144500D01*
X152274D01*
X151953Y144715D01*
X151649Y144775D01*
Y147040D01*
X151810D01*
Y153580D01*
X154350D01*
Y147040D01*
X157120D01*
Y147580D01*
X161580D01*
Y153236D01*
X161649Y153580D01*
Y159580D01*
X164012D01*
Y157580D01*
X164283Y156215D01*
X165057Y155057D01*
X173637Y146477D01*
X174795Y145703D01*
X175960Y145471D01*
Y144540D01*
X175960Y144540D01*
X175960Y144540D01*
Y140270D01*
X186040D01*
Y144540D01*
X185500D01*
Y154000D01*
X176945D01*
X176239Y155056D01*
X176407Y155460D01*
X179730D01*
Y161000D01*
X182270D01*
Y155460D01*
X186040D01*
Y155460D01*
X186960Y155460D01*
Y155460D01*
X190730D01*
Y161000D01*
X192000D01*
Y162270D01*
X197040D01*
Y166540D01*
X196500D01*
Y171637D01*
X196588Y172080D01*
Y186159D01*
X207598Y197170D01*
X208772Y196684D01*
Y114640D01*
X209121Y112884D01*
X210116Y111396D01*
X236113Y85398D01*
X236030Y84131D01*
X234525Y82975D01*
X233002Y80991D01*
X232045Y78680D01*
X231718Y76200D01*
X232045Y73720D01*
X233002Y71409D01*
X234525Y69425D01*
X236509Y67902D01*
X238820Y66944D01*
X241300Y66618D01*
X243780Y66944D01*
X243983Y67029D01*
X274812Y36200D01*
Y34900D01*
X269900D01*
Y22389D01*
X259720Y12208D01*
X117654D01*
X116948Y13264D01*
X117278Y14060D01*
X123330D01*
Y26330D01*
X111060D01*
Y20278D01*
X109887Y19792D01*
X93668Y36010D01*
X92180Y37005D01*
X90424Y37354D01*
X79370D01*
X52848Y63877D01*
Y76280D01*
X52760Y76723D01*
Y81280D01*
X52760D01*
X52760Y81280D01*
X52760D01*
X52760Y81280D01*
Y86065D01*
X56361Y89666D01*
X74500D01*
Y85500D01*
X93500D01*
Y104500D01*
X79215D01*
X51334Y132381D01*
Y133804D01*
X51530Y133885D01*
X52993Y135008D01*
X54114Y136470D01*
X54820Y138173D01*
X55060Y140000D01*
X54820Y141827D01*
X54114Y143530D01*
X52993Y144992D01*
X51530Y146115D01*
X49827Y146820D01*
X48000Y147060D01*
X46173Y146820D01*
X44470Y146115D01*
X43008Y144992D01*
X41885Y143530D01*
X41180Y141827D01*
X40940Y140000D01*
X41180Y138173D01*
X41885Y136470D01*
X43008Y135008D01*
X44470Y133885D01*
X44666Y133804D01*
Y131000D01*
X44920Y129724D01*
X45642Y128643D01*
X74500Y99785D01*
Y96334D01*
X54980D01*
X53704Y96080D01*
X52622Y95358D01*
X48545Y91280D01*
X43760D01*
Y84784D01*
X42587Y84298D01*
X32168Y94716D01*
X32175Y94825D01*
X33698Y96809D01*
X34655Y99120D01*
X34982Y101600D01*
X34655Y104080D01*
X33698Y106391D01*
X32175Y108376D01*
X30191Y109898D01*
X27880Y110856D01*
X25400Y111182D01*
X22920Y110856D01*
X20609Y109898D01*
X18625Y108376D01*
X17102Y106391D01*
X16144Y104080D01*
X15818Y101600D01*
X16144Y99120D01*
X17102Y96809D01*
X18625Y94824D01*
X20609Y93302D01*
X21315Y93009D01*
X22156Y91752D01*
X26514Y87393D01*
X25953Y86254D01*
X25400Y86327D01*
X22779Y85982D01*
X20337Y84970D01*
X18239Y83361D01*
X16630Y81263D01*
X15618Y78821D01*
X15441Y77470D01*
X25400D01*
Y76200D01*
X26670D01*
Y66241D01*
X28021Y66418D01*
X30463Y67430D01*
X32561Y69039D01*
X34170Y71137D01*
X35182Y73579D01*
X35527Y76200D01*
X35454Y76753D01*
X36593Y77315D01*
X40872Y73036D01*
X42360Y72041D01*
X43672Y71780D01*
Y61976D01*
X44021Y60220D01*
X45016Y58732D01*
X74226Y29522D01*
X75714Y28527D01*
X76836Y28304D01*
X76712Y27040D01*
X73960D01*
Y18270D01*
X94040D01*
Y21002D01*
X95213Y21488D01*
X112326Y4376D01*
X113814Y3381D01*
X115570Y3032D01*
X261620D01*
X263376Y3381D01*
X264864Y4376D01*
X276389Y15900D01*
X288900D01*
Y29853D01*
X294523Y35477D01*
X295297Y36635D01*
X295569Y38000D01*
Y58000D01*
X296500D01*
Y64794D01*
X297673Y65280D01*
X302477Y60477D01*
X303500Y59793D01*
Y58000D01*
X312500D01*
Y68000D01*
X312500D01*
Y68000D01*
X312500Y68000D01*
X312500Y68000D01*
Y78000D01*
X311569D01*
Y85000D01*
X320000D01*
Y99000D01*
X305000D01*
Y89936D01*
X303980Y89179D01*
X303540Y89312D01*
Y90730D01*
X296770D01*
Y84460D01*
X303533D01*
X303533Y84460D01*
Y84460D01*
X303540Y84460D01*
X304431Y83568D01*
Y78000D01*
X303500D01*
Y71206D01*
X302327Y70720D01*
X297523Y75523D01*
X296500Y76207D01*
Y78000D01*
X287500D01*
Y68000D01*
X287500D01*
Y68000D01*
X287500Y68000D01*
X287500Y68000D01*
Y58000D01*
X288431D01*
Y39478D01*
X285161Y36208D01*
X283988Y36694D01*
Y38100D01*
X283639Y39856D01*
X282644Y41344D01*
X250471Y73517D01*
X250555Y73720D01*
X250882Y76200D01*
X250555Y78680D01*
X249598Y80991D01*
X248075Y82975D01*
X246091Y84498D01*
X245888Y84582D01*
Y86700D01*
X245539Y88456D01*
X244544Y89944D01*
X242228Y92260D01*
X242637Y93463D01*
X243238Y93542D01*
X245072Y94302D01*
X246648Y95510D01*
X247856Y97086D01*
X248616Y98920D01*
X248708Y99618D01*
X241270D01*
Y100888D01*
X240000D01*
Y108326D01*
X239302Y108234D01*
X237467Y107474D01*
X235892Y106266D01*
X234684Y104691D01*
X233924Y102856D01*
X233845Y102255D01*
X232642Y101846D01*
X217948Y116540D01*
Y203492D01*
X232130D01*
Y197080D01*
X241315D01*
X241684Y195865D01*
X240756Y195244D01*
X234336Y188824D01*
X233341Y187336D01*
X233290Y187079D01*
X232130D01*
Y171079D01*
X238864D01*
X239272Y169876D01*
X238622Y169377D01*
X237413Y167802D01*
X236654Y165968D01*
X236562Y165270D01*
X244000D01*
Y162730D01*
X236562D01*
X236654Y162031D01*
X237413Y160197D01*
X238622Y158622D01*
X239315Y158091D01*
X238906Y156888D01*
X234270D01*
Y141888D01*
X248270D01*
Y144800D01*
X252270D01*
Y142388D01*
X264270D01*
Y155388D01*
X261168D01*
Y171079D01*
X262030D01*
Y176412D01*
X266960D01*
Y172270D01*
X277040D01*
Y176540D01*
X276500D01*
Y180557D01*
X276588Y181000D01*
Y235820D01*
X277955Y236869D01*
X279294Y238613D01*
X280135Y240644D01*
X280422Y242824D01*
X280135Y245004D01*
X279294Y247035D01*
X277955Y248779D01*
X276588Y249828D01*
Y257099D01*
X281731Y262242D01*
X287836D01*
X288362Y261600D01*
X314452D01*
X314371Y262004D01*
X313423Y263423D01*
X313423Y263423D01*
X313423D01*
X313034Y264127D01*
Y264127D01*
X313863Y265367D01*
X314154Y266830D01*
X313863Y268293D01*
X313034Y269534D01*
Y270627D01*
X313863Y271867D01*
X314154Y273330D01*
X313863Y274793D01*
X313034Y276034D01*
Y276034D01*
X313034D01*
X313423Y276737D01*
X313423Y276737D01*
X313423D01*
X314371Y278156D01*
X314452Y278560D01*
X288709D01*
X288789Y278156D01*
X289737Y276737D01*
X289737Y276737D01*
X289737D01*
X290127Y276034D01*
X290127D01*
Y276034D01*
X289298Y274793D01*
X289007Y273330D01*
X289192Y272400D01*
X288386Y271418D01*
X279830D01*
X278074Y271069D01*
X276586Y270075D01*
X268756Y262244D01*
X267761Y260756D01*
X267412Y259000D01*
Y249828D01*
X266045Y248779D01*
X264706Y247035D01*
X263865Y245004D01*
X263578Y242824D01*
X263865Y240644D01*
X264706Y238613D01*
X266045Y236869D01*
X267412Y235820D01*
Y185588D01*
X262030D01*
Y187079D01*
X261168D01*
Y187420D01*
X260819Y189176D01*
X259824Y190664D01*
X255244Y195244D01*
X254316Y195865D01*
X254685Y197080D01*
X262030D01*
Y213080D01*
X251130D01*
Y197080D01*
X251130Y197080D01*
Y197080D01*
Y197080D01*
X251130Y197080D01*
D01*
D01*
D01*
Y197080D01*
X250638Y196588D01*
X244000D01*
X243030Y201465D01*
Y213080D01*
X232130D01*
Y212668D01*
X217948D01*
Y262080D01*
Y300399D01*
X218930Y301205D01*
X220001Y300992D01*
X220298Y300793D01*
X220298D01*
Y300793D01*
X220007Y299330D01*
X220298Y297867D01*
X221127Y296627D01*
Y295534D01*
X220298Y294293D01*
X220007Y292830D01*
X220298Y291367D01*
X221127Y290127D01*
Y290127D01*
X220737Y289423D01*
X220737Y289423D01*
X220737D01*
X219789Y288004D01*
X219709Y287600D01*
X245452D01*
X245371Y288004D01*
X244423Y289423D01*
X244423Y289423D01*
X244423D01*
X244034Y290127D01*
Y290127D01*
X244863Y291367D01*
X245154Y292830D01*
X244863Y294293D01*
X244473Y294876D01*
X245072Y295996D01*
X249707D01*
X251325Y294377D01*
X251244Y294181D01*
X251004Y292354D01*
X251244Y290527D01*
X251950Y288824D01*
X253072Y287362D01*
X254534Y286239D01*
X256237Y285534D01*
X258064Y285294D01*
X259891Y285534D01*
X261594Y286239D01*
X263056Y287362D01*
X264179Y288824D01*
X264884Y290527D01*
X265124Y292354D01*
X264884Y294181D01*
X264179Y295884D01*
X263056Y297346D01*
X261594Y298468D01*
X259891Y299174D01*
X258064Y299414D01*
X256237Y299174D01*
X256040Y299093D01*
X253445Y301688D01*
X252364Y302411D01*
X251088Y302664D01*
X245072D01*
X244473Y303784D01*
X244863Y304367D01*
X245154Y305830D01*
X244863Y307293D01*
X244034Y308534D01*
Y309627D01*
X244863Y310867D01*
X245154Y312330D01*
X244863Y313793D01*
X244630Y314142D01*
X245229Y315262D01*
X257870D01*
X259236Y315533D01*
X260394Y316307D01*
X264921Y320834D01*
X266700Y320600D01*
X268527Y320840D01*
X270230Y321545D01*
X271692Y322668D01*
X272815Y324130D01*
X273520Y325833D01*
X273760Y327660D01*
X273520Y329487D01*
X272815Y331190D01*
X271692Y332652D01*
X270230Y333774D01*
X268527Y334480D01*
X266700Y334720D01*
X264873Y334480D01*
X263170Y333774D01*
X261708Y332652D01*
X260585Y331190D01*
X259880Y329487D01*
X259715Y328233D01*
X258445D01*
X258280Y329487D01*
X257575Y331190D01*
X256452Y332652D01*
X254990Y333774D01*
X253287Y334480D01*
X251460Y334720D01*
X249633Y334480D01*
X247930Y333774D01*
X246468Y332652D01*
X245345Y331190D01*
X244640Y329487D01*
X244532Y328664D01*
X243090D01*
X242794Y328863D01*
X241330Y329154D01*
X223830D01*
X222367Y328863D01*
X221127Y328034D01*
X220298Y326793D01*
X220007Y325330D01*
X220298Y323867D01*
X221127Y322627D01*
Y321534D01*
X220298Y320293D01*
X220022Y318907D01*
X219606Y318751D01*
X218692Y318569D01*
X217941Y319144D01*
X215910Y319986D01*
X214442Y320179D01*
X213956Y321352D01*
X214666Y322278D01*
X215426Y324112D01*
X215518Y324810D01*
X208080D01*
Y326080D01*
X206810D01*
Y333518D01*
X206112Y333426D01*
X204697Y332840D01*
X203991Y333896D01*
X207121Y337026D01*
X303419D01*
X310118Y330327D01*
X309632Y329154D01*
X292830D01*
X291367Y328863D01*
X290127Y328034D01*
X289298Y326793D01*
X289007Y325330D01*
X289298Y323867D01*
X290127Y322627D01*
Y321534D01*
X289298Y320293D01*
X289007Y318830D01*
X289298Y317367D01*
X290127Y316127D01*
Y316127D01*
X289737Y315423D01*
X289737Y315423D01*
X289737D01*
X288789Y314004D01*
X288709Y313600D01*
X314452D01*
X314371Y314004D01*
X313423Y315423D01*
X313423Y315423D01*
X313423D01*
X313034Y316127D01*
Y316127D01*
X313863Y317367D01*
X314154Y318830D01*
X313863Y320293D01*
X313034Y321534D01*
Y322627D01*
X313863Y323867D01*
X314050Y324811D01*
X315266Y325179D01*
X329406Y311039D01*
Y266700D01*
X329660Y265424D01*
X330382Y264342D01*
X343083Y251642D01*
X344164Y250920D01*
X345440Y250666D01*
X346698D01*
X347302Y249209D01*
X348825Y247225D01*
X350809Y245702D01*
X353120Y244744D01*
X355600Y244418D01*
X358080Y244744D01*
X360391Y245702D01*
X362375Y247225D01*
X363898Y249209D01*
X364855Y251520D01*
X365182Y254000D01*
X364855Y256480D01*
X363898Y258791D01*
X362375Y260776D01*
X360391Y262298D01*
X358080Y263256D01*
X355600Y263582D01*
X353120Y263256D01*
X350809Y262298D01*
X348825Y260776D01*
X347302Y258791D01*
X347172Y258477D01*
X345926Y258229D01*
X336074Y268081D01*
Y292551D01*
X337247Y293038D01*
X346948Y283337D01*
X346344Y281880D01*
X346018Y279400D01*
X346344Y276920D01*
X347302Y274609D01*
X348825Y272624D01*
X350809Y271102D01*
X353120Y270145D01*
X355600Y269818D01*
X358080Y270145D01*
X360391Y271102D01*
X362375Y272624D01*
X363898Y274609D01*
X364855Y276920D01*
X365182Y279400D01*
X364855Y281880D01*
X363898Y284191D01*
X362375Y286175D01*
X360391Y287698D01*
X358080Y288655D01*
X355600Y288982D01*
X353120Y288655D01*
X351663Y288052D01*
X340614Y299101D01*
Y311013D01*
X341787Y311499D01*
X346305Y306981D01*
X346018Y304800D01*
X346344Y302320D01*
X347302Y300009D01*
X348825Y298025D01*
X350809Y296502D01*
X353120Y295544D01*
X355600Y295218D01*
X358080Y295544D01*
X360391Y296502D01*
X362375Y298025D01*
X363898Y300009D01*
X364855Y302320D01*
X365182Y304800D01*
X364855Y307280D01*
X363898Y309591D01*
X362375Y311575D01*
X360391Y313098D01*
X358080Y314056D01*
X355600Y314382D01*
X353120Y314056D01*
X350809Y313098D01*
X350135Y312581D01*
X337024Y325693D01*
X337509Y326866D01*
X346698D01*
X347302Y325409D01*
X348825Y323425D01*
X350809Y321902D01*
X353120Y320945D01*
X355600Y320618D01*
X358080Y320945D01*
X360391Y321902D01*
X362375Y323425D01*
X363898Y325409D01*
X364855Y327720D01*
X365182Y330200D01*
X364855Y332680D01*
X363898Y334991D01*
X362375Y336975D01*
X360391Y338498D01*
X358080Y339455D01*
X355600Y339782D01*
X353120Y339455D01*
X350809Y338498D01*
X348825Y336975D01*
X347302Y334991D01*
X346698Y333534D01*
X335602D01*
X312799Y356338D01*
X311717Y357060D01*
X310441Y357314D01*
X187425D01*
X186939Y358487D01*
X188337Y359886D01*
X236220D01*
X237496Y360140D01*
X238577Y360863D01*
X250063Y372348D01*
X251520Y371744D01*
X254000Y371418D01*
X256480Y371744D01*
X258791Y372702D01*
X260776Y374225D01*
X262298Y376209D01*
X263256Y378520D01*
X263582Y381000D01*
X263256Y383480D01*
X262298Y385791D01*
X260776Y387775D01*
X258791Y389298D01*
X256480Y390256D01*
X254000Y390582D01*
X251520Y390256D01*
X249209Y389298D01*
X247225Y387775D01*
X245702Y385791D01*
X244744Y383480D01*
X244418Y381000D01*
X244744Y378520D01*
X245348Y377063D01*
X234839Y366554D01*
X220529D01*
X220042Y367727D01*
X224663Y372348D01*
X226120Y371744D01*
X228600Y371418D01*
X231080Y371744D01*
X233391Y372702D01*
X235375Y374225D01*
X236898Y376209D01*
X237855Y378520D01*
X238182Y381000D01*
X237855Y383480D01*
X236898Y385791D01*
X235375Y387775D01*
X233391Y389298D01*
X231080Y390256D01*
X228600Y390582D01*
X226120Y390256D01*
X223809Y389298D01*
X221824Y387775D01*
X220302Y385791D01*
X219345Y383480D01*
X219018Y381000D01*
X219345Y378520D01*
X219948Y377063D01*
X214519Y371634D01*
X208575D01*
X208167Y372837D01*
X209975Y374225D01*
X211498Y376209D01*
X212456Y378520D01*
X212782Y381000D01*
X212456Y383480D01*
X211498Y385791D01*
X209975Y387775D01*
X207991Y389298D01*
X205680Y390256D01*
X203200Y390582D01*
X200720Y390256D01*
X198409Y389298D01*
X196425Y387775D01*
X194902Y385791D01*
X193944Y383480D01*
X193618Y381000D01*
X193944Y378520D01*
X194902Y376209D01*
X196425Y374225D01*
X198233Y372837D01*
X197825Y371634D01*
X184037D01*
X182761Y371380D01*
X181679Y370658D01*
X170702Y359680D01*
X169563Y360242D01*
X169620Y360680D01*
X169380Y362507D01*
X168675Y364210D01*
X167552Y365672D01*
X166090Y366795D01*
X164387Y367500D01*
X162560Y367740D01*
X160733Y367500D01*
X159030Y366795D01*
X157568Y365672D01*
X156446Y364210D01*
X155740Y362507D01*
X155500Y360680D01*
X155734Y358901D01*
X154393Y357560D01*
X145288D01*
Y357560D01*
X145288Y357560D01*
X145288Y357560D01*
X145288Y357560D01*
X143649D01*
Y360380D01*
X143377Y361745D01*
X142604Y362903D01*
X138437Y367070D01*
X144407Y373040D01*
X156500D01*
Y392040D01*
D02*
G37*
G36*
X314452Y304560D02*
X288709D01*
X288789Y304156D01*
X289737Y302737D01*
X289737Y302737D01*
X289737D01*
X290127Y302034D01*
X290127D01*
Y302034D01*
X289298Y300793D01*
X289007Y299330D01*
X289298Y297867D01*
X290127Y296627D01*
Y295534D01*
X289298Y294293D01*
X289007Y292830D01*
X289298Y291367D01*
X290127Y290127D01*
Y289034D01*
X289298Y287793D01*
X289007Y286330D01*
X289298Y284867D01*
X290127Y283627D01*
Y283627D01*
X289737Y282923D01*
X289737Y282923D01*
X289737D01*
X288789Y281504D01*
X288709Y281100D01*
X314452D01*
X314371Y281504D01*
X313423Y282923D01*
X313423Y282923D01*
X313423D01*
X313034Y283627D01*
Y283627D01*
X313863Y284867D01*
X314154Y286330D01*
X313863Y287793D01*
X313034Y289034D01*
Y290127D01*
X313863Y291367D01*
X314154Y292830D01*
X313863Y294293D01*
X313034Y295534D01*
Y296627D01*
X313863Y297867D01*
X314154Y299330D01*
X313863Y300793D01*
X313034Y302034D01*
Y302034D01*
X313034D01*
X313423Y302737D01*
X313423Y302737D01*
X313423D01*
X314371Y304156D01*
X314452Y304560D01*
D02*
G37*
G36*
X327120Y269620D02*
X323350D01*
Y265350D01*
X327120D01*
Y269620D01*
D02*
G37*
G36*
X320810D02*
X317040D01*
Y265350D01*
X320810D01*
Y269620D01*
D02*
G37*
G36*
X314300Y390500D02*
X295300D01*
Y371500D01*
X314300D01*
Y390500D01*
D02*
G37*
G36*
X31750Y401734D02*
X27513Y401400D01*
X23381Y400408D01*
X19454Y398782D01*
X15831Y396561D01*
X12599Y393801D01*
X9839Y390569D01*
X7618Y386946D01*
X5992Y383019D01*
X5000Y378887D01*
X4667Y374650D01*
X5000Y370413D01*
X5992Y366281D01*
X7618Y362354D01*
X9839Y358731D01*
X12599Y355499D01*
X15831Y352739D01*
X19454Y350518D01*
X23381Y348892D01*
X27513Y347900D01*
X31750Y347566D01*
X35987Y347900D01*
X40119Y348892D01*
X44046Y350518D01*
X47669Y352739D01*
X50901Y355499D01*
X53661Y358731D01*
X55882Y362354D01*
X57508Y366281D01*
X58500Y370413D01*
X58664Y372500D01*
X58664D01*
X58960D01*
D01*
X59600Y372500D01*
X59600Y372500D01*
Y372500D01*
X67730D01*
Y382540D01*
Y392580D01*
X58960D01*
Y382373D01*
X57699Y382224D01*
X57508Y383019D01*
X55882Y386946D01*
X53661Y390569D01*
X50901Y393801D01*
X47669Y396561D01*
X44046Y398782D01*
X40119Y400408D01*
X35987Y401400D01*
X31750Y401734D01*
D02*
G37*
G36*
X79040Y381270D02*
X70270D01*
Y372500D01*
X79040D01*
Y381270D01*
D02*
G37*
G36*
X66230Y227540D02*
X59460D01*
Y221270D01*
X66230D01*
Y227540D01*
D02*
G37*
G36*
X270730Y169730D02*
X266960D01*
Y165460D01*
X270730D01*
Y169730D01*
D02*
G37*
G36*
X49270Y171438D02*
Y165270D01*
X55438D01*
X55346Y165968D01*
X54586Y167803D01*
X53378Y169378D01*
X51803Y170586D01*
X49968Y171346D01*
X49270Y171438D01*
D02*
G37*
G36*
X46730D02*
X46032Y171346D01*
X44198Y170586D01*
X42622Y169378D01*
X41414Y167803D01*
X40654Y165968D01*
X40562Y165270D01*
X46730D01*
Y171438D01*
D02*
G37*
G36*
X277040Y169730D02*
X273270D01*
Y165460D01*
X277040D01*
Y169730D01*
D02*
G37*
G36*
X365100Y212700D02*
X346100D01*
Y193700D01*
X365100D01*
Y212700D01*
D02*
G37*
G36*
X106620Y190620D02*
X99850D01*
Y179850D01*
X106620D01*
Y190620D01*
D02*
G37*
G36*
X97310D02*
X90540D01*
Y179850D01*
X97310D01*
Y190620D01*
D02*
G37*
G36*
X351984Y167992D02*
X342714D01*
Y156222D01*
X351984D01*
Y167992D01*
D02*
G37*
G36*
X340174D02*
X330904D01*
Y156222D01*
X340174D01*
Y167992D01*
D02*
G37*
G36*
X197040Y159730D02*
X193270D01*
Y155460D01*
X197040D01*
Y159730D01*
D02*
G37*
G36*
X46730Y162730D02*
X40562D01*
X40654Y162032D01*
X41414Y160198D01*
X42622Y158622D01*
X44198Y157414D01*
X46032Y156654D01*
X46730Y156562D01*
Y162730D01*
D02*
G37*
G36*
X378794Y175492D02*
X368024D01*
Y165222D01*
X378794D01*
Y175492D01*
D02*
G37*
G36*
X365484D02*
X354714D01*
Y165222D01*
X365484D01*
Y175492D01*
D02*
G37*
G36*
X55438Y162730D02*
X49270D01*
Y156562D01*
X49968Y156654D01*
X51803Y157414D01*
X53378Y158622D01*
X54586Y160198D01*
X55346Y162032D01*
X55438Y162730D01*
D02*
G37*
G36*
X79040Y392580D02*
X70270D01*
Y383810D01*
X79040D01*
Y392580D01*
D02*
G37*
G36*
X326390Y223338D02*
X325692Y223246D01*
X323857Y222486D01*
X322282Y221278D01*
X321074Y219702D01*
X320314Y217868D01*
X320222Y217170D01*
X326390D01*
Y223338D01*
D02*
G37*
G36*
X236038Y222250D02*
X229870D01*
Y216082D01*
X230568Y216174D01*
X232402Y216934D01*
X233978Y218142D01*
X235186Y219718D01*
X235946Y221552D01*
X236038Y222250D01*
D02*
G37*
G36*
X227330D02*
X221162D01*
X221254Y221552D01*
X222014Y219718D01*
X223222Y218142D01*
X224797Y216934D01*
X226632Y216174D01*
X227330Y216082D01*
Y222250D01*
D02*
G37*
G36*
X365559Y227330D02*
X356870D01*
Y218641D01*
X358221Y218818D01*
X360663Y219830D01*
X362761Y221439D01*
X364370Y223537D01*
X365382Y225979D01*
X365559Y227330D01*
D02*
G37*
G36*
X354330D02*
X345641D01*
X345818Y225979D01*
X346830Y223537D01*
X348439Y221439D01*
X350537Y219830D01*
X352979Y218818D01*
X354330Y218641D01*
Y227330D01*
D02*
G37*
G36*
X328930Y223338D02*
Y217170D01*
X335098D01*
X335006Y217868D01*
X334246Y219702D01*
X333038Y221278D01*
X331463Y222486D01*
X329628Y223246D01*
X328930Y223338D01*
D02*
G37*
G36*
X66230Y218730D02*
X59460D01*
Y212460D01*
X66230D01*
Y218730D01*
D02*
G37*
G36*
X326390Y214630D02*
X320222D01*
X320314Y213932D01*
X321074Y212097D01*
X322282Y210522D01*
X323857Y209314D01*
X325692Y208554D01*
X326390Y208462D01*
Y214630D01*
D02*
G37*
G36*
X335098D02*
X328930D01*
Y208462D01*
X329628Y208554D01*
X331463Y209314D01*
X333038Y210522D01*
X334246Y212097D01*
X335006Y213932D01*
X335098Y214630D01*
D02*
G37*
G36*
X66730Y201040D02*
X62460D01*
Y197270D01*
X66730D01*
Y201040D01*
D02*
G37*
G36*
X75540Y218730D02*
X68770D01*
Y212460D01*
X75540D01*
Y218730D01*
D02*
G37*
%LPD*%
G36*
X197297Y349473D02*
X178238Y330414D01*
X176413D01*
Y332330D01*
X176084Y333988D01*
X175144Y335394D01*
X173738Y336334D01*
X172947Y336491D01*
X172578Y337706D01*
X185518Y350646D01*
X196810D01*
X197297Y349473D01*
D02*
G37*
G36*
X136512Y358901D02*
Y357560D01*
X135288D01*
Y349634D01*
X134021Y349551D01*
X133820Y351077D01*
X133115Y352780D01*
X131992Y354242D01*
X130530Y355364D01*
X128827Y356070D01*
X127000Y356310D01*
X125173Y356070D01*
X123470Y355364D01*
X122008Y354242D01*
X120885Y352780D01*
X120180Y351077D01*
X119940Y349250D01*
X120180Y347423D01*
X120450Y346771D01*
X119394Y346065D01*
X117737Y347723D01*
X117818Y347919D01*
X118058Y349746D01*
X117818Y351574D01*
X117113Y353277D01*
X115990Y354739D01*
X114528Y355861D01*
X112825Y356566D01*
X110998Y356807D01*
X109171Y356566D01*
X107812Y356003D01*
X107106Y357059D01*
X113548Y363501D01*
X131912D01*
X136512Y358901D01*
D02*
G37*
G36*
X104741Y352933D02*
X104178Y351574D01*
X103938Y349746D01*
X104178Y347919D01*
X104883Y346216D01*
X106006Y344754D01*
X107468Y343632D01*
X109171Y342927D01*
X110998Y342686D01*
X112825Y342927D01*
X113021Y343008D01*
X119056Y336973D01*
X118250Y335992D01*
X117739Y336334D01*
X116080Y336664D01*
X114422Y336334D01*
X113016Y335394D01*
X112142Y334086D01*
X110878Y334211D01*
X110195Y335860D01*
X109073Y337323D01*
X107611Y338445D01*
X105908Y339150D01*
X104080Y339391D01*
X102253Y339150D01*
X100550Y338445D01*
X99088Y337323D01*
X97966Y335860D01*
X97261Y334158D01*
X97020Y332330D01*
X97133Y331470D01*
X96133Y330166D01*
X94299Y330926D01*
X93600Y331018D01*
Y323580D01*
X91060D01*
Y331018D01*
X90362Y330926D01*
X88528Y330166D01*
X86953Y328958D01*
X85783Y327433D01*
X84892Y327736D01*
X84580Y327865D01*
Y330080D01*
X84580D01*
Y330080D01*
X84580Y330080D01*
X84580Y330080D01*
Y334534D01*
X103685Y353638D01*
X104741Y352933D01*
D02*
G37*
G36*
X199580Y260092D02*
Y257620D01*
X199040D01*
Y253350D01*
X204080D01*
Y252080D01*
X205350D01*
Y246540D01*
X208772D01*
Y223536D01*
X207505Y223453D01*
X207426Y224049D01*
X206666Y225883D01*
X205458Y227458D01*
X203883Y228666D01*
X202049Y229426D01*
X201350Y229518D01*
Y222080D01*
X200080D01*
Y220810D01*
X192642D01*
X192734Y220112D01*
X193494Y218278D01*
X194703Y216703D01*
X195302Y216243D01*
X194894Y215040D01*
X190460D01*
Y209270D01*
X197000D01*
Y206730D01*
X190460D01*
Y200960D01*
X196752D01*
X197238Y199787D01*
X188756Y191304D01*
X187761Y189816D01*
X187412Y188060D01*
Y176668D01*
X180080D01*
X179531Y176559D01*
X179080Y176649D01*
X178355D01*
X178233Y176944D01*
X178938Y178000D01*
X185500D01*
Y187460D01*
X186040D01*
Y191730D01*
X181000D01*
Y193000D01*
X179730D01*
Y198540D01*
X177919D01*
X177214Y199596D01*
X177900Y201253D01*
X178141Y203080D01*
X177900Y204908D01*
X177195Y206611D01*
X176073Y208073D01*
X174610Y209195D01*
X172908Y209900D01*
X171753Y210052D01*
X171345Y211255D01*
X174233Y214142D01*
X175086Y214087D01*
X176548Y212965D01*
X178251Y212259D01*
X180078Y212019D01*
X181906Y212259D01*
X183609Y212965D01*
X185071Y214087D01*
X186193Y215549D01*
X186898Y217252D01*
X187139Y219079D01*
X186898Y220907D01*
X186193Y222609D01*
X185071Y224072D01*
X183609Y225194D01*
X181906Y225899D01*
X180420Y226094D01*
X180012Y227297D01*
X188438Y235723D01*
X189834Y237119D01*
X190908Y237260D01*
X192610Y237966D01*
X194073Y239088D01*
X195195Y240550D01*
X195900Y242253D01*
X196141Y244080D01*
X195900Y245908D01*
X195195Y247610D01*
X194073Y249073D01*
X192610Y250195D01*
X190908Y250900D01*
X189414Y251097D01*
Y252747D01*
X191330D01*
X192988Y253077D01*
X194394Y254016D01*
X195334Y255422D01*
X195664Y257080D01*
X195334Y258738D01*
X194910Y259372D01*
X195509Y260492D01*
X199180D01*
X199580Y260092D01*
D02*
G37*
G36*
X153016Y234766D02*
X154094Y234046D01*
X153969Y232782D01*
X152548Y232194D01*
X151086Y231071D01*
X149964Y229609D01*
X149259Y227906D01*
X149018Y226079D01*
X149259Y224252D01*
X149964Y222549D01*
X151086Y221087D01*
X152548Y219965D01*
X154109Y219318D01*
X154357Y218072D01*
X146180Y209895D01*
X144978Y210303D01*
X144898Y210907D01*
X144193Y212609D01*
X143071Y214072D01*
X141609Y215194D01*
X139906Y215899D01*
X138078Y216140D01*
X136251Y215899D01*
X134548Y215194D01*
X133086Y214072D01*
X131964Y212609D01*
X131259Y210907D01*
X131018Y209079D01*
X131259Y207252D01*
X131964Y205549D01*
X133086Y204087D01*
X134548Y202965D01*
X134746Y202883D01*
Y198580D01*
X134580D01*
Y186580D01*
X161040D01*
Y184350D01*
X167580D01*
Y181810D01*
X161040D01*
Y179040D01*
X161580D01*
Y176539D01*
X160765Y176377D01*
X159740Y175693D01*
X158620Y176291D01*
Y183620D01*
X152970D01*
Y176500D01*
X150430D01*
Y183620D01*
X149350D01*
Y173080D01*
X146810D01*
Y183620D01*
X137540D01*
Y181291D01*
X136420Y180693D01*
X135396Y181377D01*
X134580Y181539D01*
Y186580D01*
X130715D01*
X123929Y193367D01*
X124010Y193563D01*
X124250Y195390D01*
X124010Y197217D01*
X123305Y198920D01*
X122183Y200382D01*
X120720Y201504D01*
X119017Y202210D01*
X118755Y202244D01*
X118838Y203512D01*
X118860D01*
X120225Y203783D01*
X121383Y204557D01*
X142604Y225778D01*
X143377Y226935D01*
X143649Y228301D01*
Y234625D01*
X144864Y234994D01*
X145016Y234766D01*
X146422Y233827D01*
X148080Y233497D01*
X149739Y233827D01*
X151144Y234766D01*
X151445Y235217D01*
X152715D01*
X153016Y234766D01*
D02*
G37*
G36*
X176827Y255422D02*
X177766Y254016D01*
X179172Y253077D01*
X180830Y252747D01*
X182746D01*
Y247080D01*
X182260Y245908D01*
X182020Y244080D01*
X182260Y242253D01*
X182746Y241080D01*
Y239461D01*
X167588Y224303D01*
X166414Y224789D01*
Y227080D01*
Y234278D01*
X167144Y234766D01*
X167445Y235217D01*
X168715D01*
X169016Y234766D01*
X170422Y233827D01*
X172080Y233497D01*
X173738Y233827D01*
X175144Y234766D01*
X176084Y236172D01*
X176413Y237830D01*
Y248330D01*
X176084Y249988D01*
X175414Y250990D01*
Y256045D01*
X176678Y256169D01*
X176827Y255422D01*
D02*
G37*
G36*
X75580Y330080D02*
X75580D01*
X75580Y330080D01*
Y330080D01*
X75580D01*
X75580D01*
D01*
D01*
Y330080D01*
D01*
X75580D01*
Y325523D01*
X75492Y325080D01*
X75580Y324637D01*
Y320080D01*
X77492D01*
Y310080D01*
X73649D01*
Y314920D01*
X73377Y316285D01*
X73000Y316850D01*
Y321500D01*
X63540D01*
Y322040D01*
X59270D01*
Y317000D01*
Y311960D01*
X63540D01*
Y312500D01*
X66512D01*
Y310080D01*
X50080D01*
Y287080D01*
X60512D01*
Y287080D01*
X60783Y285715D01*
X61557Y284557D01*
X75860Y270254D01*
X75374Y269080D01*
X50080D01*
Y262649D01*
X44580D01*
Y264080D01*
X35580D01*
Y254620D01*
X35040D01*
Y250350D01*
X45120D01*
Y254620D01*
D01*
Y254620D01*
X46012Y255512D01*
X50080D01*
Y246080D01*
X78080D01*
Y253512D01*
X87404D01*
X87812Y252309D01*
X86703Y251458D01*
X85494Y249883D01*
X84734Y248049D01*
X84642Y247350D01*
X99518D01*
X99426Y248049D01*
X98666Y249883D01*
X97458Y251458D01*
X97345Y251544D01*
X97753Y252747D01*
X107330D01*
X108989Y253077D01*
X110394Y254016D01*
X111334Y255422D01*
X111664Y257080D01*
X111334Y258738D01*
X110394Y260144D01*
X109944Y260445D01*
Y261715D01*
X110394Y262016D01*
X111334Y263422D01*
X111664Y265080D01*
X112041Y265458D01*
X112776Y265312D01*
X128422D01*
X130178Y265661D01*
X131666Y266656D01*
X149054Y284044D01*
X149354Y284492D01*
X153177D01*
X156443Y281226D01*
X155881Y280087D01*
X155702Y280110D01*
X153875Y279870D01*
X152172Y279165D01*
X150710Y278042D01*
X149587Y276580D01*
X148882Y274877D01*
X148642Y273050D01*
X148882Y271223D01*
X149587Y269520D01*
X150195Y268728D01*
X149655Y267424D01*
X147828Y267664D01*
X146001Y267424D01*
X144298Y266719D01*
X142836Y265596D01*
X141713Y264134D01*
X141008Y262431D01*
X140768Y260604D01*
X141008Y258777D01*
X141713Y257074D01*
X142836Y255612D01*
X144298Y254489D01*
X144746Y254304D01*
Y251185D01*
X143953Y250944D01*
X143445D01*
X143144Y251394D01*
X141739Y252334D01*
X140080Y252663D01*
X138422Y252334D01*
X137016Y251394D01*
X136715Y250944D01*
X135445D01*
X135144Y251394D01*
X133738Y252334D01*
X132080Y252663D01*
X130422Y252334D01*
X129016Y251394D01*
X128715Y250944D01*
X127445D01*
X127144Y251394D01*
X125738Y252334D01*
X124080Y252663D01*
X122422Y252334D01*
X121016Y251394D01*
X120715Y250944D01*
X119445D01*
X119144Y251394D01*
X117739Y252334D01*
X116080Y252663D01*
X114422Y252334D01*
X113016Y251394D01*
X112077Y249988D01*
X111747Y248330D01*
Y246414D01*
X108460D01*
X107184Y246161D01*
X106103Y245438D01*
X97679Y237014D01*
X55880D01*
X54604Y236760D01*
X53523Y236038D01*
X48443Y230958D01*
X47720Y229876D01*
X47466Y228600D01*
Y204581D01*
X29337Y186452D01*
X27880Y187055D01*
X25400Y187382D01*
X22920Y187055D01*
X20609Y186098D01*
X18625Y184575D01*
X17471Y183072D01*
X16269Y183481D01*
Y197519D01*
X17471Y197928D01*
X18625Y196425D01*
X20609Y194902D01*
X22920Y193944D01*
X25400Y193618D01*
X27880Y193944D01*
X30191Y194902D01*
X32175Y196425D01*
X33698Y198409D01*
X34655Y200720D01*
X34982Y203200D01*
X34655Y205680D01*
X33698Y207991D01*
X32175Y209975D01*
X30191Y211498D01*
X27880Y212456D01*
X25400Y212782D01*
X22920Y212456D01*
X20609Y211498D01*
X18625Y209975D01*
X17471Y208472D01*
X16269Y208881D01*
Y219100D01*
X34900D01*
Y238100D01*
X16269D01*
Y296572D01*
X51208Y331512D01*
X75580D01*
Y330080D01*
D02*
G37*
G36*
X189236Y330323D02*
Y320951D01*
X185698Y317414D01*
X180830D01*
X179172Y317084D01*
X177766Y316144D01*
X176827Y314739D01*
X176497Y313080D01*
X176827Y311422D01*
X177766Y310016D01*
X178217Y309715D01*
Y308445D01*
X177766Y308144D01*
X176827Y306738D01*
X176497Y305080D01*
X176827Y303422D01*
X177766Y302016D01*
X178217Y301715D01*
Y300445D01*
X177766Y300144D01*
X176827Y298738D01*
X176497Y297080D01*
X176827Y295422D01*
X177766Y294016D01*
X177766Y292794D01*
X177377Y292534D01*
X176318Y290949D01*
X176199Y290350D01*
X186080D01*
Y287810D01*
X176199D01*
X176318Y287211D01*
X177377Y285627D01*
X177766Y285367D01*
X177766Y284144D01*
X176827Y282738D01*
X176497Y281080D01*
X176827Y279422D01*
X177766Y278016D01*
X178217Y277715D01*
Y276445D01*
X177766Y276144D01*
X177015Y275020D01*
X175751Y274895D01*
X158322Y292325D01*
X156833Y293319D01*
X155077Y293668D01*
X112158D01*
X111560Y294788D01*
X111842Y295211D01*
X111961Y295810D01*
X102080D01*
Y298350D01*
X111961D01*
X111875Y298783D01*
X113091Y299152D01*
X113265Y298730D01*
X114388Y297268D01*
X115850Y296145D01*
X117553Y295440D01*
X119380Y295200D01*
X121207Y295440D01*
X122910Y296145D01*
X124372Y297268D01*
X125494Y298730D01*
X126200Y300433D01*
X126440Y302260D01*
X126200Y304087D01*
X125717Y305254D01*
X126772Y305960D01*
X129439Y303293D01*
X130597Y302519D01*
X131963Y302247D01*
X136917D01*
X138010Y300824D01*
X139472Y299701D01*
X141175Y298996D01*
X143002Y298756D01*
X144829Y298996D01*
X146532Y299701D01*
X147994Y300824D01*
X149116Y302286D01*
X149822Y303989D01*
X150062Y305816D01*
X149822Y307643D01*
X149116Y309346D01*
X147994Y310808D01*
X146532Y311931D01*
X144829Y312636D01*
X143002Y312876D01*
X141175Y312636D01*
X139472Y311931D01*
X138010Y310808D01*
X136917Y309385D01*
X133441D01*
X126003Y316823D01*
X126127Y318087D01*
X127144Y318766D01*
X127445Y319217D01*
X128715D01*
X129016Y318766D01*
X130422Y317827D01*
X132080Y317497D01*
X133738Y317827D01*
X135144Y318766D01*
X135445Y319217D01*
X136715D01*
X137016Y318766D01*
X138422Y317827D01*
X140080Y317497D01*
X141739Y317827D01*
X143144Y318766D01*
X143445Y319217D01*
X144715D01*
X145016Y318766D01*
X146422Y317827D01*
X148080Y317497D01*
X149739Y317827D01*
X151144Y318766D01*
X151445Y319217D01*
X152715D01*
X153016Y318766D01*
X154422Y317827D01*
X156080Y317497D01*
X157739Y317827D01*
X159144Y318766D01*
X159445Y319217D01*
X160715D01*
X161016Y318766D01*
X162422Y317827D01*
X164080Y317497D01*
X165739Y317827D01*
X167144Y318766D01*
X167445Y319217D01*
X168715D01*
X169016Y318766D01*
X170422Y317827D01*
X172080Y317497D01*
X173738Y317827D01*
X175144Y318766D01*
X176084Y320172D01*
X176413Y321830D01*
Y323746D01*
X179619D01*
X180895Y324000D01*
X181977Y324723D01*
X188063Y330809D01*
X189236Y330323D01*
D02*
G37*
G36*
X87336Y285836D02*
X88824Y284841D01*
X90580Y284492D01*
X92002D01*
X92601Y283372D01*
X92318Y282949D01*
X92199Y282350D01*
X102080D01*
Y279810D01*
X92199D01*
X92318Y279211D01*
X93377Y277627D01*
X93766Y277367D01*
X93766Y276144D01*
X92827Y274739D01*
X92497Y273080D01*
X92827Y271422D01*
X93766Y270016D01*
X93994Y269864D01*
X93625Y268649D01*
X87558D01*
X70300Y285907D01*
X70786Y287080D01*
X78080D01*
Y293432D01*
X79254Y293918D01*
X87336Y285836D01*
D02*
G37*
%LPC*%
G36*
X99518Y244810D02*
X93350D01*
Y238642D01*
X94049Y238734D01*
X95883Y239494D01*
X97458Y240703D01*
X98666Y242278D01*
X99426Y244112D01*
X99518Y244810D01*
D02*
G37*
G36*
X38810Y247810D02*
X35040D01*
Y243540D01*
X38810D01*
Y247810D01*
D02*
G37*
G36*
X45120D02*
X41350D01*
Y243540D01*
X45120D01*
Y247810D01*
D02*
G37*
G36*
X186040Y198540D02*
X182270D01*
Y194270D01*
X186040D01*
Y198540D01*
D02*
G37*
G36*
X198810Y229518D02*
X198112Y229426D01*
X196278Y228666D01*
X194703Y227458D01*
X193494Y225883D01*
X192734Y224049D01*
X192642Y223350D01*
X198810D01*
Y229518D01*
D02*
G37*
G36*
X90810Y244810D02*
X84642D01*
X84734Y244112D01*
X85494Y242278D01*
X86703Y240703D01*
X88278Y239494D01*
X90112Y238734D01*
X90810Y238642D01*
Y244810D01*
D02*
G37*
G36*
X202810Y250810D02*
X199040D01*
Y246540D01*
X202810D01*
Y250810D01*
D02*
G37*
G36*
X38350Y302518D02*
Y296350D01*
X44518D01*
X44426Y297049D01*
X43666Y298883D01*
X42458Y300458D01*
X40883Y301666D01*
X39049Y302426D01*
X38350Y302518D01*
D02*
G37*
G36*
X56730Y315730D02*
X52460D01*
Y311960D01*
X56730D01*
Y315730D01*
D02*
G37*
G36*
Y322040D02*
X52460D01*
Y318270D01*
X56730D01*
Y322040D01*
D02*
G37*
G36*
X35810Y293810D02*
X29642D01*
X29734Y293112D01*
X30494Y291278D01*
X31703Y289703D01*
X33278Y288494D01*
X35112Y287734D01*
X35810Y287642D01*
Y293810D01*
D02*
G37*
G36*
X44518D02*
X38350D01*
Y287642D01*
X39049Y287734D01*
X40883Y288494D01*
X42458Y289703D01*
X43666Y291278D01*
X44426Y293112D01*
X44518Y293810D01*
D02*
G37*
G36*
X35810Y302518D02*
X35112Y302426D01*
X33278Y301666D01*
X31703Y300458D01*
X30494Y298883D01*
X29734Y297049D01*
X29642Y296350D01*
X35810D01*
Y302518D01*
D02*
G37*
%LPD*%
D10*
X318076Y142868D02*
G03*
X317936Y142992I-3329J-3626D01*
G01*
D02*
G03*
X311532Y142968I-3188J-3750D01*
G01*
X318542Y136107D02*
G03*
X318076Y142868I-3794J3135D01*
G01*
X304750Y218568D02*
G03*
X304750Y228378I0J4905D01*
G01*
Y179328D02*
G03*
X304750Y189138I221J4905D01*
G01*
Y198948D02*
G03*
X304750Y208758I-290J4905D01*
G01*
Y159708D02*
G03*
X304750Y169518I-292J4905D01*
G01*
X318468Y136032D02*
G03*
X318542Y136106I-3468J3468D01*
G01*
X317500Y143444D02*
X318076Y142868D01*
X318076Y142868D01*
X304750Y189138D02*
Y198948D01*
X318542Y136107D02*
X330718Y123930D01*
X318542Y136107D02*
X318542Y136107D01*
X318542Y136107D02*
X318542Y136107D01*
X300530Y232598D02*
X304750Y228378D01*
X299643Y238893D02*
X300530Y238005D01*
X298400Y240135D02*
X299643Y238893D01*
X304750Y208758D02*
Y218568D01*
Y149750D02*
X311532Y142968D01*
X304750Y169518D02*
Y179328D01*
Y149750D02*
Y159708D01*
X298400Y147268D02*
X316128Y129540D01*
X300530Y232598D02*
Y238005D01*
X330718Y123930D02*
X339240D01*
X287175Y236973D02*
Y243173D01*
X298400Y147268D02*
Y225748D01*
X287175Y236973D02*
X298400Y225748D01*
X328238Y117430D02*
X338490D01*
X316128Y129540D02*
X328238Y117430D01*
X287175Y243173D02*
X290488Y246485D01*
X298400D01*
D11*
X75580Y178580D02*
D03*
X98580Y141580D02*
D03*
X75580D02*
D03*
X98580Y178580D02*
D03*
D12*
X64080Y298580D02*
D03*
Y257580D02*
D03*
D03*
D13*
X340254Y136952D02*
D03*
Y130452D02*
D03*
Y123952D02*
D03*
Y117452D02*
D03*
Y110952D02*
D03*
D14*
X341444Y154952D02*
D03*
Y92952D02*
D03*
D15*
X366754Y163952D02*
D03*
Y83952D02*
D03*
D16*
X366744Y135952D02*
D03*
X366754Y111952D02*
D03*
D17*
X256580Y179079D02*
D03*
X247080D02*
D03*
X237580D02*
D03*
X256580Y205080D02*
D03*
X237580D02*
D03*
D18*
X232580Y325330D02*
D03*
Y318830D02*
D03*
Y312330D02*
D03*
Y305830D02*
D03*
Y299330D02*
D03*
Y292830D02*
D03*
Y286330D02*
D03*
Y279830D02*
D03*
Y273330D02*
D03*
Y266830D02*
D03*
Y260330D02*
D03*
Y253830D02*
D03*
Y247330D02*
D03*
Y240830D02*
D03*
X301580Y325330D02*
D03*
Y318830D02*
D03*
Y312330D02*
D03*
Y305830D02*
D03*
Y299330D02*
D03*
Y292830D02*
D03*
Y286330D02*
D03*
Y279830D02*
D03*
Y273330D02*
D03*
Y266830D02*
D03*
Y260330D02*
D03*
Y253830D02*
D03*
Y247330D02*
D03*
Y240830D02*
D03*
D19*
X148080Y173080D02*
D03*
D20*
X128580Y183080D02*
D03*
X167580Y163080D02*
D03*
Y168080D02*
D03*
Y173080D02*
D03*
Y178080D02*
D03*
Y183080D02*
D03*
X128580D02*
D03*
Y178080D02*
D03*
Y173080D02*
D03*
Y168080D02*
D03*
Y163080D02*
D03*
D21*
X138080Y153580D02*
D03*
X143080D02*
D03*
X148080D02*
D03*
X153080D02*
D03*
X158080D02*
D03*
Y192580D02*
D03*
X153080D02*
D03*
X148080D02*
D03*
X143080D02*
D03*
X138080D02*
D03*
D22*
X172080Y327080D02*
D03*
X164080D02*
D03*
X156080D02*
D03*
X148080D02*
D03*
X140080D02*
D03*
X132080D02*
D03*
X124080D02*
D03*
X116080D02*
D03*
X172080Y243080D02*
D03*
X164080D02*
D03*
X156080D02*
D03*
X148080D02*
D03*
X140080D02*
D03*
X132080D02*
D03*
X124080D02*
D03*
X116080D02*
D03*
D23*
X102080Y289080D02*
D03*
Y297080D02*
D03*
Y265080D02*
D03*
Y257080D02*
D03*
Y273080D02*
D03*
Y281080D02*
D03*
Y305080D02*
D03*
Y313080D02*
D03*
X186080D02*
D03*
Y305080D02*
D03*
Y289080D02*
D03*
Y297080D02*
D03*
Y265080D02*
D03*
Y257080D02*
D03*
Y273080D02*
D03*
Y281080D02*
D03*
D24*
X84000Y17000D02*
D03*
Y95000D02*
D03*
X355600Y203200D02*
D03*
X25400Y228600D02*
D03*
X215900Y76200D02*
D03*
D25*
X69000Y382540D02*
D03*
X147000D02*
D03*
X279400Y25400D02*
D03*
X304800Y381000D02*
D03*
D26*
X48260Y86280D02*
D03*
Y76280D02*
D03*
X292000Y73000D02*
D03*
Y63000D02*
D03*
X308000Y73000D02*
D03*
Y63000D02*
D03*
X114080Y160080D02*
D03*
Y170080D02*
D03*
X181000Y139000D02*
D03*
Y149000D02*
D03*
X80080Y335080D02*
D03*
Y325080D02*
D03*
X151000Y119000D02*
D03*
Y129000D02*
D03*
X272000Y181000D02*
D03*
Y171000D02*
D03*
X322080Y254080D02*
D03*
Y264080D02*
D03*
X225270Y141888D02*
D03*
Y131888D02*
D03*
X120000Y109000D02*
D03*
Y119000D02*
D03*
X130000Y109000D02*
D03*
Y119000D02*
D03*
X181000Y193000D02*
D03*
Y183000D02*
D03*
X151000Y98000D02*
D03*
Y108000D02*
D03*
X181000Y161000D02*
D03*
Y171000D02*
D03*
X192000Y161000D02*
D03*
Y171000D02*
D03*
X204080Y252080D02*
D03*
Y262080D02*
D03*
X40080Y249080D02*
D03*
Y259080D02*
D03*
X204080Y298080D02*
D03*
Y288080D02*
D03*
D27*
X101080Y207080D02*
D03*
X111080D02*
D03*
X140000Y130000D02*
D03*
X130000D02*
D03*
X150000Y140000D02*
D03*
X140000D02*
D03*
X78000Y196000D02*
D03*
X68000D02*
D03*
X172000Y100000D02*
D03*
X162000D02*
D03*
X80250Y124500D02*
D03*
X90250D02*
D03*
X58000Y317000D02*
D03*
X68000D02*
D03*
X150288Y353060D02*
D03*
X140288D02*
D03*
D28*
X312500Y92000D02*
D03*
X295500D02*
D03*
X84500Y220000D02*
D03*
X67500D02*
D03*
D29*
X241270Y132388D02*
D03*
Y149388D02*
D03*
D30*
X263500Y128000D02*
D03*
X288500D02*
D03*
D31*
X272270Y148888D02*
D03*
X258270D02*
D03*
X197000Y208000D02*
D03*
X211000D02*
D03*
D32*
X251088Y299330D02*
X258064Y292354D01*
X232580Y299330D02*
X251088D01*
X334221Y330200D02*
X355600D01*
X184137Y353980D02*
X310441D01*
X164080Y333923D02*
X184137Y353980D01*
X310441D02*
X334221Y330200D01*
X164080Y327080D02*
Y333923D01*
X236220Y363220D02*
X254000Y381000D01*
X186957Y363220D02*
X236220D01*
X215900Y368300D02*
X228600Y381000D01*
X184037Y368300D02*
X215900D01*
X353201Y304800D02*
X355600D01*
X308561Y349440D02*
X353201Y304800D01*
X201979Y349440D02*
X308561D01*
X179619Y327080D02*
X201979Y349440D01*
X172080Y327080D02*
X179619D01*
X337280Y297720D02*
X355600Y279400D01*
X337280Y297720D02*
Y314300D01*
X306681Y344900D02*
X337280Y314300D01*
X203860Y344900D02*
X306681D01*
X192570Y333611D02*
X203860Y344900D01*
X192570Y319570D02*
Y333611D01*
X186080Y313080D02*
X192570Y319570D01*
X345440Y254000D02*
X355600D01*
X332740Y266700D02*
X345440Y254000D01*
X332740Y266700D02*
Y312420D01*
X304800Y340360D02*
X332740Y312420D01*
X205740Y340360D02*
X304800D01*
X197110Y331730D02*
X205740Y340360D01*
X197110Y309880D02*
Y331730D01*
X192311Y305080D02*
X197110Y309880D01*
X186080Y305080D02*
X192311D01*
X116560D02*
X119380Y302260D01*
X102080Y305080D02*
X116560D01*
X25400Y177800D02*
X50800Y203200D01*
Y228600D01*
X55880Y233680D01*
X99060D01*
X108460Y243080D01*
X116080D01*
X117190Y195390D02*
X128580Y184000D01*
Y183080D02*
Y184000D01*
X249130Y325330D02*
X251460Y327660D01*
X232580Y325330D02*
X249130D01*
X132080Y327080D02*
Y340360D01*
X153310Y197935D02*
X173456Y218080D01*
X153310Y192810D02*
Y197935D01*
X173456Y218080D02*
X179079D01*
X160580Y192580D02*
X171080Y203080D01*
X158080Y192580D02*
X160580D01*
X117080Y163080D02*
X128580D01*
X114080Y160080D02*
X117080Y163080D01*
X98080Y141080D02*
X98580Y141580D01*
X98080Y132330D02*
Y141080D01*
X148080Y192580D02*
X148310Y192810D01*
X143080Y192580D02*
Y202080D01*
X163080Y222080D01*
X148080Y192580D02*
Y200080D01*
X186080Y238080D01*
Y257080D01*
X138080Y192580D02*
Y209077D01*
X138078Y209079D02*
X138080Y209077D01*
X153080Y192580D02*
X153310Y192810D01*
X156078Y226079D02*
X157080Y227080D01*
X163080Y222080D02*
Y227080D01*
X132080Y233080D02*
Y243080D01*
X124080Y237817D02*
Y243080D01*
X120080Y221080D02*
X132080Y233080D01*
X102080Y313080D02*
Y329080D01*
X104080Y331080D01*
Y332330D01*
X179079Y218080D02*
X180078Y219079D01*
X105078Y221079D02*
X107343D01*
X124080Y237817D01*
X98580Y144580D02*
X114080Y160080D01*
X98580Y141580D02*
Y144580D01*
X186080Y238080D02*
X189080Y241080D01*
Y244080D01*
X90250Y124500D02*
X98080Y132330D01*
X163080Y242080D02*
X164080Y243080D01*
X157080Y227080D02*
X163080D01*
Y242080D01*
X124080Y327080D02*
Y336664D01*
X110998Y349746D02*
X124080Y336664D01*
X110998Y349746D02*
Y351282D01*
X127000Y345440D02*
X132080Y340360D01*
X127000Y345440D02*
Y349250D01*
X54980Y93000D02*
X82000D01*
X84000Y95000D01*
X84000Y95000D01*
X48000Y131000D02*
X84000Y95000D01*
X48000Y131000D02*
Y140000D01*
X48260Y86280D02*
X54980Y93000D01*
X156080Y253870D02*
X161036Y258826D01*
X156080Y243080D02*
Y253870D01*
X148080Y243080D02*
Y260352D01*
X147828Y260604D02*
X148080Y260352D01*
X155702Y273050D02*
X159766D01*
X172080Y260736D01*
Y243080D02*
Y260736D01*
X148080Y327080D02*
Y332344D01*
X184037Y368300D01*
X156080Y327080D02*
Y332344D01*
X186957Y363220D01*
D33*
X261500Y130000D02*
X263500Y128000D01*
X243658Y130000D02*
X261500D01*
X241270Y132388D02*
X243658Y130000D01*
X288500Y128000D02*
X305548Y110952D01*
X340254D01*
X247080Y167080D02*
Y179079D01*
X77470Y32766D02*
X90424D01*
X48260Y61976D02*
X77470Y32766D01*
X48260Y61976D02*
Y76280D01*
X115570Y7620D02*
X261620D01*
X90424Y32766D02*
X115570Y7620D01*
X301580Y266830D02*
Y273330D01*
X279830Y266830D02*
X301580D01*
X213730Y311851D02*
X220001Y305580D01*
X232330D01*
X202083Y298080D02*
X204080D01*
X186080Y289080D02*
X193083D01*
X202083Y298080D01*
X202880Y299280D02*
X204080Y298080D01*
X234581Y208080D02*
X237580Y205081D01*
X80080Y325080D02*
X82080Y323080D01*
X192000Y172080D02*
Y188060D01*
X301580Y253830D02*
X321830D01*
X210820Y208080D02*
X234581D01*
X180080Y172080D02*
X192000D01*
X186080Y265080D02*
X201080D01*
X204080Y262080D01*
X25400Y101600D02*
X28800Y105000D01*
X261620Y7620D02*
X279400Y25400D01*
X241300Y76200D02*
X279400Y38100D01*
Y25400D02*
Y38100D01*
X213360Y211360D02*
Y262080D01*
X211000Y208000D02*
Y209000D01*
X213360Y211360D01*
X192000Y188060D02*
X211470Y207530D01*
X211000Y208000D02*
X213360Y205640D01*
X204080Y262080D02*
X213360D01*
X202880Y299280D02*
Y317545D01*
X208080Y322745D02*
Y326080D01*
X202880Y317545D02*
X208080Y322745D01*
X213360Y262080D02*
Y312221D01*
X213730Y311851D01*
X25400Y94996D02*
Y101600D01*
Y94996D02*
X44116Y76280D01*
X48260D01*
X82080Y297580D02*
Y323080D01*
X89830Y301080D02*
Y321080D01*
Y301080D02*
X93830Y297080D01*
X102080D01*
X82080Y297580D02*
X90580Y289080D01*
X102080D01*
X155077D01*
X179077Y265080D02*
X186080D01*
X155077Y289080D02*
X179077Y265080D01*
X102080Y273080D02*
X109596D01*
X112776Y269900D01*
X128422D01*
X145810Y287288D01*
X213360Y114640D02*
Y205640D01*
Y114640D02*
X241300Y86700D01*
Y76200D02*
Y86700D01*
X225770Y132388D02*
X241270D01*
X225270Y131888D02*
X225770Y132388D01*
X241270Y149388D02*
X257770D01*
X258270Y148888D01*
X256580Y149388D02*
Y179079D01*
Y187420D01*
X237580Y179079D02*
Y185580D01*
X256580Y179079D02*
X258501Y181000D01*
X272000D01*
X237580Y185580D02*
X244000Y192000D01*
X252000D01*
X256580Y187420D01*
X272000Y181000D02*
Y259000D01*
X279830Y266830D01*
D34*
X244000Y164000D02*
X247080Y167080D01*
X308000Y87500D02*
X312500Y92000D01*
X308000Y73000D02*
Y87500D01*
X305000Y63000D02*
X308000D01*
X295000Y73000D02*
X305000Y63000D01*
X292000Y73000D02*
X295000D01*
X279400Y25400D02*
X292000Y38000D01*
Y63000D01*
X176161Y149000D02*
X181000D01*
X167580Y157580D02*
X176161Y149000D01*
X201700Y273080D02*
X203200Y274580D01*
X186080Y273080D02*
X201700D01*
X154940Y353060D02*
X162560Y360680D01*
X150288Y353060D02*
X154940D01*
X257870Y318830D02*
X266700Y327660D01*
X232580Y318830D02*
X257870D01*
X78080Y181080D02*
Y195080D01*
X75580Y178580D02*
X89080Y165080D01*
X75580Y178580D02*
X78080Y181080D01*
X148080Y141920D02*
X150000Y140000D01*
X148080Y141920D02*
Y153580D01*
X140000Y140000D02*
X143080Y143080D01*
Y153580D01*
X86080Y265080D02*
X102080D01*
X179030Y162080D02*
X190080D01*
X68000Y317000D02*
X70080Y314920D01*
X167580Y173080D02*
X179080D01*
X180080Y172080D01*
X173030Y168080D02*
X179030Y162080D01*
X99080Y207080D02*
X101080D01*
X162131Y173080D02*
X167580D01*
X159580Y170530D02*
X162131Y173080D01*
X159580Y163631D02*
Y170530D01*
X157530Y161580D02*
X159580Y163631D01*
X138631Y161580D02*
X157530D01*
X134030Y178080D02*
X136080Y176030D01*
X128580Y178080D02*
X134030D01*
X128580Y178080D02*
X128580Y178080D01*
X136080Y164130D02*
X138631Y161580D01*
X136080Y164130D02*
Y176030D01*
X158080Y153580D02*
Y161030D01*
X157530Y161580D02*
X158080Y161030D01*
X167580Y178080D02*
X173080D01*
X177080Y182080D01*
X180080D01*
X167580Y157580D02*
Y163080D01*
X186080Y281080D02*
X197080D01*
X204080Y288080D01*
X116080Y168080D02*
X128580D01*
X114080Y170080D02*
X116080Y168080D01*
X64080Y298580D02*
X70080Y304580D01*
Y314920D01*
X64580Y257080D02*
X102080D01*
X64080Y257580D02*
X64580Y257080D01*
X130080Y120080D02*
Y130080D01*
X120080Y120080D02*
Y135580D01*
X138080Y153580D01*
X120080Y120080D02*
X130080D01*
X167580Y168080D02*
X173030D01*
X64080Y287080D02*
Y298580D01*
Y287080D02*
X86080Y265080D01*
X167580Y183080D02*
X176580Y192080D01*
X180080D01*
X84500Y221660D02*
X99080Y207080D01*
X111080Y207080D02*
X111080Y207080D01*
X89080Y165080D02*
X108631D01*
X113631Y170080D01*
X114080D01*
X40080Y259080D02*
X62580D01*
X64080Y257580D01*
X111080Y207080D02*
X118860D01*
X140080Y228301D02*
Y243080D01*
X118860Y207080D02*
X140080Y228301D01*
X321830Y253830D02*
X322080Y254080D01*
X147000Y380680D02*
Y382540D01*
X133390Y367070D02*
X147000Y380680D01*
X133390Y367070D02*
X140080Y360380D01*
X112070Y367070D02*
X133390D01*
X140080Y327080D02*
Y360380D01*
X80080Y335080D02*
X112070Y367070D01*
X49730Y335080D02*
X80080D01*
X12700Y139700D02*
Y298050D01*
X49730Y335080D01*
X12700Y139700D02*
X25400Y127000D01*
X29000D01*
X89830Y321080D02*
X92330Y323580D01*
X102080Y281080D02*
X118970D01*
X120650Y279400D01*
X116080Y321699D02*
X131963Y305816D01*
X116080Y321699D02*
Y327080D01*
X131963Y305816D02*
X143002D01*
D35*
X151000Y98000D02*
X152980Y99980D01*
X161980D02*
X162000Y100000D01*
X150000Y53000D02*
X151000Y54000D01*
D36*
X152980Y99980D02*
X161980D01*
X140000Y130000D02*
Y140000D01*
X151000Y129000D02*
Y139000D01*
Y108000D02*
Y119000D01*
D37*
Y54000D02*
Y93472D01*
D38*
X150000Y140000D02*
X151000Y139000D01*
X140000Y140000D02*
X140000Y140000D01*
D39*
X144780Y458847D02*
X150112D01*
X147446D01*
Y450850D01*
X154110D02*
X156776D01*
X158109Y452183D01*
Y454849D01*
X156776Y456182D01*
X154110D01*
X152777Y454849D01*
Y452183D01*
X154110Y450850D01*
X160775Y448184D02*
Y456182D01*
X164774D01*
X166106Y454849D01*
Y452183D01*
X164774Y450850D01*
X160775D01*
X176770Y458847D02*
Y450850D01*
X182101D01*
X186100Y456182D02*
X188766D01*
X190099Y454849D01*
Y450850D01*
X186100D01*
X184767Y452183D01*
X186100Y453516D01*
X190099D01*
X192764Y456182D02*
Y452183D01*
X194097Y450850D01*
X198096D01*
Y449517D01*
X196763Y448184D01*
X195430D01*
X198096Y450850D02*
Y456182D01*
X204761Y450850D02*
X202095D01*
X200762Y452183D01*
Y454849D01*
X202095Y456182D01*
X204761D01*
X206094Y454849D01*
Y453516D01*
X200762D01*
X208759Y456182D02*
Y450850D01*
Y453516D01*
X210092Y454849D01*
X211425Y456182D01*
X212758D01*
D40*
X355600Y254000D02*
D03*
Y228600D02*
D03*
Y279400D02*
D03*
Y304800D02*
D03*
Y330200D02*
D03*
Y355600D02*
D03*
X25400Y177800D02*
D03*
Y203200D02*
D03*
Y152400D02*
D03*
Y127000D02*
D03*
Y101600D02*
D03*
Y76200D02*
D03*
X304800Y25400D02*
D03*
X241300Y76200D02*
D03*
X215900Y50800D02*
D03*
X241300D02*
D03*
X215900Y25400D02*
D03*
X241300D02*
D03*
X279400Y381000D02*
D03*
X254000D02*
D03*
X228600D02*
D03*
X203200D02*
D03*
X177800D02*
D03*
D41*
X150000Y53000D02*
D03*
D42*
X124600Y27600D02*
D03*
X175400D02*
D03*
X124600Y78400D02*
D03*
X175400D02*
D03*
D43*
X258064Y292354D02*
D03*
X244000Y164000D02*
D03*
X203200Y274580D02*
D03*
X119380Y302260D02*
D03*
X162560Y360680D02*
D03*
X266700Y327660D02*
D03*
X241270Y100888D02*
D03*
X117190Y195390D02*
D03*
X251460Y327660D02*
D03*
X171080Y203080D02*
D03*
X156078Y226079D02*
D03*
X120080Y221080D02*
D03*
X84000Y56000D02*
D03*
X327660Y215900D02*
D03*
X228600Y223520D02*
D03*
X37080Y295080D02*
D03*
X104080Y332330D02*
D03*
X92330Y323580D02*
D03*
X92080Y246080D02*
D03*
X180078Y219079D02*
D03*
X200080Y222080D02*
D03*
X208080Y326080D02*
D03*
X105078Y221079D02*
D03*
X189080Y244080D02*
D03*
X273000Y97000D02*
D03*
X138078Y209079D02*
D03*
X110998Y349746D02*
D03*
X127000Y349250D02*
D03*
X48000Y164000D02*
D03*
X107950Y382270D02*
D03*
X48000Y140000D02*
D03*
X120650Y279400D02*
D03*
X161036Y258826D02*
D03*
X155702Y273050D02*
D03*
X147828Y260604D02*
D03*
X143002Y305816D02*
D03*
D44*
X31750Y374650D02*
D03*
X349250Y31750D02*
D03*
X31750D02*
D03*
D45*
X213730Y311851D02*
D03*
X272000Y242824D02*
D03*
D46*
X144500Y169500D02*
D03*
X151700Y176500D02*
D03*
M02*
