%FSLAX44Y44*%
%MOMM*%
G71*
G01*
G75*
G04 Layer_Color=8421504*
%ADD10C,0.3810*%
%ADD11R,1.1000X1.9000*%
%ADD12R,0.6000X0.5000*%
%ADD13R,0.5000X0.6000*%
%ADD14R,2.4000X1.9000*%
%ADD15R,1.1000X1.0000*%
%ADD16R,0.8000X0.9000*%
%ADD17R,0.9000X0.8000*%
%ADD18O,2.1000X0.3500*%
%ADD19R,1.5000X1.5000*%
%ADD20R,0.6900X1.2000*%
%ADD21R,0.7000X0.7000*%
%ADD22O,1.5000X0.4500*%
%ADD23O,0.4500X1.5000*%
%ADD24R,1.9000X1.2000*%
%ADD25R,1.9000X1.6000*%
%ADD26R,2.0000X2.1000*%
%ADD27R,1.3500X0.4000*%
%ADD28R,0.8000X0.3000*%
%ADD29R,0.3000X0.8000*%
%ADD30R,1.6000X1.6000*%
%ADD31C,0.6020*%
%ADD32C,0.6000*%
%ADD33C,1.2600*%
%ADD34C,0.3000*%
%ADD35C,0.6010*%
%ADD36C,0.5000*%
%ADD37C,0.2540*%
%ADD38C,1.5000*%
%ADD39R,1.5000X1.5000*%
%ADD40C,2.2000*%
%ADD41C,1.0000*%
%ADD42C,1.2700*%
%ADD43C,5.0000*%
%ADD44C,0.7000*%
%ADD45C,0.2500*%
%ADD46C,0.2000*%
%ADD47C,0.0500*%
%ADD48R,0.2500X1.4000*%
D11*
X98580Y178580D02*
D03*
X75580Y141580D02*
D03*
X98580D02*
D03*
X75580Y178580D02*
D03*
D12*
X305990Y123952D02*
D03*
X295990D02*
D03*
X111080Y207080D02*
D03*
X101080D02*
D03*
X130000Y130000D02*
D03*
X140000D02*
D03*
X140000Y140000D02*
D03*
X150000D02*
D03*
X68000Y196000D02*
D03*
X78000D02*
D03*
X162000Y100000D02*
D03*
X172000D02*
D03*
X90250Y124500D02*
D03*
X80250D02*
D03*
X68000Y317000D02*
D03*
X58000D02*
D03*
D13*
X317500Y165020D02*
D03*
Y155020D02*
D03*
X114080Y170080D02*
D03*
Y160080D02*
D03*
X80080Y325080D02*
D03*
Y335080D02*
D03*
X151000Y129000D02*
D03*
Y119000D02*
D03*
X271000Y195000D02*
D03*
Y205000D02*
D03*
X271080Y171080D02*
D03*
Y181080D02*
D03*
X322080Y264080D02*
D03*
Y254080D02*
D03*
X228080Y142080D02*
D03*
Y132080D02*
D03*
X120000Y119000D02*
D03*
Y109000D02*
D03*
X130000Y119000D02*
D03*
Y109000D02*
D03*
X181000Y183000D02*
D03*
Y193000D02*
D03*
X151000Y108000D02*
D03*
Y98000D02*
D03*
X181000Y171000D02*
D03*
Y161000D02*
D03*
X192000Y171000D02*
D03*
Y161000D02*
D03*
X204080Y262080D02*
D03*
Y252080D02*
D03*
X40080Y259080D02*
D03*
Y249080D02*
D03*
X204080Y288080D02*
D03*
Y298080D02*
D03*
X114000Y343000D02*
D03*
Y353000D02*
D03*
X181000Y139000D02*
D03*
Y149000D02*
D03*
D14*
X64080Y257580D02*
D03*
D03*
Y298580D02*
D03*
D15*
X84700Y220600D02*
D03*
X67700D02*
D03*
X227500Y157000D02*
D03*
X244500D02*
D03*
D16*
X275080Y157080D02*
D03*
X261080D02*
D03*
D17*
X210000Y194000D02*
D03*
Y208000D02*
D03*
D18*
X232580Y325330D02*
D03*
Y318830D02*
D03*
Y312330D02*
D03*
Y305830D02*
D03*
Y299330D02*
D03*
Y292830D02*
D03*
Y286330D02*
D03*
Y279830D02*
D03*
Y273330D02*
D03*
Y266830D02*
D03*
Y260330D02*
D03*
Y253830D02*
D03*
Y247330D02*
D03*
Y240830D02*
D03*
X301580Y325330D02*
D03*
Y318830D02*
D03*
Y312330D02*
D03*
Y305830D02*
D03*
Y299330D02*
D03*
Y292830D02*
D03*
Y286330D02*
D03*
Y279830D02*
D03*
Y273330D02*
D03*
Y266830D02*
D03*
Y260330D02*
D03*
Y253830D02*
D03*
Y247330D02*
D03*
Y240830D02*
D03*
D19*
X71000Y381000D02*
D03*
X149000D02*
D03*
D20*
X237580Y205080D02*
D03*
X256580D02*
D03*
X237580Y179079D02*
D03*
X247080D02*
D03*
X256580D02*
D03*
D21*
X264580Y140080D02*
D03*
X253580D02*
D03*
D22*
X186080Y281080D02*
D03*
Y273080D02*
D03*
Y257080D02*
D03*
Y265080D02*
D03*
Y297080D02*
D03*
Y289080D02*
D03*
Y305080D02*
D03*
Y313080D02*
D03*
X102080D02*
D03*
Y305080D02*
D03*
Y281080D02*
D03*
Y273080D02*
D03*
Y257080D02*
D03*
Y265080D02*
D03*
Y297080D02*
D03*
Y289080D02*
D03*
D23*
X116080Y243080D02*
D03*
X124080D02*
D03*
X132080D02*
D03*
X140080D02*
D03*
X148080D02*
D03*
X156080D02*
D03*
X164080D02*
D03*
X172080D02*
D03*
X116080Y327080D02*
D03*
X124080D02*
D03*
X132080D02*
D03*
X140080D02*
D03*
X148080D02*
D03*
X156080D02*
D03*
X164080D02*
D03*
X172080D02*
D03*
D24*
X365740Y115430D02*
D03*
X365730Y132430D02*
D03*
D25*
X365740Y82930D02*
D03*
Y164930D02*
D03*
D26*
X340240Y92930D02*
D03*
X340230Y154930D02*
D03*
D27*
X339240Y110930D02*
D03*
Y117430D02*
D03*
Y123930D02*
D03*
Y130430D02*
D03*
Y136930D02*
D03*
D28*
X128580Y163080D02*
D03*
Y168080D02*
D03*
Y173080D02*
D03*
Y178080D02*
D03*
Y183080D02*
D03*
X167580D02*
D03*
Y178080D02*
D03*
Y173080D02*
D03*
Y168080D02*
D03*
Y163080D02*
D03*
X128580Y183080D02*
D03*
D29*
X138080Y192580D02*
D03*
X143080D02*
D03*
X148080D02*
D03*
X153080D02*
D03*
X158080D02*
D03*
Y153580D02*
D03*
X153080D02*
D03*
X148080D02*
D03*
X143080D02*
D03*
X138080D02*
D03*
D30*
X148080Y173080D02*
D03*
M02*
