%FSLAX44Y44*%
%MOMM*%
G71*
G01*
G75*
G04 Layer_Color=8388736*
%ADD10C,0.3810*%
%ADD11R,1.3000X1.5000*%
%ADD12R,1.1000X1.0000*%
%ADD13R,0.5000X0.6000*%
%ADD14R,0.8000X0.9000*%
%ADD15R,0.6000X0.5000*%
%ADD16R,1.0000X1.1000*%
%ADD17R,1.5000X1.5000*%
%ADD18O,0.4500X1.5000*%
%ADD19O,1.5000X0.4500*%
%ADD20R,0.8000X0.3000*%
%ADD21R,0.3000X0.8000*%
%ADD22R,1.6000X1.6000*%
%ADD23O,2.1000X0.3500*%
%ADD24R,0.6900X1.2000*%
%ADD25R,2.4000X1.9000*%
%ADD26R,1.1000X1.9000*%
%ADD27R,1.9000X1.9000*%
%ADD28R,1.9000X1.8000*%
%ADD29R,1.6000X2.1000*%
%ADD30R,1.3500X0.4000*%
%ADD31R,1.5000X1.5000*%
%ADD32C,0.5000*%
%ADD33C,0.3000*%
%ADD34C,0.2540*%
%ADD35C,0.6020*%
%ADD36C,0.6000*%
%ADD37C,1.2600*%
%ADD38C,0.6010*%
%ADD39C,0.1000*%
%ADD40C,1.5000*%
%ADD41R,2.2000X2.2000*%
%ADD42C,2.3000*%
%ADD43C,1.0000*%
%ADD44C,5.0000*%
%ADD45C,1.2700*%
%ADD46C,0.7000*%
%ADD47C,0.2500*%
%ADD48C,0.0500*%
%ADD49C,0.2000*%
%ADD50R,0.2500X1.4000*%
%ADD51R,1.5032X1.7032*%
%ADD52R,1.3032X1.2032*%
%ADD53R,0.7032X0.8032*%
%ADD54R,1.0032X1.1032*%
%ADD55R,0.8032X0.7032*%
%ADD56R,1.2032X1.3032*%
%ADD57R,1.7032X1.7032*%
%ADD58O,0.6532X1.7032*%
%ADD59O,1.7032X0.6532*%
%ADD60R,1.0032X0.5032*%
%ADD61R,0.5032X1.0032*%
%ADD62R,1.8032X1.8032*%
%ADD63O,2.3032X0.5532*%
%ADD64R,0.8932X1.4032*%
%ADD65R,2.6032X2.1032*%
%ADD66R,1.3032X2.1032*%
%ADD67R,2.1032X2.1032*%
%ADD68R,2.1032X2.0032*%
%ADD69R,1.8032X2.3032*%
%ADD70R,1.5532X0.6032*%
%ADD71R,1.7032X1.7032*%
%ADD72C,1.7032*%
%ADD73R,2.4032X2.4032*%
%ADD74C,2.5032*%
%ADD75C,1.2032*%
%ADD76C,5.2032*%
%ADD77C,1.4732*%
%ADD78C,0.9032*%
G36*
X347797Y110952D02*
X332744D01*
Y136952D01*
X347711D01*
X347797Y110952D01*
D02*
G37*
G36*
X256580Y172210D02*
X237580Y172148D01*
Y186079D01*
X256580D01*
Y172210D01*
D02*
G37*
D39*
X144780Y458847D02*
X150112D01*
X147446D01*
Y450850D01*
X154110D02*
X156776D01*
X158109Y452183D01*
Y454849D01*
X156776Y456182D01*
X154110D01*
X152777Y454849D01*
Y452183D01*
X154110Y450850D01*
X160775Y448184D02*
Y456182D01*
X164774D01*
X166106Y454849D01*
Y452183D01*
X164774Y450850D01*
X160775D01*
X182101Y457514D02*
X180768Y458847D01*
X178103D01*
X176770Y457514D01*
Y456182D01*
X178103Y454849D01*
X180768D01*
X182101Y453516D01*
Y452183D01*
X180768Y450850D01*
X178103D01*
X176770Y452183D01*
X186100Y450850D02*
X188766D01*
X190099Y452183D01*
Y454849D01*
X188766Y456182D01*
X186100D01*
X184767Y454849D01*
Y452183D01*
X186100Y450850D01*
X192764D02*
X195430D01*
X194097D01*
Y458847D01*
X192764D01*
X204761D02*
Y450850D01*
X200762D01*
X199429Y452183D01*
Y454849D01*
X200762Y456182D01*
X204761D01*
X211425Y450850D02*
X208759D01*
X207426Y452183D01*
Y454849D01*
X208759Y456182D01*
X211425D01*
X212758Y454849D01*
Y453516D01*
X207426D01*
X215424Y456182D02*
Y450850D01*
Y453516D01*
X216757Y454849D01*
X218090Y456182D01*
X219423D01*
X144780Y458847D02*
X150112D01*
X147446D01*
Y450850D01*
X154110D02*
X156776D01*
X158109Y452183D01*
Y454849D01*
X156776Y456182D01*
X154110D01*
X152777Y454849D01*
Y452183D01*
X154110Y450850D01*
X160775Y448184D02*
Y456182D01*
X164774D01*
X166106Y454849D01*
Y452183D01*
X164774Y450850D01*
X160775D01*
X182101Y457514D02*
X180768Y458847D01*
X178103D01*
X176770Y457514D01*
Y456182D01*
X178103Y454849D01*
X180768D01*
X182101Y453516D01*
Y452183D01*
X180768Y450850D01*
X178103D01*
X176770Y452183D01*
X186100Y450850D02*
X188766D01*
X190099Y452183D01*
Y454849D01*
X188766Y456182D01*
X186100D01*
X184767Y454849D01*
Y452183D01*
X186100Y450850D01*
X192764D02*
X195430D01*
X194097D01*
Y458847D01*
X192764D01*
X204761D02*
Y450850D01*
X200762D01*
X199429Y452183D01*
Y454849D01*
X200762Y456182D01*
X204761D01*
X211425Y450850D02*
X208759D01*
X207426Y452183D01*
Y454849D01*
X208759Y456182D01*
X211425D01*
X212758Y454849D01*
Y453516D01*
X207426D01*
X215424Y456182D02*
Y450850D01*
Y453516D01*
X216757Y454849D01*
X218090Y456182D01*
X219423D01*
D51*
X263500Y128000D02*
D03*
X288500D02*
D03*
D52*
X295500Y92000D02*
D03*
X312500D02*
D03*
X84500Y220000D02*
D03*
X67500D02*
D03*
D53*
X308000Y63000D02*
D03*
Y73000D02*
D03*
X292000Y63000D02*
D03*
Y73000D02*
D03*
X204080Y298080D02*
D03*
Y288080D02*
D03*
X40080Y249080D02*
D03*
Y259080D02*
D03*
X204080Y252080D02*
D03*
Y262080D02*
D03*
X192000Y161000D02*
D03*
Y171000D02*
D03*
X181000Y161000D02*
D03*
Y171000D02*
D03*
X151000Y98000D02*
D03*
Y108000D02*
D03*
X181000Y193000D02*
D03*
Y183000D02*
D03*
X130000Y109000D02*
D03*
Y119000D02*
D03*
X120000Y109000D02*
D03*
Y119000D02*
D03*
X225270Y141888D02*
D03*
Y131888D02*
D03*
X322080Y254080D02*
D03*
Y264080D02*
D03*
X272000Y181000D02*
D03*
Y171000D02*
D03*
X151000Y119000D02*
D03*
Y129000D02*
D03*
X80080Y335080D02*
D03*
Y325080D02*
D03*
X181000Y139000D02*
D03*
Y149000D02*
D03*
X114080Y160080D02*
D03*
Y170080D02*
D03*
X48260Y86280D02*
D03*
Y76280D02*
D03*
D54*
X272270Y148888D02*
D03*
X258270D02*
D03*
X197000Y208000D02*
D03*
X211000D02*
D03*
D55*
X150288Y353060D02*
D03*
X140288D02*
D03*
X58000Y317000D02*
D03*
X68000D02*
D03*
X80250Y124500D02*
D03*
X90250D02*
D03*
X172000Y100000D02*
D03*
X162000D02*
D03*
X78000Y196000D02*
D03*
X68000D02*
D03*
X150000Y140000D02*
D03*
X140000D02*
D03*
X140000Y130000D02*
D03*
X130000D02*
D03*
X101080Y207080D02*
D03*
X111080D02*
D03*
D56*
X241270Y132388D02*
D03*
Y149388D02*
D03*
D57*
X147000Y382540D02*
D03*
X69000D02*
D03*
X304800Y381000D02*
D03*
X279400Y25400D02*
D03*
D58*
X172080Y327080D02*
D03*
X164080D02*
D03*
X156080D02*
D03*
X148080D02*
D03*
X140080D02*
D03*
X132080D02*
D03*
X124080D02*
D03*
X116080D02*
D03*
X172080Y243080D02*
D03*
X164080D02*
D03*
X156080D02*
D03*
X148080D02*
D03*
X140080D02*
D03*
X132080D02*
D03*
X124080D02*
D03*
X116080D02*
D03*
D59*
X102080Y289080D02*
D03*
Y297080D02*
D03*
Y265080D02*
D03*
Y257080D02*
D03*
Y273080D02*
D03*
Y281080D02*
D03*
Y305080D02*
D03*
Y313080D02*
D03*
X186080D02*
D03*
Y305080D02*
D03*
Y289080D02*
D03*
Y297080D02*
D03*
Y265080D02*
D03*
Y257080D02*
D03*
Y273080D02*
D03*
Y281080D02*
D03*
D60*
X128580Y163080D02*
D03*
Y168080D02*
D03*
Y173080D02*
D03*
Y178080D02*
D03*
Y183080D02*
D03*
X167580D02*
D03*
Y178080D02*
D03*
Y173080D02*
D03*
Y168080D02*
D03*
Y163080D02*
D03*
X128580Y183080D02*
D03*
D61*
X138080Y192580D02*
D03*
X143080D02*
D03*
X148080D02*
D03*
X153080D02*
D03*
X158080D02*
D03*
Y153580D02*
D03*
X153080D02*
D03*
X148080D02*
D03*
X143080D02*
D03*
X138080D02*
D03*
D62*
X148080Y173080D02*
D03*
D63*
X301580Y240830D02*
D03*
Y247330D02*
D03*
Y253830D02*
D03*
Y260330D02*
D03*
Y266830D02*
D03*
Y273330D02*
D03*
Y279830D02*
D03*
Y286330D02*
D03*
Y292830D02*
D03*
Y299330D02*
D03*
Y305830D02*
D03*
Y312330D02*
D03*
Y318830D02*
D03*
Y325330D02*
D03*
X232580Y240830D02*
D03*
Y247330D02*
D03*
Y253830D02*
D03*
Y260330D02*
D03*
Y266830D02*
D03*
Y273330D02*
D03*
Y279830D02*
D03*
Y286330D02*
D03*
Y292830D02*
D03*
Y299330D02*
D03*
Y305830D02*
D03*
Y312330D02*
D03*
Y318830D02*
D03*
Y325330D02*
D03*
D64*
X237580Y205080D02*
D03*
X256580D02*
D03*
X237580Y179079D02*
D03*
X247080D02*
D03*
X256580D02*
D03*
D65*
X64080Y298580D02*
D03*
Y257580D02*
D03*
D03*
D66*
X98580Y178580D02*
D03*
X75580Y141580D02*
D03*
X98580D02*
D03*
X75580Y178580D02*
D03*
D67*
X366754Y111952D02*
D03*
X366744Y135952D02*
D03*
D68*
X366754Y83952D02*
D03*
Y163952D02*
D03*
D69*
X341444Y92952D02*
D03*
Y154952D02*
D03*
D70*
X340254Y110952D02*
D03*
Y117452D02*
D03*
Y123952D02*
D03*
Y130452D02*
D03*
Y136952D02*
D03*
D71*
X84000Y95000D02*
D03*
Y17000D02*
D03*
X215900Y76200D02*
D03*
X25400Y228600D02*
D03*
X355600Y203200D02*
D03*
D72*
X279400Y381000D02*
D03*
X254000D02*
D03*
X228600D02*
D03*
X203200D02*
D03*
X177800D02*
D03*
X241300Y76200D02*
D03*
X215900Y50800D02*
D03*
X241300D02*
D03*
X215900Y25400D02*
D03*
X241300D02*
D03*
X304800D02*
D03*
X25400Y76200D02*
D03*
Y101600D02*
D03*
Y127000D02*
D03*
Y152400D02*
D03*
Y203200D02*
D03*
Y177800D02*
D03*
X355600Y355600D02*
D03*
Y330200D02*
D03*
Y304800D02*
D03*
Y279400D02*
D03*
Y228600D02*
D03*
Y254000D02*
D03*
D73*
X175400Y78400D02*
D03*
X124600D02*
D03*
X175400Y27600D02*
D03*
X124600D02*
D03*
D74*
X150000Y53000D02*
D03*
D75*
X244000Y164000D02*
D03*
X203200Y274580D02*
D03*
X119380Y302260D02*
D03*
X162560Y360680D02*
D03*
X266700Y327660D02*
D03*
X241270Y100888D02*
D03*
X117190Y195390D02*
D03*
X251460Y327660D02*
D03*
X171080Y203080D02*
D03*
X156078Y226079D02*
D03*
X120080Y221080D02*
D03*
X84000Y56000D02*
D03*
X327660Y215900D02*
D03*
X228600Y223520D02*
D03*
X37080Y295080D02*
D03*
X104080Y332330D02*
D03*
X92330Y323580D02*
D03*
X92080Y246080D02*
D03*
X180078Y219079D02*
D03*
X200080Y222080D02*
D03*
X208080Y326080D02*
D03*
X105078Y221079D02*
D03*
X189080Y244080D02*
D03*
X273000Y97000D02*
D03*
X138078Y209079D02*
D03*
X251968Y299212D02*
D03*
X110998Y349746D02*
D03*
X127000Y349250D02*
D03*
X48000Y164000D02*
D03*
X107950Y382270D02*
D03*
X48000Y140000D02*
D03*
X120650Y279400D02*
D03*
X161036Y258826D02*
D03*
X155702Y273050D02*
D03*
X147828Y260604D02*
D03*
X143002Y305816D02*
D03*
D76*
X31750Y374650D02*
D03*
X349250Y31750D02*
D03*
X31750D02*
D03*
D77*
X213730Y311851D02*
D03*
X272000Y242824D02*
D03*
D78*
X144500Y169500D02*
D03*
X151700Y176500D02*
D03*
M02*
