%FSLAX44Y44*%
%MOMM*%
G71*
G01*
G75*
G04 Layer_Color=16711935*
%ADD10C,0.3810*%
%ADD11R,1.1000X1.9000*%
%ADD12R,0.6000X0.5000*%
%ADD13R,0.5000X0.6000*%
%ADD14R,2.4000X1.9000*%
%ADD15R,1.1000X1.0000*%
%ADD16R,0.8000X0.9000*%
%ADD17R,0.9000X0.8000*%
%ADD18O,2.1000X0.3500*%
%ADD19R,1.5000X1.5000*%
%ADD20R,0.6900X1.2000*%
%ADD21R,0.7000X0.7000*%
%ADD22O,1.5000X0.4500*%
%ADD23O,0.4500X1.5000*%
%ADD24R,1.9000X1.2000*%
%ADD25R,1.9000X1.6000*%
%ADD26R,2.0000X2.1000*%
%ADD27R,1.3500X0.4000*%
%ADD28R,0.8000X0.3000*%
%ADD29R,0.3000X0.8000*%
%ADD30R,1.6000X1.6000*%
%ADD31C,0.6020*%
%ADD32C,0.6000*%
%ADD33C,1.2600*%
%ADD34C,0.3000*%
%ADD35C,0.6010*%
%ADD36C,0.5000*%
%ADD37C,0.2540*%
%ADD38C,1.5000*%
%ADD39R,1.5000X1.5000*%
%ADD40C,2.2000*%
%ADD41C,1.0000*%
%ADD42C,1.2700*%
%ADD43C,5.0000*%
%ADD44C,0.7000*%
%ADD45C,0.2500*%
%ADD46C,0.2000*%
%ADD47C,0.0500*%
%ADD48R,0.2500X1.4000*%
%ADD49R,1.3032X2.1032*%
%ADD50R,0.8032X0.7032*%
%ADD51R,0.7032X0.8032*%
%ADD52R,2.6032X2.1032*%
%ADD53R,1.3032X1.2032*%
%ADD54R,1.0032X1.1032*%
%ADD55R,1.1032X1.0032*%
%ADD56O,2.3032X0.5532*%
%ADD57R,1.7032X1.7032*%
%ADD58R,0.8932X1.4032*%
%ADD59R,0.9032X0.9032*%
%ADD60O,1.7032X0.6532*%
%ADD61O,0.6532X1.7032*%
%ADD62R,2.1032X1.4032*%
%ADD63R,2.1032X1.8032*%
%ADD64R,2.2032X2.3032*%
%ADD65R,1.5532X0.6032*%
%ADD66R,1.0032X0.5032*%
%ADD67R,0.5032X1.0032*%
%ADD68R,1.8032X1.8032*%
%ADD69C,1.7032*%
%ADD70R,1.7032X1.7032*%
%ADD71C,2.4032*%
%ADD72C,1.2032*%
%ADD73C,1.4732*%
%ADD74C,5.2032*%
%ADD75C,0.9032*%
D57*
X279400Y25400D02*
D03*
X304800Y381000D02*
D03*
D69*
X241300Y25400D02*
D03*
X215900D02*
D03*
X241300Y50800D02*
D03*
X215900D02*
D03*
X241300Y76200D02*
D03*
X355600Y228600D02*
D03*
Y254000D02*
D03*
Y279400D02*
D03*
Y304800D02*
D03*
Y330200D02*
D03*
Y355600D02*
D03*
Y381000D02*
D03*
X25400Y203200D02*
D03*
Y177800D02*
D03*
Y152400D02*
D03*
Y127000D02*
D03*
Y101600D02*
D03*
X304800Y25400D02*
D03*
X279400Y381000D02*
D03*
X254000D02*
D03*
X228600D02*
D03*
X203200D02*
D03*
X177800D02*
D03*
D70*
X215900Y76200D02*
D03*
X355600Y203200D02*
D03*
X25400Y228600D02*
D03*
D71*
X175400Y78400D02*
D03*
X124600D02*
D03*
X175400Y27600D02*
D03*
X124600D02*
D03*
X150000Y53000D02*
D03*
D72*
X117190Y195390D02*
D03*
X251460Y299720D02*
D03*
Y327660D02*
D03*
X147320Y309880D02*
D03*
X129540Y342900D02*
D03*
X171080Y203080D02*
D03*
X140078Y279079D02*
D03*
X152080Y270080D02*
D03*
X147078Y257079D02*
D03*
X156078Y226079D02*
D03*
X120080Y221080D02*
D03*
X118080Y300080D02*
D03*
X204080Y274580D02*
D03*
X137080Y300080D02*
D03*
X170080Y289080D02*
D03*
X71080Y102080D02*
D03*
X80080Y45080D02*
D03*
X332000Y213000D02*
D03*
X230250Y227500D02*
D03*
X37080Y295080D02*
D03*
X104080Y332330D02*
D03*
X92330Y323580D02*
D03*
X92080Y246080D02*
D03*
X180078Y219079D02*
D03*
X200080Y222080D02*
D03*
X208080Y326080D02*
D03*
X105078Y221079D02*
D03*
X189080Y244080D02*
D03*
X282110Y136010D02*
D03*
X138078Y209079D02*
D03*
D73*
X270500Y224750D02*
D03*
X213730Y311851D02*
D03*
D74*
X31750Y374650D02*
D03*
X349250Y31750D02*
D03*
X31750D02*
D03*
D75*
X144500Y169500D02*
D03*
X151700Y176500D02*
D03*
M02*
