%FSLAX44Y44*%
%MOMM*%
G71*
G01*
G75*
G04 Layer_Physical_Order=2*
G04 Layer_Color=16711680*
%ADD10C,0.3810*%
%ADD11R,1.1000X1.9000*%
%ADD12R,0.6000X0.5000*%
%ADD13R,0.5000X0.6000*%
%ADD14R,2.4000X1.9000*%
%ADD15R,1.1000X1.0000*%
%ADD16R,0.8000X0.9000*%
%ADD17R,0.9000X0.8000*%
%ADD18O,2.1000X0.3500*%
%ADD19R,1.5000X1.5000*%
%ADD20R,0.6900X1.2000*%
%ADD21R,0.7000X0.7000*%
%ADD22O,1.5000X0.4500*%
%ADD23O,0.4500X1.5000*%
%ADD24R,1.9000X1.2000*%
%ADD25R,1.9000X1.6000*%
%ADD26R,2.0000X2.1000*%
%ADD27R,1.3500X0.4000*%
%ADD28R,0.8000X0.3000*%
%ADD29R,0.3000X0.8000*%
%ADD30R,1.6000X1.6000*%
%ADD31C,0.6020*%
%ADD32C,0.6000*%
%ADD33C,1.2600*%
%ADD34C,0.3000*%
%ADD35C,0.6010*%
%ADD36C,0.5000*%
%ADD37C,0.2540*%
%ADD38C,1.5000*%
%ADD39R,1.5000X1.5000*%
%ADD40C,2.2000*%
%ADD41C,1.0000*%
%ADD42C,1.2700*%
%ADD43C,5.0000*%
%ADD44C,0.7000*%
G36*
X381275Y152021D02*
X381254Y152000D01*
X381000Y151746D01*
X366754D01*
Y143754D01*
X381000D01*
Y104754D01*
X380492Y104246D01*
X366754D01*
Y96254D01*
X381000D01*
Y623D01*
X380102Y-275D01*
X-194Y-194D01*
Y405931D01*
X275Y406400D01*
X381275D01*
Y152021D01*
D02*
G37*
%LPC*%
G36*
X280840Y134740D02*
X274672D01*
X274764Y134042D01*
X275524Y132207D01*
X276732Y130632D01*
X278307Y129424D01*
X280142Y128664D01*
X280840Y128572D01*
Y134740D01*
D02*
G37*
G36*
X72350Y109518D02*
Y103350D01*
X78518D01*
X78426Y104049D01*
X77666Y105883D01*
X76458Y107458D01*
X74883Y108666D01*
X73049Y109426D01*
X72350Y109518D01*
D02*
G37*
G36*
X289548Y134740D02*
X283380D01*
Y128572D01*
X284078Y128664D01*
X285912Y129424D01*
X287488Y130632D01*
X288696Y132207D01*
X289456Y134042D01*
X289548Y134740D01*
D02*
G37*
G36*
X280840Y143448D02*
X280142Y143356D01*
X278307Y142596D01*
X276732Y141388D01*
X275524Y139812D01*
X274764Y137978D01*
X274672Y137280D01*
X280840D01*
Y143448D01*
D02*
G37*
G36*
X176670Y91890D02*
Y79670D01*
X188890D01*
X188591Y81935D01*
X187227Y85228D01*
X185057Y88057D01*
X182228Y90227D01*
X178935Y91592D01*
X176670Y91890D01*
D02*
G37*
G36*
X174130D02*
X171865Y91592D01*
X168572Y90227D01*
X165743Y88057D01*
X163573Y85228D01*
X162208Y81935D01*
X161910Y79670D01*
X174130D01*
Y91890D01*
D02*
G37*
G36*
X69810Y100810D02*
X63642D01*
X63734Y100112D01*
X64494Y98278D01*
X65703Y96703D01*
X67278Y95494D01*
X69112Y94734D01*
X69810Y94642D01*
Y100810D01*
D02*
G37*
G36*
Y109518D02*
X69112Y109426D01*
X67278Y108666D01*
X65703Y107458D01*
X64494Y105883D01*
X63734Y104049D01*
X63642Y103350D01*
X69810D01*
Y109518D01*
D02*
G37*
G36*
X78518Y100810D02*
X72350D01*
Y94642D01*
X73049Y94734D01*
X74883Y95494D01*
X76458Y96703D01*
X77666Y98278D01*
X78426Y100112D01*
X78518Y100810D01*
D02*
G37*
G36*
X283380Y143448D02*
Y137280D01*
X289548D01*
X289456Y137978D01*
X288696Y139812D01*
X287488Y141388D01*
X285912Y142596D01*
X284078Y143356D01*
X283380Y143448D01*
D02*
G37*
G36*
X123330Y26330D02*
X111110D01*
X111409Y24065D01*
X112773Y20772D01*
X114943Y17943D01*
X117772Y15773D01*
X121065Y14409D01*
X123330Y14110D01*
Y26330D01*
D02*
G37*
G36*
X138090D02*
X125870D01*
Y14110D01*
X128135Y14409D01*
X131428Y15773D01*
X134257Y17943D01*
X136427Y20772D01*
X137792Y24065D01*
X138090Y26330D01*
D02*
G37*
G36*
X333270Y220438D02*
Y214270D01*
X339438D01*
X339346Y214968D01*
X338586Y216803D01*
X337378Y218378D01*
X335802Y219586D01*
X333968Y220346D01*
X333270Y220438D01*
D02*
G37*
G36*
X330730D02*
X330032Y220346D01*
X328198Y219586D01*
X326622Y218378D01*
X325414Y216803D01*
X324654Y214968D01*
X324562Y214270D01*
X330730D01*
Y220438D01*
D02*
G37*
G36*
X270500Y233172D02*
X268320Y232885D01*
X266289Y232044D01*
X264545Y230705D01*
X263206Y228961D01*
X262365Y226930D01*
X262078Y224750D01*
X262365Y222570D01*
X263206Y220539D01*
X264545Y218795D01*
X266289Y217456D01*
X268320Y216615D01*
X270500Y216328D01*
X272680Y216615D01*
X274711Y217456D01*
X275189Y217823D01*
X293056Y199956D01*
X294544Y198961D01*
X296300Y198612D01*
X346100D01*
Y193700D01*
X365100D01*
Y212700D01*
X346100D01*
Y207788D01*
X338941D01*
X338379Y208927D01*
X338586Y209198D01*
X339346Y211032D01*
X339438Y211730D01*
X324562D01*
X324654Y211032D01*
X325414Y209198D01*
X325621Y208927D01*
X325060Y207788D01*
X298200D01*
X278335Y227653D01*
X277794Y228961D01*
X276455Y230705D01*
X274711Y232044D01*
X272680Y232885D01*
X270500Y233172D01*
D02*
G37*
G36*
X188890Y26330D02*
X176670D01*
Y14110D01*
X178935Y14409D01*
X182228Y15773D01*
X185057Y17943D01*
X187227Y20772D01*
X188591Y24065D01*
X188890Y26330D01*
D02*
G37*
G36*
X240030Y24130D02*
X231341D01*
X231518Y22779D01*
X232530Y20337D01*
X234139Y18239D01*
X236237Y16630D01*
X238679Y15618D01*
X240030Y15441D01*
Y24130D01*
D02*
G37*
G36*
X25400Y212782D02*
X22920Y212456D01*
X20609Y211498D01*
X18625Y209975D01*
X17102Y207991D01*
X16144Y205680D01*
X15818Y203200D01*
X16144Y200720D01*
X17102Y198409D01*
X18625Y196425D01*
X20609Y194902D01*
X22920Y193944D01*
X25400Y193618D01*
X27880Y193944D01*
X30191Y194902D01*
X32175Y196425D01*
X33698Y198409D01*
X34655Y200720D01*
X34982Y203200D01*
X34655Y205680D01*
X33698Y207991D01*
X32175Y209975D01*
X30191Y211498D01*
X27880Y212456D01*
X25400Y212782D01*
D02*
G37*
G36*
X174130Y26330D02*
X161910D01*
X162208Y24065D01*
X163573Y20772D01*
X165743Y17943D01*
X168572Y15773D01*
X171865Y14409D01*
X174130Y14110D01*
Y26330D01*
D02*
G37*
G36*
X125870Y91890D02*
Y79670D01*
X138090D01*
X137792Y81935D01*
X136427Y85228D01*
X134257Y88057D01*
X131428Y90227D01*
X128135Y91592D01*
X125870Y91890D01*
D02*
G37*
G36*
X174130Y41090D02*
X171865Y40792D01*
X168572Y39427D01*
X165743Y37257D01*
X163573Y34428D01*
X162208Y31135D01*
X161910Y28870D01*
X174130D01*
Y41090D01*
D02*
G37*
G36*
X125870D02*
Y28870D01*
X138090D01*
X137792Y31135D01*
X136427Y34428D01*
X134257Y37257D01*
X131428Y39427D01*
X128135Y40792D01*
X125870Y41090D01*
D02*
G37*
G36*
X176670D02*
Y28870D01*
X188890D01*
X188591Y31135D01*
X187227Y34428D01*
X185057Y37257D01*
X182228Y39427D01*
X178935Y40792D01*
X176670Y41090D01*
D02*
G37*
G36*
X87518Y43810D02*
X81350D01*
Y37642D01*
X82049Y37734D01*
X83883Y38494D01*
X85458Y39703D01*
X86666Y41278D01*
X87426Y43112D01*
X87518Y43810D01*
D02*
G37*
G36*
X78810D02*
X72642D01*
X72734Y43112D01*
X73494Y41278D01*
X74703Y39703D01*
X76278Y38494D01*
X78112Y37734D01*
X78810Y37642D01*
Y43810D01*
D02*
G37*
G36*
X288900Y34900D02*
X269900D01*
Y15900D01*
X288900D01*
Y34900D01*
D02*
G37*
G36*
X314759Y24130D02*
X306070D01*
Y15441D01*
X307421Y15618D01*
X309863Y16630D01*
X311961Y18239D01*
X313570Y20337D01*
X314582Y22779D01*
X314759Y24130D01*
D02*
G37*
G36*
X303530Y35359D02*
X302179Y35182D01*
X299737Y34170D01*
X297639Y32561D01*
X296030Y30463D01*
X295018Y28021D01*
X294841Y26670D01*
X303530D01*
Y35359D01*
D02*
G37*
G36*
X123330Y41090D02*
X121065Y40792D01*
X117772Y39427D01*
X114943Y37257D01*
X112773Y34428D01*
X111409Y31135D01*
X111110Y28870D01*
X123330D01*
Y41090D01*
D02*
G37*
G36*
X306070Y35359D02*
Y26670D01*
X314759D01*
X314582Y28021D01*
X313570Y30463D01*
X311961Y32561D01*
X309863Y34170D01*
X307421Y35182D01*
X306070Y35359D01*
D02*
G37*
G36*
X174130Y77130D02*
X161910D01*
X162208Y74865D01*
X163573Y71572D01*
X165743Y68743D01*
X168572Y66573D01*
X171865Y65209D01*
X174130Y64910D01*
Y77130D01*
D02*
G37*
G36*
X138090D02*
X125870D01*
Y64910D01*
X128135Y65209D01*
X131428Y66573D01*
X134257Y68743D01*
X136427Y71572D01*
X137792Y74865D01*
X138090Y77130D01*
D02*
G37*
G36*
X188890D02*
X176670D01*
Y64910D01*
X178935Y65209D01*
X182228Y66573D01*
X185057Y68743D01*
X187227Y71572D01*
X188591Y74865D01*
X188890Y77130D01*
D02*
G37*
G36*
X123330Y91890D02*
X121065Y91592D01*
X117772Y90227D01*
X114943Y88057D01*
X112773Y85228D01*
X111409Y81935D01*
X111110Y79670D01*
X123330D01*
Y91890D01*
D02*
G37*
G36*
X251259Y24130D02*
X242570D01*
Y15441D01*
X243921Y15618D01*
X246363Y16630D01*
X248461Y18239D01*
X250070Y20337D01*
X251082Y22779D01*
X251259Y24130D01*
D02*
G37*
G36*
X303530D02*
X294841D01*
X295018Y22779D01*
X296030Y20337D01*
X297639Y18239D01*
X299737Y16630D01*
X302179Y15618D01*
X303530Y15441D01*
Y24130D01*
D02*
G37*
G36*
X150000Y66112D02*
X146606Y65665D01*
X143444Y64356D01*
X140728Y62272D01*
X138645Y59556D01*
X137335Y56394D01*
X136888Y53000D01*
X137335Y49606D01*
X138645Y46444D01*
X140728Y43728D01*
X143444Y41645D01*
X146606Y40335D01*
X150000Y39888D01*
X153394Y40335D01*
X156556Y41645D01*
X159272Y43728D01*
X161355Y46444D01*
X162665Y49606D01*
X163112Y53000D01*
X162665Y56394D01*
X161355Y59556D01*
X159272Y62272D01*
X156556Y64356D01*
X153394Y65665D01*
X150000Y66112D01*
D02*
G37*
G36*
X78810Y52518D02*
X78112Y52426D01*
X76278Y51666D01*
X74703Y50458D01*
X73494Y48883D01*
X72734Y47049D01*
X72642Y46350D01*
X78810D01*
Y52518D01*
D02*
G37*
G36*
X123330Y77130D02*
X111110D01*
X111409Y74865D01*
X112773Y71572D01*
X114943Y68743D01*
X117772Y66573D01*
X121065Y65209D01*
X123330Y64910D01*
Y77130D01*
D02*
G37*
G36*
X81350Y52518D02*
Y46350D01*
X87518D01*
X87426Y47049D01*
X86666Y48883D01*
X85458Y50458D01*
X83883Y51666D01*
X82049Y52426D01*
X81350Y52518D01*
D02*
G37*
G36*
X349250Y58833D02*
X345013Y58500D01*
X340881Y57508D01*
X336954Y55882D01*
X333331Y53661D01*
X330099Y50901D01*
X327339Y47669D01*
X325118Y44046D01*
X323492Y40119D01*
X322500Y35987D01*
X322166Y31750D01*
X322500Y27513D01*
X323492Y23381D01*
X325118Y19454D01*
X327339Y15831D01*
X330099Y12599D01*
X333331Y9839D01*
X336954Y7618D01*
X340881Y5992D01*
X345013Y5000D01*
X349250Y4667D01*
X353487Y5000D01*
X357619Y5992D01*
X361546Y7618D01*
X365169Y9839D01*
X368401Y12599D01*
X371161Y15831D01*
X373382Y19454D01*
X375008Y23381D01*
X376000Y27513D01*
X376334Y31750D01*
X376000Y35987D01*
X375008Y40119D01*
X373382Y44046D01*
X371161Y47669D01*
X368401Y50901D01*
X365169Y53661D01*
X361546Y55882D01*
X357619Y57508D01*
X353487Y58500D01*
X349250Y58833D01*
D02*
G37*
G36*
X91060Y331018D02*
X90362Y330926D01*
X88528Y330166D01*
X86953Y328958D01*
X85744Y327383D01*
X84984Y325549D01*
X84892Y324850D01*
X91060D01*
Y331018D01*
D02*
G37*
G36*
X314300Y390500D02*
X295300D01*
Y371500D01*
X300412D01*
Y364901D01*
X257624Y322113D01*
X256669Y322950D01*
X257575Y324130D01*
X258280Y325833D01*
X258520Y327660D01*
X258280Y329487D01*
X257575Y331190D01*
X256452Y332652D01*
X254990Y333774D01*
X253287Y334480D01*
X251460Y334720D01*
X249633Y334480D01*
X249436Y334398D01*
X238577Y345257D01*
X237496Y345980D01*
X236220Y346234D01*
X135736D01*
X135654Y346430D01*
X134532Y347892D01*
X133070Y349015D01*
X131367Y349720D01*
X129540Y349960D01*
X127713Y349720D01*
X126010Y349015D01*
X124548Y347892D01*
X123426Y346430D01*
X122720Y344727D01*
X122480Y342900D01*
X122720Y341073D01*
X123426Y339370D01*
X124548Y337908D01*
X126010Y336786D01*
X127713Y336080D01*
X129540Y335840D01*
X131367Y336080D01*
X133070Y336786D01*
X134532Y337908D01*
X135654Y339370D01*
X135736Y339566D01*
X234839D01*
X244722Y329683D01*
X244640Y329487D01*
X244400Y327660D01*
X244640Y325833D01*
X245345Y324130D01*
X246468Y322668D01*
X247930Y321545D01*
X249633Y320840D01*
X251460Y320600D01*
X253287Y320840D01*
X254990Y321545D01*
X256170Y322451D01*
X256170Y322451D01*
D01*
X257007Y321496D01*
X252679Y317167D01*
X220176D01*
X219686Y317806D01*
X217941Y319144D01*
X215910Y319986D01*
X214442Y320179D01*
X213956Y321352D01*
X214666Y322278D01*
X215426Y324112D01*
X215518Y324810D01*
X200642D01*
X200734Y324112D01*
X201494Y322278D01*
X202703Y320703D01*
X204278Y319494D01*
X206112Y318734D01*
X207010Y318616D01*
X207496Y317443D01*
X206437Y316062D01*
X205595Y314030D01*
X205308Y311851D01*
X205595Y309671D01*
X206437Y307640D01*
X207775Y305895D01*
X209519Y304557D01*
X210140Y304300D01*
X209892Y303054D01*
X196961D01*
X187778Y312237D01*
X186696Y312960D01*
X185420Y313214D01*
X153516D01*
X153434Y313410D01*
X152312Y314872D01*
X150850Y315994D01*
X149147Y316700D01*
X147320Y316940D01*
X145493Y316700D01*
X143790Y315994D01*
X142328Y314872D01*
X141806Y314193D01*
X140569Y314481D01*
X140377Y315446D01*
X139604Y316604D01*
X109604Y346604D01*
X108446Y347377D01*
X107080Y347649D01*
X54080D01*
X52715Y347377D01*
X51557Y346604D01*
X15557Y310604D01*
X14783Y309446D01*
X14512Y308080D01*
Y249080D01*
X14783Y247715D01*
X15557Y246557D01*
X21831Y240282D01*
Y238100D01*
X15900D01*
Y219100D01*
X34900D01*
Y238100D01*
X28969D01*
Y241761D01*
X28697Y243126D01*
X27923Y244284D01*
X21649Y250558D01*
Y306602D01*
X55558Y340512D01*
X102886D01*
X102969Y339244D01*
X102253Y339150D01*
X100550Y338445D01*
X99088Y337323D01*
X97966Y335860D01*
X97261Y334158D01*
X97020Y332330D01*
X97133Y331470D01*
X96133Y330166D01*
X94299Y330926D01*
X93600Y331018D01*
Y324850D01*
X99768D01*
X99699Y325378D01*
X100706Y326151D01*
X102253Y325510D01*
X104080Y325270D01*
X105908Y325510D01*
X106104Y325592D01*
X125016Y306679D01*
Y304515D01*
X123814Y304107D01*
X123073Y305073D01*
X121610Y306195D01*
X119908Y306900D01*
X118080Y307141D01*
X116253Y306900D01*
X114550Y306195D01*
X113088Y305073D01*
X111966Y303610D01*
X111260Y301908D01*
X111020Y300080D01*
X111260Y298253D01*
X111966Y296550D01*
X113088Y295088D01*
X114550Y293966D01*
X115746Y293470D01*
Y249461D01*
X86723Y220438D01*
X86000Y219356D01*
X85746Y218080D01*
Y181461D01*
X76619Y172334D01*
X35581D01*
X34052Y173863D01*
X34655Y175320D01*
X34982Y177800D01*
X34655Y180280D01*
X33698Y182591D01*
X32175Y184575D01*
X30191Y186098D01*
X27880Y187055D01*
X25400Y187382D01*
X22920Y187055D01*
X20609Y186098D01*
X18625Y184575D01*
X17102Y182591D01*
X16144Y180280D01*
X15818Y177800D01*
X16144Y175320D01*
X17102Y173009D01*
X18625Y171024D01*
X20609Y169502D01*
X22920Y168545D01*
X25400Y168218D01*
X27880Y168545D01*
X29337Y169148D01*
X31843Y166642D01*
X32924Y165920D01*
X34200Y165666D01*
X78000D01*
X79276Y165920D01*
X80358Y166642D01*
X91438Y177723D01*
X91531Y177862D01*
X92746Y177493D01*
Y175461D01*
X73019Y155734D01*
X34302D01*
X33698Y157191D01*
X32175Y159175D01*
X30191Y160698D01*
X27880Y161656D01*
X25400Y161982D01*
X22920Y161656D01*
X20609Y160698D01*
X18625Y159175D01*
X17102Y157191D01*
X16144Y154880D01*
X15818Y152400D01*
X16144Y149920D01*
X17102Y147609D01*
X18625Y145625D01*
X20609Y144102D01*
X22920Y143145D01*
X25400Y142818D01*
X27880Y143145D01*
X30191Y144102D01*
X32175Y145625D01*
X33698Y147609D01*
X34302Y149066D01*
X74400D01*
X75676Y149320D01*
X76757Y150042D01*
X98438Y171723D01*
X98871Y172371D01*
X99160Y172804D01*
X99414Y174080D01*
Y210700D01*
X103055Y214341D01*
X103251Y214259D01*
X105078Y214019D01*
X106834Y214250D01*
X107307Y213291D01*
X107386Y213101D01*
X101723Y207438D01*
X101000Y206356D01*
X100746Y205080D01*
Y170461D01*
X76619Y146334D01*
X41400D01*
X40124Y146080D01*
X39042Y145358D01*
X29337Y135652D01*
X27880Y136256D01*
X25400Y136582D01*
X22920Y136256D01*
X20609Y135298D01*
X18625Y133775D01*
X17102Y131791D01*
X16144Y129480D01*
X15818Y127000D01*
X16144Y124520D01*
X17102Y122209D01*
X18625Y120225D01*
X20609Y118702D01*
X22920Y117745D01*
X25400Y117418D01*
X27880Y117745D01*
X30191Y118702D01*
X32175Y120225D01*
X33698Y122209D01*
X34655Y124520D01*
X34982Y127000D01*
X34655Y129480D01*
X34052Y130937D01*
X42781Y139666D01*
X78000D01*
X79276Y139920D01*
X80358Y140642D01*
X106438Y166723D01*
X107161Y167804D01*
X107414Y169080D01*
Y203699D01*
X118057Y214342D01*
X118253Y214261D01*
X120080Y214020D01*
X121908Y214261D01*
X123610Y214966D01*
X123877Y215170D01*
X125016Y214609D01*
Y207931D01*
X119213Y202129D01*
X119017Y202210D01*
X117190Y202450D01*
X115363Y202210D01*
X113660Y201504D01*
X112198Y200382D01*
X111075Y198920D01*
X110370Y197217D01*
X110130Y195390D01*
X110370Y193563D01*
X111075Y191860D01*
X112198Y190398D01*
X113660Y189275D01*
X115363Y188570D01*
X117190Y188330D01*
X119017Y188570D01*
X120720Y189275D01*
X122183Y190398D01*
X123305Y191860D01*
X124010Y193563D01*
X124250Y195390D01*
X124010Y197217D01*
X123929Y197414D01*
X128335Y201820D01*
X129508Y201334D01*
Y159258D01*
X129762Y157982D01*
X130485Y156901D01*
X178563Y108822D01*
X178077Y107649D01*
X112080D01*
X110715Y107377D01*
X109557Y106604D01*
X87802Y84849D01*
X47198D01*
X34149Y97898D01*
X34655Y99120D01*
X34982Y101600D01*
X34655Y104080D01*
X33698Y106391D01*
X32175Y108376D01*
X30191Y109898D01*
X27880Y110856D01*
X25400Y111182D01*
X22920Y110856D01*
X20609Y109898D01*
X18625Y108376D01*
X17102Y106391D01*
X16144Y104080D01*
X15818Y101600D01*
X16144Y99120D01*
X17102Y96809D01*
X18625Y94824D01*
X20609Y93302D01*
X22920Y92345D01*
X25400Y92018D01*
X27880Y92345D01*
X29102Y92851D01*
X43197Y78757D01*
X44354Y77983D01*
X45720Y77711D01*
X89280D01*
X90646Y77983D01*
X91803Y78757D01*
X113558Y100512D01*
X179796D01*
X199631Y80676D01*
Y38100D01*
X199903Y36734D01*
X200677Y35577D01*
X207151Y29102D01*
X206644Y27880D01*
X206318Y25400D01*
X206644Y22920D01*
X207602Y20609D01*
X209125Y18625D01*
X211109Y17102D01*
X213420Y16144D01*
X215900Y15818D01*
X218380Y16144D01*
X220691Y17102D01*
X222675Y18625D01*
X224198Y20609D01*
X225156Y22920D01*
X225482Y25400D01*
X225156Y27880D01*
X224198Y30191D01*
X222675Y32175D01*
X220691Y33698D01*
X218380Y34655D01*
X215900Y34982D01*
X213420Y34655D01*
X212198Y34149D01*
X206769Y39578D01*
Y45119D01*
X207971Y45528D01*
X209125Y44025D01*
X211109Y42502D01*
X213420Y41544D01*
X215900Y41218D01*
X217956Y41489D01*
X223702Y35742D01*
X224784Y35020D01*
X226060Y34766D01*
X235038D01*
X235446Y33563D01*
X234139Y32561D01*
X232530Y30463D01*
X231518Y28021D01*
X231341Y26670D01*
X251259D01*
X251082Y28021D01*
X250070Y30463D01*
X248461Y32561D01*
X247154Y33563D01*
X247562Y34766D01*
X248920D01*
X250196Y35020D01*
X251278Y35742D01*
X258897Y43362D01*
X259620Y44444D01*
X259874Y45720D01*
Y86360D01*
X259620Y87636D01*
X258897Y88717D01*
X248954Y98661D01*
Y146656D01*
X248701Y147932D01*
X247978Y149014D01*
X193414Y203577D01*
Y216406D01*
X194617Y216814D01*
X194703Y216703D01*
X196278Y215494D01*
X198112Y214734D01*
X198810Y214642D01*
Y222080D01*
Y229518D01*
X198112Y229426D01*
X196278Y228666D01*
X194703Y227458D01*
X194617Y227346D01*
X193414Y227754D01*
Y238583D01*
X194073Y239088D01*
X195195Y240550D01*
X195900Y242253D01*
X196141Y244080D01*
X195900Y245908D01*
X195195Y247610D01*
X194073Y249073D01*
X192610Y250195D01*
X190908Y250900D01*
X189080Y251141D01*
X187253Y250900D01*
X185550Y250195D01*
X184088Y249073D01*
X182966Y247610D01*
X182260Y245908D01*
X182020Y244080D01*
X182099Y243477D01*
X180960Y242915D01*
X157817Y266058D01*
X158195Y266550D01*
X158900Y268253D01*
X159141Y270080D01*
X158900Y271908D01*
X158195Y273610D01*
X157073Y275073D01*
X155611Y276195D01*
X153908Y276900D01*
X152080Y277141D01*
X150253Y276900D01*
X148550Y276195D01*
X147433Y275338D01*
X146426Y276111D01*
X146898Y277252D01*
X147139Y279079D01*
X146898Y280906D01*
X146193Y282609D01*
X145071Y284071D01*
X143609Y285194D01*
X141906Y285899D01*
X140078Y286139D01*
X138251Y285899D01*
X136548Y285194D01*
X135086Y284071D01*
X133964Y282609D01*
X133259Y280906D01*
X133018Y279079D01*
X133259Y277252D01*
X133298Y277156D01*
X132542Y276136D01*
X131684Y276221D01*
Y293962D01*
X132823Y294523D01*
X133550Y293966D01*
X135253Y293260D01*
X137080Y293020D01*
X138908Y293260D01*
X140611Y293966D01*
X142073Y295088D01*
X143195Y296550D01*
X143900Y298253D01*
X144141Y300080D01*
X143900Y301908D01*
X143629Y302562D01*
X144527Y303460D01*
X145493Y303060D01*
X147320Y302820D01*
X149147Y303060D01*
X150850Y303766D01*
X152312Y304888D01*
X153434Y306350D01*
X153516Y306546D01*
X184039D01*
X193222Y297362D01*
X194304Y296640D01*
X195580Y296386D01*
X245264D01*
X245345Y296190D01*
X246468Y294728D01*
X247930Y293605D01*
X249633Y292900D01*
X251460Y292660D01*
X253287Y292900D01*
X254990Y293605D01*
X256452Y294728D01*
X257575Y296190D01*
X258280Y297893D01*
X258520Y299720D01*
X258280Y301547D01*
X257575Y303250D01*
X256452Y304712D01*
X254990Y305835D01*
X253287Y306540D01*
X251892Y306723D01*
X251975Y307991D01*
X254579D01*
X256335Y308340D01*
X257823Y309335D01*
X308244Y359756D01*
X309239Y361244D01*
X309588Y363000D01*
Y371500D01*
X314300D01*
Y390500D01*
D02*
G37*
G36*
X206810Y333518D02*
X206112Y333426D01*
X204278Y332666D01*
X202703Y331458D01*
X201494Y329883D01*
X200734Y328049D01*
X200642Y327350D01*
X206810D01*
Y333518D01*
D02*
G37*
G36*
X355600Y365182D02*
X353120Y364855D01*
X350809Y363898D01*
X348825Y362375D01*
X347302Y360391D01*
X346344Y358080D01*
X346018Y355600D01*
X346344Y353120D01*
X347302Y350809D01*
X348825Y348825D01*
X350809Y347302D01*
X353120Y346344D01*
X355600Y346018D01*
X358080Y346344D01*
X360391Y347302D01*
X362375Y348825D01*
X363898Y350809D01*
X364855Y353120D01*
X365182Y355600D01*
X364855Y358080D01*
X363898Y360391D01*
X362375Y362375D01*
X360391Y363898D01*
X358080Y364855D01*
X355600Y365182D01*
D02*
G37*
G36*
X209350Y333518D02*
Y327350D01*
X215518D01*
X215426Y328049D01*
X214666Y329883D01*
X213458Y331458D01*
X211883Y332666D01*
X210049Y333426D01*
X209350Y333518D01*
D02*
G37*
G36*
X38350Y302518D02*
Y296350D01*
X44518D01*
X44426Y297049D01*
X43666Y298883D01*
X42458Y300458D01*
X40883Y301666D01*
X39049Y302426D01*
X38350Y302518D01*
D02*
G37*
G36*
X35810D02*
X35112Y302426D01*
X33278Y301666D01*
X31703Y300458D01*
X30494Y298883D01*
X29734Y297049D01*
X29642Y296350D01*
X35810D01*
Y302518D01*
D02*
G37*
G36*
X91060Y322310D02*
X84892D01*
X84984Y321612D01*
X85744Y319778D01*
X86953Y318203D01*
X88528Y316994D01*
X90362Y316234D01*
X91060Y316142D01*
Y322310D01*
D02*
G37*
G36*
X355600Y339782D02*
X353120Y339455D01*
X350809Y338498D01*
X348825Y336975D01*
X347302Y334991D01*
X346344Y332680D01*
X346018Y330200D01*
X346344Y327720D01*
X347302Y325409D01*
X348825Y323425D01*
X350809Y321902D01*
X353120Y320945D01*
X355600Y320618D01*
X358080Y320945D01*
X360391Y321902D01*
X362375Y323425D01*
X363898Y325409D01*
X364855Y327720D01*
X365182Y330200D01*
X364855Y332680D01*
X363898Y334991D01*
X362375Y336975D01*
X360391Y338498D01*
X358080Y339455D01*
X355600Y339782D01*
D02*
G37*
G36*
X99768Y322310D02*
X93600D01*
Y316142D01*
X94299Y316234D01*
X96133Y316994D01*
X97708Y318203D01*
X98916Y319778D01*
X99676Y321612D01*
X99768Y322310D01*
D02*
G37*
G36*
X254000Y390582D02*
X251520Y390256D01*
X249209Y389298D01*
X247225Y387775D01*
X245702Y385791D01*
X244744Y383480D01*
X244418Y381000D01*
X244744Y378520D01*
X245702Y376209D01*
X247225Y374225D01*
X249209Y372702D01*
X251520Y371744D01*
X254000Y371418D01*
X256480Y371744D01*
X258791Y372702D01*
X260776Y374225D01*
X262298Y376209D01*
X263256Y378520D01*
X263582Y381000D01*
X263256Y383480D01*
X262298Y385791D01*
X260776Y387775D01*
X258791Y389298D01*
X256480Y390256D01*
X254000Y390582D01*
D02*
G37*
G36*
X228600D02*
X226120Y390256D01*
X223809Y389298D01*
X221824Y387775D01*
X220302Y385791D01*
X219345Y383480D01*
X219018Y381000D01*
X219345Y378520D01*
X220302Y376209D01*
X221824Y374225D01*
X223809Y372702D01*
X226120Y371744D01*
X228600Y371418D01*
X231080Y371744D01*
X233391Y372702D01*
X235375Y374225D01*
X236898Y376209D01*
X237855Y378520D01*
X238182Y381000D01*
X237855Y383480D01*
X236898Y385791D01*
X235375Y387775D01*
X233391Y389298D01*
X231080Y390256D01*
X228600Y390582D01*
D02*
G37*
G36*
X355600D02*
X353120Y390256D01*
X350809Y389298D01*
X348825Y387775D01*
X347302Y385791D01*
X346344Y383480D01*
X346018Y381000D01*
X346344Y378520D01*
X347302Y376209D01*
X348825Y374225D01*
X350809Y372702D01*
X353120Y371744D01*
X355600Y371418D01*
X358080Y371744D01*
X360391Y372702D01*
X362375Y374225D01*
X363898Y376209D01*
X364855Y378520D01*
X365182Y381000D01*
X364855Y383480D01*
X363898Y385791D01*
X362375Y387775D01*
X360391Y389298D01*
X358080Y390256D01*
X355600Y390582D01*
D02*
G37*
G36*
X280670Y390959D02*
Y382270D01*
X289359D01*
X289182Y383621D01*
X288170Y386063D01*
X286561Y388161D01*
X284463Y389770D01*
X282021Y390782D01*
X280670Y390959D01*
D02*
G37*
G36*
X278130D02*
X276779Y390782D01*
X274337Y389770D01*
X272239Y388161D01*
X270630Y386063D01*
X269618Y383621D01*
X269441Y382270D01*
X278130D01*
Y390959D01*
D02*
G37*
G36*
Y379730D02*
X269441D01*
X269618Y378379D01*
X270630Y375937D01*
X272239Y373839D01*
X274337Y372230D01*
X276779Y371218D01*
X278130Y371041D01*
Y379730D01*
D02*
G37*
G36*
X31750Y401734D02*
X27513Y401400D01*
X23381Y400408D01*
X19454Y398782D01*
X15831Y396561D01*
X12599Y393801D01*
X9839Y390569D01*
X7618Y386946D01*
X5992Y383019D01*
X5000Y378887D01*
X4667Y374650D01*
X5000Y370413D01*
X5992Y366281D01*
X7618Y362354D01*
X9839Y358731D01*
X12599Y355499D01*
X15831Y352739D01*
X19454Y350518D01*
X23381Y348892D01*
X27513Y347900D01*
X31750Y347566D01*
X35987Y347900D01*
X40119Y348892D01*
X44046Y350518D01*
X47669Y352739D01*
X50901Y355499D01*
X53661Y358731D01*
X55882Y362354D01*
X57508Y366281D01*
X58500Y370413D01*
X58833Y374650D01*
X58500Y378887D01*
X57508Y383019D01*
X55882Y386946D01*
X53661Y390569D01*
X50901Y393801D01*
X47669Y396561D01*
X44046Y398782D01*
X40119Y400408D01*
X35987Y401400D01*
X31750Y401734D01*
D02*
G37*
G36*
X289359Y379730D02*
X280670D01*
Y371041D01*
X282021Y371218D01*
X284463Y372230D01*
X286561Y373839D01*
X288170Y375937D01*
X289182Y378379D01*
X289359Y379730D01*
D02*
G37*
G36*
X203200Y390582D02*
X200720Y390256D01*
X198409Y389298D01*
X196425Y387775D01*
X194902Y385791D01*
X193944Y383480D01*
X193618Y381000D01*
X193944Y378520D01*
X194902Y376209D01*
X196425Y374225D01*
X198409Y372702D01*
X200720Y371744D01*
X203200Y371418D01*
X205680Y371744D01*
X207991Y372702D01*
X209975Y374225D01*
X211498Y376209D01*
X212456Y378520D01*
X212782Y381000D01*
X212456Y383480D01*
X211498Y385791D01*
X209975Y387775D01*
X207991Y389298D01*
X205680Y390256D01*
X203200Y390582D01*
D02*
G37*
G36*
X177800D02*
X175320Y390256D01*
X173009Y389298D01*
X171024Y387775D01*
X169502Y385791D01*
X168545Y383480D01*
X168218Y381000D01*
X168545Y378520D01*
X169502Y376209D01*
X171024Y374225D01*
X173009Y372702D01*
X175320Y371744D01*
X177800Y371418D01*
X180280Y371744D01*
X182591Y372702D01*
X184575Y374225D01*
X186098Y376209D01*
X187055Y378520D01*
X187382Y381000D01*
X187055Y383480D01*
X186098Y385791D01*
X184575Y387775D01*
X182591Y389298D01*
X180280Y390256D01*
X177800Y390582D01*
D02*
G37*
G36*
X201350Y229518D02*
Y223350D01*
X207518D01*
X207426Y224049D01*
X206666Y225883D01*
X205458Y227458D01*
X203883Y228666D01*
X202049Y229426D01*
X201350Y229518D01*
D02*
G37*
G36*
X237688Y226230D02*
X231520D01*
Y220062D01*
X232218Y220154D01*
X234053Y220914D01*
X235628Y222122D01*
X236836Y223697D01*
X237596Y225532D01*
X237688Y226230D01*
D02*
G37*
G36*
X228980Y234938D02*
X228282Y234846D01*
X226448Y234086D01*
X224872Y232878D01*
X223664Y231303D01*
X222904Y229468D01*
X222812Y228770D01*
X228980D01*
Y234938D01*
D02*
G37*
G36*
X354330Y238559D02*
X352979Y238382D01*
X350537Y237370D01*
X348439Y235761D01*
X346830Y233663D01*
X345818Y231221D01*
X345641Y229870D01*
X354330D01*
Y238559D01*
D02*
G37*
G36*
X231520Y234938D02*
Y228770D01*
X237688D01*
X237596Y229468D01*
X236836Y231303D01*
X235628Y232878D01*
X234053Y234086D01*
X232218Y234846D01*
X231520Y234938D01*
D02*
G37*
G36*
X354330Y227330D02*
X345641D01*
X345818Y225979D01*
X346830Y223537D01*
X348439Y221439D01*
X350537Y219830D01*
X352979Y218818D01*
X354330Y218641D01*
Y227330D01*
D02*
G37*
G36*
X207518Y220810D02*
X201350D01*
Y214642D01*
X202049Y214734D01*
X203883Y215494D01*
X205458Y216703D01*
X206666Y218278D01*
X207426Y220112D01*
X207518Y220810D01*
D02*
G37*
G36*
X365559Y227330D02*
X356870D01*
Y218641D01*
X358221Y218818D01*
X360663Y219830D01*
X362761Y221439D01*
X364370Y223537D01*
X365382Y225979D01*
X365559Y227330D01*
D02*
G37*
G36*
X228980Y226230D02*
X222812D01*
X222904Y225532D01*
X223664Y223697D01*
X224872Y222122D01*
X226448Y220914D01*
X228282Y220154D01*
X228980Y220062D01*
Y226230D01*
D02*
G37*
G36*
X31750Y58833D02*
X27513Y58500D01*
X23381Y57508D01*
X19454Y55882D01*
X15831Y53661D01*
X12599Y50901D01*
X9839Y47669D01*
X7618Y44046D01*
X5992Y40119D01*
X5000Y35987D01*
X4667Y31750D01*
X5000Y27513D01*
X5992Y23381D01*
X7618Y19454D01*
X9839Y15831D01*
X12599Y12599D01*
X15831Y9839D01*
X19454Y7618D01*
X23381Y5992D01*
X27513Y5000D01*
X31750Y4667D01*
X35987Y5000D01*
X40119Y5992D01*
X44046Y7618D01*
X47669Y9839D01*
X50901Y12599D01*
X53661Y15831D01*
X55882Y19454D01*
X57508Y23381D01*
X58500Y27513D01*
X58833Y31750D01*
X58500Y35987D01*
X57508Y40119D01*
X55882Y44046D01*
X53661Y47669D01*
X50901Y50901D01*
X47669Y53661D01*
X44046Y55882D01*
X40119Y57508D01*
X35987Y58500D01*
X31750Y58833D01*
D02*
G37*
G36*
X170080Y296141D02*
X168253Y295900D01*
X166550Y295195D01*
X165088Y294073D01*
X163966Y292610D01*
X163260Y290908D01*
X163020Y289080D01*
X163260Y287253D01*
X163966Y285550D01*
X165088Y284088D01*
X166550Y282966D01*
X168253Y282260D01*
X170080Y282020D01*
X171908Y282260D01*
X173610Y282966D01*
X175073Y284088D01*
X176195Y285550D01*
X176900Y287253D01*
X176965Y287746D01*
X233699D01*
X244403Y277043D01*
X245485Y276320D01*
X246761Y276066D01*
X346698D01*
X347302Y274609D01*
X348825Y272624D01*
X350809Y271102D01*
X353120Y270145D01*
X355600Y269818D01*
X358080Y270145D01*
X360391Y271102D01*
X362375Y272624D01*
X363898Y274609D01*
X364855Y276920D01*
X365182Y279400D01*
X364855Y281880D01*
X363898Y284191D01*
X362375Y286175D01*
X360391Y287698D01*
X358080Y288655D01*
X355600Y288982D01*
X353120Y288655D01*
X350809Y287698D01*
X348825Y286175D01*
X347302Y284191D01*
X346698Y282734D01*
X248141D01*
X237438Y293438D01*
X236356Y294160D01*
X235080Y294414D01*
X174627D01*
X173610Y295195D01*
X171908Y295900D01*
X170080Y296141D01*
D02*
G37*
G36*
X93350Y253518D02*
Y247350D01*
X99518D01*
X99426Y248049D01*
X98666Y249883D01*
X97458Y251458D01*
X95883Y252666D01*
X94049Y253426D01*
X93350Y253518D01*
D02*
G37*
G36*
X35810Y293810D02*
X29642D01*
X29734Y293112D01*
X30494Y291278D01*
X31703Y289703D01*
X33278Y288494D01*
X35112Y287734D01*
X35810Y287642D01*
Y293810D01*
D02*
G37*
G36*
X355600Y314382D02*
X353120Y314056D01*
X350809Y313098D01*
X348825Y311575D01*
X347302Y309591D01*
X346344Y307280D01*
X346018Y304800D01*
X346344Y302320D01*
X347302Y300009D01*
X348825Y298025D01*
X350809Y296502D01*
X353120Y295544D01*
X355600Y295218D01*
X358080Y295544D01*
X360391Y296502D01*
X362375Y298025D01*
X363898Y300009D01*
X364855Y302320D01*
X365182Y304800D01*
X364855Y307280D01*
X363898Y309591D01*
X362375Y311575D01*
X360391Y313098D01*
X358080Y314056D01*
X355600Y314382D01*
D02*
G37*
G36*
X44518Y293810D02*
X38350D01*
Y287642D01*
X39049Y287734D01*
X40883Y288494D01*
X42458Y289703D01*
X43666Y291278D01*
X44426Y293112D01*
X44518Y293810D01*
D02*
G37*
G36*
X90810Y244810D02*
X84642D01*
X84734Y244112D01*
X85494Y242278D01*
X86703Y240703D01*
X88278Y239494D01*
X90112Y238734D01*
X90810Y238642D01*
Y244810D01*
D02*
G37*
G36*
X356870Y238559D02*
Y229870D01*
X365559D01*
X365382Y231221D01*
X364370Y233663D01*
X362761Y235761D01*
X360663Y237370D01*
X358221Y238382D01*
X356870Y238559D01*
D02*
G37*
G36*
X99518Y244810D02*
X93350D01*
Y238642D01*
X94049Y238734D01*
X95883Y239494D01*
X97458Y240703D01*
X98666Y242278D01*
X99426Y244112D01*
X99518Y244810D01*
D02*
G37*
G36*
X90810Y253518D02*
X90112Y253426D01*
X88278Y252666D01*
X86703Y251458D01*
X85494Y249883D01*
X84734Y248049D01*
X84642Y247350D01*
X90810D01*
Y253518D01*
D02*
G37*
G36*
X204080Y281641D02*
X202253Y281400D01*
X200550Y280695D01*
X199088Y279573D01*
X197966Y278110D01*
X197260Y276408D01*
X197020Y274580D01*
X197260Y272753D01*
X197966Y271050D01*
X199088Y269588D01*
X200550Y268466D01*
X202253Y267760D01*
X204080Y267520D01*
X205860Y267754D01*
X222137Y251477D01*
X223295Y250703D01*
X224660Y250431D01*
X225840Y250666D01*
X346698D01*
X347302Y249209D01*
X348825Y247225D01*
X350809Y245702D01*
X353120Y244744D01*
X355600Y244418D01*
X358080Y244744D01*
X360391Y245702D01*
X362375Y247225D01*
X363898Y249209D01*
X364855Y251520D01*
X365182Y254000D01*
X364855Y256480D01*
X363898Y258791D01*
X362375Y260776D01*
X360391Y262298D01*
X358080Y263256D01*
X355600Y263582D01*
X353120Y263256D01*
X350809Y262298D01*
X348825Y260776D01*
X347302Y258791D01*
X346698Y257334D01*
X226373D01*
X210906Y272801D01*
X211141Y274580D01*
X210900Y276408D01*
X210195Y278110D01*
X209073Y279573D01*
X207610Y280695D01*
X205908Y281400D01*
X204080Y281641D01*
D02*
G37*
%LPD*%
G36*
X140964Y253549D02*
X142086Y252087D01*
X143548Y250965D01*
X143744Y250883D01*
Y214991D01*
X142605Y214429D01*
X141609Y215194D01*
X139906Y215899D01*
X139414Y215964D01*
Y254035D01*
X140660Y254283D01*
X140964Y253549D01*
D02*
G37*
G36*
X155723Y200723D02*
X156804Y200000D01*
X158080Y199746D01*
X164884D01*
X164966Y199550D01*
X166088Y198088D01*
X167550Y196966D01*
X169253Y196261D01*
X171080Y196020D01*
X172908Y196261D01*
X174610Y196966D01*
X176073Y198088D01*
X177195Y199550D01*
X177900Y201253D01*
X177944Y201586D01*
X179147Y201994D01*
X237746Y143395D01*
Y95361D01*
X228783Y86397D01*
X228340Y85735D01*
X226573Y83968D01*
X225400Y84454D01*
Y85700D01*
X211115D01*
X136176Y160639D01*
Y201306D01*
X137131Y202143D01*
X138078Y202019D01*
X139906Y202259D01*
X141609Y202965D01*
X143071Y204087D01*
X144193Y205549D01*
X144898Y207252D01*
X145139Y209079D01*
X145059Y209686D01*
X146198Y210247D01*
X155723Y200723D01*
D02*
G37*
G36*
X152548Y219965D02*
X154251Y219259D01*
X156078Y219019D01*
X157906Y219259D01*
X159609Y219965D01*
X160496Y220645D01*
X169995Y211147D01*
X169586Y209944D01*
X169253Y209900D01*
X167550Y209195D01*
X166088Y208073D01*
X164966Y206611D01*
X164884Y206414D01*
X159461D01*
X150413Y215463D01*
Y220168D01*
X151552Y220729D01*
X152548Y219965D01*
D02*
G37*
G36*
X176744Y237701D02*
Y225275D01*
X176548Y225194D01*
X175086Y224072D01*
X173964Y222609D01*
X173259Y220907D01*
X173028Y219154D01*
X171825Y218746D01*
X162934Y227638D01*
X162898Y227906D01*
X162193Y229609D01*
X161071Y231071D01*
X159609Y232194D01*
X157906Y232899D01*
X156078Y233139D01*
X154251Y232899D01*
X152548Y232194D01*
X151552Y231429D01*
X150413Y231991D01*
Y250883D01*
X150609Y250965D01*
X152071Y252087D01*
X153193Y253549D01*
X153898Y255252D01*
X154139Y257079D01*
X153907Y258837D01*
X154829Y259292D01*
X155058Y259387D01*
X176744Y237701D01*
D02*
G37*
G36*
X225266Y63500D02*
X225520Y62224D01*
X226243Y61143D01*
X232648Y54737D01*
X232045Y53280D01*
X231718Y50800D01*
X232045Y48320D01*
X233002Y46009D01*
X234525Y44025D01*
X236333Y42637D01*
X235925Y41434D01*
X227441D01*
X223620Y45255D01*
X224198Y46009D01*
X225156Y48320D01*
X225482Y50800D01*
X225156Y53280D01*
X224198Y55591D01*
X222675Y57575D01*
X220691Y59098D01*
X218380Y60055D01*
X215900Y60382D01*
X213420Y60055D01*
X211109Y59098D01*
X209125Y57575D01*
X207971Y56072D01*
X206769Y56481D01*
Y66700D01*
X225266D01*
Y63500D01*
D02*
G37*
G36*
X253206Y84979D02*
Y47101D01*
X247744Y41639D01*
X246507Y41928D01*
X246267Y42637D01*
X248075Y44025D01*
X249598Y46009D01*
X250555Y48320D01*
X250882Y50800D01*
X250555Y53280D01*
X249598Y55591D01*
X248075Y57575D01*
X246091Y59098D01*
X243780Y60055D01*
X241300Y60382D01*
X238820Y60055D01*
X237363Y59452D01*
X231934Y64881D01*
Y70825D01*
X233137Y71233D01*
X234525Y69425D01*
X236509Y67902D01*
X238820Y66944D01*
X241300Y66618D01*
X243780Y66944D01*
X246091Y67902D01*
X248075Y69425D01*
X249598Y71409D01*
X250555Y73720D01*
X250882Y76200D01*
X250555Y78680D01*
X249598Y80991D01*
X248075Y82975D01*
X246091Y84498D01*
X243780Y85456D01*
X241300Y85782D01*
X238995Y85478D01*
X238433Y86617D01*
X243438Y91622D01*
X244133Y92663D01*
X245397Y92788D01*
X253206Y84979D01*
D02*
G37*
G36*
X125016Y295645D02*
Y227552D01*
X123877Y226990D01*
X123610Y227195D01*
X121908Y227900D01*
X120080Y228141D01*
X118253Y227900D01*
X116550Y227195D01*
X115088Y226073D01*
X113966Y224610D01*
X113260Y222908D01*
X113214Y222557D01*
X111944D01*
X111898Y222906D01*
X111193Y224609D01*
X110071Y226072D01*
X108609Y227194D01*
X106906Y227899D01*
X105420Y228095D01*
X105012Y229297D01*
X121438Y245723D01*
X122161Y246804D01*
X122414Y248080D01*
Y294583D01*
X123073Y295088D01*
X123814Y296053D01*
X125016Y295645D01*
D02*
G37*
%LPC*%
G36*
X143230Y168230D02*
X138594D01*
X138810Y167143D01*
X140145Y165145D01*
X142143Y163810D01*
X143230Y163594D01*
Y168230D01*
D02*
G37*
G36*
X150430Y182406D02*
X149343Y182190D01*
X147345Y180855D01*
X146011Y178857D01*
X145542Y176500D01*
X144667Y175625D01*
X144500Y175658D01*
X142143Y175189D01*
X140145Y173855D01*
X138810Y171857D01*
X138594Y170770D01*
X144500D01*
Y169500D01*
X145770D01*
Y163594D01*
X146857Y163810D01*
X148855Y165145D01*
X150190Y167143D01*
X150658Y169500D01*
X151533Y170375D01*
X151700Y170342D01*
X154057Y170811D01*
X156055Y172145D01*
X157390Y174143D01*
X157606Y175230D01*
X151700D01*
Y176500D01*
X150430D01*
Y182406D01*
D02*
G37*
G36*
X152970D02*
Y177770D01*
X157606D01*
X157390Y178857D01*
X156055Y180855D01*
X154057Y182190D01*
X152970Y182406D01*
D02*
G37*
%LPD*%
D19*
X279400Y25400D02*
D03*
X304800Y381000D02*
D03*
D34*
X25400Y228600D02*
Y241761D01*
Y101600D02*
X45720Y81280D01*
X89280D01*
X112080Y104080D01*
X203200Y38100D02*
X215900Y25400D01*
X204080Y274580D02*
X224660Y254000D01*
X18080Y249080D02*
X25400Y241761D01*
X137080Y300080D02*
Y314080D01*
X107080Y344080D02*
X137080Y314080D01*
X54080Y344080D02*
X107080D01*
X18080Y308080D02*
X54080Y344080D01*
X18080Y249080D02*
Y308080D01*
X112080Y104080D02*
X181274D01*
X203200Y82154D01*
Y38100D02*
Y82154D01*
D36*
X270500Y224750D02*
X274750D01*
X296300Y203200D01*
X355600D01*
X213730Y311851D02*
X214459Y312579D01*
X254579D01*
X305000Y363000D01*
Y380800D01*
X304800Y381000D02*
X305000Y380800D01*
D37*
X128350Y206550D02*
Y308060D01*
X117190Y195390D02*
X128350Y206550D01*
X236220Y342900D02*
X251460Y327660D01*
X129540Y342900D02*
X236220D01*
X195580Y299720D02*
X251460D01*
X185420Y309880D02*
X195580Y299720D01*
X147320Y309880D02*
X185420D01*
X159777Y226079D02*
X241080Y144776D01*
X156078Y226079D02*
X159777D01*
X158080Y203080D02*
X171080D01*
X147078Y214082D02*
X158080Y203080D01*
X25400Y152400D02*
X74400D01*
X228600Y81280D02*
X231140Y83820D01*
X228600Y63500D02*
Y81280D01*
Y63500D02*
X241300Y50800D01*
X231140Y83820D02*
Y84040D01*
X241080Y93980D01*
X215900Y48260D02*
Y50800D01*
Y48260D02*
X226060Y38100D01*
X248920D01*
X256540Y45720D01*
Y86360D01*
X245620Y97280D02*
X256540Y86360D01*
X245620Y97280D02*
Y146656D01*
X246761Y279400D02*
X360830D01*
X235080Y291080D02*
X246761Y279400D01*
X224660Y254000D02*
X355600D01*
X74400Y152400D02*
X96080Y174080D01*
X147078Y214082D02*
Y257079D01*
X152080Y267080D02*
Y270080D01*
X170080Y289080D02*
X172080Y291080D01*
X235080D01*
X136080Y211077D02*
Y275081D01*
X140078Y279079D01*
X136080Y211077D02*
X138078Y209079D01*
X118080Y300080D02*
X119080Y299080D01*
Y248080D02*
Y299080D01*
X96080Y212081D02*
X105078Y221079D01*
X180078Y219079D02*
Y239082D01*
X152080Y267080D02*
X180078Y239082D01*
X189080Y244080D02*
X190080Y243080D01*
Y202196D02*
Y243080D01*
X96080Y174080D02*
Y212081D01*
X241080Y93980D02*
Y144776D01*
X190080Y202196D02*
X245620Y146656D01*
X104080Y205080D02*
X120080Y221080D01*
X89080Y218080D02*
X119080Y248080D01*
X104080Y169080D02*
Y205080D01*
X25400Y127000D02*
X41400Y143000D01*
X78000D01*
X104080Y169080D01*
X25400Y177800D02*
X34200Y169000D01*
X78000D01*
X89080Y180080D01*
Y218080D01*
X104080Y332330D02*
X128350Y308060D01*
X132842Y203843D02*
X138078Y209079D01*
X132842Y159258D02*
Y203843D01*
Y159258D02*
X215900Y76200D01*
D38*
X241300Y25400D02*
D03*
X215900D02*
D03*
X241300Y50800D02*
D03*
X215900D02*
D03*
X241300Y76200D02*
D03*
X355600Y228600D02*
D03*
Y254000D02*
D03*
Y279400D02*
D03*
Y304800D02*
D03*
Y330200D02*
D03*
Y355600D02*
D03*
Y381000D02*
D03*
X25400Y203200D02*
D03*
Y177800D02*
D03*
Y152400D02*
D03*
Y127000D02*
D03*
Y101600D02*
D03*
X304800Y25400D02*
D03*
X279400Y381000D02*
D03*
X254000D02*
D03*
X228600D02*
D03*
X203200D02*
D03*
X177800D02*
D03*
D39*
X215900Y76200D02*
D03*
X355600Y203200D02*
D03*
X25400Y228600D02*
D03*
D40*
X175400Y78400D02*
D03*
X124600D02*
D03*
X175400Y27600D02*
D03*
X124600D02*
D03*
X150000Y53000D02*
D03*
D41*
X117190Y195390D02*
D03*
X251460Y299720D02*
D03*
Y327660D02*
D03*
X147320Y309880D02*
D03*
X129540Y342900D02*
D03*
X171080Y203080D02*
D03*
X140078Y279079D02*
D03*
X152080Y270080D02*
D03*
X147078Y257079D02*
D03*
X156078Y226079D02*
D03*
X120080Y221080D02*
D03*
X118080Y300080D02*
D03*
X204080Y274580D02*
D03*
X137080Y300080D02*
D03*
X170080Y289080D02*
D03*
X71080Y102080D02*
D03*
X80080Y45080D02*
D03*
X332000Y213000D02*
D03*
X230250Y227500D02*
D03*
X37080Y295080D02*
D03*
X104080Y332330D02*
D03*
X92330Y323580D02*
D03*
X92080Y246080D02*
D03*
X180078Y219079D02*
D03*
X200080Y222080D02*
D03*
X208080Y326080D02*
D03*
X105078Y221079D02*
D03*
X189080Y244080D02*
D03*
X282110Y136010D02*
D03*
X138078Y209079D02*
D03*
D42*
X270500Y224750D02*
D03*
X213730Y311851D02*
D03*
D43*
X31750Y374650D02*
D03*
X349250Y31750D02*
D03*
X31750D02*
D03*
D44*
X144500Y169500D02*
D03*
X151700Y176500D02*
D03*
M02*
