%FSLAX44Y44*%
%MOMM*%
G71*
G01*
G75*
G04 Layer_Color=65535*
%ADD10C,0.3810*%
%ADD11R,1.1000X1.9000*%
%ADD12R,0.6000X0.5000*%
%ADD13R,0.5000X0.6000*%
%ADD14R,2.4000X1.9000*%
%ADD15R,1.1000X1.0000*%
%ADD16R,0.8000X0.9000*%
%ADD17R,0.9000X0.8000*%
%ADD18O,2.1000X0.3500*%
%ADD19R,1.5000X1.5000*%
%ADD20R,0.6900X1.2000*%
%ADD21R,0.7000X0.7000*%
%ADD22O,1.5000X0.4500*%
%ADD23O,0.4500X1.5000*%
%ADD24R,1.9000X1.2000*%
%ADD25R,1.9000X1.6000*%
%ADD26R,2.0000X2.1000*%
%ADD27R,1.3500X0.4000*%
%ADD28R,0.8000X0.3000*%
%ADD29R,0.3000X0.8000*%
%ADD30R,1.6000X1.6000*%
%ADD31C,0.6020*%
%ADD32C,0.6000*%
%ADD33C,1.2600*%
%ADD34C,0.3000*%
%ADD35C,0.6010*%
%ADD36C,0.5000*%
%ADD37C,0.2540*%
%ADD38C,1.5000*%
%ADD39R,1.5000X1.5000*%
%ADD40C,2.2000*%
%ADD41C,1.0000*%
%ADD42C,1.2700*%
%ADD43C,5.0000*%
%ADD44C,0.7000*%
%ADD45C,0.2500*%
%ADD46C,0.2000*%
%ADD47C,0.0500*%
%ADD48R,0.2500X1.4000*%
D37*
X102394Y127886D02*
G03*
X102394Y127886I-764J0D01*
G01*
X78000Y361000D02*
Y370000D01*
X142000Y361000D02*
Y370000D01*
X78000Y361000D02*
X142000D01*
X78000Y392000D02*
Y401000D01*
X142000Y392000D02*
Y401000D01*
X78000D02*
X142000D01*
D45*
X229830Y332580D02*
G03*
X229830Y332580I-1250J0D01*
G01*
X102830Y322580D02*
G03*
X102830Y322580I-1250J0D01*
G01*
D46*
X69080Y154080D02*
Y166080D01*
X105080Y154080D02*
Y166080D01*
X83580Y133080D02*
X90580D01*
X83580Y187080D02*
X90580D01*
X79080Y305330D02*
X82080D01*
Y250830D02*
Y305330D01*
X79080Y250830D02*
X82080D01*
X46080Y305580D02*
X49080D01*
X46080Y251080D02*
Y305580D01*
Y251080D02*
X49080D01*
X203200Y12700D02*
Y61383D01*
Y12700D02*
Y88900D01*
X254000Y12700D02*
Y88900D01*
X203200D02*
X254000D01*
X203200Y12700D02*
X254000D01*
X342900Y393700D02*
X368300D01*
Y190500D02*
Y393700D01*
X342900Y190500D02*
X368300D01*
X342900D02*
Y393700D01*
X12700Y88900D02*
X38100D01*
X12700Y241300D02*
X38100D01*
Y88900D02*
Y241300D01*
X12700Y88900D02*
Y241300D01*
X138000Y87000D02*
X161620D01*
X138000Y18000D02*
X161620D01*
X116000Y41500D02*
Y65120D01*
X184000Y41500D02*
Y65120D01*
X297080Y329580D02*
Y337580D01*
X237080D02*
X297080D01*
X237080Y329580D02*
Y337580D01*
X297080Y228580D02*
Y236580D01*
X237080Y228580D02*
X297080D01*
X237080D02*
Y236580D01*
X266700Y38100D02*
X317500D01*
X266700Y12700D02*
Y38100D01*
Y12700D02*
X317500D01*
Y38100D01*
X165100Y368300D02*
Y393700D01*
X317500Y368300D02*
Y393700D01*
X165100Y368300D02*
X317500D01*
X165100Y393700D02*
X317500D01*
X264080Y184372D02*
Y200580D01*
X243580Y202580D02*
X250580D01*
X230080Y184372D02*
Y200580D01*
X107080Y322080D02*
X110580D01*
X107080Y318580D02*
Y322080D01*
Y248080D02*
Y251580D01*
Y248080D02*
X110580D01*
X177580D02*
X181080D01*
Y251580D01*
X177580Y322080D02*
X181080D01*
Y318580D02*
Y322080D01*
X326730Y71430D02*
Y176430D01*
X379230D01*
X326730Y71430D02*
X378230D01*
X163080Y195080D02*
X170080D01*
Y188080D02*
Y195080D01*
X164937Y191223D02*
X166080Y190080D01*
X126080Y195080D02*
X133080D01*
X126080Y188080D02*
Y195080D01*
Y151080D02*
Y158080D01*
Y151080D02*
X133080D01*
X163080D02*
X170080D01*
Y158080D01*
X313375Y178052D02*
X312043Y176719D01*
Y174053D01*
X313375Y172720D01*
X318707D01*
X320040Y174053D01*
Y176719D01*
X318707Y178052D01*
X320040Y186049D02*
Y180717D01*
X314708Y186049D01*
X313375D01*
X312043Y184716D01*
Y182050D01*
X313375Y180717D01*
X320040Y194046D02*
Y188715D01*
X314708Y194046D01*
X313375D01*
X312043Y192714D01*
Y190048D01*
X313375Y188715D01*
X296162Y115377D02*
X294829Y116709D01*
X292163D01*
X290830Y115377D01*
Y110045D01*
X292163Y108712D01*
X294829D01*
X296162Y110045D01*
X298827Y108712D02*
X301493D01*
X300160D01*
Y116709D01*
X298827Y115377D01*
X310824Y116709D02*
X305492D01*
Y112711D01*
X308158Y114044D01*
X309491D01*
X310824Y112711D01*
Y110045D01*
X309491Y108712D01*
X306825D01*
X305492Y110045D01*
X241500Y223997D02*
Y217333D01*
X242833Y216000D01*
X245499D01*
X246832Y217333D01*
Y223997D01*
X253496Y216000D02*
Y223997D01*
X249497Y219999D01*
X254829D01*
X96120Y193070D02*
Y201067D01*
X100119D01*
X101452Y199734D01*
Y197069D01*
X100119Y195736D01*
X96120D01*
X98786D02*
X101452Y193070D01*
X108116D02*
Y201067D01*
X104117Y197069D01*
X109449D01*
X52200Y239597D02*
Y231600D01*
X57532D01*
X65529Y239597D02*
X60197D01*
Y231600D01*
X65529D01*
X60197Y235599D02*
X62863D01*
X68195Y239597D02*
Y231600D01*
X72194D01*
X73526Y232933D01*
Y238265D01*
X72194Y239597D01*
X68195D01*
X259412Y132078D02*
X254080D01*
Y128079D01*
X256746D01*
X254080D01*
Y124080D01*
X262078D02*
X264743D01*
X263411D01*
Y132078D01*
X262078Y130745D01*
X208130Y185447D02*
Y177450D01*
X213462D01*
X220126D02*
Y185447D01*
X216127Y181449D01*
X221459D01*
X99255Y348251D02*
X97922Y346918D01*
Y344253D01*
X99255Y342920D01*
X104587D01*
X105920Y344253D01*
Y346918D01*
X104587Y348251D01*
X105920Y350917D02*
Y353583D01*
Y352250D01*
X97922D01*
X99255Y350917D01*
X198085Y310582D02*
X196753Y309249D01*
Y306583D01*
X198085Y305250D01*
X203417D01*
X204750Y306583D01*
Y309249D01*
X203417Y310582D01*
X204750Y318579D02*
Y313247D01*
X199418Y318579D01*
X198085D01*
X196753Y317246D01*
Y314580D01*
X198085Y313247D01*
X42332Y320664D02*
X40999Y321997D01*
X38333D01*
X37000Y320664D01*
Y315333D01*
X38333Y314000D01*
X40999D01*
X42332Y315333D01*
X44997Y320664D02*
X46330Y321997D01*
X48996D01*
X50329Y320664D01*
Y319332D01*
X48996Y317999D01*
X47663D01*
X48996D01*
X50329Y316666D01*
Y315333D01*
X48996Y314000D01*
X46330D01*
X44997Y315333D01*
X26416Y254412D02*
X25083Y253079D01*
Y250413D01*
X26416Y249080D01*
X31747D01*
X33080Y250413D01*
Y253079D01*
X31747Y254412D01*
X33080Y261076D02*
X25083D01*
X29081Y257078D01*
Y262409D01*
X201336Y236832D02*
X200003Y235499D01*
Y232833D01*
X201336Y231500D01*
X206667D01*
X208000Y232833D01*
Y235499D01*
X206667Y236832D01*
X200003Y244829D02*
Y239497D01*
X204001D01*
X202668Y242163D01*
Y243496D01*
X204001Y244829D01*
X206667D01*
X208000Y243496D01*
Y240830D01*
X206667Y239497D01*
X211686Y165252D02*
X210353Y163919D01*
Y161253D01*
X211686Y159920D01*
X217017D01*
X218350Y161253D01*
Y163919D01*
X217017Y165252D01*
X210353Y173249D02*
X211686Y170583D01*
X214351Y167917D01*
X217017D01*
X218350Y169250D01*
Y171916D01*
X217017Y173249D01*
X215684D01*
X214351Y171916D01*
Y167917D01*
X200835Y165292D02*
X199503Y163959D01*
Y161293D01*
X200835Y159960D01*
X206167D01*
X207500Y161293D01*
Y163959D01*
X206167Y165292D01*
X199503Y167957D02*
Y173289D01*
X200835D01*
X206167Y167957D01*
X207500D01*
X138336Y99332D02*
X137003Y97999D01*
Y95333D01*
X138336Y94000D01*
X143667D01*
X145000Y95333D01*
Y97999D01*
X143667Y99332D01*
X138336Y101997D02*
X137003Y103330D01*
Y105996D01*
X138336Y107329D01*
X139668D01*
X141001Y105996D01*
X142334Y107329D01*
X143667D01*
X145000Y105996D01*
Y103330D01*
X143667Y101997D01*
X142334D01*
X141001Y103330D01*
X139668Y101997D01*
X138336D01*
X141001Y103330D02*
Y105996D01*
X65251Y126084D02*
X63918Y127417D01*
X61253D01*
X59920Y126084D01*
Y120753D01*
X61253Y119420D01*
X63918D01*
X65251Y120753D01*
X67917D02*
X69250Y119420D01*
X71916D01*
X73249Y120753D01*
Y126084D01*
X71916Y127417D01*
X69250D01*
X67917Y126084D01*
Y124751D01*
X69250Y123418D01*
X73249D01*
X165332Y112664D02*
X163999Y113997D01*
X161333D01*
X160000Y112664D01*
Y107333D01*
X161333Y106000D01*
X163999D01*
X165332Y107333D01*
X167997Y106000D02*
X170663D01*
X169330D01*
Y113997D01*
X167997Y112664D01*
X174662D02*
X175995Y113997D01*
X178661D01*
X179993Y112664D01*
Y107333D01*
X178661Y106000D01*
X175995D01*
X174662Y107333D01*
Y112664D01*
X189335Y184332D02*
X188003Y182999D01*
Y180333D01*
X189335Y179000D01*
X194667D01*
X196000Y180333D01*
Y182999D01*
X194667Y184332D01*
X196000Y186997D02*
Y189663D01*
Y188330D01*
X188003D01*
X189335Y186997D01*
X196000Y193662D02*
Y196328D01*
Y194995D01*
X188003D01*
X189335Y193662D01*
X68251Y208584D02*
X66919Y209917D01*
X64253D01*
X62920Y208584D01*
Y203253D01*
X64253Y201920D01*
X66919D01*
X68251Y203253D01*
X70917Y201920D02*
X73583D01*
X72250D01*
Y209917D01*
X70917Y208584D01*
X82913Y201920D02*
X77582D01*
X82913Y207251D01*
Y208584D01*
X81580Y209917D01*
X78915D01*
X77582Y208584D01*
X106335Y100332D02*
X105003Y98999D01*
Y96333D01*
X106335Y95000D01*
X111667D01*
X113000Y96333D01*
Y98999D01*
X111667Y100332D01*
X113000Y102997D02*
Y105663D01*
Y104330D01*
X105003D01*
X106335Y102997D01*
Y109662D02*
X105003Y110995D01*
Y113661D01*
X106335Y114994D01*
X107668D01*
X109001Y113661D01*
Y112328D01*
Y113661D01*
X110334Y114994D01*
X111667D01*
X113000Y113661D01*
Y110995D01*
X111667Y109662D01*
X94335Y100332D02*
X93003Y98999D01*
Y96333D01*
X94335Y95000D01*
X99667D01*
X101000Y96333D01*
Y98999D01*
X99667Y100332D01*
X101000Y102997D02*
Y105663D01*
Y104330D01*
X93003D01*
X94335Y102997D01*
X101000Y113661D02*
X93003D01*
X97001Y109662D01*
Y114994D01*
X137003Y113000D02*
X145000D01*
Y118332D01*
Y120997D02*
Y123663D01*
Y122330D01*
X137003D01*
X138336Y120997D01*
X158450Y144127D02*
Y136130D01*
X163782D01*
X171779D02*
X166447D01*
X171779Y141462D01*
Y142795D01*
X170446Y144127D01*
X167780D01*
X166447Y142795D01*
X109000Y134997D02*
Y127000D01*
X114332D01*
X116997Y133665D02*
X118330Y134997D01*
X120996D01*
X122329Y133665D01*
Y132332D01*
X120996Y130999D01*
X119663D01*
X120996D01*
X122329Y129666D01*
Y128333D01*
X120996Y127000D01*
X118330D01*
X116997Y128333D01*
X73080Y325080D02*
X65083D01*
Y329079D01*
X66416Y330412D01*
X69082D01*
X70415Y329079D01*
Y325080D01*
Y327746D02*
X73080Y330412D01*
Y333078D02*
Y335743D01*
Y334411D01*
X65083D01*
X66416Y333078D01*
X197500Y136500D02*
X189503D01*
Y140499D01*
X190835Y141832D01*
X193501D01*
X194834Y140499D01*
Y136500D01*
Y139166D02*
X197500Y141832D01*
Y149829D02*
Y144497D01*
X192168Y149829D01*
X190835D01*
X189503Y148496D01*
Y145830D01*
X190835Y144497D01*
X117280Y138620D02*
X109283D01*
Y142619D01*
X110616Y143952D01*
X113281D01*
X114614Y142619D01*
Y138620D01*
Y141286D02*
X117280Y143952D01*
X110616Y146617D02*
X109283Y147950D01*
Y150616D01*
X110616Y151949D01*
X111948D01*
X113281Y150616D01*
Y149283D01*
Y150616D01*
X114614Y151949D01*
X115947D01*
X117280Y150616D01*
Y147950D01*
X115947Y146617D01*
X155080Y348078D02*
Y341413D01*
X156413Y340080D01*
X159079D01*
X160412Y341413D01*
Y348078D01*
X163078Y340080D02*
X165744D01*
X164411D01*
Y348078D01*
X163078Y346745D01*
X147750Y210747D02*
Y204083D01*
X149083Y202750D01*
X151749D01*
X153082Y204083D01*
Y210747D01*
X161079Y202750D02*
X155747D01*
X161079Y208082D01*
Y209415D01*
X159746Y210747D01*
X157080D01*
X155747Y209415D01*
X34083Y273080D02*
X35416D01*
X38082Y275746D01*
X35416Y278412D01*
X34083D01*
X38082Y275746D02*
X42080D01*
Y281078D02*
Y283743D01*
Y282411D01*
X34083D01*
X35416Y281078D01*
X58083Y153080D02*
X59416D01*
X62081Y155746D01*
X59416Y158412D01*
X58083D01*
X62081Y155746D02*
X66080D01*
Y166409D02*
Y161078D01*
X60749Y166409D01*
X59416D01*
X58083Y165076D01*
Y162411D01*
X59416Y161078D01*
X214416Y131412D02*
X213083Y130079D01*
Y127413D01*
X214416Y126080D01*
X219747D01*
X221080Y127413D01*
Y130079D01*
X219747Y131412D01*
X221080Y134078D02*
Y136743D01*
Y135411D01*
X213083D01*
X214416Y134078D01*
X213083Y146074D02*
X214416Y143408D01*
X217082Y140742D01*
X219747D01*
X221080Y142075D01*
Y144741D01*
X219747Y146074D01*
X218414D01*
X217082Y144741D01*
Y140742D01*
X320416Y231412D02*
X319083Y230079D01*
Y227413D01*
X320416Y226080D01*
X325747D01*
X327080Y227413D01*
Y230079D01*
X325747Y231412D01*
X327080Y234078D02*
Y236744D01*
Y235411D01*
X319083D01*
X320416Y234078D01*
X319083Y240742D02*
Y246074D01*
X320416D01*
X325747Y240742D01*
X327080D01*
X220336Y196332D02*
X219003Y194999D01*
Y192333D01*
X220336Y191000D01*
X225667D01*
X227000Y192333D01*
Y194999D01*
X225667Y196332D01*
X227000Y198997D02*
Y201663D01*
Y200330D01*
X219003D01*
X220336Y198997D01*
Y205662D02*
X219003Y206995D01*
Y209661D01*
X220336Y210994D01*
X221668D01*
X223001Y209661D01*
X224334Y210994D01*
X225667D01*
X227000Y209661D01*
Y206995D01*
X225667Y205662D01*
X224334D01*
X223001Y206995D01*
X221668Y205662D01*
X220336D01*
X223001Y206995D02*
Y209661D01*
X280436Y172032D02*
X279103Y170699D01*
Y168033D01*
X280436Y166700D01*
X285767D01*
X287100Y168033D01*
Y170699D01*
X285767Y172032D01*
X287100Y174697D02*
Y177363D01*
Y176030D01*
X279103D01*
X280436Y174697D01*
X285767Y181362D02*
X287100Y182695D01*
Y185361D01*
X285767Y186694D01*
X280436D01*
X279103Y185361D01*
Y182695D01*
X280436Y181362D01*
X281768D01*
X283101Y182695D01*
Y186694D01*
X289412Y159745D02*
X288079Y161078D01*
X285413D01*
X284080Y159745D01*
Y154413D01*
X285413Y153080D01*
X288079D01*
X289412Y154413D01*
X297409Y153080D02*
X292078D01*
X297409Y158412D01*
Y159745D01*
X296076Y161078D01*
X293411D01*
X292078Y159745D01*
X300075D02*
X301408Y161078D01*
X304074D01*
X305407Y159745D01*
Y154413D01*
X304074Y153080D01*
X301408D01*
X300075Y154413D01*
Y159745D01*
X280035Y196032D02*
X278703Y194699D01*
Y192033D01*
X280035Y190700D01*
X285367D01*
X286700Y192033D01*
Y194699D01*
X285367Y196032D01*
X286700Y204029D02*
Y198697D01*
X281368Y204029D01*
X280035D01*
X278703Y202696D01*
Y200030D01*
X280035Y198697D01*
X286700Y206695D02*
Y209361D01*
Y208028D01*
X278703D01*
X280035Y206695D01*
X314003Y117000D02*
X320667D01*
X322000Y118333D01*
Y120999D01*
X320667Y122332D01*
X314003D01*
X315336Y130329D02*
X314003Y128996D01*
Y126330D01*
X315336Y124997D01*
X316668D01*
X318001Y126330D01*
Y128996D01*
X319334Y130329D01*
X320667D01*
X322000Y128996D01*
Y126330D01*
X320667Y124997D01*
X314003Y132995D02*
X322000D01*
Y136994D01*
X320667Y138326D01*
X319334D01*
X318001Y136994D01*
Y132995D01*
Y136994D01*
X316668Y138326D01*
X315336D01*
X314003Y136994D01*
Y132995D01*
X261080Y350078D02*
Y343413D01*
X262413Y342080D01*
X265079D01*
X266412Y343413D01*
Y350078D01*
X269078Y348745D02*
X270411Y350078D01*
X273076D01*
X274409Y348745D01*
Y347412D01*
X273076Y346079D01*
X271744D01*
X273076D01*
X274409Y344746D01*
Y343413D01*
X273076Y342080D01*
X270411D01*
X269078Y343413D01*
X91000Y355000D02*
Y347003D01*
X87001D01*
X85668Y348335D01*
Y351001D01*
X87001Y352334D01*
X91000D01*
X88334D02*
X85668Y355000D01*
X77671Y347003D02*
X83003D01*
Y355000D01*
X77671D01*
X83003Y351001D02*
X80337D01*
X69674Y348335D02*
X71006Y347003D01*
X73672D01*
X75005Y348335D01*
Y349668D01*
X73672Y351001D01*
X71006D01*
X69674Y352334D01*
Y353667D01*
X71006Y355000D01*
X73672D01*
X75005Y353667D01*
X61676Y347003D02*
X67008D01*
Y355000D01*
X61676D01*
X67008Y351001D02*
X64342D01*
X59010Y347003D02*
X53679D01*
X56344D01*
Y355000D01*
X273000Y41250D02*
Y49247D01*
X276999D01*
X278332Y47915D01*
Y45249D01*
X276999Y43916D01*
X273000D01*
X284996Y49247D02*
X282330D01*
X280997Y47915D01*
Y42583D01*
X282330Y41250D01*
X284996D01*
X286329Y42583D01*
Y47915D01*
X284996Y49247D01*
X288995D02*
Y41250D01*
X291661Y43916D01*
X294326Y41250D01*
Y49247D01*
X302324D02*
X296992D01*
Y41250D01*
X302324D01*
X296992Y45249D02*
X299658D01*
X304990Y41250D02*
Y49247D01*
X308988D01*
X310321Y47915D01*
Y45249D01*
X308988Y43916D01*
X304990D01*
X307656D02*
X310321Y41250D01*
X247500Y356753D02*
X244834D01*
X246167D01*
Y364750D01*
X247500D01*
X244834D01*
X235504D02*
X240835D01*
X235504Y359418D01*
Y358086D01*
X236837Y356753D01*
X239503D01*
X240835Y358086D01*
X227506D02*
X228839Y356753D01*
X231505D01*
X232838Y358086D01*
Y363417D01*
X231505Y364750D01*
X228839D01*
X227506Y363417D01*
X209550Y396855D02*
Y402186D01*
X206884Y404852D01*
X204219Y402186D01*
Y396855D01*
X197554D02*
X200220D01*
X201553Y398188D01*
Y403519D01*
X200220Y404852D01*
X197554D01*
X196221Y403519D01*
Y398188D01*
X197554Y396855D01*
X193555D02*
Y403519D01*
X192222Y404852D01*
X189557D01*
X188224Y403519D01*
Y396855D01*
X185558D02*
X180226D01*
X182892D01*
Y404852D01*
X168659Y396855D02*
X173990D01*
Y400853D01*
X171324D01*
X173990D01*
Y404852D01*
X165993Y396855D02*
Y404852D01*
X161994D01*
X160661Y403519D01*
Y398188D01*
X161994Y396855D01*
X165993D01*
X231499Y398298D02*
X232831Y396965D01*
X235497D01*
X236830Y398298D01*
Y399631D01*
X235497Y400964D01*
X232831D01*
X231499Y402296D01*
Y403629D01*
X232831Y404962D01*
X235497D01*
X236830Y403629D01*
X228833Y396965D02*
Y404962D01*
X223501D01*
X215504Y398298D02*
X216837Y396965D01*
X219503D01*
X220835Y398298D01*
Y403629D01*
X219503Y404962D01*
X216837D01*
X215504Y403629D01*
X259499Y398298D02*
X260832Y396965D01*
X263497D01*
X264830Y398298D01*
Y399631D01*
X263497Y400964D01*
X260832D01*
X259499Y402296D01*
Y403629D01*
X260832Y404962D01*
X263497D01*
X264830Y403629D01*
X256833Y396965D02*
Y404962D01*
X252834D01*
X251501Y403629D01*
Y398298D01*
X252834Y396965D01*
X256833D01*
X248835Y404962D02*
Y399631D01*
X246170Y396965D01*
X243504Y399631D01*
Y404962D01*
Y400964D01*
X248835D01*
X287499Y398298D02*
X288832Y396965D01*
X291497D01*
X292830Y398298D01*
Y403629D01*
X291497Y404962D01*
X288832D01*
X287499Y403629D01*
Y400964D01*
X290164D01*
X284833Y404962D02*
Y396965D01*
X279501Y404962D01*
Y396965D01*
X276835D02*
Y404962D01*
X272837D01*
X271504Y403629D01*
Y398298D01*
X272837Y396965D01*
X276835D01*
X320830D02*
Y402296D01*
X318165Y404962D01*
X315499Y402296D01*
Y396965D01*
X307501Y398298D02*
X308834Y396965D01*
X311500D01*
X312833Y398298D01*
Y403629D01*
X311500Y404962D01*
X308834D01*
X307501Y403629D01*
X299504Y398298D02*
X300837Y396965D01*
X303503D01*
X304835Y398298D01*
Y403629D01*
X303503Y404962D01*
X300837D01*
X299504Y403629D01*
X302512Y8213D02*
X301179Y9545D01*
X298513D01*
X297180Y8213D01*
Y2881D01*
X298513Y1548D01*
X301179D01*
X302512Y2881D01*
Y5547D01*
X299846D01*
X305177Y1548D02*
Y9545D01*
X310509Y1548D01*
Y9545D01*
X313175D02*
Y1548D01*
X317174D01*
X318506Y2881D01*
Y8213D01*
X317174Y9545D01*
X313175D01*
X266700Y8213D02*
X268033Y9545D01*
X270699D01*
X272032Y8213D01*
Y6880D01*
X270699Y5547D01*
X269366D01*
X270699D01*
X272032Y4214D01*
Y2881D01*
X270699Y1548D01*
X268033D01*
X266700Y2881D01*
X274697Y9545D02*
Y4214D01*
X277363Y1548D01*
X280029Y4214D01*
Y9545D01*
X282695Y8213D02*
X284028Y9545D01*
X286694D01*
X288026Y8213D01*
Y6880D01*
X286694Y5547D01*
X285361D01*
X286694D01*
X288026Y4214D01*
Y2881D01*
X286694Y1548D01*
X284028D01*
X282695Y2881D01*
X371455Y202182D02*
Y196850D01*
X375453D01*
X374120Y199516D01*
Y200849D01*
X375453Y202182D01*
X378119D01*
X379452Y200849D01*
Y198183D01*
X378119Y196850D01*
X371455Y204847D02*
X376786D01*
X379452Y207513D01*
X376786Y210179D01*
X371455D01*
X372788Y221232D02*
X371455Y219899D01*
Y217233D01*
X372788Y215900D01*
X378119D01*
X379452Y217233D01*
Y219899D01*
X378119Y221232D01*
X375453D01*
Y218566D01*
X379452Y223897D02*
X371455D01*
X379452Y229229D01*
X371455D01*
Y231895D02*
X379452D01*
Y235894D01*
X378119Y237226D01*
X372788D01*
X371455Y235894D01*
Y231895D01*
X379452Y298450D02*
X374120D01*
X371455Y301116D01*
X374120Y303782D01*
X379452D01*
X375453D01*
Y298450D01*
X372788Y306447D02*
X371455Y307780D01*
Y310446D01*
X372788Y311779D01*
X378119D01*
X379452Y310446D01*
Y307780D01*
X378119Y306447D01*
X372788D01*
X379452Y325120D02*
X374120D01*
X371455Y327786D01*
X374120Y330452D01*
X379452D01*
X375453D01*
Y325120D01*
X379452Y333117D02*
Y335783D01*
Y334450D01*
X371455D01*
X372788Y333117D01*
X379452Y349250D02*
X374120D01*
X371455Y351916D01*
X374120Y354582D01*
X379452D01*
X375453D01*
Y349250D01*
X379452Y362579D02*
Y357247D01*
X374120Y362579D01*
X372788D01*
X371455Y361246D01*
Y358580D01*
X372788Y357247D01*
X379452Y374650D02*
X374120D01*
X371455Y377316D01*
X374120Y379982D01*
X379452D01*
X375453D01*
Y374650D01*
X372788Y382647D02*
X371455Y383980D01*
Y386646D01*
X372788Y387979D01*
X374120D01*
X375453Y386646D01*
Y385313D01*
Y386646D01*
X376786Y387979D01*
X378119D01*
X379452Y386646D01*
Y383980D01*
X378119Y382647D01*
X1404Y112510D02*
X9402D01*
Y108511D01*
X8069Y107179D01*
X5403D01*
X4070Y108511D01*
Y112510D01*
Y109845D02*
X1404Y107179D01*
X8069Y99181D02*
X9402Y100514D01*
Y103180D01*
X8069Y104513D01*
X6736D01*
X5403Y103180D01*
Y100514D01*
X4070Y99181D01*
X2737D01*
X1404Y100514D01*
Y103180D01*
X2737Y104513D01*
X9402Y96515D02*
Y91184D01*
Y93850D01*
X1404D01*
X199660Y10160D02*
X193662D01*
Y13159D01*
X194662Y14159D01*
X196661D01*
X197661Y13159D01*
Y10160D01*
Y12159D02*
X199660Y14159D01*
X194662Y20157D02*
X193662Y19157D01*
Y17158D01*
X194662Y16158D01*
X195661D01*
X196661Y17158D01*
Y19157D01*
X197661Y20157D01*
X198660D01*
X199660Y19157D01*
Y17158D01*
X198660Y16158D01*
X193662Y22156D02*
Y26155D01*
Y24155D01*
X199660D01*
X194662Y42099D02*
X193662Y41099D01*
Y39100D01*
X194662Y38100D01*
X195661D01*
X196661Y39100D01*
Y41099D01*
X197661Y42099D01*
X198660D01*
X199660Y41099D01*
Y39100D01*
X198660Y38100D01*
X194662Y48097D02*
X193662Y47097D01*
Y45098D01*
X194662Y44098D01*
X198660D01*
X199660Y45098D01*
Y47097D01*
X198660Y48097D01*
X193662Y50096D02*
X199660D01*
X197661D01*
X193662Y54095D01*
X196661Y51096D01*
X199660Y54095D01*
Y66040D02*
X193662D01*
X195661Y68039D01*
X193662Y70039D01*
X199660D01*
X193662Y72038D02*
Y74037D01*
Y73038D01*
X199660D01*
Y72038D01*
Y74037D01*
X194662Y81035D02*
X193662Y80035D01*
Y78036D01*
X194662Y77036D01*
X195661D01*
X196661Y78036D01*
Y80035D01*
X197661Y81035D01*
X198660D01*
X199660Y80035D01*
Y78036D01*
X198660Y77036D01*
X193662Y86033D02*
Y84034D01*
X194662Y83034D01*
X198660D01*
X199660Y84034D01*
Y86033D01*
X198660Y87033D01*
X194662D01*
X193662Y86033D01*
X257162Y73660D02*
X261161D01*
X263160Y75659D01*
X261161Y77659D01*
X257162D01*
X258162Y83657D02*
X257162Y82657D01*
Y80658D01*
X258162Y79658D01*
X262160D01*
X263160Y80658D01*
Y82657D01*
X262160Y83657D01*
X258162Y89655D02*
X257162Y88655D01*
Y86656D01*
X258162Y85656D01*
X262160D01*
X263160Y86656D01*
Y88655D01*
X262160Y89655D01*
X263160Y38100D02*
X257162D01*
X259161Y40099D01*
X257162Y42099D01*
X263160D01*
X257162Y47097D02*
Y45098D01*
X258162Y44098D01*
X262160D01*
X263160Y45098D01*
Y47097D01*
X262160Y48097D01*
X258162D01*
X257162Y47097D01*
X258162Y54095D02*
X257162Y53095D01*
Y51096D01*
X258162Y50096D01*
X259161D01*
X260161Y51096D01*
Y53095D01*
X261161Y54095D01*
X262160D01*
X263160Y53095D01*
Y51096D01*
X262160Y50096D01*
X257162Y56094D02*
Y58094D01*
Y57094D01*
X263160D01*
Y56094D01*
Y58094D01*
X258162Y14159D02*
X257162Y13159D01*
Y11160D01*
X258162Y10160D01*
X262160D01*
X263160Y11160D01*
Y13159D01*
X262160Y14159D01*
X260161D01*
Y12159D01*
X263160Y16158D02*
X257162D01*
X263160Y20157D01*
X257162D01*
Y22156D02*
X263160D01*
Y25155D01*
X262160Y26155D01*
X258162D01*
X257162Y25155D01*
Y22156D01*
X8089Y230760D02*
X9422Y229427D01*
Y226761D01*
X8089Y225429D01*
X2757D01*
X1424Y226761D01*
Y229427D01*
X2757Y230760D01*
X8089D01*
X1404Y205360D02*
Y202694D01*
Y204027D01*
X9402D01*
X8069Y205360D01*
X1404Y174629D02*
Y179960D01*
X6736Y174629D01*
X8069D01*
X9402Y175961D01*
Y178627D01*
X8069Y179960D01*
Y154560D02*
X9402Y153227D01*
Y150561D01*
X8069Y149228D01*
X6736D01*
X5403Y150561D01*
Y151894D01*
Y150561D01*
X4070Y149228D01*
X2737D01*
X1404Y150561D01*
Y153227D01*
X2737Y154560D01*
X1404Y125161D02*
X9402D01*
X5403Y129160D01*
Y123828D01*
X371455Y281862D02*
X372788Y279196D01*
X375453Y276530D01*
X378119D01*
X379452Y277863D01*
Y280529D01*
X378119Y281862D01*
X376786D01*
X375453Y280529D01*
Y276530D01*
X371455Y256462D02*
Y251130D01*
X375453D01*
X374120Y253796D01*
Y255129D01*
X375453Y256462D01*
X378119D01*
X379452Y255129D01*
Y252463D01*
X378119Y251130D01*
D47*
X92200Y213600D02*
Y227600D01*
X59700Y213600D02*
X92200D01*
X59700D02*
Y227600D01*
X92200D01*
X57700Y213600D02*
Y227600D01*
Y213600D02*
X59700D01*
X57700Y227600D02*
X59700D01*
D48*
X58950Y220600D02*
D03*
M02*
