M48
;Layer_Color=9474304
;FILE_FORMAT=4:4
METRIC,LZ
;TYPE=PLATED
T1F00S00C0.3000
T2F00S00C0.5000
T3F00S00C0.7112
T4F00S00C0.9000
T5F00S00C1.6500
T6F00S00C3.0000
%
T01
X001445Y001695
X001517Y001765
T02
X0008008Y0004508
X0007108Y0010208
X0011719Y0019539
X0012008Y0022108
X00105078Y00221079
X0009208Y0024608
X00147078Y00257079
X0015208Y0027008
X00140078Y00279079
X0013708Y0030008
X0011808
X0014732Y0030988
X0017008Y0028908
X0020408Y0027458
X0018908Y0024408
X0020008Y0022208
X00180078Y00219079
X0017108Y0020308
X00156078Y00226079
X00138078Y00209079
X002286Y0022352
X0025146Y0029972
Y0032766
X0020808Y0032608
X0012954Y003429
X0010408Y0033233
X0009233Y0032358
X0003708Y0029508
X00332Y00213
X0028211Y0013601
X0022225Y001016
T03
X0027051Y0024003
X0021373Y00311851
T04
X002159Y000254
X002413
X002794
X003048
X002413Y000508
X002159
Y000762
X002413
X003556Y002032
Y002286
Y00254
Y002794
Y003048
Y003302
Y003556
Y00381
X003048
X002794
X00254
X002286
X002032
X001778
X000254Y002286
Y002032
Y001778
Y001524
Y00127
Y001016
T05
X001246Y000276
X001754
Y000784
X001246
X0015Y00053
T06
X0003175Y0003175
X0034925
X0003175Y0037465
M30
