M48
;Layer_Color=9474304
;FILE_FORMAT=4:4
METRIC,LZ
;TYPE=PLATED
T1F00S00C0.3000
T2F00S00C0.5000
T3F00S00C0.7112
T4F00S00C0.9000
T5F00S00C1.6500
T6F00S00C3.0000
%
T01
X001445Y001695
X001517Y001765
T02
X00084Y00056
X00048Y0014
Y00164
X0011719Y0019539
X0012008Y0022108
X00105078Y00221079
X0009208Y0024608
X0012065Y002794
X0011938Y0030226
X00143002Y00305816
X00155702Y0027305
X00161036Y00258826
X00147828Y00260604
X00156078Y00226079
X00180078Y00219079
X0020008Y0022208
X002286Y0022352
X0018908Y0024408
X002032Y0027458
X0020808Y0032608
X0025146Y0032766
X002667
X00251968Y00299212
X00244Y00164
X0024127Y00100888
X00273Y00097
X0032766Y002159
X0017108Y0020308
X00138078Y00209079
X00127Y0034925
X00110998Y00349746
X0010408Y0033233
X0009233Y0032358
X0010795Y0038227
X0016256Y0036068
X0003708Y0029508
T03
X00272Y00242824
X0021373Y00311851
T04
X002159Y000254
X002413
X002794
X003048
X002413Y000508
X002159
Y000762
X002413
X003556Y002032
Y002286
Y00254
Y002794
Y003048
Y003302
Y003556
X003048Y00381
X002794
X00254
X002286
X002032
X001778
X000254Y002286
Y002032
Y001778
Y001524
Y00127
Y001016
Y000762
T05
X001246Y000276
X001754
Y000784
X001246
X0015Y00053
T06
X0003175Y0003175
X0034925
X0003175Y0037465
M30
