%FSLAX25Y25*%
%MOIN*%
G70*
G01*
G75*
G04 Layer_Color=65535*
%ADD10R,0.02717X0.04724*%
%ADD11R,0.03543X0.03150*%
%ADD12R,0.03150X0.03543*%
%ADD13C,0.01969*%
%ADD14C,0.01000*%
%ADD15R,0.06000X0.06000*%
%ADD16C,0.06000*%
%ADD17R,0.06000X0.06000*%
%ADD18C,0.05000*%
%ADD19C,0.24410*%
%ADD20C,0.00787*%
%ADD21C,0.00252*%
%ADD22C,0.00800*%
%ADD23C,0.00600*%
D14*
X-74000Y-334502D02*
Y-340500D01*
X-70001D01*
X-64003Y-334502D02*
X-68002D01*
Y-340500D01*
X-64003D01*
X-68002Y-337501D02*
X-66003D01*
X-62004Y-334502D02*
Y-340500D01*
X-59005D01*
X-58005Y-339500D01*
Y-335502D01*
X-59005Y-334502D01*
X-62004D01*
X-56006Y-340500D02*
X-54006D01*
X-55006D01*
Y-334502D01*
X-56006Y-335502D01*
X-46000Y-335002D02*
Y-341000D01*
X-42001D01*
X-36003Y-335002D02*
X-40002D01*
Y-341000D01*
X-36003D01*
X-40002Y-338001D02*
X-38003D01*
X-34004Y-335002D02*
Y-341000D01*
X-31005D01*
X-30005Y-340000D01*
Y-336002D01*
X-31005Y-335002D01*
X-34004D01*
X-24007Y-341000D02*
X-28006D01*
X-24007Y-337001D01*
Y-336002D01*
X-25007Y-335002D01*
X-27006D01*
X-28006Y-336002D01*
X-16000Y-335002D02*
Y-341000D01*
X-12001D01*
X-6003Y-335002D02*
X-10002D01*
Y-341000D01*
X-6003D01*
X-10002Y-338001D02*
X-8003D01*
X-4004Y-335002D02*
Y-341000D01*
X-1005D01*
X-5Y-340000D01*
Y-336002D01*
X-1005Y-335002D01*
X-4004D01*
X1994Y-336002D02*
X2994Y-335002D01*
X4993D01*
X5993Y-336002D01*
Y-337001D01*
X4993Y-338001D01*
X3994D01*
X4993D01*
X5993Y-339001D01*
Y-340000D01*
X4993Y-341000D01*
X2994D01*
X1994Y-340000D01*
D20*
X7205Y-320000D02*
G03*
X7205Y-320000I-12205J0D01*
G01*
X-22795D02*
G03*
X-22795Y-320000I-12205J0D01*
G01*
X-52795D02*
G03*
X-52795Y-320000I-12205J0D01*
G01*
X-156307Y-238347D02*
Y-231965D01*
X-164378Y-239134D02*
X-161622D01*
X-169693Y-238347D02*
Y-231965D01*
X-182126Y-214961D02*
Y-13386D01*
X-203681Y-214961D02*
X-182126D01*
X-203681D02*
Y-13386D01*
X-182126D01*
X-130000Y-210787D02*
X-89252D01*
X-130787D02*
Y-189232D01*
Y-210787D02*
X-130000D01*
X-130787Y-189232D02*
X-89252D01*
Y-210787D02*
Y-189232D01*
X-39213Y-30787D02*
Y-19213D01*
X-120787Y-30787D02*
X-39213D01*
X-120787D02*
Y-19213D01*
X-39213D01*
X-200787Y-306787D02*
X-179232D01*
X-200787Y-273213D02*
X-179232D01*
X-200787Y-306787D02*
Y-273213D01*
X-179232Y-306787D02*
Y-273213D01*
Y-306787D02*
X-179232Y-306787D01*
X-200787Y-346787D02*
X-179232D01*
X-200787Y-313213D02*
X-179232D01*
X-200787Y-346787D02*
Y-313213D01*
X-179232Y-346787D02*
Y-313213D01*
Y-346787D02*
X-179232Y-346787D01*
D21*
X-165000Y-145000D02*
Y-55000D01*
Y-145000D02*
X-155000D01*
Y-55000D01*
X-165000D02*
X-155000D01*
X-145000D01*
X-135000D01*
Y-145000D02*
Y-55000D01*
X-145000Y-145000D02*
X-135000D01*
X-155000D02*
X-145000D01*
X-155000D02*
X-145000D01*
Y-55000D01*
X-5000Y-155000D02*
Y-145000D01*
X-165000D02*
X-5000D01*
X-165000Y-155000D02*
Y-145000D01*
Y-155000D02*
X-5000D01*
X-80000Y-160000D02*
Y-155000D01*
X-90200Y-160000D02*
X-80000D01*
X-90200D02*
Y-155100D01*
D22*
X-149501Y-228000D02*
X-152833D01*
X-153500Y-228666D01*
Y-229999D01*
X-152833Y-230666D01*
X-149501D01*
X-153500Y-231999D02*
Y-233332D01*
Y-232665D01*
X-149501D01*
X-150168Y-231999D01*
X-163668Y-261666D02*
X-163001Y-260999D01*
Y-259666D01*
X-163668Y-259000D01*
X-166333D01*
X-167000Y-259666D01*
Y-260999D01*
X-166333Y-261666D01*
X-167000Y-262999D02*
Y-264332D01*
Y-263665D01*
X-163001D01*
X-163668Y-262999D01*
X-157668Y-261666D02*
X-157001Y-260999D01*
Y-259666D01*
X-157668Y-259000D01*
X-160334D01*
X-161000Y-259666D01*
Y-260999D01*
X-160334Y-261666D01*
X-161000Y-265665D02*
Y-262999D01*
X-158334Y-265665D01*
X-157668D01*
X-157001Y-264998D01*
Y-263665D01*
X-157668Y-262999D01*
X-175923Y-208571D02*
Y-207238D01*
Y-207905D01*
X-179255D01*
X-179921Y-207238D01*
Y-206572D01*
X-179255Y-205906D01*
X-179921Y-212570D02*
Y-209904D01*
X-177255Y-212570D01*
X-176589D01*
X-175923Y-211904D01*
Y-210571D01*
X-176589Y-209904D01*
X-97334Y-215001D02*
X-98667D01*
X-98001D01*
Y-218334D01*
X-98667Y-219000D01*
X-99334D01*
X-100000Y-218334D01*
X-96001Y-215668D02*
X-95335Y-215001D01*
X-94002D01*
X-93335Y-215668D01*
Y-216334D01*
X-94002Y-217001D01*
X-94668D01*
X-94002D01*
X-93335Y-217667D01*
Y-218334D01*
X-94002Y-219000D01*
X-95335D01*
X-96001Y-218334D01*
X-33001Y-24166D02*
Y-22833D01*
Y-23499D01*
X-36334D01*
X-37000Y-22833D01*
Y-22166D01*
X-36334Y-21500D01*
X-33001Y-25499D02*
Y-28164D01*
X-33668D01*
X-36334Y-25499D01*
X-37000D01*
X-66000Y-291000D02*
X-62001D01*
Y-292999D01*
X-62668Y-293666D01*
X-64001D01*
X-64667Y-292999D01*
Y-291000D01*
Y-292333D02*
X-66000Y-293666D01*
Y-294999D02*
Y-296332D01*
Y-295665D01*
X-62001D01*
X-62668Y-294999D01*
X-36000Y-291000D02*
X-32001D01*
Y-292999D01*
X-32668Y-293666D01*
X-34001D01*
X-34667Y-292999D01*
Y-291000D01*
Y-292333D02*
X-36000Y-293666D01*
Y-297664D02*
Y-294999D01*
X-33334Y-297664D01*
X-32668D01*
X-32001Y-296998D01*
Y-295665D01*
X-32668Y-294999D01*
X-16000Y-291000D02*
X-12001D01*
Y-292999D01*
X-12668Y-293666D01*
X-14001D01*
X-14667Y-292999D01*
Y-291000D01*
Y-292333D02*
X-16000Y-293666D01*
X-12668Y-294999D02*
X-12001Y-295665D01*
Y-296998D01*
X-12668Y-297664D01*
X-13334D01*
X-14001Y-296998D01*
Y-296332D01*
Y-296998D01*
X-14667Y-297664D01*
X-15334D01*
X-16000Y-296998D01*
Y-295665D01*
X-15334Y-294999D01*
X-174334Y-301668D02*
X-175001Y-301001D01*
X-176333D01*
X-177000Y-301668D01*
Y-302334D01*
X-176333Y-303001D01*
X-175001D01*
X-174334Y-303667D01*
Y-304334D01*
X-175001Y-305000D01*
X-176333D01*
X-177000Y-304334D01*
X-173001Y-305000D02*
X-171668D01*
X-172335D01*
Y-301001D01*
X-173001Y-301668D01*
X-174334Y-314668D02*
X-175001Y-314001D01*
X-176333D01*
X-177000Y-314668D01*
Y-315334D01*
X-176333Y-316001D01*
X-175001D01*
X-174334Y-316667D01*
Y-317334D01*
X-175001Y-318000D01*
X-176333D01*
X-177000Y-317334D01*
X-170335Y-318000D02*
X-173001D01*
X-170335Y-315334D01*
Y-314668D01*
X-171002Y-314001D01*
X-172335D01*
X-173001Y-314668D01*
X-173334Y-260668D02*
X-174001Y-260001D01*
X-175333D01*
X-176000Y-260668D01*
Y-263334D01*
X-175333Y-264000D01*
X-174001D01*
X-173334Y-263334D01*
X-172001Y-260668D02*
X-171335Y-260001D01*
X-170002D01*
X-169335Y-260668D01*
Y-261334D01*
X-170002Y-262001D01*
X-170668D01*
X-170002D01*
X-169335Y-262667D01*
Y-263334D01*
X-170002Y-264000D01*
X-171335D01*
X-172001Y-263334D01*
X-202334Y-260668D02*
X-203001Y-260001D01*
X-204333D01*
X-205000Y-260668D01*
Y-263334D01*
X-204333Y-264000D01*
X-203001D01*
X-202334Y-263334D01*
X-199002Y-264000D02*
Y-260001D01*
X-201001Y-262001D01*
X-198336D01*
X-82668Y-187666D02*
X-82001Y-186999D01*
Y-185667D01*
X-82668Y-185000D01*
X-85334D01*
X-86000Y-185667D01*
Y-186999D01*
X-85334Y-187666D01*
X-82001Y-191665D02*
Y-188999D01*
X-84001D01*
X-83334Y-190332D01*
Y-190998D01*
X-84001Y-191665D01*
X-85334D01*
X-86000Y-190998D01*
Y-189665D01*
X-85334Y-188999D01*
X-176000Y-258000D02*
Y-254001D01*
X-174001D01*
X-173334Y-254668D01*
Y-256001D01*
X-174001Y-256667D01*
X-176000D01*
X-174667D02*
X-173334Y-258000D01*
X-170002D02*
Y-254001D01*
X-172001Y-256001D01*
X-169335D01*
X-205000Y-258000D02*
Y-254001D01*
X-203001D01*
X-202334Y-254668D01*
Y-256001D01*
X-203001Y-256667D01*
X-205000D01*
X-203667D02*
X-202334Y-258000D01*
X-198336Y-254001D02*
X-201001D01*
Y-256001D01*
X-199668Y-255334D01*
X-199002D01*
X-198336Y-256001D01*
Y-257334D01*
X-199002Y-258000D01*
X-200335D01*
X-201001Y-257334D01*
D23*
X-164200Y-56376D02*
X-163675Y-55851D01*
X-162626D01*
X-162101Y-56376D01*
Y-56901D01*
X-162626Y-57426D01*
X-163151D01*
X-162626D01*
X-162101Y-57951D01*
Y-58475D01*
X-162626Y-59000D01*
X-163675D01*
X-164200Y-58475D01*
X-161051Y-55851D02*
Y-57951D01*
X-160002Y-59000D01*
X-158952Y-57951D01*
Y-55851D01*
X-157903Y-56376D02*
X-157378Y-55851D01*
X-156328D01*
X-155804Y-56376D01*
Y-56901D01*
X-156328Y-57426D01*
X-156853D01*
X-156328D01*
X-155804Y-57951D01*
Y-58475D01*
X-156328Y-59000D01*
X-157378D01*
X-157903Y-58475D01*
X-164200Y-60351D02*
Y-63500D01*
X-162101D01*
X-161051Y-60351D02*
Y-63500D01*
X-159477D01*
X-158952Y-62975D01*
Y-60876D01*
X-159477Y-60351D01*
X-161051D01*
X-156328D02*
X-157378D01*
X-157903Y-60876D01*
Y-62975D01*
X-157378Y-63500D01*
X-156328D01*
X-155804Y-62975D01*
Y-60876D01*
X-156328Y-60351D01*
X-154200Y-56576D02*
X-153675Y-56051D01*
X-152626D01*
X-152101Y-56576D01*
Y-57101D01*
X-152626Y-57626D01*
X-153150D01*
X-152626D01*
X-152101Y-58151D01*
Y-58675D01*
X-152626Y-59200D01*
X-153675D01*
X-154200Y-58675D01*
X-151051Y-56051D02*
Y-58151D01*
X-150002Y-59200D01*
X-148952Y-58151D01*
Y-56051D01*
X-147903Y-56576D02*
X-147378Y-56051D01*
X-146328D01*
X-145804Y-56576D01*
Y-57101D01*
X-146328Y-57626D01*
X-146853D01*
X-146328D01*
X-145804Y-58151D01*
Y-58675D01*
X-146328Y-59200D01*
X-147378D01*
X-147903Y-58675D01*
X-154000Y-63500D02*
Y-60351D01*
X-152426D01*
X-151901Y-60876D01*
Y-61926D01*
X-152426Y-62450D01*
X-154000D01*
X-152951D02*
X-151901Y-63500D01*
X-150851D02*
Y-60351D01*
X-149277D01*
X-148752Y-60876D01*
Y-61926D01*
X-149277Y-62450D01*
X-150851D01*
X-147703Y-63500D02*
X-146653D01*
X-147178D01*
Y-61401D01*
X-147703D01*
X-140401Y-58351D02*
X-142500D01*
Y-59926D01*
X-141451Y-59401D01*
X-140926D01*
X-140401Y-59926D01*
Y-60975D01*
X-140926Y-61500D01*
X-141975D01*
X-142500Y-60975D01*
X-139351Y-58351D02*
Y-60451D01*
X-138302Y-61500D01*
X-137252Y-60451D01*
Y-58351D01*
X-87271Y-156431D02*
X-87796Y-155906D01*
X-88845D01*
X-89370Y-156431D01*
Y-158530D01*
X-88845Y-159055D01*
X-87796D01*
X-87271Y-158530D01*
Y-157481D01*
X-88321D01*
X-86221Y-159055D02*
Y-155906D01*
X-84122Y-159055D01*
Y-155906D01*
X-83073D02*
Y-159055D01*
X-81499D01*
X-80974Y-158530D01*
Y-156431D01*
X-81499Y-155906D01*
X-83073D01*
M02*
