%FSLAX25Y25*%
%MOIN*%
G70*
G01*
G75*
G04 Layer_Color=8388736*
%ADD10R,0.02717X0.04724*%
%ADD11R,0.03543X0.03150*%
%ADD12R,0.03150X0.03543*%
%ADD13C,0.01969*%
%ADD14C,0.01000*%
%ADD15R,0.06000X0.06000*%
%ADD16C,0.06000*%
%ADD17R,0.06000X0.06000*%
%ADD18C,0.05000*%
%ADD19C,0.24410*%
%ADD20C,0.00787*%
%ADD21C,0.00252*%
%ADD22C,0.00800*%
%ADD23C,0.00600*%
%ADD24R,0.04317X0.06324*%
%ADD25R,0.05143X0.04750*%
%ADD26R,0.04750X0.05143*%
%ADD27R,0.07600X0.07600*%
%ADD28C,0.07600*%
%ADD29R,0.07600X0.07600*%
%ADD30C,0.06600*%
%ADD31C,0.26009*%
G36*
X-159260Y-232637D02*
X-166740D01*
Y-227177D01*
X-159260Y-227153D01*
Y-232637D01*
D02*
G37*
D24*
X-166740Y-229882D02*
D03*
X-163000D02*
D03*
X-159260D02*
D03*
X-166740Y-240118D02*
D03*
X-159260D02*
D03*
D25*
X-166000Y-250244D02*
D03*
Y-255756D02*
D03*
X-160000Y-250244D02*
D03*
Y-255756D02*
D03*
X-70000Y-292244D02*
D03*
Y-297756D02*
D03*
X-40000Y-292244D02*
D03*
Y-297756D02*
D03*
X-20000Y-292244D02*
D03*
Y-297756D02*
D03*
X-84000Y-199244D02*
D03*
Y-204756D02*
D03*
D26*
X-190244Y-262000D02*
D03*
X-195756D02*
D03*
X-195756Y-256000D02*
D03*
X-190244D02*
D03*
X-184756D02*
D03*
X-179244D02*
D03*
X-179244Y-262000D02*
D03*
X-184756D02*
D03*
D27*
X-10000Y-320000D02*
D03*
X-40000D02*
D03*
X-70000D02*
D03*
X-95000Y-195000D02*
D03*
X-45000Y-25000D02*
D03*
D28*
X0Y-320000D02*
D03*
X-30000D02*
D03*
X-60000D02*
D03*
X-10000Y-150000D02*
D03*
X-20000D02*
D03*
X-30000D02*
D03*
X-40000D02*
D03*
X-50000D02*
D03*
X-60000D02*
D03*
X-70000D02*
D03*
X-80000D02*
D03*
X-90000D02*
D03*
X-100000D02*
D03*
X-110000D02*
D03*
X-120000D02*
D03*
X-130000D02*
D03*
X-140000D02*
D03*
X-150000D02*
D03*
X-160000D02*
D03*
Y-140000D02*
D03*
Y-130000D02*
D03*
Y-120000D02*
D03*
Y-110000D02*
D03*
Y-100000D02*
D03*
Y-90000D02*
D03*
Y-80000D02*
D03*
Y-70000D02*
D03*
X-150000Y-140000D02*
D03*
Y-130000D02*
D03*
Y-120000D02*
D03*
Y-110000D02*
D03*
Y-100000D02*
D03*
Y-90000D02*
D03*
Y-80000D02*
D03*
Y-70000D02*
D03*
X-140000Y-140000D02*
D03*
Y-130000D02*
D03*
Y-120000D02*
D03*
Y-110000D02*
D03*
Y-100000D02*
D03*
Y-90000D02*
D03*
Y-80000D02*
D03*
Y-70000D02*
D03*
X-10000Y-140000D02*
D03*
Y-130000D02*
D03*
Y-120000D02*
D03*
Y-110000D02*
D03*
Y-100000D02*
D03*
Y-90000D02*
D03*
Y-80000D02*
D03*
Y-70000D02*
D03*
X-20000Y-140000D02*
D03*
Y-130000D02*
D03*
Y-120000D02*
D03*
Y-110000D02*
D03*
Y-100000D02*
D03*
Y-90000D02*
D03*
Y-80000D02*
D03*
Y-70000D02*
D03*
X-30000Y-140000D02*
D03*
Y-130000D02*
D03*
Y-120000D02*
D03*
Y-110000D02*
D03*
Y-100000D02*
D03*
Y-90000D02*
D03*
Y-80000D02*
D03*
Y-70000D02*
D03*
X-40000Y-140000D02*
D03*
Y-130000D02*
D03*
Y-120000D02*
D03*
Y-110000D02*
D03*
Y-100000D02*
D03*
Y-90000D02*
D03*
Y-80000D02*
D03*
Y-70000D02*
D03*
X-50000Y-140000D02*
D03*
Y-130000D02*
D03*
Y-120000D02*
D03*
Y-110000D02*
D03*
Y-100000D02*
D03*
Y-90000D02*
D03*
Y-80000D02*
D03*
Y-70000D02*
D03*
X-60000Y-140000D02*
D03*
Y-130000D02*
D03*
Y-120000D02*
D03*
Y-110000D02*
D03*
Y-100000D02*
D03*
Y-90000D02*
D03*
Y-80000D02*
D03*
Y-70000D02*
D03*
X-70000Y-140000D02*
D03*
Y-130000D02*
D03*
Y-120000D02*
D03*
Y-110000D02*
D03*
Y-100000D02*
D03*
Y-90000D02*
D03*
Y-80000D02*
D03*
Y-70000D02*
D03*
X-80000Y-140000D02*
D03*
Y-130000D02*
D03*
Y-120000D02*
D03*
Y-110000D02*
D03*
Y-100000D02*
D03*
Y-90000D02*
D03*
Y-80000D02*
D03*
Y-70000D02*
D03*
X-90000Y-140000D02*
D03*
Y-130000D02*
D03*
Y-120000D02*
D03*
Y-110000D02*
D03*
Y-100000D02*
D03*
Y-90000D02*
D03*
Y-80000D02*
D03*
Y-70000D02*
D03*
X-100000Y-140000D02*
D03*
Y-130000D02*
D03*
Y-120000D02*
D03*
Y-110000D02*
D03*
Y-100000D02*
D03*
Y-90000D02*
D03*
Y-80000D02*
D03*
Y-70000D02*
D03*
X-110000Y-140000D02*
D03*
Y-130000D02*
D03*
Y-120000D02*
D03*
Y-110000D02*
D03*
Y-100000D02*
D03*
Y-90000D02*
D03*
Y-80000D02*
D03*
Y-70000D02*
D03*
X-120000Y-140000D02*
D03*
Y-130000D02*
D03*
Y-120000D02*
D03*
Y-110000D02*
D03*
Y-100000D02*
D03*
Y-90000D02*
D03*
Y-80000D02*
D03*
Y-70000D02*
D03*
X-130000Y-140000D02*
D03*
Y-130000D02*
D03*
Y-120000D02*
D03*
Y-110000D02*
D03*
Y-100000D02*
D03*
Y-90000D02*
D03*
Y-80000D02*
D03*
Y-70000D02*
D03*
X-197894Y-209173D02*
D03*
Y-199173D02*
D03*
Y-189173D02*
D03*
Y-179173D02*
D03*
Y-169173D02*
D03*
Y-159173D02*
D03*
Y-149173D02*
D03*
Y-139173D02*
D03*
Y-129173D02*
D03*
Y-119173D02*
D03*
Y-109173D02*
D03*
Y-99173D02*
D03*
Y-89173D02*
D03*
Y-79173D02*
D03*
Y-69173D02*
D03*
Y-59173D02*
D03*
Y-49173D02*
D03*
Y-39173D02*
D03*
Y-29173D02*
D03*
Y-19173D02*
D03*
X-187894Y-199173D02*
D03*
Y-189173D02*
D03*
Y-179173D02*
D03*
Y-169173D02*
D03*
Y-159173D02*
D03*
Y-149173D02*
D03*
Y-139173D02*
D03*
Y-129173D02*
D03*
Y-119173D02*
D03*
Y-109173D02*
D03*
Y-99173D02*
D03*
Y-89173D02*
D03*
Y-79173D02*
D03*
Y-69173D02*
D03*
Y-59173D02*
D03*
Y-49173D02*
D03*
Y-39173D02*
D03*
Y-29173D02*
D03*
Y-19173D02*
D03*
X-125000Y-205000D02*
D03*
X-115000D02*
D03*
X-105000D02*
D03*
X-95000D02*
D03*
X-125000Y-195000D02*
D03*
X-115000D02*
D03*
X-105000D02*
D03*
X-55000Y-25000D02*
D03*
X-65000D02*
D03*
X-75000D02*
D03*
X-85000D02*
D03*
X-95000D02*
D03*
X-105000D02*
D03*
X-115000D02*
D03*
X-190000Y-300000D02*
D03*
Y-340000D02*
D03*
D29*
X-187894Y-209173D02*
D03*
X-190000Y-280000D02*
D03*
Y-320000D02*
D03*
D30*
X-124000Y-213500D02*
D03*
X-137500Y-184500D02*
D03*
X-139000Y-215500D02*
D03*
X-40000Y-259000D02*
D03*
X-69500D02*
D03*
X-180000Y-93000D02*
D03*
X-142000Y-45000D02*
D03*
X-170500Y-93000D02*
D03*
X-142500Y-54500D02*
D03*
X-168500Y-200000D02*
D03*
X-12500Y-332500D02*
D03*
X-64000Y-44000D02*
D03*
X-139000Y-248000D02*
D03*
X-142000Y-231000D02*
D03*
X-22000Y-258000D02*
D03*
X-158000Y-215500D02*
D03*
X-132000D02*
D03*
X-183000Y-247000D02*
D03*
X-142000Y-222000D02*
D03*
X-195000Y-249000D02*
D03*
D31*
X-160000Y-280000D02*
D03*
X0D02*
D03*
Y0D02*
D03*
Y-228346D02*
D03*
X-192913D02*
D03*
Y0D02*
D03*
M02*
