%FSLAX25Y25*%
%MOIN*%
G70*
G01*
G75*
G04 Layer_Physical_Order=1*
G04 Layer_Color=255*
%ADD10R,0.02717X0.04724*%
%ADD11R,0.03543X0.03150*%
%ADD12R,0.03150X0.03543*%
%ADD13C,0.01969*%
%ADD14C,0.01000*%
%ADD15R,0.06000X0.06000*%
%ADD16C,0.06000*%
%ADD17R,0.06000X0.06000*%
%ADD18C,0.05000*%
%ADD19C,0.24410*%
G36*
X-206800Y13829D02*
Y13800D01*
X13600D01*
Y-349147D01*
X13138Y-349338D01*
X13100Y-349300D01*
X-206800D01*
Y13800D01*
X-206850Y13850D01*
X-206800Y13829D01*
D02*
G37*
%LPC*%
G36*
X-6031Y-150500D02*
X-9500D01*
Y-153969D01*
X-8956Y-153897D01*
X-7983Y-153494D01*
X-7147Y-152853D01*
X-6506Y-152017D01*
X-6103Y-151044D01*
X-6031Y-150500D01*
D02*
G37*
G36*
X-10500D02*
X-13969D01*
X-13897Y-151044D01*
X-13494Y-152017D01*
X-12853Y-152853D01*
X-12017Y-153494D01*
X-11044Y-153897D01*
X-10500Y-153969D01*
Y-150500D01*
D02*
G37*
G36*
X-140500Y-146031D02*
X-141044Y-146103D01*
X-142017Y-146506D01*
X-142853Y-147147D01*
X-143494Y-147983D01*
X-143897Y-148956D01*
X-143969Y-149500D01*
X-140500D01*
Y-146031D01*
D02*
G37*
G36*
X-149500D02*
Y-149500D01*
X-146031D01*
X-146103Y-148956D01*
X-146506Y-147983D01*
X-147147Y-147147D01*
X-147983Y-146506D01*
X-148956Y-146103D01*
X-149500Y-146031D01*
D02*
G37*
G36*
X-26031Y-150500D02*
X-29500D01*
Y-153969D01*
X-28956Y-153897D01*
X-27983Y-153494D01*
X-27147Y-152853D01*
X-26506Y-152017D01*
X-26103Y-151044D01*
X-26031Y-150500D01*
D02*
G37*
G36*
X-30500D02*
X-33969D01*
X-33897Y-151044D01*
X-33494Y-152017D01*
X-32853Y-152853D01*
X-32017Y-153494D01*
X-31044Y-153897D01*
X-30500Y-153969D01*
Y-150500D01*
D02*
G37*
G36*
X-16031D02*
X-19500D01*
Y-153969D01*
X-18956Y-153897D01*
X-17983Y-153494D01*
X-17147Y-152853D01*
X-16506Y-152017D01*
X-16103Y-151044D01*
X-16031Y-150500D01*
D02*
G37*
G36*
X-20500D02*
X-23969D01*
X-23897Y-151044D01*
X-23494Y-152017D01*
X-22853Y-152853D01*
X-22017Y-153494D01*
X-21044Y-153897D01*
X-20500Y-153969D01*
Y-150500D01*
D02*
G37*
G36*
X-110500Y-146031D02*
X-111044Y-146103D01*
X-112017Y-146506D01*
X-112853Y-147147D01*
X-113494Y-147983D01*
X-113897Y-148956D01*
X-113969Y-149500D01*
X-110500D01*
Y-146031D01*
D02*
G37*
G36*
X-119500D02*
Y-149500D01*
X-116031D01*
X-116103Y-148956D01*
X-116506Y-147983D01*
X-117147Y-147147D01*
X-117983Y-146506D01*
X-118956Y-146103D01*
X-119500Y-146031D01*
D02*
G37*
G36*
X-100500D02*
X-101044Y-146103D01*
X-102017Y-146506D01*
X-102853Y-147147D01*
X-103494Y-147983D01*
X-103897Y-148956D01*
X-103969Y-149500D01*
X-100500D01*
Y-146031D01*
D02*
G37*
G36*
X-109500D02*
Y-149500D01*
X-106031D01*
X-106103Y-148956D01*
X-106506Y-147983D01*
X-107147Y-147147D01*
X-107983Y-146506D01*
X-108956Y-146103D01*
X-109500Y-146031D01*
D02*
G37*
G36*
X-130500D02*
X-131044Y-146103D01*
X-132017Y-146506D01*
X-132853Y-147147D01*
X-133494Y-147983D01*
X-133897Y-148956D01*
X-133969Y-149500D01*
X-130500D01*
Y-146031D01*
D02*
G37*
G36*
X-139500D02*
Y-149500D01*
X-136031D01*
X-136103Y-148956D01*
X-136506Y-147983D01*
X-137147Y-147147D01*
X-137983Y-146506D01*
X-138956Y-146103D01*
X-139500Y-146031D01*
D02*
G37*
G36*
X-120500D02*
X-121044Y-146103D01*
X-122017Y-146506D01*
X-122853Y-147147D01*
X-123494Y-147983D01*
X-123897Y-148956D01*
X-123969Y-149500D01*
X-120500D01*
Y-146031D01*
D02*
G37*
G36*
X-129500D02*
Y-149500D01*
X-126031D01*
X-126103Y-148956D01*
X-126506Y-147983D01*
X-127147Y-147147D01*
X-127983Y-146506D01*
X-128956Y-146103D01*
X-129500Y-146031D01*
D02*
G37*
G36*
X-86031Y-150500D02*
X-89500D01*
Y-153969D01*
X-88956Y-153897D01*
X-87983Y-153494D01*
X-87147Y-152853D01*
X-86506Y-152017D01*
X-86103Y-151044D01*
X-86031Y-150500D01*
D02*
G37*
G36*
X-90500D02*
X-93969D01*
X-93897Y-151044D01*
X-93494Y-152017D01*
X-92853Y-152853D01*
X-92017Y-153494D01*
X-91044Y-153897D01*
X-90500Y-153969D01*
Y-150500D01*
D02*
G37*
G36*
X-76031D02*
X-79500D01*
Y-153969D01*
X-78956Y-153897D01*
X-77983Y-153494D01*
X-77147Y-152853D01*
X-76506Y-152017D01*
X-76103Y-151044D01*
X-76031Y-150500D01*
D02*
G37*
G36*
X-80500D02*
X-83969D01*
X-83897Y-151044D01*
X-83494Y-152017D01*
X-82853Y-152853D01*
X-82017Y-153494D01*
X-81044Y-153897D01*
X-80500Y-153969D01*
Y-150500D01*
D02*
G37*
G36*
X-106031D02*
X-109500D01*
Y-153969D01*
X-108956Y-153897D01*
X-107983Y-153494D01*
X-107147Y-152853D01*
X-106506Y-152017D01*
X-106103Y-151044D01*
X-106031Y-150500D01*
D02*
G37*
G36*
X-110500D02*
X-113969D01*
X-113897Y-151044D01*
X-113494Y-152017D01*
X-112853Y-152853D01*
X-112017Y-153494D01*
X-111044Y-153897D01*
X-110500Y-153969D01*
Y-150500D01*
D02*
G37*
G36*
X-96031D02*
X-99500D01*
Y-153969D01*
X-98956Y-153897D01*
X-97983Y-153494D01*
X-97147Y-152853D01*
X-96506Y-152017D01*
X-96103Y-151044D01*
X-96031Y-150500D01*
D02*
G37*
G36*
X-100500D02*
X-103969D01*
X-103897Y-151044D01*
X-103494Y-152017D01*
X-102853Y-152853D01*
X-102017Y-153494D01*
X-101044Y-153897D01*
X-100500Y-153969D01*
Y-150500D01*
D02*
G37*
G36*
X-46031D02*
X-49500D01*
Y-153969D01*
X-48956Y-153897D01*
X-47983Y-153494D01*
X-47147Y-152853D01*
X-46506Y-152017D01*
X-46103Y-151044D01*
X-46031Y-150500D01*
D02*
G37*
G36*
X-50500D02*
X-53969D01*
X-53897Y-151044D01*
X-53494Y-152017D01*
X-52853Y-152853D01*
X-52017Y-153494D01*
X-51044Y-153897D01*
X-50500Y-153969D01*
Y-150500D01*
D02*
G37*
G36*
X-36031D02*
X-39500D01*
Y-153969D01*
X-38956Y-153897D01*
X-37983Y-153494D01*
X-37147Y-152853D01*
X-36506Y-152017D01*
X-36103Y-151044D01*
X-36031Y-150500D01*
D02*
G37*
G36*
X-40500D02*
X-43969D01*
X-43897Y-151044D01*
X-43494Y-152017D01*
X-42853Y-152853D01*
X-42017Y-153494D01*
X-41044Y-153897D01*
X-40500Y-153969D01*
Y-150500D01*
D02*
G37*
G36*
X-66031D02*
X-69500D01*
Y-153969D01*
X-68956Y-153897D01*
X-67983Y-153494D01*
X-67147Y-152853D01*
X-66506Y-152017D01*
X-66103Y-151044D01*
X-66031Y-150500D01*
D02*
G37*
G36*
X-70500D02*
X-73969D01*
X-73897Y-151044D01*
X-73494Y-152017D01*
X-72853Y-152853D01*
X-72017Y-153494D01*
X-71044Y-153897D01*
X-70500Y-153969D01*
Y-150500D01*
D02*
G37*
G36*
X-56031D02*
X-59500D01*
Y-153969D01*
X-58956Y-153897D01*
X-57983Y-153494D01*
X-57147Y-152853D01*
X-56506Y-152017D01*
X-56103Y-151044D01*
X-56031Y-150500D01*
D02*
G37*
G36*
X-60500D02*
X-63969D01*
X-63897Y-151044D01*
X-63494Y-152017D01*
X-62853Y-152853D01*
X-62017Y-153494D01*
X-61044Y-153897D01*
X-60500Y-153969D01*
Y-150500D01*
D02*
G37*
G36*
X-120000Y-136180D02*
X-120989Y-136310D01*
X-121910Y-136692D01*
X-122701Y-137299D01*
X-123308Y-138090D01*
X-123690Y-139011D01*
X-123820Y-140000D01*
X-123690Y-140989D01*
X-123308Y-141910D01*
X-122701Y-142701D01*
X-121910Y-143308D01*
X-120989Y-143690D01*
X-120000Y-143820D01*
X-119011Y-143690D01*
X-118090Y-143308D01*
X-117299Y-142701D01*
X-116692Y-141910D01*
X-116310Y-140989D01*
X-116180Y-140000D01*
X-116310Y-139011D01*
X-116692Y-138090D01*
X-117299Y-137299D01*
X-118090Y-136692D01*
X-119011Y-136310D01*
X-120000Y-136180D01*
D02*
G37*
G36*
X-130000D02*
X-130989Y-136310D01*
X-131910Y-136692D01*
X-132701Y-137299D01*
X-133308Y-138090D01*
X-133690Y-139011D01*
X-133820Y-140000D01*
X-133690Y-140989D01*
X-133308Y-141910D01*
X-132701Y-142701D01*
X-131910Y-143308D01*
X-130989Y-143690D01*
X-130000Y-143820D01*
X-129011Y-143690D01*
X-128090Y-143308D01*
X-127299Y-142701D01*
X-126692Y-141910D01*
X-126310Y-140989D01*
X-126180Y-140000D01*
X-126310Y-139011D01*
X-126692Y-138090D01*
X-127299Y-137299D01*
X-128090Y-136692D01*
X-129011Y-136310D01*
X-130000Y-136180D01*
D02*
G37*
G36*
X-100000D02*
X-100989Y-136310D01*
X-101910Y-136692D01*
X-102701Y-137299D01*
X-103308Y-138090D01*
X-103690Y-139011D01*
X-103820Y-140000D01*
X-103690Y-140989D01*
X-103308Y-141910D01*
X-102701Y-142701D01*
X-101910Y-143308D01*
X-100989Y-143690D01*
X-100000Y-143820D01*
X-99011Y-143690D01*
X-98090Y-143308D01*
X-97299Y-142701D01*
X-96692Y-141910D01*
X-96310Y-140989D01*
X-96180Y-140000D01*
X-96310Y-139011D01*
X-96692Y-138090D01*
X-97299Y-137299D01*
X-98090Y-136692D01*
X-99011Y-136310D01*
X-100000Y-136180D01*
D02*
G37*
G36*
X-110000D02*
X-110989Y-136310D01*
X-111910Y-136692D01*
X-112701Y-137299D01*
X-113308Y-138090D01*
X-113690Y-139011D01*
X-113820Y-140000D01*
X-113690Y-140989D01*
X-113308Y-141910D01*
X-112701Y-142701D01*
X-111910Y-143308D01*
X-110989Y-143690D01*
X-110000Y-143820D01*
X-109011Y-143690D01*
X-108090Y-143308D01*
X-107299Y-142701D01*
X-106692Y-141910D01*
X-106310Y-140989D01*
X-106180Y-140000D01*
X-106310Y-139011D01*
X-106692Y-138090D01*
X-107299Y-137299D01*
X-108090Y-136692D01*
X-109011Y-136310D01*
X-110000Y-136180D01*
D02*
G37*
G36*
X-10500Y-146031D02*
X-11044Y-146103D01*
X-12017Y-146506D01*
X-12853Y-147147D01*
X-13494Y-147983D01*
X-13897Y-148956D01*
X-13969Y-149500D01*
X-10500D01*
Y-146031D01*
D02*
G37*
G36*
X-19500D02*
Y-149500D01*
X-16031D01*
X-16103Y-148956D01*
X-16506Y-147983D01*
X-17147Y-147147D01*
X-17983Y-146506D01*
X-18956Y-146103D01*
X-19500Y-146031D01*
D02*
G37*
G36*
X-150000Y-136180D02*
X-150989Y-136310D01*
X-151910Y-136692D01*
X-152701Y-137299D01*
X-153308Y-138090D01*
X-153690Y-139011D01*
X-153820Y-140000D01*
X-153690Y-140989D01*
X-153308Y-141910D01*
X-152701Y-142701D01*
X-151910Y-143308D01*
X-150989Y-143690D01*
X-150000Y-143820D01*
X-149011Y-143690D01*
X-148090Y-143308D01*
X-147299Y-142701D01*
X-146692Y-141910D01*
X-146310Y-140989D01*
X-146180Y-140000D01*
X-146310Y-139011D01*
X-146692Y-138090D01*
X-147299Y-137299D01*
X-148090Y-136692D01*
X-149011Y-136310D01*
X-150000Y-136180D01*
D02*
G37*
G36*
X-9500Y-146031D02*
Y-149500D01*
X-6031D01*
X-6103Y-148956D01*
X-6506Y-147983D01*
X-7147Y-147147D01*
X-7983Y-146506D01*
X-8956Y-146103D01*
X-9500Y-146031D01*
D02*
G37*
G36*
X-40000Y-136180D02*
X-40989Y-136310D01*
X-41910Y-136692D01*
X-42701Y-137299D01*
X-43308Y-138090D01*
X-43690Y-139011D01*
X-43820Y-140000D01*
X-43690Y-140989D01*
X-43308Y-141910D01*
X-42701Y-142701D01*
X-41910Y-143308D01*
X-40989Y-143690D01*
X-40000Y-143820D01*
X-39011Y-143690D01*
X-38090Y-143308D01*
X-37299Y-142701D01*
X-36692Y-141910D01*
X-36310Y-140989D01*
X-36180Y-140000D01*
X-36310Y-139011D01*
X-36692Y-138090D01*
X-37299Y-137299D01*
X-38090Y-136692D01*
X-39011Y-136310D01*
X-40000Y-136180D01*
D02*
G37*
G36*
X-50000D02*
X-50989Y-136310D01*
X-51910Y-136692D01*
X-52701Y-137299D01*
X-53308Y-138090D01*
X-53690Y-139011D01*
X-53820Y-140000D01*
X-53690Y-140989D01*
X-53308Y-141910D01*
X-52701Y-142701D01*
X-51910Y-143308D01*
X-50989Y-143690D01*
X-50000Y-143820D01*
X-49011Y-143690D01*
X-48090Y-143308D01*
X-47299Y-142701D01*
X-46692Y-141910D01*
X-46310Y-140989D01*
X-46180Y-140000D01*
X-46310Y-139011D01*
X-46692Y-138090D01*
X-47299Y-137299D01*
X-48090Y-136692D01*
X-49011Y-136310D01*
X-50000Y-136180D01*
D02*
G37*
G36*
X-20000D02*
X-20989Y-136310D01*
X-21910Y-136692D01*
X-22701Y-137299D01*
X-23308Y-138090D01*
X-23690Y-139011D01*
X-23820Y-140000D01*
X-23690Y-140989D01*
X-23308Y-141910D01*
X-22701Y-142701D01*
X-21910Y-143308D01*
X-20989Y-143690D01*
X-20000Y-143820D01*
X-19011Y-143690D01*
X-18090Y-143308D01*
X-17299Y-142701D01*
X-16692Y-141910D01*
X-16310Y-140989D01*
X-16180Y-140000D01*
X-16310Y-139011D01*
X-16692Y-138090D01*
X-17299Y-137299D01*
X-18090Y-136692D01*
X-19011Y-136310D01*
X-20000Y-136180D01*
D02*
G37*
G36*
X-30000D02*
X-30989Y-136310D01*
X-31910Y-136692D01*
X-32701Y-137299D01*
X-33308Y-138090D01*
X-33690Y-139011D01*
X-33820Y-140000D01*
X-33690Y-140989D01*
X-33308Y-141910D01*
X-32701Y-142701D01*
X-31910Y-143308D01*
X-30989Y-143690D01*
X-30000Y-143820D01*
X-29011Y-143690D01*
X-28090Y-143308D01*
X-27299Y-142701D01*
X-26692Y-141910D01*
X-26310Y-140989D01*
X-26180Y-140000D01*
X-26310Y-139011D01*
X-26692Y-138090D01*
X-27299Y-137299D01*
X-28090Y-136692D01*
X-29011Y-136310D01*
X-30000Y-136180D01*
D02*
G37*
G36*
X-80000D02*
X-80989Y-136310D01*
X-81910Y-136692D01*
X-82701Y-137299D01*
X-83308Y-138090D01*
X-83690Y-139011D01*
X-83820Y-140000D01*
X-83690Y-140989D01*
X-83308Y-141910D01*
X-82701Y-142701D01*
X-81910Y-143308D01*
X-80989Y-143690D01*
X-80000Y-143820D01*
X-79011Y-143690D01*
X-78090Y-143308D01*
X-77299Y-142701D01*
X-76692Y-141910D01*
X-76310Y-140989D01*
X-76180Y-140000D01*
X-76310Y-139011D01*
X-76692Y-138090D01*
X-77299Y-137299D01*
X-78090Y-136692D01*
X-79011Y-136310D01*
X-80000Y-136180D01*
D02*
G37*
G36*
X-90000D02*
X-90989Y-136310D01*
X-91910Y-136692D01*
X-92701Y-137299D01*
X-93308Y-138090D01*
X-93690Y-139011D01*
X-93820Y-140000D01*
X-93690Y-140989D01*
X-93308Y-141910D01*
X-92701Y-142701D01*
X-91910Y-143308D01*
X-90989Y-143690D01*
X-90000Y-143820D01*
X-89011Y-143690D01*
X-88090Y-143308D01*
X-87299Y-142701D01*
X-86692Y-141910D01*
X-86310Y-140989D01*
X-86180Y-140000D01*
X-86310Y-139011D01*
X-86692Y-138090D01*
X-87299Y-137299D01*
X-88090Y-136692D01*
X-89011Y-136310D01*
X-90000Y-136180D01*
D02*
G37*
G36*
X-60000D02*
X-60989Y-136310D01*
X-61910Y-136692D01*
X-62701Y-137299D01*
X-63308Y-138090D01*
X-63690Y-139011D01*
X-63820Y-140000D01*
X-63690Y-140989D01*
X-63308Y-141910D01*
X-62701Y-142701D01*
X-61910Y-143308D01*
X-60989Y-143690D01*
X-60000Y-143820D01*
X-59011Y-143690D01*
X-58090Y-143308D01*
X-57299Y-142701D01*
X-56692Y-141910D01*
X-56310Y-140989D01*
X-56180Y-140000D01*
X-56310Y-139011D01*
X-56692Y-138090D01*
X-57299Y-137299D01*
X-58090Y-136692D01*
X-59011Y-136310D01*
X-60000Y-136180D01*
D02*
G37*
G36*
X-70000D02*
X-70989Y-136310D01*
X-71910Y-136692D01*
X-72701Y-137299D01*
X-73308Y-138090D01*
X-73690Y-139011D01*
X-73820Y-140000D01*
X-73690Y-140989D01*
X-73308Y-141910D01*
X-72701Y-142701D01*
X-71910Y-143308D01*
X-70989Y-143690D01*
X-70000Y-143820D01*
X-69011Y-143690D01*
X-68090Y-143308D01*
X-67299Y-142701D01*
X-66692Y-141910D01*
X-66310Y-140989D01*
X-66180Y-140000D01*
X-66310Y-139011D01*
X-66692Y-138090D01*
X-67299Y-137299D01*
X-68090Y-136692D01*
X-69011Y-136310D01*
X-70000Y-136180D01*
D02*
G37*
G36*
X-70500Y-146031D02*
X-71044Y-146103D01*
X-72017Y-146506D01*
X-72853Y-147147D01*
X-73494Y-147983D01*
X-73897Y-148956D01*
X-73969Y-149500D01*
X-70500D01*
Y-146031D01*
D02*
G37*
G36*
X-79500D02*
Y-149500D01*
X-76031D01*
X-76103Y-148956D01*
X-76506Y-147983D01*
X-77147Y-147147D01*
X-77983Y-146506D01*
X-78956Y-146103D01*
X-79500Y-146031D01*
D02*
G37*
G36*
X-60500D02*
X-61044Y-146103D01*
X-62017Y-146506D01*
X-62853Y-147147D01*
X-63494Y-147983D01*
X-63897Y-148956D01*
X-63969Y-149500D01*
X-60500D01*
Y-146031D01*
D02*
G37*
G36*
X-69500D02*
Y-149500D01*
X-66031D01*
X-66103Y-148956D01*
X-66506Y-147983D01*
X-67147Y-147147D01*
X-67983Y-146506D01*
X-68956Y-146103D01*
X-69500Y-146031D01*
D02*
G37*
G36*
X-90500D02*
X-91044Y-146103D01*
X-92017Y-146506D01*
X-92853Y-147147D01*
X-93494Y-147983D01*
X-93897Y-148956D01*
X-93969Y-149500D01*
X-90500D01*
Y-146031D01*
D02*
G37*
G36*
X-99500D02*
Y-149500D01*
X-96031D01*
X-96103Y-148956D01*
X-96506Y-147983D01*
X-97147Y-147147D01*
X-97983Y-146506D01*
X-98956Y-146103D01*
X-99500Y-146031D01*
D02*
G37*
G36*
X-80500D02*
X-81044Y-146103D01*
X-82017Y-146506D01*
X-82853Y-147147D01*
X-83494Y-147983D01*
X-83897Y-148956D01*
X-83969Y-149500D01*
X-80500D01*
Y-146031D01*
D02*
G37*
G36*
X-89500D02*
Y-149500D01*
X-86031D01*
X-86103Y-148956D01*
X-86506Y-147983D01*
X-87147Y-147147D01*
X-87983Y-146506D01*
X-88956Y-146103D01*
X-89500Y-146031D01*
D02*
G37*
G36*
X-30500D02*
X-31044Y-146103D01*
X-32017Y-146506D01*
X-32853Y-147147D01*
X-33494Y-147983D01*
X-33897Y-148956D01*
X-33969Y-149500D01*
X-30500D01*
Y-146031D01*
D02*
G37*
G36*
X-39500D02*
Y-149500D01*
X-36031D01*
X-36103Y-148956D01*
X-36506Y-147983D01*
X-37147Y-147147D01*
X-37983Y-146506D01*
X-38956Y-146103D01*
X-39500Y-146031D01*
D02*
G37*
G36*
X-20500D02*
X-21044Y-146103D01*
X-22017Y-146506D01*
X-22853Y-147147D01*
X-23494Y-147983D01*
X-23897Y-148956D01*
X-23969Y-149500D01*
X-20500D01*
Y-146031D01*
D02*
G37*
G36*
X-29500D02*
Y-149500D01*
X-26031D01*
X-26103Y-148956D01*
X-26506Y-147983D01*
X-27147Y-147147D01*
X-27983Y-146506D01*
X-28956Y-146103D01*
X-29500Y-146031D01*
D02*
G37*
G36*
X-50500D02*
X-51044Y-146103D01*
X-52017Y-146506D01*
X-52853Y-147147D01*
X-53494Y-147983D01*
X-53897Y-148956D01*
X-53969Y-149500D01*
X-50500D01*
Y-146031D01*
D02*
G37*
G36*
X-59500D02*
Y-149500D01*
X-56031D01*
X-56103Y-148956D01*
X-56506Y-147983D01*
X-57147Y-147147D01*
X-57983Y-146506D01*
X-58956Y-146103D01*
X-59500Y-146031D01*
D02*
G37*
G36*
X-40500D02*
X-41044Y-146103D01*
X-42017Y-146506D01*
X-42853Y-147147D01*
X-43494Y-147983D01*
X-43897Y-148956D01*
X-43969Y-149500D01*
X-40500D01*
Y-146031D01*
D02*
G37*
G36*
X-49500D02*
Y-149500D01*
X-46031D01*
X-46103Y-148956D01*
X-46506Y-147983D01*
X-47147Y-147147D01*
X-47983Y-146506D01*
X-48956Y-146103D01*
X-49500Y-146031D01*
D02*
G37*
G36*
X-500Y-316031D02*
X-1044Y-316103D01*
X-2017Y-316506D01*
X-2853Y-317147D01*
X-3494Y-317983D01*
X-3897Y-318956D01*
X-3969Y-319500D01*
X-500D01*
Y-316031D01*
D02*
G37*
G36*
X-29500D02*
Y-319500D01*
X-26031D01*
X-26103Y-318956D01*
X-26506Y-317983D01*
X-27147Y-317147D01*
X-27983Y-316506D01*
X-28956Y-316103D01*
X-29500Y-316031D01*
D02*
G37*
G36*
X-190500Y-300500D02*
X-193969D01*
X-193897Y-301044D01*
X-193494Y-302017D01*
X-192853Y-302853D01*
X-192017Y-303494D01*
X-191044Y-303897D01*
X-190500Y-303969D01*
Y-300500D01*
D02*
G37*
G36*
X500Y-316031D02*
Y-319500D01*
X3969D01*
X3897Y-318956D01*
X3494Y-317983D01*
X2853Y-317147D01*
X2017Y-316506D01*
X1044Y-316103D01*
X500Y-316031D01*
D02*
G37*
G36*
X-60500D02*
X-61044Y-316103D01*
X-62017Y-316506D01*
X-62853Y-317147D01*
X-63494Y-317983D01*
X-63897Y-318956D01*
X-63969Y-319500D01*
X-60500D01*
Y-316031D01*
D02*
G37*
G36*
X-17441Y-295394D02*
X-22559D01*
Y-300118D01*
X-21313D01*
Y-310000D01*
X-21213Y-310502D01*
X-20928Y-310928D01*
X-20928D01*
Y-310928D01*
X-13787Y-318069D01*
Y-323787D01*
X-6213D01*
Y-316213D01*
X-11931D01*
X-18687Y-309456D01*
Y-300118D01*
X-17441D01*
Y-295394D01*
D02*
G37*
G36*
X-30500Y-316031D02*
X-31044Y-316103D01*
X-32017Y-316506D01*
X-32853Y-317147D01*
X-33494Y-317983D01*
X-33897Y-318956D01*
X-33969Y-319500D01*
X-30500D01*
Y-316031D01*
D02*
G37*
G36*
X-59500D02*
Y-319500D01*
X-56031D01*
X-56103Y-318956D01*
X-56506Y-317983D01*
X-57147Y-317147D01*
X-57983Y-316506D01*
X-58956Y-316103D01*
X-59500Y-316031D01*
D02*
G37*
G36*
X-22000Y-254684D02*
X-22858Y-254797D01*
X-23658Y-255129D01*
X-24345Y-255655D01*
X-24871Y-256342D01*
X-25203Y-257142D01*
X-25316Y-258000D01*
X-25203Y-258858D01*
X-24871Y-259658D01*
X-24345Y-260345D01*
X-23658Y-260872D01*
X-22858Y-261203D01*
X-22813Y-261209D01*
Y-277500D01*
X-22713Y-278002D01*
X-22428Y-278428D01*
X-21313Y-279544D01*
Y-289882D01*
X-22559D01*
Y-294606D01*
X-17441D01*
Y-289882D01*
X-18687D01*
Y-279000D01*
X-18787Y-278498D01*
X-18901Y-278327D01*
X-19072Y-278072D01*
X-20187Y-276956D01*
Y-260753D01*
X-19655Y-260345D01*
X-19128Y-259658D01*
X-18797Y-258858D01*
X-18684Y-258000D01*
X-18797Y-257142D01*
X-19128Y-256342D01*
X-19655Y-255655D01*
X-20342Y-255129D01*
X-21142Y-254797D01*
X-22000Y-254684D01*
D02*
G37*
G36*
X-40000Y-255684D02*
X-40858Y-255797D01*
X-41658Y-256129D01*
X-42345Y-256655D01*
X-42871Y-257342D01*
X-43203Y-258142D01*
X-43316Y-259000D01*
X-43203Y-259858D01*
X-42871Y-260658D01*
X-42345Y-261345D01*
X-41658Y-261872D01*
X-41313Y-262015D01*
Y-289882D01*
X-42559D01*
Y-294606D01*
X-37441D01*
Y-289882D01*
X-38687D01*
Y-262015D01*
X-38342Y-261872D01*
X-37655Y-261345D01*
X-37128Y-260658D01*
X-36797Y-259858D01*
X-36684Y-259000D01*
X-36797Y-258142D01*
X-37128Y-257342D01*
X-37655Y-256655D01*
X-38342Y-256129D01*
X-39142Y-255797D01*
X-40000Y-255684D01*
D02*
G37*
G36*
X0Y-266968D02*
X-2039Y-267128D01*
X-4027Y-267606D01*
X-5917Y-268388D01*
X-7660Y-269457D01*
X-9215Y-270785D01*
X-10543Y-272340D01*
X-11612Y-274083D01*
X-12394Y-275973D01*
X-12872Y-277961D01*
X-13032Y-280000D01*
X-12872Y-282039D01*
X-12394Y-284027D01*
X-11612Y-285916D01*
X-10543Y-287660D01*
X-9215Y-289215D01*
X-7660Y-290543D01*
X-5917Y-291612D01*
X-4027Y-292394D01*
X-2039Y-292872D01*
X0Y-293032D01*
X2039Y-292872D01*
X4027Y-292394D01*
X5917Y-291612D01*
X7660Y-290543D01*
X9215Y-289215D01*
X10543Y-287660D01*
X11612Y-285916D01*
X12394Y-284027D01*
X12872Y-282039D01*
X13032Y-280000D01*
X12872Y-277961D01*
X12394Y-275973D01*
X11612Y-274083D01*
X10543Y-272340D01*
X9215Y-270785D01*
X7660Y-269457D01*
X5917Y-268388D01*
X4027Y-267606D01*
X2039Y-267128D01*
X0Y-266968D01*
D02*
G37*
G36*
X-160000D02*
X-162039Y-267128D01*
X-164027Y-267606D01*
X-165917Y-268388D01*
X-167660Y-269457D01*
X-169215Y-270785D01*
X-170543Y-272340D01*
X-171612Y-274083D01*
X-172394Y-275973D01*
X-172872Y-277961D01*
X-173032Y-280000D01*
X-172872Y-282039D01*
X-172394Y-284027D01*
X-171612Y-285916D01*
X-170543Y-287660D01*
X-169215Y-289215D01*
X-167660Y-290543D01*
X-165917Y-291612D01*
X-164027Y-292394D01*
X-162039Y-292872D01*
X-160000Y-293032D01*
X-157961Y-292872D01*
X-155973Y-292394D01*
X-154084Y-291612D01*
X-152340Y-290543D01*
X-150785Y-289215D01*
X-149457Y-287660D01*
X-148388Y-285916D01*
X-147606Y-284027D01*
X-147128Y-282039D01*
X-146968Y-280000D01*
X-147128Y-277961D01*
X-147606Y-275973D01*
X-148388Y-274083D01*
X-149457Y-272340D01*
X-150785Y-270785D01*
X-152340Y-269457D01*
X-154084Y-268388D01*
X-155973Y-267606D01*
X-157961Y-267128D01*
X-160000Y-266968D01*
D02*
G37*
G36*
X-190500Y-296031D02*
X-191044Y-296103D01*
X-192017Y-296506D01*
X-192853Y-297147D01*
X-193494Y-297983D01*
X-193897Y-298956D01*
X-193969Y-299500D01*
X-190500D01*
Y-296031D01*
D02*
G37*
G36*
X-186031Y-300500D02*
X-189500D01*
Y-303969D01*
X-188956Y-303897D01*
X-187983Y-303494D01*
X-187147Y-302853D01*
X-186506Y-302017D01*
X-186103Y-301044D01*
X-186031Y-300500D01*
D02*
G37*
G36*
X-69500Y-255684D02*
X-70358Y-255797D01*
X-71158Y-256129D01*
X-71845Y-256655D01*
X-72372Y-257342D01*
X-72703Y-258142D01*
X-72816Y-259000D01*
X-72703Y-259858D01*
X-72372Y-260658D01*
X-71845Y-261345D01*
X-71158Y-261872D01*
X-70813Y-262015D01*
Y-289882D01*
X-72559D01*
Y-294606D01*
X-67441D01*
Y-289882D01*
X-68187D01*
Y-262015D01*
X-67842Y-261872D01*
X-67155Y-261345D01*
X-66628Y-260658D01*
X-66297Y-259858D01*
X-66184Y-259000D01*
X-66297Y-258142D01*
X-66628Y-257342D01*
X-67155Y-256655D01*
X-67842Y-256129D01*
X-68642Y-255797D01*
X-69500Y-255684D01*
D02*
G37*
G36*
X-189500Y-296031D02*
Y-299500D01*
X-186031D01*
X-186103Y-298956D01*
X-186506Y-297983D01*
X-187147Y-297147D01*
X-187983Y-296506D01*
X-188956Y-296103D01*
X-189500Y-296031D01*
D02*
G37*
G36*
X-9036Y-333000D02*
X-12000D01*
Y-335964D01*
X-11586Y-335910D01*
X-10735Y-335557D01*
X-10004Y-334996D01*
X-9443Y-334265D01*
X-9090Y-333414D01*
X-9036Y-333000D01*
D02*
G37*
G36*
X-13000D02*
X-15964D01*
X-15910Y-333414D01*
X-15557Y-334265D01*
X-14996Y-334996D01*
X-14265Y-335557D01*
X-13414Y-335910D01*
X-13000Y-335964D01*
Y-333000D01*
D02*
G37*
G36*
X-12000Y-329036D02*
Y-332000D01*
X-9036D01*
X-9090Y-331586D01*
X-9443Y-330735D01*
X-10004Y-330004D01*
X-10735Y-329443D01*
X-11586Y-329090D01*
X-12000Y-329036D01*
D02*
G37*
G36*
X-13000D02*
X-13414Y-329090D01*
X-14265Y-329443D01*
X-14996Y-330004D01*
X-15557Y-330735D01*
X-15910Y-331586D01*
X-15964Y-332000D01*
X-13000D01*
Y-329036D01*
D02*
G37*
G36*
X-186031Y-340500D02*
X-189500D01*
Y-343969D01*
X-188956Y-343897D01*
X-187983Y-343494D01*
X-187147Y-342853D01*
X-186506Y-342017D01*
X-186103Y-341044D01*
X-186031Y-340500D01*
D02*
G37*
G36*
X-190500D02*
X-193969D01*
X-193897Y-341044D01*
X-193494Y-342017D01*
X-192853Y-342853D01*
X-192017Y-343494D01*
X-191044Y-343897D01*
X-190500Y-343969D01*
Y-340500D01*
D02*
G37*
G36*
X-189500Y-336031D02*
Y-339500D01*
X-186031D01*
X-186103Y-338956D01*
X-186506Y-337983D01*
X-187147Y-337147D01*
X-187983Y-336506D01*
X-188956Y-336103D01*
X-189500Y-336031D01*
D02*
G37*
G36*
X-190500D02*
X-191044Y-336103D01*
X-192017Y-336506D01*
X-192853Y-337147D01*
X-193494Y-337983D01*
X-193897Y-338956D01*
X-193969Y-339500D01*
X-190500D01*
Y-336031D01*
D02*
G37*
G36*
X3969Y-320500D02*
X500D01*
Y-323969D01*
X1044Y-323897D01*
X2017Y-323494D01*
X2853Y-322853D01*
X3494Y-322017D01*
X3897Y-321044D01*
X3969Y-320500D01*
D02*
G37*
G36*
X-500D02*
X-3969D01*
X-3897Y-321044D01*
X-3494Y-322017D01*
X-2853Y-322853D01*
X-2017Y-323494D01*
X-1044Y-323897D01*
X-500Y-323969D01*
Y-320500D01*
D02*
G37*
G36*
X-37441Y-295394D02*
X-42559D01*
Y-300118D01*
X-41313D01*
Y-316213D01*
X-43787D01*
Y-323787D01*
X-36213D01*
Y-316213D01*
X-38687D01*
Y-300118D01*
X-37441D01*
Y-295394D01*
D02*
G37*
G36*
X-67441D02*
X-72559D01*
Y-300118D01*
X-71313D01*
Y-316213D01*
X-73787D01*
Y-323787D01*
X-66213D01*
Y-316213D01*
X-68687D01*
Y-300118D01*
X-67441D01*
Y-295394D01*
D02*
G37*
G36*
X-56031Y-320500D02*
X-59500D01*
Y-323969D01*
X-58956Y-323897D01*
X-57983Y-323494D01*
X-57147Y-322853D01*
X-56506Y-322017D01*
X-56103Y-321044D01*
X-56031Y-320500D01*
D02*
G37*
G36*
X-60500D02*
X-63969D01*
X-63897Y-321044D01*
X-63494Y-322017D01*
X-62853Y-322853D01*
X-62017Y-323494D01*
X-61044Y-323897D01*
X-60500Y-323969D01*
Y-320500D01*
D02*
G37*
G36*
X-26031D02*
X-29500D01*
Y-323969D01*
X-28956Y-323897D01*
X-27983Y-323494D01*
X-27147Y-322853D01*
X-26506Y-322017D01*
X-26103Y-321044D01*
X-26031Y-320500D01*
D02*
G37*
G36*
X-30500D02*
X-33969D01*
X-33897Y-321044D01*
X-33494Y-322017D01*
X-32853Y-322853D01*
X-32017Y-323494D01*
X-31044Y-323897D01*
X-30500Y-323969D01*
Y-320500D01*
D02*
G37*
G36*
X-91000Y-195500D02*
X-94500D01*
Y-199000D01*
X-91000D01*
Y-195500D01*
D02*
G37*
G36*
X-81228Y-199744D02*
X-83500D01*
Y-201819D01*
X-81228D01*
Y-199744D01*
D02*
G37*
G36*
Y-196669D02*
X-83500D01*
Y-198744D01*
X-81228D01*
Y-196669D01*
D02*
G37*
G36*
X-84500D02*
X-86772D01*
Y-198744D01*
X-84500D01*
Y-196669D01*
D02*
G37*
G36*
X-192913Y-215314D02*
X-194952Y-215475D01*
X-196941Y-215952D01*
X-198830Y-216735D01*
X-200574Y-217803D01*
X-202129Y-219131D01*
X-203457Y-220686D01*
X-204525Y-222430D01*
X-205308Y-224319D01*
X-205785Y-226308D01*
X-205946Y-228346D01*
X-205785Y-230385D01*
X-205308Y-232374D01*
X-204525Y-234263D01*
X-203457Y-236007D01*
X-202129Y-237562D01*
X-200574Y-238890D01*
X-198830Y-239958D01*
X-196941Y-240741D01*
X-194952Y-241218D01*
X-192913Y-241379D01*
X-190875Y-241218D01*
X-188886Y-240741D01*
X-186997Y-239958D01*
X-185253Y-238890D01*
X-183698Y-237562D01*
X-182370Y-236007D01*
X-181301Y-234263D01*
X-180519Y-232374D01*
X-180042Y-230385D01*
X-179881Y-228346D01*
X-180042Y-226308D01*
X-180519Y-224319D01*
X-181301Y-222430D01*
X-182370Y-220686D01*
X-183698Y-219131D01*
X-185253Y-217803D01*
X-186997Y-216735D01*
X-188886Y-215952D01*
X-190875Y-215475D01*
X-192913Y-215314D01*
D02*
G37*
G36*
X-138500Y-244536D02*
Y-247500D01*
X-135536D01*
X-135590Y-247086D01*
X-135943Y-246235D01*
X-136504Y-245504D01*
X-137235Y-244943D01*
X-138086Y-244590D01*
X-138500Y-244536D01*
D02*
G37*
G36*
X-84500Y-199744D02*
X-86772D01*
Y-201819D01*
X-84500D01*
Y-199744D01*
D02*
G37*
G36*
X0Y-215314D02*
X-2039Y-215475D01*
X-4027Y-215952D01*
X-5917Y-216735D01*
X-7660Y-217803D01*
X-9215Y-219131D01*
X-10543Y-220686D01*
X-11612Y-222430D01*
X-12394Y-224319D01*
X-12872Y-226308D01*
X-13032Y-228346D01*
X-12872Y-230385D01*
X-12394Y-232374D01*
X-11612Y-234263D01*
X-10543Y-236007D01*
X-9215Y-237562D01*
X-7660Y-238890D01*
X-5917Y-239958D01*
X-4027Y-240741D01*
X-2039Y-241218D01*
X0Y-241379D01*
X2039Y-241218D01*
X4027Y-240741D01*
X5917Y-239958D01*
X7660Y-238890D01*
X9215Y-237562D01*
X10543Y-236007D01*
X11612Y-234263D01*
X12394Y-232374D01*
X12872Y-230385D01*
X13032Y-228346D01*
X12872Y-226308D01*
X12394Y-224319D01*
X11612Y-222430D01*
X10543Y-220686D01*
X9215Y-219131D01*
X7660Y-217803D01*
X5917Y-216735D01*
X4027Y-215952D01*
X2039Y-215475D01*
X0Y-215314D01*
D02*
G37*
G36*
X-126031Y-150500D02*
X-129500D01*
Y-153969D01*
X-128956Y-153897D01*
X-127983Y-153494D01*
X-127147Y-152853D01*
X-126506Y-152017D01*
X-126103Y-151044D01*
X-126031Y-150500D01*
D02*
G37*
G36*
X-130500D02*
X-133969D01*
X-133897Y-151044D01*
X-133494Y-152017D01*
X-132853Y-152853D01*
X-132017Y-153494D01*
X-131044Y-153897D01*
X-130500Y-153969D01*
Y-150500D01*
D02*
G37*
G36*
X-116031D02*
X-119500D01*
Y-153969D01*
X-118956Y-153897D01*
X-117983Y-153494D01*
X-117147Y-152853D01*
X-116506Y-152017D01*
X-116103Y-151044D01*
X-116031Y-150500D01*
D02*
G37*
G36*
X-120500D02*
X-123969D01*
X-123897Y-151044D01*
X-123494Y-152017D01*
X-122853Y-152853D01*
X-122017Y-153494D01*
X-121044Y-153897D01*
X-120500Y-153969D01*
Y-150500D01*
D02*
G37*
G36*
X-146031D02*
X-149500D01*
Y-153969D01*
X-148956Y-153897D01*
X-147983Y-153494D01*
X-147147Y-152853D01*
X-146506Y-152017D01*
X-146103Y-151044D01*
X-146031Y-150500D01*
D02*
G37*
G36*
X-91000Y-191000D02*
X-94500D01*
Y-194500D01*
X-91000D01*
Y-191000D01*
D02*
G37*
G36*
X-136031Y-150500D02*
X-139500D01*
Y-153969D01*
X-138956Y-153897D01*
X-137983Y-153494D01*
X-137147Y-152853D01*
X-136506Y-152017D01*
X-136103Y-151044D01*
X-136031Y-150500D01*
D02*
G37*
G36*
X-140500D02*
X-143969D01*
X-143897Y-151044D01*
X-143494Y-152017D01*
X-142853Y-152853D01*
X-142017Y-153494D01*
X-141044Y-153897D01*
X-140500Y-153969D01*
Y-150500D01*
D02*
G37*
G36*
X-187669Y-259228D02*
X-189744D01*
Y-261500D01*
X-187669D01*
Y-259228D01*
D02*
G37*
G36*
X-190744D02*
X-192819D01*
Y-261500D01*
X-190744D01*
Y-259228D01*
D02*
G37*
G36*
X-176669D02*
X-178744D01*
Y-261500D01*
X-176669D01*
Y-259228D01*
D02*
G37*
G36*
X-179744D02*
X-181819D01*
Y-261500D01*
X-179744D01*
Y-259228D01*
D02*
G37*
G36*
X-187669Y-262500D02*
X-189744D01*
Y-264772D01*
X-187669D01*
Y-262500D01*
D02*
G37*
G36*
X-190744D02*
X-192819D01*
Y-264772D01*
X-190744D01*
Y-262500D01*
D02*
G37*
G36*
X-176669D02*
X-178744D01*
Y-264772D01*
X-176669D01*
Y-262500D01*
D02*
G37*
G36*
X-179744D02*
X-181819D01*
Y-264772D01*
X-179744D01*
Y-262500D01*
D02*
G37*
G36*
X-139500Y-248500D02*
X-142464D01*
X-142410Y-248914D01*
X-142057Y-249765D01*
X-141496Y-250496D01*
X-140765Y-251057D01*
X-139914Y-251410D01*
X-139500Y-251464D01*
Y-248500D01*
D02*
G37*
G36*
X-157228Y-253181D02*
X-159500D01*
Y-255256D01*
X-157228D01*
Y-253181D01*
D02*
G37*
G36*
X-139500Y-244536D02*
X-139914Y-244590D01*
X-140765Y-244943D01*
X-141496Y-245504D01*
X-142057Y-246235D01*
X-142410Y-247086D01*
X-142464Y-247500D01*
X-139500D01*
Y-244536D01*
D02*
G37*
G36*
X-135536Y-248500D02*
X-138500D01*
Y-251464D01*
X-138086Y-251410D01*
X-137235Y-251057D01*
X-136504Y-250496D01*
X-135943Y-249765D01*
X-135590Y-248914D01*
X-135536Y-248500D01*
D02*
G37*
G36*
X-166500Y-256256D02*
X-168772D01*
Y-258331D01*
X-166500D01*
Y-256256D01*
D02*
G37*
G36*
X-162772Y-253181D02*
X-163228D01*
Y-253181D01*
X-165500D01*
Y-255756D01*
Y-258331D01*
X-163228D01*
Y-258331D01*
X-162772Y-258331D01*
Y-258331D01*
X-160500D01*
Y-255756D01*
Y-253181D01*
X-162772D01*
Y-253181D01*
D02*
G37*
G36*
X-166500Y-253181D02*
X-168772D01*
Y-255256D01*
X-166500D01*
Y-253181D01*
D02*
G37*
G36*
X-157228Y-256256D02*
X-159500D01*
Y-258331D01*
X-157228D01*
Y-256256D01*
D02*
G37*
G36*
X-70000Y-76180D02*
X-70989Y-76310D01*
X-71910Y-76692D01*
X-72701Y-77299D01*
X-73308Y-78090D01*
X-73690Y-79011D01*
X-73820Y-80000D01*
X-73690Y-80989D01*
X-73308Y-81910D01*
X-72701Y-82701D01*
X-71910Y-83308D01*
X-70989Y-83690D01*
X-70000Y-83820D01*
X-69011Y-83690D01*
X-68090Y-83308D01*
X-67299Y-82701D01*
X-66692Y-81910D01*
X-66310Y-80989D01*
X-66180Y-80000D01*
X-66310Y-79011D01*
X-66692Y-78090D01*
X-67299Y-77299D01*
X-68090Y-76692D01*
X-69011Y-76310D01*
X-70000Y-76180D01*
D02*
G37*
G36*
X-80000D02*
X-80989Y-76310D01*
X-81910Y-76692D01*
X-82701Y-77299D01*
X-83308Y-78090D01*
X-83690Y-79011D01*
X-83820Y-80000D01*
X-83690Y-80989D01*
X-83308Y-81910D01*
X-82701Y-82701D01*
X-81910Y-83308D01*
X-80989Y-83690D01*
X-80000Y-83820D01*
X-79011Y-83690D01*
X-78090Y-83308D01*
X-77299Y-82701D01*
X-76692Y-81910D01*
X-76310Y-80989D01*
X-76180Y-80000D01*
X-76310Y-79011D01*
X-76692Y-78090D01*
X-77299Y-77299D01*
X-78090Y-76692D01*
X-79011Y-76310D01*
X-80000Y-76180D01*
D02*
G37*
G36*
X-50000D02*
X-50989Y-76310D01*
X-51910Y-76692D01*
X-52701Y-77299D01*
X-53308Y-78090D01*
X-53690Y-79011D01*
X-53820Y-80000D01*
X-53690Y-80989D01*
X-53308Y-81910D01*
X-52701Y-82701D01*
X-51910Y-83308D01*
X-50989Y-83690D01*
X-50000Y-83820D01*
X-49011Y-83690D01*
X-48090Y-83308D01*
X-47299Y-82701D01*
X-46692Y-81910D01*
X-46310Y-80989D01*
X-46180Y-80000D01*
X-46310Y-79011D01*
X-46692Y-78090D01*
X-47299Y-77299D01*
X-48090Y-76692D01*
X-49011Y-76310D01*
X-50000Y-76180D01*
D02*
G37*
G36*
X-60000D02*
X-60989Y-76310D01*
X-61910Y-76692D01*
X-62701Y-77299D01*
X-63308Y-78090D01*
X-63690Y-79011D01*
X-63820Y-80000D01*
X-63690Y-80989D01*
X-63308Y-81910D01*
X-62701Y-82701D01*
X-61910Y-83308D01*
X-60989Y-83690D01*
X-60000Y-83820D01*
X-59011Y-83690D01*
X-58090Y-83308D01*
X-57299Y-82701D01*
X-56692Y-81910D01*
X-56310Y-80989D01*
X-56180Y-80000D01*
X-56310Y-79011D01*
X-56692Y-78090D01*
X-57299Y-77299D01*
X-58090Y-76692D01*
X-59011Y-76310D01*
X-60000Y-76180D01*
D02*
G37*
G36*
X-110000D02*
X-110989Y-76310D01*
X-111910Y-76692D01*
X-112701Y-77299D01*
X-113308Y-78090D01*
X-113690Y-79011D01*
X-113820Y-80000D01*
X-113690Y-80989D01*
X-113308Y-81910D01*
X-112701Y-82701D01*
X-111910Y-83308D01*
X-110989Y-83690D01*
X-110000Y-83820D01*
X-109011Y-83690D01*
X-108090Y-83308D01*
X-107299Y-82701D01*
X-106692Y-81910D01*
X-106310Y-80989D01*
X-106180Y-80000D01*
X-106310Y-79011D01*
X-106692Y-78090D01*
X-107299Y-77299D01*
X-108090Y-76692D01*
X-109011Y-76310D01*
X-110000Y-76180D01*
D02*
G37*
G36*
X-120000D02*
X-120989Y-76310D01*
X-121910Y-76692D01*
X-122701Y-77299D01*
X-123308Y-78090D01*
X-123690Y-79011D01*
X-123820Y-80000D01*
X-123690Y-80989D01*
X-123308Y-81910D01*
X-122701Y-82701D01*
X-121910Y-83308D01*
X-120989Y-83690D01*
X-120000Y-83820D01*
X-119011Y-83690D01*
X-118090Y-83308D01*
X-117299Y-82701D01*
X-116692Y-81910D01*
X-116310Y-80989D01*
X-116180Y-80000D01*
X-116310Y-79011D01*
X-116692Y-78090D01*
X-117299Y-77299D01*
X-118090Y-76692D01*
X-119011Y-76310D01*
X-120000Y-76180D01*
D02*
G37*
G36*
X-90000D02*
X-90989Y-76310D01*
X-91910Y-76692D01*
X-92701Y-77299D01*
X-93308Y-78090D01*
X-93690Y-79011D01*
X-93820Y-80000D01*
X-93690Y-80989D01*
X-93308Y-81910D01*
X-92701Y-82701D01*
X-91910Y-83308D01*
X-90989Y-83690D01*
X-90000Y-83820D01*
X-89011Y-83690D01*
X-88090Y-83308D01*
X-87299Y-82701D01*
X-86692Y-81910D01*
X-86310Y-80989D01*
X-86180Y-80000D01*
X-86310Y-79011D01*
X-86692Y-78090D01*
X-87299Y-77299D01*
X-88090Y-76692D01*
X-89011Y-76310D01*
X-90000Y-76180D01*
D02*
G37*
G36*
X-100000D02*
X-100989Y-76310D01*
X-101910Y-76692D01*
X-102701Y-77299D01*
X-103308Y-78090D01*
X-103690Y-79011D01*
X-103820Y-80000D01*
X-103690Y-80989D01*
X-103308Y-81910D01*
X-102701Y-82701D01*
X-101910Y-83308D01*
X-100989Y-83690D01*
X-100000Y-83820D01*
X-99011Y-83690D01*
X-98090Y-83308D01*
X-97299Y-82701D01*
X-96692Y-81910D01*
X-96310Y-80989D01*
X-96180Y-80000D01*
X-96310Y-79011D01*
X-96692Y-78090D01*
X-97299Y-77299D01*
X-98090Y-76692D01*
X-99011Y-76310D01*
X-100000Y-76180D01*
D02*
G37*
G36*
X-150000Y-66180D02*
X-150989Y-66310D01*
X-151910Y-66692D01*
X-152701Y-67299D01*
X-153308Y-68090D01*
X-153690Y-69011D01*
X-153820Y-70000D01*
X-153690Y-70989D01*
X-153308Y-71910D01*
X-152701Y-72701D01*
X-151910Y-73308D01*
X-150989Y-73690D01*
X-150000Y-73820D01*
X-149011Y-73690D01*
X-148090Y-73308D01*
X-147299Y-72701D01*
X-146692Y-71910D01*
X-146310Y-70989D01*
X-146180Y-70000D01*
X-146310Y-69011D01*
X-146692Y-68090D01*
X-147299Y-67299D01*
X-148090Y-66692D01*
X-149011Y-66310D01*
X-150000Y-66180D01*
D02*
G37*
G36*
X-187894Y-75353D02*
X-188883Y-75483D01*
X-189804Y-75865D01*
X-190595Y-76472D01*
X-191202Y-77263D01*
X-191584Y-78184D01*
X-191714Y-79173D01*
X-191584Y-80162D01*
X-191202Y-81083D01*
X-190595Y-81874D01*
X-189804Y-82481D01*
X-188883Y-82863D01*
X-187894Y-82993D01*
X-186905Y-82863D01*
X-185984Y-82481D01*
X-185193Y-81874D01*
X-184585Y-81083D01*
X-184204Y-80162D01*
X-184074Y-79173D01*
X-184204Y-78184D01*
X-184585Y-77263D01*
X-185193Y-76472D01*
X-185984Y-75865D01*
X-186905Y-75483D01*
X-187894Y-75353D01*
D02*
G37*
G36*
X-120000Y-66180D02*
X-120989Y-66310D01*
X-121910Y-66692D01*
X-122701Y-67299D01*
X-123308Y-68090D01*
X-123690Y-69011D01*
X-123820Y-70000D01*
X-123690Y-70989D01*
X-123308Y-71910D01*
X-122701Y-72701D01*
X-121910Y-73308D01*
X-120989Y-73690D01*
X-120000Y-73820D01*
X-119011Y-73690D01*
X-118090Y-73308D01*
X-117299Y-72701D01*
X-116692Y-71910D01*
X-116310Y-70989D01*
X-116180Y-70000D01*
X-116310Y-69011D01*
X-116692Y-68090D01*
X-117299Y-67299D01*
X-118090Y-66692D01*
X-119011Y-66310D01*
X-120000Y-66180D01*
D02*
G37*
G36*
X-130000D02*
X-130989Y-66310D01*
X-131910Y-66692D01*
X-132701Y-67299D01*
X-133308Y-68090D01*
X-133690Y-69011D01*
X-133820Y-70000D01*
X-133690Y-70989D01*
X-133308Y-71910D01*
X-132701Y-72701D01*
X-131910Y-73308D01*
X-130989Y-73690D01*
X-130000Y-73820D01*
X-129011Y-73690D01*
X-128090Y-73308D01*
X-127299Y-72701D01*
X-126692Y-71910D01*
X-126310Y-70989D01*
X-126180Y-70000D01*
X-126310Y-69011D01*
X-126692Y-68090D01*
X-127299Y-67299D01*
X-128090Y-66692D01*
X-129011Y-66310D01*
X-130000Y-66180D01*
D02*
G37*
G36*
X-30000Y-76180D02*
X-30989Y-76310D01*
X-31910Y-76692D01*
X-32701Y-77299D01*
X-33308Y-78090D01*
X-33690Y-79011D01*
X-33820Y-80000D01*
X-33690Y-80989D01*
X-33308Y-81910D01*
X-32701Y-82701D01*
X-31910Y-83308D01*
X-30989Y-83690D01*
X-30000Y-83820D01*
X-29011Y-83690D01*
X-28090Y-83308D01*
X-27299Y-82701D01*
X-26692Y-81910D01*
X-26310Y-80989D01*
X-26180Y-80000D01*
X-26310Y-79011D01*
X-26692Y-78090D01*
X-27299Y-77299D01*
X-28090Y-76692D01*
X-29011Y-76310D01*
X-30000Y-76180D01*
D02*
G37*
G36*
X-40000D02*
X-40989Y-76310D01*
X-41910Y-76692D01*
X-42701Y-77299D01*
X-43308Y-78090D01*
X-43690Y-79011D01*
X-43820Y-80000D01*
X-43690Y-80989D01*
X-43308Y-81910D01*
X-42701Y-82701D01*
X-41910Y-83308D01*
X-40989Y-83690D01*
X-40000Y-83820D01*
X-39011Y-83690D01*
X-38090Y-83308D01*
X-37299Y-82701D01*
X-36692Y-81910D01*
X-36310Y-80989D01*
X-36180Y-80000D01*
X-36310Y-79011D01*
X-36692Y-78090D01*
X-37299Y-77299D01*
X-38090Y-76692D01*
X-39011Y-76310D01*
X-40000Y-76180D01*
D02*
G37*
G36*
X-10000D02*
X-10989Y-76310D01*
X-11910Y-76692D01*
X-12701Y-77299D01*
X-13308Y-78090D01*
X-13690Y-79011D01*
X-13820Y-80000D01*
X-13690Y-80989D01*
X-13308Y-81910D01*
X-12701Y-82701D01*
X-11910Y-83308D01*
X-10989Y-83690D01*
X-10000Y-83820D01*
X-9011Y-83690D01*
X-8090Y-83308D01*
X-7299Y-82701D01*
X-6692Y-81910D01*
X-6310Y-80989D01*
X-6180Y-80000D01*
X-6310Y-79011D01*
X-6692Y-78090D01*
X-7299Y-77299D01*
X-8090Y-76692D01*
X-9011Y-76310D01*
X-10000Y-76180D01*
D02*
G37*
G36*
X-20000D02*
X-20989Y-76310D01*
X-21910Y-76692D01*
X-22701Y-77299D01*
X-23308Y-78090D01*
X-23690Y-79011D01*
X-23820Y-80000D01*
X-23690Y-80989D01*
X-23308Y-81910D01*
X-22701Y-82701D01*
X-21910Y-83308D01*
X-20989Y-83690D01*
X-20000Y-83820D01*
X-19011Y-83690D01*
X-18090Y-83308D01*
X-17299Y-82701D01*
X-16692Y-81910D01*
X-16310Y-80989D01*
X-16180Y-80000D01*
X-16310Y-79011D01*
X-16692Y-78090D01*
X-17299Y-77299D01*
X-18090Y-76692D01*
X-19011Y-76310D01*
X-20000Y-76180D01*
D02*
G37*
G36*
X-80000Y-86180D02*
X-80989Y-86310D01*
X-81910Y-86692D01*
X-82701Y-87299D01*
X-83308Y-88090D01*
X-83690Y-89011D01*
X-83820Y-90000D01*
X-83690Y-90989D01*
X-83308Y-91910D01*
X-82701Y-92701D01*
X-81910Y-93308D01*
X-80989Y-93690D01*
X-80000Y-93820D01*
X-79011Y-93690D01*
X-78090Y-93308D01*
X-77299Y-92701D01*
X-76692Y-91910D01*
X-76310Y-90989D01*
X-76180Y-90000D01*
X-76310Y-89011D01*
X-76692Y-88090D01*
X-77299Y-87299D01*
X-78090Y-86692D01*
X-79011Y-86310D01*
X-80000Y-86180D01*
D02*
G37*
G36*
X-90000D02*
X-90989Y-86310D01*
X-91910Y-86692D01*
X-92701Y-87299D01*
X-93308Y-88090D01*
X-93690Y-89011D01*
X-93820Y-90000D01*
X-93690Y-90989D01*
X-93308Y-91910D01*
X-92701Y-92701D01*
X-91910Y-93308D01*
X-90989Y-93690D01*
X-90000Y-93820D01*
X-89011Y-93690D01*
X-88090Y-93308D01*
X-87299Y-92701D01*
X-86692Y-91910D01*
X-86310Y-90989D01*
X-86180Y-90000D01*
X-86310Y-89011D01*
X-86692Y-88090D01*
X-87299Y-87299D01*
X-88090Y-86692D01*
X-89011Y-86310D01*
X-90000Y-86180D01*
D02*
G37*
G36*
X-60000D02*
X-60989Y-86310D01*
X-61910Y-86692D01*
X-62701Y-87299D01*
X-63308Y-88090D01*
X-63690Y-89011D01*
X-63820Y-90000D01*
X-63690Y-90989D01*
X-63308Y-91910D01*
X-62701Y-92701D01*
X-61910Y-93308D01*
X-60989Y-93690D01*
X-60000Y-93820D01*
X-59011Y-93690D01*
X-58090Y-93308D01*
X-57299Y-92701D01*
X-56692Y-91910D01*
X-56310Y-90989D01*
X-56180Y-90000D01*
X-56310Y-89011D01*
X-56692Y-88090D01*
X-57299Y-87299D01*
X-58090Y-86692D01*
X-59011Y-86310D01*
X-60000Y-86180D01*
D02*
G37*
G36*
X-70000D02*
X-70989Y-86310D01*
X-71910Y-86692D01*
X-72701Y-87299D01*
X-73308Y-88090D01*
X-73690Y-89011D01*
X-73820Y-90000D01*
X-73690Y-90989D01*
X-73308Y-91910D01*
X-72701Y-92701D01*
X-71910Y-93308D01*
X-70989Y-93690D01*
X-70000Y-93820D01*
X-69011Y-93690D01*
X-68090Y-93308D01*
X-67299Y-92701D01*
X-66692Y-91910D01*
X-66310Y-90989D01*
X-66180Y-90000D01*
X-66310Y-89011D01*
X-66692Y-88090D01*
X-67299Y-87299D01*
X-68090Y-86692D01*
X-69011Y-86310D01*
X-70000Y-86180D01*
D02*
G37*
G36*
X-120000D02*
X-120989Y-86310D01*
X-121910Y-86692D01*
X-122701Y-87299D01*
X-123308Y-88090D01*
X-123690Y-89011D01*
X-123820Y-90000D01*
X-123690Y-90989D01*
X-123308Y-91910D01*
X-122701Y-92701D01*
X-121910Y-93308D01*
X-120989Y-93690D01*
X-120000Y-93820D01*
X-119011Y-93690D01*
X-118090Y-93308D01*
X-117299Y-92701D01*
X-116692Y-91910D01*
X-116310Y-90989D01*
X-116180Y-90000D01*
X-116310Y-89011D01*
X-116692Y-88090D01*
X-117299Y-87299D01*
X-118090Y-86692D01*
X-119011Y-86310D01*
X-120000Y-86180D01*
D02*
G37*
G36*
X-130000D02*
X-130989Y-86310D01*
X-131910Y-86692D01*
X-132701Y-87299D01*
X-133308Y-88090D01*
X-133690Y-89011D01*
X-133820Y-90000D01*
X-133690Y-90989D01*
X-133308Y-91910D01*
X-132701Y-92701D01*
X-131910Y-93308D01*
X-130989Y-93690D01*
X-130000Y-93820D01*
X-129011Y-93690D01*
X-128090Y-93308D01*
X-127299Y-92701D01*
X-126692Y-91910D01*
X-126310Y-90989D01*
X-126180Y-90000D01*
X-126310Y-89011D01*
X-126692Y-88090D01*
X-127299Y-87299D01*
X-128090Y-86692D01*
X-129011Y-86310D01*
X-130000Y-86180D01*
D02*
G37*
G36*
X-100000D02*
X-100989Y-86310D01*
X-101910Y-86692D01*
X-102701Y-87299D01*
X-103308Y-88090D01*
X-103690Y-89011D01*
X-103820Y-90000D01*
X-103690Y-90989D01*
X-103308Y-91910D01*
X-102701Y-92701D01*
X-101910Y-93308D01*
X-100989Y-93690D01*
X-100000Y-93820D01*
X-99011Y-93690D01*
X-98090Y-93308D01*
X-97299Y-92701D01*
X-96692Y-91910D01*
X-96310Y-90989D01*
X-96180Y-90000D01*
X-96310Y-89011D01*
X-96692Y-88090D01*
X-97299Y-87299D01*
X-98090Y-86692D01*
X-99011Y-86310D01*
X-100000Y-86180D01*
D02*
G37*
G36*
X-110000D02*
X-110989Y-86310D01*
X-111910Y-86692D01*
X-112701Y-87299D01*
X-113308Y-88090D01*
X-113690Y-89011D01*
X-113820Y-90000D01*
X-113690Y-90989D01*
X-113308Y-91910D01*
X-112701Y-92701D01*
X-111910Y-93308D01*
X-110989Y-93690D01*
X-110000Y-93820D01*
X-109011Y-93690D01*
X-108090Y-93308D01*
X-107299Y-92701D01*
X-106692Y-91910D01*
X-106310Y-90989D01*
X-106180Y-90000D01*
X-106310Y-89011D01*
X-106692Y-88090D01*
X-107299Y-87299D01*
X-108090Y-86692D01*
X-109011Y-86310D01*
X-110000Y-86180D01*
D02*
G37*
G36*
X-187894Y-85353D02*
X-188883Y-85483D01*
X-189804Y-85865D01*
X-190595Y-86472D01*
X-191202Y-87263D01*
X-191584Y-88184D01*
X-191714Y-89173D01*
X-191584Y-90162D01*
X-191202Y-91083D01*
X-190595Y-91874D01*
X-189804Y-92481D01*
X-188883Y-92863D01*
X-187894Y-92993D01*
X-186905Y-92863D01*
X-185984Y-92481D01*
X-185193Y-91874D01*
X-184585Y-91083D01*
X-184204Y-90162D01*
X-184074Y-89173D01*
X-184204Y-88184D01*
X-184585Y-87263D01*
X-185193Y-86472D01*
X-185984Y-85865D01*
X-186905Y-85483D01*
X-187894Y-85353D01*
D02*
G37*
G36*
X-10000Y-86180D02*
X-10989Y-86310D01*
X-11910Y-86692D01*
X-12701Y-87299D01*
X-13308Y-88090D01*
X-13690Y-89011D01*
X-13820Y-90000D01*
X-13690Y-90989D01*
X-13308Y-91910D01*
X-12701Y-92701D01*
X-11910Y-93308D01*
X-10989Y-93690D01*
X-10000Y-93820D01*
X-9011Y-93690D01*
X-8090Y-93308D01*
X-7299Y-92701D01*
X-6692Y-91910D01*
X-6310Y-90989D01*
X-6180Y-90000D01*
X-6310Y-89011D01*
X-6692Y-88090D01*
X-7299Y-87299D01*
X-8090Y-86692D01*
X-9011Y-86310D01*
X-10000Y-86180D01*
D02*
G37*
G36*
X-130000Y-76180D02*
X-130989Y-76310D01*
X-131910Y-76692D01*
X-132701Y-77299D01*
X-133308Y-78090D01*
X-133690Y-79011D01*
X-133820Y-80000D01*
X-133690Y-80989D01*
X-133308Y-81910D01*
X-132701Y-82701D01*
X-131910Y-83308D01*
X-130989Y-83690D01*
X-130000Y-83820D01*
X-129011Y-83690D01*
X-128090Y-83308D01*
X-127299Y-82701D01*
X-126692Y-81910D01*
X-126310Y-80989D01*
X-126180Y-80000D01*
X-126310Y-79011D01*
X-126692Y-78090D01*
X-127299Y-77299D01*
X-128090Y-76692D01*
X-129011Y-76310D01*
X-130000Y-76180D01*
D02*
G37*
G36*
X-150000D02*
X-150989Y-76310D01*
X-151910Y-76692D01*
X-152701Y-77299D01*
X-153308Y-78090D01*
X-153690Y-79011D01*
X-153820Y-80000D01*
X-153690Y-80989D01*
X-153308Y-81910D01*
X-152701Y-82701D01*
X-151910Y-83308D01*
X-150989Y-83690D01*
X-150000Y-83820D01*
X-149011Y-83690D01*
X-148090Y-83308D01*
X-147299Y-82701D01*
X-146692Y-81910D01*
X-146310Y-80989D01*
X-146180Y-80000D01*
X-146310Y-79011D01*
X-146692Y-78090D01*
X-147299Y-77299D01*
X-148090Y-76692D01*
X-149011Y-76310D01*
X-150000Y-76180D01*
D02*
G37*
G36*
X-40000Y-86180D02*
X-40989Y-86310D01*
X-41910Y-86692D01*
X-42701Y-87299D01*
X-43308Y-88090D01*
X-43690Y-89011D01*
X-43820Y-90000D01*
X-43690Y-90989D01*
X-43308Y-91910D01*
X-42701Y-92701D01*
X-41910Y-93308D01*
X-40989Y-93690D01*
X-40000Y-93820D01*
X-39011Y-93690D01*
X-38090Y-93308D01*
X-37299Y-92701D01*
X-36692Y-91910D01*
X-36310Y-90989D01*
X-36180Y-90000D01*
X-36310Y-89011D01*
X-36692Y-88090D01*
X-37299Y-87299D01*
X-38090Y-86692D01*
X-39011Y-86310D01*
X-40000Y-86180D01*
D02*
G37*
G36*
X-50000D02*
X-50989Y-86310D01*
X-51910Y-86692D01*
X-52701Y-87299D01*
X-53308Y-88090D01*
X-53690Y-89011D01*
X-53820Y-90000D01*
X-53690Y-90989D01*
X-53308Y-91910D01*
X-52701Y-92701D01*
X-51910Y-93308D01*
X-50989Y-93690D01*
X-50000Y-93820D01*
X-49011Y-93690D01*
X-48090Y-93308D01*
X-47299Y-92701D01*
X-46692Y-91910D01*
X-46310Y-90989D01*
X-46180Y-90000D01*
X-46310Y-89011D01*
X-46692Y-88090D01*
X-47299Y-87299D01*
X-48090Y-86692D01*
X-49011Y-86310D01*
X-50000Y-86180D01*
D02*
G37*
G36*
X-20000D02*
X-20989Y-86310D01*
X-21910Y-86692D01*
X-22701Y-87299D01*
X-23308Y-88090D01*
X-23690Y-89011D01*
X-23820Y-90000D01*
X-23690Y-90989D01*
X-23308Y-91910D01*
X-22701Y-92701D01*
X-21910Y-93308D01*
X-20989Y-93690D01*
X-20000Y-93820D01*
X-19011Y-93690D01*
X-18090Y-93308D01*
X-17299Y-92701D01*
X-16692Y-91910D01*
X-16310Y-90989D01*
X-16180Y-90000D01*
X-16310Y-89011D01*
X-16692Y-88090D01*
X-17299Y-87299D01*
X-18090Y-86692D01*
X-19011Y-86310D01*
X-20000Y-86180D01*
D02*
G37*
G36*
X-30000D02*
X-30989Y-86310D01*
X-31910Y-86692D01*
X-32701Y-87299D01*
X-33308Y-88090D01*
X-33690Y-89011D01*
X-33820Y-90000D01*
X-33690Y-90989D01*
X-33308Y-91910D01*
X-32701Y-92701D01*
X-31910Y-93308D01*
X-30989Y-93690D01*
X-30000Y-93820D01*
X-29011Y-93690D01*
X-28090Y-93308D01*
X-27299Y-92701D01*
X-26692Y-91910D01*
X-26310Y-90989D01*
X-26180Y-90000D01*
X-26310Y-89011D01*
X-26692Y-88090D01*
X-27299Y-87299D01*
X-28090Y-86692D01*
X-29011Y-86310D01*
X-30000Y-86180D01*
D02*
G37*
G36*
X-110000Y-66180D02*
X-110989Y-66310D01*
X-111910Y-66692D01*
X-112701Y-67299D01*
X-113308Y-68090D01*
X-113690Y-69011D01*
X-113820Y-70000D01*
X-113690Y-70989D01*
X-113308Y-71910D01*
X-112701Y-72701D01*
X-111910Y-73308D01*
X-110989Y-73690D01*
X-110000Y-73820D01*
X-109011Y-73690D01*
X-108090Y-73308D01*
X-107299Y-72701D01*
X-106692Y-71910D01*
X-106310Y-70989D01*
X-106180Y-70000D01*
X-106310Y-69011D01*
X-106692Y-68090D01*
X-107299Y-67299D01*
X-108090Y-66692D01*
X-109011Y-66310D01*
X-110000Y-66180D01*
D02*
G37*
G36*
X-85000Y-21180D02*
X-85989Y-21310D01*
X-86910Y-21692D01*
X-87701Y-22299D01*
X-88308Y-23090D01*
X-88690Y-24011D01*
X-88820Y-25000D01*
X-88690Y-25989D01*
X-88308Y-26910D01*
X-87701Y-27701D01*
X-86910Y-28308D01*
X-85989Y-28690D01*
X-85000Y-28820D01*
X-84011Y-28690D01*
X-83090Y-28308D01*
X-82299Y-27701D01*
X-81692Y-26910D01*
X-81310Y-25989D01*
X-81180Y-25000D01*
X-81310Y-24011D01*
X-81692Y-23090D01*
X-82299Y-22299D01*
X-83090Y-21692D01*
X-84011Y-21310D01*
X-85000Y-21180D01*
D02*
G37*
G36*
X-95000D02*
X-95989Y-21310D01*
X-96910Y-21692D01*
X-97701Y-22299D01*
X-98308Y-23090D01*
X-98690Y-24011D01*
X-98820Y-25000D01*
X-98690Y-25989D01*
X-98308Y-26910D01*
X-97701Y-27701D01*
X-96910Y-28308D01*
X-95989Y-28690D01*
X-95000Y-28820D01*
X-94011Y-28690D01*
X-93090Y-28308D01*
X-92299Y-27701D01*
X-91692Y-26910D01*
X-91310Y-25989D01*
X-91180Y-25000D01*
X-91310Y-24011D01*
X-91692Y-23090D01*
X-92299Y-22299D01*
X-93090Y-21692D01*
X-94011Y-21310D01*
X-95000Y-21180D01*
D02*
G37*
G36*
X-65000D02*
X-65989Y-21310D01*
X-66910Y-21692D01*
X-67701Y-22299D01*
X-68308Y-23090D01*
X-68690Y-24011D01*
X-68820Y-25000D01*
X-68690Y-25989D01*
X-68308Y-26910D01*
X-67701Y-27701D01*
X-66910Y-28308D01*
X-65989Y-28690D01*
X-65000Y-28820D01*
X-64011Y-28690D01*
X-63090Y-28308D01*
X-62299Y-27701D01*
X-61692Y-26910D01*
X-61310Y-25989D01*
X-61180Y-25000D01*
X-61310Y-24011D01*
X-61692Y-23090D01*
X-62299Y-22299D01*
X-63090Y-21692D01*
X-64011Y-21310D01*
X-65000Y-21180D01*
D02*
G37*
G36*
X-75000D02*
X-75989Y-21310D01*
X-76910Y-21692D01*
X-77701Y-22299D01*
X-78308Y-23090D01*
X-78690Y-24011D01*
X-78820Y-25000D01*
X-78690Y-25989D01*
X-78308Y-26910D01*
X-77701Y-27701D01*
X-76910Y-28308D01*
X-75989Y-28690D01*
X-75000Y-28820D01*
X-74011Y-28690D01*
X-73090Y-28308D01*
X-72299Y-27701D01*
X-71692Y-26910D01*
X-71310Y-25989D01*
X-71180Y-25000D01*
X-71310Y-24011D01*
X-71692Y-23090D01*
X-72299Y-22299D01*
X-73090Y-21692D01*
X-74011Y-21310D01*
X-75000Y-21180D01*
D02*
G37*
G36*
X-115000D02*
X-115989Y-21310D01*
X-116910Y-21692D01*
X-117701Y-22299D01*
X-118308Y-23090D01*
X-118690Y-24011D01*
X-118820Y-25000D01*
X-118690Y-25989D01*
X-118647Y-26092D01*
X-121748Y-29194D01*
X-181700D01*
X-182391Y-29331D01*
X-182977Y-29723D01*
X-183854Y-30600D01*
X-184270Y-30322D01*
X-184204Y-30162D01*
X-184074Y-29173D01*
X-184204Y-28185D01*
X-184585Y-27263D01*
X-185193Y-26472D01*
X-185984Y-25865D01*
X-186905Y-25483D01*
X-187894Y-25353D01*
X-188883Y-25483D01*
X-189804Y-25865D01*
X-190595Y-26472D01*
X-191202Y-27263D01*
X-191584Y-28185D01*
X-191714Y-29173D01*
X-191584Y-30162D01*
X-191202Y-31083D01*
X-190595Y-31874D01*
X-190468Y-31972D01*
X-190628Y-32446D01*
X-195159D01*
X-195320Y-31972D01*
X-195193Y-31874D01*
X-194586Y-31083D01*
X-194204Y-30162D01*
X-194074Y-29173D01*
X-194204Y-28185D01*
X-194586Y-27263D01*
X-195193Y-26472D01*
X-195984Y-25865D01*
X-196905Y-25483D01*
X-197894Y-25353D01*
X-198882Y-25483D01*
X-199804Y-25865D01*
X-200595Y-26472D01*
X-201202Y-27263D01*
X-201584Y-28185D01*
X-201714Y-29173D01*
X-201584Y-30162D01*
X-201202Y-31083D01*
X-200595Y-31874D01*
X-200403Y-32022D01*
X-200516Y-32509D01*
X-200889Y-32583D01*
X-201475Y-32975D01*
X-204971Y-36471D01*
X-205363Y-37057D01*
X-205500Y-37748D01*
Y-203393D01*
X-205363Y-204084D01*
X-204971Y-204670D01*
X-204364Y-205277D01*
X-204305Y-205317D01*
X-201541Y-208081D01*
X-201584Y-208185D01*
X-201714Y-209173D01*
X-201584Y-210162D01*
X-201202Y-211083D01*
X-200595Y-211874D01*
X-199804Y-212481D01*
X-198882Y-212863D01*
X-197894Y-212993D01*
X-196905Y-212863D01*
X-195984Y-212481D01*
X-195193Y-211874D01*
X-194586Y-211083D01*
X-194204Y-210162D01*
X-194074Y-209173D01*
X-194204Y-208185D01*
X-194247Y-208081D01*
X-192143Y-205977D01*
X-191681Y-206169D01*
Y-212961D01*
X-186661D01*
X-176806Y-222815D01*
Y-239194D01*
X-184000D01*
X-184691Y-239331D01*
X-185277Y-239723D01*
X-191521Y-245967D01*
X-191913Y-246553D01*
X-191964Y-246809D01*
X-192451Y-246922D01*
X-192655Y-246655D01*
X-193342Y-246129D01*
X-194142Y-245797D01*
X-195000Y-245684D01*
X-195858Y-245797D01*
X-196658Y-246129D01*
X-197345Y-246655D01*
X-197871Y-247342D01*
X-198203Y-248142D01*
X-198316Y-249000D01*
X-198203Y-249858D01*
X-197871Y-250658D01*
X-197345Y-251345D01*
X-197069Y-251556D01*
Y-253441D01*
X-198118D01*
Y-258559D01*
X-197069D01*
Y-259441D01*
X-198118D01*
Y-262506D01*
X-198684Y-263072D01*
X-198969Y-263498D01*
X-199068Y-264000D01*
Y-312244D01*
X-198969Y-312746D01*
X-198684Y-313172D01*
X-193787Y-318069D01*
Y-323787D01*
X-186213D01*
Y-316213D01*
X-191931D01*
X-196443Y-311700D01*
Y-264559D01*
X-193394D01*
Y-259441D01*
X-194443D01*
Y-258559D01*
X-193394D01*
Y-253441D01*
X-194443D01*
Y-252242D01*
X-194142Y-252203D01*
X-193342Y-251871D01*
X-192655Y-251345D01*
X-192524Y-251173D01*
X-192051Y-251334D01*
Y-253441D01*
X-192606D01*
Y-258559D01*
X-187882D01*
Y-253441D01*
X-188438D01*
Y-247992D01*
X-186695Y-246249D01*
X-186246Y-246470D01*
X-186316Y-247000D01*
X-186203Y-247858D01*
X-185992Y-248368D01*
X-186068Y-248756D01*
Y-253441D01*
X-187118D01*
Y-258559D01*
X-186068D01*
Y-259441D01*
X-187118D01*
Y-264559D01*
X-186068D01*
Y-274212D01*
X-188069Y-276213D01*
X-193787D01*
Y-283787D01*
X-186213D01*
Y-278069D01*
X-183828Y-275684D01*
X-183543Y-275258D01*
X-183443Y-274756D01*
Y-264559D01*
X-182394D01*
Y-259441D01*
X-183443D01*
Y-258559D01*
X-182394D01*
Y-253441D01*
X-183443D01*
Y-250637D01*
X-183067Y-250307D01*
X-183000Y-250316D01*
X-182142Y-250203D01*
X-181342Y-249871D01*
X-180655Y-249345D01*
X-180129Y-248658D01*
X-179797Y-247858D01*
X-179684Y-247000D01*
X-179797Y-246142D01*
X-180129Y-245342D01*
X-180655Y-244655D01*
X-181342Y-244128D01*
X-182142Y-243797D01*
X-183000Y-243684D01*
X-183530Y-243754D01*
X-183751Y-243305D01*
X-183252Y-242806D01*
X-176806D01*
Y-251008D01*
X-179240Y-253441D01*
X-181606D01*
Y-258559D01*
X-176882D01*
Y-256192D01*
X-173723Y-253033D01*
X-173331Y-252447D01*
X-173194Y-251756D01*
Y-241000D01*
Y-222067D01*
X-173331Y-221376D01*
X-173723Y-220790D01*
X-184106Y-210406D01*
Y-207101D01*
X-183644Y-206910D01*
X-168547Y-222008D01*
Y-226732D01*
X-168886D01*
Y-233031D01*
X-168546D01*
Y-233260D01*
X-168409Y-233951D01*
X-168017Y-234537D01*
X-166277Y-236277D01*
X-165959Y-236490D01*
X-166104Y-236968D01*
X-168886D01*
Y-243268D01*
X-168546D01*
Y-247882D01*
X-168559D01*
Y-252606D01*
X-163441D01*
Y-247882D01*
X-164934D01*
Y-243268D01*
X-164594D01*
Y-237160D01*
X-164594Y-237160D01*
X-164594D01*
X-164594Y-236968D01*
X-164432Y-236806D01*
X-161568D01*
X-161406Y-236968D01*
X-161406Y-237160D01*
X-161406Y-237160D01*
X-161406D01*
Y-243268D01*
X-161066D01*
Y-247882D01*
X-162559D01*
Y-252606D01*
X-157441D01*
Y-247882D01*
X-157454D01*
Y-243268D01*
X-157114D01*
Y-241925D01*
X-130118D01*
X-129427Y-241787D01*
X-128841Y-241395D01*
X-96092Y-208647D01*
X-95989Y-208690D01*
X-95000Y-208820D01*
X-94011Y-208690D01*
X-93090Y-208308D01*
X-92299Y-207701D01*
X-91692Y-206910D01*
X-91548Y-206562D01*
X-86559D01*
Y-207118D01*
X-81441D01*
Y-202394D01*
X-86559D01*
Y-202950D01*
X-91799D01*
X-92299Y-202299D01*
X-93090Y-201692D01*
X-94011Y-201310D01*
X-95000Y-201180D01*
X-95989Y-201310D01*
X-96092Y-201353D01*
X-97983Y-199462D01*
X-97792Y-199000D01*
X-95500D01*
Y-195000D01*
Y-191000D01*
X-98537D01*
X-98723Y-190723D01*
X-103848Y-185598D01*
X-104434Y-185206D01*
X-105125Y-185069D01*
X-116377D01*
X-131223Y-170223D01*
X-131809Y-169831D01*
X-132500Y-169694D01*
X-137752D01*
X-153194Y-154252D01*
Y-153157D01*
X-152745Y-152935D01*
X-152017Y-153494D01*
X-151044Y-153897D01*
X-150500Y-153969D01*
Y-150000D01*
Y-146031D01*
X-151044Y-146103D01*
X-152017Y-146506D01*
X-152745Y-147065D01*
X-153194Y-146843D01*
Y-145000D01*
X-153331Y-144309D01*
X-153723Y-143723D01*
X-156353Y-141092D01*
X-156310Y-140989D01*
X-156180Y-140000D01*
X-156310Y-139011D01*
X-156692Y-138090D01*
X-157299Y-137299D01*
X-158090Y-136692D01*
X-158194Y-136649D01*
Y-133351D01*
X-158090Y-133308D01*
X-157299Y-132701D01*
X-156692Y-131910D01*
X-156310Y-130989D01*
X-156180Y-130000D01*
X-156310Y-129011D01*
X-156692Y-128090D01*
X-157299Y-127299D01*
X-158090Y-126692D01*
X-158194Y-126649D01*
Y-123351D01*
X-158090Y-123308D01*
X-157299Y-122701D01*
X-156692Y-121910D01*
X-156310Y-120989D01*
X-156180Y-120000D01*
X-156310Y-119011D01*
X-156692Y-118090D01*
X-157299Y-117299D01*
X-158090Y-116692D01*
X-158194Y-116649D01*
Y-113351D01*
X-158090Y-113308D01*
X-157299Y-112701D01*
X-156692Y-111910D01*
X-156310Y-110989D01*
X-156180Y-110000D01*
X-156310Y-109011D01*
X-156692Y-108090D01*
X-157299Y-107299D01*
X-158090Y-106692D01*
X-158194Y-106649D01*
Y-103351D01*
X-158090Y-103308D01*
X-157299Y-102701D01*
X-156692Y-101910D01*
X-156310Y-100989D01*
X-156180Y-100000D01*
X-156310Y-99011D01*
X-156692Y-98090D01*
X-157299Y-97299D01*
X-158090Y-96692D01*
X-158194Y-96649D01*
Y-93351D01*
X-158090Y-93308D01*
X-157299Y-92701D01*
X-156692Y-91910D01*
X-156310Y-90989D01*
X-156180Y-90000D01*
X-156310Y-89011D01*
X-156692Y-88090D01*
X-157299Y-87299D01*
X-158090Y-86692D01*
X-158194Y-86649D01*
Y-83351D01*
X-158090Y-83308D01*
X-157299Y-82701D01*
X-156692Y-81910D01*
X-156310Y-80989D01*
X-156180Y-80000D01*
X-156310Y-79011D01*
X-156692Y-78090D01*
X-157299Y-77299D01*
X-158090Y-76692D01*
X-158194Y-76649D01*
Y-73351D01*
X-158090Y-73308D01*
X-157299Y-72701D01*
X-156692Y-71910D01*
X-156310Y-70989D01*
X-156180Y-70000D01*
X-156310Y-69011D01*
X-156692Y-68090D01*
X-157299Y-67299D01*
X-158090Y-66692D01*
X-159011Y-66310D01*
X-160000Y-66180D01*
X-160177Y-66203D01*
X-160398Y-65755D01*
X-150456Y-55813D01*
X-145515D01*
X-145371Y-56158D01*
X-144845Y-56845D01*
X-144158Y-57371D01*
X-143358Y-57703D01*
X-142500Y-57816D01*
X-141642Y-57703D01*
X-140842Y-57371D01*
X-140155Y-56845D01*
X-139629Y-56158D01*
X-139297Y-55358D01*
X-139184Y-54500D01*
X-139297Y-53642D01*
X-139629Y-52842D01*
X-140155Y-52155D01*
X-140842Y-51629D01*
X-141642Y-51297D01*
X-142500Y-51184D01*
X-143358Y-51297D01*
X-144158Y-51629D01*
X-144845Y-52155D01*
X-145371Y-52842D01*
X-145515Y-53187D01*
X-151000D01*
X-151502Y-53287D01*
X-151928Y-53572D01*
X-157725Y-59369D01*
X-158187Y-59178D01*
Y-56544D01*
X-147956Y-46313D01*
X-145015D01*
X-144871Y-46658D01*
X-144345Y-47345D01*
X-143658Y-47872D01*
X-142858Y-48203D01*
X-142000Y-48316D01*
X-141142Y-48203D01*
X-140342Y-47872D01*
X-139655Y-47345D01*
X-139128Y-46658D01*
X-138797Y-45858D01*
X-138684Y-45000D01*
X-138797Y-44142D01*
X-139128Y-43342D01*
X-139655Y-42655D01*
X-140342Y-42129D01*
X-141142Y-41797D01*
X-142000Y-41684D01*
X-142858Y-41797D01*
X-143658Y-42129D01*
X-144345Y-42655D01*
X-144871Y-43342D01*
X-145015Y-43687D01*
X-148500D01*
X-149002Y-43787D01*
X-149428Y-44072D01*
X-160428Y-55072D01*
X-160713Y-55498D01*
X-160813Y-56000D01*
Y-59456D01*
X-180928Y-79572D01*
X-181213Y-79998D01*
X-181313Y-80500D01*
Y-89986D01*
X-181658Y-90128D01*
X-182345Y-90655D01*
X-182871Y-91342D01*
X-183203Y-92142D01*
X-183316Y-93000D01*
X-183203Y-93858D01*
X-182871Y-94658D01*
X-182345Y-95345D01*
X-181658Y-95872D01*
X-180858Y-96203D01*
X-180000Y-96316D01*
X-179142Y-96203D01*
X-178342Y-95872D01*
X-177655Y-95345D01*
X-177129Y-94658D01*
X-176797Y-93858D01*
X-176684Y-93000D01*
X-176797Y-92142D01*
X-177129Y-91342D01*
X-177655Y-90655D01*
X-178342Y-90128D01*
X-178687Y-89986D01*
Y-81044D01*
X-172275Y-74631D01*
X-171813Y-74822D01*
Y-89986D01*
X-172158Y-90128D01*
X-172845Y-90655D01*
X-173372Y-91342D01*
X-173703Y-92142D01*
X-173816Y-93000D01*
X-173703Y-93858D01*
X-173372Y-94658D01*
X-172845Y-95345D01*
X-172158Y-95872D01*
X-171358Y-96203D01*
X-170500Y-96316D01*
X-169642Y-96203D01*
X-168842Y-95872D01*
X-168155Y-95345D01*
X-167629Y-94658D01*
X-167297Y-93858D01*
X-167184Y-93000D01*
X-167297Y-92142D01*
X-167629Y-91342D01*
X-168155Y-90655D01*
X-168842Y-90128D01*
X-169187Y-89986D01*
Y-74544D01*
X-164245Y-69602D01*
X-163797Y-69823D01*
X-163820Y-70000D01*
X-163690Y-70989D01*
X-163308Y-71910D01*
X-162701Y-72701D01*
X-161910Y-73308D01*
X-161806Y-73351D01*
Y-76649D01*
X-161910Y-76692D01*
X-162701Y-77299D01*
X-163308Y-78090D01*
X-163690Y-79011D01*
X-163820Y-80000D01*
X-163690Y-80989D01*
X-163308Y-81910D01*
X-162701Y-82701D01*
X-161910Y-83308D01*
X-161806Y-83351D01*
Y-86649D01*
X-161910Y-86692D01*
X-162701Y-87299D01*
X-163308Y-88090D01*
X-163690Y-89011D01*
X-163820Y-90000D01*
X-163690Y-90989D01*
X-163308Y-91910D01*
X-162701Y-92701D01*
X-161910Y-93308D01*
X-161806Y-93351D01*
Y-96649D01*
X-161910Y-96692D01*
X-162701Y-97299D01*
X-163308Y-98090D01*
X-163690Y-99011D01*
X-163820Y-100000D01*
X-163721Y-100753D01*
X-164169Y-100974D01*
X-166899Y-98245D01*
X-167324Y-97961D01*
X-167827Y-97861D01*
X-184338D01*
X-184585Y-97263D01*
X-185193Y-96472D01*
X-185984Y-95865D01*
X-186905Y-95483D01*
X-187894Y-95353D01*
X-188883Y-95483D01*
X-189804Y-95865D01*
X-190595Y-96472D01*
X-191202Y-97263D01*
X-191584Y-98185D01*
X-191714Y-99173D01*
X-191584Y-100162D01*
X-191202Y-101083D01*
X-190699Y-101739D01*
X-190920Y-102187D01*
X-193043D01*
X-194457Y-100773D01*
X-194204Y-100162D01*
X-194074Y-99173D01*
X-194204Y-98185D01*
X-194586Y-97263D01*
X-195193Y-96472D01*
X-195984Y-95865D01*
X-196905Y-95483D01*
X-197894Y-95353D01*
X-198882Y-95483D01*
X-199804Y-95865D01*
X-200595Y-96472D01*
X-201202Y-97263D01*
X-201397Y-97733D01*
X-201887Y-97636D01*
Y-90711D01*
X-201397Y-90613D01*
X-201202Y-91083D01*
X-200595Y-91874D01*
X-199804Y-92481D01*
X-198882Y-92863D01*
X-197894Y-92993D01*
X-196905Y-92863D01*
X-195984Y-92481D01*
X-195193Y-91874D01*
X-194586Y-91083D01*
X-194204Y-90162D01*
X-194074Y-89173D01*
X-194204Y-88184D01*
X-194586Y-87263D01*
X-195193Y-86472D01*
X-195984Y-85865D01*
X-196905Y-85483D01*
X-197894Y-85353D01*
X-198882Y-85483D01*
X-199804Y-85865D01*
X-200595Y-86472D01*
X-201202Y-87263D01*
X-201397Y-87734D01*
X-201887Y-87636D01*
Y-80711D01*
X-201397Y-80613D01*
X-201202Y-81083D01*
X-200595Y-81874D01*
X-199804Y-82481D01*
X-198882Y-82863D01*
X-197894Y-82993D01*
X-196905Y-82863D01*
X-195984Y-82481D01*
X-195193Y-81874D01*
X-194586Y-81083D01*
X-194204Y-80162D01*
X-194074Y-79173D01*
X-194204Y-78184D01*
X-194586Y-77263D01*
X-195193Y-76472D01*
X-195984Y-75865D01*
X-196905Y-75483D01*
X-197894Y-75353D01*
X-198882Y-75483D01*
X-199804Y-75865D01*
X-200595Y-76472D01*
X-201202Y-77263D01*
X-201397Y-77733D01*
X-201887Y-77636D01*
Y-70710D01*
X-201397Y-70613D01*
X-201202Y-71083D01*
X-200595Y-71874D01*
X-199804Y-72482D01*
X-198882Y-72863D01*
X-197894Y-72993D01*
X-196905Y-72863D01*
X-195984Y-72482D01*
X-195193Y-71874D01*
X-194586Y-71083D01*
X-194204Y-70162D01*
X-194074Y-69173D01*
X-194204Y-68185D01*
X-194586Y-67263D01*
X-195193Y-66472D01*
X-195984Y-65865D01*
X-196905Y-65483D01*
X-197894Y-65353D01*
X-198882Y-65483D01*
X-199804Y-65865D01*
X-200595Y-66472D01*
X-201202Y-67263D01*
X-201397Y-67734D01*
X-201887Y-67636D01*
Y-60711D01*
X-201397Y-60613D01*
X-201202Y-61083D01*
X-200595Y-61874D01*
X-199804Y-62481D01*
X-198882Y-62863D01*
X-197894Y-62993D01*
X-196905Y-62863D01*
X-195984Y-62481D01*
X-195193Y-61874D01*
X-194586Y-61083D01*
X-194204Y-60162D01*
X-194074Y-59173D01*
X-194204Y-58184D01*
X-194586Y-57263D01*
X-195193Y-56472D01*
X-195984Y-55865D01*
X-196905Y-55483D01*
X-197894Y-55353D01*
X-198882Y-55483D01*
X-199804Y-55865D01*
X-200595Y-56472D01*
X-201202Y-57263D01*
X-201397Y-57734D01*
X-201887Y-57636D01*
Y-50710D01*
X-201397Y-50613D01*
X-201202Y-51083D01*
X-200595Y-51874D01*
X-199804Y-52482D01*
X-198882Y-52863D01*
X-197894Y-52993D01*
X-196905Y-52863D01*
X-195984Y-52482D01*
X-195193Y-51874D01*
X-194586Y-51083D01*
X-194204Y-50162D01*
X-194074Y-49173D01*
X-194204Y-48184D01*
X-194586Y-47263D01*
X-195193Y-46472D01*
X-195984Y-45865D01*
X-196905Y-45483D01*
X-197894Y-45353D01*
X-198882Y-45483D01*
X-199804Y-45865D01*
X-200595Y-46472D01*
X-201202Y-47263D01*
X-201397Y-47734D01*
X-201887Y-47636D01*
Y-40710D01*
X-201397Y-40613D01*
X-201202Y-41083D01*
X-200595Y-41874D01*
X-199804Y-42481D01*
X-198882Y-42863D01*
X-197894Y-42993D01*
X-196905Y-42863D01*
X-195984Y-42481D01*
X-195193Y-41874D01*
X-194586Y-41083D01*
X-194204Y-40162D01*
X-194074Y-39173D01*
X-194204Y-38184D01*
X-194586Y-37263D01*
X-195166Y-36507D01*
X-194945Y-36058D01*
X-190843D01*
X-190622Y-36507D01*
X-191202Y-37263D01*
X-191584Y-38184D01*
X-191714Y-39173D01*
X-191584Y-40162D01*
X-191202Y-41083D01*
X-190595Y-41874D01*
X-189804Y-42481D01*
X-188883Y-42863D01*
X-187894Y-42993D01*
X-186905Y-42863D01*
X-185984Y-42481D01*
X-185193Y-41874D01*
X-184585Y-41083D01*
X-184204Y-40162D01*
X-184074Y-39173D01*
X-184204Y-38184D01*
X-184585Y-37263D01*
X-184952Y-36786D01*
X-184952Y-36058D01*
X-184261Y-35921D01*
X-183675Y-35529D01*
X-180952Y-32806D01*
X-121000D01*
X-120309Y-32669D01*
X-119723Y-32277D01*
X-117268Y-29823D01*
X-116806Y-30014D01*
Y-44252D01*
X-138908Y-66353D01*
X-139011Y-66310D01*
X-140000Y-66180D01*
X-140989Y-66310D01*
X-141910Y-66692D01*
X-142701Y-67299D01*
X-143308Y-68090D01*
X-143690Y-69011D01*
X-143820Y-70000D01*
X-143690Y-70989D01*
X-143308Y-71910D01*
X-142701Y-72701D01*
X-141910Y-73308D01*
X-141806Y-73351D01*
Y-76649D01*
X-141910Y-76692D01*
X-142701Y-77299D01*
X-143308Y-78090D01*
X-143690Y-79011D01*
X-143820Y-80000D01*
X-143690Y-80989D01*
X-143308Y-81910D01*
X-142701Y-82701D01*
X-141910Y-83308D01*
X-141806Y-83351D01*
Y-86649D01*
X-141910Y-86692D01*
X-142701Y-87299D01*
X-143308Y-88090D01*
X-143690Y-89011D01*
X-143820Y-90000D01*
X-143690Y-90989D01*
X-143308Y-91910D01*
X-142701Y-92701D01*
X-141910Y-93308D01*
X-141806Y-93351D01*
Y-96649D01*
X-141910Y-96692D01*
X-142701Y-97299D01*
X-143308Y-98090D01*
X-143690Y-99011D01*
X-143820Y-100000D01*
X-143690Y-100989D01*
X-143308Y-101910D01*
X-142701Y-102701D01*
X-141910Y-103308D01*
X-141806Y-103351D01*
Y-106649D01*
X-141910Y-106692D01*
X-142701Y-107299D01*
X-143308Y-108090D01*
X-143690Y-109011D01*
X-143820Y-110000D01*
X-143690Y-110989D01*
X-143308Y-111910D01*
X-142701Y-112701D01*
X-141910Y-113308D01*
X-141806Y-113351D01*
Y-116649D01*
X-141910Y-116692D01*
X-142701Y-117299D01*
X-143308Y-118090D01*
X-143690Y-119011D01*
X-143820Y-120000D01*
X-143690Y-120989D01*
X-143308Y-121910D01*
X-142701Y-122701D01*
X-141910Y-123308D01*
X-141806Y-123351D01*
Y-126649D01*
X-141910Y-126692D01*
X-142701Y-127299D01*
X-143308Y-128090D01*
X-143690Y-129011D01*
X-143820Y-130000D01*
X-143690Y-130989D01*
X-143308Y-131910D01*
X-142701Y-132701D01*
X-141910Y-133308D01*
X-141806Y-133351D01*
Y-136649D01*
X-141910Y-136692D01*
X-142701Y-137299D01*
X-143308Y-138090D01*
X-143690Y-139011D01*
X-143820Y-140000D01*
X-143690Y-140989D01*
X-143308Y-141910D01*
X-142701Y-142701D01*
X-141910Y-143308D01*
X-140989Y-143690D01*
X-140000Y-143820D01*
X-139011Y-143690D01*
X-138090Y-143308D01*
X-137299Y-142701D01*
X-136692Y-141910D01*
X-136310Y-140989D01*
X-136180Y-140000D01*
X-136310Y-139011D01*
X-136692Y-138090D01*
X-137299Y-137299D01*
X-138090Y-136692D01*
X-138194Y-136649D01*
Y-133351D01*
X-138090Y-133308D01*
X-137299Y-132701D01*
X-136692Y-131910D01*
X-136310Y-130989D01*
X-136180Y-130000D01*
X-136310Y-129011D01*
X-136692Y-128090D01*
X-137299Y-127299D01*
X-138090Y-126692D01*
X-138194Y-126649D01*
Y-123351D01*
X-138090Y-123308D01*
X-137299Y-122701D01*
X-136692Y-121910D01*
X-136310Y-120989D01*
X-136180Y-120000D01*
X-136310Y-119011D01*
X-136692Y-118090D01*
X-137299Y-117299D01*
X-138090Y-116692D01*
X-138194Y-116649D01*
Y-113351D01*
X-138090Y-113308D01*
X-137299Y-112701D01*
X-136692Y-111910D01*
X-136310Y-110989D01*
X-136180Y-110000D01*
X-136310Y-109011D01*
X-136692Y-108090D01*
X-137299Y-107299D01*
X-138090Y-106692D01*
X-138194Y-106649D01*
Y-103351D01*
X-138090Y-103308D01*
X-137299Y-102701D01*
X-136692Y-101910D01*
X-136310Y-100989D01*
X-136180Y-100000D01*
X-136310Y-99011D01*
X-136692Y-98090D01*
X-137299Y-97299D01*
X-138090Y-96692D01*
X-138194Y-96649D01*
Y-93351D01*
X-138090Y-93308D01*
X-137299Y-92701D01*
X-136692Y-91910D01*
X-136310Y-90989D01*
X-136180Y-90000D01*
X-136310Y-89011D01*
X-136692Y-88090D01*
X-137299Y-87299D01*
X-138090Y-86692D01*
X-138194Y-86649D01*
Y-83351D01*
X-138090Y-83308D01*
X-137299Y-82701D01*
X-136692Y-81910D01*
X-136310Y-80989D01*
X-136180Y-80000D01*
X-136310Y-79011D01*
X-136692Y-78090D01*
X-137299Y-77299D01*
X-138090Y-76692D01*
X-138194Y-76649D01*
Y-73351D01*
X-138090Y-73308D01*
X-137299Y-72701D01*
X-136692Y-71910D01*
X-136310Y-70989D01*
X-136180Y-70000D01*
X-136310Y-69011D01*
X-136353Y-68908D01*
X-113723Y-46277D01*
X-113331Y-45691D01*
X-113194Y-45000D01*
Y-28351D01*
X-113090Y-28308D01*
X-112299Y-27701D01*
X-111692Y-26910D01*
X-111310Y-25989D01*
X-111180Y-25000D01*
X-111310Y-24011D01*
X-111692Y-23090D01*
X-112299Y-22299D01*
X-113090Y-21692D01*
X-114011Y-21310D01*
X-115000Y-21180D01*
D02*
G37*
G36*
X-63500Y-40536D02*
Y-43500D01*
X-60536D01*
X-60590Y-43086D01*
X-60943Y-42235D01*
X-61504Y-41504D01*
X-62235Y-40943D01*
X-63086Y-40590D01*
X-63500Y-40536D01*
D02*
G37*
G36*
X-101031Y-25500D02*
X-104500D01*
Y-28969D01*
X-103956Y-28897D01*
X-102983Y-28494D01*
X-102147Y-27853D01*
X-101506Y-27017D01*
X-101103Y-26044D01*
X-101031Y-25500D01*
D02*
G37*
G36*
X-105500D02*
X-108969D01*
X-108897Y-26044D01*
X-108494Y-27017D01*
X-107853Y-27853D01*
X-107017Y-28494D01*
X-106044Y-28897D01*
X-105500Y-28969D01*
Y-25500D01*
D02*
G37*
G36*
X-187894Y-15353D02*
X-188883Y-15483D01*
X-189804Y-15865D01*
X-190595Y-16472D01*
X-191202Y-17263D01*
X-191584Y-18184D01*
X-191714Y-19173D01*
X-191584Y-20162D01*
X-191202Y-21083D01*
X-190595Y-21874D01*
X-189804Y-22481D01*
X-188883Y-22863D01*
X-187894Y-22993D01*
X-186905Y-22863D01*
X-185984Y-22481D01*
X-185193Y-21874D01*
X-184585Y-21083D01*
X-184204Y-20162D01*
X-184074Y-19173D01*
X-184204Y-18184D01*
X-184585Y-17263D01*
X-185193Y-16472D01*
X-185984Y-15865D01*
X-186905Y-15483D01*
X-187894Y-15353D01*
D02*
G37*
G36*
X-197894D02*
X-198882Y-15483D01*
X-199804Y-15865D01*
X-200595Y-16472D01*
X-201202Y-17263D01*
X-201584Y-18184D01*
X-201714Y-19173D01*
X-201584Y-20162D01*
X-201202Y-21083D01*
X-200595Y-21874D01*
X-199804Y-22481D01*
X-198882Y-22863D01*
X-197894Y-22993D01*
X-196905Y-22863D01*
X-195984Y-22481D01*
X-195193Y-21874D01*
X-194586Y-21083D01*
X-194204Y-20162D01*
X-194074Y-19173D01*
X-194204Y-18184D01*
X-194586Y-17263D01*
X-195193Y-16472D01*
X-195984Y-15865D01*
X-196905Y-15483D01*
X-197894Y-15353D01*
D02*
G37*
G36*
X0Y13032D02*
X-2039Y12872D01*
X-4027Y12394D01*
X-5917Y11612D01*
X-7660Y10543D01*
X-9215Y9215D01*
X-10543Y7660D01*
X-11612Y5917D01*
X-12394Y4027D01*
X-12872Y2039D01*
X-13032Y0D01*
X-12872Y-2039D01*
X-12394Y-4027D01*
X-11612Y-5917D01*
X-10543Y-7660D01*
X-9215Y-9215D01*
X-7660Y-10543D01*
X-5917Y-11612D01*
X-4027Y-12394D01*
X-2039Y-12872D01*
X0Y-13032D01*
X2039Y-12872D01*
X4027Y-12394D01*
X5917Y-11612D01*
X7660Y-10543D01*
X9215Y-9215D01*
X10543Y-7660D01*
X11612Y-5917D01*
X12394Y-4027D01*
X12872Y-2039D01*
X13032Y0D01*
X12872Y2039D01*
X12394Y4027D01*
X11612Y5917D01*
X10543Y7660D01*
X9215Y9215D01*
X7660Y10543D01*
X5917Y11612D01*
X4027Y12394D01*
X2039Y12872D01*
X0Y13032D01*
D02*
G37*
G36*
X-192913D02*
X-194952Y12872D01*
X-196941Y12394D01*
X-198830Y11612D01*
X-200574Y10543D01*
X-202129Y9215D01*
X-203457Y7660D01*
X-204525Y5917D01*
X-205308Y4027D01*
X-205785Y2039D01*
X-205946Y0D01*
X-205785Y-2039D01*
X-205308Y-4027D01*
X-204525Y-5917D01*
X-203457Y-7660D01*
X-202129Y-9215D01*
X-200574Y-10543D01*
X-198830Y-11612D01*
X-196941Y-12394D01*
X-194952Y-12872D01*
X-192913Y-13032D01*
X-190875Y-12872D01*
X-188886Y-12394D01*
X-186997Y-11612D01*
X-185253Y-10543D01*
X-183698Y-9215D01*
X-182370Y-7660D01*
X-181301Y-5917D01*
X-180519Y-4027D01*
X-180042Y-2039D01*
X-179881Y0D01*
X-180042Y2039D01*
X-180519Y4027D01*
X-181301Y5917D01*
X-182370Y7660D01*
X-183698Y9215D01*
X-185253Y10543D01*
X-186997Y11612D01*
X-188886Y12394D01*
X-190875Y12872D01*
X-192913Y13032D01*
D02*
G37*
G36*
X-41213Y-21213D02*
X-48787D01*
Y-28787D01*
X-41213D01*
Y-21213D01*
D02*
G37*
G36*
X-55000Y-21180D02*
X-55989Y-21310D01*
X-56910Y-21692D01*
X-57701Y-22299D01*
X-58308Y-23090D01*
X-58690Y-24011D01*
X-58820Y-25000D01*
X-58690Y-25989D01*
X-58308Y-26910D01*
X-57701Y-27701D01*
X-56910Y-28308D01*
X-55989Y-28690D01*
X-55000Y-28820D01*
X-54011Y-28690D01*
X-53090Y-28308D01*
X-52299Y-27701D01*
X-51692Y-26910D01*
X-51310Y-25989D01*
X-51180Y-25000D01*
X-51310Y-24011D01*
X-51692Y-23090D01*
X-52299Y-22299D01*
X-53090Y-21692D01*
X-54011Y-21310D01*
X-55000Y-21180D01*
D02*
G37*
G36*
X-104500Y-21031D02*
Y-24500D01*
X-101031D01*
X-101103Y-23956D01*
X-101506Y-22983D01*
X-102147Y-22147D01*
X-102983Y-21506D01*
X-103956Y-21103D01*
X-104500Y-21031D01*
D02*
G37*
G36*
X-105500D02*
X-106044Y-21103D01*
X-107017Y-21506D01*
X-107853Y-22147D01*
X-108494Y-22983D01*
X-108897Y-23956D01*
X-108969Y-24500D01*
X-105500D01*
Y-21031D01*
D02*
G37*
G36*
X-50000Y-66180D02*
X-50989Y-66310D01*
X-51910Y-66692D01*
X-52701Y-67299D01*
X-53308Y-68090D01*
X-53690Y-69011D01*
X-53820Y-70000D01*
X-53690Y-70989D01*
X-53308Y-71910D01*
X-52701Y-72701D01*
X-51910Y-73308D01*
X-50989Y-73690D01*
X-50000Y-73820D01*
X-49011Y-73690D01*
X-48090Y-73308D01*
X-47299Y-72701D01*
X-46692Y-71910D01*
X-46310Y-70989D01*
X-46180Y-70000D01*
X-46310Y-69011D01*
X-46692Y-68090D01*
X-47299Y-67299D01*
X-48090Y-66692D01*
X-49011Y-66310D01*
X-50000Y-66180D01*
D02*
G37*
G36*
X-60000D02*
X-60989Y-66310D01*
X-61910Y-66692D01*
X-62701Y-67299D01*
X-63308Y-68090D01*
X-63690Y-69011D01*
X-63820Y-70000D01*
X-63690Y-70989D01*
X-63308Y-71910D01*
X-62701Y-72701D01*
X-61910Y-73308D01*
X-60989Y-73690D01*
X-60000Y-73820D01*
X-59011Y-73690D01*
X-58090Y-73308D01*
X-57299Y-72701D01*
X-56692Y-71910D01*
X-56310Y-70989D01*
X-56180Y-70000D01*
X-56310Y-69011D01*
X-56692Y-68090D01*
X-57299Y-67299D01*
X-58090Y-66692D01*
X-59011Y-66310D01*
X-60000Y-66180D01*
D02*
G37*
G36*
X-30000D02*
X-30989Y-66310D01*
X-31910Y-66692D01*
X-32701Y-67299D01*
X-33308Y-68090D01*
X-33690Y-69011D01*
X-33820Y-70000D01*
X-33690Y-70989D01*
X-33308Y-71910D01*
X-32701Y-72701D01*
X-31910Y-73308D01*
X-30989Y-73690D01*
X-30000Y-73820D01*
X-29011Y-73690D01*
X-28090Y-73308D01*
X-27299Y-72701D01*
X-26692Y-71910D01*
X-26310Y-70989D01*
X-26180Y-70000D01*
X-26310Y-69011D01*
X-26692Y-68090D01*
X-27299Y-67299D01*
X-28090Y-66692D01*
X-29011Y-66310D01*
X-30000Y-66180D01*
D02*
G37*
G36*
X-40000D02*
X-40989Y-66310D01*
X-41910Y-66692D01*
X-42701Y-67299D01*
X-43308Y-68090D01*
X-43690Y-69011D01*
X-43820Y-70000D01*
X-43690Y-70989D01*
X-43308Y-71910D01*
X-42701Y-72701D01*
X-41910Y-73308D01*
X-40989Y-73690D01*
X-40000Y-73820D01*
X-39011Y-73690D01*
X-38090Y-73308D01*
X-37299Y-72701D01*
X-36692Y-71910D01*
X-36310Y-70989D01*
X-36180Y-70000D01*
X-36310Y-69011D01*
X-36692Y-68090D01*
X-37299Y-67299D01*
X-38090Y-66692D01*
X-39011Y-66310D01*
X-40000Y-66180D01*
D02*
G37*
G36*
X-90000D02*
X-90989Y-66310D01*
X-91910Y-66692D01*
X-92701Y-67299D01*
X-93308Y-68090D01*
X-93690Y-69011D01*
X-93820Y-70000D01*
X-93690Y-70989D01*
X-93308Y-71910D01*
X-92701Y-72701D01*
X-91910Y-73308D01*
X-90989Y-73690D01*
X-90000Y-73820D01*
X-89011Y-73690D01*
X-88090Y-73308D01*
X-87299Y-72701D01*
X-86692Y-71910D01*
X-86310Y-70989D01*
X-86180Y-70000D01*
X-86310Y-69011D01*
X-86692Y-68090D01*
X-87299Y-67299D01*
X-88090Y-66692D01*
X-89011Y-66310D01*
X-90000Y-66180D01*
D02*
G37*
G36*
X-100000D02*
X-100989Y-66310D01*
X-101910Y-66692D01*
X-102701Y-67299D01*
X-103308Y-68090D01*
X-103690Y-69011D01*
X-103820Y-70000D01*
X-103690Y-70989D01*
X-103308Y-71910D01*
X-102701Y-72701D01*
X-101910Y-73308D01*
X-100989Y-73690D01*
X-100000Y-73820D01*
X-99011Y-73690D01*
X-98090Y-73308D01*
X-97299Y-72701D01*
X-96692Y-71910D01*
X-96310Y-70989D01*
X-96180Y-70000D01*
X-96310Y-69011D01*
X-96692Y-68090D01*
X-97299Y-67299D01*
X-98090Y-66692D01*
X-99011Y-66310D01*
X-100000Y-66180D01*
D02*
G37*
G36*
X-70000D02*
X-70989Y-66310D01*
X-71910Y-66692D01*
X-72701Y-67299D01*
X-73308Y-68090D01*
X-73690Y-69011D01*
X-73820Y-70000D01*
X-73690Y-70989D01*
X-73308Y-71910D01*
X-72701Y-72701D01*
X-71910Y-73308D01*
X-70989Y-73690D01*
X-70000Y-73820D01*
X-69011Y-73690D01*
X-68090Y-73308D01*
X-67299Y-72701D01*
X-66692Y-71910D01*
X-66310Y-70989D01*
X-66180Y-70000D01*
X-66310Y-69011D01*
X-66692Y-68090D01*
X-67299Y-67299D01*
X-68090Y-66692D01*
X-69011Y-66310D01*
X-70000Y-66180D01*
D02*
G37*
G36*
X-80000D02*
X-80989Y-66310D01*
X-81910Y-66692D01*
X-82701Y-67299D01*
X-83308Y-68090D01*
X-83690Y-69011D01*
X-83820Y-70000D01*
X-83690Y-70989D01*
X-83308Y-71910D01*
X-82701Y-72701D01*
X-81910Y-73308D01*
X-80989Y-73690D01*
X-80000Y-73820D01*
X-79011Y-73690D01*
X-78090Y-73308D01*
X-77299Y-72701D01*
X-76692Y-71910D01*
X-76310Y-70989D01*
X-76180Y-70000D01*
X-76310Y-69011D01*
X-76692Y-68090D01*
X-77299Y-67299D01*
X-78090Y-66692D01*
X-79011Y-66310D01*
X-80000Y-66180D01*
D02*
G37*
G36*
X-64500Y-44500D02*
X-67464D01*
X-67410Y-44914D01*
X-67057Y-45765D01*
X-66496Y-46496D01*
X-65765Y-47057D01*
X-64914Y-47410D01*
X-64500Y-47464D01*
Y-44500D01*
D02*
G37*
G36*
X-187894Y-45353D02*
X-188883Y-45483D01*
X-189804Y-45865D01*
X-190595Y-46472D01*
X-191202Y-47263D01*
X-191584Y-48184D01*
X-191714Y-49173D01*
X-191584Y-50162D01*
X-191202Y-51083D01*
X-190595Y-51874D01*
X-189804Y-52482D01*
X-188883Y-52863D01*
X-187894Y-52993D01*
X-186905Y-52863D01*
X-185984Y-52482D01*
X-185193Y-51874D01*
X-184585Y-51083D01*
X-184204Y-50162D01*
X-184074Y-49173D01*
X-184204Y-48184D01*
X-184585Y-47263D01*
X-185193Y-46472D01*
X-185984Y-45865D01*
X-186905Y-45483D01*
X-187894Y-45353D01*
D02*
G37*
G36*
X-64500Y-40536D02*
X-64914Y-40590D01*
X-65765Y-40943D01*
X-66496Y-41504D01*
X-67057Y-42235D01*
X-67410Y-43086D01*
X-67464Y-43500D01*
X-64500D01*
Y-40536D01*
D02*
G37*
G36*
X-60536Y-44500D02*
X-63500D01*
Y-47464D01*
X-63086Y-47410D01*
X-62235Y-47057D01*
X-61504Y-46496D01*
X-60943Y-45765D01*
X-60590Y-44914D01*
X-60536Y-44500D01*
D02*
G37*
G36*
X-10000Y-66180D02*
X-10989Y-66310D01*
X-11910Y-66692D01*
X-12701Y-67299D01*
X-13308Y-68090D01*
X-13690Y-69011D01*
X-13820Y-70000D01*
X-13690Y-70989D01*
X-13308Y-71910D01*
X-12701Y-72701D01*
X-11910Y-73308D01*
X-10989Y-73690D01*
X-10000Y-73820D01*
X-9011Y-73690D01*
X-8090Y-73308D01*
X-7299Y-72701D01*
X-6692Y-71910D01*
X-6310Y-70989D01*
X-6180Y-70000D01*
X-6310Y-69011D01*
X-6692Y-68090D01*
X-7299Y-67299D01*
X-8090Y-66692D01*
X-9011Y-66310D01*
X-10000Y-66180D01*
D02*
G37*
G36*
X-20000D02*
X-20989Y-66310D01*
X-21910Y-66692D01*
X-22701Y-67299D01*
X-23308Y-68090D01*
X-23690Y-69011D01*
X-23820Y-70000D01*
X-23690Y-70989D01*
X-23308Y-71910D01*
X-22701Y-72701D01*
X-21910Y-73308D01*
X-20989Y-73690D01*
X-20000Y-73820D01*
X-19011Y-73690D01*
X-18090Y-73308D01*
X-17299Y-72701D01*
X-16692Y-71910D01*
X-16310Y-70989D01*
X-16180Y-70000D01*
X-16310Y-69011D01*
X-16692Y-68090D01*
X-17299Y-67299D01*
X-18090Y-66692D01*
X-19011Y-66310D01*
X-20000Y-66180D01*
D02*
G37*
G36*
X-187894Y-55353D02*
X-188883Y-55483D01*
X-189804Y-55865D01*
X-190595Y-56472D01*
X-191202Y-57263D01*
X-191584Y-58184D01*
X-191714Y-59173D01*
X-191584Y-60162D01*
X-191202Y-61083D01*
X-190595Y-61874D01*
X-189804Y-62481D01*
X-188883Y-62863D01*
X-187894Y-62993D01*
X-186905Y-62863D01*
X-185984Y-62481D01*
X-185193Y-61874D01*
X-184585Y-61083D01*
X-184204Y-60162D01*
X-184074Y-59173D01*
X-184204Y-58184D01*
X-184585Y-57263D01*
X-185193Y-56472D01*
X-185984Y-55865D01*
X-186905Y-55483D01*
X-187894Y-55353D01*
D02*
G37*
G36*
Y-65353D02*
X-188883Y-65483D01*
X-189804Y-65865D01*
X-190595Y-66472D01*
X-191202Y-67263D01*
X-191584Y-68185D01*
X-191714Y-69173D01*
X-191584Y-70162D01*
X-191202Y-71083D01*
X-190595Y-71874D01*
X-189804Y-72482D01*
X-188883Y-72863D01*
X-187894Y-72993D01*
X-186905Y-72863D01*
X-185984Y-72482D01*
X-185193Y-71874D01*
X-184585Y-71083D01*
X-184204Y-70162D01*
X-184074Y-69173D01*
X-184204Y-68185D01*
X-184585Y-67263D01*
X-185193Y-66472D01*
X-185984Y-65865D01*
X-186905Y-65483D01*
X-187894Y-65353D01*
D02*
G37*
G36*
X-40000Y-116180D02*
X-40989Y-116310D01*
X-41910Y-116692D01*
X-42701Y-117299D01*
X-43308Y-118090D01*
X-43690Y-119011D01*
X-43820Y-120000D01*
X-43690Y-120989D01*
X-43308Y-121910D01*
X-42701Y-122701D01*
X-41910Y-123308D01*
X-40989Y-123690D01*
X-40000Y-123820D01*
X-39011Y-123690D01*
X-38090Y-123308D01*
X-37299Y-122701D01*
X-36692Y-121910D01*
X-36310Y-120989D01*
X-36180Y-120000D01*
X-36310Y-119011D01*
X-36692Y-118090D01*
X-37299Y-117299D01*
X-38090Y-116692D01*
X-39011Y-116310D01*
X-40000Y-116180D01*
D02*
G37*
G36*
X-50000D02*
X-50989Y-116310D01*
X-51910Y-116692D01*
X-52701Y-117299D01*
X-53308Y-118090D01*
X-53690Y-119011D01*
X-53820Y-120000D01*
X-53690Y-120989D01*
X-53308Y-121910D01*
X-52701Y-122701D01*
X-51910Y-123308D01*
X-50989Y-123690D01*
X-50000Y-123820D01*
X-49011Y-123690D01*
X-48090Y-123308D01*
X-47299Y-122701D01*
X-46692Y-121910D01*
X-46310Y-120989D01*
X-46180Y-120000D01*
X-46310Y-119011D01*
X-46692Y-118090D01*
X-47299Y-117299D01*
X-48090Y-116692D01*
X-49011Y-116310D01*
X-50000Y-116180D01*
D02*
G37*
G36*
X-20000D02*
X-20989Y-116310D01*
X-21910Y-116692D01*
X-22701Y-117299D01*
X-23308Y-118090D01*
X-23690Y-119011D01*
X-23820Y-120000D01*
X-23690Y-120989D01*
X-23308Y-121910D01*
X-22701Y-122701D01*
X-21910Y-123308D01*
X-20989Y-123690D01*
X-20000Y-123820D01*
X-19011Y-123690D01*
X-18090Y-123308D01*
X-17299Y-122701D01*
X-16692Y-121910D01*
X-16310Y-120989D01*
X-16180Y-120000D01*
X-16310Y-119011D01*
X-16692Y-118090D01*
X-17299Y-117299D01*
X-18090Y-116692D01*
X-19011Y-116310D01*
X-20000Y-116180D01*
D02*
G37*
G36*
X-30000D02*
X-30989Y-116310D01*
X-31910Y-116692D01*
X-32701Y-117299D01*
X-33308Y-118090D01*
X-33690Y-119011D01*
X-33820Y-120000D01*
X-33690Y-120989D01*
X-33308Y-121910D01*
X-32701Y-122701D01*
X-31910Y-123308D01*
X-30989Y-123690D01*
X-30000Y-123820D01*
X-29011Y-123690D01*
X-28090Y-123308D01*
X-27299Y-122701D01*
X-26692Y-121910D01*
X-26310Y-120989D01*
X-26180Y-120000D01*
X-26310Y-119011D01*
X-26692Y-118090D01*
X-27299Y-117299D01*
X-28090Y-116692D01*
X-29011Y-116310D01*
X-30000Y-116180D01*
D02*
G37*
G36*
X-60000D02*
X-60989Y-116310D01*
X-61910Y-116692D01*
X-62701Y-117299D01*
X-63308Y-118090D01*
X-63690Y-119011D01*
X-63820Y-120000D01*
X-63690Y-120989D01*
X-63308Y-121910D01*
X-62701Y-122701D01*
X-61910Y-123308D01*
X-60989Y-123690D01*
X-60000Y-123820D01*
X-59011Y-123690D01*
X-58090Y-123308D01*
X-57299Y-122701D01*
X-56692Y-121910D01*
X-56310Y-120989D01*
X-56180Y-120000D01*
X-56310Y-119011D01*
X-56692Y-118090D01*
X-57299Y-117299D01*
X-58090Y-116692D01*
X-59011Y-116310D01*
X-60000Y-116180D01*
D02*
G37*
G36*
X-90000D02*
X-90989Y-116310D01*
X-91910Y-116692D01*
X-92701Y-117299D01*
X-93308Y-118090D01*
X-93690Y-119011D01*
X-93820Y-120000D01*
X-93690Y-120989D01*
X-93308Y-121910D01*
X-92701Y-122701D01*
X-91910Y-123308D01*
X-90989Y-123690D01*
X-90000Y-123820D01*
X-89011Y-123690D01*
X-88090Y-123308D01*
X-87299Y-122701D01*
X-86692Y-121910D01*
X-86310Y-120989D01*
X-86180Y-120000D01*
X-86310Y-119011D01*
X-86692Y-118090D01*
X-87299Y-117299D01*
X-88090Y-116692D01*
X-89011Y-116310D01*
X-90000Y-116180D01*
D02*
G37*
G36*
X-100000D02*
X-100989Y-116310D01*
X-101910Y-116692D01*
X-102701Y-117299D01*
X-103308Y-118090D01*
X-103690Y-119011D01*
X-103820Y-120000D01*
X-103690Y-120989D01*
X-103308Y-121910D01*
X-102701Y-122701D01*
X-101910Y-123308D01*
X-100989Y-123690D01*
X-100000Y-123820D01*
X-99011Y-123690D01*
X-98090Y-123308D01*
X-97299Y-122701D01*
X-96692Y-121910D01*
X-96310Y-120989D01*
X-96180Y-120000D01*
X-96310Y-119011D01*
X-96692Y-118090D01*
X-97299Y-117299D01*
X-98090Y-116692D01*
X-99011Y-116310D01*
X-100000Y-116180D01*
D02*
G37*
G36*
X-70000D02*
X-70989Y-116310D01*
X-71910Y-116692D01*
X-72701Y-117299D01*
X-73308Y-118090D01*
X-73690Y-119011D01*
X-73820Y-120000D01*
X-73690Y-120989D01*
X-73308Y-121910D01*
X-72701Y-122701D01*
X-71910Y-123308D01*
X-70989Y-123690D01*
X-70000Y-123820D01*
X-69011Y-123690D01*
X-68090Y-123308D01*
X-67299Y-122701D01*
X-66692Y-121910D01*
X-66310Y-120989D01*
X-66180Y-120000D01*
X-66310Y-119011D01*
X-66692Y-118090D01*
X-67299Y-117299D01*
X-68090Y-116692D01*
X-69011Y-116310D01*
X-70000Y-116180D01*
D02*
G37*
G36*
X-80000D02*
X-80989Y-116310D01*
X-81910Y-116692D01*
X-82701Y-117299D01*
X-83308Y-118090D01*
X-83690Y-119011D01*
X-83820Y-120000D01*
X-83690Y-120989D01*
X-83308Y-121910D01*
X-82701Y-122701D01*
X-81910Y-123308D01*
X-80989Y-123690D01*
X-80000Y-123820D01*
X-79011Y-123690D01*
X-78090Y-123308D01*
X-77299Y-122701D01*
X-76692Y-121910D01*
X-76310Y-120989D01*
X-76180Y-120000D01*
X-76310Y-119011D01*
X-76692Y-118090D01*
X-77299Y-117299D01*
X-78090Y-116692D01*
X-79011Y-116310D01*
X-80000Y-116180D01*
D02*
G37*
G36*
X-90000Y-106180D02*
X-90989Y-106310D01*
X-91910Y-106692D01*
X-92701Y-107299D01*
X-93308Y-108090D01*
X-93690Y-109011D01*
X-93820Y-110000D01*
X-93690Y-110989D01*
X-93308Y-111910D01*
X-92701Y-112701D01*
X-91910Y-113308D01*
X-90989Y-113690D01*
X-90000Y-113820D01*
X-89011Y-113690D01*
X-88090Y-113308D01*
X-87299Y-112701D01*
X-86692Y-111910D01*
X-86310Y-110989D01*
X-86180Y-110000D01*
X-86310Y-109011D01*
X-86692Y-108090D01*
X-87299Y-107299D01*
X-88090Y-106692D01*
X-89011Y-106310D01*
X-90000Y-106180D01*
D02*
G37*
G36*
X-100000D02*
X-100989Y-106310D01*
X-101910Y-106692D01*
X-102701Y-107299D01*
X-103308Y-108090D01*
X-103690Y-109011D01*
X-103820Y-110000D01*
X-103690Y-110989D01*
X-103308Y-111910D01*
X-102701Y-112701D01*
X-101910Y-113308D01*
X-100989Y-113690D01*
X-100000Y-113820D01*
X-99011Y-113690D01*
X-98090Y-113308D01*
X-97299Y-112701D01*
X-96692Y-111910D01*
X-96310Y-110989D01*
X-96180Y-110000D01*
X-96310Y-109011D01*
X-96692Y-108090D01*
X-97299Y-107299D01*
X-98090Y-106692D01*
X-99011Y-106310D01*
X-100000Y-106180D01*
D02*
G37*
G36*
X-70000D02*
X-70989Y-106310D01*
X-71910Y-106692D01*
X-72701Y-107299D01*
X-73308Y-108090D01*
X-73690Y-109011D01*
X-73820Y-110000D01*
X-73690Y-110989D01*
X-73308Y-111910D01*
X-72701Y-112701D01*
X-71910Y-113308D01*
X-70989Y-113690D01*
X-70000Y-113820D01*
X-69011Y-113690D01*
X-68090Y-113308D01*
X-67299Y-112701D01*
X-66692Y-111910D01*
X-66310Y-110989D01*
X-66180Y-110000D01*
X-66310Y-109011D01*
X-66692Y-108090D01*
X-67299Y-107299D01*
X-68090Y-106692D01*
X-69011Y-106310D01*
X-70000Y-106180D01*
D02*
G37*
G36*
X-80000D02*
X-80989Y-106310D01*
X-81910Y-106692D01*
X-82701Y-107299D01*
X-83308Y-108090D01*
X-83690Y-109011D01*
X-83820Y-110000D01*
X-83690Y-110989D01*
X-83308Y-111910D01*
X-82701Y-112701D01*
X-81910Y-113308D01*
X-80989Y-113690D01*
X-80000Y-113820D01*
X-79011Y-113690D01*
X-78090Y-113308D01*
X-77299Y-112701D01*
X-76692Y-111910D01*
X-76310Y-110989D01*
X-76180Y-110000D01*
X-76310Y-109011D01*
X-76692Y-108090D01*
X-77299Y-107299D01*
X-78090Y-106692D01*
X-79011Y-106310D01*
X-80000Y-106180D01*
D02*
G37*
G36*
X-110000D02*
X-110989Y-106310D01*
X-111910Y-106692D01*
X-112701Y-107299D01*
X-113308Y-108090D01*
X-113690Y-109011D01*
X-113820Y-110000D01*
X-113690Y-110989D01*
X-113308Y-111910D01*
X-112701Y-112701D01*
X-111910Y-113308D01*
X-110989Y-113690D01*
X-110000Y-113820D01*
X-109011Y-113690D01*
X-108090Y-113308D01*
X-107299Y-112701D01*
X-106692Y-111910D01*
X-106310Y-110989D01*
X-106180Y-110000D01*
X-106310Y-109011D01*
X-106692Y-108090D01*
X-107299Y-107299D01*
X-108090Y-106692D01*
X-109011Y-106310D01*
X-110000Y-106180D01*
D02*
G37*
G36*
X-150000D02*
X-150989Y-106310D01*
X-151910Y-106692D01*
X-152701Y-107299D01*
X-153308Y-108090D01*
X-153690Y-109011D01*
X-153820Y-110000D01*
X-153690Y-110989D01*
X-153308Y-111910D01*
X-152701Y-112701D01*
X-151910Y-113308D01*
X-150989Y-113690D01*
X-150000Y-113820D01*
X-149011Y-113690D01*
X-148090Y-113308D01*
X-147299Y-112701D01*
X-146692Y-111910D01*
X-146310Y-110989D01*
X-146180Y-110000D01*
X-146310Y-109011D01*
X-146692Y-108090D01*
X-147299Y-107299D01*
X-148090Y-106692D01*
X-149011Y-106310D01*
X-150000Y-106180D01*
D02*
G37*
G36*
X-10000Y-116180D02*
X-10989Y-116310D01*
X-11910Y-116692D01*
X-12701Y-117299D01*
X-13308Y-118090D01*
X-13690Y-119011D01*
X-13820Y-120000D01*
X-13690Y-120989D01*
X-13308Y-121910D01*
X-12701Y-122701D01*
X-11910Y-123308D01*
X-10989Y-123690D01*
X-10000Y-123820D01*
X-9011Y-123690D01*
X-8090Y-123308D01*
X-7299Y-122701D01*
X-6692Y-121910D01*
X-6310Y-120989D01*
X-6180Y-120000D01*
X-6310Y-119011D01*
X-6692Y-118090D01*
X-7299Y-117299D01*
X-8090Y-116692D01*
X-9011Y-116310D01*
X-10000Y-116180D01*
D02*
G37*
G36*
X-120000Y-106180D02*
X-120989Y-106310D01*
X-121910Y-106692D01*
X-122701Y-107299D01*
X-123308Y-108090D01*
X-123690Y-109011D01*
X-123820Y-110000D01*
X-123690Y-110989D01*
X-123308Y-111910D01*
X-122701Y-112701D01*
X-121910Y-113308D01*
X-120989Y-113690D01*
X-120000Y-113820D01*
X-119011Y-113690D01*
X-118090Y-113308D01*
X-117299Y-112701D01*
X-116692Y-111910D01*
X-116310Y-110989D01*
X-116180Y-110000D01*
X-116310Y-109011D01*
X-116692Y-108090D01*
X-117299Y-107299D01*
X-118090Y-106692D01*
X-119011Y-106310D01*
X-120000Y-106180D01*
D02*
G37*
G36*
X-130000D02*
X-130989Y-106310D01*
X-131910Y-106692D01*
X-132701Y-107299D01*
X-133308Y-108090D01*
X-133690Y-109011D01*
X-133820Y-110000D01*
X-133690Y-110989D01*
X-133308Y-111910D01*
X-132701Y-112701D01*
X-131910Y-113308D01*
X-130989Y-113690D01*
X-130000Y-113820D01*
X-129011Y-113690D01*
X-128090Y-113308D01*
X-127299Y-112701D01*
X-126692Y-111910D01*
X-126310Y-110989D01*
X-126180Y-110000D01*
X-126310Y-109011D01*
X-126692Y-108090D01*
X-127299Y-107299D01*
X-128090Y-106692D01*
X-129011Y-106310D01*
X-130000Y-106180D01*
D02*
G37*
G36*
X-110000Y-116180D02*
X-110989Y-116310D01*
X-111910Y-116692D01*
X-112701Y-117299D01*
X-113308Y-118090D01*
X-113690Y-119011D01*
X-113820Y-120000D01*
X-113690Y-120989D01*
X-113308Y-121910D01*
X-112701Y-122701D01*
X-111910Y-123308D01*
X-110989Y-123690D01*
X-110000Y-123820D01*
X-109011Y-123690D01*
X-108090Y-123308D01*
X-107299Y-122701D01*
X-106692Y-121910D01*
X-106310Y-120989D01*
X-106180Y-120000D01*
X-106310Y-119011D01*
X-106692Y-118090D01*
X-107299Y-117299D01*
X-108090Y-116692D01*
X-109011Y-116310D01*
X-110000Y-116180D01*
D02*
G37*
G36*
X-90000Y-126180D02*
X-90989Y-126310D01*
X-91910Y-126692D01*
X-92701Y-127299D01*
X-93308Y-128090D01*
X-93690Y-129011D01*
X-93820Y-130000D01*
X-93690Y-130989D01*
X-93308Y-131910D01*
X-92701Y-132701D01*
X-91910Y-133308D01*
X-90989Y-133690D01*
X-90000Y-133820D01*
X-89011Y-133690D01*
X-88090Y-133308D01*
X-87299Y-132701D01*
X-86692Y-131910D01*
X-86310Y-130989D01*
X-86180Y-130000D01*
X-86310Y-129011D01*
X-86692Y-128090D01*
X-87299Y-127299D01*
X-88090Y-126692D01*
X-89011Y-126310D01*
X-90000Y-126180D01*
D02*
G37*
G36*
X-100000D02*
X-100989Y-126310D01*
X-101910Y-126692D01*
X-102701Y-127299D01*
X-103308Y-128090D01*
X-103690Y-129011D01*
X-103820Y-130000D01*
X-103690Y-130989D01*
X-103308Y-131910D01*
X-102701Y-132701D01*
X-101910Y-133308D01*
X-100989Y-133690D01*
X-100000Y-133820D01*
X-99011Y-133690D01*
X-98090Y-133308D01*
X-97299Y-132701D01*
X-96692Y-131910D01*
X-96310Y-130989D01*
X-96180Y-130000D01*
X-96310Y-129011D01*
X-96692Y-128090D01*
X-97299Y-127299D01*
X-98090Y-126692D01*
X-99011Y-126310D01*
X-100000Y-126180D01*
D02*
G37*
G36*
X-70000D02*
X-70989Y-126310D01*
X-71910Y-126692D01*
X-72701Y-127299D01*
X-73308Y-128090D01*
X-73690Y-129011D01*
X-73820Y-130000D01*
X-73690Y-130989D01*
X-73308Y-131910D01*
X-72701Y-132701D01*
X-71910Y-133308D01*
X-70989Y-133690D01*
X-70000Y-133820D01*
X-69011Y-133690D01*
X-68090Y-133308D01*
X-67299Y-132701D01*
X-66692Y-131910D01*
X-66310Y-130989D01*
X-66180Y-130000D01*
X-66310Y-129011D01*
X-66692Y-128090D01*
X-67299Y-127299D01*
X-68090Y-126692D01*
X-69011Y-126310D01*
X-70000Y-126180D01*
D02*
G37*
G36*
X-80000D02*
X-80989Y-126310D01*
X-81910Y-126692D01*
X-82701Y-127299D01*
X-83308Y-128090D01*
X-83690Y-129011D01*
X-83820Y-130000D01*
X-83690Y-130989D01*
X-83308Y-131910D01*
X-82701Y-132701D01*
X-81910Y-133308D01*
X-80989Y-133690D01*
X-80000Y-133820D01*
X-79011Y-133690D01*
X-78090Y-133308D01*
X-77299Y-132701D01*
X-76692Y-131910D01*
X-76310Y-130989D01*
X-76180Y-130000D01*
X-76310Y-129011D01*
X-76692Y-128090D01*
X-77299Y-127299D01*
X-78090Y-126692D01*
X-79011Y-126310D01*
X-80000Y-126180D01*
D02*
G37*
G36*
X-110000D02*
X-110989Y-126310D01*
X-111910Y-126692D01*
X-112701Y-127299D01*
X-113308Y-128090D01*
X-113690Y-129011D01*
X-113820Y-130000D01*
X-113690Y-130989D01*
X-113308Y-131910D01*
X-112701Y-132701D01*
X-111910Y-133308D01*
X-110989Y-133690D01*
X-110000Y-133820D01*
X-109011Y-133690D01*
X-108090Y-133308D01*
X-107299Y-132701D01*
X-106692Y-131910D01*
X-106310Y-130989D01*
X-106180Y-130000D01*
X-106310Y-129011D01*
X-106692Y-128090D01*
X-107299Y-127299D01*
X-108090Y-126692D01*
X-109011Y-126310D01*
X-110000Y-126180D01*
D02*
G37*
G36*
X-150000D02*
X-150989Y-126310D01*
X-151910Y-126692D01*
X-152701Y-127299D01*
X-153308Y-128090D01*
X-153690Y-129011D01*
X-153820Y-130000D01*
X-153690Y-130989D01*
X-153308Y-131910D01*
X-152701Y-132701D01*
X-151910Y-133308D01*
X-150989Y-133690D01*
X-150000Y-133820D01*
X-149011Y-133690D01*
X-148090Y-133308D01*
X-147299Y-132701D01*
X-146692Y-131910D01*
X-146310Y-130989D01*
X-146180Y-130000D01*
X-146310Y-129011D01*
X-146692Y-128090D01*
X-147299Y-127299D01*
X-148090Y-126692D01*
X-149011Y-126310D01*
X-150000Y-126180D01*
D02*
G37*
G36*
X-10000Y-136180D02*
X-10989Y-136310D01*
X-11910Y-136692D01*
X-12701Y-137299D01*
X-13308Y-138090D01*
X-13690Y-139011D01*
X-13820Y-140000D01*
X-13690Y-140989D01*
X-13308Y-141910D01*
X-12701Y-142701D01*
X-11910Y-143308D01*
X-10989Y-143690D01*
X-10000Y-143820D01*
X-9011Y-143690D01*
X-8090Y-143308D01*
X-7299Y-142701D01*
X-6692Y-141910D01*
X-6310Y-140989D01*
X-6180Y-140000D01*
X-6310Y-139011D01*
X-6692Y-138090D01*
X-7299Y-137299D01*
X-8090Y-136692D01*
X-9011Y-136310D01*
X-10000Y-136180D01*
D02*
G37*
G36*
X-120000Y-126180D02*
X-120989Y-126310D01*
X-121910Y-126692D01*
X-122701Y-127299D01*
X-123308Y-128090D01*
X-123690Y-129011D01*
X-123820Y-130000D01*
X-123690Y-130989D01*
X-123308Y-131910D01*
X-122701Y-132701D01*
X-121910Y-133308D01*
X-120989Y-133690D01*
X-120000Y-133820D01*
X-119011Y-133690D01*
X-118090Y-133308D01*
X-117299Y-132701D01*
X-116692Y-131910D01*
X-116310Y-130989D01*
X-116180Y-130000D01*
X-116310Y-129011D01*
X-116692Y-128090D01*
X-117299Y-127299D01*
X-118090Y-126692D01*
X-119011Y-126310D01*
X-120000Y-126180D01*
D02*
G37*
G36*
X-130000D02*
X-130989Y-126310D01*
X-131910Y-126692D01*
X-132701Y-127299D01*
X-133308Y-128090D01*
X-133690Y-129011D01*
X-133820Y-130000D01*
X-133690Y-130989D01*
X-133308Y-131910D01*
X-132701Y-132701D01*
X-131910Y-133308D01*
X-130989Y-133690D01*
X-130000Y-133820D01*
X-129011Y-133690D01*
X-128090Y-133308D01*
X-127299Y-132701D01*
X-126692Y-131910D01*
X-126310Y-130989D01*
X-126180Y-130000D01*
X-126310Y-129011D01*
X-126692Y-128090D01*
X-127299Y-127299D01*
X-128090Y-126692D01*
X-129011Y-126310D01*
X-130000Y-126180D01*
D02*
G37*
G36*
X-150000Y-116180D02*
X-150989Y-116310D01*
X-151910Y-116692D01*
X-152701Y-117299D01*
X-153308Y-118090D01*
X-153690Y-119011D01*
X-153820Y-120000D01*
X-153690Y-120989D01*
X-153308Y-121910D01*
X-152701Y-122701D01*
X-151910Y-123308D01*
X-150989Y-123690D01*
X-150000Y-123820D01*
X-149011Y-123690D01*
X-148090Y-123308D01*
X-147299Y-122701D01*
X-146692Y-121910D01*
X-146310Y-120989D01*
X-146180Y-120000D01*
X-146310Y-119011D01*
X-146692Y-118090D01*
X-147299Y-117299D01*
X-148090Y-116692D01*
X-149011Y-116310D01*
X-150000Y-116180D01*
D02*
G37*
G36*
X-10000Y-126180D02*
X-10989Y-126310D01*
X-11910Y-126692D01*
X-12701Y-127299D01*
X-13308Y-128090D01*
X-13690Y-129011D01*
X-13820Y-130000D01*
X-13690Y-130989D01*
X-13308Y-131910D01*
X-12701Y-132701D01*
X-11910Y-133308D01*
X-10989Y-133690D01*
X-10000Y-133820D01*
X-9011Y-133690D01*
X-8090Y-133308D01*
X-7299Y-132701D01*
X-6692Y-131910D01*
X-6310Y-130989D01*
X-6180Y-130000D01*
X-6310Y-129011D01*
X-6692Y-128090D01*
X-7299Y-127299D01*
X-8090Y-126692D01*
X-9011Y-126310D01*
X-10000Y-126180D01*
D02*
G37*
G36*
X-120000Y-116180D02*
X-120989Y-116310D01*
X-121910Y-116692D01*
X-122701Y-117299D01*
X-123308Y-118090D01*
X-123690Y-119011D01*
X-123820Y-120000D01*
X-123690Y-120989D01*
X-123308Y-121910D01*
X-122701Y-122701D01*
X-121910Y-123308D01*
X-120989Y-123690D01*
X-120000Y-123820D01*
X-119011Y-123690D01*
X-118090Y-123308D01*
X-117299Y-122701D01*
X-116692Y-121910D01*
X-116310Y-120989D01*
X-116180Y-120000D01*
X-116310Y-119011D01*
X-116692Y-118090D01*
X-117299Y-117299D01*
X-118090Y-116692D01*
X-119011Y-116310D01*
X-120000Y-116180D01*
D02*
G37*
G36*
X-130000D02*
X-130989Y-116310D01*
X-131910Y-116692D01*
X-132701Y-117299D01*
X-133308Y-118090D01*
X-133690Y-119011D01*
X-133820Y-120000D01*
X-133690Y-120989D01*
X-133308Y-121910D01*
X-132701Y-122701D01*
X-131910Y-123308D01*
X-130989Y-123690D01*
X-130000Y-123820D01*
X-129011Y-123690D01*
X-128090Y-123308D01*
X-127299Y-122701D01*
X-126692Y-121910D01*
X-126310Y-120989D01*
X-126180Y-120000D01*
X-126310Y-119011D01*
X-126692Y-118090D01*
X-127299Y-117299D01*
X-128090Y-116692D01*
X-129011Y-116310D01*
X-130000Y-116180D01*
D02*
G37*
G36*
X-20000Y-126180D02*
X-20989Y-126310D01*
X-21910Y-126692D01*
X-22701Y-127299D01*
X-23308Y-128090D01*
X-23690Y-129011D01*
X-23820Y-130000D01*
X-23690Y-130989D01*
X-23308Y-131910D01*
X-22701Y-132701D01*
X-21910Y-133308D01*
X-20989Y-133690D01*
X-20000Y-133820D01*
X-19011Y-133690D01*
X-18090Y-133308D01*
X-17299Y-132701D01*
X-16692Y-131910D01*
X-16310Y-130989D01*
X-16180Y-130000D01*
X-16310Y-129011D01*
X-16692Y-128090D01*
X-17299Y-127299D01*
X-18090Y-126692D01*
X-19011Y-126310D01*
X-20000Y-126180D01*
D02*
G37*
G36*
X-50000D02*
X-50989Y-126310D01*
X-51910Y-126692D01*
X-52701Y-127299D01*
X-53308Y-128090D01*
X-53690Y-129011D01*
X-53820Y-130000D01*
X-53690Y-130989D01*
X-53308Y-131910D01*
X-52701Y-132701D01*
X-51910Y-133308D01*
X-50989Y-133690D01*
X-50000Y-133820D01*
X-49011Y-133690D01*
X-48090Y-133308D01*
X-47299Y-132701D01*
X-46692Y-131910D01*
X-46310Y-130989D01*
X-46180Y-130000D01*
X-46310Y-129011D01*
X-46692Y-128090D01*
X-47299Y-127299D01*
X-48090Y-126692D01*
X-49011Y-126310D01*
X-50000Y-126180D01*
D02*
G37*
G36*
X-60000D02*
X-60989Y-126310D01*
X-61910Y-126692D01*
X-62701Y-127299D01*
X-63308Y-128090D01*
X-63690Y-129011D01*
X-63820Y-130000D01*
X-63690Y-130989D01*
X-63308Y-131910D01*
X-62701Y-132701D01*
X-61910Y-133308D01*
X-60989Y-133690D01*
X-60000Y-133820D01*
X-59011Y-133690D01*
X-58090Y-133308D01*
X-57299Y-132701D01*
X-56692Y-131910D01*
X-56310Y-130989D01*
X-56180Y-130000D01*
X-56310Y-129011D01*
X-56692Y-128090D01*
X-57299Y-127299D01*
X-58090Y-126692D01*
X-59011Y-126310D01*
X-60000Y-126180D01*
D02*
G37*
G36*
X-30000D02*
X-30989Y-126310D01*
X-31910Y-126692D01*
X-32701Y-127299D01*
X-33308Y-128090D01*
X-33690Y-129011D01*
X-33820Y-130000D01*
X-33690Y-130989D01*
X-33308Y-131910D01*
X-32701Y-132701D01*
X-31910Y-133308D01*
X-30989Y-133690D01*
X-30000Y-133820D01*
X-29011Y-133690D01*
X-28090Y-133308D01*
X-27299Y-132701D01*
X-26692Y-131910D01*
X-26310Y-130989D01*
X-26180Y-130000D01*
X-26310Y-129011D01*
X-26692Y-128090D01*
X-27299Y-127299D01*
X-28090Y-126692D01*
X-29011Y-126310D01*
X-30000Y-126180D01*
D02*
G37*
G36*
X-40000D02*
X-40989Y-126310D01*
X-41910Y-126692D01*
X-42701Y-127299D01*
X-43308Y-128090D01*
X-43690Y-129011D01*
X-43820Y-130000D01*
X-43690Y-130989D01*
X-43308Y-131910D01*
X-42701Y-132701D01*
X-41910Y-133308D01*
X-40989Y-133690D01*
X-40000Y-133820D01*
X-39011Y-133690D01*
X-38090Y-133308D01*
X-37299Y-132701D01*
X-36692Y-131910D01*
X-36310Y-130989D01*
X-36180Y-130000D01*
X-36310Y-129011D01*
X-36692Y-128090D01*
X-37299Y-127299D01*
X-38090Y-126692D01*
X-39011Y-126310D01*
X-40000Y-126180D01*
D02*
G37*
G36*
X-90000Y-96180D02*
X-90989Y-96310D01*
X-91910Y-96692D01*
X-92701Y-97299D01*
X-93308Y-98090D01*
X-93690Y-99011D01*
X-93820Y-100000D01*
X-93690Y-100989D01*
X-93308Y-101910D01*
X-92701Y-102701D01*
X-91910Y-103308D01*
X-90989Y-103690D01*
X-90000Y-103820D01*
X-89011Y-103690D01*
X-88090Y-103308D01*
X-87299Y-102701D01*
X-86692Y-101910D01*
X-86310Y-100989D01*
X-86180Y-100000D01*
X-86310Y-99011D01*
X-86692Y-98090D01*
X-87299Y-97299D01*
X-88090Y-96692D01*
X-89011Y-96310D01*
X-90000Y-96180D01*
D02*
G37*
G36*
X-80000D02*
X-80989Y-96310D01*
X-81910Y-96692D01*
X-82701Y-97299D01*
X-83308Y-98090D01*
X-83690Y-99011D01*
X-83820Y-100000D01*
X-83690Y-100989D01*
X-83308Y-101910D01*
X-82701Y-102701D01*
X-81910Y-103308D01*
X-80989Y-103690D01*
X-80000Y-103820D01*
X-79011Y-103690D01*
X-78090Y-103308D01*
X-77299Y-102701D01*
X-76692Y-101910D01*
X-76310Y-100989D01*
X-76180Y-100000D01*
X-76310Y-99011D01*
X-76692Y-98090D01*
X-77299Y-97299D01*
X-78090Y-96692D01*
X-79011Y-96310D01*
X-80000Y-96180D01*
D02*
G37*
G36*
X-70000D02*
X-70989Y-96310D01*
X-71910Y-96692D01*
X-72701Y-97299D01*
X-73308Y-98090D01*
X-73690Y-99011D01*
X-73820Y-100000D01*
X-73690Y-100989D01*
X-73308Y-101910D01*
X-72701Y-102701D01*
X-71910Y-103308D01*
X-70989Y-103690D01*
X-70000Y-103820D01*
X-69011Y-103690D01*
X-68090Y-103308D01*
X-67299Y-102701D01*
X-66692Y-101910D01*
X-66310Y-100989D01*
X-66180Y-100000D01*
X-66310Y-99011D01*
X-66692Y-98090D01*
X-67299Y-97299D01*
X-68090Y-96692D01*
X-69011Y-96310D01*
X-70000Y-96180D01*
D02*
G37*
G36*
X-120000D02*
X-120989Y-96310D01*
X-121910Y-96692D01*
X-122701Y-97299D01*
X-123308Y-98090D01*
X-123690Y-99011D01*
X-123820Y-100000D01*
X-123690Y-100989D01*
X-123308Y-101910D01*
X-122701Y-102701D01*
X-121910Y-103308D01*
X-120989Y-103690D01*
X-120000Y-103820D01*
X-119011Y-103690D01*
X-118090Y-103308D01*
X-117299Y-102701D01*
X-116692Y-101910D01*
X-116310Y-100989D01*
X-116180Y-100000D01*
X-116310Y-99011D01*
X-116692Y-98090D01*
X-117299Y-97299D01*
X-118090Y-96692D01*
X-119011Y-96310D01*
X-120000Y-96180D01*
D02*
G37*
G36*
X-110000D02*
X-110989Y-96310D01*
X-111910Y-96692D01*
X-112701Y-97299D01*
X-113308Y-98090D01*
X-113690Y-99011D01*
X-113820Y-100000D01*
X-113690Y-100989D01*
X-113308Y-101910D01*
X-112701Y-102701D01*
X-111910Y-103308D01*
X-110989Y-103690D01*
X-110000Y-103820D01*
X-109011Y-103690D01*
X-108090Y-103308D01*
X-107299Y-102701D01*
X-106692Y-101910D01*
X-106310Y-100989D01*
X-106180Y-100000D01*
X-106310Y-99011D01*
X-106692Y-98090D01*
X-107299Y-97299D01*
X-108090Y-96692D01*
X-109011Y-96310D01*
X-110000Y-96180D01*
D02*
G37*
G36*
X-100000D02*
X-100989Y-96310D01*
X-101910Y-96692D01*
X-102701Y-97299D01*
X-103308Y-98090D01*
X-103690Y-99011D01*
X-103820Y-100000D01*
X-103690Y-100989D01*
X-103308Y-101910D01*
X-102701Y-102701D01*
X-101910Y-103308D01*
X-100989Y-103690D01*
X-100000Y-103820D01*
X-99011Y-103690D01*
X-98090Y-103308D01*
X-97299Y-102701D01*
X-96692Y-101910D01*
X-96310Y-100989D01*
X-96180Y-100000D01*
X-96310Y-99011D01*
X-96692Y-98090D01*
X-97299Y-97299D01*
X-98090Y-96692D01*
X-99011Y-96310D01*
X-100000Y-96180D01*
D02*
G37*
G36*
X-60000D02*
X-60989Y-96310D01*
X-61910Y-96692D01*
X-62701Y-97299D01*
X-63308Y-98090D01*
X-63690Y-99011D01*
X-63820Y-100000D01*
X-63690Y-100989D01*
X-63308Y-101910D01*
X-62701Y-102701D01*
X-61910Y-103308D01*
X-60989Y-103690D01*
X-60000Y-103820D01*
X-59011Y-103690D01*
X-58090Y-103308D01*
X-57299Y-102701D01*
X-56692Y-101910D01*
X-56310Y-100989D01*
X-56180Y-100000D01*
X-56310Y-99011D01*
X-56692Y-98090D01*
X-57299Y-97299D01*
X-58090Y-96692D01*
X-59011Y-96310D01*
X-60000Y-96180D01*
D02*
G37*
G36*
X-20000D02*
X-20989Y-96310D01*
X-21910Y-96692D01*
X-22701Y-97299D01*
X-23308Y-98090D01*
X-23690Y-99011D01*
X-23820Y-100000D01*
X-23690Y-100989D01*
X-23308Y-101910D01*
X-22701Y-102701D01*
X-21910Y-103308D01*
X-20989Y-103690D01*
X-20000Y-103820D01*
X-19011Y-103690D01*
X-18090Y-103308D01*
X-17299Y-102701D01*
X-16692Y-101910D01*
X-16310Y-100989D01*
X-16180Y-100000D01*
X-16310Y-99011D01*
X-16692Y-98090D01*
X-17299Y-97299D01*
X-18090Y-96692D01*
X-19011Y-96310D01*
X-20000Y-96180D01*
D02*
G37*
G36*
X-10000D02*
X-10989Y-96310D01*
X-11910Y-96692D01*
X-12701Y-97299D01*
X-13308Y-98090D01*
X-13690Y-99011D01*
X-13820Y-100000D01*
X-13690Y-100989D01*
X-13308Y-101910D01*
X-12701Y-102701D01*
X-11910Y-103308D01*
X-10989Y-103690D01*
X-10000Y-103820D01*
X-9011Y-103690D01*
X-8090Y-103308D01*
X-7299Y-102701D01*
X-6692Y-101910D01*
X-6310Y-100989D01*
X-6180Y-100000D01*
X-6310Y-99011D01*
X-6692Y-98090D01*
X-7299Y-97299D01*
X-8090Y-96692D01*
X-9011Y-96310D01*
X-10000Y-96180D01*
D02*
G37*
G36*
X-150000Y-86180D02*
X-150989Y-86310D01*
X-151910Y-86692D01*
X-152701Y-87299D01*
X-153308Y-88090D01*
X-153690Y-89011D01*
X-153820Y-90000D01*
X-153690Y-90989D01*
X-153308Y-91910D01*
X-152701Y-92701D01*
X-151910Y-93308D01*
X-150989Y-93690D01*
X-150000Y-93820D01*
X-149011Y-93690D01*
X-148090Y-93308D01*
X-147299Y-92701D01*
X-146692Y-91910D01*
X-146310Y-90989D01*
X-146180Y-90000D01*
X-146310Y-89011D01*
X-146692Y-88090D01*
X-147299Y-87299D01*
X-148090Y-86692D01*
X-149011Y-86310D01*
X-150000Y-86180D01*
D02*
G37*
G36*
X-50000Y-96180D02*
X-50989Y-96310D01*
X-51910Y-96692D01*
X-52701Y-97299D01*
X-53308Y-98090D01*
X-53690Y-99011D01*
X-53820Y-100000D01*
X-53690Y-100989D01*
X-53308Y-101910D01*
X-52701Y-102701D01*
X-51910Y-103308D01*
X-50989Y-103690D01*
X-50000Y-103820D01*
X-49011Y-103690D01*
X-48090Y-103308D01*
X-47299Y-102701D01*
X-46692Y-101910D01*
X-46310Y-100989D01*
X-46180Y-100000D01*
X-46310Y-99011D01*
X-46692Y-98090D01*
X-47299Y-97299D01*
X-48090Y-96692D01*
X-49011Y-96310D01*
X-50000Y-96180D01*
D02*
G37*
G36*
X-40000D02*
X-40989Y-96310D01*
X-41910Y-96692D01*
X-42701Y-97299D01*
X-43308Y-98090D01*
X-43690Y-99011D01*
X-43820Y-100000D01*
X-43690Y-100989D01*
X-43308Y-101910D01*
X-42701Y-102701D01*
X-41910Y-103308D01*
X-40989Y-103690D01*
X-40000Y-103820D01*
X-39011Y-103690D01*
X-38090Y-103308D01*
X-37299Y-102701D01*
X-36692Y-101910D01*
X-36310Y-100989D01*
X-36180Y-100000D01*
X-36310Y-99011D01*
X-36692Y-98090D01*
X-37299Y-97299D01*
X-38090Y-96692D01*
X-39011Y-96310D01*
X-40000Y-96180D01*
D02*
G37*
G36*
X-30000D02*
X-30989Y-96310D01*
X-31910Y-96692D01*
X-32701Y-97299D01*
X-33308Y-98090D01*
X-33690Y-99011D01*
X-33820Y-100000D01*
X-33690Y-100989D01*
X-33308Y-101910D01*
X-32701Y-102701D01*
X-31910Y-103308D01*
X-30989Y-103690D01*
X-30000Y-103820D01*
X-29011Y-103690D01*
X-28090Y-103308D01*
X-27299Y-102701D01*
X-26692Y-101910D01*
X-26310Y-100989D01*
X-26180Y-100000D01*
X-26310Y-99011D01*
X-26692Y-98090D01*
X-27299Y-97299D01*
X-28090Y-96692D01*
X-29011Y-96310D01*
X-30000Y-96180D01*
D02*
G37*
G36*
X-130000D02*
X-130989Y-96310D01*
X-131910Y-96692D01*
X-132701Y-97299D01*
X-133308Y-98090D01*
X-133690Y-99011D01*
X-133820Y-100000D01*
X-133690Y-100989D01*
X-133308Y-101910D01*
X-132701Y-102701D01*
X-131910Y-103308D01*
X-130989Y-103690D01*
X-130000Y-103820D01*
X-129011Y-103690D01*
X-128090Y-103308D01*
X-127299Y-102701D01*
X-126692Y-101910D01*
X-126310Y-100989D01*
X-126180Y-100000D01*
X-126310Y-99011D01*
X-126692Y-98090D01*
X-127299Y-97299D01*
X-128090Y-96692D01*
X-129011Y-96310D01*
X-130000Y-96180D01*
D02*
G37*
G36*
X-20000Y-106180D02*
X-20989Y-106310D01*
X-21910Y-106692D01*
X-22701Y-107299D01*
X-23308Y-108090D01*
X-23690Y-109011D01*
X-23820Y-110000D01*
X-23690Y-110989D01*
X-23308Y-111910D01*
X-22701Y-112701D01*
X-21910Y-113308D01*
X-20989Y-113690D01*
X-20000Y-113820D01*
X-19011Y-113690D01*
X-18090Y-113308D01*
X-17299Y-112701D01*
X-16692Y-111910D01*
X-16310Y-110989D01*
X-16180Y-110000D01*
X-16310Y-109011D01*
X-16692Y-108090D01*
X-17299Y-107299D01*
X-18090Y-106692D01*
X-19011Y-106310D01*
X-20000Y-106180D01*
D02*
G37*
G36*
X-10000D02*
X-10989Y-106310D01*
X-11910Y-106692D01*
X-12701Y-107299D01*
X-13308Y-108090D01*
X-13690Y-109011D01*
X-13820Y-110000D01*
X-13690Y-110989D01*
X-13308Y-111910D01*
X-12701Y-112701D01*
X-11910Y-113308D01*
X-10989Y-113690D01*
X-10000Y-113820D01*
X-9011Y-113690D01*
X-8090Y-113308D01*
X-7299Y-112701D01*
X-6692Y-111910D01*
X-6310Y-110989D01*
X-6180Y-110000D01*
X-6310Y-109011D01*
X-6692Y-108090D01*
X-7299Y-107299D01*
X-8090Y-106692D01*
X-9011Y-106310D01*
X-10000Y-106180D01*
D02*
G37*
G36*
X-150000Y-96180D02*
X-150989Y-96310D01*
X-151910Y-96692D01*
X-152701Y-97299D01*
X-153308Y-98090D01*
X-153690Y-99011D01*
X-153820Y-100000D01*
X-153690Y-100989D01*
X-153308Y-101910D01*
X-152701Y-102701D01*
X-151910Y-103308D01*
X-150989Y-103690D01*
X-150000Y-103820D01*
X-149011Y-103690D01*
X-148090Y-103308D01*
X-147299Y-102701D01*
X-146692Y-101910D01*
X-146310Y-100989D01*
X-146180Y-100000D01*
X-146310Y-99011D01*
X-146692Y-98090D01*
X-147299Y-97299D01*
X-148090Y-96692D01*
X-149011Y-96310D01*
X-150000Y-96180D01*
D02*
G37*
G36*
X-30000Y-106180D02*
X-30989Y-106310D01*
X-31910Y-106692D01*
X-32701Y-107299D01*
X-33308Y-108090D01*
X-33690Y-109011D01*
X-33820Y-110000D01*
X-33690Y-110989D01*
X-33308Y-111910D01*
X-32701Y-112701D01*
X-31910Y-113308D01*
X-30989Y-113690D01*
X-30000Y-113820D01*
X-29011Y-113690D01*
X-28090Y-113308D01*
X-27299Y-112701D01*
X-26692Y-111910D01*
X-26310Y-110989D01*
X-26180Y-110000D01*
X-26310Y-109011D01*
X-26692Y-108090D01*
X-27299Y-107299D01*
X-28090Y-106692D01*
X-29011Y-106310D01*
X-30000Y-106180D01*
D02*
G37*
G36*
X-60000D02*
X-60989Y-106310D01*
X-61910Y-106692D01*
X-62701Y-107299D01*
X-63308Y-108090D01*
X-63690Y-109011D01*
X-63820Y-110000D01*
X-63690Y-110989D01*
X-63308Y-111910D01*
X-62701Y-112701D01*
X-61910Y-113308D01*
X-60989Y-113690D01*
X-60000Y-113820D01*
X-59011Y-113690D01*
X-58090Y-113308D01*
X-57299Y-112701D01*
X-56692Y-111910D01*
X-56310Y-110989D01*
X-56180Y-110000D01*
X-56310Y-109011D01*
X-56692Y-108090D01*
X-57299Y-107299D01*
X-58090Y-106692D01*
X-59011Y-106310D01*
X-60000Y-106180D01*
D02*
G37*
G36*
X-50000D02*
X-50989Y-106310D01*
X-51910Y-106692D01*
X-52701Y-107299D01*
X-53308Y-108090D01*
X-53690Y-109011D01*
X-53820Y-110000D01*
X-53690Y-110989D01*
X-53308Y-111910D01*
X-52701Y-112701D01*
X-51910Y-113308D01*
X-50989Y-113690D01*
X-50000Y-113820D01*
X-49011Y-113690D01*
X-48090Y-113308D01*
X-47299Y-112701D01*
X-46692Y-111910D01*
X-46310Y-110989D01*
X-46180Y-110000D01*
X-46310Y-109011D01*
X-46692Y-108090D01*
X-47299Y-107299D01*
X-48090Y-106692D01*
X-49011Y-106310D01*
X-50000Y-106180D01*
D02*
G37*
G36*
X-40000D02*
X-40989Y-106310D01*
X-41910Y-106692D01*
X-42701Y-107299D01*
X-43308Y-108090D01*
X-43690Y-109011D01*
X-43820Y-110000D01*
X-43690Y-110989D01*
X-43308Y-111910D01*
X-42701Y-112701D01*
X-41910Y-113308D01*
X-40989Y-113690D01*
X-40000Y-113820D01*
X-39011Y-113690D01*
X-38090Y-113308D01*
X-37299Y-112701D01*
X-36692Y-111910D01*
X-36310Y-110989D01*
X-36180Y-110000D01*
X-36310Y-109011D01*
X-36692Y-108090D01*
X-37299Y-107299D01*
X-38090Y-106692D01*
X-39011Y-106310D01*
X-40000Y-106180D01*
D02*
G37*
%LPD*%
G36*
X-126701Y-191155D02*
X-126799Y-191646D01*
X-126910Y-191692D01*
X-127701Y-192299D01*
X-128308Y-193090D01*
X-128690Y-194011D01*
X-128820Y-195000D01*
X-128690Y-195989D01*
X-128308Y-196910D01*
X-127835Y-197526D01*
X-128057Y-197975D01*
X-131058D01*
X-142758Y-186275D01*
X-142567Y-185813D01*
X-140515D01*
X-140372Y-186158D01*
X-139845Y-186845D01*
X-139158Y-187372D01*
X-138358Y-187703D01*
X-137500Y-187816D01*
X-136642Y-187703D01*
X-135842Y-187372D01*
X-135155Y-186845D01*
X-134628Y-186158D01*
X-134297Y-185358D01*
X-134184Y-184500D01*
X-134208Y-184318D01*
X-133760Y-184097D01*
X-126701Y-191155D01*
D02*
G37*
G36*
X-201202Y-101083D02*
X-200595Y-101874D01*
X-199804Y-102481D01*
X-198882Y-102863D01*
X-197894Y-102993D01*
X-196905Y-102863D01*
X-196321Y-102621D01*
X-194515Y-104428D01*
X-194089Y-104713D01*
X-193587Y-104813D01*
X-170044D01*
X-167387Y-107469D01*
Y-108603D01*
X-167849Y-108794D01*
X-168399Y-108245D01*
X-168825Y-107960D01*
X-169327Y-107861D01*
X-184338D01*
X-184585Y-107263D01*
X-185193Y-106472D01*
X-185984Y-105865D01*
X-186905Y-105483D01*
X-187894Y-105353D01*
X-188883Y-105483D01*
X-189804Y-105865D01*
X-190595Y-106472D01*
X-191202Y-107263D01*
X-191584Y-108185D01*
X-191714Y-109173D01*
X-191584Y-110162D01*
X-191202Y-111083D01*
X-190699Y-111739D01*
X-190920Y-112187D01*
X-193043D01*
X-194457Y-110773D01*
X-194204Y-110162D01*
X-194074Y-109173D01*
X-194204Y-108185D01*
X-194586Y-107263D01*
X-195193Y-106472D01*
X-195984Y-105865D01*
X-196905Y-105483D01*
X-197894Y-105353D01*
X-198882Y-105483D01*
X-199804Y-105865D01*
X-200595Y-106472D01*
X-201202Y-107263D01*
X-201397Y-107734D01*
X-201887Y-107636D01*
Y-100710D01*
X-201397Y-100613D01*
X-201202Y-101083D01*
D02*
G37*
G36*
X-183428Y-159428D02*
X-140313Y-202544D01*
Y-212485D01*
X-140658Y-212629D01*
X-141345Y-213155D01*
X-141872Y-213842D01*
X-142203Y-214642D01*
X-142316Y-215500D01*
X-142203Y-216358D01*
X-141872Y-217158D01*
X-141345Y-217845D01*
X-140658Y-218372D01*
X-139858Y-218703D01*
X-139000Y-218816D01*
X-138142Y-218703D01*
X-137342Y-218372D01*
X-136655Y-217845D01*
X-136128Y-217158D01*
X-135797Y-216358D01*
X-135750Y-216000D01*
X-135250D01*
X-135203Y-216358D01*
X-134871Y-217158D01*
X-134345Y-217845D01*
X-133658Y-218372D01*
X-132858Y-218703D01*
X-132000Y-218816D01*
X-131142Y-218703D01*
X-130342Y-218372D01*
X-129655Y-217845D01*
X-129129Y-217158D01*
X-128797Y-216358D01*
X-128684Y-215500D01*
X-128797Y-214642D01*
X-129129Y-213842D01*
X-129655Y-213155D01*
X-130342Y-212629D01*
X-130687Y-212485D01*
Y-209456D01*
X-130216Y-209141D01*
X-127060Y-212297D01*
X-127203Y-212642D01*
X-127316Y-213500D01*
X-127203Y-214358D01*
X-126872Y-215158D01*
X-126345Y-215845D01*
X-125658Y-216371D01*
X-124858Y-216703D01*
X-124000Y-216816D01*
X-123142Y-216703D01*
X-122342Y-216371D01*
X-121655Y-215845D01*
X-121128Y-215158D01*
X-120797Y-214358D01*
X-120684Y-213500D01*
X-120797Y-212642D01*
X-121128Y-211842D01*
X-121655Y-211155D01*
X-122342Y-210629D01*
X-123142Y-210297D01*
X-124000Y-210184D01*
X-124858Y-210297D01*
X-125203Y-210440D01*
X-126730Y-208914D01*
X-126452Y-208498D01*
X-125989Y-208690D01*
X-125000Y-208820D01*
X-124011Y-208690D01*
X-123090Y-208308D01*
X-122299Y-207701D01*
X-121692Y-206910D01*
X-121310Y-205989D01*
X-121180Y-205000D01*
X-121310Y-204011D01*
X-121692Y-203090D01*
X-122299Y-202299D01*
X-123090Y-201692D01*
X-124011Y-201310D01*
X-125000Y-201180D01*
X-125989Y-201310D01*
X-126910Y-201692D01*
X-127701Y-202299D01*
X-128148Y-202881D01*
X-128647Y-202914D01*
X-130498Y-201062D01*
X-130307Y-200600D01*
X-121367D01*
X-118475Y-203492D01*
X-118690Y-204011D01*
X-118820Y-205000D01*
X-118690Y-205989D01*
X-118308Y-206910D01*
X-117701Y-207701D01*
X-116910Y-208308D01*
X-115989Y-208690D01*
X-115000Y-208820D01*
X-114011Y-208690D01*
X-113090Y-208308D01*
X-112299Y-207701D01*
X-111692Y-206910D01*
X-111310Y-205989D01*
X-111209Y-205219D01*
X-110735Y-205058D01*
X-109865Y-205928D01*
X-109439Y-206213D01*
X-108937Y-206313D01*
X-108556D01*
X-108308Y-206910D01*
X-107701Y-207701D01*
X-106910Y-208308D01*
X-105989Y-208690D01*
X-105000Y-208820D01*
X-104011Y-208690D01*
X-103090Y-208308D01*
X-102299Y-207701D01*
X-101692Y-206910D01*
X-101310Y-205989D01*
X-101180Y-205000D01*
X-101310Y-204011D01*
X-101692Y-203090D01*
X-102299Y-202299D01*
X-103090Y-201692D01*
X-104011Y-201310D01*
X-105000Y-201180D01*
X-105989Y-201310D01*
X-106910Y-201692D01*
X-107701Y-202299D01*
X-108308Y-203090D01*
X-108336Y-203157D01*
X-108826Y-203254D01*
X-112296Y-199784D01*
X-112722Y-199500D01*
X-113224Y-199400D01*
X-115431D01*
X-115696Y-198975D01*
X-115581Y-198744D01*
X-115000Y-198820D01*
X-114011Y-198690D01*
X-113090Y-198308D01*
X-112299Y-197701D01*
X-111692Y-196910D01*
X-111310Y-195989D01*
X-111180Y-195000D01*
X-111310Y-194011D01*
X-111692Y-193090D01*
X-112299Y-192299D01*
X-113090Y-191692D01*
X-114011Y-191310D01*
X-115000Y-191180D01*
X-115989Y-191310D01*
X-116586Y-191558D01*
X-134072Y-174072D01*
X-134498Y-173787D01*
X-134402Y-173306D01*
X-133248D01*
X-118402Y-188152D01*
X-117816Y-188544D01*
X-117125Y-188681D01*
X-105873D01*
X-103608Y-190946D01*
X-103886Y-191362D01*
X-104011Y-191310D01*
X-105000Y-191180D01*
X-105989Y-191310D01*
X-106910Y-191692D01*
X-107701Y-192299D01*
X-108308Y-193090D01*
X-108690Y-194011D01*
X-108820Y-195000D01*
X-108690Y-195989D01*
X-108308Y-196910D01*
X-107701Y-197701D01*
X-106910Y-198308D01*
X-105989Y-198690D01*
X-105000Y-198820D01*
X-104011Y-198690D01*
X-103090Y-198308D01*
X-102299Y-197701D01*
X-102280Y-197677D01*
X-101806Y-197837D01*
Y-200000D01*
X-101669Y-200691D01*
X-101277Y-201277D01*
X-98647Y-203908D01*
X-98690Y-204011D01*
X-98820Y-205000D01*
X-98690Y-205989D01*
X-98647Y-206092D01*
X-130866Y-238312D01*
X-157114D01*
Y-236968D01*
X-159896D01*
X-160041Y-236490D01*
X-159723Y-236277D01*
X-157983Y-234537D01*
X-157591Y-233951D01*
X-157454Y-233260D01*
Y-233031D01*
X-157114D01*
Y-226732D01*
X-160642D01*
Y-226519D01*
X-162500D01*
Y-229882D01*
X-163500D01*
Y-226519D01*
X-164934D01*
Y-221260D01*
X-165071Y-220568D01*
X-165463Y-219983D01*
X-182723Y-202723D01*
X-183309Y-202331D01*
X-184000Y-202194D01*
X-184872D01*
X-185093Y-201745D01*
X-184585Y-201083D01*
X-184204Y-200162D01*
X-184074Y-199173D01*
X-184204Y-198185D01*
X-184585Y-197263D01*
X-185193Y-196472D01*
X-185984Y-195865D01*
X-186905Y-195483D01*
X-187894Y-195353D01*
X-188883Y-195483D01*
X-189804Y-195865D01*
X-190595Y-196472D01*
X-191202Y-197263D01*
X-191584Y-198185D01*
X-191714Y-199173D01*
X-191584Y-200162D01*
X-191202Y-201083D01*
X-190694Y-201745D01*
X-190915Y-202194D01*
X-192721D01*
X-193412Y-202331D01*
X-193998Y-202723D01*
X-196801Y-205526D01*
X-196905Y-205483D01*
X-197894Y-205353D01*
X-198882Y-205483D01*
X-198986Y-205526D01*
X-201790Y-202723D01*
X-201849Y-202683D01*
X-201887Y-202645D01*
Y-200711D01*
X-201397Y-200613D01*
X-201202Y-201083D01*
X-200595Y-201874D01*
X-199804Y-202482D01*
X-198882Y-202863D01*
X-197894Y-202993D01*
X-196905Y-202863D01*
X-195984Y-202482D01*
X-195193Y-201874D01*
X-194586Y-201083D01*
X-194204Y-200162D01*
X-194074Y-199173D01*
X-194204Y-198185D01*
X-194586Y-197263D01*
X-195193Y-196472D01*
X-195984Y-195865D01*
X-196905Y-195483D01*
X-197894Y-195353D01*
X-198882Y-195483D01*
X-199804Y-195865D01*
X-200595Y-196472D01*
X-201202Y-197263D01*
X-201397Y-197733D01*
X-201887Y-197636D01*
Y-191266D01*
X-201397Y-191168D01*
X-201388Y-191191D01*
X-200747Y-192026D01*
X-199911Y-192667D01*
X-198938Y-193070D01*
X-198394Y-193142D01*
Y-189173D01*
Y-185205D01*
X-198938Y-185276D01*
X-199911Y-185679D01*
X-200747Y-186320D01*
X-201388Y-187156D01*
X-201397Y-187178D01*
X-201887Y-187080D01*
Y-180710D01*
X-201397Y-180613D01*
X-201202Y-181083D01*
X-200595Y-181874D01*
X-199804Y-182482D01*
X-198882Y-182863D01*
X-197894Y-182993D01*
X-196905Y-182863D01*
X-195984Y-182482D01*
X-195193Y-181874D01*
X-194586Y-181083D01*
X-194204Y-180162D01*
X-194074Y-179173D01*
X-194204Y-178184D01*
X-194586Y-177263D01*
X-195193Y-176472D01*
X-195984Y-175865D01*
X-196905Y-175483D01*
X-197894Y-175353D01*
X-198882Y-175483D01*
X-199804Y-175865D01*
X-200595Y-176472D01*
X-201202Y-177263D01*
X-201397Y-177734D01*
X-201887Y-177636D01*
Y-170711D01*
X-201397Y-170613D01*
X-201202Y-171083D01*
X-200595Y-171874D01*
X-199804Y-172482D01*
X-198882Y-172863D01*
X-197894Y-172993D01*
X-196905Y-172863D01*
X-195984Y-172482D01*
X-195193Y-171874D01*
X-194586Y-171083D01*
X-194204Y-170162D01*
X-194074Y-169173D01*
X-194204Y-168184D01*
X-194586Y-167263D01*
X-195193Y-166472D01*
X-195984Y-165865D01*
X-196905Y-165483D01*
X-197894Y-165353D01*
X-198882Y-165483D01*
X-199804Y-165865D01*
X-200595Y-166472D01*
X-201202Y-167263D01*
X-201397Y-167734D01*
X-201887Y-167636D01*
Y-160711D01*
X-201397Y-160613D01*
X-201202Y-161083D01*
X-200595Y-161874D01*
X-199804Y-162481D01*
X-198882Y-162863D01*
X-197894Y-162993D01*
X-196905Y-162863D01*
X-196321Y-162621D01*
X-194015Y-164928D01*
X-193589Y-165213D01*
X-193087Y-165313D01*
X-189752D01*
X-189654Y-165803D01*
X-189804Y-165865D01*
X-190595Y-166472D01*
X-191202Y-167263D01*
X-191584Y-168184D01*
X-191714Y-169173D01*
X-191584Y-170162D01*
X-191202Y-171083D01*
X-190595Y-171874D01*
X-189804Y-172482D01*
X-188883Y-172863D01*
X-187894Y-172993D01*
X-186905Y-172863D01*
X-185984Y-172482D01*
X-185193Y-171874D01*
X-184786Y-171345D01*
X-184313Y-171505D01*
Y-176841D01*
X-184786Y-177002D01*
X-185193Y-176472D01*
X-185984Y-175865D01*
X-186905Y-175483D01*
X-187894Y-175353D01*
X-188883Y-175483D01*
X-189804Y-175865D01*
X-190595Y-176472D01*
X-191202Y-177263D01*
X-191584Y-178184D01*
X-191714Y-179173D01*
X-191584Y-180162D01*
X-191202Y-181083D01*
X-190595Y-181874D01*
X-189804Y-182482D01*
X-188883Y-182863D01*
X-187894Y-182993D01*
X-186905Y-182863D01*
X-185984Y-182482D01*
X-185193Y-181874D01*
X-184585Y-181083D01*
X-184204Y-180162D01*
X-184163Y-179855D01*
X-183690Y-179694D01*
X-167140Y-196244D01*
X-167418Y-196660D01*
X-167586Y-196590D01*
X-168000Y-196536D01*
Y-200000D01*
Y-203464D01*
X-167586Y-203410D01*
X-166735Y-203057D01*
X-166004Y-202496D01*
X-165443Y-201765D01*
X-165303Y-201428D01*
X-164813Y-201525D01*
Y-210000D01*
X-164713Y-210502D01*
X-164428Y-210928D01*
X-161060Y-214297D01*
X-161203Y-214642D01*
X-161316Y-215500D01*
X-161203Y-216358D01*
X-160872Y-217158D01*
X-160345Y-217845D01*
X-159658Y-218372D01*
X-158858Y-218703D01*
X-158000Y-218816D01*
X-157142Y-218703D01*
X-156342Y-218372D01*
X-155655Y-217845D01*
X-155129Y-217158D01*
X-154797Y-216358D01*
X-154684Y-215500D01*
X-154797Y-214642D01*
X-155129Y-213842D01*
X-155655Y-213155D01*
X-156342Y-212629D01*
X-157142Y-212297D01*
X-158000Y-212184D01*
X-158858Y-212297D01*
X-159203Y-212440D01*
X-162187Y-209456D01*
Y-199322D01*
X-161725Y-199131D01*
X-149313Y-211544D01*
Y-216000D01*
X-149213Y-216502D01*
X-148928Y-216928D01*
X-145060Y-220796D01*
X-145203Y-221142D01*
X-145316Y-222000D01*
X-145203Y-222858D01*
X-144871Y-223658D01*
X-144345Y-224345D01*
X-143658Y-224871D01*
X-142858Y-225203D01*
X-142000Y-225316D01*
X-141142Y-225203D01*
X-140342Y-224871D01*
X-139655Y-224345D01*
X-139128Y-223658D01*
X-138797Y-222858D01*
X-138684Y-222000D01*
X-138797Y-221142D01*
X-139128Y-220342D01*
X-139655Y-219655D01*
X-140342Y-219128D01*
X-141142Y-218797D01*
X-142000Y-218684D01*
X-142858Y-218797D01*
X-143203Y-218940D01*
X-146687Y-215456D01*
Y-211000D01*
X-146787Y-210498D01*
X-147072Y-210072D01*
X-179687Y-177456D01*
Y-166087D01*
X-179787Y-165584D01*
X-180072Y-165158D01*
X-184457Y-160773D01*
X-184204Y-160162D01*
X-184088Y-159283D01*
X-183601Y-159169D01*
X-183428Y-159428D01*
D02*
G37*
G36*
X-201202Y-141083D02*
X-200595Y-141874D01*
X-199804Y-142482D01*
X-198882Y-142863D01*
X-197894Y-142993D01*
X-196905Y-142863D01*
X-196321Y-142621D01*
X-194015Y-144928D01*
X-193589Y-145213D01*
X-193087Y-145313D01*
X-189752D01*
X-189654Y-145803D01*
X-189804Y-145865D01*
X-190595Y-146472D01*
X-191202Y-147263D01*
X-191584Y-148185D01*
X-191714Y-149173D01*
X-191584Y-150162D01*
X-191202Y-151083D01*
X-190595Y-151874D01*
X-189804Y-152481D01*
X-188883Y-152863D01*
X-187894Y-152993D01*
X-186905Y-152863D01*
X-186321Y-152621D01*
X-183813Y-155130D01*
Y-157848D01*
X-184303Y-157945D01*
X-184585Y-157263D01*
X-185193Y-156472D01*
X-185984Y-155865D01*
X-186905Y-155483D01*
X-187894Y-155353D01*
X-188883Y-155483D01*
X-189804Y-155865D01*
X-190595Y-156472D01*
X-191202Y-157263D01*
X-191584Y-158185D01*
X-191714Y-159173D01*
X-191584Y-160162D01*
X-191202Y-161083D01*
X-190595Y-161874D01*
X-190153Y-162214D01*
X-190313Y-162687D01*
X-192543D01*
X-194457Y-160773D01*
X-194204Y-160162D01*
X-194074Y-159173D01*
X-194204Y-158185D01*
X-194586Y-157263D01*
X-195193Y-156472D01*
X-195984Y-155865D01*
X-196905Y-155483D01*
X-197894Y-155353D01*
X-198882Y-155483D01*
X-199804Y-155865D01*
X-200595Y-156472D01*
X-201202Y-157263D01*
X-201397Y-157734D01*
X-201887Y-157636D01*
Y-150710D01*
X-201397Y-150613D01*
X-201202Y-151083D01*
X-200595Y-151874D01*
X-199804Y-152481D01*
X-198882Y-152863D01*
X-197894Y-152993D01*
X-196905Y-152863D01*
X-195984Y-152481D01*
X-195193Y-151874D01*
X-194586Y-151083D01*
X-194204Y-150162D01*
X-194074Y-149173D01*
X-194204Y-148185D01*
X-194586Y-147263D01*
X-195193Y-146472D01*
X-195984Y-145865D01*
X-196905Y-145483D01*
X-197894Y-145353D01*
X-198882Y-145483D01*
X-199804Y-145865D01*
X-200595Y-146472D01*
X-201202Y-147263D01*
X-201397Y-147733D01*
X-201887Y-147636D01*
Y-140710D01*
X-201397Y-140613D01*
X-201202Y-141083D01*
D02*
G37*
G36*
X-159500Y-153969D02*
X-158956Y-153897D01*
X-157983Y-153494D01*
X-157255Y-152935D01*
X-156806Y-153157D01*
Y-155000D01*
X-156669Y-155691D01*
X-156277Y-156277D01*
X-139777Y-172777D01*
X-139191Y-173169D01*
X-139086Y-173190D01*
X-139135Y-173687D01*
X-144901D01*
X-162975Y-155613D01*
Y-153324D01*
X-162526Y-153103D01*
X-162017Y-153494D01*
X-161044Y-153897D01*
X-160500Y-153969D01*
Y-150000D01*
X-159500D01*
Y-153969D01*
D02*
G37*
G36*
X-169175Y-111181D02*
Y-114465D01*
X-169637Y-114656D01*
X-171721Y-112572D01*
X-172147Y-112287D01*
X-172650Y-112187D01*
X-184868D01*
X-185089Y-111739D01*
X-184585Y-111083D01*
X-184338Y-110486D01*
X-169870D01*
X-169175Y-111181D01*
D02*
G37*
G36*
X-201202Y-111083D02*
X-200595Y-111874D01*
X-199804Y-112481D01*
X-198882Y-112863D01*
X-197894Y-112993D01*
X-196905Y-112863D01*
X-196321Y-112621D01*
X-194515Y-114428D01*
X-194089Y-114713D01*
X-193587Y-114813D01*
X-173193D01*
X-170962Y-117044D01*
Y-118965D01*
X-171424Y-119157D01*
X-172336Y-118245D01*
X-172761Y-117961D01*
X-173264Y-117861D01*
X-184338D01*
X-184585Y-117263D01*
X-185193Y-116472D01*
X-185984Y-115865D01*
X-186905Y-115483D01*
X-187894Y-115353D01*
X-188883Y-115483D01*
X-189804Y-115865D01*
X-190595Y-116472D01*
X-191202Y-117263D01*
X-191584Y-118184D01*
X-191714Y-119173D01*
X-191584Y-120162D01*
X-191202Y-121083D01*
X-190729Y-121700D01*
X-190950Y-122148D01*
X-192201D01*
X-192703Y-122248D01*
X-192874Y-122362D01*
X-193129Y-122532D01*
X-196322Y-125725D01*
X-196905Y-125483D01*
X-197894Y-125353D01*
X-198882Y-125483D01*
X-199804Y-125865D01*
X-200595Y-126472D01*
X-201202Y-127263D01*
X-201397Y-127734D01*
X-201887Y-127636D01*
Y-120711D01*
X-201397Y-120613D01*
X-201202Y-121083D01*
X-200595Y-121874D01*
X-199804Y-122482D01*
X-198882Y-122863D01*
X-197894Y-122993D01*
X-196905Y-122863D01*
X-195984Y-122482D01*
X-195193Y-121874D01*
X-194586Y-121083D01*
X-194204Y-120162D01*
X-194074Y-119173D01*
X-194204Y-118184D01*
X-194586Y-117263D01*
X-195193Y-116472D01*
X-195984Y-115865D01*
X-196905Y-115483D01*
X-197894Y-115353D01*
X-198882Y-115483D01*
X-199804Y-115865D01*
X-200595Y-116472D01*
X-201202Y-117263D01*
X-201397Y-117734D01*
X-201887Y-117636D01*
Y-110711D01*
X-201397Y-110613D01*
X-201202Y-111083D01*
D02*
G37*
G36*
X-165600Y-103256D02*
Y-104890D01*
X-166062Y-105082D01*
X-168572Y-102572D01*
X-168998Y-102287D01*
X-169500Y-102187D01*
X-184868D01*
X-185089Y-101739D01*
X-184585Y-101083D01*
X-184338Y-100486D01*
X-168370D01*
X-165600Y-103256D01*
D02*
G37*
G36*
X-133313Y-207016D02*
Y-212485D01*
X-133658Y-212629D01*
X-134345Y-213155D01*
X-134871Y-213842D01*
X-135203Y-214642D01*
X-135250Y-215000D01*
X-135750D01*
X-135797Y-214642D01*
X-136128Y-213842D01*
X-136655Y-213155D01*
X-137342Y-212629D01*
X-137687Y-212485D01*
Y-203294D01*
X-137225Y-203103D01*
X-133313Y-207016D01*
D02*
G37*
G36*
X-174537Y-123819D02*
Y-158898D01*
X-174999Y-159089D01*
X-176687Y-157401D01*
Y-149087D01*
X-176787Y-148584D01*
X-177072Y-148158D01*
X-184457Y-140773D01*
X-184204Y-140162D01*
X-184074Y-139173D01*
X-184204Y-138184D01*
X-184585Y-137263D01*
X-185193Y-136472D01*
X-185984Y-135865D01*
X-186905Y-135483D01*
X-187894Y-135353D01*
X-188883Y-135483D01*
X-189804Y-135865D01*
X-190595Y-136472D01*
X-191202Y-137263D01*
X-191584Y-138184D01*
X-191714Y-139173D01*
X-191584Y-140162D01*
X-191202Y-141083D01*
X-190595Y-141874D01*
X-190153Y-142214D01*
X-190313Y-142687D01*
X-192543D01*
X-194457Y-140773D01*
X-194204Y-140162D01*
X-194074Y-139173D01*
X-194204Y-138184D01*
X-194586Y-137263D01*
X-195193Y-136472D01*
X-195984Y-135865D01*
X-196905Y-135483D01*
X-197894Y-135353D01*
X-198882Y-135483D01*
X-199804Y-135865D01*
X-200595Y-136472D01*
X-201202Y-137263D01*
X-201397Y-137733D01*
X-201887Y-137636D01*
Y-130710D01*
X-201397Y-130613D01*
X-201202Y-131083D01*
X-200595Y-131874D01*
X-199804Y-132482D01*
X-198882Y-132863D01*
X-197894Y-132993D01*
X-196905Y-132863D01*
X-195984Y-132482D01*
X-195193Y-131874D01*
X-194586Y-131083D01*
X-194204Y-130162D01*
X-194074Y-129173D01*
X-194204Y-128184D01*
X-194457Y-127573D01*
X-191657Y-124773D01*
X-185361D01*
X-184858Y-124673D01*
X-184432Y-124389D01*
X-182356Y-122313D01*
X-176044D01*
X-174537Y-123819D01*
D02*
G37*
%LPC*%
G36*
X-141500Y-227536D02*
Y-230500D01*
X-138536D01*
X-138590Y-230086D01*
X-138943Y-229235D01*
X-139504Y-228504D01*
X-140235Y-227943D01*
X-141086Y-227590D01*
X-141500Y-227536D01*
D02*
G37*
G36*
X-142500D02*
X-142914Y-227590D01*
X-143765Y-227943D01*
X-144496Y-228504D01*
X-145057Y-229235D01*
X-145410Y-230086D01*
X-145464Y-230500D01*
X-142500D01*
Y-227536D01*
D02*
G37*
G36*
Y-231500D02*
X-145464D01*
X-145410Y-231914D01*
X-145057Y-232765D01*
X-144496Y-233496D01*
X-143765Y-234057D01*
X-142914Y-234410D01*
X-142500Y-234464D01*
Y-231500D01*
D02*
G37*
G36*
X-138536D02*
X-141500D01*
Y-234464D01*
X-141086Y-234410D01*
X-140235Y-234057D01*
X-139504Y-233496D01*
X-138943Y-232765D01*
X-138590Y-231914D01*
X-138536Y-231500D01*
D02*
G37*
G36*
X-169000Y-200500D02*
X-171964D01*
X-171910Y-200914D01*
X-171557Y-201765D01*
X-170996Y-202496D01*
X-170265Y-203057D01*
X-169414Y-203410D01*
X-169000Y-203464D01*
Y-200500D01*
D02*
G37*
G36*
X-187894Y-125353D02*
X-188883Y-125483D01*
X-189804Y-125865D01*
X-190595Y-126472D01*
X-191202Y-127263D01*
X-191584Y-128184D01*
X-191714Y-129173D01*
X-191584Y-130162D01*
X-191202Y-131083D01*
X-190595Y-131874D01*
X-189804Y-132482D01*
X-188883Y-132863D01*
X-187894Y-132993D01*
X-186905Y-132863D01*
X-185984Y-132482D01*
X-185193Y-131874D01*
X-184585Y-131083D01*
X-184204Y-130162D01*
X-184074Y-129173D01*
X-184204Y-128184D01*
X-184585Y-127263D01*
X-185193Y-126472D01*
X-185984Y-125865D01*
X-186905Y-125483D01*
X-187894Y-125353D01*
D02*
G37*
G36*
X-197394Y-185205D02*
Y-188673D01*
X-193925D01*
X-193997Y-188129D01*
X-194400Y-187156D01*
X-195041Y-186320D01*
X-195877Y-185679D01*
X-196850Y-185276D01*
X-197394Y-185205D01*
D02*
G37*
G36*
X-187894Y-185353D02*
X-188883Y-185483D01*
X-189804Y-185865D01*
X-190595Y-186472D01*
X-191202Y-187263D01*
X-191584Y-188184D01*
X-191714Y-189173D01*
X-191584Y-190162D01*
X-191202Y-191083D01*
X-190595Y-191874D01*
X-189804Y-192482D01*
X-188883Y-192863D01*
X-187894Y-192993D01*
X-186905Y-192863D01*
X-185984Y-192482D01*
X-185193Y-191874D01*
X-184585Y-191083D01*
X-184204Y-190162D01*
X-184074Y-189173D01*
X-184204Y-188184D01*
X-184585Y-187263D01*
X-185193Y-186472D01*
X-185984Y-185865D01*
X-186905Y-185483D01*
X-187894Y-185353D01*
D02*
G37*
G36*
X-169000Y-196536D02*
X-169414Y-196590D01*
X-170265Y-196943D01*
X-170996Y-197504D01*
X-171557Y-198235D01*
X-171910Y-199086D01*
X-171964Y-199500D01*
X-169000D01*
Y-196536D01*
D02*
G37*
G36*
X-193925Y-189673D02*
X-197394D01*
Y-193142D01*
X-196850Y-193070D01*
X-195877Y-192667D01*
X-195041Y-192026D01*
X-194400Y-191191D01*
X-193997Y-190217D01*
X-193925Y-189673D01*
D02*
G37*
%LPD*%
D10*
X-166740Y-229882D02*
D03*
X-163000D02*
D03*
X-159260D02*
D03*
X-166740Y-240118D02*
D03*
X-159260D02*
D03*
D11*
X-166000Y-250244D02*
D03*
Y-255756D02*
D03*
X-160000Y-250244D02*
D03*
Y-255756D02*
D03*
X-70000Y-292244D02*
D03*
Y-297756D02*
D03*
X-40000Y-292244D02*
D03*
Y-297756D02*
D03*
X-20000Y-292244D02*
D03*
Y-297756D02*
D03*
X-84000Y-199244D02*
D03*
Y-204756D02*
D03*
D12*
X-190244Y-262000D02*
D03*
X-195756D02*
D03*
X-195756Y-256000D02*
D03*
X-190244D02*
D03*
X-184756D02*
D03*
X-179244D02*
D03*
X-179244Y-262000D02*
D03*
X-184756D02*
D03*
D13*
X-181700Y-31000D02*
X-121000D01*
X-115000Y-25000D01*
Y-45000D02*
Y-25000D01*
X-140000Y-70000D02*
X-115000Y-45000D01*
X-140000Y-100000D02*
Y-90000D01*
Y-110000D02*
Y-100000D01*
Y-120000D02*
Y-110000D01*
Y-130000D02*
Y-120000D01*
Y-140000D02*
Y-130000D01*
Y-90000D02*
Y-80000D01*
Y-70000D01*
X-159260Y-240118D02*
X-130118D01*
X-95000Y-205000D01*
X-160000Y-120000D02*
Y-110000D01*
Y-100000D01*
Y-140000D02*
Y-130000D01*
Y-120000D01*
Y-100000D02*
Y-90000D01*
Y-80000D01*
Y-70000D01*
X-197913Y-189173D02*
X-194661D01*
X-189890Y-193945D01*
X-180555D01*
X-174500Y-200000D01*
X-168500D01*
X-30000Y-321500D02*
Y-320000D01*
X-61494D02*
X-60000D01*
X-86000Y-44000D02*
X-64000D01*
X-105000Y-25000D02*
X-86000Y-44000D01*
X-147000Y-231000D02*
X-142000D01*
X-155500Y-222500D02*
X-147000Y-231000D01*
X-160000Y-222500D02*
X-155500D01*
X-163000Y-225500D02*
X-160000Y-222500D01*
X-163000Y-229882D02*
Y-225500D01*
X-184000Y-204000D02*
X-166740Y-221260D01*
X-203087Y-204000D02*
X-203067D01*
X-197894Y-209173D01*
X-192721Y-204000D02*
X-184000D01*
X-197894Y-209173D02*
X-192721Y-204000D01*
X-187894Y-209173D02*
X-175000Y-222067D01*
X-179244Y-256000D02*
X-175000Y-251756D01*
X-190244Y-247244D02*
X-184000Y-241000D01*
X-175000D01*
Y-251756D02*
Y-241000D01*
Y-222067D01*
X-166740Y-229882D02*
Y-221260D01*
Y-229882D02*
X-166740Y-229882D01*
Y-233260D02*
Y-229882D01*
Y-233260D02*
X-165000Y-235000D01*
X-161000D01*
X-159260Y-233260D02*
Y-229882D01*
X-161000Y-235000D02*
X-159260Y-233260D01*
X-190244Y-256000D02*
Y-247244D01*
X-159260Y-249504D02*
Y-240118D01*
X-160000Y-250244D02*
X-159260Y-249504D01*
X-166740Y-249504D02*
Y-240118D01*
Y-249504D02*
X-166000Y-250244D01*
X-160000Y-140000D02*
X-155000Y-145000D01*
X-100000Y-200000D02*
Y-192000D01*
Y-200000D02*
X-95000Y-205000D01*
X-94756Y-204756D01*
X-84000D01*
X-155000Y-155000D02*
Y-145000D01*
Y-155000D02*
X-138500Y-171500D01*
X-105125Y-186875D02*
X-100000Y-192000D01*
X-138500Y-171500D02*
X-132500D01*
X-117125Y-186875D01*
X-105125D01*
X-203694Y-203393D02*
X-203087Y-204000D01*
X-203694Y-203393D02*
Y-37748D01*
X-200197Y-34252D01*
X-184952D01*
X-181700Y-31000D01*
D14*
X-182900Y-121000D02*
X-175500D01*
X-185361Y-123461D02*
X-182900Y-121000D01*
X-192201Y-123461D02*
X-185361D01*
X-116138Y-200713D02*
X-113224D01*
X-119287Y-197563D02*
X-116138Y-200713D01*
X-113224D02*
X-108937Y-205000D01*
X-105000D01*
X-129287Y-208213D02*
X-124000Y-213500D01*
X-187913Y-99173D02*
X-167827D01*
X-164287Y-102713D01*
X-197913Y-99173D02*
X-193587Y-103500D01*
X-169500D01*
X-166075Y-106925D01*
X-119287Y-197563D02*
Y-193240D01*
X-187913Y-109173D02*
X-169327D01*
X-167862Y-110638D01*
X-197913Y-109173D02*
X-193587Y-113500D01*
X-172650D01*
X-169650Y-116500D01*
X-187913Y-119173D02*
X-173264D01*
X-171437Y-121000D01*
X-120824Y-199287D02*
X-115111Y-205000D01*
X-115000D01*
X-197913Y-129173D02*
X-192201Y-123461D01*
X-175500Y-121000D02*
X-173224Y-123276D01*
X-20000Y-310000D02*
X-10000Y-320000D01*
X-40000D02*
Y-297756D01*
X-70000Y-320000D02*
Y-299400D01*
X-40000Y-292244D02*
Y-259000D01*
X-180000Y-93000D02*
Y-80500D01*
X-159500Y-60000D01*
Y-56000D01*
X-148500Y-45000D01*
X-142000D01*
X-170500Y-74000D02*
X-151000Y-54500D01*
X-142500D01*
X-170500Y-93000D02*
Y-74000D01*
X-69500Y-291744D02*
Y-259000D01*
X-20000Y-310000D02*
Y-297756D01*
X-22000Y-258000D02*
X-21500Y-258500D01*
Y-277500D02*
Y-258500D01*
Y-277500D02*
X-20000Y-279000D01*
Y-292244D02*
Y-279000D01*
X-197913Y-159173D02*
X-193087Y-164000D01*
X-197756Y-312244D02*
X-190000Y-320000D01*
X-197756Y-312244D02*
Y-264000D01*
X-190000Y-280000D02*
X-184756Y-274756D01*
Y-262000D01*
Y-256000D01*
X-184756Y-256000D02*
X-184756Y-256000D01*
X-184756Y-256000D02*
Y-248756D01*
X-183000Y-247000D01*
X-148000Y-216000D02*
X-142000Y-222000D01*
X-197756Y-264000D02*
X-195756Y-262000D01*
Y-256000D01*
X-195756Y-256000D02*
X-195756Y-256000D01*
X-195756Y-256000D02*
Y-249756D01*
X-195000Y-249000D01*
X-187913Y-149173D02*
X-182500Y-154587D01*
X-197913Y-139173D02*
X-193087Y-144000D01*
X-185614D01*
X-180000Y-149614D01*
X-187913Y-139173D02*
X-178000Y-149087D01*
X-125000Y-195000D02*
Y-191000D01*
X-163500Y-210000D02*
X-158000Y-215500D01*
X-193087Y-164000D02*
X-186000D01*
X-183000Y-167000D01*
X-187913Y-159173D02*
X-181000Y-166087D01*
X-148000Y-216000D02*
Y-211000D01*
X-163500Y-210000D02*
Y-198028D01*
X-183000Y-178528D02*
Y-167000D01*
X-181000Y-178000D02*
Y-166087D01*
X-183000Y-178528D02*
X-163500Y-198028D01*
X-181000Y-178000D02*
X-148000Y-211000D01*
X-137000Y-179000D02*
X-125000Y-191000D01*
X-135528Y-177000D02*
X-119287Y-193240D01*
X-135000Y-175000D02*
X-115000Y-195000D01*
X-164287Y-156157D02*
Y-102713D01*
Y-156157D02*
X-145445Y-175000D01*
X-135000D01*
X-166075Y-156897D02*
Y-106925D01*
Y-156897D02*
X-145972Y-177000D01*
X-135528D01*
X-167862Y-157638D02*
Y-110638D01*
Y-157638D02*
X-146500Y-179000D01*
X-137000D01*
X-173224Y-160192D02*
Y-123276D01*
Y-160192D02*
X-128417Y-205000D01*
X-169650Y-158712D02*
X-143861Y-184500D01*
X-171437Y-159452D02*
Y-121000D01*
X-169650Y-158712D02*
Y-116500D01*
X-143861Y-184500D02*
X-137500D01*
X-182500Y-158500D02*
Y-154587D01*
X-180000Y-158472D02*
Y-149614D01*
X-178000Y-157945D02*
Y-149087D01*
Y-157945D02*
X-129287Y-206657D01*
Y-208213D02*
Y-206657D01*
X-180000Y-158472D02*
X-132000Y-206472D01*
Y-215500D02*
Y-206472D01*
X-182500Y-158500D02*
X-139000Y-202000D01*
Y-215500D02*
Y-202000D01*
X-128417Y-205000D02*
X-125000D01*
X-171437Y-159452D02*
X-131602Y-199287D01*
X-120824D01*
D15*
X-10000Y-320000D02*
D03*
X-40000D02*
D03*
X-70000D02*
D03*
X-95000Y-195000D02*
D03*
X-45000Y-25000D02*
D03*
D16*
X0Y-320000D02*
D03*
X-30000D02*
D03*
X-60000D02*
D03*
X-10000Y-150000D02*
D03*
X-20000D02*
D03*
X-30000D02*
D03*
X-40000D02*
D03*
X-50000D02*
D03*
X-60000D02*
D03*
X-70000D02*
D03*
X-80000D02*
D03*
X-90000D02*
D03*
X-100000D02*
D03*
X-110000D02*
D03*
X-120000D02*
D03*
X-130000D02*
D03*
X-140000D02*
D03*
X-150000D02*
D03*
X-160000D02*
D03*
Y-140000D02*
D03*
Y-130000D02*
D03*
Y-120000D02*
D03*
Y-110000D02*
D03*
Y-100000D02*
D03*
Y-90000D02*
D03*
Y-80000D02*
D03*
Y-70000D02*
D03*
X-150000Y-140000D02*
D03*
Y-130000D02*
D03*
Y-120000D02*
D03*
Y-110000D02*
D03*
Y-100000D02*
D03*
Y-90000D02*
D03*
Y-80000D02*
D03*
Y-70000D02*
D03*
X-140000Y-140000D02*
D03*
Y-130000D02*
D03*
Y-120000D02*
D03*
Y-110000D02*
D03*
Y-100000D02*
D03*
Y-90000D02*
D03*
Y-80000D02*
D03*
Y-70000D02*
D03*
X-10000Y-140000D02*
D03*
Y-130000D02*
D03*
Y-120000D02*
D03*
Y-110000D02*
D03*
Y-100000D02*
D03*
Y-90000D02*
D03*
Y-80000D02*
D03*
Y-70000D02*
D03*
X-20000Y-140000D02*
D03*
Y-130000D02*
D03*
Y-120000D02*
D03*
Y-110000D02*
D03*
Y-100000D02*
D03*
Y-90000D02*
D03*
Y-80000D02*
D03*
Y-70000D02*
D03*
X-30000Y-140000D02*
D03*
Y-130000D02*
D03*
Y-120000D02*
D03*
Y-110000D02*
D03*
Y-100000D02*
D03*
Y-90000D02*
D03*
Y-80000D02*
D03*
Y-70000D02*
D03*
X-40000Y-140000D02*
D03*
Y-130000D02*
D03*
Y-120000D02*
D03*
Y-110000D02*
D03*
Y-100000D02*
D03*
Y-90000D02*
D03*
Y-80000D02*
D03*
Y-70000D02*
D03*
X-50000Y-140000D02*
D03*
Y-130000D02*
D03*
Y-120000D02*
D03*
Y-110000D02*
D03*
Y-100000D02*
D03*
Y-90000D02*
D03*
Y-80000D02*
D03*
Y-70000D02*
D03*
X-60000Y-140000D02*
D03*
Y-130000D02*
D03*
Y-120000D02*
D03*
Y-110000D02*
D03*
Y-100000D02*
D03*
Y-90000D02*
D03*
Y-80000D02*
D03*
Y-70000D02*
D03*
X-70000Y-140000D02*
D03*
Y-130000D02*
D03*
Y-120000D02*
D03*
Y-110000D02*
D03*
Y-100000D02*
D03*
Y-90000D02*
D03*
Y-80000D02*
D03*
Y-70000D02*
D03*
X-80000Y-140000D02*
D03*
Y-130000D02*
D03*
Y-120000D02*
D03*
Y-110000D02*
D03*
Y-100000D02*
D03*
Y-90000D02*
D03*
Y-80000D02*
D03*
Y-70000D02*
D03*
X-90000Y-140000D02*
D03*
Y-130000D02*
D03*
Y-120000D02*
D03*
Y-110000D02*
D03*
Y-100000D02*
D03*
Y-90000D02*
D03*
Y-80000D02*
D03*
Y-70000D02*
D03*
X-100000Y-140000D02*
D03*
Y-130000D02*
D03*
Y-120000D02*
D03*
Y-110000D02*
D03*
Y-100000D02*
D03*
Y-90000D02*
D03*
Y-80000D02*
D03*
Y-70000D02*
D03*
X-110000Y-140000D02*
D03*
Y-130000D02*
D03*
Y-120000D02*
D03*
Y-110000D02*
D03*
Y-100000D02*
D03*
Y-90000D02*
D03*
Y-80000D02*
D03*
Y-70000D02*
D03*
X-120000Y-140000D02*
D03*
Y-130000D02*
D03*
Y-120000D02*
D03*
Y-110000D02*
D03*
Y-100000D02*
D03*
Y-90000D02*
D03*
Y-80000D02*
D03*
Y-70000D02*
D03*
X-130000Y-140000D02*
D03*
Y-130000D02*
D03*
Y-120000D02*
D03*
Y-110000D02*
D03*
Y-100000D02*
D03*
Y-90000D02*
D03*
Y-80000D02*
D03*
Y-70000D02*
D03*
X-197894Y-209173D02*
D03*
Y-199173D02*
D03*
Y-189173D02*
D03*
Y-179173D02*
D03*
Y-169173D02*
D03*
Y-159173D02*
D03*
Y-149173D02*
D03*
Y-139173D02*
D03*
Y-129173D02*
D03*
Y-119173D02*
D03*
Y-109173D02*
D03*
Y-99173D02*
D03*
Y-89173D02*
D03*
Y-79173D02*
D03*
Y-69173D02*
D03*
Y-59173D02*
D03*
Y-49173D02*
D03*
Y-39173D02*
D03*
Y-29173D02*
D03*
Y-19173D02*
D03*
X-187894Y-199173D02*
D03*
Y-189173D02*
D03*
Y-179173D02*
D03*
Y-169173D02*
D03*
Y-159173D02*
D03*
Y-149173D02*
D03*
Y-139173D02*
D03*
Y-129173D02*
D03*
Y-119173D02*
D03*
Y-109173D02*
D03*
Y-99173D02*
D03*
Y-89173D02*
D03*
Y-79173D02*
D03*
Y-69173D02*
D03*
Y-59173D02*
D03*
Y-49173D02*
D03*
Y-39173D02*
D03*
Y-29173D02*
D03*
Y-19173D02*
D03*
X-125000Y-205000D02*
D03*
X-115000D02*
D03*
X-105000D02*
D03*
X-95000D02*
D03*
X-125000Y-195000D02*
D03*
X-115000D02*
D03*
X-105000D02*
D03*
X-55000Y-25000D02*
D03*
X-65000D02*
D03*
X-75000D02*
D03*
X-85000D02*
D03*
X-95000D02*
D03*
X-105000D02*
D03*
X-115000D02*
D03*
X-190000Y-300000D02*
D03*
Y-340000D02*
D03*
D17*
X-187894Y-209173D02*
D03*
X-190000Y-280000D02*
D03*
Y-320000D02*
D03*
D18*
X-124000Y-213500D02*
D03*
X-137500Y-184500D02*
D03*
X-139000Y-215500D02*
D03*
X-40000Y-259000D02*
D03*
X-69500D02*
D03*
X-180000Y-93000D02*
D03*
X-142000Y-45000D02*
D03*
X-170500Y-93000D02*
D03*
X-142500Y-54500D02*
D03*
X-168500Y-200000D02*
D03*
X-12500Y-332500D02*
D03*
X-64000Y-44000D02*
D03*
X-139000Y-248000D02*
D03*
X-142000Y-231000D02*
D03*
X-22000Y-258000D02*
D03*
X-158000Y-215500D02*
D03*
X-132000D02*
D03*
X-183000Y-247000D02*
D03*
X-142000Y-222000D02*
D03*
X-195000Y-249000D02*
D03*
D19*
X-160000Y-280000D02*
D03*
X0D02*
D03*
Y0D02*
D03*
Y-228346D02*
D03*
X-192913D02*
D03*
Y0D02*
D03*
M02*
